<svg width="528" height="325" viewBox="0 0 528 325" fill="none" xmlns="http://www.w3.org/2000/svg">
<g opacity="0.1">
<path d="M507.89 225.575C510.933 225.575 513.4 224.131 513.4 222.35C513.4 220.569 510.933 219.125 507.89 219.125C504.847 219.125 502.38 220.569 502.38 222.35C502.38 224.131 504.847 225.575 507.89 225.575Z" fill="white"/>
<path d="M507.89 249.875C510.933 249.875 513.4 248.431 513.4 246.65C513.4 244.869 510.933 243.425 507.89 243.425C504.847 243.425 502.38 244.869 502.38 246.65C502.38 248.431 504.847 249.875 507.89 249.875Z" fill="white"/>
<path d="M500.211 230.039C501.733 227.387 501.723 224.515 500.189 223.624C498.656 222.732 496.179 224.16 494.657 226.812C493.136 229.464 493.146 232.337 494.679 233.228C496.213 234.119 498.69 232.691 500.211 230.039Z" fill="white"/>
<path d="M521.12 242.188C522.642 239.536 522.633 236.664 521.1 235.773C519.567 234.883 517.091 236.311 515.57 238.963C514.048 241.615 514.057 244.487 515.59 245.377C517.123 246.268 519.599 244.84 521.12 242.188Z" fill="white"/>
<path d="M500.19 245.377C501.724 244.485 501.734 241.613 500.212 238.961C498.691 236.309 496.214 234.881 494.68 235.772C493.146 236.664 493.137 239.536 494.658 242.188C496.18 244.84 498.656 246.268 500.19 245.377Z" fill="white"/>
<path d="M521.101 233.228C522.634 232.338 522.643 229.466 521.121 226.814C519.6 224.162 517.124 222.734 515.591 223.624C514.059 224.515 514.05 227.387 515.571 230.039C517.093 232.691 519.569 234.119 521.101 233.228Z" fill="white"/>
</g>
<g opacity="0.1">
<path d="M464.848 156.574C472.151 154.921 478.597 149.936 481.823 142.548C487.21 130.21 481.576 115.84 469.237 110.453C456.899 105.065 442.529 110.701 437.142 123.039C433.916 130.427 434.642 138.544 438.393 145.024L457.691 131.957L446.01 126.856L447.69 123.008L459.371 128.109L461.1 124.148L449.42 119.048L451.1 115.2L478.085 126.982L476.404 130.83L464.726 125.731L462.997 129.691L474.675 134.791L472.995 138.639L461.316 133.54L464.848 156.574Z" fill="white"/>
<path d="M460.863 157.137L457.744 136.775L440.69 148.328C443.049 151.187 446.099 153.549 449.728 155.134C453.357 156.718 457.163 157.349 460.863 157.137Z" fill="white"/>
</g>
<g opacity="0.1" clip-path="url(#clip0_13342_45793)">
<path d="M107.166 134.171L102.483 143.946C101.998 144.958 101.154 145.758 100.114 146.191L97.8961 147.111L94.6763 139.32L90.6633 140.973L99.8432 163.248L102.032 162.346C103.256 161.842 104.133 160.728 104.296 159.425C104.298 159.416 104.298 159.407 104.3 159.401C104.406 158.53 104.029 157.05 103.597 156.112C102.612 153.966 102.024 153.545 102.024 153.545C102.566 155.07 101.023 155.801 101.023 155.801C101.707 154.278 100.765 153.727 100.765 153.727C99.3578 155.946 98.2457 154.655 98.1519 154.535C98.2356 154.562 98.993 154.796 99.4658 152.896C99.9659 150.889 100.421 147.697 101.112 146.64C101.803 145.58 102.741 145.258 102.741 145.258C102.741 145.258 102.976 144.333 104.128 143.171C105.28 142.012 106.527 142.502 106.527 142.502C105.571 144.228 104.408 146.895 105.404 149.62C106.211 151.824 112.463 153.601 113.9 159.44C113.881 157.988 113.565 156.655 112.757 155.178C112.106 153.985 110.218 151.711 110.218 151.711L117.306 156.048L122.316 153.983L107.03 144.688L113.137 131.711L107.166 134.171Z" fill="white"/>
</g>
<g opacity="0.1">
<path d="M250.76 17.967L250.748 17.9389C249.075 13.8793 251.005 9.23129 255.061 7.55952C259.117 5.88775 263.76 7.82438 265.435 11.8863L265.446 11.9144C265.479 12.0089 265.474 12.1124 265.433 12.2036C265.392 12.2947 265.318 12.3666 265.225 12.4044L251.262 18.159C251.17 18.1973 251.066 18.1988 250.973 18.1631C250.879 18.1274 250.803 18.0572 250.76 17.967ZM248.639 27.8912C248.55 27.9277 248.475 27.9897 248.421 28.0693C248.368 28.1489 248.339 28.2426 248.339 28.3385C248.339 28.4345 248.367 28.5283 248.421 28.6082C248.474 28.688 248.549 28.7504 248.638 28.7873C248.726 28.8242 248.824 28.834 248.918 28.8155C249.012 28.797 249.098 28.751 249.166 28.6834C249.234 28.6157 249.28 28.5294 249.299 28.4353C249.318 28.3413 249.308 28.2438 249.272 28.1551C249.223 28.0361 249.128 27.9415 249.01 27.892C248.891 27.8425 248.758 27.8422 248.639 27.8912ZM251.966 24.1454C251.89 24.1767 251.823 24.2273 251.773 24.2922C251.722 24.3571 251.689 24.4341 251.677 24.5156C251.665 24.5972 251.674 24.6804 251.704 24.7573C251.734 24.8342 251.783 24.9021 251.847 24.9543L251.859 24.9654C251.926 25.0197 252.006 25.055 252.091 25.0676C252.176 25.0802 252.263 25.0697 252.342 25.0371L267.31 18.8682C267.39 18.8354 267.459 18.7817 267.51 18.713C267.561 18.6442 267.593 18.5628 267.602 18.4773L267.604 18.4604C267.612 18.3786 267.6 18.2958 267.567 18.2202C267.534 18.1446 267.482 18.0789 267.417 18.0294C267.351 17.9799 267.273 17.9483 267.192 17.9379C267.11 17.9274 267.027 17.9384 266.951 17.9697L251.966 24.1454ZM250.054 20.75C250.106 20.86 250.198 20.9457 250.312 20.9895C250.426 21.0332 250.551 21.0316 250.664 20.985L267.636 13.9903C267.749 13.9443 267.839 13.8566 267.889 13.7456C267.939 13.6346 267.944 13.5086 267.903 13.3938L267.897 13.3798C267.877 13.3183 267.844 13.2617 267.8 13.2135C267.757 13.1653 267.704 13.1265 267.645 13.0996C267.586 13.0726 267.522 13.0581 267.458 13.0568C267.393 13.0556 267.329 13.0677 267.269 13.0924L250.294 20.0881C250.234 20.1129 250.18 20.1498 250.135 20.1963C250.09 20.2429 250.055 20.2982 250.032 20.3588C250.009 20.4195 249.998 20.4842 250.001 20.5491C250.004 20.6139 250.02 20.6775 250.048 20.736L250.054 20.75ZM265.058 25.8709L257.409 29.0231C256.945 29.2144 257.056 29.901 257.558 29.9401L257.592 29.9426C257.665 29.948 257.739 29.9364 257.807 29.9085L265.4 26.7794C265.468 26.7511 265.528 26.7075 265.576 26.6519L265.599 26.6263C265.927 26.245 265.522 25.6796 265.058 25.8709ZM268.896 21.9145L261.247 25.0668C260.783 25.2581 260.894 25.9446 261.396 25.9837L261.43 25.9862C261.503 25.9917 261.577 25.98 261.645 25.9522L269.238 22.823C269.306 22.7948 269.366 22.7511 269.414 22.6956L269.437 22.67C269.765 22.2887 269.36 21.7232 268.896 21.9145ZM270.354 18.9421L257.937 24.0593C257.554 24.2169 257.543 24.7598 257.92 24.9324L257.94 24.9406C258 24.9677 258.065 24.9822 258.13 24.9833C258.196 24.9844 258.261 24.9721 258.322 24.9472L270.708 19.8424C270.768 19.8173 270.823 19.7801 270.868 19.7332C270.914 19.6863 270.949 19.6307 270.972 19.5696L270.981 19.5498C271.129 19.1609 270.738 18.7834 270.354 18.9421ZM256.682 25.5709L256.705 25.5454C257.033 25.164 256.628 24.5986 256.164 24.7899L250.235 27.2336C249.77 27.4249 249.881 28.1115 250.383 28.1506L250.417 28.1531C250.49 28.1585 250.564 28.1469 250.632 28.119L256.506 25.6984C256.574 25.6701 256.634 25.6265 256.682 25.5709ZM249.068 21.6426C249.157 21.6061 249.233 21.5441 249.286 21.4644C249.339 21.3848 249.368 21.2911 249.368 21.1952C249.368 21.0993 249.34 21.0054 249.287 20.9256C249.233 20.8457 249.158 20.7834 249.069 20.7465C248.981 20.7096 248.884 20.6997 248.789 20.7182C248.695 20.7367 248.609 20.7827 248.541 20.8504C248.473 20.9181 248.427 21.0044 248.408 21.0984C248.39 21.1924 248.399 21.29 248.436 21.3787C248.485 21.4976 248.579 21.5922 248.697 21.6417C248.816 21.6912 248.949 21.6915 249.068 21.6426ZM260.751 18.8171C260.752 18.8114 260.75 18.8067 260.75 18.8011C260.741 18.7287 260.715 18.6594 260.674 18.5986C260.634 18.5378 260.58 18.4871 260.517 18.4505C260.454 18.4139 260.383 18.3923 260.31 18.3874C260.238 18.3826 260.165 18.3946 260.097 18.4225L247.678 23.5407C247.611 23.5683 247.551 23.6111 247.502 23.6658C247.454 23.7205 247.419 23.7857 247.4 23.8562C247.381 23.9266 247.379 24.0006 247.393 24.0722C247.407 24.1439 247.437 24.2113 247.482 24.2692C247.486 24.2729 247.488 24.2776 247.492 24.2813C247.556 24.3645 247.645 24.4244 247.746 24.4519C247.848 24.4794 247.955 24.4728 248.052 24.4334L260.461 19.319C260.558 19.2791 260.639 19.2083 260.692 19.1175C260.744 19.0267 260.765 18.9211 260.751 18.8171ZM246.083 24.1982C245.994 24.2347 245.918 24.2967 245.865 24.3764C245.812 24.456 245.783 24.5497 245.783 24.6456C245.783 24.7415 245.811 24.8353 245.864 24.9152C245.918 24.9951 245.993 25.0574 246.082 25.0943C246.17 25.1312 246.268 25.1411 246.362 25.1226C246.456 25.1041 246.542 25.0581 246.61 24.9904C246.678 24.9227 246.724 24.8364 246.743 24.7424C246.762 24.6484 246.752 24.5508 246.716 24.4621C246.666 24.3432 246.572 24.2486 246.454 24.1991C246.335 24.1496 246.202 24.1493 246.083 24.1982ZM250.108 25.436C250.144 25.5247 250.206 25.6006 250.286 25.654C250.365 25.7075 250.459 25.7361 250.555 25.7364C250.651 25.7366 250.744 25.7084 250.824 25.6552C250.904 25.6021 250.966 25.5265 251.003 25.438C251.04 25.3495 251.049 25.252 251.031 25.1579C251.012 25.0637 250.966 24.9772 250.899 24.9092C250.831 24.8413 250.745 24.7949 250.651 24.776C250.557 24.757 250.459 24.7664 250.371 24.8029C250.252 24.8519 250.157 24.9461 250.108 25.0648C250.059 25.1835 250.059 25.317 250.108 25.436ZM260.282 25.9892C260.246 25.9005 260.184 25.8246 260.104 25.7711C260.024 25.7177 259.931 25.689 259.835 25.6888C259.739 25.6886 259.645 25.7168 259.566 25.7699C259.486 25.823 259.424 25.8986 259.387 25.9872C259.35 26.0757 259.34 26.1732 259.359 26.2673C259.378 26.3614 259.424 26.4479 259.491 26.5159C259.559 26.5839 259.645 26.6303 259.739 26.6492C259.833 26.6681 259.931 26.6587 260.019 26.6222C260.138 26.5733 260.232 26.4791 260.282 26.3604C260.331 26.2416 260.331 26.1081 260.282 25.9892ZM255.811 29.6816C255.723 29.7181 255.647 29.7801 255.594 29.8598C255.54 29.9394 255.512 30.0331 255.512 30.129C255.512 30.2249 255.54 30.3188 255.593 30.3986C255.646 30.4785 255.722 30.5408 255.81 30.5777C255.899 30.6146 255.996 30.6245 256.09 30.606C256.184 30.5875 256.271 30.5415 256.338 30.4738C256.406 30.4061 256.453 30.3198 256.471 30.2258C256.49 30.1318 256.481 30.0342 256.444 29.9455C256.395 29.8266 256.301 29.732 256.182 29.6825C256.064 29.633 255.93 29.6327 255.811 29.6816Z" fill="white"/>
</g>
<g opacity="0.1">
<path d="M48.8436 202.75C44.0486 202.75 39.4501 204.622 36.0595 207.952C32.6689 211.283 30.7642 215.801 30.7642 220.511C30.7641 221.633 30.8711 222.753 31.0838 223.856L33.4193 222.286C37.5249 219.521 44.1848 219.521 48.2929 222.286L50.744 223.936L52.0715 224.832C55.7727 227.324 61.7689 227.324 65.4701 224.832L66.5604 224.1C67.0975 221.519 67.0441 218.853 66.404 216.295C65.7639 213.737 64.5531 211.35 62.8592 209.308C61.1653 207.266 59.0306 205.619 56.6095 204.486C54.1883 203.353 51.5412 202.764 48.8596 202.759L48.8436 202.75Z" fill="white"/>
<path d="M59.0044 231.181C56.2805 231.181 53.6757 230.456 51.7139 229.134L47.9389 226.592C46.1307 225.371 43.703 224.699 41.1081 224.699C38.5132 224.699 36.0855 225.368 34.2785 226.592L31.8361 228.234C31.6039 228.386 31.3204 228.441 31.047 228.389C30.7736 228.336 30.5321 228.18 30.3747 227.955C30.2173 227.729 30.1567 227.451 30.2058 227.182C30.255 226.912 30.4101 226.673 30.6376 226.515L33.0801 224.873C35.2386 223.424 38.0879 222.618 41.1081 222.618C44.1283 222.618 46.9777 223.418 49.1374 224.873L52.9124 227.415C54.7459 228.517 56.854 229.101 59.0038 229.101C61.1536 229.101 63.2617 228.517 65.0952 227.415L66.5297 226.448C66.7617 226.292 67.0473 226.233 67.3237 226.284C67.6001 226.335 67.8446 226.491 68.0036 226.719C68.1625 226.947 68.2228 227.227 68.1711 227.499C68.1195 227.77 67.9602 228.011 67.7282 228.167L66.2937 229.133C64.3233 230.459 61.7284 231.181 59.0044 231.181Z" fill="white"/>
<path d="M41.0295 238.64V228.606C41.0217 228.395 41.0311 228.183 41.0577 227.973C41.0895 227.697 41.2236 227.443 41.4344 227.257C41.6453 227.072 41.9182 226.97 42.2009 226.97C42.4755 226.977 42.7378 227.083 42.9374 227.268C43.1371 227.453 43.26 227.705 43.2827 227.973C43.3261 228.322 43.3388 228.673 43.3208 229.024V249.033C43.2593 249.776 42.7861 250.264 42.1493 250.25C41.5126 250.237 41.0528 249.729 41.0491 248.976V242.306L41.0295 238.64Z" fill="white"/>
<path d="M38.8819 233.59V238.576C38.8819 239.428 38.4185 239.993 37.7609 239.974C37.1033 239.955 36.6067 239.379 36.603 238.565V228.596C36.603 227.722 37.1205 227.134 37.7953 227.167C38.4702 227.2 38.8709 227.73 38.8746 228.603C38.8844 230.264 38.8819 231.927 38.8819 233.59Z" fill="white"/>
<path d="M45.4767 233.582V230.081C45.4767 229.268 45.9156 228.743 46.5695 228.743C47.2235 228.743 47.7274 229.285 47.7336 230.05C47.7598 232.437 47.7598 234.821 47.7336 237.205C47.7336 238.018 47.2419 238.507 46.5769 238.5C45.9119 238.492 45.4767 237.995 45.4706 237.162V233.58L45.4767 233.582Z" fill="white"/>
<path d="M32.1766 234.312V230.81C32.1766 229.997 32.6166 229.472 33.2706 229.472C33.9245 229.472 34.4273 230.014 34.4346 230.78C34.4568 233.166 34.4568 235.551 34.4346 237.934C34.4346 238.747 33.943 239.236 33.2767 239.229C32.6105 239.222 32.1704 238.724 32.1704 237.891V234.308L32.1766 234.312Z" fill="white"/>
<path d="M51.023 231.328H51.0193C50.4009 231.328 49.8995 231.821 49.8995 232.428V234.336C49.8995 234.944 50.4009 235.436 51.0193 235.436H51.023C51.6415 235.436 52.1429 234.944 52.1429 234.336V232.428C52.1429 231.821 51.6415 231.328 51.023 231.328Z" fill="white"/>
<path d="M55.463 232.998H55.4593C54.8408 232.998 54.3395 233.491 54.3395 234.098V244.792C54.3395 245.4 54.8408 245.892 55.4593 245.892H55.463C56.0815 245.892 56.5828 245.4 56.5828 244.792V234.098C56.5828 233.491 56.0815 232.998 55.463 232.998Z" fill="white"/>
<path d="M59.8722 233.412H59.8685C59.25 233.412 58.7487 233.905 58.7487 234.512V243.601C58.7487 244.209 59.25 244.701 59.8685 244.701H59.8722C60.4907 244.701 60.992 244.209 60.992 243.601V234.512C60.992 233.905 60.4907 233.412 59.8722 233.412Z" fill="white"/>
<path d="M64.3429 232.375H64.3392C63.7208 232.375 63.2194 232.867 63.2194 233.475V237.396C63.2194 238.004 63.7208 238.496 64.3392 238.496H64.3429C64.9614 238.496 65.4628 238.004 65.4628 237.396V233.475C65.4628 232.867 64.9614 232.375 64.3429 232.375Z" fill="white"/>
</g>
<g opacity="0.1">
<path d="M108.09 285.81C105.783 287.642 102.569 290.804 100.359 295.468C98.1938 300.288 101.845 302.27 101.882 302.289C101.882 302.289 99.5826 300.428 101.504 296.16C101.53 296.108 104.109 290.966 109.266 286.872C109.924 286.35 110.604 285.86 111.289 285.417L111.337 285.386L111.645 283.469L111.42 283.581C111.406 283.588 109.982 284.308 108.09 285.81Z" fill="white"/>
<path d="M110.34 279.862C109.527 279.605 108.759 279.454 108.751 279.452L108.705 279.444L108.665 279.467C108.649 279.475 107.109 280.349 105.137 281.914C101.609 284.715 97.1991 289.285 96.2199 295.154C95.7146 297.844 97.8796 299.915 97.8796 299.915L97.5785 299.284C97.5465 299.217 94.5212 292.469 106.861 282.672C107.941 281.815 109.123 280.947 110.375 280.092L110.594 279.942L110.34 279.862Z" fill="white"/>
<path d="M111.557 280.403C111.539 280.412 109.779 281.373 107.518 283.168C105.124 285.068 101.794 288.209 99.5231 292.377C98.1595 294.776 97.6687 297.191 98.1766 299.003C98.4239 299.888 100.153 301.266 100.153 301.266L99.6818 300.717C99.6604 300.692 97.5778 298.166 100.654 292.955C102.378 290.035 104.453 287.664 107.185 285.495C108.594 284.377 110 283.443 111.561 282.424L111.616 282.389L111.619 282.323C111.633 281.996 111.744 280.542 111.746 280.528L111.763 280.291L111.557 280.403Z" fill="white"/>
<path d="M95.641 297.304C94.6847 294.524 95.6975 291.168 98.655 287.325C100.171 285.198 102.042 283.245 104.216 281.519C106.059 280.055 107.752 279.144 107.752 279.144L105.904 278.706C105.892 278.713 104.649 279.418 102.998 280.728C92.4147 289.13 93.3729 295.64 94.4888 297.953C96.4353 301.985 102.517 302.903 102.517 302.903C102.517 302.903 97.0661 301.446 95.641 297.304Z" fill="white"/>
<path d="M100.975 309.734C103.283 307.902 106.496 304.74 108.706 300.076C110.872 295.256 107.221 293.274 107.183 293.255C107.183 293.255 109.483 295.116 107.561 299.384C107.536 299.436 104.956 304.578 99.7993 308.672C99.1417 309.194 98.4613 309.684 97.7768 310.127L97.7292 310.158L97.4211 312.075L97.6455 311.963C97.6596 311.956 99.0834 311.236 100.975 309.734Z" fill="white"/>
<path d="M98.7258 315.682C99.5388 315.939 100.307 316.09 100.315 316.092L100.361 316.1L100.402 316.078C100.417 316.069 101.958 315.195 103.929 313.63C107.457 310.83 111.867 306.259 112.846 300.391C113.351 297.7 111.186 295.63 111.186 295.63L111.488 296.26C111.52 296.327 114.545 303.075 102.205 312.872C101.125 313.73 99.9427 314.597 98.6911 315.452L98.4719 315.602L98.7258 315.682Z" fill="white"/>
<path d="M97.5097 315.141C97.527 315.132 99.2867 314.172 101.548 312.377C103.942 310.476 107.272 307.336 109.543 303.167C110.907 300.768 111.397 298.353 110.89 296.541C110.642 295.656 108.913 294.278 108.913 294.278L109.384 294.827C109.406 294.852 111.488 297.378 108.412 302.589C106.688 305.51 104.613 307.88 101.881 310.049C100.472 311.167 99.0658 312.102 97.5051 313.12L97.4501 313.156L97.4472 313.222C97.4331 313.549 97.3218 315.002 97.3205 315.017L97.3027 315.253L97.5097 315.141Z" fill="white"/>
<path d="M113.425 298.241C114.381 301.021 113.369 304.376 110.411 308.219C108.895 310.346 107.024 312.3 104.85 314.026C103.007 315.489 101.314 316.4 101.314 316.4L103.162 316.838C103.174 316.831 104.417 316.127 106.068 314.816C116.651 306.414 115.693 299.905 114.577 297.592C112.631 293.559 106.55 292.641 106.55 292.641C106.55 292.641 112 294.099 113.425 298.241Z" fill="white"/>
</g>
<g opacity="0.1">
<path d="M445.356 277.5H435.022L404.023 308.5H424.689L445.356 277.5Z" fill="white"/>
</g>
<g opacity="0.1">
<path fill-rule="evenodd" clip-rule="evenodd" d="M403.109 6.37354L408.502 14.4319L413.896 22.4921L403.109 27.9265L392.322 22.4716L397.716 14.4114L403.109 6.37354ZM403.109 30.0976L392.921 24.6614L403.109 38.5697L413.298 24.6614L403.109 30.0976Z" fill="#343434"/>
<path fill-rule="evenodd" clip-rule="evenodd" d="M403.109 6.37354L408.502 14.4114L413.896 22.4716L403.109 18.3996V6.37354Z" fill="#C6C6C6"/>
<path fill-rule="evenodd" clip-rule="evenodd" d="M403.109 30.0978L413.318 24.6616L403.109 38.5904V30.0978Z" fill="#C6C6C6"/>
<path fill-rule="evenodd" clip-rule="evenodd" d="M403.109 18.3994L413.896 22.4715L403.109 27.9058V18.3994Z" fill="#A3A3A3"/>
<path fill-rule="evenodd" clip-rule="evenodd" d="M403.109 6.37354L397.716 14.4114L392.322 22.4716L403.109 18.3996V6.37354Z" fill="white"/>
<path fill-rule="evenodd" clip-rule="evenodd" d="M403.109 30.0978L392.92 24.6616L403.109 38.5904V30.0978Z" fill="white"/>
<path fill-rule="evenodd" clip-rule="evenodd" d="M403.109 18.3994L392.322 22.4715L403.109 27.9058V18.3994Z" fill="#BFBFBF"/>
</g>
<g opacity="0.1">
<path d="M502.938 36.0023C494.896 35.858 488.017 42.5286 487.819 50.6814C487.684 56.2149 490.493 61.0912 494.771 63.8203C494.975 63.9505 495.244 63.8736 495.352 63.6556L498.687 56.8924C499.178 55.8981 499.103 54.7186 498.508 53.7854C497.999 52.9886 497.707 52.035 497.717 51.0124C497.744 48.3852 499.806 46.1925 502.394 46.0498C505.384 45.8867 507.836 48.4135 507.605 51.4593C507.421 53.9014 505.478 55.8714 503.07 56.0675C503.053 56.0675 503.037 56.0706 503.02 56.0706C501.925 56.149 500.949 56.7952 500.457 57.7896L497.12 64.5543C497.014 64.7724 497.114 65.0374 497.338 65.1236C499.02 65.7793 500.85 66.1337 502.762 66.1212C510.891 66.0695 517.513 59.3173 517.521 51.0766C517.531 42.8439 511.022 36.1482 502.938 36.0023Z" fill="white"/>
<path d="M492.766 76.1643C495.5 76.1643 497.717 73.9165 497.717 71.1437C497.717 68.3709 495.5 66.123 492.766 66.123C490.031 66.123 487.814 68.3709 487.814 71.1437C487.814 73.9165 490.031 76.1643 492.766 76.1643Z" fill="white"/>
</g>
<g opacity="0.1">
<path fill-rule="evenodd" clip-rule="evenodd" d="M146.273 28.5003C146.273 30.6526 145.875 32.712 145.148 34.6088L145.174 34.6328L145.115 34.6955C142.634 41.0678 136.439 45.5837 129.189 45.5837C119.754 45.5837 112.106 37.9352 112.106 28.5003C112.106 19.0655 119.754 11.417 129.189 11.417C138.624 11.417 146.273 19.0655 146.273 28.5003ZM142.856 28.5003C142.856 29.7175 142.697 30.8975 142.398 32.0207L130.653 20.9661C129.794 20.1579 128.443 20.1988 127.634 21.0576C126.826 21.9164 126.867 23.2679 127.726 24.0762L140.531 36.1281C138.076 39.771 133.912 42.167 129.189 42.167C121.641 42.167 115.523 36.0482 115.523 28.5003C115.523 27.4803 115.634 26.4865 115.846 25.5303L128.276 37.7015C129.119 38.5266 130.471 38.5124 131.296 37.6697C132.121 36.8271 132.107 35.4751 131.264 34.65L117.593 21.2638C120.008 17.4022 124.299 14.8337 129.189 14.8337C136.737 14.8337 142.856 20.9524 142.856 28.5003Z" fill="white"/>
</g>
<g opacity="0.1">
<path d="M60.9737 53.5335C60.027 53.0004 58.8801 52.2491 57.0154 52.3103C55.2639 52.3535 53.6979 53.7824 52.6368 54.7321C51.5758 55.6818 49.6959 58.2754 48.8809 59.1031C48.066 59.9308 45.803 60.9369 42.3608 63.8269C38.9187 66.7169 25.5132 78.6858 25.5132 78.6858L29.4052 78.1218L13.4993 89.8025L15.2311 89.5294L13.0384 91.8228C13.0384 91.8228 15.3317 92.0602 16.9923 90.5998L17.0769 91.1358C17.0769 91.1358 36.4099 79.73 40.7244 81.2133L38.4095 82.3109C38.6199 82.2777 42.5775 81.9197 42.5775 81.9197C42.801 82.7186 43.1971 83.4585 43.7377 84.0867C44.2783 84.7149 44.9501 85.216 45.7054 85.5544C48.3143 86.7408 48.4986 87.5939 48.4986 87.5939C48.4986 87.5939 47.348 88.2915 47.4479 88.9249C47.4479 88.9249 49.1735 88.0867 50.8644 87.8699C51.9391 87.7421 53.0253 87.744 54.0998 87.8756C54.0998 87.8756 53.8627 87.2138 52.1563 87.017C50.4499 86.8201 48.5497 85.2888 47.6029 84.4394C47.0193 83.8958 46.5865 83.2093 46.3471 82.4474C46.1077 81.6856 46.0698 80.8745 46.2373 80.094C46.5706 78.5267 48.4171 77.4031 52.1625 74.6484C56.5748 71.3889 57.3833 69.3638 57.835 67.8111C58.2868 66.2584 58.8367 63.2254 59.1905 61.788C59.6285 59.9378 60.3565 58.8742 60.9977 58.2071C61.6389 57.54 64.6836 55.8113 64.6836 55.8113C64.6836 55.8113 61.8666 54.0418 60.9737 53.5335Z" fill="white"/>
</g>
<g filter="url(#filter0_i_13342_45793)">
<rect x="137" y="49" width="255" height="64" rx="13.0909" fill="white" fill-opacity="0.01"/>
<path d="M209.335 83.9568V78.175C210.425 77.7863 211.206 76.7585 211.206 75.5468C211.206 74.0013 209.938 72.7498 208.373 72.7498C207.712 72.7498 207.104 72.9756 206.622 73.351L201.314 70.3976C201.33 70.2761 201.341 70.1533 201.341 70.0275C201.341 68.482 200.073 67.2305 198.508 67.2305C196.945 67.2305 195.676 68.4823 195.676 70.0275C195.676 70.17 195.69 70.3091 195.711 70.4457L190.623 73.2764C190.158 72.9463 189.589 72.7498 188.972 72.7498C187.409 72.7498 186.139 74.0013 186.139 75.5468C186.139 76.6693 186.811 77.6339 187.777 78.0791V84.0522C186.811 84.4976 186.139 85.4625 186.139 86.5851C186.139 88.1306 187.409 89.3814 188.972 89.3814C189.718 89.3814 190.394 89.0949 190.9 88.6303L195.718 91.3107C195.692 91.4634 195.675 91.6191 195.675 91.7796C195.675 93.325 196.945 94.5759 198.508 94.5759C200.073 94.5759 201.341 93.3247 201.341 91.7796C201.341 91.6361 201.327 91.4967 201.306 91.3594L206.357 88.5489C206.871 89.0625 207.585 89.3814 208.373 89.3814C209.938 89.3814 211.206 88.1303 211.206 86.5851C211.206 85.374 210.425 84.3458 209.335 83.9568ZM196.628 89.6927L191.772 86.9913C191.791 86.8584 191.805 86.7236 191.805 86.5854C191.805 85.2719 190.887 84.1734 189.651 83.8723V78.2592C190.103 78.1494 190.512 77.9328 190.85 77.6373L195.896 80.5707C195.871 80.7212 195.854 80.8748 195.854 81.0328C195.854 82.2617 196.659 83.3022 197.774 83.6777V89.0813C197.343 89.1957 196.952 89.4074 196.628 89.6927ZM200.494 78.878C200.004 78.477 199.374 78.2358 198.688 78.2358C197.963 78.2358 197.304 78.5069 196.803 78.9496L191.762 76.0197C191.789 75.8657 191.805 75.7084 191.805 75.5468C191.805 75.2883 191.767 75.039 191.701 74.8012L196.59 72.081C197.095 72.5409 197.768 72.8241 198.509 72.8241C199.268 72.8241 199.955 72.5283 200.464 72.0489L205.616 74.9153C205.568 75.1186 205.541 75.3293 205.541 75.5471C205.541 75.6399 205.546 75.7315 205.555 75.8219L200.494 78.878ZM200.425 89.7251C200.198 89.5175 199.937 89.346 199.649 89.2207V83.6607C200.74 83.2717 201.521 82.2442 201.521 81.0325C201.521 80.8372 201.5 80.6469 201.462 80.4627L206.355 77.5071C206.661 77.8141 207.038 78.0495 207.46 78.1917V83.9393C206.345 84.315 205.54 85.3561 205.54 86.5848C205.54 86.6813 205.545 86.7766 205.555 86.8707L200.425 89.7251Z" fill="white"/>
<path d="M225.389 87.4033L230.184 74.0952H233.21L238.15 87.4033H236.309L231.843 75.2619L232.718 75.6995H230.567L231.496 75.2619L227.176 87.4033H225.389ZM228.251 83.4291L228.853 81.8248H234.596L235.197 83.4291H228.251ZM240.338 87.4033V74.0952H242.088V87.4033H240.338ZM238.989 75.4807V74.0952H242.088V75.4807H238.989ZM245.554 87.4033V74.0952H247.304V87.4033H245.554ZM244.205 75.4807V74.0952H247.304V75.4807H244.205ZM254.809 87.4033V77.6683H256.195V81.8431H255.976C255.976 80.8829 256.104 80.0747 256.359 79.4184C256.626 78.75 257.027 78.2456 257.562 77.9053C258.097 77.5529 258.771 77.3767 259.586 77.3767H259.659C260.886 77.3767 261.792 77.7595 262.375 78.5252C262.97 79.2908 263.268 80.3968 263.268 81.8431V87.4033H261.518V81.4785C261.518 80.725 261.305 80.1234 260.88 79.6737C260.455 79.2118 259.871 78.9809 259.13 78.9809C258.364 78.9809 257.744 79.2179 257.27 79.6919C256.796 80.1659 256.559 80.7979 256.559 81.5879V87.4033H254.809ZM270.609 87.7315C269.758 87.7315 269.023 87.5856 268.403 87.2939C267.783 87.0023 267.279 86.6194 266.89 86.1454C266.501 85.6593 266.209 85.1185 266.015 84.5229C265.832 83.9274 265.741 83.3197 265.741 82.6999V82.3718C265.741 81.7398 265.832 81.126 266.015 80.5305C266.209 79.935 266.501 79.4002 266.89 78.9262C267.279 78.4401 267.771 78.0573 268.366 77.7777C268.974 77.486 269.685 77.3402 270.499 77.3402C271.557 77.3402 272.426 77.5711 273.106 78.0329C273.799 78.4826 274.309 79.066 274.638 79.7831C274.978 80.5001 275.148 81.2658 275.148 82.0801V82.864H266.507V81.5514H273.872L273.471 82.2624C273.471 81.5696 273.361 80.9741 273.143 80.4758C272.924 79.9654 272.596 79.5704 272.158 79.2908C271.721 79.0113 271.168 78.8715 270.499 78.8715C269.807 78.8715 269.229 79.0295 268.767 79.3455C268.318 79.6615 267.977 80.093 267.746 80.6399C267.528 81.1868 267.418 81.8188 267.418 82.5358C267.418 83.2286 267.528 83.8545 267.746 84.4136C267.977 84.9605 268.33 85.398 268.804 85.7261C269.278 86.0421 269.879 86.2001 270.609 86.2001C271.374 86.2001 271.994 86.03 272.468 85.6897C272.954 85.3494 273.246 84.9544 273.343 84.5047H274.984C274.85 85.1731 274.583 85.7504 274.182 86.2366C273.781 86.7227 273.276 87.0934 272.669 87.3486C272.061 87.6039 271.374 87.7315 270.609 87.7315ZM281.425 87.5127C280.696 87.5127 280.064 87.4094 279.529 87.2028C279.006 86.9962 278.599 86.6437 278.307 86.1454C278.028 85.635 277.888 84.9483 277.888 84.0854V74.715H279.565V84.3042C279.565 84.8268 279.705 85.2339 279.985 85.5256C280.276 85.8051 280.683 85.9449 281.206 85.9449H282.92V87.5127H281.425ZM276.211 78.9809V77.6683H282.92V78.9809H276.211ZM288.239 87.4033L290.208 77.9965H292.578L294.875 87.4033H293.38L291.083 78.0329H291.666L289.679 87.4033H288.239ZM287.346 87.4033V86.0178H289.369V87.4033H287.346ZM286.945 87.4033L284.192 77.6683H285.869L288.549 87.4033H286.945ZM293.744 87.4033V86.0178H295.768V87.4033H293.744ZM294.565 87.4033L296.898 77.6683H298.484L296.096 87.4033H294.565ZM305.155 87.7315C304.304 87.7315 303.556 87.5856 302.912 87.2939C302.268 87.0023 301.721 86.6194 301.272 86.1454C300.834 85.6593 300.5 85.1185 300.269 84.5229C300.05 83.9274 299.941 83.3197 299.941 82.6999V82.3718C299.941 81.7519 300.056 81.1442 300.287 80.5487C300.518 79.941 300.858 79.4002 301.308 78.9262C301.758 78.4401 302.305 78.0573 302.949 77.7777C303.593 77.486 304.328 77.3402 305.155 77.3402C305.981 77.3402 306.716 77.486 307.361 77.7777C308.005 78.0573 308.552 78.4401 309.001 78.9262C309.451 79.4002 309.791 79.941 310.022 80.5487C310.253 81.1442 310.369 81.7519 310.369 82.3718V82.6999C310.369 83.3197 310.253 83.9274 310.022 84.5229C309.803 85.1185 309.469 85.6593 309.019 86.1454C308.582 86.6194 308.041 87.0023 307.397 87.2939C306.753 87.5856 306.005 87.7315 305.155 87.7315ZM305.155 86.1637C305.884 86.1637 306.504 86.0057 307.014 85.6897C307.537 85.3615 307.932 84.924 308.199 84.3771C308.479 83.8302 308.618 83.2164 308.618 82.5358C308.618 81.8431 308.479 81.2232 308.199 80.6763C307.92 80.1294 307.519 79.698 306.996 79.382C306.485 79.066 305.872 78.908 305.155 78.908C304.45 78.908 303.836 79.066 303.313 79.382C302.791 79.698 302.39 80.1294 302.11 80.6763C301.831 81.2232 301.691 81.8431 301.691 82.5358C301.691 83.2164 301.825 83.8302 302.092 84.3771C302.371 84.924 302.766 85.3615 303.277 85.6897C303.8 86.0057 304.425 86.1637 305.155 86.1637ZM312.99 87.4033V77.6683H314.375V81.679H314.302C314.302 80.257 314.612 79.2179 315.232 78.5616C315.864 77.8932 316.806 77.559 318.058 77.559H318.386V79.1268H317.766C316.794 79.1268 316.046 79.3881 315.524 79.9107C315.001 80.4211 314.74 81.1625 314.74 82.1348V87.4033H312.99ZM327.176 87.4033L323.511 82.864H321.907L326.374 77.6683H328.215L324.168 82.3535L324.295 81.4238L329.199 87.4033H327.176ZM320.467 87.4033V74.0952H322.217V87.4033H320.467ZM333.965 87.695C332.689 87.695 331.699 87.4216 330.994 86.8746C330.301 86.3277 329.942 85.5803 329.918 84.6323H331.559C331.583 85.0091 331.772 85.3676 332.124 85.7079C332.489 86.036 333.102 86.2001 333.965 86.2001C334.743 86.2001 335.339 86.0482 335.752 85.7444C336.165 85.4284 336.372 85.0455 336.372 84.5959C336.372 84.1948 336.22 83.8849 335.916 83.6661C335.612 83.4352 335.12 83.2833 334.439 83.2104L333.382 83.101C332.458 83.0037 331.705 82.7303 331.121 82.2806C330.538 81.8188 330.246 81.1746 330.246 80.3482C330.246 79.7284 330.404 79.1997 330.72 78.7622C331.036 78.3125 331.474 77.9722 332.033 77.7413C332.592 77.4982 333.236 77.3767 333.965 77.3767C335.059 77.3767 335.946 77.6197 336.627 78.1059C337.307 78.592 337.66 79.3151 337.684 80.2753H336.043C336.031 79.8864 335.849 79.5582 335.497 79.2908C335.156 79.0113 334.646 78.8715 333.965 78.8715C333.285 78.8715 332.768 79.0113 332.416 79.2908C332.063 79.5704 331.887 79.9228 331.887 80.3482C331.887 80.7128 332.008 81.0045 332.252 81.2232C332.507 81.442 332.92 81.5818 333.491 81.6425L334.549 81.7519C335.594 81.8613 336.432 82.153 337.064 82.627C337.696 83.0888 338.012 83.7451 338.012 84.5959C338.012 85.2035 337.836 85.7444 337.484 86.2184C337.143 86.6802 336.669 87.0448 336.062 87.3122C335.454 87.5674 334.755 87.695 333.965 87.695Z" fill="white"/>
</g>
<g filter="url(#filter1_i_13342_45793)">
<rect x="137" y="134" width="255" height="64" rx="13.0909" fill="white" fill-opacity="0.01"/>
<path fill-rule="evenodd" clip-rule="evenodd" d="M170.404 160.169L174.767 155.079L179.471 160.567L182.515 157.016L184.941 159.846C186.501 161.665 187.358 163.982 187.358 166.378V166.7C187.358 169.269 186.337 171.732 184.521 173.549C182.705 175.365 180.241 176.385 177.673 176.385V176.385C172.324 176.385 167.988 172.049 167.988 166.7V166.7C167.988 164.305 168.845 161.988 170.404 160.169Z" fill="white" stroke="white" stroke-width="1.70909" stroke-linecap="round" stroke-linejoin="round"/>
<path d="M207.233 167.773V166.205H210.205C210.837 166.205 211.359 166.083 211.773 165.84C212.186 165.585 212.496 165.245 212.702 164.82C212.921 164.394 213.03 163.92 213.03 163.398C213.03 162.863 212.921 162.383 212.702 161.957C212.496 161.532 212.186 161.198 211.773 160.955C211.359 160.712 210.837 160.59 210.205 160.59H207.233V159.022H209.877C210.97 159.022 211.882 159.199 212.611 159.551C213.352 159.891 213.912 160.377 214.288 161.009C214.665 161.641 214.853 162.389 214.853 163.252V163.543C214.853 164.394 214.665 165.142 214.288 165.786C213.912 166.418 213.352 166.91 212.611 167.262C211.882 167.603 210.97 167.773 209.877 167.773H207.233ZM205.811 172.403V159.022H207.598V172.403H205.811ZM221.524 172.731C220.673 172.731 219.925 172.586 219.281 172.294C218.637 172.002 218.09 171.619 217.641 171.145C217.203 170.659 216.869 170.118 216.638 169.523C216.419 168.927 216.31 168.32 216.31 167.7V167.372C216.31 166.752 216.425 166.144 216.656 165.549C216.887 164.941 217.227 164.4 217.677 163.926C218.127 163.44 218.674 163.057 219.318 162.778C219.962 162.486 220.697 162.34 221.524 162.34C222.35 162.34 223.085 162.486 223.729 162.778C224.374 163.057 224.92 163.44 225.37 163.926C225.82 164.4 226.16 164.941 226.391 165.549C226.622 166.144 226.737 166.752 226.737 167.372V167.7C226.737 168.32 226.622 168.927 226.391 169.523C226.172 170.118 225.838 170.659 225.388 171.145C224.951 171.619 224.41 172.002 223.766 172.294C223.122 172.586 222.374 172.731 221.524 172.731ZM221.524 171.164C222.253 171.164 222.873 171.006 223.383 170.69C223.906 170.362 224.301 169.924 224.568 169.377C224.848 168.83 224.987 168.216 224.987 167.536C224.987 166.843 224.848 166.223 224.568 165.676C224.289 165.129 223.887 164.698 223.365 164.382C222.854 164.066 222.241 163.908 221.524 163.908C220.819 163.908 220.205 164.066 219.682 164.382C219.16 164.698 218.759 165.129 218.479 165.676C218.2 166.223 218.06 166.843 218.06 167.536C218.06 168.216 218.194 168.83 218.461 169.377C218.74 169.924 219.135 170.362 219.646 170.69C220.168 171.006 220.794 171.164 221.524 171.164ZM229.359 176.049V162.668H230.744V166.88L230.416 166.843C230.477 165.798 230.696 164.947 231.072 164.291C231.461 163.622 231.966 163.13 232.585 162.814C233.205 162.498 233.88 162.34 234.609 162.34C235.314 162.34 235.952 162.474 236.523 162.741C237.107 163.009 237.605 163.373 238.018 163.835C238.431 164.297 238.747 164.832 238.966 165.439C239.185 166.047 239.294 166.691 239.294 167.372V167.7C239.294 168.38 239.179 169.025 238.948 169.632C238.717 170.24 238.389 170.775 237.963 171.237C237.55 171.698 237.052 172.063 236.468 172.33C235.897 172.598 235.265 172.731 234.572 172.731C233.88 172.731 233.217 172.58 232.585 172.276C231.953 171.972 231.431 171.48 231.018 170.799C230.604 170.118 230.367 169.225 230.307 168.119L231.109 169.578V176.049H229.359ZM234.299 171.2C234.955 171.2 235.527 171.048 236.013 170.744C236.499 170.428 236.876 169.997 237.143 169.45C237.41 168.891 237.544 168.253 237.544 167.536C237.544 166.807 237.41 166.169 237.143 165.622C236.876 165.075 236.499 164.649 236.013 164.346C235.527 164.03 234.955 163.872 234.299 163.872C233.716 163.872 233.175 164.005 232.677 164.273C232.178 164.528 231.777 164.905 231.473 165.403C231.182 165.889 231.036 166.478 231.036 167.171V168.01C231.036 168.678 231.188 169.249 231.492 169.723C231.795 170.197 232.196 170.562 232.695 170.817C233.193 171.073 233.728 171.2 234.299 171.2ZM245.3 172.695C244.146 172.695 243.258 172.318 242.639 171.565C242.019 170.811 241.709 169.723 241.709 168.302V162.65H243.459V168.648C243.459 169.414 243.666 170.015 244.079 170.453C244.492 170.878 245.051 171.091 245.756 171.091C246.485 171.091 247.081 170.86 247.542 170.398C248.004 169.924 248.235 169.28 248.235 168.466V162.65H249.985V172.403H248.6V168.229H248.819C248.819 169.189 248.691 170.003 248.436 170.671C248.181 171.328 247.798 171.832 247.287 172.185C246.789 172.525 246.151 172.695 245.373 172.695H245.3ZM253.484 172.403V159.095H255.234V172.403H253.484ZM252.135 160.481V159.095H255.234V160.481H252.135ZM264.48 172.403V169.486H264.188V166.114C264.188 165.445 264.012 164.941 263.659 164.601C263.319 164.26 262.815 164.09 262.146 164.09C261.769 164.09 261.38 164.096 260.979 164.109C260.578 164.121 260.195 164.133 259.831 164.145C259.466 164.157 259.15 164.175 258.883 164.2V162.668C259.15 162.644 259.43 162.626 259.721 162.614C260.025 162.589 260.335 162.577 260.651 162.577C260.967 162.565 261.271 162.559 261.563 162.559C262.559 162.559 263.374 162.68 264.006 162.924C264.638 163.154 265.105 163.537 265.409 164.072C265.713 164.607 265.865 165.33 265.865 166.241V172.403H264.48ZM261.289 172.659C260.56 172.659 259.928 172.537 259.393 172.294C258.871 172.039 258.464 171.674 258.172 171.2C257.892 170.726 257.753 170.155 257.753 169.486C257.753 168.794 257.905 168.216 258.208 167.755C258.524 167.293 258.98 166.946 259.576 166.715C260.171 166.472 260.888 166.351 261.727 166.351H264.37V167.663H261.654C260.949 167.663 260.408 167.834 260.031 168.174C259.655 168.514 259.466 168.952 259.466 169.486C259.466 170.021 259.655 170.453 260.031 170.781C260.408 171.109 260.949 171.273 261.654 171.273C262.067 171.273 262.462 171.2 262.839 171.054C263.216 170.896 263.526 170.641 263.769 170.289C264.024 169.924 264.164 169.426 264.188 168.794L264.662 169.486C264.601 170.179 264.431 170.763 264.151 171.237C263.884 171.698 263.507 172.051 263.021 172.294C262.547 172.537 261.97 172.659 261.289 172.659ZM269.077 172.403V162.668H270.463V166.679H270.39C270.39 165.257 270.7 164.218 271.32 163.562C271.951 162.893 272.893 162.559 274.145 162.559H274.473V164.127H273.854C272.881 164.127 272.134 164.388 271.611 164.911C271.089 165.421 270.827 166.162 270.827 167.135V172.403H269.077ZM280.703 172.403V162.668H282.088V166.843H281.869C281.869 165.883 281.997 165.075 282.252 164.418C282.52 163.75 282.921 163.246 283.455 162.905C283.99 162.553 284.665 162.377 285.479 162.377H285.552C286.779 162.377 287.685 162.759 288.268 163.525C288.864 164.291 289.161 165.397 289.161 166.843V172.403H287.411V166.478C287.411 165.725 287.199 165.123 286.773 164.674C286.348 164.212 285.765 163.981 285.023 163.981C284.257 163.981 283.638 164.218 283.164 164.692C282.69 165.166 282.453 165.798 282.453 166.588V172.403H280.703ZM296.502 172.731C295.651 172.731 294.916 172.586 294.296 172.294C293.676 172.002 293.172 171.619 292.783 171.145C292.394 170.659 292.102 170.118 291.908 169.523C291.725 168.927 291.634 168.32 291.634 167.7V167.372C291.634 166.74 291.725 166.126 291.908 165.53C292.102 164.935 292.394 164.4 292.783 163.926C293.172 163.44 293.664 163.057 294.259 162.778C294.867 162.486 295.578 162.34 296.392 162.34C297.45 162.34 298.319 162.571 298.999 163.033C299.692 163.483 300.203 164.066 300.531 164.783C300.871 165.5 301.041 166.266 301.041 167.08V167.864H292.4V166.551H299.765L299.364 167.262C299.364 166.57 299.255 165.974 299.036 165.476C298.817 164.965 298.489 164.57 298.051 164.291C297.614 164.011 297.061 163.872 296.392 163.872C295.7 163.872 295.122 164.03 294.661 164.346C294.211 164.662 293.871 165.093 293.64 165.64C293.421 166.187 293.312 166.819 293.312 167.536C293.312 168.229 293.421 168.854 293.64 169.414C293.871 169.96 294.223 170.398 294.697 170.726C295.171 171.042 295.773 171.2 296.502 171.2C297.267 171.2 297.887 171.03 298.361 170.69C298.847 170.349 299.139 169.954 299.236 169.505H300.877C300.743 170.173 300.476 170.75 300.075 171.237C299.674 171.723 299.17 172.093 298.562 172.349C297.954 172.604 297.267 172.731 296.502 172.731ZM307.318 172.513C306.589 172.513 305.957 172.409 305.422 172.203C304.899 171.996 304.492 171.644 304.201 171.145C303.921 170.635 303.781 169.948 303.781 169.085V159.715H305.458V169.304C305.458 169.827 305.598 170.234 305.878 170.526C306.169 170.805 306.577 170.945 307.099 170.945H308.813V172.513H307.318ZM302.104 163.981V162.668H308.813V163.981H302.104ZM314.132 172.403L316.101 162.996H318.471L320.768 172.403H319.273L316.976 163.033H317.559L315.572 172.403H314.132ZM313.239 172.403V171.018H315.262V172.403H313.239ZM312.838 172.403L310.085 162.668H311.762L314.442 172.403H312.838ZM319.638 172.403V171.018H321.661V172.403H319.638ZM320.458 172.403L322.791 162.668H324.378L321.989 172.403H320.458ZM331.048 172.731C330.197 172.731 329.45 172.586 328.805 172.294C328.161 172.002 327.614 171.619 327.165 171.145C326.727 170.659 326.393 170.118 326.162 169.523C325.943 168.927 325.834 168.32 325.834 167.7V167.372C325.834 166.752 325.949 166.144 326.18 165.549C326.411 164.941 326.752 164.4 327.201 163.926C327.651 163.44 328.198 163.057 328.842 162.778C329.486 162.486 330.221 162.34 331.048 162.34C331.874 162.34 332.61 162.486 333.254 162.778C333.898 163.057 334.445 163.44 334.894 163.926C335.344 164.4 335.684 164.941 335.915 165.549C336.146 166.144 336.262 166.752 336.262 167.372V167.7C336.262 168.32 336.146 168.927 335.915 169.523C335.697 170.118 335.362 170.659 334.913 171.145C334.475 171.619 333.934 172.002 333.29 172.294C332.646 172.586 331.899 172.731 331.048 172.731ZM331.048 171.164C331.777 171.164 332.397 171.006 332.907 170.69C333.43 170.362 333.825 169.924 334.092 169.377C334.372 168.83 334.512 168.216 334.512 167.536C334.512 166.843 334.372 166.223 334.092 165.676C333.813 165.129 333.412 164.698 332.889 164.382C332.379 164.066 331.765 163.908 331.048 163.908C330.343 163.908 329.729 164.066 329.207 164.382C328.684 164.698 328.283 165.129 328.003 165.676C327.724 166.223 327.584 166.843 327.584 167.536C327.584 168.216 327.718 168.83 327.985 169.377C328.265 169.924 328.66 170.362 329.17 170.69C329.693 171.006 330.319 171.164 331.048 171.164ZM338.883 172.403V162.668H340.268V166.679H340.195C340.195 165.257 340.505 164.218 341.125 163.562C341.757 162.893 342.699 162.559 343.951 162.559H344.279V164.127H343.659C342.687 164.127 341.939 164.388 341.417 164.911C340.894 165.421 340.633 166.162 340.633 167.135V172.403H338.883ZM353.069 172.403L349.405 167.864H347.8L352.267 162.668H354.108L350.061 167.354L350.189 166.424L355.092 172.403H353.069ZM346.36 172.403V159.095H348.11V172.403H346.36ZM359.858 172.695C358.582 172.695 357.592 172.422 356.887 171.875C356.194 171.328 355.836 170.58 355.811 169.632H357.452C357.476 170.009 357.665 170.368 358.017 170.708C358.382 171.036 358.995 171.2 359.858 171.2C360.636 171.2 361.232 171.048 361.645 170.744C362.058 170.428 362.265 170.046 362.265 169.596C362.265 169.195 362.113 168.885 361.809 168.666C361.505 168.435 361.013 168.283 360.332 168.21L359.275 168.101C358.351 168.004 357.598 167.73 357.014 167.281C356.431 166.819 356.139 166.175 356.139 165.348C356.139 164.728 356.297 164.2 356.613 163.762C356.929 163.312 357.367 162.972 357.926 162.741C358.485 162.498 359.129 162.377 359.858 162.377C360.952 162.377 361.839 162.62 362.52 163.106C363.201 163.592 363.553 164.315 363.577 165.275H361.937C361.924 164.886 361.742 164.558 361.39 164.291C361.049 164.011 360.539 163.872 359.858 163.872C359.178 163.872 358.661 164.011 358.309 164.291C357.956 164.57 357.78 164.923 357.78 165.348C357.78 165.713 357.902 166.004 358.145 166.223C358.4 166.442 358.813 166.582 359.384 166.643L360.442 166.752C361.487 166.861 362.326 167.153 362.958 167.627C363.59 168.089 363.906 168.745 363.906 169.596C363.906 170.204 363.729 170.744 363.377 171.218C363.037 171.68 362.563 172.045 361.955 172.312C361.347 172.567 360.648 172.695 359.858 172.695Z" fill="white"/>
</g>
<g filter="url(#filter2_i_13342_45793)">
<rect x="137" y="219" width="255" height="64" rx="13.0909" fill="white" fill-opacity="0.01"/>
<g clip-path="url(#clip1_13342_45793)">
<path d="M170.688 238.37C170.927 238.37 171.157 238.43 171.377 238.549C171.596 238.669 171.766 238.829 171.886 239.029L175.869 245.528L183.177 247.026C183.437 247.085 183.687 247.215 183.926 247.415C184.206 247.674 184.345 248.014 184.345 248.433C184.345 248.833 184.206 249.172 183.926 249.452L178.595 254.813L179.523 262.211C179.543 262.271 179.553 262.341 179.553 262.42C179.553 262.82 179.404 263.159 179.104 263.439C178.824 263.718 178.495 263.858 178.116 263.858C177.916 263.858 177.736 263.818 177.576 263.738L170.718 260.743L163.859 263.738C163.559 263.858 163.3 263.888 163.08 263.828C162.681 263.788 162.361 263.609 162.122 263.289C161.902 262.95 161.812 262.59 161.852 262.211L162.781 254.813L157.449 249.452C157.349 249.332 157.21 249.072 157.03 248.673C157.01 248.613 157 248.523 157 248.403C157 248.064 157.11 247.764 157.329 247.505C157.569 247.225 157.859 247.055 158.198 246.996L165.566 245.498L169.49 239.029C169.789 238.589 170.189 238.37 170.688 238.37Z" fill="white"/>
</g>
<path d="M198.811 257.403V244.095H200.598V257.403H198.811ZM200.233 251.478V249.874L205.939 249.856V251.46L200.233 251.478ZM200.233 245.699V244.095H206.249V245.699H200.233ZM214.325 257.403V254.486H214.033V251.114C214.033 250.445 213.857 249.941 213.505 249.601C213.164 249.26 212.66 249.09 211.992 249.09C211.615 249.09 211.226 249.096 210.825 249.109C210.424 249.121 210.041 249.133 209.676 249.145C209.312 249.157 208.996 249.175 208.728 249.2V247.668C208.996 247.644 209.275 247.626 209.567 247.614C209.871 247.589 210.181 247.577 210.497 247.577C210.813 247.565 211.117 247.559 211.408 247.559C212.405 247.559 213.219 247.68 213.851 247.924C214.483 248.154 214.951 248.537 215.255 249.072C215.559 249.607 215.711 250.33 215.711 251.241V257.403H214.325ZM211.135 257.659C210.406 257.659 209.774 257.537 209.239 257.294C208.716 257.039 208.309 256.674 208.017 256.2C207.738 255.726 207.598 255.155 207.598 254.486C207.598 253.794 207.75 253.216 208.054 252.755C208.37 252.293 208.826 251.946 209.421 251.715C210.017 251.472 210.734 251.351 211.572 251.351H214.216V252.663H211.499C210.794 252.663 210.254 252.834 209.877 253.174C209.5 253.514 209.312 253.952 209.312 254.486C209.312 255.021 209.5 255.453 209.877 255.781C210.254 256.109 210.794 256.273 211.499 256.273C211.913 256.273 212.308 256.2 212.684 256.054C213.061 255.896 213.371 255.641 213.614 255.289C213.869 254.924 214.009 254.426 214.033 253.794L214.507 254.486C214.447 255.179 214.276 255.763 213.997 256.237C213.73 256.698 213.353 257.051 212.867 257.294C212.393 257.537 211.815 257.659 211.135 257.659ZM220.965 257.403L217.647 247.668H219.47L222.715 257.403H220.965ZM221.403 257.403V256.018H223.518V257.403H221.403ZM222.241 257.403L225.067 247.668H226.781L223.9 257.403H222.241ZM233.377 257.731C232.526 257.731 231.779 257.586 231.135 257.294C230.491 257.002 229.944 256.619 229.494 256.145C229.056 255.659 228.722 255.118 228.491 254.523C228.273 253.927 228.163 253.32 228.163 252.7V252.372C228.163 251.752 228.279 251.144 228.51 250.549C228.74 249.941 229.081 249.4 229.53 248.926C229.98 248.44 230.527 248.057 231.171 247.778C231.815 247.486 232.551 247.34 233.377 247.34C234.203 247.34 234.939 247.486 235.583 247.778C236.227 248.057 236.774 248.44 237.224 248.926C237.673 249.4 238.014 249.941 238.244 250.549C238.475 251.144 238.591 251.752 238.591 252.372V252.7C238.591 253.32 238.475 253.927 238.244 254.523C238.026 255.118 237.691 255.659 237.242 256.145C236.804 256.619 236.263 257.002 235.619 257.294C234.975 257.586 234.228 257.731 233.377 257.731ZM233.377 256.164C234.106 256.164 234.726 256.006 235.236 255.69C235.759 255.362 236.154 254.924 236.421 254.377C236.701 253.83 236.841 253.216 236.841 252.536C236.841 251.843 236.701 251.223 236.421 250.676C236.142 250.129 235.741 249.698 235.218 249.382C234.708 249.066 234.094 248.908 233.377 248.908C232.672 248.908 232.058 249.066 231.536 249.382C231.013 249.698 230.612 250.129 230.333 250.676C230.053 251.223 229.913 251.843 229.913 252.536C229.913 253.216 230.047 253.83 230.314 254.377C230.594 254.924 230.989 255.362 231.499 255.69C232.022 256.006 232.648 256.164 233.377 256.164ZM244.585 257.695C243.43 257.695 242.543 257.318 241.923 256.565C241.303 255.811 240.993 254.723 240.993 253.302V247.65H242.743V253.648C242.743 254.414 242.95 255.015 243.363 255.453C243.776 255.878 244.335 256.091 245.04 256.091C245.77 256.091 246.365 255.86 246.827 255.398C247.289 254.924 247.52 254.28 247.52 253.466V247.65H249.27V257.403H247.884V253.229H248.103C248.103 254.189 247.975 255.003 247.72 255.671C247.465 256.328 247.082 256.832 246.572 257.185C246.073 257.525 245.435 257.695 244.658 257.695H244.585ZM252.659 257.403V247.668H254.045V251.679H253.972C253.972 250.257 254.282 249.218 254.902 248.562C255.534 247.893 256.476 247.559 257.727 247.559H258.056V249.127H257.436C256.463 249.127 255.716 249.388 255.193 249.911C254.671 250.421 254.409 251.162 254.409 252.135V257.403H252.659ZM260.611 257.403V247.668H262.361V257.403H260.611ZM259.116 249.054V247.668H262.361V249.054H259.116ZM261.103 246.101C260.714 246.101 260.422 245.997 260.228 245.791C260.046 245.584 259.954 245.323 259.954 245.007C259.954 244.691 260.046 244.429 260.228 244.223C260.422 244.016 260.714 243.913 261.103 243.913C261.492 243.913 261.777 244.016 261.96 244.223C262.154 244.429 262.251 244.691 262.251 245.007C262.251 245.323 262.154 245.584 261.96 245.791C261.777 245.997 261.492 246.101 261.103 246.101ZM269.537 257.513C268.807 257.513 268.175 257.409 267.641 257.203C267.118 256.996 266.711 256.644 266.419 256.145C266.14 255.635 266 254.948 266 254.085V244.715H267.677V254.304C267.677 254.827 267.817 255.234 268.096 255.526C268.388 255.805 268.795 255.945 269.318 255.945H271.031V257.513H269.537ZM264.323 248.981V247.668H271.031V248.981H264.323ZM277.574 257.731C276.723 257.731 275.988 257.586 275.368 257.294C274.748 257.002 274.244 256.619 273.855 256.145C273.466 255.659 273.174 255.118 272.98 254.523C272.797 253.927 272.706 253.32 272.706 252.7V252.372C272.706 251.74 272.797 251.126 272.98 250.53C273.174 249.935 273.466 249.4 273.855 248.926C274.244 248.44 274.736 248.057 275.331 247.778C275.939 247.486 276.65 247.34 277.464 247.34C278.522 247.34 279.391 247.571 280.071 248.033C280.764 248.483 281.275 249.066 281.603 249.783C281.943 250.5 282.113 251.266 282.113 252.08V252.864H273.472V251.551H280.837L280.436 252.262C280.436 251.57 280.327 250.974 280.108 250.476C279.889 249.965 279.561 249.57 279.123 249.291C278.686 249.011 278.133 248.872 277.464 248.872C276.772 248.872 276.194 249.03 275.733 249.346C275.283 249.662 274.943 250.093 274.712 250.64C274.493 251.187 274.383 251.819 274.383 252.536C274.383 253.229 274.493 253.854 274.712 254.414C274.943 254.96 275.295 255.398 275.769 255.726C276.243 256.042 276.845 256.2 277.574 256.2C278.339 256.2 278.959 256.03 279.433 255.69C279.919 255.349 280.211 254.954 280.308 254.505H281.949C281.815 255.173 281.548 255.75 281.147 256.237C280.746 256.723 280.241 257.093 279.634 257.349C279.026 257.604 278.339 257.731 277.574 257.731ZM288.746 257.403V247.668H290.132V251.843H289.913C289.913 250.883 290.04 250.075 290.296 249.418C290.563 248.75 290.964 248.246 291.499 247.905C292.034 247.553 292.708 247.377 293.522 247.377H293.595C294.823 247.377 295.728 247.759 296.312 248.525C296.907 249.291 297.205 250.397 297.205 251.843V257.403H295.455V251.478C295.455 250.725 295.242 250.123 294.817 249.674C294.391 249.212 293.808 248.981 293.067 248.981C292.301 248.981 291.681 249.218 291.207 249.692C290.733 250.166 290.496 250.798 290.496 251.588V257.403H288.746ZM304.545 257.731C303.695 257.731 302.959 257.586 302.34 257.294C301.72 257.002 301.215 256.619 300.826 256.145C300.437 255.659 300.146 255.118 299.951 254.523C299.769 253.927 299.678 253.32 299.678 252.7V252.372C299.678 251.74 299.769 251.126 299.951 250.53C300.146 249.935 300.437 249.4 300.826 248.926C301.215 248.44 301.708 248.057 302.303 247.778C302.911 247.486 303.622 247.34 304.436 247.34C305.493 247.34 306.362 247.571 307.043 248.033C307.736 248.483 308.246 249.066 308.574 249.783C308.915 250.5 309.085 251.266 309.085 252.08V252.864H300.444V251.551H307.809L307.408 252.262C307.408 251.57 307.298 250.974 307.079 250.476C306.861 249.965 306.532 249.57 306.095 249.291C305.657 249.011 305.104 248.872 304.436 248.872C303.743 248.872 303.166 249.03 302.704 249.346C302.254 249.662 301.914 250.093 301.683 250.64C301.464 251.187 301.355 251.819 301.355 252.536C301.355 253.229 301.464 253.854 301.683 254.414C301.914 254.96 302.267 255.398 302.741 255.726C303.215 256.042 303.816 256.2 304.545 256.2C305.311 256.2 305.931 256.03 306.405 255.69C306.891 255.349 307.183 254.954 307.28 254.505H308.921C308.787 255.173 308.52 255.75 308.119 256.237C307.717 256.723 307.213 257.093 306.605 257.349C305.998 257.604 305.311 257.731 304.545 257.731ZM315.362 257.513C314.632 257.513 314 257.409 313.466 257.203C312.943 256.996 312.536 256.644 312.244 256.145C311.965 255.635 311.825 254.948 311.825 254.085V244.715H313.502V254.304C313.502 254.827 313.642 255.234 313.921 255.526C314.213 255.805 314.62 255.945 315.143 255.945H316.856V257.513H315.362ZM310.148 248.981V247.668H316.856V248.981H310.148ZM322.176 257.403L324.145 247.996H326.514L328.811 257.403H327.317L325.02 248.033H325.603L323.616 257.403H322.176ZM321.282 257.403V256.018H323.306V257.403H321.282ZM320.881 257.403L318.129 247.668H319.806L322.486 257.403H320.881ZM327.681 257.403V256.018H329.705V257.403H327.681ZM328.502 257.403L330.835 247.668H332.421L330.033 257.403H328.502ZM339.091 257.731C338.241 257.731 337.493 257.586 336.849 257.294C336.205 257.002 335.658 256.619 335.208 256.145C334.771 255.659 334.437 255.118 334.206 254.523C333.987 253.927 333.878 253.32 333.878 252.7V252.372C333.878 251.752 333.993 251.144 334.224 250.549C334.455 249.941 334.795 249.4 335.245 248.926C335.694 248.44 336.241 248.057 336.886 247.778C337.53 247.486 338.265 247.34 339.091 247.34C339.918 247.34 340.653 247.486 341.297 247.778C341.941 248.057 342.488 248.44 342.938 248.926C343.388 249.4 343.728 249.941 343.959 250.549C344.19 251.144 344.305 251.752 344.305 252.372V252.7C344.305 253.32 344.19 253.927 343.959 254.523C343.74 255.118 343.406 255.659 342.956 256.145C342.519 256.619 341.978 257.002 341.334 257.294C340.69 257.586 339.942 257.731 339.091 257.731ZM339.091 256.164C339.821 256.164 340.44 256.006 340.951 255.69C341.473 255.362 341.868 254.924 342.136 254.377C342.415 253.83 342.555 253.216 342.555 252.536C342.555 251.843 342.415 251.223 342.136 250.676C341.856 250.129 341.455 249.698 340.933 249.382C340.422 249.066 339.808 248.908 339.091 248.908C338.386 248.908 337.773 249.066 337.25 249.382C336.728 249.698 336.326 250.129 336.047 250.676C335.767 251.223 335.628 251.843 335.628 252.536C335.628 253.216 335.761 253.83 336.029 254.377C336.308 254.924 336.703 255.362 337.214 255.69C337.736 256.006 338.362 256.164 339.091 256.164ZM346.926 257.403V247.668H348.312V251.679H348.239C348.239 250.257 348.549 249.218 349.169 248.562C349.801 247.893 350.743 247.559 351.994 247.559H352.323V249.127H351.703C350.73 249.127 349.983 249.388 349.46 249.911C348.938 250.421 348.677 251.162 348.677 252.135V257.403H346.926ZM361.112 257.403L357.448 252.864H355.844L360.31 247.668H362.152L358.104 252.354L358.232 251.424L363.136 257.403H361.112ZM354.404 257.403V244.095H356.154V257.403H354.404ZM367.902 257.695C366.626 257.695 365.635 257.422 364.93 256.875C364.238 256.328 363.879 255.58 363.855 254.632H365.496C365.52 255.009 365.708 255.368 366.061 255.708C366.425 256.036 367.039 256.2 367.902 256.2C368.68 256.2 369.275 256.048 369.689 255.744C370.102 255.428 370.308 255.046 370.308 254.596C370.308 254.195 370.156 253.885 369.853 253.666C369.549 253.435 369.057 253.283 368.376 253.21L367.319 253.101C366.395 253.004 365.641 252.73 365.058 252.281C364.475 251.819 364.183 251.175 364.183 250.348C364.183 249.728 364.341 249.2 364.657 248.762C364.973 248.312 365.41 247.972 365.97 247.741C366.529 247.498 367.173 247.377 367.902 247.377C368.996 247.377 369.883 247.62 370.564 248.106C371.244 248.592 371.597 249.315 371.621 250.275H369.98C369.968 249.886 369.786 249.558 369.433 249.291C369.093 249.011 368.583 248.872 367.902 248.872C367.221 248.872 366.705 249.011 366.352 249.291C366 249.57 365.824 249.923 365.824 250.348C365.824 250.713 365.945 251.004 366.188 251.223C366.444 251.442 366.857 251.582 367.428 251.643L368.485 251.752C369.531 251.861 370.369 252.153 371.001 252.627C371.633 253.089 371.949 253.745 371.949 254.596C371.949 255.204 371.773 255.744 371.42 256.218C371.08 256.68 370.606 257.045 369.998 257.312C369.391 257.567 368.692 257.695 367.902 257.695Z" fill="white"/>
</g>
<defs>
<filter id="filter0_i_13342_45793" x="137" y="49" width="255" height="68.5506" filterUnits="userSpaceOnUse" color-interpolation-filters="sRGB">
<feFlood flood-opacity="0" result="BackgroundImageFix"/>
<feBlend mode="normal" in="SourceGraphic" in2="BackgroundImageFix" result="shape"/>
<feColorMatrix in="SourceAlpha" type="matrix" values="0 0 0 0 0 0 0 0 0 0 0 0 0 0 0 0 0 0 127 0" result="hardAlpha"/>
<feOffset dy="4.55065"/>
<feGaussianBlur stdDeviation="9.67013"/>
<feComposite in2="hardAlpha" operator="arithmetic" k2="-1" k3="1"/>
<feColorMatrix type="matrix" values="0 0 0 0 1 0 0 0 0 1 0 0 0 0 1 0 0 0 0.06 0"/>
<feBlend mode="normal" in2="shape" result="effect1_innerShadow_13342_45793"/>
</filter>
<filter id="filter1_i_13342_45793" x="137" y="134" width="255" height="68.5506" filterUnits="userSpaceOnUse" color-interpolation-filters="sRGB">
<feFlood flood-opacity="0" result="BackgroundImageFix"/>
<feBlend mode="normal" in="SourceGraphic" in2="BackgroundImageFix" result="shape"/>
<feColorMatrix in="SourceAlpha" type="matrix" values="0 0 0 0 0 0 0 0 0 0 0 0 0 0 0 0 0 0 127 0" result="hardAlpha"/>
<feOffset dy="4.55065"/>
<feGaussianBlur stdDeviation="9.67013"/>
<feComposite in2="hardAlpha" operator="arithmetic" k2="-1" k3="1"/>
<feColorMatrix type="matrix" values="0 0 0 0 1 0 0 0 0 1 0 0 0 0 1 0 0 0 0.06 0"/>
<feBlend mode="normal" in2="shape" result="effect1_innerShadow_13342_45793"/>
</filter>
<filter id="filter2_i_13342_45793" x="137" y="219" width="255" height="68.5506" filterUnits="userSpaceOnUse" color-interpolation-filters="sRGB">
<feFlood flood-opacity="0" result="BackgroundImageFix"/>
<feBlend mode="normal" in="SourceGraphic" in2="BackgroundImageFix" result="shape"/>
<feColorMatrix in="SourceAlpha" type="matrix" values="0 0 0 0 0 0 0 0 0 0 0 0 0 0 0 0 0 0 127 0" result="hardAlpha"/>
<feOffset dy="4.55065"/>
<feGaussianBlur stdDeviation="9.67013"/>
<feComposite in2="hardAlpha" operator="arithmetic" k2="-1" k3="1"/>
<feColorMatrix type="matrix" values="0 0 0 0 1 0 0 0 0 1 0 0 0 0 1 0 0 0 0.06 0"/>
<feBlend mode="normal" in2="shape" result="effect1_innerShadow_13342_45793"/>
</filter>
<clipPath id="clip0_13342_45793">
<rect width="34.5711" height="34.5711" fill="white" transform="translate(83.6892 139.173) rotate(-22.3978)"/>
</clipPath>
<clipPath id="clip1_13342_45793">
<rect width="27.3455" height="27.3455" fill="white" transform="translate(157 237.23)"/>
</clipPath>
</defs>
</svg>
