<svg width="528" height="325" viewBox="0 0 528 325" fill="none" xmlns="http://www.w3.org/2000/svg">
<g filter="url(#filter0_i_13342_46720)">
<g clip-path="url(#clip0_13342_46720)">
<rect x="45" y="13" width="438" height="299" rx="17.9893" fill="white" fill-opacity="0.01"/>
<path d="M179.767 42.1748V31.8818H183.56L187.438 40.2995H187.917L187.635 40.5533V31.8818H189.807V42.1748H185.985L182.108 33.7571H181.629L181.911 33.5033V42.1748H179.767ZM195.531 42.4427C194.873 42.4427 194.29 42.3299 193.782 42.1043C193.284 41.8787 192.866 41.5779 192.528 41.2019C192.199 40.8165 191.945 40.3888 191.766 39.9188C191.597 39.4394 191.512 38.9506 191.512 38.4524V38.1704C191.512 37.6534 191.597 37.1599 191.766 36.6899C191.945 36.2105 192.199 35.7828 192.528 35.4068C192.857 35.0308 193.265 34.7347 193.754 34.5185C194.252 34.2929 194.816 34.1801 195.446 34.1801C196.273 34.1801 196.969 34.3681 197.533 34.7441C198.106 35.1107 198.544 35.5948 198.844 36.1964C199.145 36.7886 199.296 37.4372 199.296 38.1422V38.9036H192.457V37.6205H197.928L197.195 38.2127C197.195 37.7521 197.129 37.3573 196.997 37.0283C196.866 36.6993 196.668 36.4502 196.405 36.281C196.151 36.1024 195.832 36.0131 195.446 36.0131C195.051 36.0131 194.718 36.1024 194.445 36.281C194.173 36.4596 193.966 36.7228 193.825 37.0706C193.684 37.409 193.613 37.8273 193.613 38.3255C193.613 38.7861 193.679 39.1903 193.811 39.5381C193.942 39.8765 194.149 40.1397 194.431 40.3277C194.713 40.5157 195.08 40.6097 195.531 40.6097C195.944 40.6097 196.283 40.5298 196.546 40.37C196.809 40.2102 196.988 40.0128 197.082 39.7778H199.155C199.042 40.2948 198.821 40.7554 198.492 41.1596C198.163 41.5638 197.749 41.8787 197.251 42.1043C196.753 42.3299 196.179 42.4427 195.531 42.4427ZM204.301 42.2735C203.521 42.2735 202.891 42.1795 202.412 41.9915C201.933 41.7941 201.58 41.4698 201.354 41.0186C201.138 40.558 201.03 39.9376 201.03 39.1574V32.3612H203.131V39.242C203.131 39.6086 203.225 39.8906 203.413 40.088C203.61 40.276 203.888 40.37 204.245 40.37H205.387V42.2735H204.301ZM199.86 36.0977V34.448H205.387V36.0977H199.86ZM209.738 42.1748L211.148 34.7018H213.616L215.251 42.1748H213.503L211.825 34.7582H212.826L211.317 42.1748H209.738ZM209.202 42.1748L209.188 40.2995H210.739L210.753 42.1748H209.202ZM208.187 42.1748L206.115 34.448H208.328L210.26 42.1748H208.187ZM214.081 42.1748L214.095 40.2995H215.646V42.1748H214.081ZM214.716 42.1748L216.436 34.448H218.508L216.647 42.1748H214.716ZM223.488 42.4427C222.811 42.4427 222.21 42.3393 221.683 42.1325C221.157 41.9163 220.711 41.6249 220.344 41.2583C219.987 40.8917 219.714 40.4734 219.526 40.0034C219.338 39.524 219.244 39.0211 219.244 38.4947V38.1704C219.244 37.6346 219.338 37.127 219.526 36.6476C219.724 36.1588 220.006 35.7311 220.372 35.3645C220.748 34.9979 221.199 34.7112 221.726 34.5044C222.252 34.2882 222.84 34.1801 223.488 34.1801C224.156 34.1801 224.748 34.2882 225.265 34.5044C225.791 34.7112 226.238 34.9979 226.604 35.3645C226.971 35.7311 227.253 36.1588 227.45 36.6476C227.648 37.127 227.746 37.6346 227.746 38.1704V38.4947C227.746 39.0211 227.652 39.524 227.464 40.0034C227.276 40.4734 226.999 40.8917 226.633 41.2583C226.275 41.6249 225.834 41.9163 225.307 42.1325C224.781 42.3393 224.174 42.4427 223.488 42.4427ZM223.488 40.5392C223.93 40.5392 224.297 40.4452 224.588 40.2572C224.879 40.0692 225.1 39.806 225.251 39.4676C225.411 39.1292 225.49 38.7532 225.49 38.3396C225.49 37.8978 225.411 37.5124 225.251 37.1834C225.091 36.845 224.861 36.5771 224.56 36.3797C224.268 36.1823 223.911 36.0836 223.488 36.0836C223.075 36.0836 222.717 36.1823 222.417 36.3797C222.116 36.5771 221.886 36.845 221.726 37.1834C221.575 37.5124 221.5 37.8978 221.5 38.3396C221.5 38.7532 221.575 39.1292 221.726 39.4676C221.876 39.806 222.102 40.0692 222.403 40.2572C222.703 40.4452 223.065 40.5392 223.488 40.5392ZM229.321 42.1748V34.448H231.112V37.7615H231.069C231.069 36.6711 231.3 35.8298 231.76 35.2376C232.23 34.6454 232.907 34.3493 233.791 34.3493H234.087V36.2951H233.523C232.902 36.2951 232.423 36.4643 232.085 36.8027C231.746 37.1317 231.577 37.6111 231.577 38.2409V42.1748H229.321ZM240.698 42.1748L238.259 38.5652H237.173L240.317 34.448H242.686L239.725 38.2832L239.753 37.1834L243.236 42.1748H240.698ZM235.256 42.1748V31.8818H237.512V42.1748H235.256ZM246.973 42.4145C245.874 42.4145 245.013 42.1889 244.393 41.7377C243.773 41.2865 243.444 40.652 243.406 39.8342H245.408C245.446 40.0786 245.592 40.2995 245.845 40.4969C246.109 40.6849 246.499 40.7789 247.016 40.7789C247.41 40.7789 247.735 40.7131 247.989 40.5815C248.252 40.4405 248.383 40.2431 248.383 39.9893C248.383 39.7637 248.285 39.5851 248.087 39.4535C247.89 39.3125 247.537 39.2138 247.03 39.1574L246.423 39.101C245.493 39.007 244.793 38.7485 244.323 38.3255C243.862 37.9025 243.632 37.362 243.632 36.704C243.632 36.1588 243.768 35.7029 244.041 35.3363C244.313 34.9697 244.689 34.6924 245.169 34.5044C245.657 34.3164 246.212 34.2224 246.832 34.2224C247.829 34.2224 248.632 34.4433 249.243 34.8851C249.854 35.3175 250.174 35.9473 250.202 36.7745H248.2C248.162 36.5207 248.031 36.3092 247.805 36.14C247.58 35.9614 247.246 35.8721 246.804 35.8721C246.456 35.8721 246.179 35.9379 245.972 36.0695C245.765 36.2011 245.662 36.3797 245.662 36.6053C245.662 36.8215 245.751 36.986 245.93 37.0988C246.109 37.2116 246.4 37.2915 246.804 37.3385L247.41 37.3949C248.36 37.4983 249.098 37.7615 249.624 38.1845C250.151 38.6075 250.414 39.1762 250.414 39.8906C250.414 40.4076 250.273 40.8588 249.991 41.2442C249.709 41.6202 249.309 41.9116 248.792 42.1184C248.275 42.3158 247.669 42.4145 246.973 42.4145ZM254.836 42.1748V34.448H256.627V37.7756H256.5C256.5 36.986 256.598 36.328 256.796 35.8016C256.993 35.2752 257.289 34.8804 257.684 34.6172C258.079 34.3446 258.563 34.2083 259.136 34.2083H259.235C259.818 34.2083 260.302 34.3446 260.687 34.6172C261.082 34.8804 261.378 35.2752 261.576 35.8016C261.782 36.328 261.886 36.986 261.886 37.7756H261.336C261.336 36.986 261.435 36.328 261.632 35.8016C261.839 35.2752 262.14 34.8804 262.534 34.6172C262.929 34.3446 263.413 34.2083 263.987 34.2083H264.085C264.668 34.2083 265.157 34.3446 265.552 34.6172C265.956 34.8804 266.262 35.2752 266.468 35.8016C266.675 36.328 266.779 36.986 266.779 37.7756V42.1748H264.523V37.6487C264.523 37.2257 264.41 36.8826 264.184 36.6194C263.968 36.3562 263.658 36.2246 263.254 36.2246C262.849 36.2246 262.53 36.3609 262.295 36.6335C262.06 36.8967 261.942 37.2492 261.942 37.691V42.1748H259.672V37.6487C259.672 37.2257 259.559 36.8826 259.334 36.6194C259.118 36.3562 258.812 36.2246 258.417 36.2246C258.004 36.2246 257.679 36.3609 257.444 36.6335C257.209 36.8967 257.092 37.2492 257.092 37.691V42.1748H254.836ZM273.369 42.1748V39.8906H272.988V37.409C272.988 37.0142 272.894 36.7181 272.706 36.5207C272.518 36.3233 272.217 36.2246 271.804 36.2246C271.597 36.2246 271.324 36.2293 270.986 36.2387C270.648 36.2481 270.3 36.2622 269.943 36.281C269.585 36.2998 269.261 36.3186 268.97 36.3374V34.4339C269.186 34.4151 269.44 34.3963 269.731 34.3775C270.022 34.3587 270.323 34.3446 270.633 34.3352C270.944 34.3258 271.235 34.3211 271.508 34.3211C272.297 34.3211 272.96 34.4339 273.496 34.6595C274.041 34.8851 274.455 35.2282 274.737 35.6888C275.019 36.14 275.16 36.7228 275.16 37.4372V42.1748H273.369ZM270.901 42.3722C270.347 42.3722 269.858 42.2735 269.435 42.0761C269.021 41.8787 268.697 41.5967 268.462 41.2301C268.227 40.8541 268.11 40.4076 268.11 39.8906C268.11 39.3266 268.255 38.866 268.547 38.5088C268.838 38.1422 269.247 37.8743 269.773 37.7051C270.3 37.5265 270.906 37.4372 271.592 37.4372H273.242V38.6921H271.578C271.183 38.6921 270.878 38.7908 270.662 38.9882C270.455 39.1762 270.351 39.4347 270.351 39.7637C270.351 40.0739 270.455 40.3277 270.662 40.5251C270.878 40.7131 271.183 40.8071 271.578 40.8071C271.832 40.8071 272.058 40.7648 272.255 40.6802C272.462 40.5862 272.631 40.4311 272.763 40.2149C272.894 39.9987 272.969 39.6979 272.988 39.3125L273.524 39.8765C273.477 40.4123 273.345 40.8635 273.129 41.2301C272.922 41.5967 272.631 41.8787 272.255 42.0761C271.888 42.2735 271.437 42.3722 270.901 42.3722ZM277.074 42.1748V34.448H278.864V37.7615H278.737C278.737 36.9719 278.836 36.3139 279.034 35.7875C279.24 35.2611 279.551 34.8663 279.964 34.6031C280.378 34.3399 280.881 34.2083 281.473 34.2083H281.572C282.474 34.2083 283.16 34.5044 283.63 35.0966C284.11 35.6794 284.349 36.5677 284.349 37.7615V42.1748H282.093V37.6346C282.093 37.221 281.971 36.8826 281.727 36.6194C281.482 36.3562 281.153 36.2246 280.74 36.2246C280.317 36.2246 279.974 36.3609 279.71 36.6335C279.457 36.8967 279.33 37.2445 279.33 37.6769V42.1748H277.074ZM290.939 42.1748V39.8906H290.558V37.409C290.558 37.0142 290.464 36.7181 290.276 36.5207C290.088 36.3233 289.787 36.2246 289.374 36.2246C289.167 36.2246 288.894 36.2293 288.556 36.2387C288.218 36.2481 287.87 36.2622 287.513 36.281C287.155 36.2998 286.831 36.3186 286.54 36.3374V34.4339C286.756 34.4151 287.01 34.3963 287.301 34.3775C287.592 34.3587 287.893 34.3446 288.203 34.3352C288.514 34.3258 288.805 34.3211 289.078 34.3211C289.867 34.3211 290.53 34.4339 291.066 34.6595C291.611 34.8851 292.025 35.2282 292.307 35.6888C292.589 36.14 292.73 36.7228 292.73 37.4372V42.1748H290.939ZM288.471 42.3722C287.917 42.3722 287.428 42.2735 287.005 42.0761C286.591 41.8787 286.267 41.5967 286.032 41.2301C285.797 40.8541 285.68 40.4076 285.68 39.8906C285.68 39.3266 285.825 38.866 286.117 38.5088C286.408 38.1422 286.817 37.8743 287.343 37.7051C287.87 37.5265 288.476 37.4372 289.162 37.4372H290.812V38.6921H289.148C288.753 38.6921 288.448 38.7908 288.232 38.9882C288.025 39.1762 287.921 39.4347 287.921 39.7637C287.921 40.0739 288.025 40.3277 288.232 40.5251C288.448 40.7131 288.753 40.8071 289.148 40.8071C289.402 40.8071 289.628 40.7648 289.825 40.6802C290.032 40.5862 290.201 40.4311 290.333 40.2149C290.464 39.9987 290.539 39.6979 290.558 39.3125L291.094 39.8765C291.047 40.4123 290.915 40.8635 290.699 41.2301C290.492 41.5967 290.201 41.8787 289.825 42.0761C289.458 42.2735 289.007 42.3722 288.471 42.3722ZM297.689 45.2486C297.313 45.2486 296.928 45.2345 296.533 45.2063C296.138 45.1781 295.776 45.1405 295.447 45.0935V43.19C295.776 43.237 296.138 43.2746 296.533 43.3028C296.937 43.3404 297.304 43.3592 297.633 43.3592C298.244 43.3592 298.737 43.2887 299.113 43.1477C299.499 43.0067 299.781 42.7905 299.959 42.4991C300.138 42.2171 300.227 41.8505 300.227 41.3993V39.8624L300.636 38.96C300.617 39.6462 300.481 40.2337 300.227 40.7225C299.983 41.2113 299.64 41.5873 299.198 41.8505C298.756 42.1043 298.23 42.2312 297.619 42.2312C297.092 42.2312 296.613 42.1372 296.18 41.9492C295.757 41.7518 295.396 41.4792 295.095 41.1314C294.794 40.7836 294.564 40.3794 294.404 39.9188C294.244 39.4488 294.164 38.9412 294.164 38.396V38.0717C294.164 37.5265 294.249 37.0189 294.418 36.5489C294.587 36.0789 294.832 35.67 295.151 35.3222C295.471 34.9744 295.851 34.7065 296.293 34.5185C296.735 34.3211 297.224 34.2224 297.76 34.2224C298.38 34.2224 298.916 34.3587 299.367 34.6313C299.828 34.9039 300.19 35.3034 300.453 35.8298C300.716 36.3562 300.857 36.9907 300.876 37.7333L300.566 37.8179V34.448H302.356V41.2583C302.356 42.2077 302.187 42.9738 301.849 43.5566C301.51 44.1394 300.993 44.5671 300.298 44.8397C299.611 45.1123 298.742 45.2486 297.689 45.2486ZM298.324 40.3277C298.671 40.3277 298.986 40.2525 299.268 40.1021C299.55 39.9423 299.771 39.7167 299.931 39.4253C300.1 39.1339 300.185 38.7814 300.185 38.3678V37.9589C300.185 37.5547 300.096 37.2163 299.917 36.9437C299.748 36.6617 299.522 36.4502 299.24 36.3092C298.958 36.1588 298.657 36.0836 298.338 36.0836C297.962 36.0836 297.628 36.1729 297.337 36.3515C297.045 36.5301 296.82 36.7792 296.66 37.0988C296.5 37.4184 296.42 37.7944 296.42 38.2268C296.42 38.6686 296.5 39.0493 296.66 39.3689C296.829 39.6791 297.055 39.9188 297.337 40.088C297.628 40.2478 297.957 40.3277 298.324 40.3277ZM307.849 42.4427C307.191 42.4427 306.608 42.3299 306.1 42.1043C305.602 41.8787 305.184 41.5779 304.846 41.2019C304.517 40.8165 304.263 40.3888 304.084 39.9188C303.915 39.4394 303.83 38.9506 303.83 38.4524V38.1704C303.83 37.6534 303.915 37.1599 304.084 36.6899C304.263 36.2105 304.517 35.7828 304.846 35.4068C305.175 35.0308 305.583 34.7347 306.072 34.5185C306.57 34.2929 307.134 34.1801 307.764 34.1801C308.591 34.1801 309.287 34.3681 309.851 34.7441C310.424 35.1107 310.862 35.5948 311.162 36.1964C311.463 36.7886 311.614 37.4372 311.614 38.1422V38.9036H304.775V37.6205H310.246L309.513 38.2127C309.513 37.7521 309.447 37.3573 309.315 37.0283C309.184 36.6993 308.986 36.4502 308.723 36.281C308.469 36.1024 308.15 36.0131 307.764 36.0131C307.369 36.0131 307.036 36.1024 306.763 36.281C306.491 36.4596 306.284 36.7228 306.143 37.0706C306.002 37.409 305.931 37.8273 305.931 38.3255C305.931 38.7861 305.997 39.1903 306.129 39.5381C306.26 39.8765 306.467 40.1397 306.749 40.3277C307.031 40.5157 307.398 40.6097 307.849 40.6097C308.262 40.6097 308.601 40.5298 308.864 40.37C309.127 40.2102 309.306 40.0128 309.4 39.7778H311.473C311.36 40.2948 311.139 40.7554 310.81 41.1596C310.481 41.5638 310.067 41.8787 309.569 42.1043C309.071 42.3299 308.497 42.4427 307.849 42.4427ZM313.109 42.1748V34.448H314.899V37.7756H314.772C314.772 36.986 314.871 36.328 315.068 35.8016C315.266 35.2752 315.562 34.8804 315.957 34.6172C316.352 34.3446 316.836 34.2083 317.409 34.2083H317.508C318.091 34.2083 318.575 34.3446 318.96 34.6172C319.355 34.8804 319.651 35.2752 319.848 35.8016C320.055 36.328 320.159 36.986 320.159 37.7756H319.609C319.609 36.986 319.707 36.328 319.905 35.8016C320.112 35.2752 320.412 34.8804 320.807 34.6172C321.202 34.3446 321.686 34.2083 322.259 34.2083H322.358C322.941 34.2083 323.43 34.3446 323.825 34.6172C324.229 34.8804 324.534 35.2752 324.741 35.8016C324.948 36.328 325.051 36.986 325.051 37.7756V42.1748H322.795V37.6487C322.795 37.2257 322.682 36.8826 322.457 36.6194C322.241 36.3562 321.93 36.2246 321.526 36.2246C321.122 36.2246 320.802 36.3609 320.567 36.6335C320.332 36.8967 320.215 37.2492 320.215 37.691V42.1748H317.945V37.6487C317.945 37.2257 317.832 36.8826 317.606 36.6194C317.39 36.3562 317.085 36.2246 316.69 36.2246C316.276 36.2246 315.952 36.3609 315.717 36.6335C315.482 36.8967 315.365 37.2492 315.365 37.691V42.1748H313.109ZM330.514 42.4427C329.856 42.4427 329.273 42.3299 328.765 42.1043C328.267 41.8787 327.849 41.5779 327.51 41.2019C327.181 40.8165 326.927 40.3888 326.749 39.9188C326.58 39.4394 326.495 38.9506 326.495 38.4524V38.1704C326.495 37.6534 326.58 37.1599 326.749 36.6899C326.927 36.2105 327.181 35.7828 327.51 35.4068C327.839 35.0308 328.248 34.7347 328.737 34.5185C329.235 34.2929 329.799 34.1801 330.429 34.1801C331.256 34.1801 331.952 34.3681 332.516 34.7441C333.089 35.1107 333.526 35.5948 333.827 36.1964C334.128 36.7886 334.278 37.4372 334.278 38.1422V38.9036H327.44V37.6205H332.911L332.177 38.2127C332.177 37.7521 332.112 37.3573 331.98 37.0283C331.848 36.6993 331.651 36.4502 331.388 36.281C331.134 36.1024 330.814 36.0131 330.429 36.0131C330.034 36.0131 329.7 36.1024 329.428 36.281C329.155 36.4596 328.948 36.7228 328.807 37.0706C328.666 37.409 328.596 37.8273 328.596 38.3255C328.596 38.7861 328.662 39.1903 328.793 39.5381C328.925 39.8765 329.132 40.1397 329.414 40.3277C329.696 40.5157 330.062 40.6097 330.514 40.6097C330.927 40.6097 331.266 40.5298 331.529 40.37C331.792 40.2102 331.971 40.0128 332.065 39.7778H334.137C334.024 40.2948 333.804 40.7554 333.475 41.1596C333.146 41.5638 332.732 41.8787 332.234 42.1043C331.736 42.3299 331.162 42.4427 330.514 42.4427ZM335.773 42.1748V34.448H337.564V37.7615H337.437C337.437 36.9719 337.536 36.3139 337.733 35.7875C337.94 35.2611 338.25 34.8663 338.664 34.6031C339.077 34.3399 339.58 34.2083 340.172 34.2083H340.271C341.173 34.2083 341.86 34.5044 342.33 35.0966C342.809 35.6794 343.049 36.5677 343.049 37.7615V42.1748H340.793V37.6346C340.793 37.221 340.671 36.8826 340.426 36.6194C340.182 36.3562 339.853 36.2246 339.439 36.2246C339.016 36.2246 338.673 36.3609 338.41 36.6335C338.156 36.8967 338.029 37.2445 338.029 37.6769V42.1748H335.773ZM348.482 42.2735C347.702 42.2735 347.072 42.1795 346.593 41.9915C346.113 41.7941 345.761 41.4698 345.535 41.0186C345.319 40.558 345.211 39.9376 345.211 39.1574V32.3612H347.312V39.242C347.312 39.6086 347.406 39.8906 347.594 40.088C347.791 40.276 348.069 40.37 348.426 40.37H349.568V42.2735H348.482ZM344.041 36.0977V34.448H349.568V36.0977H344.041Z" fill="white"/>
<line x1="45" y1="61.9584" x2="483.667" y2="61.9584" stroke="white" stroke-opacity="0.1" stroke-width="0.783333"/>
<path d="M86.7966 128.412V124.437C87.5465 124.17 88.0832 123.464 88.0832 122.631C88.0832 121.568 87.2114 120.708 86.1357 120.708C85.6811 120.708 85.2634 120.863 84.9319 121.121L81.2823 119.091C81.2934 119.007 81.3012 118.923 81.3012 118.836C81.3012 117.773 80.4293 116.913 79.3536 116.913C78.279 116.913 77.406 117.774 77.406 118.836C77.406 118.934 77.4159 119.03 77.4301 119.124L73.9323 121.07C73.6127 120.843 73.2215 120.708 72.7975 120.708C71.7229 120.708 70.8499 121.568 70.8499 122.631C70.8499 123.402 71.3115 124.065 71.9755 124.371V128.478C71.3115 128.784 70.8499 129.448 70.8499 130.219C70.8499 131.282 71.7229 132.142 72.7975 132.142C73.3102 132.142 73.775 131.945 74.1228 131.625L77.4352 133.468C77.4174 133.573 77.4058 133.68 77.4058 133.791C77.4058 134.853 78.2787 135.713 79.3534 135.713C80.4293 135.713 81.301 134.853 81.301 133.791C81.301 133.692 81.2911 133.596 81.2767 133.502L84.7498 131.569C85.1031 131.923 85.5935 132.142 86.1354 132.142C87.2114 132.142 88.083 131.282 88.083 130.219C88.0832 129.387 87.5465 128.68 86.7966 128.412ZM78.0605 132.356L74.7223 130.499C74.7356 130.407 74.7451 130.315 74.7451 130.22C74.7451 129.317 74.114 128.561 73.264 128.354V124.495C73.5751 124.42 73.856 124.271 74.0882 124.068L77.5577 126.084C77.5403 126.188 77.5289 126.294 77.5289 126.402C77.5289 127.247 78.082 127.962 78.8488 128.221V131.936C78.5522 132.014 78.2837 132.16 78.0605 132.356ZM80.7186 124.921C80.3816 124.645 79.9488 124.479 79.4769 124.479C78.9788 124.479 78.5253 124.666 78.1808 124.97L74.7154 122.956C74.7337 122.85 74.7453 122.742 74.7453 122.631C74.7453 122.453 74.7189 122.281 74.6733 122.118L78.0349 120.248C78.3821 120.564 78.8445 120.759 79.3538 120.759C79.8756 120.759 80.3483 120.555 80.6978 120.226L84.2401 122.196C84.2074 122.336 84.1883 122.481 84.1883 122.631C84.1883 122.695 84.1919 122.758 84.198 122.82L80.7186 124.921ZM80.6716 132.378C80.515 132.235 80.3354 132.117 80.1378 132.031V128.209C80.8877 127.941 81.4245 127.235 81.4245 126.402C81.4245 126.268 81.4105 126.137 81.3839 126.01L84.7481 123.978C84.9584 124.189 85.218 124.351 85.5078 124.449V128.4C84.7412 128.659 84.1879 129.374 84.1879 130.219C84.1879 130.286 84.1913 130.351 84.198 130.416L80.6716 132.378Z" fill="white"/>
<path d="M98.8118 130.813V121.664H100.04V130.813H98.8118ZM99.7894 126.74V125.637L103.712 125.624V126.727L99.7894 126.74ZM99.7894 122.767V121.664H103.925V122.767H99.7894ZM109.478 130.813V128.808H109.277V126.489C109.277 126.029 109.156 125.683 108.914 125.449C108.68 125.215 108.333 125.098 107.873 125.098C107.614 125.098 107.347 125.102 107.071 125.11C106.795 125.119 106.532 125.127 106.282 125.135C106.031 125.144 105.814 125.156 105.63 125.173V124.12C105.814 124.103 106.006 124.091 106.206 124.083C106.415 124.066 106.628 124.058 106.846 124.058C107.063 124.049 107.272 124.045 107.472 124.045C108.157 124.045 108.717 124.129 109.152 124.296C109.586 124.454 109.908 124.718 110.117 125.085C110.326 125.453 110.43 125.95 110.43 126.577V130.813H109.478ZM107.284 130.988C106.783 130.988 106.348 130.905 105.981 130.738C105.621 130.562 105.342 130.312 105.141 129.986C104.949 129.66 104.853 129.267 104.853 128.808C104.853 128.331 104.957 127.934 105.166 127.617C105.383 127.299 105.697 127.061 106.106 126.903C106.516 126.735 107.009 126.652 107.585 126.652H109.402V127.554H107.535C107.05 127.554 106.678 127.671 106.419 127.905C106.16 128.139 106.031 128.44 106.031 128.808C106.031 129.175 106.16 129.472 106.419 129.698C106.678 129.923 107.05 130.036 107.535 130.036C107.819 130.036 108.091 129.986 108.35 129.886C108.609 129.777 108.822 129.601 108.989 129.359C109.164 129.108 109.26 128.766 109.277 128.331L109.603 128.808C109.561 129.284 109.444 129.685 109.252 130.011C109.068 130.328 108.809 130.571 108.475 130.738C108.149 130.905 107.752 130.988 107.284 130.988ZM114.043 130.813L111.762 124.12H113.015L115.246 130.813H114.043ZM114.344 130.813V129.86H115.797V130.813H114.344ZM114.92 130.813L116.863 124.12H118.041L116.061 130.813H114.92ZM122.576 131.039C121.991 131.039 121.477 130.938 121.034 130.738C120.591 130.537 120.215 130.274 119.906 129.948C119.605 129.614 119.376 129.242 119.217 128.833C119.066 128.423 118.991 128.006 118.991 127.579V127.354C118.991 126.928 119.071 126.51 119.229 126.1C119.388 125.683 119.622 125.311 119.931 124.985C120.24 124.651 120.616 124.388 121.059 124.195C121.502 123.995 122.008 123.895 122.576 123.895C123.144 123.895 123.649 123.995 124.092 124.195C124.535 124.388 124.911 124.651 125.22 124.985C125.529 125.311 125.763 125.683 125.922 126.1C126.081 126.51 126.16 126.928 126.16 127.354V127.579C126.16 128.006 126.081 128.423 125.922 128.833C125.772 129.242 125.542 129.614 125.233 129.948C124.932 130.274 124.56 130.537 124.117 130.738C123.675 130.938 123.161 131.039 122.576 131.039ZM122.576 129.961C123.077 129.961 123.503 129.852 123.854 129.635C124.213 129.409 124.485 129.108 124.669 128.732C124.861 128.356 124.957 127.934 124.957 127.467C124.957 126.99 124.861 126.564 124.669 126.188C124.477 125.812 124.201 125.516 123.842 125.298C123.491 125.081 123.069 124.972 122.576 124.972C122.091 124.972 121.669 125.081 121.31 125.298C120.951 125.516 120.675 125.812 120.483 126.188C120.291 126.564 120.194 126.99 120.194 127.467C120.194 127.934 120.286 128.356 120.47 128.732C120.662 129.108 120.934 129.409 121.285 129.635C121.644 129.852 122.074 129.961 122.576 129.961ZM130.281 131.014C129.487 131.014 128.877 130.754 128.451 130.236C128.025 129.718 127.812 128.971 127.812 127.993V124.108H129.015V128.231C129.015 128.758 129.157 129.171 129.441 129.472C129.725 129.764 130.11 129.911 130.594 129.911C131.096 129.911 131.505 129.752 131.823 129.434C132.14 129.108 132.299 128.666 132.299 128.106V124.108H133.502V130.813H132.55V127.943H132.7C132.7 128.603 132.612 129.163 132.437 129.622C132.261 130.074 131.998 130.42 131.647 130.663C131.305 130.897 130.866 131.014 130.331 131.014H130.281ZM135.832 130.813V124.12H136.785V126.878H136.735C136.735 125.9 136.948 125.186 137.374 124.734C137.809 124.275 138.456 124.045 139.317 124.045H139.542V125.123H139.116C138.448 125.123 137.934 125.302 137.575 125.662C137.215 126.013 137.036 126.522 137.036 127.191V130.813H135.832ZM141.299 130.813V124.12H142.502V130.813H141.299ZM140.271 125.073V124.12H142.502V125.073H140.271ZM141.637 123.042C141.37 123.042 141.169 122.971 141.036 122.829C140.91 122.687 140.848 122.508 140.848 122.29C140.848 122.073 140.91 121.893 141.036 121.751C141.169 121.609 141.37 121.538 141.637 121.538C141.905 121.538 142.101 121.609 142.226 121.751C142.36 121.893 142.427 122.073 142.427 122.29C142.427 122.508 142.36 122.687 142.226 122.829C142.101 122.971 141.905 123.042 141.637 123.042ZM147.435 130.888C146.934 130.888 146.5 130.817 146.132 130.675C145.773 130.533 145.493 130.291 145.292 129.948C145.1 129.597 145.004 129.125 145.004 128.532V122.09H146.157V128.682C146.157 129.042 146.253 129.322 146.445 129.522C146.646 129.714 146.926 129.81 147.285 129.81H148.463V130.888H147.435ZM143.851 125.023V124.12H148.463V125.023H143.851ZM152.961 131.039C152.376 131.039 151.871 130.938 151.445 130.738C151.018 130.537 150.672 130.274 150.404 129.948C150.137 129.614 149.936 129.242 149.803 128.833C149.677 128.423 149.615 128.006 149.615 127.579V127.354C149.615 126.919 149.677 126.497 149.803 126.088C149.936 125.678 150.137 125.311 150.404 124.985C150.672 124.651 151.01 124.388 151.42 124.195C151.837 123.995 152.326 123.895 152.886 123.895C153.613 123.895 154.21 124.053 154.678 124.371C155.154 124.68 155.505 125.081 155.731 125.574C155.965 126.067 156.082 126.593 156.082 127.153V127.692H150.141V126.79H155.205L154.929 127.279C154.929 126.802 154.854 126.393 154.703 126.05C154.553 125.699 154.327 125.428 154.026 125.236C153.726 125.043 153.345 124.947 152.886 124.947C152.41 124.947 152.013 125.056 151.695 125.273C151.386 125.49 151.152 125.787 150.993 126.163C150.843 126.539 150.768 126.974 150.768 127.467C150.768 127.943 150.843 128.373 150.993 128.758C151.152 129.134 151.394 129.434 151.72 129.66C152.046 129.877 152.46 129.986 152.961 129.986C153.488 129.986 153.914 129.869 154.24 129.635C154.574 129.401 154.774 129.129 154.841 128.82H155.969C155.877 129.28 155.693 129.677 155.418 130.011C155.142 130.345 154.795 130.6 154.377 130.775C153.96 130.951 153.488 131.039 152.961 131.039ZM160.642 130.813V124.12H161.595V126.99H161.444C161.444 126.33 161.532 125.775 161.707 125.323C161.891 124.864 162.167 124.517 162.535 124.283C162.902 124.041 163.366 123.92 163.926 123.92H163.976C164.82 123.92 165.442 124.183 165.843 124.709C166.253 125.236 166.458 125.996 166.458 126.99V130.813H165.254V126.74C165.254 126.222 165.108 125.808 164.816 125.499C164.523 125.181 164.122 125.023 163.612 125.023C163.086 125.023 162.66 125.186 162.334 125.511C162.008 125.837 161.845 126.272 161.845 126.815V130.813H160.642ZM171.504 131.039C170.919 131.039 170.414 130.938 169.988 130.738C169.561 130.537 169.215 130.274 168.947 129.948C168.68 129.614 168.479 129.242 168.346 128.833C168.22 128.423 168.158 128.006 168.158 127.579V127.354C168.158 126.919 168.22 126.497 168.346 126.088C168.479 125.678 168.68 125.311 168.947 124.985C169.215 124.651 169.553 124.388 169.962 124.195C170.38 123.995 170.869 123.895 171.429 123.895C172.156 123.895 172.753 124.053 173.221 124.371C173.697 124.68 174.048 125.081 174.274 125.574C174.508 126.067 174.625 126.593 174.625 127.153V127.692H168.684V126.79H173.748L173.472 127.279C173.472 126.802 173.397 126.393 173.246 126.05C173.096 125.699 172.87 125.428 172.569 125.236C172.269 125.043 171.888 124.947 171.429 124.947C170.953 124.947 170.556 125.056 170.238 125.273C169.929 125.49 169.695 125.787 169.536 126.163C169.386 126.539 169.311 126.974 169.311 127.467C169.311 127.943 169.386 128.373 169.536 128.758C169.695 129.134 169.937 129.434 170.263 129.66C170.589 129.877 171.003 129.986 171.504 129.986C172.03 129.986 172.457 129.869 172.782 129.635C173.117 129.401 173.317 129.129 173.384 128.82H174.512C174.42 129.28 174.236 129.677 173.961 130.011C173.685 130.345 173.338 130.6 172.92 130.775C172.503 130.951 172.03 131.039 171.504 131.039ZM178.94 130.888C178.439 130.888 178.004 130.817 177.637 130.675C177.277 130.533 176.997 130.291 176.797 129.948C176.605 129.597 176.509 129.125 176.509 128.532V122.09H177.662V128.682C177.662 129.042 177.758 129.322 177.95 129.522C178.151 129.714 178.43 129.81 178.79 129.81H179.968V130.888H178.94ZM175.356 125.023V124.12H179.968V125.023H175.356ZM183.625 130.813L184.978 124.346H186.608L188.187 130.813H187.159L185.58 124.371H185.981L184.615 130.813H183.625ZM183.011 130.813V129.86H184.402V130.813H183.011ZM182.735 130.813L180.842 124.12H181.996L183.838 130.813H182.735ZM187.41 130.813V129.86H188.801V130.813H187.41ZM187.974 130.813L189.578 124.12H190.669L189.027 130.813H187.974ZM195.254 131.039C194.67 131.039 194.156 130.938 193.713 130.738C193.27 130.537 192.894 130.274 192.585 129.948C192.284 129.614 192.054 129.242 191.896 128.833C191.745 128.423 191.67 128.006 191.67 127.579V127.354C191.67 126.928 191.749 126.51 191.908 126.1C192.067 125.683 192.301 125.311 192.61 124.985C192.919 124.651 193.295 124.388 193.738 124.195C194.181 123.995 194.686 123.895 195.254 123.895C195.823 123.895 196.328 123.995 196.771 124.195C197.214 124.388 197.59 124.651 197.899 124.985C198.208 125.311 198.442 125.683 198.601 126.1C198.76 126.51 198.839 126.928 198.839 127.354V127.579C198.839 128.006 198.76 128.423 198.601 128.833C198.45 129.242 198.221 129.614 197.912 129.948C197.611 130.274 197.239 130.537 196.796 130.738C196.353 130.938 195.839 131.039 195.254 131.039ZM195.254 129.961C195.756 129.961 196.182 129.852 196.533 129.635C196.892 129.409 197.164 129.108 197.348 128.732C197.54 128.356 197.636 127.934 197.636 127.467C197.636 126.99 197.54 126.564 197.348 126.188C197.155 125.812 196.88 125.516 196.52 125.298C196.169 125.081 195.747 124.972 195.254 124.972C194.77 124.972 194.348 125.081 193.989 125.298C193.629 125.516 193.354 125.812 193.161 126.188C192.969 126.564 192.873 126.99 192.873 127.467C192.873 127.934 192.965 128.356 193.149 128.732C193.341 129.108 193.613 129.409 193.964 129.635C194.323 129.852 194.753 129.961 195.254 129.961ZM200.641 130.813V124.12H201.594V126.878H201.543C201.543 125.9 201.757 125.186 202.183 124.734C202.617 124.275 203.265 124.045 204.125 124.045H204.351V125.123H203.925C203.256 125.123 202.742 125.302 202.383 125.662C202.024 126.013 201.844 126.522 201.844 127.191V130.813H200.641ZM210.394 130.813L207.875 127.692H206.772L209.842 124.12H211.108L208.326 127.341L208.414 126.702L211.785 130.813H210.394ZM205.782 130.813V121.664H206.985V130.813H205.782ZM215.062 131.014C214.184 131.014 213.503 130.826 213.019 130.45C212.543 130.074 212.296 129.56 212.279 128.908H213.407C213.424 129.167 213.554 129.413 213.796 129.647C214.047 129.873 214.468 129.986 215.062 129.986C215.596 129.986 216.006 129.881 216.29 129.672C216.574 129.455 216.716 129.192 216.716 128.883C216.716 128.607 216.612 128.394 216.403 128.244C216.194 128.085 215.855 127.98 215.388 127.93L214.661 127.855C214.026 127.788 213.508 127.6 213.107 127.291C212.705 126.974 212.505 126.531 212.505 125.963C212.505 125.536 212.614 125.173 212.831 124.872C213.048 124.563 213.349 124.329 213.733 124.17C214.118 124.003 214.56 123.92 215.062 123.92C215.814 123.92 216.424 124.087 216.892 124.421C217.359 124.755 217.602 125.252 217.619 125.912H216.491C216.482 125.645 216.357 125.419 216.115 125.236C215.881 125.043 215.53 124.947 215.062 124.947C214.594 124.947 214.239 125.043 213.996 125.236C213.754 125.428 213.633 125.67 213.633 125.963C213.633 126.213 213.716 126.414 213.884 126.564C214.059 126.715 214.343 126.811 214.736 126.852L215.463 126.928C216.181 127.003 216.758 127.203 217.192 127.529C217.627 127.847 217.844 128.298 217.844 128.883C217.844 129.301 217.723 129.672 217.481 129.998C217.247 130.316 216.921 130.566 216.503 130.75C216.085 130.926 215.605 131.014 215.062 131.014Z" fill="white" fill-opacity="0.75"/>
<path d="M70.0666 148.247H458.6" stroke="white" stroke-opacity="0.1" stroke-width="0.391667"/>
<path d="M81.408 165.406C83.036 165.406 84.3557 164.633 84.3557 163.68C84.3557 162.728 83.036 161.955 81.408 161.955C79.7801 161.955 78.4604 162.728 78.4604 163.68C78.4604 164.633 79.7801 165.406 81.408 165.406Z" fill="white"/>
<path d="M81.408 178.405C83.036 178.405 84.3557 177.633 84.3557 176.68C84.3557 175.727 83.036 174.955 81.408 174.955C79.7801 174.955 78.4604 175.727 78.4604 176.68C78.4604 177.633 79.7801 178.405 81.408 178.405Z" fill="white"/>
<path d="M77.3004 167.794C78.1143 166.375 78.109 164.838 77.2886 164.362C76.4681 163.885 75.1431 164.649 74.3291 166.067C73.5152 167.486 73.5205 169.023 74.3409 169.499C75.1614 169.976 76.4864 169.213 77.3004 167.794Z" fill="white"/>
<path d="M88.4857 174.293C89.2997 172.874 89.2948 171.338 88.4749 170.861C87.655 170.385 86.3305 171.149 85.5165 172.567C84.7025 173.986 84.7074 175.523 85.5273 175.999C86.3472 176.475 87.6718 175.711 88.4857 174.293Z" fill="white"/>
<path d="M77.289 175.999C78.1094 175.522 78.1147 173.985 77.3008 172.566C76.4868 171.148 75.1618 170.384 74.3414 170.861C73.5209 171.338 73.5156 172.874 74.3296 174.293C75.1435 175.712 76.4685 176.475 77.289 175.999Z" fill="white"/>
<path d="M88.4756 169.5C89.2955 169.023 89.3004 167.487 88.4864 166.068C87.6724 164.65 86.3479 163.886 85.528 164.362C84.7081 164.838 84.7032 166.375 85.5172 167.794C86.3311 169.212 87.6557 169.976 88.4756 169.5Z" fill="white"/>
<path d="M102.139 171.497V170.419H104.182C104.617 170.419 104.976 170.335 105.26 170.168C105.544 169.993 105.757 169.759 105.899 169.466C106.05 169.174 106.125 168.848 106.125 168.489C106.125 168.121 106.05 167.791 105.899 167.499C105.757 167.206 105.544 166.976 105.26 166.809C104.976 166.642 104.617 166.559 104.182 166.559H102.139V165.481H103.957C104.709 165.481 105.335 165.602 105.837 165.844C106.346 166.078 106.731 166.412 106.99 166.847C107.249 167.281 107.378 167.795 107.378 168.388V168.589C107.378 169.174 107.249 169.688 106.99 170.131C106.731 170.565 106.346 170.903 105.837 171.146C105.335 171.38 104.709 171.497 103.957 171.497H102.139ZM101.162 174.68V165.481H102.39V174.68H101.162ZM111.964 174.906C111.379 174.906 110.865 174.806 110.422 174.605C109.98 174.404 109.604 174.141 109.294 173.815C108.994 173.481 108.764 173.109 108.605 172.7C108.455 172.29 108.379 171.873 108.379 171.447V171.221C108.379 170.795 108.459 170.377 108.618 169.968C108.776 169.55 109.01 169.178 109.319 168.852C109.629 168.518 110.005 168.255 110.447 168.063C110.89 167.862 111.396 167.762 111.964 167.762C112.532 167.762 113.038 167.862 113.481 168.063C113.923 168.255 114.299 168.518 114.609 168.852C114.918 169.178 115.152 169.55 115.31 169.968C115.469 170.377 115.549 170.795 115.549 171.221V171.447C115.549 171.873 115.469 172.29 115.31 172.7C115.16 173.109 114.93 173.481 114.621 173.815C114.32 174.141 113.948 174.404 113.506 174.605C113.063 174.806 112.549 174.906 111.964 174.906ZM111.964 173.828C112.465 173.828 112.891 173.719 113.242 173.502C113.602 173.276 113.873 172.976 114.057 172.6C114.249 172.224 114.345 171.802 114.345 171.334C114.345 170.858 114.249 170.431 114.057 170.055C113.865 169.679 113.589 169.383 113.23 169.166C112.879 168.948 112.457 168.84 111.964 168.84C111.479 168.84 111.057 168.948 110.698 169.166C110.339 169.383 110.063 169.679 109.871 170.055C109.679 170.431 109.583 170.858 109.583 171.334C109.583 171.802 109.675 172.224 109.858 172.6C110.051 172.976 110.322 173.276 110.673 173.502C111.032 173.719 111.463 173.828 111.964 173.828ZM117.426 174.68V165.531H118.629V174.68H117.426ZM116.498 166.483V165.531H118.629V166.483H116.498ZM125.549 174.68L123.03 171.559H121.927L124.998 167.987H126.263L123.481 171.208L123.569 170.569L126.94 174.68H125.549ZM120.937 174.68V165.531H122.14V174.68H120.937ZM132.121 174.68V172.675H131.92V170.356C131.92 169.897 131.799 169.55 131.557 169.316C131.323 169.082 130.976 168.965 130.516 168.965C130.257 168.965 129.99 168.969 129.714 168.978C129.439 168.986 129.175 168.994 128.925 169.003C128.674 169.011 128.457 169.023 128.273 169.04V167.987C128.457 167.971 128.649 167.958 128.85 167.95C129.058 167.933 129.271 167.925 129.489 167.925C129.706 167.916 129.915 167.912 130.115 167.912C130.801 167.912 131.36 167.996 131.795 168.163C132.229 168.322 132.551 168.585 132.76 168.952C132.969 169.32 133.073 169.817 133.073 170.444V174.68H132.121ZM129.927 174.856C129.426 174.856 128.992 174.772 128.624 174.605C128.265 174.43 127.985 174.179 127.784 173.853C127.592 173.527 127.496 173.134 127.496 172.675C127.496 172.199 127.6 171.802 127.809 171.484C128.027 171.167 128.34 170.929 128.749 170.77C129.159 170.603 129.652 170.519 130.228 170.519H132.046V171.422H130.178C129.693 171.422 129.322 171.538 129.063 171.772C128.804 172.006 128.674 172.307 128.674 172.675C128.674 173.042 128.804 173.339 129.063 173.565C129.322 173.79 129.693 173.903 130.178 173.903C130.462 173.903 130.734 173.853 130.993 173.753C131.252 173.644 131.465 173.469 131.632 173.226C131.807 172.976 131.903 172.633 131.92 172.199L132.246 172.675C132.204 173.151 132.087 173.552 131.895 173.878C131.711 174.196 131.452 174.438 131.118 174.605C130.792 174.772 130.395 174.856 129.927 174.856ZM138.077 174.906C137.6 174.906 137.162 174.818 136.761 174.643C136.359 174.467 136.009 174.221 135.708 173.903C135.415 173.586 135.185 173.218 135.018 172.8C134.86 172.382 134.78 171.931 134.78 171.447V171.221C134.78 170.745 134.86 170.298 135.018 169.88C135.177 169.462 135.399 169.094 135.683 168.777C135.975 168.459 136.318 168.213 136.71 168.038C137.111 167.854 137.554 167.762 138.039 167.762C138.549 167.762 139.012 167.87 139.43 168.088C139.848 168.297 140.19 168.627 140.458 169.078C140.725 169.529 140.876 170.114 140.909 170.832L140.408 170.03V165.531H141.611V174.68H140.658V171.71H141.009C140.976 172.47 140.817 173.088 140.533 173.565C140.249 174.033 139.89 174.375 139.455 174.592C139.029 174.801 138.569 174.906 138.077 174.906ZM138.239 173.853C138.649 173.853 139.021 173.761 139.355 173.577C139.689 173.393 139.957 173.13 140.157 172.788C140.358 172.437 140.458 172.027 140.458 171.559V170.983C140.458 170.523 140.353 170.135 140.145 169.817C139.944 169.491 139.672 169.245 139.33 169.078C138.996 168.902 138.628 168.815 138.227 168.815C137.784 168.815 137.391 168.919 137.049 169.128C136.715 169.337 136.451 169.629 136.259 170.005C136.075 170.381 135.983 170.824 135.983 171.334C135.983 171.843 136.08 172.29 136.272 172.675C136.464 173.051 136.731 173.343 137.074 173.552C137.416 173.753 137.805 173.853 138.239 173.853ZM147.006 174.906C146.421 174.906 145.907 174.806 145.464 174.605C145.021 174.404 144.645 174.141 144.336 173.815C144.036 173.481 143.806 173.109 143.647 172.7C143.497 172.29 143.421 171.873 143.421 171.447V171.221C143.421 170.795 143.501 170.377 143.66 169.968C143.818 169.55 144.052 169.178 144.361 168.852C144.671 168.518 145.047 168.255 145.489 168.063C145.932 167.862 146.438 167.762 147.006 167.762C147.574 167.762 148.08 167.862 148.522 168.063C148.965 168.255 149.341 168.518 149.65 168.852C149.96 169.178 150.194 169.55 150.352 169.968C150.511 170.377 150.59 170.795 150.59 171.221V171.447C150.59 171.873 150.511 172.29 150.352 172.7C150.202 173.109 149.972 173.481 149.663 173.815C149.362 174.141 148.99 174.404 148.548 174.605C148.105 174.806 147.591 174.906 147.006 174.906ZM147.006 173.828C147.507 173.828 147.933 173.719 148.284 173.502C148.644 173.276 148.915 172.976 149.099 172.6C149.291 172.224 149.387 171.802 149.387 171.334C149.387 170.858 149.291 170.431 149.099 170.055C148.907 169.679 148.631 169.383 148.272 169.166C147.921 168.948 147.499 168.84 147.006 168.84C146.521 168.84 146.099 168.948 145.74 169.166C145.381 169.383 145.105 169.679 144.913 170.055C144.721 170.431 144.625 170.858 144.625 171.334C144.625 171.802 144.716 172.224 144.9 172.6C145.092 172.976 145.364 173.276 145.715 173.502C146.074 173.719 146.505 173.828 147.006 173.828ZM154.999 174.755C154.498 174.755 154.064 174.684 153.696 174.542C153.337 174.4 153.057 174.158 152.856 173.815C152.664 173.464 152.568 172.992 152.568 172.399V165.957H153.721V172.55C153.721 172.909 153.817 173.189 154.009 173.389C154.21 173.581 154.49 173.678 154.849 173.678H156.027V174.755H154.999ZM151.415 168.89V167.987H156.027V168.89H151.415Z" fill="white" fill-opacity="0.75"/>
<g clip-path="url(#clip1_13342_46720)">
<path d="M451.558 163.717C451.681 163.717 451.8 163.748 451.913 163.81C452.026 163.872 452.114 163.954 452.175 164.057L454.229 167.408L457.998 168.18C458.131 168.211 458.26 168.278 458.384 168.381C458.528 168.515 458.6 168.69 458.6 168.906C458.6 169.112 458.528 169.287 458.384 169.431L455.635 172.196L456.113 176.01C456.124 176.041 456.129 176.077 456.129 176.118C456.129 176.324 456.052 176.499 455.897 176.644C455.753 176.788 455.583 176.86 455.388 176.86C455.285 176.86 455.192 176.839 455.11 176.798L451.573 175.254L448.036 176.798C447.882 176.86 447.748 176.875 447.635 176.844C447.429 176.824 447.264 176.731 447.141 176.566C447.027 176.391 446.981 176.206 447.002 176.01L447.48 172.196L444.732 169.431C444.68 169.37 444.608 169.236 444.515 169.03C444.505 168.999 444.5 168.953 444.5 168.891C444.5 168.716 444.557 168.561 444.67 168.428C444.793 168.283 444.943 168.196 445.118 168.165L448.917 167.393L450.94 164.057C451.094 163.831 451.3 163.717 451.558 163.717Z" fill="#7700EE"/>
</g>
<path d="M70.0665 192.113H458.6" stroke="white" stroke-opacity="0.1" stroke-width="0.391667"/>
<path d="M88.3443 208.563H84.6887L73.7221 219.53H81.0332L88.3443 208.563Z" fill="white"/>
<path d="M102.139 218.597V217.519H104.696C105.189 217.519 105.569 217.381 105.837 217.106C106.112 216.821 106.25 216.445 106.25 215.978C106.25 215.501 106.117 215.129 105.849 214.862C105.582 214.586 105.197 214.448 104.696 214.448H102.139V213.646H104.521C105.106 213.646 105.619 213.717 106.062 213.859C106.513 214.001 106.864 214.24 107.115 214.574C107.374 214.9 107.504 215.347 107.504 215.915V216.09C107.504 216.625 107.395 217.08 107.178 217.456C106.96 217.824 106.63 218.108 106.188 218.309C105.745 218.501 105.189 218.597 104.521 218.597H102.139ZM101.162 218.597V209.347H102.39V218.597H101.162ZM102.139 214.223V213.421H104.358C104.876 213.421 105.256 213.283 105.498 213.007C105.749 212.723 105.874 212.364 105.874 211.929C105.874 211.486 105.749 211.127 105.498 210.851C105.256 210.567 104.876 210.425 104.358 210.425H102.139V209.347H104.145C105.147 209.347 105.895 209.56 106.388 209.987C106.881 210.404 107.128 211.01 107.128 211.804V211.979C107.128 212.539 107.002 212.986 106.752 213.32C106.501 213.646 106.15 213.88 105.699 214.022C105.256 214.156 104.738 214.223 104.145 214.223H102.139ZM109.831 218.547V211.854H111.034V218.547H109.831ZM108.803 212.807V211.854H111.034V212.807H108.803ZM110.169 210.776C109.902 210.776 109.701 210.705 109.568 210.563C109.442 210.421 109.38 210.241 109.38 210.024C109.38 209.807 109.442 209.627 109.568 209.485C109.701 209.343 109.902 209.272 110.169 209.272C110.437 209.272 110.633 209.343 110.758 209.485C110.892 209.627 110.959 209.807 110.959 210.024C110.959 210.241 110.892 210.421 110.758 210.563C110.633 210.705 110.437 210.776 110.169 210.776ZM113.536 218.547V211.516C113.536 210.772 113.732 210.225 114.125 209.874C114.518 209.523 115.094 209.347 115.855 209.347H116.682V210.35H115.654C115.345 210.35 115.107 210.438 114.94 210.613C114.773 210.78 114.689 211.014 114.689 211.315V218.547H113.536ZM112.608 212.832V211.929H116.807V212.832H112.608ZM118.085 218.547V211.854H119.037V214.611H118.987C118.987 213.634 119.2 212.919 119.627 212.468C120.061 212.009 120.709 211.779 121.569 211.779H121.795V212.857H121.369C120.7 212.857 120.186 213.036 119.827 213.396C119.468 213.747 119.288 214.256 119.288 214.925V218.547H118.085ZM126.235 218.772C125.65 218.772 125.137 218.672 124.694 218.472C124.251 218.271 123.875 218.008 123.566 217.682C123.265 217.348 123.035 216.976 122.876 216.567C122.726 216.157 122.651 215.739 122.651 215.313V215.088C122.651 214.662 122.73 214.244 122.889 213.834C123.048 213.417 123.282 213.045 123.591 212.719C123.9 212.385 124.276 212.121 124.719 211.929C125.162 211.729 125.667 211.628 126.235 211.628C126.804 211.628 127.309 211.729 127.752 211.929C128.195 212.121 128.571 212.385 128.88 212.719C129.189 213.045 129.423 213.417 129.582 213.834C129.74 214.244 129.82 214.662 129.82 215.088V215.313C129.82 215.739 129.74 216.157 129.582 216.567C129.431 216.976 129.202 217.348 128.892 217.682C128.592 218.008 128.22 218.271 127.777 218.472C127.334 218.672 126.82 218.772 126.235 218.772ZM126.235 217.695C126.737 217.695 127.163 217.586 127.514 217.369C127.873 217.143 128.145 216.842 128.328 216.466C128.521 216.09 128.617 215.668 128.617 215.2C128.617 214.724 128.521 214.298 128.328 213.922C128.136 213.546 127.86 213.249 127.501 213.032C127.15 212.815 126.728 212.706 126.235 212.706C125.751 212.706 125.329 212.815 124.969 213.032C124.61 213.249 124.334 213.546 124.142 213.922C123.95 214.298 123.854 214.724 123.854 215.2C123.854 215.668 123.946 216.09 124.13 216.466C124.322 216.842 124.593 217.143 124.944 217.369C125.304 217.586 125.734 217.695 126.235 217.695ZM133.815 218.747C132.938 218.747 132.257 218.559 131.772 218.183C131.296 217.807 131.05 217.294 131.033 216.642H132.161C132.178 216.901 132.307 217.147 132.549 217.381C132.8 217.607 133.222 217.72 133.815 217.72C134.35 217.72 134.759 217.615 135.044 217.406C135.328 217.189 135.47 216.926 135.47 216.617C135.47 216.341 135.365 216.128 135.156 215.978C134.947 215.819 134.609 215.714 134.141 215.664L133.414 215.589C132.779 215.522 132.261 215.334 131.86 215.025C131.459 214.707 131.258 214.265 131.258 213.696C131.258 213.27 131.367 212.907 131.584 212.606C131.802 212.297 132.102 212.063 132.487 211.904C132.871 211.737 133.314 211.654 133.815 211.654C134.567 211.654 135.177 211.821 135.645 212.155C136.113 212.489 136.355 212.986 136.372 213.646H135.244C135.236 213.379 135.11 213.153 134.868 212.97C134.634 212.777 134.283 212.681 133.815 212.681C133.347 212.681 132.992 212.777 132.75 212.97C132.508 213.162 132.386 213.404 132.386 213.696C132.386 213.947 132.47 214.148 132.637 214.298C132.813 214.448 133.097 214.545 133.489 214.586L134.216 214.662C134.935 214.737 135.511 214.937 135.946 215.263C136.38 215.581 136.598 216.032 136.598 216.617C136.598 217.035 136.477 217.406 136.234 217.732C136 218.05 135.674 218.3 135.257 218.484C134.839 218.66 134.358 218.747 133.815 218.747ZM140.948 218.622C140.447 218.622 140.013 218.551 139.645 218.409C139.286 218.267 139.006 218.025 138.805 217.682C138.613 217.331 138.517 216.859 138.517 216.266V209.824H139.67V216.416C139.67 216.775 139.766 217.055 139.958 217.256C140.159 217.448 140.439 217.544 140.798 217.544H141.976V218.622H140.948ZM137.364 212.756V211.854H141.976V212.756H137.364Z" fill="white" fill-opacity="0.75"/>
<g clip-path="url(#clip2_13342_46720)">
<path d="M451.558 207.584C451.681 207.584 451.8 207.615 451.913 207.677C452.026 207.738 452.114 207.821 452.175 207.924L454.229 211.275L457.998 212.047C458.131 212.078 458.26 212.145 458.384 212.248C458.528 212.382 458.6 212.557 458.6 212.773C458.6 212.979 458.528 213.154 458.384 213.298L455.635 216.063L456.113 219.877C456.124 219.908 456.129 219.944 456.129 219.985C456.129 220.191 456.052 220.366 455.897 220.51C455.753 220.654 455.583 220.726 455.388 220.726C455.285 220.726 455.192 220.706 455.11 220.665L451.573 219.12L448.036 220.665C447.882 220.726 447.748 220.742 447.635 220.711C447.429 220.69 447.264 220.598 447.141 220.433C447.027 220.258 446.981 220.073 447.002 219.877L447.48 216.063L444.732 213.298C444.68 213.236 444.608 213.102 444.515 212.897C444.505 212.866 444.5 212.819 444.5 212.758C444.5 212.583 444.557 212.428 444.67 212.294C444.793 212.15 444.943 212.063 445.118 212.032L448.917 211.26L450.94 207.924C451.094 207.697 451.3 207.584 451.558 207.584Z" fill="#7700EE"/>
</g>
<path d="M70.0665 235.98H458.6" stroke="white" stroke-opacity="0.1" stroke-width="0.391667"/>
<path fill-rule="evenodd" clip-rule="evenodd" d="M80.9903 249.286L83.8755 253.597L86.7608 257.909L80.9903 260.816L75.2198 257.898L78.1051 253.586L80.9903 249.286ZM80.9903 261.978L75.5399 259.069L80.9903 266.51L86.4407 259.069L80.9903 261.978Z" fill="#343434"/>
<path fill-rule="evenodd" clip-rule="evenodd" d="M80.9904 249.286L83.8756 253.586L86.7608 257.898L80.9904 255.72V249.286Z" fill="#C6C6C6"/>
<path fill-rule="evenodd" clip-rule="evenodd" d="M80.9904 261.977L86.4518 259.069L80.9904 266.521V261.977Z" fill="#C6C6C6"/>
<path fill-rule="evenodd" clip-rule="evenodd" d="M80.9904 255.72L86.7608 257.898L80.9904 260.805V255.72Z" fill="#A3A3A3"/>
<path fill-rule="evenodd" clip-rule="evenodd" d="M80.9903 249.286L78.1051 253.586L75.2198 257.898L80.9903 255.72V249.286Z" fill="white"/>
<path fill-rule="evenodd" clip-rule="evenodd" d="M80.9902 261.977L75.5398 259.069L80.9902 266.521V261.977Z" fill="white"/>
<path fill-rule="evenodd" clip-rule="evenodd" d="M80.9903 255.72L75.2198 257.898L80.9903 260.805V255.72Z" fill="#BFBFBF"/>
<path d="M101.162 262.414V253.264H102.39V262.414H101.162ZM102.139 262.414V261.311H106.576V262.414H102.139ZM102.139 258.315V257.212H106.188V258.315H102.139ZM102.139 254.367V253.264H106.451V254.367H102.139ZM111.108 262.489C110.607 262.489 110.172 262.418 109.805 262.276C109.446 262.134 109.166 261.891 108.965 261.549C108.773 261.198 108.677 260.726 108.677 260.133V253.69H109.83V260.283C109.83 260.642 109.926 260.922 110.118 261.123C110.319 261.315 110.599 261.411 110.958 261.411H112.136V262.489H111.108ZM107.524 256.623V255.721H112.136V256.623H107.524ZM113.838 262.414V253.264H115.041V258.729H114.74C114.74 258.069 114.824 257.501 114.991 257.024C115.166 256.54 115.434 256.168 115.793 255.909C116.152 255.65 116.612 255.52 117.172 255.52H117.222C118.024 255.52 118.63 255.788 119.039 256.322C119.449 256.849 119.653 257.605 119.653 258.591V262.414H118.45V258.34C118.45 257.797 118.296 257.375 117.986 257.074C117.686 256.774 117.293 256.623 116.808 256.623C116.273 256.623 115.843 256.803 115.517 257.162C115.2 257.513 115.041 257.977 115.041 258.553V262.414H113.838ZM124.7 262.639C124.115 262.639 123.609 262.539 123.183 262.338C122.757 262.138 122.41 261.875 122.143 261.549C121.876 261.215 121.675 260.843 121.541 260.433C121.416 260.024 121.353 259.606 121.353 259.18V258.954C121.353 258.52 121.416 258.098 121.541 257.689C121.675 257.279 121.876 256.911 122.143 256.586C122.41 256.251 122.749 255.988 123.158 255.796C123.576 255.595 124.065 255.495 124.625 255.495C125.352 255.495 125.949 255.654 126.417 255.971C126.893 256.281 127.244 256.682 127.47 257.175C127.704 257.668 127.821 258.194 127.821 258.754V259.293H121.88V258.39H126.943L126.668 258.879C126.668 258.403 126.592 257.993 126.442 257.651C126.292 257.3 126.066 257.028 125.765 256.836C125.464 256.644 125.084 256.548 124.625 256.548C124.148 256.548 123.751 256.657 123.434 256.874C123.125 257.091 122.891 257.388 122.732 257.764C122.582 258.14 122.506 258.574 122.506 259.067C122.506 259.543 122.582 259.974 122.732 260.358C122.891 260.734 123.133 261.035 123.459 261.261C123.785 261.478 124.198 261.586 124.7 261.586C125.226 261.586 125.652 261.469 125.978 261.235C126.312 261.001 126.513 260.73 126.58 260.421H127.708C127.616 260.88 127.432 261.277 127.156 261.611C126.881 261.946 126.534 262.201 126.116 262.376C125.698 262.551 125.226 262.639 124.7 262.639ZM129.529 262.414V255.721H130.482V258.478H130.431C130.431 257.501 130.644 256.786 131.071 256.335C131.505 255.875 132.153 255.646 133.013 255.646H133.239V256.723H132.813C132.144 256.723 131.63 256.903 131.271 257.262C130.912 257.613 130.732 258.123 130.732 258.791V262.414H129.529ZM137.441 262.639C136.856 262.639 136.351 262.539 135.925 262.338C135.499 262.138 135.152 261.875 134.884 261.549C134.617 261.215 134.417 260.843 134.283 260.433C134.157 260.024 134.095 259.606 134.095 259.18V258.954C134.095 258.52 134.157 258.098 134.283 257.689C134.417 257.279 134.617 256.911 134.884 256.586C135.152 256.251 135.49 255.988 135.9 255.796C136.317 255.595 136.806 255.495 137.366 255.495C138.093 255.495 138.69 255.654 139.158 255.971C139.635 256.281 139.985 256.682 140.211 257.175C140.445 257.668 140.562 258.194 140.562 258.754V259.293H134.621V258.39H139.685L139.409 258.879C139.409 258.403 139.334 257.993 139.183 257.651C139.033 257.3 138.807 257.028 138.507 256.836C138.206 256.644 137.826 256.548 137.366 256.548C136.89 256.548 136.493 256.657 136.175 256.874C135.866 257.091 135.632 257.388 135.473 257.764C135.323 258.14 135.248 258.574 135.248 259.067C135.248 259.543 135.323 259.974 135.473 260.358C135.632 260.734 135.875 261.035 136.2 261.261C136.526 261.478 136.94 261.586 137.441 261.586C137.968 261.586 138.394 261.469 138.72 261.235C139.054 261.001 139.254 260.73 139.321 260.421H140.449C140.357 260.88 140.173 261.277 139.898 261.611C139.622 261.946 139.275 262.201 138.857 262.376C138.44 262.551 137.968 262.639 137.441 262.639ZM144.589 262.614C143.795 262.614 143.185 262.355 142.759 261.837C142.333 261.319 142.12 260.571 142.12 259.594V255.708H143.323V259.832C143.323 260.358 143.465 260.772 143.749 261.073C144.033 261.365 144.418 261.511 144.902 261.511C145.404 261.511 145.813 261.352 146.131 261.035C146.448 260.709 146.607 260.266 146.607 259.706V255.708H147.81V262.414H146.858V259.543H147.008C147.008 260.204 146.92 260.763 146.745 261.223C146.569 261.674 146.306 262.021 145.955 262.263C145.613 262.497 145.174 262.614 144.639 262.614H144.589ZM150.14 262.414V255.721H151.093V258.591H150.943C150.943 257.939 151.026 257.388 151.193 256.937C151.369 256.477 151.628 256.126 151.97 255.884C152.313 255.641 152.747 255.52 153.274 255.52H153.324C153.85 255.52 154.285 255.641 154.627 255.884C154.978 256.126 155.237 256.477 155.404 256.937C155.572 257.388 155.655 257.939 155.655 258.591H155.304C155.304 257.939 155.392 257.388 155.567 256.937C155.743 256.477 156.002 256.126 156.344 255.884C156.695 255.641 157.134 255.52 157.66 255.52H157.711C158.237 255.52 158.676 255.641 159.027 255.884C159.377 256.126 159.637 256.477 159.804 256.937C159.979 257.388 160.067 257.939 160.067 258.591V262.414H158.864V258.328C158.864 257.785 158.73 257.367 158.463 257.074C158.195 256.774 157.823 256.623 157.347 256.623C156.854 256.623 156.457 256.782 156.156 257.099C155.856 257.409 155.705 257.843 155.705 258.403V262.414H154.502V258.328C154.502 257.785 154.368 257.367 154.101 257.074C153.834 256.774 153.462 256.623 152.985 256.623C152.493 256.623 152.096 256.782 151.795 257.099C151.494 257.409 151.344 257.843 151.344 258.403V262.414H150.14Z" fill="white" fill-opacity="0.75"/>
<g clip-path="url(#clip3_13342_46720)">
<path d="M451.558 251.451C451.681 251.451 451.8 251.482 451.913 251.543C452.026 251.605 452.114 251.687 452.175 251.79L454.229 255.142L457.998 255.914C458.131 255.945 458.26 256.012 458.384 256.115C458.528 256.248 458.6 256.424 458.6 256.64C458.6 256.846 458.528 257.021 458.384 257.165L455.635 259.929L456.113 263.744C456.124 263.775 456.129 263.811 456.129 263.852C456.129 264.058 456.052 264.233 455.897 264.377C455.753 264.521 455.583 264.593 455.388 264.593C455.285 264.593 455.192 264.573 455.11 264.531L451.573 262.987L448.036 264.531C447.882 264.593 447.748 264.609 447.635 264.578C447.429 264.557 447.264 264.464 447.141 264.3C447.027 264.125 446.981 263.939 447.002 263.744L447.48 259.929L444.732 257.165C444.68 257.103 444.608 256.969 444.515 256.763C444.505 256.732 444.5 256.686 444.5 256.624C444.5 256.449 444.557 256.295 444.67 256.161C444.793 256.017 444.943 255.929 445.118 255.898L448.917 255.126L450.94 251.79C451.094 251.564 451.3 251.451 451.558 251.451Z" fill="#7700EE"/>
</g>
<path d="M70.0665 279.847H458.6" stroke="white" stroke-opacity="0.1" stroke-width="0.391667"/>
<path d="M85.9031 308.409C87.9378 306.912 89.2582 304.5 89.2582 301.78C89.2582 297.238 85.5758 293.555 81.0331 293.555C76.4906 293.555 72.8082 297.238 72.8082 301.78C72.8082 304.5 74.1285 306.912 76.1633 308.409L80.3662 301.763H76.0658V300.347H80.3662V298.889H76.0658V297.472H86.0006V298.889H81.701V300.347H86.0006V301.763H81.701L85.9031 308.409Z" fill="white"/>
<path d="M84.7467 309.121L81.0331 303.246L77.3196 309.121C78.4351 309.687 79.6969 310.005 81.0331 310.005C82.3694 310.005 83.6312 309.687 84.7467 309.121Z" fill="white"/>
<path d="M104.132 306.506C103.372 306.506 102.724 306.381 102.189 306.13C101.655 305.879 101.245 305.532 100.961 305.09C100.677 304.647 100.535 304.145 100.535 303.586H101.763C101.763 303.861 101.834 304.137 101.976 304.413C102.127 304.689 102.373 304.918 102.716 305.102C103.067 305.286 103.539 305.378 104.132 305.378C104.684 305.378 105.135 305.298 105.486 305.14C105.837 304.973 106.096 304.76 106.263 304.501C106.43 304.233 106.513 303.945 106.513 303.636C106.513 303.26 106.351 302.951 106.025 302.708C105.699 302.458 105.223 302.303 104.596 302.245L103.581 302.157C102.77 302.09 102.123 301.839 101.638 301.405C101.153 300.97 100.911 300.398 100.911 299.688C100.911 299.128 101.045 298.639 101.312 298.221C101.588 297.804 101.968 297.478 102.453 297.244C102.937 297.001 103.501 296.88 104.145 296.88C104.78 296.88 105.34 296.997 105.824 297.231C106.309 297.465 106.685 297.795 106.952 298.221C107.228 298.639 107.366 299.14 107.366 299.725H106.137C106.137 299.433 106.066 299.157 105.924 298.898C105.791 298.639 105.578 298.426 105.285 298.259C104.993 298.092 104.613 298.008 104.145 298.008C103.693 298.008 103.317 298.088 103.017 298.246C102.724 298.405 102.503 298.614 102.352 298.873C102.21 299.124 102.139 299.395 102.139 299.688C102.139 300.022 102.269 300.319 102.528 300.578C102.787 300.837 103.171 300.987 103.681 301.029L104.696 301.117C105.323 301.167 105.862 301.3 106.313 301.518C106.772 301.726 107.123 302.011 107.366 302.37C107.616 302.721 107.742 303.143 107.742 303.636C107.742 304.196 107.591 304.693 107.291 305.127C106.99 305.562 106.568 305.9 106.025 306.142C105.482 306.385 104.851 306.506 104.132 306.506ZM113.901 306.506C113.082 306.506 112.376 306.36 111.783 306.067C111.19 305.775 110.701 305.39 110.317 304.914C109.932 304.438 109.644 303.928 109.452 303.385C109.268 302.842 109.176 302.32 109.176 301.818V301.543C109.176 301 109.272 300.452 109.464 299.901C109.657 299.349 109.949 298.848 110.342 298.397C110.735 297.937 111.223 297.57 111.808 297.294C112.401 297.018 113.099 296.88 113.901 296.88C114.703 296.88 115.397 297.018 115.982 297.294C116.575 297.57 117.068 297.937 117.461 298.397C117.853 298.848 118.146 299.349 118.338 299.901C118.53 300.452 118.626 301 118.626 301.543V301.818C118.626 302.32 118.53 302.842 118.338 303.385C118.154 303.928 117.87 304.438 117.486 304.914C117.101 305.39 116.613 305.775 116.019 306.067C115.426 306.36 114.72 306.506 113.901 306.506ZM113.901 305.378C114.436 305.378 114.916 305.278 115.343 305.077C115.777 304.877 116.145 304.605 116.446 304.262C116.746 303.911 116.976 303.519 117.135 303.084C117.294 302.641 117.373 302.178 117.373 301.693C117.373 301.183 117.294 300.707 117.135 300.264C116.976 299.821 116.746 299.433 116.446 299.099C116.145 298.756 115.777 298.489 115.343 298.297C114.916 298.104 114.436 298.008 113.901 298.008C113.367 298.008 112.882 298.104 112.447 298.297C112.021 298.489 111.658 298.756 111.357 299.099C111.056 299.433 110.826 299.821 110.668 300.264C110.509 300.707 110.43 301.183 110.43 301.693C110.43 302.178 110.509 302.641 110.668 303.084C110.826 303.519 111.056 303.911 111.357 304.262C111.658 304.605 112.021 304.877 112.447 305.077C112.882 305.278 113.367 305.378 113.901 305.378ZM120.647 306.28V297.081H121.875V306.28H120.647ZM126.3 306.28L123.267 302.207H124.708L127.791 306.28H126.3ZM121.412 302.971V301.881H123.868C124.253 301.881 124.583 301.802 124.858 301.643C125.134 301.484 125.347 301.267 125.498 300.991C125.648 300.707 125.723 300.385 125.723 300.026C125.723 299.667 125.648 299.349 125.498 299.074C125.347 298.79 125.134 298.568 124.858 298.409C124.583 298.242 124.253 298.159 123.868 298.159H121.412V297.081H123.643C124.311 297.081 124.896 297.181 125.397 297.382C125.899 297.582 126.287 297.891 126.563 298.309C126.839 298.727 126.976 299.266 126.976 299.926V300.126C126.976 300.786 126.834 301.325 126.55 301.743C126.275 302.161 125.886 302.47 125.385 302.671C124.892 302.871 124.311 302.971 123.643 302.971H121.412ZM128.445 306.28L131.742 297.131H133.822L137.219 306.28H135.953L132.882 297.933L133.484 298.234H132.005L132.644 297.933L129.674 306.28H128.445ZM130.413 303.548L130.827 302.445H134.775L135.188 303.548H130.413Z" fill="white" fill-opacity="0.75"/>
<g clip-path="url(#clip4_13342_46720)">
<path d="M451.558 295.317C451.681 295.317 451.8 295.348 451.913 295.41C452.026 295.472 452.114 295.554 452.175 295.657L454.229 299.008L457.998 299.781C458.131 299.811 458.26 299.878 458.384 299.981C458.528 300.115 458.6 300.29 458.6 300.506C458.6 300.712 458.528 300.887 458.384 301.032L455.635 303.796L456.113 307.61C456.124 307.641 456.129 307.677 456.129 307.719C456.129 307.925 456.052 308.1 455.897 308.244C455.753 308.388 455.583 308.46 455.388 308.46C455.285 308.46 455.192 308.439 455.11 308.398L451.573 306.854L448.036 308.398C447.882 308.46 447.748 308.475 447.635 308.444C447.429 308.424 447.264 308.331 447.141 308.166C447.027 307.991 446.981 307.806 447.002 307.61L447.48 303.796L444.732 301.032C444.68 300.97 444.608 300.836 444.515 300.63C444.505 300.599 444.5 300.553 444.5 300.491C444.5 300.316 444.557 300.162 444.67 300.028C444.793 299.884 444.943 299.796 445.118 299.765L448.917 298.993L450.94 295.657C451.094 295.431 451.3 295.317 451.558 295.317Z" fill="#7700EE"/>
</g>
<rect x="70.0667" y="74.8799" width="40.9333" height="23.5" rx="11.75" fill="white" fill-opacity="0.05"/>
<path d="M81.4555 89.6299L83.7209 82.7679H86.2119L88.5619 89.6299H86.9639L85.0651 83.8301L85.5539 84.0275H84.3413L84.8489 83.8301L82.9971 89.6299H81.4555ZM83.1757 87.9285L83.6457 86.6501H86.3341L86.8135 87.9285H83.1757ZM89.739 89.6299V82.7679H91.2806V89.6299H89.739ZM91.0926 89.6299V88.2763H93.969V89.6299H91.0926ZM95.2626 89.6299V82.7679H96.8042V89.6299H95.2626ZM96.6162 89.6299V88.2763H99.4926V89.6299H96.6162Z" fill="white" fill-opacity="0.5"/>
<rect x="121.967" y="74.8799" width="71.9333" height="23.5" rx="11.75" fill="white" fill-opacity="0.05"/>
<path d="M135.473 87.6653V86.3305H136.704C136.943 86.3305 137.146 86.2835 137.315 86.1895C137.491 86.0955 137.626 85.9639 137.72 85.7947C137.814 85.6192 137.861 85.4187 137.861 85.1931C137.861 84.9549 137.814 84.7513 137.72 84.5821C137.626 84.4066 137.491 84.275 137.315 84.1873C137.146 84.0933 136.943 84.0463 136.704 84.0463H135.473V82.7115H136.629C137.212 82.7115 137.71 82.8086 138.124 83.0029C138.544 83.1971 138.863 83.4729 139.083 83.8301C139.308 84.1873 139.421 84.6165 139.421 85.1179V85.2683C139.421 85.7571 139.308 86.1832 139.083 86.5467C138.863 86.9039 138.544 87.1796 138.124 87.3739C137.71 87.5681 137.212 87.6653 136.629 87.6653H135.473ZM134.119 89.6299V82.7115H135.661V89.6299H134.119ZM143.961 89.8085C143.341 89.8085 142.799 89.7019 142.335 89.4889C141.878 89.2695 141.498 88.9844 141.198 88.6335C140.897 88.2763 140.671 87.8909 140.521 87.4773C140.377 87.0637 140.305 86.6657 140.305 86.2835V86.0767C140.305 85.6505 140.38 85.2307 140.53 84.8171C140.687 84.3972 140.919 84.0181 141.226 83.6797C141.533 83.3413 141.915 83.0718 142.373 82.8713C142.83 82.6645 143.36 82.5611 143.961 82.5611C144.563 82.5611 145.092 82.6645 145.55 82.8713C146.007 83.0718 146.39 83.3413 146.697 83.6797C147.004 84.0181 147.236 84.3972 147.392 84.8171C147.549 85.2307 147.627 85.6505 147.627 86.0767V86.2835C147.627 86.6657 147.552 87.0637 147.402 87.4773C147.251 87.8909 147.026 88.2763 146.725 88.6335C146.424 88.9844 146.042 89.2695 145.578 89.4889C145.121 89.7019 144.582 89.8085 143.961 89.8085ZM143.961 88.3703C144.287 88.3703 144.578 88.3139 144.835 88.2011C145.099 88.0883 145.321 87.9316 145.503 87.7311C145.691 87.5305 145.832 87.2987 145.926 87.0355C146.02 86.7723 146.067 86.4903 146.067 86.1895C146.067 85.8699 146.017 85.5785 145.916 85.3153C145.822 85.0458 145.681 84.8139 145.493 84.6197C145.312 84.4191 145.092 84.2656 144.835 84.1591C144.578 84.0525 144.287 83.9993 143.961 83.9993C143.635 83.9993 143.344 84.0525 143.087 84.1591C142.83 84.2656 142.608 84.4191 142.42 84.6197C142.238 84.8139 142.1 85.0458 142.006 85.3153C141.912 85.5785 141.865 85.8699 141.865 86.1895C141.865 86.4903 141.912 86.7723 142.006 87.0355C142.1 87.2987 142.238 87.5305 142.42 87.7311C142.608 87.9316 142.83 88.0883 143.087 88.2011C143.344 88.3139 143.635 88.3703 143.961 88.3703ZM150.431 87.6653V86.3305H151.662C151.9 86.3305 152.104 86.2835 152.273 86.1895C152.449 86.0955 152.583 85.9639 152.677 85.7947C152.771 85.6192 152.818 85.4187 152.818 85.1931C152.818 84.9549 152.771 84.7513 152.677 84.5821C152.583 84.4066 152.449 84.275 152.273 84.1873C152.104 84.0933 151.9 84.0463 151.662 84.0463H150.431V82.7115H151.587C152.17 82.7115 152.668 82.8086 153.082 83.0029C153.501 83.1971 153.821 83.4729 154.04 83.8301C154.266 84.1873 154.379 84.6165 154.379 85.1179V85.2683C154.379 85.7571 154.266 86.1832 154.04 86.5467C153.821 86.9039 153.501 87.1796 153.082 87.3739C152.668 87.5681 152.17 87.6653 151.587 87.6653H150.431ZM149.077 89.6299V82.7115H150.619V89.6299H149.077ZM158.505 89.8085C157.86 89.8085 157.312 89.6894 156.86 89.4513C156.415 89.2069 156.077 88.8622 155.845 88.4173C155.613 87.9723 155.497 87.4459 155.497 86.8381V82.7679H157.039V86.8945C157.039 87.1953 157.095 87.4585 157.208 87.6841C157.327 87.9034 157.493 88.0726 157.706 88.1917C157.926 88.3107 158.192 88.3703 158.505 88.3703C158.825 88.3703 159.091 88.3107 159.304 88.1917C159.524 88.0726 159.69 87.9034 159.803 87.6841C159.915 87.4647 159.972 87.2015 159.972 86.8945V82.7679H161.513V86.8381C161.513 87.4459 161.397 87.9723 161.166 88.4173C160.934 88.8622 160.595 89.2069 160.15 89.4513C159.705 89.6894 159.157 89.8085 158.505 89.8085ZM163.209 89.6299V82.7679H164.75V89.6299H163.209ZM164.562 89.6299V88.2763H167.439V89.6299H164.562ZM168.139 89.6299L170.404 82.7679H172.895L175.245 89.6299H173.647L171.748 83.8301L172.237 84.0275H171.025L171.532 83.8301L169.68 89.6299H168.139ZM169.859 87.9285L170.329 86.6501H173.017L173.497 87.9285H169.859ZM176.422 89.6299V82.7115H177.964V89.6299H176.422ZM180.587 89.6299L178.575 86.6783H180.267L182.373 89.6299H180.587ZM177.55 87.4303V86.2177H179.242C179.468 86.2177 179.662 86.1738 179.825 86.0861C179.994 85.9921 180.123 85.8636 180.211 85.7007C180.305 85.5315 180.352 85.3372 180.352 85.1179C180.352 84.8985 180.305 84.7074 180.211 84.5445C180.123 84.3753 179.994 84.2468 179.825 84.1591C179.662 84.0651 179.468 84.0181 179.242 84.0181H177.55V82.7115H179.12C179.69 82.7115 180.186 82.7992 180.605 82.9747C181.025 83.1439 181.348 83.3977 181.574 83.7361C181.799 84.0745 181.912 84.5006 181.912 85.0145V85.1649C181.912 85.6725 181.796 86.0955 181.564 86.4339C181.339 86.766 181.016 87.0167 180.596 87.1859C180.182 87.3488 179.69 87.4303 179.12 87.4303H177.55Z" fill="white" fill-opacity="0.5"/>
<rect x="204.867" y="74.8799" width="79.9333" height="23.5" rx="11.75" fill="#7700EE" fill-opacity="0.25"/>
<path d="M216.804 89.6299V82.7679H218.346V89.6299H216.804ZM218.158 86.8663V85.5879H220.808V86.8663H218.158ZM218.158 84.0463V82.7679H220.921V84.0463H218.158ZM221.257 89.6299L223.522 82.7679H226.013L228.363 89.6299H226.765L224.866 83.8301L225.355 84.0275H224.143L224.65 83.8301L222.798 89.6299H221.257ZM222.977 87.9285L223.447 86.6501H226.135L226.615 87.9285H222.977ZM230.586 89.6299L228.499 82.7679H230.087L231.742 88.5583L231.385 88.3797H232.343L231.967 88.5583L233.5 82.7679H235.041L233.095 89.6299H230.586ZM239.483 89.8085C238.863 89.8085 238.321 89.7019 237.857 89.4889C237.399 89.2695 237.02 88.9844 236.719 88.6335C236.419 88.2763 236.193 87.8909 236.043 87.4773C235.898 87.0637 235.826 86.6657 235.826 86.2835V86.0767C235.826 85.6505 235.902 85.2307 236.052 84.8171C236.209 84.3972 236.441 84.0181 236.748 83.6797C237.055 83.3413 237.437 83.0718 237.894 82.8713C238.352 82.6645 238.881 82.5611 239.483 82.5611C240.085 82.5611 240.614 82.6645 241.072 82.8713C241.529 83.0718 241.911 83.3413 242.218 83.6797C242.525 84.0181 242.757 84.3972 242.914 84.8171C243.071 85.2307 243.149 85.6505 243.149 86.0767V86.2835C243.149 86.6657 243.074 87.0637 242.923 87.4773C242.773 87.8909 242.547 88.2763 242.247 88.6335C241.946 88.9844 241.564 89.2695 241.1 89.4889C240.642 89.7019 240.103 89.8085 239.483 89.8085ZM239.483 88.3703C239.809 88.3703 240.1 88.3139 240.357 88.2011C240.62 88.0883 240.843 87.9316 241.025 87.7311C241.213 87.5305 241.354 87.2987 241.448 87.0355C241.542 86.7723 241.589 86.4903 241.589 86.1895C241.589 85.8699 241.538 85.5785 241.438 85.3153C241.344 85.0458 241.203 84.8139 241.015 84.6197C240.833 84.4191 240.614 84.2656 240.357 84.1591C240.1 84.0525 239.809 83.9993 239.483 83.9993C239.157 83.9993 238.866 84.0525 238.609 84.1591C238.352 84.2656 238.129 84.4191 237.941 84.6197C237.76 84.8139 237.622 85.0458 237.528 85.3153C237.434 85.5785 237.387 85.8699 237.387 86.1895C237.387 86.4903 237.434 86.7723 237.528 87.0355C237.622 87.2987 237.76 87.5305 237.941 87.7311C238.129 87.9316 238.352 88.0883 238.609 88.2011C238.866 88.3139 239.157 88.3703 239.483 88.3703ZM247.475 89.8085C246.83 89.8085 246.282 89.6894 245.83 89.4513C245.385 89.2069 245.047 88.8622 244.815 88.4173C244.583 87.9723 244.467 87.4459 244.467 86.8381V82.7679H246.009V86.8945C246.009 87.1953 246.065 87.4585 246.178 87.6841C246.297 87.9034 246.463 88.0726 246.676 88.1917C246.896 88.3107 247.162 88.3703 247.475 88.3703C247.795 88.3703 248.061 88.3107 248.274 88.1917C248.494 88.0726 248.66 87.9034 248.773 87.6841C248.885 87.4647 248.942 87.2015 248.942 86.8945V82.7679H250.483V86.8381C250.483 87.4459 250.367 87.9723 250.136 88.4173C249.904 88.8622 249.565 89.2069 249.12 89.4513C248.675 89.6894 248.127 89.8085 247.475 89.8085ZM252.179 89.6299V82.7115H253.72V89.6299H252.179ZM256.343 89.6299L254.331 86.6783H256.023L258.129 89.6299H256.343ZM253.307 87.4303V86.2177H254.999C255.224 86.2177 255.419 86.1738 255.582 86.0861C255.751 85.9921 255.879 85.8636 255.967 85.7007C256.061 85.5315 256.108 85.3372 256.108 85.1179C256.108 84.8985 256.061 84.7074 255.967 84.5445C255.879 84.3753 255.751 84.2468 255.582 84.1591C255.419 84.0651 255.224 84.0181 254.999 84.0181H253.307V82.7115H254.877C255.447 82.7115 255.942 82.7992 256.362 82.9747C256.782 83.1439 257.104 83.3977 257.33 83.7361C257.556 84.0745 257.668 84.5006 257.668 85.0145V85.1649C257.668 85.6725 257.553 86.0955 257.321 86.4339C257.095 86.766 256.772 87.0167 256.352 87.1859C255.939 87.3488 255.447 87.4303 254.877 87.4303H253.307ZM259.346 89.6299V82.7679H260.888V89.6299H259.346ZM264.093 89.6299V83.9241H265.635V89.6299H264.093ZM262.166 84.1121V82.7679H267.571V84.1121H262.166ZM268.823 89.6299V82.7679H270.327V89.6299H268.823ZM270.139 89.6299V88.3515H273.138V89.6299H270.139ZM270.139 86.7817V85.5033H272.921V86.7817H270.139ZM270.139 84.0463V82.7679H273.072V84.0463H270.139Z" fill="white" fill-opacity="0.75"/>
</g>
</g>
<defs>
<filter id="filter0_i_13342_46720" x="45" y="13" width="438" height="302.129" filterUnits="userSpaceOnUse" color-interpolation-filters="sRGB">
<feFlood flood-opacity="0" result="BackgroundImageFix"/>
<feBlend mode="normal" in="SourceGraphic" in2="BackgroundImageFix" result="shape"/>
<feColorMatrix in="SourceAlpha" type="matrix" values="0 0 0 0 0 0 0 0 0 0 0 0 0 0 0 0 0 0 127 0" result="hardAlpha"/>
<feOffset dy="3.12857"/>
<feGaussianBlur stdDeviation="6.64821"/>
<feComposite in2="hardAlpha" operator="arithmetic" k2="-1" k3="1"/>
<feColorMatrix type="matrix" values="0 0 0 0 1 0 0 0 0 1 0 0 0 0 1 0 0 0 0.06 0"/>
<feBlend mode="normal" in2="shape" result="effect1_innerShadow_13342_46720"/>
</filter>
<clipPath id="clip0_13342_46720">
<rect x="45" y="13" width="438" height="299" rx="17.9893" fill="white"/>
</clipPath>
<clipPath id="clip1_13342_46720">
<rect width="14.1" height="14.1" fill="white" transform="translate(444.5 163.13)"/>
</clipPath>
<clipPath id="clip2_13342_46720">
<rect width="14.1" height="14.1" fill="white" transform="translate(444.5 206.997)"/>
</clipPath>
<clipPath id="clip3_13342_46720">
<rect width="14.1" height="14.1" fill="white" transform="translate(444.5 250.863)"/>
</clipPath>
<clipPath id="clip4_13342_46720">
<rect width="14.1" height="14.1" fill="white" transform="translate(444.5 294.73)"/>
</clipPath>
</defs>
</svg>
