<svg xmlns="http://www.w3.org/2000/svg" width="1752" height="1196" version="1.0" viewBox="0 0 1314 897"><path d="M639.5 266.4c-37.8 6.2-68.3 27.3-86.9 60.1-10 17.4-14.9 36.5-14.9 58-.1 25.9 6 46 20.5 67.7 32.2 48.1 97 65.9 149.4 40.9 35.3-16.9 58.6-46.6 67-85.6 2.5-11.7 2.3-34.1-.3-46.5-10.4-47.9-46-83.5-93.8-93.5-10.7-2.2-30.9-2.8-41-1.1zm81.5 76.1v8.5h-54v17h54v17l-26.6.2-26.5.3 26.5 39.5c14.7 21.7 26.6 39.7 26.6 40-.1 1.1-13 9.1-13.9 8.6-.5-.3-11.3-16.1-24.1-35.1-12.7-18.9-23.4-34.6-23.8-34.9-.7-.4-26.2 35.8-43.1 61.1-3.4 5.1-6.4 9.3-6.8 9.3-1.3 0-13.3-8.2-13.3-9.1 0-.5 11.9-18.5 26.4-40.1l26.5-39.3-27-.3-27-.2.3-8.3.3-8.2 26.8-.3 26.7-.2v-17h-54v-17h126v8.5z"/></svg>