<svg width="438" height="299" viewBox="0 0 438 299" fill="none" xmlns="http://www.w3.org/2000/svg">
<g clip-path="url(#clip0_13024_42274)">
<mask id="mask0_13024_42274" style="mask-type:luminance" maskUnits="userSpaceOnUse" x="0" y="0" width="438" height="299">
<path d="M438 0H0V299H438V0Z" fill="white"/>
</mask>
<g mask="url(#mask0_13024_42274)">
<g filter="url(#filter0_i_13024_42274)">
<mask id="mask1_13024_42274" style="mask-type:luminance" maskUnits="userSpaceOnUse" x="0" y="0" width="438" height="524">
<path d="M420.011 0H17.9893C8.05408 0 0 8.05408 0 17.9893V505.265C0 515.2 8.05408 523.254 17.9893 523.254H420.011C429.946 523.254 438 515.2 438 505.265V17.9893C438 8.05408 429.946 0 420.011 0Z" fill="white"/>
</mask>
<g mask="url(#mask1_13024_42274)">
<path d="M420.011 0H17.9893C8.05408 0 0 8.05408 0 17.9893V505.265C0 515.2 8.05408 523.254 17.9893 523.254H420.011C429.946 523.254 438 515.2 438 505.265V17.9893C438 8.05408 429.946 0 420.011 0Z" fill="white" fill-opacity="0.01"/>
<path fill-rule="evenodd" clip-rule="evenodd" d="M30.5693 213.525H419.229C422.684 213.525 425.486 216.326 425.486 219.782V416.532C425.334 418.113 424.586 419.586 423.379 420.642L411.582 430.975C410.441 431.974 408.976 432.525 407.459 432.525H18.7715C15.3158 432.525 12.5144 429.723 12.5144 426.268V230.114C12.5144 228.311 13.2924 226.595 14.6491 225.407L26.4469 215.075C27.5878 214.076 29.0528 213.525 30.5693 213.525Z" fill="white" fill-opacity="0.05"/>
<mask id="mask2_13024_42274" style="mask-type:luminance" maskUnits="userSpaceOnUse" x="12" y="213" width="414" height="220">
<path fill-rule="evenodd" clip-rule="evenodd" d="M30.5693 213.525H419.229C422.684 213.525 425.486 216.326 425.486 219.782V416.532C425.334 418.113 424.586 419.586 423.379 420.642L411.582 430.975C410.441 431.974 408.976 432.525 407.459 432.525H18.7715C15.3158 432.525 12.5144 429.723 12.5144 426.268V230.114C12.5144 228.311 13.2924 226.595 14.6491 225.407L26.4469 215.075C27.5878 214.076 29.0528 213.525 30.5693 213.525Z" fill="white" fill-opacity="0.1"/>
</mask>
<g mask="url(#mask2_13024_42274)">
<path d="M425.486 416.532L426.264 416.606L426.268 416.569V416.532H425.486ZM419.229 212.743H30.5693V214.307H419.229V212.743ZM426.268 219.782C426.268 215.894 423.116 212.743 419.229 212.743V214.307C422.252 214.307 424.704 216.758 424.704 219.782H426.268ZM426.268 416.532V219.782H424.704V416.532H426.268ZM423.895 421.231C425.252 420.042 426.094 418.385 426.264 416.606L424.707 416.457C424.575 417.841 423.92 419.13 422.864 420.054L423.895 421.231ZM412.097 431.563L423.895 421.231L422.864 420.054L411.066 430.387L412.097 431.563ZM407.459 433.307C409.165 433.307 410.813 432.687 412.097 431.563L411.066 430.387C410.068 431.261 408.786 431.743 407.459 431.743V433.307ZM18.7715 433.307H407.459V431.743H18.7715V433.307ZM11.7322 426.268C11.7322 430.155 14.8838 433.307 18.7715 433.307V431.743C15.7478 431.743 13.2965 429.292 13.2965 426.268H11.7322ZM11.7322 230.114V426.268H13.2965V230.114H11.7322ZM14.1338 224.819C12.6075 226.156 11.7322 228.086 11.7322 230.114H13.2965C13.2965 228.537 13.9773 227.035 15.1644 225.996L14.1338 224.819ZM25.9316 214.487L14.1338 224.819L15.1644 225.996L26.9622 215.663L25.9316 214.487ZM30.5693 212.743C28.8632 212.743 27.2151 213.362 25.9316 214.487L26.9622 215.663C27.9605 214.789 29.2423 214.307 30.5693 214.307V212.743Z" fill="white" fill-opacity="0.1"/>
</g>
<mask id="mask3_13024_42274" style="mask-type:luminance" maskUnits="userSpaceOnUse" x="25" y="213" width="389" height="45">
<path d="M413.754 213.525H25.8108V257.325H413.754V213.525Z" fill="white"/>
</mask>
<g mask="url(#mask3_13024_42274)">
<path d="M25.8108 257.329H413.811" stroke="white" stroke-opacity="0.1" stroke-width="0.782143"/>
<path d="M27.1372 240.025V230.889H29.1395L33.7823 238.924H34.1827L33.9324 239.149V230.889H35.1088V240.025H33.0815L28.4387 231.991H28.0382L28.2885 231.765V240.025H27.1372ZM40.4228 240.25C39.8388 240.25 39.334 240.15 38.9085 239.95C38.483 239.75 38.1368 239.487 37.8698 239.161C37.6029 238.828 37.4026 238.456 37.2692 238.048C37.144 237.639 37.0814 237.222 37.0814 236.796V236.571C37.0814 236.137 37.144 235.716 37.2692 235.307C37.4026 234.898 37.6029 234.531 37.8698 234.206C38.1368 233.872 38.4747 233.609 38.8835 233.417C39.3006 233.217 39.7887 233.117 40.3477 233.117C41.0735 233.117 41.67 233.276 42.1372 233.593C42.6128 233.901 42.9632 234.302 43.1884 234.794C43.422 235.286 43.5388 235.812 43.5388 236.371V236.909H37.607V236.008H42.6628L42.3875 236.496C42.3875 236.02 42.3124 235.612 42.1622 235.269C42.0121 234.919 41.7868 234.648 41.4865 234.456C41.1861 234.264 40.8065 234.168 40.3477 234.168C39.8721 234.168 39.4758 234.277 39.1588 234.494C38.8501 234.711 38.6165 235.007 38.458 235.382C38.3078 235.758 38.2328 236.191 38.2328 236.684C38.2328 237.159 38.3078 237.589 38.458 237.973C38.6165 238.348 38.8585 238.648 39.1838 238.874C39.5092 239.091 39.9222 239.199 40.4228 239.199C40.9484 239.199 41.3738 239.082 41.6992 238.849C42.0329 238.615 42.2332 238.344 42.2999 238.035H43.4262C43.3344 238.494 43.1509 238.89 42.8756 239.224C42.6002 239.558 42.254 239.812 41.8369 239.987C41.4197 240.163 40.9484 240.25 40.4228 240.25ZM47.8475 240.1C47.347 240.1 46.9131 240.029 46.5461 239.887C46.1873 239.745 45.9078 239.503 45.7076 239.161C45.5157 238.811 45.4198 238.34 45.4198 237.747V231.315H46.5711V237.897C46.5711 238.256 46.667 238.536 46.8589 238.736C47.0591 238.928 47.3386 239.024 47.6974 239.024H48.8737V240.1H47.8475ZM44.2685 234.243V233.342H48.8737V234.243H44.2685ZM52.5252 240.025L53.8767 233.568H55.5036L57.0804 240.025H56.0542L54.4774 233.593H54.8778L53.5138 240.025H52.5252ZM51.912 240.025V239.074H53.301V240.025H51.912ZM51.6366 240.025L49.747 233.342H50.8983L52.7379 240.025H51.6366ZM56.3045 240.025V239.074H57.6936V240.025H56.3045ZM56.8676 240.025L58.4694 233.342H59.5582L57.9188 240.025H56.8676ZM64.137 240.25C63.553 240.25 63.04 240.15 62.5978 239.95C62.1556 239.75 61.7802 239.487 61.4715 239.161C61.1712 238.828 60.9417 238.456 60.7832 238.048C60.633 237.639 60.558 237.222 60.558 236.796V236.571C60.558 236.145 60.6372 235.728 60.7957 235.32C60.9542 234.902 61.1878 234.531 61.4965 234.206C61.8052 233.872 62.1806 233.609 62.6228 233.417C63.065 233.217 63.5697 233.117 64.137 233.117C64.7044 233.117 65.2091 233.217 65.6513 233.417C66.0934 233.609 66.4689 233.872 66.7776 234.206C67.0862 234.531 67.3198 234.902 67.4784 235.32C67.6369 235.728 67.7161 236.145 67.7161 236.571V236.796C67.7161 237.222 67.6369 237.639 67.4784 238.048C67.3282 238.456 67.0988 238.828 66.7901 239.161C66.4897 239.487 66.1185 239.75 65.6763 239.95C65.2341 240.15 64.721 240.25 64.137 240.25ZM64.137 239.174C64.6376 239.174 65.0631 239.065 65.4135 238.849C65.7722 238.623 66.0434 238.323 66.2269 237.948C66.4188 237.572 66.5148 237.151 66.5148 236.684C66.5148 236.208 66.4188 235.783 66.2269 235.407C66.035 235.032 65.7597 234.736 65.401 234.519C65.0506 234.302 64.6293 234.193 64.137 234.193C63.6532 234.193 63.2318 234.302 62.8731 234.519C62.5144 234.736 62.239 235.032 62.0472 235.407C61.8553 235.783 61.7593 236.208 61.7593 236.684C61.7593 237.151 61.8511 237.572 62.0346 237.948C62.2265 238.323 62.4977 238.623 62.8481 238.849C63.2068 239.065 63.6365 239.174 64.137 239.174ZM69.5154 240.025V233.342H70.4665V236.095H70.4165C70.4165 235.119 70.6292 234.406 71.0547 233.955C71.4885 233.497 72.1351 233.267 72.9944 233.267H73.2197V234.343H72.7942C72.1268 234.343 71.6137 234.523 71.2549 234.882C70.8962 235.232 70.7168 235.741 70.7168 236.408V240.025H69.5154ZM79.2535 240.025L76.7381 236.909H75.6369L78.7029 233.342H79.9668L77.1887 236.558L77.2763 235.92L80.6426 240.025H79.2535ZM74.6483 240.025V230.889H75.8496V240.025H74.6483ZM83.9142 240.225C83.0382 240.225 82.3583 240.037 81.8744 239.662C81.3988 239.287 81.1527 238.773 81.136 238.123H82.2623C82.279 238.381 82.4083 238.627 82.6503 238.861C82.9005 239.086 83.3219 239.199 83.9142 239.199C84.4481 239.199 84.8569 239.095 85.1406 238.886C85.4243 238.669 85.5661 238.406 85.5661 238.098C85.5661 237.822 85.4618 237.61 85.2532 237.459C85.0447 237.301 84.7068 237.197 84.2396 237.147L83.5137 237.072C82.8797 237.005 82.3624 236.817 81.962 236.508C81.5615 236.191 81.3613 235.749 81.3613 235.182C81.3613 234.756 81.4697 234.393 81.6867 234.093C81.9036 233.784 82.2039 233.551 82.5877 233.392C82.9715 233.225 83.4136 233.142 83.9142 233.142C84.6651 233.142 85.2741 233.309 85.7413 233.643C86.2085 233.976 86.4504 234.473 86.4671 235.132H85.3408C85.3325 234.865 85.2073 234.64 84.9654 234.456C84.7318 234.264 84.3814 234.168 83.9142 234.168C83.447 234.168 83.0924 234.264 82.8505 234.456C82.6085 234.648 82.4876 234.89 82.4876 235.182C82.4876 235.432 82.571 235.632 82.7379 235.783C82.9131 235.933 83.1967 236.029 83.5888 236.07L84.3147 236.145C85.0321 236.221 85.6078 236.421 86.0416 236.746C86.4755 237.063 86.6924 237.514 86.6924 238.098C86.6924 238.515 86.5714 238.886 86.3295 239.211C86.0959 239.529 85.7705 239.779 85.3533 239.962C84.9362 240.138 84.4565 240.225 83.9142 240.225Z" fill="white" fill-opacity="0.75"/>
<path d="M255.759 240.025V230.889H257.536V240.025H255.759ZM257.285 236.221V234.719L260.94 234.706V236.208L257.285 236.221ZM257.285 232.391V230.889H261.115V232.391H257.285ZM262.538 240.025V233.23H263.915V236.108H263.877C263.877 235.132 264.086 234.393 264.503 233.893C264.92 233.392 265.533 233.142 266.342 233.142H266.593V234.656H266.117C265.533 234.656 265.078 234.815 264.753 235.132C264.436 235.441 264.278 235.891 264.278 236.483V240.025H262.538ZM270.974 240.263C270.373 240.263 269.843 240.167 269.384 239.975C268.926 239.783 268.538 239.524 268.221 239.199C267.904 238.865 267.662 238.49 267.495 238.073C267.336 237.656 267.257 237.222 267.257 236.771V236.508C267.257 236.041 267.34 235.599 267.507 235.182C267.683 234.756 267.929 234.381 268.246 234.056C268.571 233.722 268.963 233.463 269.422 233.28C269.881 233.088 270.398 232.992 270.974 232.992C271.549 232.992 272.067 233.088 272.526 233.28C272.984 233.463 273.372 233.722 273.689 234.056C274.015 234.381 274.261 234.756 274.428 235.182C274.595 235.599 274.678 236.041 274.678 236.508V236.771C274.678 237.222 274.595 237.656 274.428 238.073C274.269 238.49 274.031 238.865 273.714 239.199C273.397 239.524 273.009 239.783 272.551 239.975C272.092 240.167 271.566 240.263 270.974 240.263ZM270.974 238.773C271.399 238.773 271.758 238.682 272.05 238.498C272.342 238.306 272.563 238.052 272.713 237.735C272.863 237.409 272.939 237.042 272.939 236.634C272.939 236.216 272.859 235.849 272.701 235.532C272.551 235.207 272.325 234.952 272.025 234.769C271.733 234.577 271.383 234.481 270.974 234.481C270.565 234.481 270.21 234.577 269.91 234.769C269.618 234.952 269.393 235.207 269.234 235.532C269.076 235.849 268.997 236.216 268.997 236.634C268.997 237.042 269.072 237.409 269.222 237.735C269.38 238.052 269.606 238.306 269.898 238.498C270.19 238.682 270.548 238.773 270.974 238.773ZM276.201 240.025V233.23H277.578V236.145H277.453C277.453 235.461 277.54 234.89 277.715 234.431C277.891 233.964 278.149 233.613 278.491 233.38C278.842 233.138 279.275 233.017 279.793 233.017H279.868C280.393 233.017 280.827 233.138 281.169 233.38C281.52 233.613 281.778 233.964 281.945 234.431C282.12 234.89 282.208 235.461 282.208 236.145H281.77C281.77 235.461 281.858 234.89 282.033 234.431C282.216 233.964 282.479 233.613 282.821 233.38C283.172 233.138 283.605 233.017 284.123 233.017H284.198C284.723 233.017 285.161 233.138 285.512 233.38C285.862 233.613 286.125 233.964 286.3 234.431C286.484 234.89 286.575 235.461 286.575 236.145V240.025H284.836V235.983C284.836 235.557 284.728 235.219 284.511 234.969C284.294 234.711 283.985 234.581 283.585 234.581C283.184 234.581 282.863 234.715 282.621 234.982C282.379 235.24 282.258 235.591 282.258 236.033V240.025H280.519V235.983C280.519 235.557 280.41 235.219 280.193 234.969C279.976 234.711 279.668 234.581 279.267 234.581C278.867 234.581 278.545 234.715 278.304 234.982C278.062 235.24 277.941 235.591 277.941 236.033V240.025H276.201ZM294.389 240.263C293.58 240.263 292.896 240.133 292.337 239.875C291.786 239.616 291.365 239.262 291.073 238.811C290.781 238.352 290.635 237.835 290.635 237.259H292.374C292.374 237.501 292.441 237.739 292.574 237.973C292.708 238.198 292.921 238.381 293.213 238.523C293.513 238.665 293.905 238.736 294.389 238.736C294.823 238.736 295.186 238.673 295.478 238.548C295.77 238.423 295.987 238.26 296.128 238.06C296.27 237.852 296.341 237.618 296.341 237.359C296.341 237.034 296.203 236.775 295.928 236.583C295.653 236.383 295.227 236.258 294.652 236.208L293.851 236.145C292.975 236.07 292.274 235.799 291.748 235.332C291.231 234.857 290.972 234.231 290.972 233.455C290.972 232.871 291.11 232.37 291.385 231.953C291.661 231.528 292.045 231.202 292.537 230.977C293.037 230.743 293.621 230.627 294.289 230.627C294.981 230.627 295.578 230.748 296.078 230.99C296.579 231.232 296.967 231.574 297.242 232.016C297.517 232.45 297.655 232.963 297.655 233.555H295.916C295.916 233.305 295.853 233.075 295.728 232.867C295.611 232.65 295.432 232.479 295.19 232.354C294.956 232.22 294.656 232.153 294.289 232.153C293.938 232.153 293.646 232.212 293.413 232.329C293.179 232.445 293.004 232.604 292.887 232.804C292.77 233.004 292.712 233.221 292.712 233.455C292.712 233.739 292.816 233.989 293.025 234.206C293.233 234.414 293.563 234.535 294.013 234.569L294.814 234.644C295.465 234.694 296.037 234.831 296.529 235.057C297.021 235.282 297.401 235.587 297.668 235.97C297.943 236.354 298.081 236.817 298.081 237.359C298.081 237.935 297.93 238.444 297.63 238.886C297.33 239.32 296.9 239.658 296.341 239.9C295.79 240.142 295.14 240.263 294.389 240.263ZM303.998 240.263C303.172 240.263 302.454 240.117 301.845 239.825C301.245 239.533 300.744 239.153 300.344 238.686C299.951 238.21 299.655 237.701 299.455 237.159C299.263 236.609 299.167 236.079 299.167 235.57V235.295C299.167 234.736 299.267 234.181 299.468 233.63C299.668 233.071 299.968 232.566 300.369 232.116C300.777 231.665 301.282 231.307 301.883 231.04C302.483 230.764 303.188 230.627 303.998 230.627C304.799 230.627 305.499 230.764 306.1 231.04C306.701 231.307 307.201 231.665 307.602 232.116C308.011 232.566 308.315 233.071 308.515 233.63C308.716 234.181 308.816 234.736 308.816 235.295V235.57C308.816 236.079 308.716 236.609 308.515 237.159C308.323 237.701 308.027 238.21 307.627 238.686C307.235 239.153 306.734 239.533 306.125 239.825C305.524 240.117 304.815 240.263 303.998 240.263ZM303.998 238.611C304.465 238.611 304.882 238.527 305.249 238.361C305.625 238.194 305.942 237.964 306.2 237.672C306.467 237.372 306.667 237.034 306.801 236.659C306.943 236.275 307.014 235.87 307.014 235.445C307.014 234.986 306.943 234.565 306.801 234.181C306.667 233.797 306.467 233.463 306.2 233.18C305.942 232.896 305.625 232.675 305.249 232.516C304.874 232.358 304.457 232.279 303.998 232.279C303.531 232.279 303.109 232.358 302.734 232.516C302.358 232.675 302.037 232.896 301.77 233.18C301.512 233.463 301.311 233.797 301.169 234.181C301.036 234.565 300.969 234.986 300.969 235.445C300.969 235.87 301.036 236.275 301.169 236.659C301.311 237.034 301.512 237.372 301.77 237.672C302.037 237.964 302.358 238.194 302.734 238.361C303.109 238.527 303.531 238.611 303.998 238.611ZM310.533 240.025V230.827H312.31V240.025H310.533ZM316.114 240.025L313.311 236.045H315.301L318.192 240.025H316.114ZM311.785 236.971V235.532H314.112C314.438 235.532 314.717 235.466 314.951 235.332C315.193 235.199 315.38 235.011 315.514 234.769C315.647 234.527 315.714 234.252 315.714 233.943C315.714 233.626 315.647 233.346 315.514 233.105C315.38 232.863 315.193 232.675 314.951 232.541C314.717 232.408 314.438 232.341 314.112 232.341H311.785V230.827H313.924C314.659 230.827 315.293 230.935 315.827 231.152C316.369 231.369 316.786 231.699 317.078 232.141C317.37 232.583 317.516 233.138 317.516 233.805V234.006C317.516 234.681 317.366 235.236 317.066 235.67C316.774 236.104 316.361 236.429 315.827 236.646C315.293 236.863 314.659 236.971 313.924 236.971H311.785ZM318.639 240.025L321.755 230.889H324.658L327.862 240.025H326.035L323.319 232.103L323.958 232.379H322.393L323.044 232.103L320.416 240.025H318.639ZM320.816 237.597L321.38 236.095H325.084L325.634 237.597H320.816ZM334.736 240.113C334.11 240.113 333.593 240.033 333.184 239.875C332.783 239.708 332.483 239.433 332.283 239.049C332.083 238.657 331.982 238.131 331.982 237.472L331.995 231.315H333.622L333.609 237.585C333.609 237.918 333.697 238.177 333.872 238.361C334.056 238.536 334.314 238.623 334.648 238.623H335.712V240.113H334.736ZM330.906 234.506V233.23H335.712V234.506H330.906ZM340.401 240.263C339.8 240.263 339.271 240.167 338.812 239.975C338.353 239.783 337.965 239.524 337.648 239.199C337.331 238.865 337.089 238.49 336.922 238.073C336.764 237.656 336.684 237.222 336.684 236.771V236.508C336.684 236.041 336.768 235.599 336.935 235.182C337.11 234.756 337.356 234.381 337.673 234.056C337.998 233.722 338.391 233.463 338.849 233.28C339.308 233.088 339.826 232.992 340.401 232.992C340.977 232.992 341.494 233.088 341.953 233.28C342.412 233.463 342.8 233.722 343.117 234.056C343.442 234.381 343.688 234.756 343.855 235.182C344.022 235.599 344.105 236.041 344.105 236.508V236.771C344.105 237.222 344.022 237.656 343.855 238.073C343.697 238.49 343.459 238.865 343.142 239.199C342.825 239.524 342.437 239.783 341.978 239.975C341.519 240.167 340.994 240.263 340.401 240.263ZM340.401 238.773C340.827 238.773 341.185 238.682 341.477 238.498C341.769 238.306 341.99 238.052 342.141 237.735C342.291 237.409 342.366 237.042 342.366 236.634C342.366 236.216 342.287 235.849 342.128 235.532C341.978 235.207 341.753 234.952 341.452 234.769C341.16 234.577 340.81 234.481 340.401 234.481C339.992 234.481 339.638 234.577 339.337 234.769C339.045 234.952 338.82 235.207 338.662 235.532C338.503 235.849 338.424 236.216 338.424 236.634C338.424 237.042 338.499 237.409 338.649 237.735C338.808 238.052 339.033 238.306 339.325 238.498C339.617 238.682 339.976 238.773 340.401 238.773ZM348.467 240.025V230.889H350.895L353.185 236.346H353.41L355.688 230.889H358.153V240.025H356.389V232.229L356.614 232.254L354.149 238.16H352.334L349.856 232.254L350.094 232.229V240.025H348.467ZM363.535 240.263C362.935 240.263 362.405 240.167 361.946 239.975C361.487 239.783 361.099 239.524 360.782 239.199C360.465 238.865 360.223 238.49 360.057 238.073C359.898 237.656 359.819 237.222 359.819 236.771V236.508C359.819 236.041 359.902 235.599 360.069 235.182C360.244 234.756 360.49 234.381 360.807 234.056C361.133 233.722 361.525 233.463 361.984 233.28C362.443 233.088 362.96 232.992 363.535 232.992C364.111 232.992 364.628 233.088 365.087 233.28C365.546 233.463 365.934 233.722 366.251 234.056C366.576 234.381 366.823 234.756 366.989 235.182C367.156 235.599 367.24 236.041 367.24 236.508V236.771C367.24 237.222 367.156 237.656 366.989 238.073C366.831 238.49 366.593 238.865 366.276 239.199C365.959 239.524 365.571 239.783 365.112 239.975C364.653 240.167 364.128 240.263 363.535 240.263ZM363.535 238.773C363.961 238.773 364.32 238.682 364.612 238.498C364.904 238.306 365.125 238.052 365.275 237.735C365.425 237.409 365.5 237.042 365.5 236.634C365.5 236.216 365.421 235.849 365.262 235.532C365.112 235.207 364.887 234.952 364.587 234.769C364.295 234.577 363.944 234.481 363.535 234.481C363.127 234.481 362.772 234.577 362.472 234.769C362.18 234.952 361.955 235.207 361.796 235.532C361.637 235.849 361.558 236.216 361.558 236.634C361.558 237.042 361.633 237.409 361.783 237.735C361.942 238.052 362.167 238.306 362.459 238.498C362.751 238.682 363.11 238.773 363.535 238.773ZM372.029 240.263C371.428 240.263 370.899 240.167 370.44 239.975C369.981 239.783 369.593 239.524 369.276 239.199C368.959 238.865 368.717 238.49 368.55 238.073C368.392 237.656 368.312 237.222 368.312 236.771V236.508C368.312 236.041 368.396 235.599 368.563 235.182C368.738 234.756 368.984 234.381 369.301 234.056C369.626 233.722 370.018 233.463 370.477 233.28C370.936 233.088 371.453 232.992 372.029 232.992C372.605 232.992 373.122 233.088 373.581 233.28C374.04 233.463 374.428 233.722 374.745 234.056C375.07 234.381 375.316 234.756 375.483 235.182C375.65 235.599 375.733 236.041 375.733 236.508V236.771C375.733 237.222 375.65 237.656 375.483 238.073C375.325 238.49 375.087 238.865 374.77 239.199C374.453 239.524 374.065 239.783 373.606 239.975C373.147 240.167 372.621 240.263 372.029 240.263ZM372.029 238.773C372.455 238.773 372.813 238.682 373.105 238.498C373.397 238.306 373.618 238.052 373.769 237.735C373.919 237.409 373.994 237.042 373.994 236.634C373.994 236.216 373.915 235.849 373.756 235.532C373.606 235.207 373.381 234.952 373.08 234.769C372.788 234.577 372.438 234.481 372.029 234.481C371.62 234.481 371.266 234.577 370.965 234.769C370.673 234.952 370.448 235.207 370.29 235.532C370.131 235.849 370.052 236.216 370.052 236.634C370.052 237.042 370.127 237.409 370.277 237.735C370.436 238.052 370.661 238.306 370.953 238.498C371.245 238.682 371.604 238.773 372.029 238.773ZM377.256 240.025V233.23H378.633V236.145H378.508C378.508 235.453 378.6 234.877 378.783 234.419C378.967 233.951 379.238 233.601 379.597 233.367C379.964 233.134 380.418 233.017 380.961 233.017H381.036C381.845 233.017 382.458 233.28 382.875 233.805C383.292 234.323 383.501 235.098 383.501 236.133V240.025H381.762V235.983C381.762 235.566 381.641 235.228 381.399 234.969C381.165 234.711 380.84 234.581 380.423 234.581C379.997 234.581 379.651 234.715 379.384 234.982C379.125 235.24 378.996 235.591 378.996 236.033V240.025H377.256ZM385.371 240.025V233.23H386.748V236.108H386.71C386.71 235.132 386.919 234.393 387.336 233.893C387.753 233.392 388.366 233.142 389.176 233.142H389.426V234.656H388.95C388.366 234.656 387.912 234.815 387.586 235.132C387.269 235.441 387.111 235.891 387.111 236.483V240.025H385.371ZM390.915 240.025V233.23H392.654V240.025H390.915ZM389.964 234.531V233.23H392.654V234.531H389.964ZM391.553 232.416C391.211 232.416 390.957 232.329 390.79 232.153C390.631 231.97 390.552 231.745 390.552 231.478C390.552 231.194 390.631 230.965 390.79 230.789C390.957 230.614 391.211 230.527 391.553 230.527C391.895 230.527 392.145 230.614 392.304 230.789C392.463 230.965 392.542 231.194 392.542 231.478C392.542 231.745 392.463 231.97 392.304 232.153C392.145 232.329 391.895 232.416 391.553 232.416ZM396.023 240.025L393.896 233.23H395.685L397.725 240.025H396.023ZM396.536 240.025V238.598H398.376V240.025H396.536ZM397.225 240.025L398.977 233.23H400.653L398.814 240.025H397.225ZM404.862 240.263C404.278 240.263 403.764 240.163 403.322 239.962C402.888 239.762 402.526 239.495 402.234 239.161C401.95 238.819 401.733 238.44 401.583 238.023C401.441 237.605 401.37 237.18 401.37 236.746V236.508C401.37 236.058 401.441 235.624 401.583 235.207C401.733 234.781 401.95 234.406 402.234 234.081C402.526 233.747 402.884 233.484 403.31 233.292C403.735 233.092 404.228 232.992 404.787 232.992C405.521 232.992 406.134 233.155 406.626 233.48C407.127 233.797 407.502 234.218 407.752 234.744C408.003 235.261 408.128 235.82 408.128 236.421V237.047H402.108V235.983H407.039L406.501 236.508C406.501 236.075 406.438 235.703 406.313 235.395C406.188 235.086 405.996 234.848 405.738 234.681C405.487 234.514 405.17 234.431 404.787 234.431C404.403 234.431 404.077 234.519 403.81 234.694C403.543 234.869 403.339 235.123 403.197 235.457C403.064 235.783 402.997 236.175 402.997 236.634C402.997 237.059 403.064 237.439 403.197 237.772C403.331 238.098 403.535 238.356 403.81 238.548C404.086 238.732 404.436 238.824 404.862 238.824C405.287 238.824 405.633 238.74 405.9 238.573C406.167 238.398 406.338 238.185 406.413 237.935H408.015C407.915 238.402 407.723 238.811 407.44 239.161C407.156 239.512 406.793 239.783 406.351 239.975C405.917 240.167 405.421 240.263 404.862 240.263ZM409.581 240.025V233.23H410.958V236.108H410.92C410.92 235.132 411.129 234.393 411.546 233.893C411.963 233.392 412.576 233.142 413.385 233.142H413.636V234.656H413.16C412.576 234.656 412.121 234.815 411.796 235.132C411.479 235.441 411.32 235.891 411.32 236.483V240.025H409.581Z" fill="white" fill-opacity="0.75"/>
</g>
<mask id="mask4_13024_42274" style="mask-type:luminance" maskUnits="userSpaceOnUse" x="25" y="257" width="389" height="45">
<path d="M413.754 257.325H25.8108V301.125H413.754V257.325Z" fill="white"/>
</mask>
<g mask="url(#mask4_13024_42274)">
<path d="M26.1611 283.825L29.4523 274.69H31.5297L34.9211 283.825H33.6571L30.5911 275.49L31.1918 275.791H29.7151L30.3534 275.49L27.3875 283.825H26.1611ZM28.1258 281.097L28.5388 279.996H32.4808L32.8938 281.097H28.1258ZM36.421 283.825V277.142H37.3721V280.008H37.2219C37.2219 279.357 37.3054 278.807 37.4722 278.356C37.6474 277.897 37.9061 277.547 38.2481 277.305C38.5902 277.063 39.024 276.942 39.5496 276.942H39.5997C40.1253 276.942 40.5591 277.063 40.9011 277.305C41.2515 277.547 41.5102 277.897 41.677 278.356C41.8439 278.807 41.9273 279.357 41.9273 280.008H41.5769C41.5769 279.357 41.6645 278.807 41.8397 278.356C42.0149 277.897 42.2735 277.547 42.6156 277.305C42.966 277.063 43.404 276.942 43.9296 276.942H43.9797C44.5053 276.942 44.9433 277.063 45.2937 277.305C45.6441 277.547 45.9027 277.897 46.0695 278.356C46.2447 278.807 46.3323 279.357 46.3323 280.008V283.825H45.131V279.745C45.131 279.203 44.9975 278.786 44.7305 278.494C44.4635 278.194 44.0923 278.043 43.6167 278.043C43.1245 278.043 42.7282 278.202 42.4279 278.519C42.1275 278.828 41.9774 279.261 41.9774 279.82V283.825H40.776V279.745C40.776 279.203 40.6425 278.786 40.3755 278.494C40.1086 278.194 39.7373 278.043 39.2618 278.043C38.7695 278.043 38.3733 278.202 38.0729 278.519C37.7726 278.828 37.6224 279.261 37.6224 279.82V283.825H36.421ZM51.6105 284.05C51.0265 284.05 50.5134 283.95 50.0713 283.75C49.6291 283.55 49.2537 283.287 48.945 282.961C48.6446 282.628 48.4152 282.256 48.2567 281.848C48.1065 281.439 48.0314 281.022 48.0314 280.596V280.371C48.0314 279.946 48.1107 279.528 48.2692 279.12C48.4277 278.702 48.6613 278.331 48.97 278.006C49.2787 277.672 49.6541 277.409 50.0963 277.217C50.5385 277.017 51.0432 276.917 51.6105 276.917C52.1778 276.917 52.6826 277.017 53.1248 277.217C53.5669 277.409 53.9424 277.672 54.251 278.006C54.5597 278.331 54.7933 278.702 54.9518 279.12C55.1104 279.528 55.1896 279.946 55.1896 280.371V280.596C55.1896 281.022 55.1104 281.439 54.9518 281.848C54.8017 282.256 54.5722 282.628 54.2636 282.961C53.9632 283.287 53.592 283.55 53.1498 283.75C52.7076 283.95 52.1945 284.05 51.6105 284.05ZM51.6105 282.974C52.1111 282.974 52.5366 282.866 52.887 282.649C53.2457 282.423 53.5169 282.123 53.7004 281.748C53.8923 281.372 53.9882 280.951 53.9882 280.484C53.9882 280.008 53.8923 279.583 53.7004 279.207C53.5085 278.832 53.2332 278.536 52.8745 278.319C52.5241 278.102 52.1028 277.993 51.6105 277.993C51.1266 277.993 50.7053 278.102 50.3466 278.319C49.9878 278.536 49.7125 278.832 49.5206 279.207C49.3288 279.583 49.2328 280.008 49.2328 280.484C49.2328 280.951 49.3246 281.372 49.5081 281.748C49.7 282.123 49.9712 282.423 50.3216 282.649C50.6803 282.866 51.11 282.974 51.6105 282.974ZM59.3041 284.025C58.5115 284.025 57.9025 283.767 57.477 283.249C57.0515 282.732 56.8388 281.985 56.8388 281.009V277.13H58.0401V281.247C58.0401 281.773 58.182 282.186 58.4656 282.486C58.7493 282.778 59.1331 282.924 59.6169 282.924C60.1175 282.924 60.5263 282.765 60.8433 282.448C61.1604 282.123 61.3189 281.681 61.3189 281.122V277.13H62.5203V283.825H61.5692V280.959H61.7193C61.7193 281.618 61.6317 282.177 61.4565 282.636C61.2813 283.087 61.0185 283.433 60.6681 283.675C60.3261 283.908 59.8881 284.025 59.3541 284.025H59.3041ZM64.847 283.825V277.142H65.7981V280.008H65.6479C65.6479 279.349 65.7355 278.794 65.9107 278.344C66.0943 277.885 66.3696 277.539 66.7367 277.305C67.1038 277.063 67.5668 276.942 68.1258 276.942H68.1758C69.0185 276.942 69.64 277.205 70.0405 277.73C70.4493 278.256 70.6537 279.015 70.6537 280.008V283.825H69.4523V279.758C69.4523 279.241 69.3063 278.828 69.0143 278.519C68.7223 278.202 68.3218 278.043 67.8129 278.043C67.2873 278.043 66.8618 278.206 66.5365 278.531C66.2111 278.857 66.0484 279.291 66.0484 279.833V283.825H64.847ZM75.4547 283.9C74.9542 283.9 74.5203 283.829 74.1533 283.687C73.7945 283.545 73.515 283.304 73.3148 282.961C73.1229 282.611 73.027 282.14 73.027 281.547V275.115H74.1783V281.698C74.1783 282.056 74.2742 282.336 74.4661 282.536C74.6663 282.728 74.9458 282.824 75.3046 282.824H76.4809V283.9H75.4547ZM71.8757 278.043V277.142H76.4809V278.043H71.8757Z" fill="white" fill-opacity="0.75"/>
<path d="M377.918 276.543V268.509L378.468 268.934H375.765V267.407H379.682V276.543H377.918ZM375.59 276.543V275.016H381.722V276.543H375.59ZM385.559 276.543L388.775 271.675L388.788 271.887L385.834 267.407H387.812L389.789 270.473H390.052L392.016 267.407H393.919L390.928 271.925L390.903 271.712L394.194 276.543H392.229L389.926 273.114H389.664L387.461 276.543H385.559ZM399.395 276.78C398.569 276.78 397.851 276.634 397.242 276.342C396.642 276.05 396.141 275.671 395.741 275.204C395.348 274.728 395.052 274.219 394.852 273.677C394.66 273.126 394.564 272.597 394.564 272.088V271.812C394.564 271.253 394.664 270.699 394.865 270.148C395.065 269.589 395.365 269.084 395.766 268.634C396.174 268.183 396.679 267.824 397.28 267.557C397.88 267.282 398.585 267.144 399.395 267.144C400.196 267.144 400.896 267.282 401.497 267.557C402.098 267.824 402.598 268.183 402.999 268.634C403.408 269.084 403.712 269.589 403.912 270.148C404.113 270.699 404.213 271.253 404.213 271.812V272.088C404.213 272.597 404.113 273.126 403.912 273.677C403.72 274.219 403.424 274.728 403.024 275.204C402.632 275.671 402.131 276.05 401.522 276.342C400.921 276.634 400.212 276.78 399.395 276.78ZM399.395 275.129C399.862 275.129 400.279 275.045 400.646 274.878C401.022 274.711 401.339 274.482 401.597 274.19C401.864 273.89 402.064 273.552 402.198 273.176C402.34 272.793 402.411 272.388 402.411 271.962C402.411 271.504 402.34 271.082 402.198 270.699C402.064 270.315 401.864 269.981 401.597 269.697C401.339 269.414 401.022 269.193 400.646 269.034C400.271 268.876 399.854 268.796 399.395 268.796C398.927 268.796 398.506 268.876 398.131 269.034C397.755 269.193 397.434 269.414 397.167 269.697C396.909 269.981 396.708 270.315 396.566 270.699C396.433 271.082 396.366 271.504 396.366 271.962C396.366 272.388 396.433 272.793 396.566 273.176C396.708 273.552 396.909 273.89 397.167 274.19C397.434 274.482 397.755 274.711 398.131 274.878C398.506 275.045 398.927 275.129 399.395 275.129ZM405.93 276.543V267.345H407.707V276.543H405.93ZM411.511 276.543L408.708 272.563H410.698L413.589 276.543H411.511ZM407.182 273.489V272.05H409.509C409.835 272.05 410.114 271.983 410.348 271.85C410.59 271.716 410.777 271.529 410.911 271.287C411.044 271.045 411.111 270.769 411.111 270.461C411.111 270.144 411.044 269.864 410.911 269.622C410.777 269.38 410.59 269.193 410.348 269.059C410.114 268.926 409.835 268.859 409.509 268.859H407.182V267.345H409.321C410.056 267.345 410.69 267.453 411.224 267.67C411.766 267.887 412.183 268.217 412.475 268.659C412.767 269.101 412.913 269.656 412.913 270.323V270.523C412.913 271.199 412.763 271.754 412.463 272.188C412.171 272.622 411.758 272.947 411.224 273.164C410.69 273.381 410.056 273.489 409.321 273.489H407.182Z" fill="white" fill-opacity="0.75"/>
<path d="M389.25 292.098C388.724 292.098 388.277 292.01 387.908 291.835C387.538 291.654 387.257 291.4 387.063 291.075C386.869 290.749 386.772 290.365 386.772 289.92H387.617C387.617 290.133 387.667 290.349 387.767 290.568C387.867 290.781 388.036 290.962 388.274 291.112C388.511 291.256 388.837 291.328 389.25 291.328C389.794 291.328 390.198 291.212 390.46 290.981C390.723 290.743 390.855 290.471 390.855 290.164C390.855 289.87 390.736 289.623 390.498 289.423C390.267 289.216 389.929 289.091 389.484 289.047L388.865 288.991C388.277 288.941 387.811 288.763 387.466 288.456C387.122 288.143 386.95 287.702 386.95 287.133C386.95 286.739 387.044 286.404 387.232 286.128C387.42 285.847 387.682 285.634 388.02 285.49C388.358 285.34 388.755 285.265 389.212 285.265C389.669 285.265 390.063 285.349 390.395 285.518C390.733 285.681 390.992 285.919 391.174 286.232C391.355 286.545 391.446 286.923 391.446 287.367H390.601C390.601 287.148 390.554 286.939 390.46 286.739C390.367 286.532 390.216 286.363 390.01 286.232C389.81 286.1 389.544 286.035 389.212 286.035C388.918 286.035 388.665 286.085 388.452 286.185C388.245 286.279 388.086 286.41 387.973 286.579C387.867 286.742 387.814 286.926 387.814 287.133C387.814 287.402 387.904 287.636 388.086 287.837C388.274 288.037 388.558 288.153 388.94 288.184L389.559 288.24C390.21 288.303 390.733 288.5 391.127 288.832C391.521 289.157 391.718 289.601 391.718 290.164C391.718 290.552 391.618 290.893 391.418 291.187C391.218 291.475 390.933 291.7 390.564 291.863C390.195 292.02 389.757 292.098 389.25 292.098ZM388.846 293.318V291.948H389.653V293.318H388.846ZM388.809 285.716V284.345H389.616V285.716H388.809ZM395.442 292.276C394.929 292.276 394.491 292.176 394.128 291.976C393.765 291.776 393.49 291.51 393.302 291.178C393.115 290.846 393.021 290.487 393.021 290.099H393.903C393.903 290.524 394.041 290.862 394.316 291.112C394.598 291.363 394.973 291.488 395.442 291.488C395.755 291.488 396.024 291.431 396.249 291.319C396.481 291.206 396.659 291.047 396.784 290.84C396.916 290.627 396.981 290.38 396.981 290.099C396.981 289.673 396.841 289.329 396.559 289.066C396.278 288.803 395.908 288.672 395.452 288.672C395.283 288.672 395.123 288.694 394.973 288.738C394.829 288.775 394.701 288.832 394.588 288.907L394.1 288.156L396.747 286.194L396.653 286.025H393.293V285.256H397.507V286.504L395.292 288.128L394.616 288.137C394.704 288.093 394.829 288.056 394.992 288.024C395.154 287.993 395.301 287.977 395.433 287.977C395.946 287.977 396.384 288.071 396.747 288.259C397.11 288.447 397.385 288.697 397.573 289.01C397.767 289.323 397.864 289.664 397.864 290.033V290.164C397.864 290.527 397.77 290.871 397.582 291.197C397.394 291.516 397.119 291.776 396.756 291.976C396.4 292.176 395.962 292.276 395.442 292.276ZM399.354 292.107V290.962H400.443V292.107H399.354ZM402.083 292.107V290.981C402.083 290.706 402.123 290.471 402.205 290.277C402.292 290.083 402.433 289.908 402.627 289.751C402.827 289.595 403.096 289.439 403.434 289.282L404.701 288.691C405.039 288.528 405.299 288.334 405.48 288.109C405.662 287.877 405.752 287.583 405.752 287.227C405.752 286.801 405.624 286.466 405.368 286.222C405.117 285.978 404.767 285.856 404.316 285.856C403.872 285.856 403.522 285.978 403.265 286.222C403.015 286.466 402.89 286.807 402.89 287.245H402.008C402.008 286.851 402.089 286.488 402.252 286.157C402.421 285.825 402.674 285.562 403.012 285.368C403.356 285.168 403.791 285.068 404.316 285.068C404.842 285.068 405.274 285.168 405.612 285.368C405.956 285.562 406.212 285.819 406.381 286.138C406.55 286.457 406.635 286.798 406.635 287.161V287.292C406.635 287.787 406.494 288.203 406.212 288.541C405.931 288.872 405.533 289.157 405.02 289.395L403.753 289.986C403.453 290.124 403.25 290.258 403.143 290.39C403.037 290.515 402.984 290.687 402.984 290.906V291.769L402.74 291.338H406.719V292.107H402.083ZM409.326 292.107L412.227 286.11L412.18 286.025H408.313V285.256H413.043V286.335L410.265 292.107H409.326ZM408.313 287.17V285.256H409.064V287.17H408.313Z" fill="white" fill-opacity="0.5"/>
</g>
<path d="M340.818 128.467H97.1814V128.858H340.818V128.467Z" stroke="white" stroke-opacity="0.5" stroke-width="0.391071" stroke-linecap="square" stroke-dasharray="5.48 5.48"/>
<g filter="url(#filter1_d_13024_42274)">
<path d="M367.323 108.718C363.375 108.718 359.589 110.258 356.797 113.001C354.006 115.743 352.438 119.462 352.438 123.34C352.438 124.264 352.526 125.186 352.701 126.094L354.624 124.802C358.004 122.525 363.487 122.525 366.869 124.802L368.887 126.16L369.98 126.897C373.027 128.949 377.964 128.949 381.011 126.897L381.909 126.295C382.351 124.17 382.307 121.975 381.78 119.869C381.253 117.763 380.256 115.798 378.862 114.116C377.467 112.435 375.71 111.079 373.716 110.147C371.723 109.214 369.544 108.729 367.336 108.725L367.323 108.718Z" fill="white"/>
<path d="M375.688 132.125C373.445 132.125 371.301 131.528 369.686 130.44L366.578 128.347C365.089 127.342 363.09 126.788 360.954 126.788C358.817 126.788 356.819 127.339 355.331 128.347L353.32 129.699C353.129 129.823 352.896 129.869 352.67 129.826C352.445 129.783 352.247 129.654 352.117 129.468C351.987 129.283 351.937 129.054 351.978 128.832C352.018 128.61 352.146 128.413 352.333 128.283L354.344 126.931C356.121 125.738 358.467 125.075 360.954 125.075C363.44 125.075 365.786 125.733 367.564 126.931L370.672 129.024C372.182 129.932 373.918 130.412 375.688 130.412C377.458 130.412 379.193 129.932 380.703 129.024L381.884 128.229C382.075 128.1 382.31 128.051 382.537 128.093C382.765 128.135 382.966 128.264 383.097 128.451C383.228 128.639 383.278 128.87 383.235 129.093C383.193 129.317 383.061 129.515 382.87 129.643L381.689 130.439C380.067 131.53 377.931 132.125 375.688 132.125Z" fill="white"/>
<path d="M360.889 138.266V130.005C360.883 129.831 360.89 129.657 360.912 129.484C360.939 129.257 361.049 129.047 361.223 128.895C361.396 128.742 361.621 128.658 361.854 128.658C362.08 128.664 362.296 128.751 362.46 128.903C362.624 129.056 362.726 129.263 362.744 129.484C362.78 129.771 362.79 130.06 362.776 130.349V146.823C362.725 147.434 362.335 147.836 361.811 147.825C361.287 147.814 360.908 147.395 360.905 146.776V141.284L360.889 138.266Z" fill="white"/>
<path d="M359.121 134.108V138.213C359.121 138.915 358.74 139.38 358.198 139.364C357.657 139.348 357.248 138.874 357.245 138.204V129.996C357.245 129.277 357.671 128.793 358.226 128.82C358.782 128.847 359.112 129.283 359.115 130.002C359.123 131.37 359.121 132.739 359.121 134.108Z" fill="white"/>
<path d="M364.551 134.102V131.219C364.551 130.55 364.912 130.117 365.45 130.117C365.989 130.117 366.404 130.564 366.409 131.194C366.43 133.159 366.43 135.122 366.409 137.085C366.409 137.754 366.004 138.156 365.456 138.15C364.909 138.144 364.551 137.735 364.546 137.049V134.1L364.551 134.102Z" fill="white"/>
<path d="M353.6 134.702V131.819C353.6 131.15 353.963 130.718 354.501 130.718C355.04 130.718 355.453 131.164 355.46 131.794C355.478 133.759 355.478 135.722 355.46 137.685C355.46 138.354 355.055 138.757 354.506 138.751C353.958 138.745 353.595 138.335 353.595 137.649V134.699L353.6 134.702Z" fill="white"/>
<path d="M369.117 132.246H369.114C368.605 132.246 368.192 132.652 368.192 133.152V134.723C368.192 135.223 368.605 135.628 369.114 135.628H369.117C369.626 135.628 370.039 135.223 370.039 134.723V133.152C370.039 132.652 369.626 132.246 369.117 132.246Z" fill="white"/>
<path d="M372.772 133.621H372.769C372.26 133.621 371.847 134.026 371.847 134.527V143.331C371.847 143.831 372.26 144.237 372.769 144.237H372.772C373.282 144.237 373.694 143.831 373.694 143.331V134.527C373.694 134.026 373.282 133.621 372.772 133.621Z" fill="white"/>
<path d="M376.403 133.962H376.399C375.89 133.962 375.478 134.367 375.478 134.867V142.351C375.478 142.851 375.89 143.256 376.399 143.256H376.403C376.912 143.256 377.324 142.851 377.324 142.351V134.867C377.324 134.367 376.912 133.962 376.403 133.962Z" fill="white"/>
<path d="M380.083 133.108H380.08C379.571 133.108 379.158 133.513 379.158 134.014V137.242C379.158 137.742 379.571 138.147 380.08 138.147H380.083C380.592 138.147 381.005 137.742 381.005 137.242V134.014C381.005 133.513 380.592 133.108 380.083 133.108Z" fill="white"/>
</g>
<g filter="url(#filter2_d_13024_42274)">
<path d="M80.8126 142.455C85.1661 139.251 87.9911 134.091 87.9911 128.271C87.9911 118.552 80.1122 110.673 70.3928 110.673C60.6736 110.673 52.7947 118.552 52.7947 128.271C52.7947 134.091 55.6198 139.251 59.9734 142.455L68.966 128.235H59.7646V125.204H68.966V122.084H59.7646V119.053H81.0213V122.084H71.8217V125.204H81.0213V128.235H71.8217L80.8126 142.455Z" fill="white"/>
<path d="M78.3385 143.978L70.3929 131.408L62.4473 143.978C64.8341 145.188 67.5339 145.87 70.3929 145.87C73.2519 145.87 75.9517 145.188 78.3385 143.978Z" fill="white"/>
</g>
<g filter="url(#filter3_d_13024_42274)">
<mask id="mask5_13024_42274" style="mask-type:luminance" maskUnits="userSpaceOnUse" x="179" y="88" width="80" height="81">
<path d="M258.89 128.271C258.89 106.241 241.031 88.3821 219 88.3821C196.97 88.3821 179.111 106.241 179.111 128.271C179.111 150.302 196.97 168.161 219 168.161C241.031 168.161 258.89 150.302 258.89 128.271Z" fill="white"/>
</mask>
<g mask="url(#mask5_13024_42274)">
<path d="M219 168.16C241.03 168.16 258.889 150.301 258.889 128.271C258.889 106.241 241.03 88.3816 219 88.3816C196.97 88.3816 179.111 106.241 179.111 128.271C179.111 150.301 196.97 168.16 219 168.16Z" fill="#2E263D"/>
<path d="M253.366 128.272C253.366 146.989 238.194 162.024 219.307 162.024C200.419 162.024 185.247 146.989 185.247 128.272C185.247 109.554 200.419 94.5188 219.307 94.5188C238.194 94.5188 253.366 109.554 253.366 128.272Z" fill="#EE2233"/>
<path d="M203.206 158.035C208.47 150.057 214.043 142.079 219.616 134.101L235.717 158.035C236.646 157.728 237.265 157.115 238.194 156.501C239.123 155.887 239.742 155.58 240.361 154.967C234.479 146.068 228.286 137.17 222.403 128.271H240.361V122.748H222.403V116.918H240.361V111.395H198.561V116.918H216.52V122.748H198.561V128.271H216.52L198.561 154.967C199.181 155.58 199.8 155.887 200.729 156.501C201.658 157.115 202.277 157.728 203.206 158.035Z" fill="white"/>
</g>
</g>
<path d="M178.758 29.4049C177.829 29.4049 177.031 29.2454 176.365 28.9263C175.698 28.5978 175.154 28.1707 174.731 27.6451C174.309 27.1101 173.995 26.5376 173.788 25.9275C173.591 25.3081 173.493 24.7074 173.493 24.1255V23.8158C173.493 23.1775 173.596 22.5487 173.802 21.9292C174.009 21.3004 174.323 20.7325 174.746 20.2257C175.177 19.7189 175.717 19.3153 176.365 19.015C177.022 18.7052 177.796 18.5504 178.688 18.5504C179.617 18.5504 180.438 18.724 181.151 19.0713C181.865 19.4185 182.432 19.9019 182.855 20.5214C183.287 21.1314 183.54 21.8494 183.615 22.6754H181.292C181.226 22.2624 181.076 21.9105 180.842 21.6195C180.607 21.3285 180.302 21.1033 179.926 20.9437C179.56 20.7842 179.147 20.7044 178.688 20.7044C178.228 20.7044 177.819 20.7842 177.463 20.9437C177.106 21.1033 176.806 21.3285 176.562 21.6195C176.327 21.9105 176.144 22.2577 176.013 22.6613C175.891 23.0555 175.83 23.4966 175.83 23.9847C175.83 24.4634 175.891 24.9045 176.013 25.3081C176.144 25.7023 176.332 26.0496 176.576 26.3499C176.829 26.6409 177.139 26.8661 177.505 27.0257C177.871 27.1758 178.289 27.2509 178.758 27.2509C179.471 27.2509 180.072 27.0773 180.56 26.73C181.057 26.3827 181.358 25.9041 181.461 25.294H183.77C183.685 26.0449 183.432 26.7347 183.01 27.3636C182.597 27.983 182.029 28.4805 181.306 28.8559C180.593 29.2219 179.743 29.4049 178.758 29.4049ZM185.175 29.1375V21.4224H186.963V24.7309H186.921C186.921 23.6421 187.151 22.8021 187.611 22.2108C188.08 21.6195 188.756 21.3238 189.638 21.3238H189.934V23.2667H189.37C188.751 23.2667 188.272 23.4356 187.934 23.7735C187.597 24.102 187.428 24.5807 187.428 25.2095V29.1375H185.175ZM194.818 29.4049C194.143 29.4049 193.542 29.3017 193.016 29.0952C192.491 28.8793 192.045 28.5884 191.679 28.2223C191.322 27.8563 191.05 27.4386 190.862 26.9694C190.675 26.4907 190.581 25.9885 190.581 25.4629V25.1391C190.581 24.6042 190.675 24.0973 190.862 23.6187C191.059 23.1306 191.341 22.7035 191.707 22.3375C192.082 21.9715 192.533 21.6852 193.059 21.4787C193.584 21.2628 194.171 21.1549 194.818 21.1549C195.485 21.1549 196.076 21.2628 196.592 21.4787C197.118 21.6852 197.564 21.9715 197.93 22.3375C198.296 22.7035 198.577 23.1306 198.774 23.6187C198.972 24.0973 199.07 24.6042 199.07 25.1391V25.4629C199.07 25.9885 198.976 26.4907 198.789 26.9694C198.601 27.4386 198.324 27.8563 197.958 28.2223C197.601 28.5884 197.16 28.8793 196.635 29.0952C196.109 29.3017 195.504 29.4049 194.818 29.4049ZM194.818 27.5043C195.26 27.5043 195.626 27.4105 195.917 27.2228C196.207 27.0351 196.428 26.7723 196.578 26.4344C196.738 26.0965 196.818 25.7211 196.818 25.3081C196.818 24.867 196.738 24.4821 196.578 24.1536C196.419 23.8158 196.189 23.5483 195.888 23.3512C195.597 23.1541 195.241 23.0555 194.818 23.0555C194.405 23.0555 194.049 23.1541 193.748 23.3512C193.448 23.5483 193.218 23.8158 193.059 24.1536C192.908 24.4821 192.833 24.867 192.833 25.3081C192.833 25.7211 192.908 26.0965 193.059 26.4344C193.209 26.7723 193.434 27.0351 193.734 27.2228C194.035 27.4105 194.396 27.5043 194.818 27.5043ZM203.571 29.3768C202.472 29.3768 201.614 29.1515 200.994 28.701C200.375 28.2505 200.046 27.617 200.009 26.8004H202.008C202.045 27.0444 202.191 27.265 202.444 27.4621C202.707 27.6498 203.097 27.7437 203.613 27.7437C204.007 27.7437 204.331 27.678 204.584 27.5466C204.847 27.4058 204.978 27.2087 204.978 26.9553C204.978 26.73 204.88 26.5517 204.683 26.4203C204.486 26.2795 204.134 26.181 203.627 26.1246L203.021 26.0683C202.092 25.9745 201.393 25.7164 200.924 25.294C200.464 24.8716 200.234 24.332 200.234 23.675C200.234 23.1306 200.37 22.6754 200.642 22.3093C200.914 21.9433 201.29 21.6664 201.768 21.4787C202.257 21.291 202.81 21.1971 203.43 21.1971C204.425 21.1971 205.227 21.4177 205.837 21.8588C206.447 22.2906 206.766 22.9194 206.795 23.7454H204.795C204.758 23.4919 204.626 23.2808 204.401 23.1118C204.176 22.9335 203.843 22.8443 203.402 22.8443C203.054 22.8443 202.777 22.91 202.571 23.0414C202.364 23.1728 202.261 23.3512 202.261 23.5764C202.261 23.7923 202.35 23.9565 202.529 24.0692C202.707 24.1818 202.998 24.2616 203.402 24.3085L204.007 24.3648C204.955 24.4681 205.692 24.7309 206.217 25.1532C206.743 25.5756 207.006 26.1434 207.006 26.8567C207.006 27.3729 206.865 27.8235 206.583 28.2083C206.302 28.5837 205.903 28.8747 205.387 29.0811C204.87 29.2782 204.265 29.3768 203.571 29.3768ZM211.394 29.3768C210.295 29.3768 209.437 29.1515 208.817 28.701C208.198 28.2505 207.869 27.617 207.832 26.8004H209.831C209.868 27.0444 210.014 27.265 210.267 27.4621C210.53 27.6498 210.92 27.7437 211.436 27.7437C211.83 27.7437 212.154 27.678 212.407 27.5466C212.67 27.4058 212.801 27.2087 212.801 26.9553C212.801 26.73 212.703 26.5517 212.506 26.4203C212.309 26.2795 211.957 26.181 211.45 26.1246L210.844 26.0683C209.915 25.9745 209.216 25.7164 208.747 25.294C208.287 24.8716 208.057 24.332 208.057 23.675C208.057 23.1306 208.193 22.6754 208.465 22.3093C208.737 21.9433 209.113 21.6664 209.591 21.4787C210.08 21.291 210.633 21.1971 211.253 21.1971C212.248 21.1971 213.05 21.4177 213.66 21.8588C214.27 22.2906 214.589 22.9194 214.617 23.7454H212.618C212.581 23.4919 212.449 23.2808 212.224 23.1118C211.999 22.9335 211.666 22.8443 211.225 22.8443C210.877 22.8443 210.6 22.91 210.394 23.0414C210.187 23.1728 210.084 23.3512 210.084 23.5764C210.084 23.7923 210.173 23.9565 210.352 24.0692C210.53 24.1818 210.821 24.2616 211.225 24.3085L211.83 24.3648C212.778 24.4681 213.515 24.7309 214.04 25.1532C214.566 25.5756 214.829 26.1434 214.829 26.8567C214.829 27.3729 214.688 27.8235 214.406 28.2083C214.125 28.5837 213.726 28.8747 213.21 29.0811C212.693 29.2782 212.088 29.3768 211.394 29.3768ZM215.88 24.9139V22.9006H221.807V24.9139H215.88ZM228.294 29.4049C227.365 29.4049 226.567 29.2454 225.901 28.9263C225.234 28.5978 224.69 28.1707 224.268 27.6451C223.845 27.1101 223.531 26.5376 223.324 25.9275C223.127 25.3081 223.029 24.7074 223.029 24.1255V23.8158C223.029 23.1775 223.132 22.5487 223.339 21.9292C223.545 21.3004 223.859 20.7325 224.282 20.2257C224.714 19.7189 225.253 19.3153 225.901 19.015C226.558 18.7052 227.332 18.5504 228.224 18.5504C229.153 18.5504 229.974 18.724 230.688 19.0713C231.401 19.4185 231.969 19.9019 232.391 20.5214C232.823 21.1314 233.076 21.8494 233.151 22.6754H230.828C230.763 22.2624 230.612 21.9105 230.378 21.6195C230.143 21.3285 229.838 21.1033 229.463 20.9437C229.097 20.7842 228.684 20.7044 228.224 20.7044C227.764 20.7044 227.356 20.7842 226.999 20.9437C226.642 21.1033 226.342 21.3285 226.098 21.6195C225.863 21.9105 225.68 22.2577 225.549 22.6613C225.427 23.0555 225.366 23.4966 225.366 23.9847C225.366 24.4634 225.427 24.9045 225.549 25.3081C225.68 25.7023 225.868 26.0496 226.112 26.3499C226.365 26.6409 226.675 26.8661 227.041 27.0257C227.407 27.1758 227.825 27.2509 228.294 27.2509C229.007 27.2509 229.608 27.0773 230.096 26.73C230.594 26.3827 230.894 25.9041 230.997 25.294H233.306C233.222 26.0449 232.968 26.7347 232.546 27.3636C232.133 27.983 231.565 28.4805 230.842 28.8559C230.129 29.2219 229.28 29.4049 228.294 29.4049ZM234.711 29.1375V18.8601H236.964V24.7872H236.626C236.626 24.0082 236.724 23.3512 236.922 22.8162C237.119 22.2812 237.41 21.8776 237.794 21.6054C238.179 21.3238 238.663 21.1831 239.245 21.1831H239.343C240.197 21.1831 240.85 21.4881 241.3 22.0982C241.751 22.6989 241.976 23.5811 241.976 24.7449V29.1375H239.723V24.6042C239.723 24.1818 239.597 23.8439 239.343 23.5905C239.099 23.3277 238.775 23.1963 238.372 23.1963C237.949 23.1963 237.607 23.3324 237.344 23.6046C237.091 23.8768 236.964 24.2381 236.964 24.6886V29.1375H234.711ZM248.555 29.1375V26.8567H248.175V24.3789C248.175 23.9847 248.081 23.689 247.894 23.4919C247.706 23.2948 247.406 23.1963 246.993 23.1963C246.786 23.1963 246.514 23.201 246.176 23.2104C245.838 23.2198 245.491 23.2338 245.134 23.2526C244.778 23.2714 244.454 23.2902 244.163 23.3089V21.4083C244.379 21.3895 244.632 21.3708 244.923 21.352C245.214 21.3332 245.514 21.3192 245.824 21.3098C246.134 21.3004 246.425 21.2957 246.697 21.2957C247.485 21.2957 248.147 21.4083 248.682 21.6336C249.226 21.8588 249.639 22.2014 249.921 22.6613C250.203 23.1118 250.343 23.6937 250.343 24.4071V29.1375H248.555ZM246.092 29.3346C245.538 29.3346 245.05 29.236 244.627 29.0389C244.214 28.8418 243.891 28.5602 243.656 28.1942C243.421 27.8188 243.304 27.3729 243.304 26.8567C243.304 26.2936 243.449 25.8337 243.74 25.477C244.031 25.111 244.44 24.8435 244.965 24.6745C245.491 24.4962 246.096 24.4071 246.781 24.4071H248.429V25.66H246.767C246.373 25.66 246.068 25.7586 245.852 25.9557C245.646 26.1434 245.543 26.4015 245.543 26.73C245.543 27.0397 245.646 27.2932 245.852 27.4903C246.068 27.678 246.373 27.7718 246.767 27.7718C247.021 27.7718 247.246 27.7296 247.443 27.6451C247.65 27.5513 247.819 27.3964 247.95 27.1805C248.081 26.9647 248.156 26.6643 248.175 26.2795L248.71 26.8426C248.663 27.3776 248.532 27.8281 248.316 28.1942C248.11 28.5602 247.819 28.8418 247.443 29.0389C247.077 29.236 246.627 29.3346 246.092 29.3346ZM252.621 29.1375V21.4224H254.873V29.1375H252.621ZM251.593 23.0837V21.4224H254.873V23.0837H251.593ZM253.493 20.6622C253.071 20.6622 252.757 20.5542 252.55 20.3383C252.353 20.1131 252.254 19.8315 252.254 19.4936C252.254 19.1464 252.353 18.8648 252.55 18.6489C252.757 18.4237 253.071 18.311 253.493 18.311C253.916 18.311 254.225 18.4237 254.423 18.6489C254.629 18.8648 254.732 19.1464 254.732 19.4936C254.732 19.8315 254.629 20.1131 254.423 20.3383C254.225 20.5542 253.916 20.6622 253.493 20.6622ZM256.956 29.1375V21.4224H258.744V24.7309H258.618C258.618 23.9425 258.716 23.2855 258.913 22.7599C259.12 22.2343 259.43 21.8401 259.843 21.5773C260.256 21.3145 260.758 21.1831 261.349 21.1831H261.448C262.349 21.1831 263.034 21.4787 263.503 22.07C263.982 22.6519 264.221 23.5389 264.221 24.7309V29.1375H261.968V24.6042C261.968 24.1912 261.846 23.8533 261.602 23.5905C261.358 23.3277 261.03 23.1963 260.617 23.1963C260.195 23.1963 259.852 23.3324 259.589 23.6046C259.336 23.8674 259.209 24.2146 259.209 24.6464V29.1375H256.956Z" fill="white"/>
<path d="M0 48.8838H438" stroke="white" stroke-opacity="0.1" stroke-width="0.782143"/>
</g>
</g>
</g>
</g>
<defs>
<filter id="filter0_i_13024_42274" x="0" y="0" width="438" height="526.382" filterUnits="userSpaceOnUse" color-interpolation-filters="sRGB">
<feFlood flood-opacity="0" result="BackgroundImageFix"/>
<feBlend mode="normal" in="SourceGraphic" in2="BackgroundImageFix" result="shape"/>
<feColorMatrix in="SourceAlpha" type="matrix" values="0 0 0 0 0 0 0 0 0 0 0 0 0 0 0 0 0 0 127 0" result="hardAlpha"/>
<feOffset dy="3.12857"/>
<feGaussianBlur stdDeviation="6.64821"/>
<feComposite in2="hardAlpha" operator="arithmetic" k2="-1" k3="1"/>
<feColorMatrix type="matrix" values="0 0 0 0 1 0 0 0 0 1 0 0 0 0 1 0 0 0 0.06 0"/>
<feBlend mode="normal" in2="shape" result="effect1_innerShadow_13024_42274"/>
</filter>
<filter id="filter1_d_13024_42274" x="343.964" y="102.718" width="47.2861" height="55.1072" filterUnits="userSpaceOnUse" color-interpolation-filters="sRGB">
<feFlood flood-opacity="0" result="BackgroundImageFix"/>
<feColorMatrix in="SourceAlpha" type="matrix" values="0 0 0 0 0 0 0 0 0 0 0 0 0 0 0 0 0 0 127 0" result="hardAlpha"/>
<feOffset dy="2"/>
<feGaussianBlur stdDeviation="4"/>
<feComposite in2="hardAlpha" operator="out"/>
<feColorMatrix type="matrix" values="0 0 0 0 0.6 0 0 0 0 0.6 0 0 0 0 0.6 0 0 0 0.16 0"/>
<feBlend mode="normal" in2="BackgroundImageFix" result="effect1_dropShadow_13024_42274"/>
<feBlend mode="normal" in="SourceGraphic" in2="effect1_dropShadow_13024_42274" result="shape"/>
</filter>
<filter id="filter2_d_13024_42274" x="44.7947" y="104.673" width="51.1963" height="51.197" filterUnits="userSpaceOnUse" color-interpolation-filters="sRGB">
<feFlood flood-opacity="0" result="BackgroundImageFix"/>
<feColorMatrix in="SourceAlpha" type="matrix" values="0 0 0 0 0 0 0 0 0 0 0 0 0 0 0 0 0 0 127 0" result="hardAlpha"/>
<feOffset dy="2"/>
<feGaussianBlur stdDeviation="4"/>
<feComposite in2="hardAlpha" operator="out"/>
<feColorMatrix type="matrix" values="0 0 0 0 0.6 0 0 0 0 0.6 0 0 0 0 0.6 0 0 0 0.16 0"/>
<feBlend mode="normal" in2="BackgroundImageFix" result="effect1_dropShadow_13024_42274"/>
<feBlend mode="normal" in="SourceGraphic" in2="effect1_dropShadow_13024_42274" result="shape"/>
</filter>
<filter id="filter3_d_13024_42274" x="129.836" y="44.2149" width="178.328" height="178.328" filterUnits="userSpaceOnUse" color-interpolation-filters="sRGB">
<feFlood flood-opacity="0" result="BackgroundImageFix"/>
<feColorMatrix in="SourceAlpha" type="matrix" values="0 0 0 0 0 0 0 0 0 0 0 0 0 0 0 0 0 0 127 0" result="hardAlpha"/>
<feOffset dy="5.10787"/>
<feGaussianBlur stdDeviation="24.6375"/>
<feComposite in2="hardAlpha" operator="out"/>
<feColorMatrix type="matrix" values="0 0 0 0 0.933333 0 0 0 0 0.133333 0 0 0 0 0.2 0 0 0 0.77 0"/>
<feBlend mode="normal" in2="BackgroundImageFix" result="effect1_dropShadow_13024_42274"/>
<feBlend mode="normal" in="SourceGraphic" in2="effect1_dropShadow_13024_42274" result="shape"/>
</filter>
<clipPath id="clip0_13024_42274">
<rect width="438" height="299" fill="white"/>
</clipPath>
</defs>
</svg>
