<?xml version="1.0" standalone="no"?>
<!DOCTYPE svg PUBLIC "-//W3C//DTD SVG 20010904//EN"
 "http://www.w3.org/TR/2001/REC-SVG-20010904/DTD/svg10.dtd">
<svg version="1.0" xmlns="http://www.w3.org/2000/svg"
 width="1314.000000pt" height="897.000000pt" viewBox="0 0 1314.000000 897.000000"
 preserveAspectRatio="xMidYMid meet">

<g transform="translate(0.000000,897.000000) scale(0.100000,-0.100000)"
fill="#000000" stroke="none">
<path d="M6395 6306 c-378 -62 -683 -273 -869 -601 -100 -174 -149 -365 -149
-580 -1 -259 60 -460 205 -677 322 -481 970 -659 1494 -409 353 169 586 466
670 856 25 117 23 341 -3 465 -104 479 -460 835 -938 935 -107 22 -309 28
-410 11z m815 -761 l0 -85 -270 0 -270 0 0 -85 0 -85 270 0 270 0 0 -85 0 -85
-266 -2 -265 -3 265 -395 c147 -217 266 -397 266 -400 -1 -11 -130 -91 -139
-86 -5 3 -113 161 -241 351 -127 189 -234 346 -238 349 -7 4 -262 -358 -431
-611 -34 -51 -64 -93 -68 -93 -13 0 -133 82 -133 91 0 5 119 185 264 401 l265
393 -270 3 -270 2 3 83 3 82 268 3 267 2 0 85 0 85 -270 0 -270 0 0 85 0 85
630 0 630 0 0 -85z"/>
</g>
</svg>
