<svg xmlns="http://www.w3.org/2000/svg" width="438" height="299" fill="none"><g clip-path="url(#a)" filter="url(#b)"><g clip-path="url(#c)"><rect width="438" height="469.286" fill="#fff" fill-opacity=".01" rx="17.989"/><rect width="31.286" height="31.286" x="12.514" y="15.643" fill="#E07" rx="15.643"/><path fill="#fff" d="m16.326 30.566-1.685-1.727c-.448-.46.044-1.123.755-1.019l9.917 1.43a.864.864 0 0 0 .64-.152c.304-.23.13-.619-.162-.859l-.164-.134c-.301-.247-.393-.645-.091-.892l2.23-2.256a.92.92 0 0 1 1.117 0l2.105 2.256c.301.247.21.645-.092.892l-.163.134c-.293.24-.467.629-.162.86.171.13.408.186.64.152l9.707-1.4c.735-.108 1.222.598.724 1.048l-1.501 1.356c-.265.24-.227.61.082.81.317.206.344.584.037.8a17.278 17.278 0 0 1-4.132 2.108c-2.52.886-4.193 1.259-4.562 1.34a.983.983 0 0 0-.161.05l-.547.225a.743.743 0 0 0-.32.242l-1.601 2.314c-.304.415-1.047.415-1.35 0l-1.602-2.313a.743.743 0 0 0-.32-.243l-.547-.224a.986.986 0 0 0-.16-.05c-.37-.082-2.042-.455-4.563-1.34a17.192 17.192 0 0 1-4.242-2.188c-.239-.171-.203-.47.06-.616.246-.137.299-.414.113-.604ZM54.451 36.286l-2.534-10.277h2.38l1.984 8.728-.492-.324h1.28l-.548.324 1.534-8.348h1.915l-2.013 9.897H54.45Zm6.124 0-2.168-9.897h2.014l1.773 8.348-.535-.324h1.225l-.464.324 1.731-8.729h2.253L64.15 36.287h-3.576Zm11.202 0v-2.28h-.38v-2.479c0-.394-.094-.69-.282-.887-.188-.197-.488-.295-.901-.295a42.449 42.449 0 0 0-1.858.056c-.357.019-.681.038-.972.056v-1.9a26.663 26.663 0 0 1 2.534-.113c.789 0 1.45.113 1.985.338.545.225.958.568 1.24 1.028.28.45.421 1.032.421 1.745v4.73h-1.787Zm-2.464.197c-.554 0-1.042-.099-1.464-.296a2.305 2.305 0 0 1-.972-.844c-.234-.376-.352-.822-.352-1.338 0-.563.146-1.023.437-1.38.29-.366.699-.633 1.224-.802.526-.178 1.131-.268 1.817-.268h1.647v1.254h-1.661c-.395 0-.7.098-.916.295-.206.188-.31.446-.31.775 0 .31.104.563.31.76.216.187.521.281.916.281.253 0 .478-.042.675-.126.207-.094.376-.25.507-.465.132-.216.207-.516.225-.901l.535.563c-.046.535-.178.986-.394 1.352a2.103 2.103 0 0 1-.873.844c-.366.197-.816.296-1.351.296Zm8.105-.113c-.638 0-1.145-.084-1.52-.253a1.594 1.594 0 0 1-.816-.788c-.16-.357-.24-.822-.24-1.394v-7.927h2.267v7.94c0 .151.042.268.127.353.084.084.206.127.366.127h.69v1.942h-.874Zm4.211 0c-.638 0-1.145-.084-1.52-.253a1.594 1.594 0 0 1-.817-.788c-.16-.357-.239-.822-.239-1.394v-7.927h2.267v7.94c0 .151.042.268.126.353.085.084.207.127.367.127h.69v1.942h-.874Zm5.352.183c-.657 0-1.238-.112-1.745-.337a3.73 3.73 0 0 1-1.253-.901 4.329 4.329 0 0 1-.76-1.282 4.37 4.37 0 0 1-.254-1.464v-.281c0-.517.085-1.01.253-1.479.179-.478.432-.905.76-1.28a3.462 3.462 0 0 1 1.225-.888c.498-.225 1.061-.338 1.69-.338.826 0 1.52.188 2.084.563a3.61 3.61 0 0 1 1.309 1.45c.3.592.45 1.24.45 1.943v.76h-6.828v-1.28h5.463l-.732.59c0-.46-.066-.853-.197-1.182a1.532 1.532 0 0 0-.592-.746c-.253-.178-.572-.267-.957-.267-.394 0-.727.089-1 .267-.272.178-.478.441-.62.788-.14.338-.21.756-.21 1.253 0 .46.065.864.197 1.211.131.338.338.6.62.789.28.187.647.281 1.097.281.413 0 .751-.08 1.014-.24.263-.159.441-.356.535-.59h2.07a3.253 3.253 0 0 1-.662 1.38 3.355 3.355 0 0 1-1.239.942c-.497.226-1.07.338-1.718.338Zm7.674-.07c-.826 0-1.474-.23-1.943-.69-.47-.46-.704-1.112-.704-1.957v-4.505h2.098v4.561c0 .254.06.451.183.592.13.131.3.197.506.197.216 0 .38-.066.493-.197.122-.141.183-.338.183-.592h1.633c0 .789-.201 1.418-.605 1.887-.394.47-1.01.704-1.844.704Zm-3.788-6.265v-1.647h5.998v1.647h-5.998Zm1.14-1v-2.815h2.099v2.815h-2.098Zm11.388 7.068v-8.757l.619.479h-3.083v-2h4.773v10.278h-2.309Zm-2.703 0v-2h7.307v2h-7.307Z"/><path fill="#fff" fill-opacity=".65" d="M113.843 28.49c.219-.222.478-.333.777-.333.3 0 .559.111.777.334l3.593 3.871 3.61-3.871a.998.998 0 0 1 .76-.334c.31 0 .569.111.777.334.23.234.345.512.345.833 0 .321-.115.6-.345.834l-4.353 4.705a1.051 1.051 0 0 1-.777.334 1.11 1.11 0 0 1-.794-.334l-4.37-4.705a1.22 1.22 0 0 1-.311-.834c0-.32.104-.599.311-.833Z"/><rect width="25.029" height="25.029" x="230.611" y="18.772" fill="#fff" fill-opacity=".1" rx="12.514"/><g fill="#fff" fill-opacity=".65" clip-path="url(#d)"><path d="M236.086 37.393a.949.949 0 0 0 .233.653.84.84 0 0 0 .409.236c.098.027.17.042.217.043l4.161-.03c.275-.014.491-.11.648-.285a1.263 1.263 0 0 0 .278-.649c-.015-.27-.093-.487-.233-.653a.84.84 0 0 0-.409-.236 1.186 1.186 0 0 0-.217-.043l-2.037.018 2.763-2.808a.777.777 0 0 0 .236-.383c.019-.064.033-.153.042-.266a.795.795 0 0 0-.233-.653.793.793 0 0 0-.355-.238.703.703 0 0 0-.242-.016.9.9 0 0 0-.64.254l-2.763 2.808.072-2.125c.01-.274-.074-.494-.249-.658a.84.84 0 0 0-.388-.247.966.966 0 0 0-.221-.027.897.897 0 0 0-.628.274c-.12.128-.203.272-.25.431a.935.935 0 0 0-.044.213l-.15 4.387ZM250.164 25.179a.944.944 0 0 0-.233-.654.841.841 0 0 0-.408-.235 1.038 1.038 0 0 0-.217-.043l-4.161.029c-.276.015-.492.11-.649.285a1.26 1.26 0 0 0-.278.649c.016.27.093.488.233.654a.84.84 0 0 0 .409.235c.087.025.159.04.217.044l2.037-.018-2.763 2.807a.784.784 0 0 0-.236.384 1.351 1.351 0 0 0-.042.265.795.795 0 0 0 .233.654.793.793 0 0 0 .355.237.706.706 0 0 0 .243.016c.247 0 .46-.084.639-.253l2.763-2.808-.072 2.125c-.009.274.074.493.25.658a.832.832 0 0 0 .387.247.968.968 0 0 0 .222.027.897.897 0 0 0 .627-.274c.12-.128.203-.272.25-.432.028-.096.043-.167.045-.212l.149-4.387Z"/></g><rect width="107.275" height="25.029" x="261.897" y="18.772" fill="#fff" fill-opacity=".1" rx="12.514"/><path fill="#fff" d="M283.528 32.859V29.61a1.571 1.571 0 0 0 1.051-1.476c0-.868-.713-1.57-1.591-1.57-.372 0-.713.126-.984.337l-2.981-1.659c.009-.068.015-.137.015-.207a1.58 1.58 0 0 0-1.591-1.571c-.878 0-1.591.703-1.591 1.57 0 .08.008.159.02.235l-2.858 1.59a1.595 1.595 0 0 0-.927-.296c-.878 0-1.591.703-1.591 1.571 0 .63.377 1.173.92 1.423v3.354c-.543.25-.92.793-.92 1.423 0 .868.713 1.57 1.591 1.57.419 0 .799-.16 1.083-.421l2.706 1.505a1.524 1.524 0 0 0-.024.264c0 .867.713 1.57 1.591 1.57a1.58 1.58 0 0 0 1.591-1.57c0-.081-.008-.16-.02-.236l2.837-1.579a1.6 1.6 0 0 0 1.132.468 1.58 1.58 0 0 0 1.591-1.571 1.57 1.57 0 0 0-1.05-1.476Zm-7.137 3.221-2.727-1.517a1.574 1.574 0 0 0-1.192-1.752V29.66c.254-.062.484-.183.674-.35l2.834 1.648c-.014.085-.024.17-.024.26 0 .69.452 1.274 1.079 1.485v3.035a1.587 1.587 0 0 0-.644.343Zm2.171-6.074a1.596 1.596 0 0 0-1.014-.36c-.407 0-.778.152-1.059.4l-2.831-1.645a1.549 1.549 0 0 0-.034-.684l2.746-1.528c.283.258.661.417 1.077.417.426 0 .813-.166 1.098-.435l2.894 1.61a1.537 1.537 0 0 0-.034.509l-2.843 1.716Zm-.038 6.093a1.6 1.6 0 0 0-.436-.284v-3.122a1.572 1.572 0 0 0 1.018-1.797l2.748-1.66c.172.173.384.305.621.385v3.228a1.573 1.573 0 0 0-1.07 1.647l-2.881 1.603ZM290.813 33.786l2.469-6.851h1.558l2.543 6.851h-.948l-2.299-6.25.45.224h-1.107l.478-.225-2.224 6.251h-.92Zm1.474-2.046.309-.826h2.957l.31.826h-3.576Zm7.189 2.102c-.276 0-.514-.037-.714-.112a.951.951 0 0 1-.46-.376c-.106-.175-.159-.406-.159-.694v-5.725h.901v5.762c0 .12.031.213.094.282a.4.4 0 0 0 .281.094h.526v.77h-.469Zm2.681 0c-.276 0-.513-.037-.714-.112a.951.951 0 0 1-.46-.376c-.106-.175-.159-.406-.159-.694v-5.725h.901v5.762c0 .12.031.213.094.282a.402.402 0 0 0 .281.094h.526v.77h-.469Zm3.446-.056v-5.012h.713v2.15h-.112c0-.495.066-.91.197-1.249.138-.344.344-.604.619-.779.276-.181.623-.272 1.042-.272h.038c.632 0 1.098.197 1.398.591.307.395.46.964.46 1.709v2.862h-.901v-3.05c0-.388-.109-.698-.328-.93-.219-.237-.52-.356-.901-.356-.395 0-.714.122-.958.366s-.366.57-.366.976v2.994h-.901Zm7.947.17c-.438 0-.817-.076-1.136-.226a2.2 2.2 0 0 1-.779-.591 2.64 2.64 0 0 1-.451-.836 3.217 3.217 0 0 1-.14-.938v-.17c0-.325.047-.64.14-.947.1-.307.251-.582.451-.826.2-.25.454-.448.76-.591.313-.15.679-.226 1.098-.226.545 0 .992.12 1.342.357.357.231.62.532.789.9.175.37.263.764.263 1.184v.403h-4.449v-.676h3.792l-.207.366c0-.356-.056-.663-.169-.92a1.312 1.312 0 0 0-.507-.61c-.225-.143-.51-.215-.854-.215-.356 0-.654.081-.891.244a1.51 1.51 0 0 0-.526.666 2.608 2.608 0 0 0-.169.976c0 .357.056.679.169.967.119.281.3.507.544.676.244.162.554.244.93.244.394 0 .713-.088.957-.263.25-.175.4-.379.45-.61h.845a1.984 1.984 0 0 1-.413.891c-.206.25-.466.442-.779.573a2.714 2.714 0 0 1-1.06.197Zm5.099-.039c-.451 0-.817-.134-1.098-.403-.282-.275-.423-.663-.423-1.164v-3.2h.864v3.238c0 .275.069.478.206.61a.727.727 0 0 0 .507.187.76.76 0 0 0 .516-.187c.144-.132.216-.335.216-.61h.732c0 .463-.137.835-.413 1.117-.275.275-.644.412-1.107.412Zm-2.384-4.467v-.676h3.66v.676h-3.66Zm.863-.375v-1.821h.864v1.82h-.864Zm5.444 4.711 1.013-4.843h1.221l1.182 4.843h-.77l-1.182-4.824h.3l-1.023 4.824h-.741Zm-.46 0v-.713h1.042v.713h-1.042Zm-.207 0-1.417-5.012h.864l1.379 5.012h-.826Zm3.501 0v-.713h1.042v.713h-1.042Zm.423 0 1.201-5.012h.816l-1.229 5.012h-.788Zm5.264.17c-.438 0-.823-.076-1.155-.226a2.662 2.662 0 0 1-.844-.591 2.686 2.686 0 0 1-.516-.836 2.694 2.694 0 0 1-.169-.938v-.17c0-.318.059-.631.178-.938a2.48 2.48 0 0 1 .526-.835c.231-.25.513-.448.844-.591.332-.15.71-.226 1.136-.226.425 0 .804.075 1.136.226.331.143.613.34.844.59.232.245.407.523.526.836.119.307.178.62.178.939v.169c0 .319-.059.632-.178.938a2.496 2.496 0 0 1-.516.836 2.561 2.561 0 0 1-.836.59 2.77 2.77 0 0 1-1.154.226Zm0-.808c.375 0 .694-.081.957-.244.269-.17.473-.394.61-.676.144-.282.216-.598.216-.948 0-.357-.072-.676-.216-.957a1.63 1.63 0 0 0-.619-.667c-.263-.162-.579-.244-.948-.244-.363 0-.679.082-.948.244a1.624 1.624 0 0 0-.619.667c-.144.281-.216.6-.216.957 0 .35.068.666.206.948.144.282.347.507.61.676.269.163.591.244.967.244Zm3.846.638v-5.012h.695v1.577h-.019c0-.37.053-.673.159-.91.113-.244.276-.426.488-.545.219-.119.485-.178.798-.178h.882v.807h-1.126c-.325 0-.569.081-.732.244-.163.163-.244.407-.244.732v3.285h-.901Zm7.281 0-1.887-2.337h-.826l2.3-2.675h.948l-2.084 2.412.066-.478 2.525 3.078h-1.042Zm-3.454 0v-6.851h.901v6.851h-.901Zm6.762.15c-.657 0-1.167-.14-1.53-.422-.357-.282-.541-.666-.554-1.155h.845c.012.194.109.38.291.554.187.17.503.254.948.254.4 0 .707-.078.919-.235.213-.163.32-.36.32-.591a.556.556 0 0 0-.235-.479c-.157-.119-.41-.197-.76-.235l-.545-.056c-.475-.05-.863-.19-1.164-.422-.3-.238-.45-.57-.45-.995 0-.32.081-.591.244-.817.163-.231.388-.406.676-.525.288-.125.619-.188.995-.188.563 0 1.02.125 1.37.375.35.25.532.623.544 1.117h-.844c-.007-.2-.1-.369-.282-.506-.175-.144-.438-.216-.788-.216-.351 0-.617.072-.798.216a.665.665 0 0 0-.272.544c0 .188.062.338.187.45.132.113.345.185.639.216l.544.057c.538.056.97.206 1.295.45.326.238.488.576.488 1.014 0 .313-.09.591-.272.835a1.768 1.768 0 0 1-.732.563 2.769 2.769 0 0 1-1.079.197Z"/><path fill="#fff" fill-opacity=".5" d="M357.124 28.549h-4.062c-.92 0-1.493.997-1.03 1.792l2.031 3.482c.46.788 1.6.788 2.059 0l2.032-3.482a1.192 1.192 0 0 0-1.03-1.792Z"/><rect width="25.029" height="25.029" x="375.429" y="18.772" fill="#fff" fill-opacity=".1" rx="12.514"/><circle cx="387.943" cy="31.286" r="6.257" fill="#0E7"/><path fill="#fff" fill-opacity=".65" d="M416.1 33.726a2.3 2.3 0 0 0 1.205-.328c.375-.22.672-.516.891-.892a2.38 2.38 0 0 0 .329-1.22c0-.438-.11-.84-.329-1.204a2.439 2.439 0 0 0-.891-.892 2.3 2.3 0 0 0-1.205-.329c-.438 0-.845.11-1.22.329a2.442 2.442 0 0 0-.892.892 2.297 2.297 0 0 0-.328 1.204 2.442 2.442 0 0 0 1.22 2.112c.375.219.782.328 1.22.328Zm-7.039-2.44c0-.407.141-.75.422-1.032a1.406 1.406 0 0 1 1.033-.423h.234a.546.546 0 0 0 .297-.078.48.48 0 0 0 .173-.235c.02-.073.041-.135.062-.187a.566.566 0 0 0 .063-.141.488.488 0 0 0 .047-.219c0-.136-.047-.235-.141-.297l-.125-.157a1.385 1.385 0 0 1-.423-1.017c0-.417.141-.756.423-1.016l.187-.204.016-.015c.313-.282.662-.423 1.048-.423.396 0 .72.141.97.423l.094.094c.083.093.182.14.297.14.083 0 .167-.02.25-.062l.313-.094a.52.52 0 0 0 .219-.172.433.433 0 0 0 .094-.266v-.203c0-.397.141-.736.422-1.017a1.414 1.414 0 0 1 1.033-.438h.25c.396 0 .735.146 1.017.438.292.281.438.62.438 1.017v.219c0 .094.026.182.078.265.052.073.13.13.235.173.052.01.109.03.172.062.062.032.109.052.141.063a.415.415 0 0 0 .187.047.444.444 0 0 0 .344-.157l.094-.094.032-.015c.281-.282.62-.423 1.016-.423.199 0 .386.042.564.126.187.083.349.203.484.36l.188.203c.292.26.438.594.438 1 0 .387-.146.72-.438 1.002l-.125.156a.495.495 0 0 0-.156.36c0 .042.01.094.031.157.062.156.109.26.141.313a.566.566 0 0 0 .187.25.495.495 0 0 0 .266.078h.032c.396 0 .735.146 1.016.438.292.282.438.62.438 1.017v.25c0 .407-.14.75-.422 1.032a1.433 1.433 0 0 1-1.032.407h-.219a.435.435 0 0 0-.266.094.517.517 0 0 0-.172.219 1.076 1.076 0 0 1-.126.328.42.42 0 0 0-.046.188c0 .115.046.23.14.344l.11.094h.015c.282.292.423.636.423 1.033 0 .396-.146.735-.438 1.017l-.204.203c-.26.281-.599.422-1.016.422-.407 0-.746-.14-1.017-.422l-.157-.125a.46.46 0 0 0-.516-.126l-.328.141a.59.59 0 0 0-.235.188.495.495 0 0 0-.078.266v.094c0 .365-.141.683-.422.954a1.303 1.303 0 0 1-.97.422h-.125c-.376 0-.704-.14-.986-.422a1.307 1.307 0 0 1-.407-.954v-.297a.29.29 0 0 0-.078-.235.502.502 0 0 0-.203-.188l-.266-.125a.417.417 0 0 0-.188-.047.418.418 0 0 0-.328.141.526.526 0 0 0-.094.11 1.41 1.41 0 0 1-.939.344c-.417 0-.766-.152-1.048-.454l-.188-.203a1.358 1.358 0 0 1-.359-.923c0-.355.12-.668.359-.939l.219-.219a.517.517 0 0 0 .126-.328.87.87 0 0 0-.032-.172 3.962 3.962 0 0 1-.141-.376.483.483 0 0 0-.172-.219.434.434 0 0 0-.266-.094h-.531c-.407 0-.751-.14-1.033-.422a1.388 1.388 0 0 1-.422-1.017Z"/><mask id="e" fill="#fff"><path fill-rule="evenodd" d="M33.442 117.322h383.184a6.257 6.257 0 0 1 6.257 6.257v392.635c0 .869-.177 1.696-.496 2.447v-12.929a6.256 6.256 0 0 1-2.135 4.707l-11.798 10.332a6.254 6.254 0 0 1-4.122 1.551h13.663c-.441.098-.899.15-1.369.15H21.644a6.258 6.258 0 0 1-6.257-6.258V133.911c0-1.803.778-3.519 2.134-4.707l11.798-10.332c1.141-1 2.606-1.55 4.123-1.55Z" clip-rule="evenodd"/></mask><path fill="#fff" fill-opacity=".03" fill-rule="evenodd" d="M33.442 117.322h383.184a6.257 6.257 0 0 1 6.257 6.257v392.635c0 .869-.177 1.696-.496 2.447v-12.929a6.256 6.256 0 0 1-2.135 4.707l-11.798 10.332a6.254 6.254 0 0 1-4.122 1.551h13.663c-.441.098-.899.15-1.369.15H21.644a6.258 6.258 0 0 1-6.257-6.258V133.911c0-1.803.778-3.519 2.134-4.707l11.798-10.332c1.141-1 2.606-1.55 4.123-1.55Z" clip-rule="evenodd"/><path fill="#fff" fill-opacity=".1" d="M422.387 518.661h-.782l1.502.306-.72-.306Zm-2.135-8.222-.515-.588.515.588Zm-11.798 10.332-.515-.588.515.588Zm9.541 1.551.17.763-.17-1.546v.783ZM17.521 129.204l-.515-.588.515.588Zm11.798-10.332-.515-.589.515.589Zm387.307-2.333H33.442v1.565h383.184v-1.565Zm7.039 7.04a7.04 7.04 0 0 0-7.039-7.04v1.565a5.475 5.475 0 0 1 5.475 5.475h1.564Zm0 392.635V123.579h-1.564v392.635h1.564Zm-.558 2.753c.36-.846.558-1.777.558-2.753h-1.564c0 .762-.155 1.485-.434 2.141l1.44.612Zm-1.502-13.235v12.929h1.564v-12.929h-1.564Zm-.838 5.295a7.035 7.035 0 0 0 2.402-5.295h-1.564a5.476 5.476 0 0 1-1.868 4.119l1.03 1.176ZM408.97 521.36l11.797-10.333-1.03-1.176-11.798 10.332 1.031 1.177Zm-4.638 1.744c1.706 0 3.354-.62 4.638-1.744l-1.031-1.177a5.475 5.475 0 0 1-3.607 1.356v1.565Zm13.663-1.565h-13.663v1.565h13.663v-1.565Zm-1.369 1.715a7.04 7.04 0 0 0 1.539-.169l-.341-1.527a5.49 5.49 0 0 1-1.198.131v1.565Zm-394.982 0h394.982v-1.565H21.644v1.565Zm-7.04-7.04a7.04 7.04 0 0 0 7.04 7.04v-1.565a5.475 5.475 0 0 1-5.475-5.475h-1.564Zm0-382.303v382.303h1.565V133.911h-1.564Zm2.402-5.295a7.037 7.037 0 0 0-2.401 5.295h1.564c0-1.578.68-3.079 1.868-4.119l-1.03-1.176Zm11.798-10.333-11.798 10.333 1.03 1.176 11.798-10.332-1.03-1.177Zm4.638-1.744a7.04 7.04 0 0 0-4.638 1.744l1.03 1.177a5.476 5.476 0 0 1 3.608-1.356v-1.565Z" mask="url(#e)"/><mask id="f" fill="#fff"><path fill-rule="evenodd" d="M36.927 129.836h63.713c1.728 0 3.129 1.4 3.129 3.128v17.477a3.136 3.136 0 0 1-.935 1.454l-5.898 5.166a3.13 3.13 0 0 1-2.061.775h6.747a3.127 3.127 0 0 1-.982.157H31.03a3.129 3.129 0 0 1-3.13-3.129V138.13c0-.901.39-1.759 1.068-2.353l5.898-5.166c.57-.5 1.303-.775 2.06-.775Z" clip-rule="evenodd"/></mask><path fill="#70E" fill-opacity=".25" fill-rule="evenodd" d="M36.927 129.836h63.713c1.728 0 3.129 1.4 3.129 3.128v17.477a3.136 3.136 0 0 1-.935 1.454l-5.898 5.166a3.13 3.13 0 0 1-2.061.775h6.747a3.127 3.127 0 0 1-.982.157H31.03a3.129 3.129 0 0 1-3.13-3.129V138.13c0-.901.39-1.759 1.068-2.353l5.898-5.166c.57-.5 1.303-.775 2.06-.775Z" clip-rule="evenodd"/><path fill="#fff" fill-opacity=".1" d="m103.769 150.441.749.225.033-.11v-.115h-.782Zm-.935 1.454.515.588-.515-.588Zm-5.898 5.166.515.588-.515-.588Zm4.686.775.245.742-.245-1.524v.782Zm-72.654-22.059.515.588-.515-.588Zm5.898-5.166-.515-.589.515.589Zm65.774-1.557H36.927v1.564h63.713v-1.564Zm3.911 3.91a3.91 3.91 0 0 0-3.911-3.91v1.564a2.346 2.346 0 0 1 2.347 2.346h1.564Zm0 17.477v-17.477h-1.564v17.477h1.564Zm-1.202 2.042a3.913 3.913 0 0 0 1.169-1.817l-1.498-.45a2.348 2.348 0 0 1-.702 1.09l1.031 1.177Zm-5.898 5.166 5.898-5.166-1.031-1.177-5.897 5.166 1.03 1.177Zm-2.576.969c.948 0 1.863-.344 2.576-.969l-1.03-1.177a2.344 2.344 0 0 1-1.546.582v1.564Zm6.747-1.564h-6.747v1.564h6.747v-1.564Zm-.982 1.721c.428 0 .84-.069 1.227-.197l-.49-1.485a2.351 2.351 0 0 1-.737.118v1.564Zm-69.61 0h69.61v-1.564H31.03v1.564Zm-3.911-3.911a3.91 3.91 0 0 0 3.91 3.911v-1.564a2.347 2.347 0 0 1-2.346-2.347H27.12Zm0-16.734v16.734h1.564V138.13H27.12Zm1.334-2.942a3.912 3.912 0 0 0-1.334 2.942h1.564c0-.676.292-1.319.8-1.765l-1.03-1.177Zm5.898-5.166-5.898 5.166 1.03 1.177 5.898-5.166-1.03-1.177Zm2.576-.968c-.948 0-1.863.344-2.576.968l1.03 1.177a2.344 2.344 0 0 1 1.546-.581v-1.564Z" mask="url(#f)"/><path fill="#fff" d="M40.023 147.993c-.73 0-1.355-.127-1.873-.383a3.497 3.497 0 0 1-1.237-.996 4.19 4.19 0 0 1-.69-1.325 4.795 4.795 0 0 1-.219-1.391v-.241c0-.482.073-.963.219-1.445.153-.482.387-.92.7-1.314a3.431 3.431 0 0 1 1.227-.953c.504-.241 1.106-.361 1.807-.361.715 0 1.328.124 1.84.372.51.248.916.595 1.215 1.04.3.446.482.971.547 1.577h-1.094c-.059-.452-.205-.825-.439-1.117a2.124 2.124 0 0 0-.887-.668 3.049 3.049 0 0 0-1.182-.219c-.475 0-.89.084-1.248.252a2.4 2.4 0 0 0-.898.69 3.162 3.162 0 0 0-.537 1.018 4.343 4.343 0 0 0-.175 1.26c0 .43.058.839.175 1.226.124.387.307.73.548 1.029.248.3.554.537.92.712.364.168.791.252 1.28.252.687 0 1.264-.172 1.73-.515.468-.343.753-.839.855-1.489h1.095a3.523 3.523 0 0 1-.559 1.5c-.292.453-.7.814-1.226 1.084-.518.27-1.15.405-1.894.405Zm7.105-.021c-.693 0-1.226-.227-1.598-.679-.373-.453-.559-1.106-.559-1.96v-3.395h1.051v3.603c0 .46.125.821.373 1.084.248.255.584.383 1.007.383.438 0 .796-.139 1.073-.416.278-.285.416-.672.416-1.161v-3.493h1.052v5.858h-.833v-2.507h.132c0 .577-.077 1.066-.23 1.467-.154.394-.383.697-.69.909-.3.204-.683.307-1.15.307h-.044Zm4.85-.176v-5.847h.833v2.409h-.044c0-.854.186-1.478.558-1.872.38-.402.946-.603 1.697-.603h.198v.942h-.373c-.584 0-1.033.157-1.346.471-.314.307-.471.752-.471 1.336v3.164h-1.052Zm4.492 0v-5.847h.832v2.409h-.044c0-.854.186-1.478.558-1.872.38-.402.946-.603 1.698-.603h.197v.942h-.372c-.584 0-1.033.157-1.347.471-.314.307-.471.752-.471 1.336v3.164H56.47Zm6.912.197c-.51 0-.952-.087-1.325-.262a2.573 2.573 0 0 1-.909-.69 3.074 3.074 0 0 1-.525-.975 3.714 3.714 0 0 1-.164-1.095v-.197c0-.379.054-.748.164-1.106.117-.357.292-.679.526-.963a2.45 2.45 0 0 1 .886-.69c.366-.175.793-.263 1.282-.263.635 0 1.157.139 1.565.416.417.27.723.621.92 1.051.205.431.307.891.307 1.38v.471h-5.19v-.789h4.423l-.24.427c0-.416-.066-.773-.198-1.073a1.541 1.541 0 0 0-.59-.711c-.264-.168-.596-.252-.997-.252-.416 0-.763.095-1.04.284-.27.19-.475.449-.614.778a3.049 3.049 0 0 0-.197 1.139c0 .416.066.792.197 1.128.139.328.35.591.635.788.285.19.646.285 1.084.285.46 0 .833-.103 1.117-.307.292-.204.467-.442.526-.712h.985a2.32 2.32 0 0 1-.482 1.041 2.33 2.33 0 0 1-.908.668 3.174 3.174 0 0 1-1.238.229Zm4.22-.197v-5.847h.832v2.508h-.132c0-.577.077-1.063.23-1.457.16-.401.402-.704.723-.909.321-.211.726-.317 1.215-.317h.044c.737 0 1.281.23 1.632.69.357.46.536 1.124.536 1.993v3.339h-1.051v-3.558c0-.453-.128-.814-.383-1.084-.256-.278-.606-.417-1.051-.417-.46 0-.833.143-1.117.428-.285.284-.427.664-.427 1.138v3.493H67.6Zm9.511.197c-.504 0-.942-.087-1.314-.262a2.65 2.65 0 0 1-.909-.701 3.267 3.267 0 0 1-.547-.986 3.434 3.434 0 0 1-.175-1.073v-.197c0-.372.058-.737.175-1.095.124-.358.306-.679.547-.963.248-.292.555-.526.92-.701.365-.175.792-.263 1.281-.263.49 0 .927.091 1.314.274.394.182.708.441.942.777.24.329.376.719.405 1.172h-1.007a1.411 1.411 0 0 0-.504-.909c-.285-.248-.668-.372-1.15-.372-.416 0-.763.095-1.04.284-.277.19-.486.449-.624.778a2.846 2.846 0 0 0-.208 1.117c0 .401.07.77.208 1.106.138.328.347.591.624.788.285.19.639.285 1.062.285.329 0 .613-.059.854-.175a1.55 1.55 0 0 0 .58-.471c.147-.197.234-.42.263-.668h1.008c-.022.46-.157.858-.405 1.193-.241.336-.563.599-.964.789-.394.182-.84.273-1.336.273Zm4.418-.197v-5.847h1.051v5.847h-1.051Zm-.898-5.015v-.832h1.949v.832h-1.95Zm1.194-1.774c-.234 0-.41-.062-.526-.186a.685.685 0 0 1-.164-.471c0-.189.054-.346.164-.47.117-.125.292-.187.525-.187.234 0 .406.062.515.187a.659.659 0 0 1 .175.47.66.66 0 0 1-.175.471c-.11.124-.28.186-.514.186Zm5.273 6.986c-.51 0-.953-.087-1.325-.262a2.573 2.573 0 0 1-.909-.69 3.074 3.074 0 0 1-.525-.975 3.714 3.714 0 0 1-.164-1.095v-.197c0-.379.054-.748.164-1.106.117-.357.292-.679.525-.963a2.45 2.45 0 0 1 .887-.69c.365-.175.792-.263 1.281-.263.636 0 1.157.139 1.566.416.416.27.723.621.92 1.051.205.431.307.891.307 1.38v.471h-5.19v-.789h4.423l-.24.427c0-.416-.066-.773-.198-1.073a1.541 1.541 0 0 0-.591-.711c-.263-.168-.595-.252-.997-.252-.416 0-.762.095-1.04.284-.27.19-.474.449-.613.778a3.049 3.049 0 0 0-.197 1.139c0 .416.066.792.197 1.128.139.328.35.591.635.788.285.19.646.285 1.084.285.46 0 .832-.103 1.117-.307.292-.204.467-.442.526-.712h.985a2.32 2.32 0 0 1-.482 1.041 2.33 2.33 0 0 1-.908.668 3.174 3.174 0 0 1-1.238.229Zm6.136-.021c-.767 0-1.362-.165-1.785-.493-.416-.329-.632-.778-.646-1.347h.985c.015.226.128.442.34.646.219.197.587.296 1.106.296.467 0 .824-.092 1.073-.274.248-.19.372-.42.372-.69a.646.646 0 0 0-.274-.558c-.182-.139-.478-.23-.887-.274l-.635-.066c-.555-.058-1.007-.222-1.358-.493-.35-.277-.525-.664-.525-1.16 0-.373.095-.69.284-.953.19-.27.453-.474.789-.613a2.888 2.888 0 0 1 1.16-.219c.657 0 1.19.146 1.6.438.408.292.62.726.634 1.303h-.985c-.007-.234-.117-.431-.329-.591-.204-.168-.51-.252-.92-.252-.408 0-.719.084-.93.252a.777.777 0 0 0-.318.635.67.67 0 0 0 .22.525c.153.132.4.216.744.252l.635.066c.628.066 1.131.241 1.511.525.38.278.57.672.57 1.183 0 .365-.106.69-.318.975-.205.277-.49.496-.854.657-.365.153-.785.23-1.26.23Z"/><mask id="g" fill="#fff"><path fill-rule="evenodd" d="M243.413 129.836h131.759c1.728 0 3.129 1.4 3.129 3.128v17.304a3.127 3.127 0 0 1-.982 1.627l-5.897 5.166a3.133 3.133 0 0 1-2.061.775h6.793a3.127 3.127 0 0 1-.982.157H237.515a3.128 3.128 0 0 1-3.128-3.129V138.13a3.13 3.13 0 0 1 1.067-2.353l5.898-5.166c.57-.5 1.302-.775 2.061-.775Z" clip-rule="evenodd"/></mask><path fill="#fff" fill-opacity=".05" fill-rule="evenodd" d="M243.413 129.836h131.759c1.728 0 3.129 1.4 3.129 3.128v17.304a3.127 3.127 0 0 1-.982 1.627l-5.897 5.166a3.133 3.133 0 0 1-2.061.775h6.793a3.127 3.127 0 0 1-.982.157H237.515a3.128 3.128 0 0 1-3.128-3.129V138.13a3.13 3.13 0 0 1 1.067-2.353l5.898-5.166c.57-.5 1.302-.775 2.061-.775Z" clip-rule="evenodd"/><path fill="#fff" fill-opacity=".1" d="m378.301 150.268.761.182.021-.089v-.093h-.782Zm-.982 1.627.516.588-.516-.588Zm-5.897 5.166-.516-.589.516.589Zm4.732.775.245.742-.245-1.524v.782Zm-140.7-22.059.515.588-.515-.588Zm5.898-5.166-.516-.589.516.589Zm133.82-1.557H243.413v1.564h131.759v-1.564Zm3.911 3.91a3.91 3.91 0 0 0-3.911-3.91v1.564a2.346 2.346 0 0 1 2.347 2.346h1.564Zm0 17.304v-17.304h-1.564v17.304h1.564Zm-1.248 2.215a3.916 3.916 0 0 0 1.227-2.033l-1.522-.363a2.347 2.347 0 0 1-.736 1.219l1.031 1.177Zm-5.898 5.166 5.898-5.166-1.031-1.177-5.898 5.166 1.031 1.177Zm-2.576.969c.947 0 1.863-.344 2.576-.969l-1.031-1.177a2.343 2.343 0 0 1-1.545.582v1.564Zm6.793-1.564h-6.793v1.564h6.793v-1.564Zm-.982 1.721c.428 0 .841-.069 1.227-.197l-.49-1.485a2.351 2.351 0 0 1-.737.118v1.564Zm-137.657 0h137.657v-1.564H237.515v1.564Zm-3.91-3.911a3.91 3.91 0 0 0 3.91 3.911v-1.564a2.346 2.346 0 0 1-2.346-2.347h-1.564Zm0-16.734v16.734h1.564V138.13h-1.564Zm1.333-2.942a3.914 3.914 0 0 0-1.333 2.942h1.564c0-.676.292-1.319.8-1.765l-1.031-1.177Zm5.898-5.166-5.898 5.166 1.031 1.177 5.898-5.166-1.031-1.177Zm2.577-.968c-.948 0-1.864.344-2.577.968l1.031 1.177a2.345 2.345 0 0 1 1.546-.581v-1.564Z" mask="url(#g)"/><path fill="#fff" fill-opacity=".5" d="M247.528 147.993c-.664 0-1.23-.109-1.697-.328-.467-.219-.825-.522-1.073-.909a2.383 2.383 0 0 1-.372-1.314h1.073c0 .241.062.482.186.723.131.241.347.441.646.602.306.161.719.241 1.237.241.482 0 .876-.069 1.183-.208.306-.146.533-.332.679-.559.146-.233.219-.485.219-.755 0-.329-.143-.599-.427-.81-.285-.219-.701-.354-1.249-.406l-.887-.076c-.708-.059-1.273-.278-1.697-.657-.423-.38-.635-.88-.635-1.5 0-.489.117-.916.35-1.281a2.44 2.44 0 0 1 .997-.855c.423-.211.916-.317 1.478-.317.555 0 1.044.102 1.467.306.424.205.752.493.986.866.241.365.361.803.361 1.314h-1.073a1.48 1.48 0 0 0-.186-.723 1.376 1.376 0 0 0-.558-.559c-.256-.146-.588-.219-.997-.219-.394 0-.723.07-.985.208a1.46 1.46 0 0 0-.581.548 1.42 1.42 0 0 0-.186.712c0 .292.113.551.34.777.226.226.562.358 1.007.394l.887.077c.547.044 1.018.161 1.413.35.401.183.708.431.919.745.219.307.329.675.329 1.106 0 .489-.132.923-.394 1.303-.263.38-.632.675-1.106.887-.475.212-1.026.317-1.654.317Zm7.287 0c-.511 0-.953-.087-1.325-.262a2.58 2.58 0 0 1-.909-.69 3.069 3.069 0 0 1-.525-.975 3.698 3.698 0 0 1-.165-1.095v-.197c0-.379.055-.748.165-1.106.116-.357.292-.679.525-.963.234-.292.529-.522.887-.69.365-.175.792-.263 1.281-.263.635 0 1.157.139 1.566.416.416.27.723.621.92 1.051.204.431.306.891.306 1.38v.471h-5.19v-.789h4.424l-.241.427c0-.416-.066-.773-.197-1.073a1.543 1.543 0 0 0-.591-.711c-.263-.168-.595-.252-.997-.252-.416 0-.763.095-1.04.284-.27.19-.475.449-.613.778a3.037 3.037 0 0 0-.197 1.139c0 .416.065.792.197 1.128.138.328.35.591.635.788.285.19.646.285 1.084.285.46 0 .832-.103 1.117-.307.292-.204.467-.442.525-.712h.986c-.08.402-.241.749-.482 1.041a2.332 2.332 0 0 1-.909.668 3.172 3.172 0 0 1-1.237.229Zm7.756-.197v-1.752h-.175v-2.025c0-.402-.106-.705-.318-.909-.204-.205-.507-.307-.909-.307-.226 0-.46.004-.701.011l-.689.022a9.53 9.53 0 0 0-.57.033v-.92c.161-.015.329-.025.504-.033a7.29 7.29 0 0 1 .558-.022c.19-.007.373-.011.548-.011.598 0 1.088.073 1.467.219.38.139.661.369.843.69.183.321.274.756.274 1.303v3.701h-.832Zm-1.916.154c-.438 0-.818-.073-1.139-.219a1.742 1.742 0 0 1-.734-.657c-.168-.285-.252-.628-.252-1.03 0-.416.092-.762.274-1.04.19-.277.464-.485.821-.624.358-.146.789-.219 1.292-.219h1.588v.788h-1.631c-.424 0-.749.103-.975.307a1.014 1.014 0 0 0-.339.788c0 .322.113.581.339.778.226.197.551.295.975.295.248 0 .485-.043.711-.131.227-.095.413-.248.559-.46.153-.219.237-.518.252-.898l.284.416c-.036.416-.138.767-.306 1.052a1.59 1.59 0 0 1-.679.635c-.285.146-.632.219-1.04.219Zm4.677-.154v-5.847h.833v2.409h-.044c0-.854.186-1.478.558-1.872.38-.402.946-.603 1.698-.603h.197v.942h-.373c-.584 0-1.033.157-1.347.471-.313.307-.47.752-.47 1.336v3.164h-1.052Zm6.935.197c-.504 0-.942-.087-1.314-.262a2.652 2.652 0 0 1-.909-.701 3.261 3.261 0 0 1-.547-.986 3.43 3.43 0 0 1-.176-1.073v-.197c0-.372.059-.737.176-1.095.124-.358.306-.679.547-.963a2.75 2.75 0 0 1 .92-.701c.365-.175.792-.263 1.281-.263.489 0 .927.091 1.314.274.394.182.708.441.942.777.241.329.376.719.405 1.172h-1.007a1.414 1.414 0 0 0-.504-.909c-.285-.248-.668-.372-1.15-.372-.416 0-.763.095-1.04.284-.278.19-.486.449-.624.778a2.841 2.841 0 0 0-.208 1.117c0 .401.069.77.208 1.106.138.328.346.591.624.788.285.19.639.285 1.062.285.329 0 .613-.059.854-.175.241-.117.434-.274.58-.471a1.37 1.37 0 0 0 .263-.668h1.008c-.022.46-.157.858-.405 1.193a2.453 2.453 0 0 1-.964.789c-.394.182-.84.273-1.336.273Zm4.133-.197v-7.993h1.051v4.774h-.263c0-.577.073-1.073.219-1.489.154-.424.387-.748.701-.975.314-.226.716-.339 1.205-.339h.044c.7 0 1.23.233 1.587.701.358.46.537 1.12.537 1.982v3.339h-1.051v-3.558c0-.475-.135-.844-.406-1.106-.262-.263-.605-.395-1.029-.395-.467 0-.843.157-1.128.471-.277.307-.416.712-.416 1.216v3.372H276.4Z"/><g clip-path="url(#h)"><path fill="#fff" fill-opacity=".5" d="M361.679 147.952c.624 0 1.194-.095 1.711-.283a6.31 6.31 0 0 0 1.046-.505.609.609 0 0 1 .344-.098.66.66 0 0 1 .468.184l2.633 2.658a.737.737 0 0 0 .48.185.618.618 0 0 0 .455-.185.618.618 0 0 0 .185-.455.692.692 0 0 0-.185-.468l-2.658-2.657a.602.602 0 0 1-.196-.456c0-.123.032-.242.098-.357.205-.303.377-.652.517-1.046a5.512 5.512 0 0 0 .283-1.698 5.14 5.14 0 0 0-.394-2.018 5.906 5.906 0 0 0-1.12-1.673 5.035 5.035 0 0 0-1.649-1.095 5.004 5.004 0 0 0-2.018-.406c-.746 0-1.419.135-2.018.406a5.133 5.133 0 0 0-1.673 1.095 5.318 5.318 0 0 0-1.095 1.673c-.271.591-.406 1.264-.406 2.018 0 .747.135 1.42.406 2.018a5.343 5.343 0 0 0 1.095 1.637 5.633 5.633 0 0 0 1.673 1.144 5.464 5.464 0 0 0 2.018.382Zm-3.9-5.181c0-.549.102-1.058.307-1.525a3.72 3.72 0 0 1 .825-1.231 3.45 3.45 0 0 1 1.243-.837 4.005 4.005 0 0 1 1.525-.295c.534 0 1.038.098 1.514.295.459.197.869.476 1.23.837.337.336.62.747.849 1.231.197.475.296.984.296 1.525a3.86 3.86 0 0 1-.296 1.514 4.237 4.237 0 0 1-.849 1.23 3.709 3.709 0 0 1-1.23.837 3.73 3.73 0 0 1-1.514.308 3.754 3.754 0 0 1-1.525-.308 3.32 3.32 0 0 1-1.243-.837 3.638 3.638 0 0 1-.825-1.23 3.672 3.672 0 0 1-.307-1.514Z"/></g><g clip-path="url(#i)"><path fill="#fff" fill-opacity=".65" d="M408.56 147.697c.245 0 .477.085.697.256.22.171.33.367.33.587a.829.829 0 0 1-.257.605.796.796 0 0 1-.587.238h-6.782a3.548 3.548 0 0 1-1.283 2.072 3.628 3.628 0 0 1-2.329.806 3.698 3.698 0 0 1-2.346-.806 3.543 3.543 0 0 1-1.283-2.072h-3.062a.857.857 0 0 1-.604-.238.86.86 0 0 1-.239-.605c0-.232.08-.428.239-.587a.825.825 0 0 1 .604-.256h2.879a3.54 3.54 0 0 1 1.283-2.072 3.69 3.69 0 0 1 2.346-.806c.88 0 1.656.268 2.328.806a3.54 3.54 0 0 1 1.283 2.072h6.783Zm-17.745-7.993c0-.22.08-.397.239-.532a.903.903 0 0 1 .604-.201h6.691a3.55 3.55 0 0 1 1.284-2.072 3.623 3.623 0 0 1 2.328-.806c.867 0 1.631.263 2.291.788a4.15 4.15 0 0 1 1.43 1.998h3.061a.8.8 0 0 1 .587.238.771.771 0 0 1 .257.587.86.86 0 0 1-.239.605.818.818 0 0 1-.605.238h-3.061a3.51 3.51 0 0 1-1.301 2.072 3.622 3.622 0 0 1-2.329.806 3.62 3.62 0 0 1-2.328-.806 3.54 3.54 0 0 1-1.283-2.072h-6.783a.857.857 0 0 1-.604-.238.86.86 0 0 1-.239-.605Z"/></g><g clip-path="url(#j)"><path fill="#000" d="M42.37 217.298c7.992 0 14.47-6.478 14.47-14.469 0-7.992-6.478-14.47-14.47-14.47-7.99 0-14.47 6.478-14.47 14.47 0 7.991 6.48 14.469 14.47 14.469Z"/><path fill="#fff" d="M51.276 196.903c-.326-.246-.716-.581-1.426-.665-.665-.084-1.343.342-1.802.624-.459.281-1.325 1.109-1.683 1.361-.358.252-1.275.486-2.751 1.332-1.476.846-7.267 4.395-7.267 4.395l1.508.018-6.72 3.306h.672l-.967.701s.854.217 1.57-.216v.198s8-3.011 9.546-2.231l-.942.263c.081 0 1.6.097 1.6.097s.051.906.968 1.487c.917.576.936.894.936.894s-.477.186-.477.42c0 0 .704-.204 1.356-.186a5.41 5.41 0 0 1 1.225.186s-.05-.252-.685-.42c-.64-.174-1.261-.828-1.57-1.188a1.621 1.621 0 0 1-.256-1.643c.22-.545.985-.846 2.568-1.625 1.865-.924 2.292-1.608 2.556-2.142.264-.533.653-1.595.873-2.093.276-.642.615-.984.898-1.188.276-.204 1.538-.654 1.538-.654s-.96-.797-1.268-1.031Z"/></g><path fill="#fff" fill-opacity=".5" d="m77.758 185.764-2.365-3.2h-.948l2.872-3.651h1.764l-2.58 3.275-.02-.666 3.135 4.242h-1.858Zm-4.505 0v-6.851h1.539v6.851h-1.54Zm10 .179c-.644 0-1.192-.119-1.642-.357a2.444 2.444 0 0 1-1.014-1.032c-.232-.445-.347-.97-.347-1.577v-4.064h1.539v4.12c0 .301.056.563.169.789.119.219.285.388.497.506.22.119.485.179.798.179.32 0 .585-.06.798-.179.219-.118.385-.287.497-.506.113-.219.17-.482.17-.789v-4.12h1.538v4.064c0 .607-.115 1.132-.347 1.577-.231.444-.57.788-1.013 1.032-.445.238-.992.357-1.643.357Zm7.08 0c-.62 0-1.142-.097-1.567-.291-.426-.2-.748-.47-.967-.807a2.16 2.16 0 0 1-.328-1.183h1.492c0 .175.047.338.14.488.1.15.251.272.451.366.2.088.46.132.78.132.287 0 .528-.038.722-.113a.979.979 0 0 0 .441-.31c.1-.138.15-.294.15-.469a.588.588 0 0 0-.281-.516c-.188-.132-.491-.216-.91-.254l-.517-.047c-.682-.056-1.226-.269-1.633-.638-.407-.369-.61-.857-.61-1.464 0-.438.103-.817.31-1.136.212-.319.507-.563.882-.732.375-.175.82-.263 1.333-.263.538 0 .998.094 1.38.282.387.181.685.441.891.779.206.332.31.723.31 1.173H91.3a.896.896 0 0 0-.488-.807 1.194 1.194 0 0 0-.591-.131c-.225 0-.416.037-.573.112a.778.778 0 0 0-.338.31.788.788 0 0 0-.112.413.71.71 0 0 0 .206.507c.138.144.363.228.676.253l.526.047c.5.044.941.153 1.323.329.382.169.679.403.892.704.219.294.328.653.328 1.079 0 .438-.116.823-.347 1.154-.226.326-.548.579-.967.761-.42.181-.92.272-1.502.272Zm3.474-.179 2.262-6.851h2.487l2.346 6.851h-1.595l-1.896-5.791.488.198h-1.21l.506-.198-1.849 5.791h-1.54Zm1.717-1.698.47-1.277h2.684l.479 1.277h-3.633Zm6.554 1.698v-6.851h2.121l1.567 3.848h.179l1.548-3.848h2.159v6.851h-1.52v-5.847l.215.019-1.811 4.439h-1.464l-1.821-4.439.235-.019v5.847h-1.408Zm8.745 0 2.261-6.851h2.488l2.346 6.851h-1.595l-1.896-5.791.488.198h-1.211l.507-.198-1.849 5.791h-1.539Zm1.717-1.698.469-1.277h2.685l.478 1.277h-3.632Z"/><path fill="#fff" d="m81.274 205.329-3.942-5.335h-1.58l4.787-6.085h2.941l-4.302 5.46-.031-1.111 5.225 7.071h-3.098Zm-7.508 0v-11.42h2.565v11.42h-2.565Zm14.747.297c-1.032 0-1.903-.162-2.612-.485-.71-.334-1.246-.782-1.611-1.345-.366-.574-.548-1.231-.548-1.971h2.487c0 .292.078.563.235.813.167.25.417.454.75.61.334.146.767.219 1.3.219.479 0 .88-.062 1.204-.188.323-.125.568-.297.735-.516.167-.229.25-.49.25-.782a.98.98 0 0 0-.47-.86c-.312-.219-.818-.36-1.517-.423l-.86-.078c-1.137-.094-2.044-.448-2.722-1.064-.678-.615-1.017-1.428-1.017-2.44 0-.73.172-1.361.517-1.893.354-.532.844-.938 1.47-1.22.626-.292 1.366-.438 2.221-.438.897 0 1.664.157 2.3.469.646.303 1.142.736 1.486 1.299.344.553.516 1.204.516 1.955h-2.503a1.489 1.489 0 0 0-.814-1.345c-.26-.146-.588-.219-.985-.219-.375 0-.693.062-.954.188-.25.125-.438.297-.563.516a1.31 1.31 0 0 0-.188.688c0 .323.115.605.344.845.23.24.605.38 1.127.422l.876.078c.834.073 1.57.256 2.205.548.636.281 1.132.673 1.486 1.173.365.49.548 1.09.548 1.799 0 .73-.193 1.371-.579 1.924-.375.542-.912.965-1.611 1.267-.699.303-1.533.454-2.503.454Zm5.991-.297v-11.42h3.535l2.613 6.414h.297l2.581-6.414h3.598v11.42h-2.534v-9.746l.36.031-3.019 7.399h-2.44l-3.035-7.399.39-.031v9.746h-2.346Z"/><path fill="#fff" fill-opacity=".75" d="M75.75 223.884c-.526 0-.974-.088-1.343-.263a1.967 1.967 0 0 1-.845-.76c-.194-.326-.29-.711-.29-1.155h.844c0 .213.05.429.15.648.1.213.27.394.507.544.238.144.563.216.976.216.545 0 .948-.116 1.211-.347.263-.238.394-.51.394-.817a.932.932 0 0 0-.356-.741c-.232-.207-.57-.332-1.014-.376l-.62-.056c-.588-.05-1.054-.228-1.398-.535-.344-.313-.516-.754-.516-1.323 0-.395.094-.729.281-1.005.188-.281.45-.494.789-.638.338-.15.735-.225 1.192-.225.456 0 .85.084 1.182.253.338.163.598.401.78.714.18.312.271.691.271 1.135h-.844c0-.219-.047-.428-.141-.629a1.166 1.166 0 0 0-.45-.506c-.2-.132-.467-.197-.798-.197-.294 0-.548.05-.76.15a1.11 1.11 0 0 0-.48.394.99.99 0 0 0-.159.554c0 .269.091.503.272.704.188.2.473.316.855.347l.619.056c.65.063 1.173.26 1.567.591.395.326.592.77.592 1.333 0 .388-.1.729-.3 1.023-.2.288-.486.513-.855.676-.369.156-.807.235-1.314.235Zm-.404 1.22v-1.37h.807v1.37h-.807Zm-.038-7.603v-1.37h.807v1.37h-.807Zm4.1 4.768v-1.107l2.815-4.289.63.497-2.629 4.017.085.169h4.448v.713h-5.35Zm3.604 1.624v-4.852h.844v4.852h-.844Zm5.272.169c-.513 0-.95-.1-1.314-.3a2.076 2.076 0 0 1-.826-.798 2.157 2.157 0 0 1-.281-1.079h.882c0 .425.138.763.413 1.013.282.25.657.376 1.126.376.313 0 .582-.057.808-.169a1.25 1.25 0 0 0 .535-.479c.131-.213.197-.46.197-.741 0-.426-.141-.77-.423-1.033-.281-.263-.65-.394-1.107-.394-.17 0-.329.022-.479.066a1.228 1.228 0 0 0-.385.169l-.488-.751 2.647-1.962-.094-.169h-3.36v-.77h4.214v1.249l-2.215 1.624-.675.009c.087-.044.212-.081.375-.113a2.38 2.38 0 0 1 .441-.047c.513 0 .951.094 1.314.282.363.188.638.438.826.751.194.313.291.654.291 1.023v.131c0 .363-.094.707-.282 1.033a2.122 2.122 0 0 1-.826.779c-.356.2-.794.3-1.314.3Zm3.912-.169v-1.145h1.089v1.145h-1.089Zm3.63 0 2.9-5.997-.047-.085h-3.867v-.77h4.73v1.08l-2.778 5.772h-.938Zm-1.014-4.937v-1.915h.751v1.915h-.75Zm8.427 4.937v-6.401l.413.319h-1.971v-.77h2.459v6.852h-.901Zm-1.634 0v-.77h4.055v.77h-4.055Z"/><path fill="#0E7" d="M111.576 223.086v-4.843h.77v4.843h-.77Zm-1.858-2.065v-.713h4.486v.713h-4.486Zm8.586 3.06c-.582 0-1.055-.144-1.418-.432-.363-.288-.629-.685-.797-1.192-.169-.513-.254-1.101-.254-1.764v-.432c0-.695.091-1.295.272-1.802.182-.513.454-.908.817-1.183.369-.281.829-.422 1.38-.422.556 0 1.016.141 1.379.422.363.275.635.67.817 1.183.181.507.272 1.107.272 1.802v.432c0 .663-.084 1.251-.253 1.764-.169.507-.435.904-.798 1.192-.363.288-.836.432-1.417.432Zm0-.807c.362 0 .657-.097.882-.291.231-.201.4-.507.507-.92.106-.413.159-.939.159-1.577 0-.669-.056-1.211-.169-1.624-.106-.419-.275-.722-.507-.91-.225-.194-.516-.291-.872-.291-.357 0-.651.097-.883.291-.225.188-.394.488-.507.901-.106.413-.159.951-.159 1.614 0 .645.053 1.177.159 1.596.107.413.273.719.498.92.231.194.529.291.892.291Zm3.855.619v-1.145h1.089v1.145h-1.089Zm5.16.188c-.495 0-.911-.088-1.249-.263a2.123 2.123 0 0 1-.798-.723 3.391 3.391 0 0 1-.422-1.07 6.378 6.378 0 0 1-.122-1.267v-.46c0-1.045.272-1.855.817-2.431.544-.581 1.314-.872 2.309-.872.237 0 .441.006.61.018.175.013.359.032.553.057v.769a8.7 8.7 0 0 0-1.201-.075c-.563 0-1.011.107-1.342.319-.332.207-.57.51-.713.911-.138.394-.207.873-.207 1.436v1.257h-.225c.006-.463.094-.857.263-1.182a1.82 1.82 0 0 1 .732-.76c.313-.176.679-.263 1.098-.263.513 0 .938.1 1.276.3.338.194.592.463.76.807.169.344.254.736.254 1.174 0 .444-.091.841-.272 1.191a1.976 1.976 0 0 1-.807.826c-.351.201-.789.301-1.314.301Zm0-.789c.319 0 .591-.068.816-.206.232-.138.407-.322.526-.554.125-.231.187-.488.187-.769 0-.313-.053-.582-.159-.808a1.148 1.148 0 0 0-.498-.535c-.219-.125-.503-.187-.854-.187-.306 0-.582.062-.826.187a1.388 1.388 0 0 0-.582.526 1.542 1.542 0 0 0-.206.817c0 .287.053.547.16.779.106.231.275.416.506.553.238.132.548.197.93.197Zm5.911-6.438c.494 0 .907.087 1.238.263.338.175.604.419.798.732.2.306.341.66.423 1.06.087.401.131.823.131 1.267v.46c0 1.045-.272 1.859-.817 2.441-.544.575-1.314.863-2.308.863a8.548 8.548 0 0 1-1.164-.075v-.77c.2.025.388.044.563.057.181.012.394.018.638.018.563 0 1.011-.103 1.342-.309.332-.213.566-.517.704-.911.144-.4.216-.882.216-1.445v-1.258h.225c-.006.463-.097.86-.272 1.192-.169.325-.41.576-.723.751a2.21 2.21 0 0 1-1.098.263c-.513 0-.938-.097-1.276-.291a1.913 1.913 0 0 1-.76-.817 2.626 2.626 0 0 1-.254-1.173c0-.444.091-.842.272-1.192.182-.35.448-.626.798-.826.357-.2.798-.3 1.324-.3Zm0 .788c-.32 0-.595.069-.826.207a1.433 1.433 0 0 0-.526.553 1.66 1.66 0 0 0-.178.77c0 .313.053.585.159.817.107.225.269.4.488.525.226.125.513.188.864.188.306 0 .582-.06.826-.178.244-.126.435-.301.572-.526.144-.232.216-.507.216-.826 0-.288-.053-.547-.159-.779a1.176 1.176 0 0 0-.517-.544c-.231-.138-.538-.207-.919-.207Zm5.742 6.251 2.59-6.852h.713l-2.59 6.852h-.713Zm-.507-3.172c-.357 0-.648-.082-.873-.244a1.453 1.453 0 0 1-.488-.648c-.1-.269-.15-.56-.15-.873v-.244c0-.338.053-.638.159-.901.107-.269.272-.479.498-.629.225-.156.51-.234.854-.234.35 0 .635.078.854.234.225.15.391.36.497.629.107.263.16.563.16.901v.244c0 .313-.053.604-.16.873-.1.269-.259.485-.478.648-.219.162-.51.244-.873.244Zm0-.62c.288 0 .5-.103.638-.309.144-.213.216-.529.216-.948 0-.445-.072-.767-.216-.967-.144-.207-.357-.31-.638-.31-.282 0-.495.103-.639.31-.143.2-.215.519-.215.957 0 .419.068.735.206.948.144.213.36.319.648.319Zm4.28 3.886c-.357 0-.648-.081-.873-.244a1.453 1.453 0 0 1-.488-.648c-.1-.269-.151-.56-.151-.873v-.244c0-.338.054-.638.16-.901a1.31 1.31 0 0 1 .497-.628c.226-.157.51-.235.855-.235.35 0 .635.078.854.235.225.15.391.359.497.628.106.263.16.563.16.901v.244c0 .313-.054.604-.16.873-.1.269-.26.485-.479.648-.219.163-.51.244-.872.244Zm0-.62c.287 0 .5-.103.638-.309.144-.213.216-.529.216-.948 0-.444-.072-.767-.216-.967-.144-.206-.357-.31-.638-.31-.282 0-.495.104-.639.31-.144.2-.216.519-.216.957 0 .42.069.736.207.948.144.213.36.319.648.319Z"/><g clip-path="url(#k)" opacity=".5"><path fill="#fff" d="M275.488 180.296c-.148-.117-.324-.277-.646-.317-.301-.04-.609.162-.816.297-.208.134-.601.528-.763.648-.162.12-.577.231-1.246.634-.668.402-3.292 2.092-3.292 2.092l.683.009-3.044 1.573h.304l-.438.334s.387.103.711-.103v.095s3.625-1.434 4.325-1.063l-.427.126c.037 0 .726.046.726.046a.971.971 0 0 0 .438.708c.415.274.424.425.424.425s-.216.089-.216.2c0 0 .318-.097.614-.088.188.007.374.036.555.088 0 0-.023-.12-.31-.2-.288-.08-.572-.394-.711-.565a.803.803 0 0 1-.117-.782c.099-.26.447-.403 1.164-.774.845-.44 1.038-.765 1.158-1.019.119-.254.295-.76.395-.997.125-.305.279-.468.407-.565.128-.097.697-.311.697-.311s-.435-.38-.575-.491Z"/></g><g fill="#fff" clip-path="url(#l)" opacity=".5"><path d="M281.956 181.877a1.844 1.844 0 0 1 1.102-2.364l.631 1.733.631 1.733a1.845 1.845 0 0 1-2.364-1.102ZM286.679 184.095a1.845 1.845 0 0 1-1.103 2.364l-.63-1.733-.631-1.733a1.844 1.844 0 0 1 2.364 1.102ZM282.976 186.684a1.844 1.844 0 0 1-.227-2.598l1.413 1.185 1.412 1.186a1.844 1.844 0 0 1-2.598.227Z"/><path d="M285.652 179.299c.78.655.882 1.818.227 2.598l-1.413-1.185-1.413-1.186a1.845 1.845 0 0 1 2.599-.227Z"/></g><g clip-path="url(#m)" opacity=".5"><path fill="#fff" d="m299.9 178.13-3.054 2.751a1.736 1.736 0 0 1-1.155.444l-.911.002-.003-3.197h-1.646v9.137h.898c.502 0 .97-.264 1.216-.697l.005-.008c.163-.29.245-.864.229-1.255-.036-.895-.181-1.127-.181-1.127-.03.613-.677.646-.677.646.46-.435.209-.764.209-.764-.814.574-1.017-.039-1.033-.095.026.022.257.214.698-.384.465-.632 1.086-1.685 1.481-1.956.395-.272.771-.249.771-.249s.216-.29.788-.532c.571-.239.937.112.937.112-.584.468-1.377 1.235-1.422 2.334-.035.89 1.9 2.416 1.56 4.671a3.308 3.308 0 0 0 .215-1.66c-.056-.512-.389-1.582-.389-1.582l1.858 2.545h2.055l-4.016-5.468 4.016-3.668H299.9Z"/></g><g clip-path="url(#n)" opacity=".5"><path fill="#fff" d="M315.953 179.359h-2.458l-7.375 7.375h4.916l4.917-7.375Z"/></g><path fill="#fff" d="M257.458 205.072v-2.126c0-.432.075-.812.225-1.141.15-.338.39-.633.718-.887.338-.262.779-.506 1.324-.732l1.717-.69c.432-.178.742-.398.929-.661.188-.272.282-.61.282-1.014 0-.403-.136-.737-.408-.999-.263-.263-.643-.395-1.141-.395-.488 0-.868.136-1.14.409-.272.272-.408.638-.408 1.098h-2.225c0-.648.141-1.23.423-1.746a2.984 2.984 0 0 1 1.267-1.239c.563-.3 1.257-.45 2.083-.45.826 0 1.516.15 2.07.45.563.291.99.681 1.281 1.169a3.1 3.1 0 0 1 .437 1.619v.183c0 .797-.23 1.464-.69 1.999-.46.535-1.141.981-2.042 1.337l-1.703.704c-.291.122-.493.249-.606.38-.103.122-.154.287-.154.493v.732l-.521-.464h5.73v1.971h-7.448Zm8.951-1.957v-2.408l3.857-6.194 1.788 1.168-3.294 5.308.197.295h6.11v1.831h-8.658Zm5.364 1.971v-7.406h2.14v7.406h-2.14Zm8.374.295c-.826 0-1.549-.122-2.169-.366-.619-.244-1.098-.6-1.436-1.07-.337-.469-.506-1.041-.506-1.717 0-.423.07-.803.211-1.141.141-.338.342-.624.605-.858.263-.235.568-.418.915-.549v-.184a2.634 2.634 0 0 1-.732-.45 2.246 2.246 0 0 1-.521-.718 2.464 2.464 0 0 1-.183-.986c0-.638.165-1.163.493-1.576.338-.413.793-.723 1.366-.93.582-.215 1.234-.323 1.957-.323.741 0 1.393.108 1.956.323.573.207 1.024.517 1.352.93.338.413.507.938.507 1.576 0 .376-.061.704-.183.986a2.07 2.07 0 0 1-.507.718 2.583 2.583 0 0 1-.746.45v.184c.357.131.662.314.915.549.263.234.465.52.605.858.151.329.226.709.226 1.141 0 .676-.174 1.248-.521 1.717-.338.47-.817.826-1.436 1.07-.61.244-1.333.366-2.168.366Zm0-1.9c.375 0 .703-.057.985-.169a1.45 1.45 0 0 0 .662-.507c.159-.225.239-.507.239-.845 0-.328-.08-.605-.239-.83a1.35 1.35 0 0 0-.648-.507 2.675 2.675 0 0 0-.999-.169c-.376 0-.709.056-1 .169a1.437 1.437 0 0 0-.662.507c-.15.225-.225.502-.225.83 0 .338.08.62.239.845.16.225.38.394.662.507.282.112.61.169.986.169Zm0-4.731c.488 0 .872-.098 1.154-.295.282-.197.422-.493.422-.887 0-.385-.14-.676-.422-.873-.282-.197-.666-.296-1.154-.296-.488 0-.873.099-1.155.296-.281.197-.422.488-.422.873 0 .394.141.69.422.887.291.197.676.295 1.155.295Zm5.431 6.336v-2.52h2.478v2.52h-2.478Zm7.144 0v-8.757l.619.478h-3.083v-1.999h4.773v10.278h-2.309Zm-2.703 0v-1.999h7.307v1.999h-7.307Zm9.345-.014v-2.126c0-.432.075-.812.225-1.141.15-.338.39-.633.718-.887.338-.262.779-.506 1.323-.732l1.718-.69c.432-.178.742-.398.929-.661.188-.272.282-.61.282-1.014 0-.403-.136-.737-.408-.999-.263-.263-.643-.395-1.141-.395-.488 0-.868.136-1.14.409-.272.272-.408.638-.408 1.098h-2.225c0-.648.141-1.23.422-1.746a2.987 2.987 0 0 1 1.268-1.239c.563-.3 1.257-.45 2.083-.45.826 0 1.516.15 2.07.45.563.291.99.681 1.281 1.169a3.1 3.1 0 0 1 .436 1.619v.183c0 .797-.23 1.464-.69 1.999-.459.535-1.14.981-2.041 1.337l-1.703.704c-.291.122-.493.249-.606.38-.103.122-.155.287-.155.493v.732l-.521-.464h5.73v1.971h-7.447Zm13.273.281c-.817 0-1.525-.155-2.126-.464a3.555 3.555 0 0 1-1.394-1.282 3.397 3.397 0 0 1-.478-1.773h2.224c0 .319.075.6.225.844.16.244.376.432.648.563.272.132.582.198.929.198.366 0 .685-.076.957-.226.273-.159.479-.37.62-.633.141-.272.211-.578.211-.915 0-.348-.07-.653-.211-.916a1.575 1.575 0 0 0-.62-.647c-.262-.16-.577-.239-.943-.239-.347 0-.666.07-.957.211-.282.141-.488.319-.62.535h-2.168l.521-5.801h6.35v1.971h-5.379l.831-.591-.31 3.337-.478-.141c.187-.225.394-.427.619-.606.235-.178.512-.319.831-.422a3.449 3.449 0 0 1 1.14-.169c.751 0 1.394.155 1.929.465.544.3.962.708 1.253 1.225.291.506.436 1.074.436 1.703v.183a3.42 3.42 0 0 1-.478 1.76c-.31.544-.765.985-1.366 1.323-.601.338-1.333.507-2.196.507Z"/><path fill="#fff" fill-opacity=".75" d="M271.248 223.859c-.525 0-.973-.088-1.342-.263a1.964 1.964 0 0 1-.845-.761c-.194-.325-.291-.71-.291-1.154h.845c0 .213.05.429.15.648.1.212.269.394.507.544.238.144.563.216.976.216.545 0 .948-.116 1.211-.347.263-.238.394-.51.394-.817a.933.933 0 0 0-.356-.741c-.232-.207-.57-.332-1.014-.376l-.619-.056c-.589-.05-1.055-.229-1.399-.535-.344-.313-.516-.754-.516-1.324 0-.394.094-.728.281-1.004.188-.281.451-.494.789-.638.338-.15.735-.225 1.192-.225.457 0 .851.084 1.182.253.338.163.598.401.779.713.182.313.273.692.273 1.136h-.845c0-.219-.047-.428-.141-.629a1.177 1.177 0 0 0-.45-.507c-.201-.131-.467-.197-.798-.197-.294 0-.548.05-.76.151a1.098 1.098 0 0 0-.479.394.982.982 0 0 0-.16.553c0 .27.091.504.272.704.188.201.473.316.855.348l.619.056c.651.063 1.173.26 1.567.591.395.326.592.77.592 1.333 0 .388-.1.729-.301 1.023-.2.288-.485.513-.854.676-.369.156-.807.235-1.314.235Zm-.403 1.22v-1.371h.807v1.371h-.807Zm-.038-7.603v-1.37h.807v1.37h-.807Zm6.906 6.58c-.494 0-.91-.088-1.248-.263a2.108 2.108 0 0 1-.798-.723 3.367 3.367 0 0 1-.422-1.07 6.305 6.305 0 0 1-.122-1.267v-.46c0-1.045.272-1.855.816-2.431.545-.582 1.314-.873 2.309-.873a8.72 8.72 0 0 1 1.164.076v.769a8.68 8.68 0 0 0-1.202-.075c-.563 0-1.01.106-1.342.319a1.72 1.72 0 0 0-.713.911c-.138.394-.206.872-.206 1.436v1.257h-.226c.007-.463.094-.857.263-1.182.175-.332.419-.585.732-.761.313-.175.679-.262 1.098-.262.513 0 .939.1 1.277.3.338.194.591.463.76.807.169.344.253.735.253 1.173 0 .445-.09.842-.272 1.192-.181.351-.45.626-.807.826-.35.201-.788.301-1.314.301Zm0-.789c.319 0 .591-.069.817-.206.231-.138.406-.322.525-.554.125-.232.188-.488.188-.77 0-.312-.053-.582-.16-.807a1.145 1.145 0 0 0-.497-.535c-.219-.125-.504-.188-.854-.188-.307 0-.582.063-.826.188a1.388 1.388 0 0 0-.582.526 1.532 1.532 0 0 0-.207.816c0 .288.054.548.16.779.106.232.275.416.507.554.238.132.547.197.929.197Zm3.921 2.074-.722-.272.872-2.421.742.281-.892 2.412Zm4.606-1.304c-.513 0-.951-.1-1.314-.3a2.084 2.084 0 0 1-.826-.798 2.155 2.155 0 0 1-.282-1.08h.883c0 .426.137.764.413 1.014.281.25.657.375 1.126.375.313 0 .582-.056.807-.168.232-.113.41-.273.535-.479.132-.213.197-.46.197-.742 0-.425-.141-.769-.422-1.032-.282-.263-.651-.394-1.108-.394-.169 0-.328.022-.478.065a1.269 1.269 0 0 0-.385.169l-.488-.75 2.647-1.962-.094-.169h-3.36v-.77h4.214v1.249l-2.215 1.623-.676.01c.088-.044.213-.082.375-.113.163-.031.31-.047.442-.047.513 0 .951.094 1.314.282.362.187.638.438.826.751.193.312.29.654.29 1.023v.131c0 .363-.093.707-.281 1.033a2.124 2.124 0 0 1-.826.779c-.357.2-.795.3-1.314.3Zm6.343 0c-.513 0-.951-.1-1.314-.3a2.077 2.077 0 0 1-.826-.798 2.155 2.155 0 0 1-.282-1.08h.882c0 .426.138.764.413 1.014.282.25.657.375 1.127.375.312 0 .582-.056.807-.168.231-.113.41-.273.535-.479.131-.213.197-.46.197-.742 0-.425-.141-.769-.422-1.032-.282-.263-.651-.394-1.108-.394-.169 0-.328.022-.479.065a1.263 1.263 0 0 0-.384.169l-.489-.75 2.647-1.962-.094-.169h-3.36v-.77h4.215v1.249l-2.216 1.623-.675.01c.087-.044.212-.082.375-.113s.31-.047.441-.047c.513 0 .951.094 1.314.282.363.187.638.438.826.751.194.312.291.654.291 1.023v.131c0 .363-.094.707-.281 1.033a2.124 2.124 0 0 1-.826.779c-.357.2-.795.3-1.314.3Zm3.808-1.793v-1.107l2.816-4.29.629.498-2.628 4.017.084.169h4.449v.713h-5.35Zm3.604 1.624v-4.852h.845v4.852h-.845Zm2.842 0v-1.145h1.089v1.145h-1.089Zm5.16.188c-.495 0-.911-.088-1.249-.263a2.112 2.112 0 0 1-.797-.723 3.392 3.392 0 0 1-.423-1.07 6.378 6.378 0 0 1-.122-1.267v-.46c0-1.045.272-1.855.817-2.431.544-.582 1.314-.873 2.309-.873.237 0 .441.007.61.019.175.013.359.031.553.057v.769a8.7 8.7 0 0 0-1.201-.075c-.563 0-1.01.106-1.342.319-.332.207-.569.51-.713.911-.138.394-.207.872-.207 1.436v1.257h-.225c.006-.463.094-.857.263-1.182.175-.332.419-.585.732-.761.313-.175.679-.262 1.098-.262.513 0 .938.1 1.276.3.338.194.592.463.761.807.169.344.253.735.253 1.173 0 .445-.091.842-.272 1.192a1.976 1.976 0 0 1-.807.826c-.351.201-.789.301-1.314.301Zm0-.789c.319 0 .591-.069.816-.206.232-.138.407-.322.526-.554.125-.232.187-.488.187-.77 0-.312-.053-.582-.159-.807a1.143 1.143 0 0 0-.498-.535c-.219-.125-.503-.188-.854-.188-.306 0-.582.063-.826.188a1.38 1.38 0 0 0-.581.526 1.532 1.532 0 0 0-.207.816c0 .288.053.548.16.779.106.232.275.416.506.554.238.132.548.197.93.197Zm6.07.77c-.513 0-.951-.1-1.314-.3a2.084 2.084 0 0 1-1.107-1.878h.882c0 .426.138.764.413 1.014.281.25.657.375 1.126.375.313 0 .582-.056.807-.168.232-.113.41-.273.535-.479.132-.213.197-.46.197-.742 0-.425-.14-.769-.422-1.032s-.651-.394-1.107-.394c-.169 0-.329.022-.479.065a1.28 1.28 0 0 0-.385.169l-.488-.75 2.647-1.962-.094-.169h-3.36v-.77h4.214v1.249l-2.215 1.623-.676.01a1.49 1.49 0 0 1 .376-.113 2.37 2.37 0 0 1 .441-.047c.513 0 .951.094 1.314.282.363.187.638.438.826.751.194.312.291.654.291 1.023v.131c0 .363-.094.707-.282 1.033a2.124 2.124 0 0 1-.826.779c-.357.2-.795.3-1.314.3Z"/><g filter="url(#o)"><circle cx="342.322" cy="202.828" r="12.514" fill="#fff" fill-opacity=".1"/></g><g clip-path="url(#p)"><path fill="#fff" fill-opacity=".65" d="M346.158 196.746c.348-.117.673-.175.975-.175.453 0 .808.128 1.063.384.256.255.383.609.383 1.062 0 .256-.058.575-.174.959l-3.345 10.315c-.14.441-.296.778-.471 1.01-.174.233-.348.349-.522.349-.36 0-.657-.476-.889-1.429l-.592-2.422c-.151-.627-.442-1.237-.872-1.829a6.679 6.679 0 0 0-1.533-1.551c-.592-.43-1.202-.714-1.829-.854l-2.422-.592c-.465-.116-.819-.25-1.063-.401-.244-.163-.366-.331-.366-.505 0-.175.11-.343.331-.506.232-.174.569-.331 1.011-.47l10.315-3.345Z"/></g><rect width="25.029" height="25.029" x="360.312" y="190.314" fill="#fff" fill-opacity=".1" rx="12.514"/><g fill="#fff" fill-opacity=".65" clip-path="url(#q)"><path d="M372.812 206.866a1.114 1.114 0 0 0 .821-.331l2.809-2.854c.218-.222.344-.519.351-.831a1.215 1.215 0 0 0-.351-.832 1.207 1.207 0 0 0-.829-.331 1.104 1.104 0 0 0-.807.345l-.576.571a.177.177 0 0 1-.105.049.239.239 0 0 1-.113-.049.135.135 0 0 1-.063-.12v-4.749a1.105 1.105 0 0 0-.351-.81 1.113 1.113 0 0 0-1.252-.264 1.1 1.1 0 0 0-.37.264 1.11 1.11 0 0 0-.344.81v4.749a.126.126 0 0 1-.07.12.235.235 0 0 1-.112.049.143.143 0 0 1-.098-.049l-.583-.571a1.108 1.108 0 0 0-.808-.345 1.21 1.21 0 0 0-.828.331c-.22.221-.346.519-.351.832.007.312.132.609.351.831l2.808 2.854a1.13 1.13 0 0 0 .871.331Z"/><path d="M372.812 208.522a4.96 4.96 0 0 1-3.199-1.15 4.996 4.996 0 0 1-1.716-2.944 1.059 1.059 0 0 0-1.011-.916h-.063a1.052 1.052 0 0 0-1.004.791c-.038.15-.043.305-.014.456a7.146 7.146 0 0 0 2.441 4.229 7.096 7.096 0 0 0 4.58 1.662 7.087 7.087 0 0 0 4.581-1.66 7.144 7.144 0 0 0 2.44-4.231 1.045 1.045 0 0 0-.228-.873 1.04 1.04 0 0 0-.819-.374h-.07a1.05 1.05 0 0 0-1.025.902 4.996 4.996 0 0 1-1.703 2.946 4.962 4.962 0 0 1-3.19 1.162Z"/></g><path fill="#fff" fill-opacity=".5" d="M395.944 210.156a1.47 1.47 0 0 1-.436-1.086c0-.448.145-.817.436-1.106l5.168-5.155-5.168-5.136a1.58 1.58 0 0 1-.436-1.106c0-.434.145-.809.436-1.125.316-.29.686-.435 1.109-.435.435 0 .811.145 1.128.435l6.277 6.261c.291.316.436.691.436 1.126 0 .421-.145.79-.436 1.106l-6.277 6.221a1.515 1.515 0 0 1-2.237 0Z"/><path stroke="#fff" stroke-opacity=".1" stroke-width=".782" d="M27.901 234.759h381.686"/><path fill="#F06" d="M42.37 281.941c7.992 0 14.47-6.478 14.47-14.47 0-7.991-6.478-14.469-14.47-14.469-7.99 0-14.47 6.478-14.47 14.469 0 7.992 6.48 14.47 14.47 14.47Z"/><path fill="#fff" d="M42.37 261.872c2.044 0 3.7-.906 3.7-2.024 0-1.117-1.656-2.023-3.7-2.023-2.042 0-3.699.906-3.699 2.023 0 1.118 1.657 2.024 3.7 2.024ZM42.37 277.118c2.044 0 3.7-.906 3.7-2.024 0-1.117-1.656-2.023-3.7-2.023-2.042 0-3.699.906-3.699 2.023 0 1.118 1.657 2.024 3.7 2.024ZM37.215 264.673c1.022-1.664 1.015-3.466-.015-4.026-1.03-.559-2.692.337-3.714 2.001-1.022 1.664-1.015 3.466.015 4.025 1.03.559 2.693-.336 3.714-2ZM51.254 272.295c1.022-1.664 1.016-3.466-.014-4.025-1.029-.559-2.691.337-3.713 2.001-1.021 1.664-1.015 3.466.014 4.025 1.029.559 2.691-.337 3.713-2.001ZM37.2 274.295c1.03-.559 1.037-2.361.016-4.025-1.022-1.664-2.685-2.559-3.715-2-1.03.559-1.036 2.361-.014 4.025 1.021 1.664 2.684 2.56 3.714 2ZM51.241 266.674c1.03-.559 1.035-2.361.014-4.025-1.022-1.664-2.684-2.56-3.713-2.001-1.03.559-1.035 2.36-.014 4.024 1.022 1.664 2.684 2.56 3.713 2.002Z"/><path fill="#fff" fill-opacity=".5" d="M74.604 248.445v-1.332h1.23c.238 0 .44-.047.61-.141a.98.98 0 0 0 .403-.394c.094-.176.141-.376.141-.601 0-.238-.047-.441-.14-.61a.908.908 0 0 0-.404-.394 1.237 1.237 0 0 0-.61-.141h-1.23v-1.333h1.155c.582 0 1.08.097 1.492.291.42.194.738.469.957.826.226.357.338.785.338 1.286v.15c0 .488-.112.914-.338 1.276a2.142 2.142 0 0 1-.957.826c-.413.194-.91.291-1.492.291h-1.155Zm-1.351 1.962v-6.908h1.539v6.908h-1.54Zm9.826.178c-.619 0-1.16-.106-1.623-.319a3.422 3.422 0 0 1-1.136-.854 3.804 3.804 0 0 1-.676-1.154 3.62 3.62 0 0 1-.216-1.192v-.207c0-.425.076-.845.226-1.258.156-.419.388-.797.694-1.135a3.318 3.318 0 0 1 1.145-.807c.457-.207.986-.31 1.587-.31.6 0 1.129.103 1.586.31.457.2.838.469 1.145.807.306.338.538.716.694 1.135.157.413.235.833.235 1.258v.207c0 .381-.075.779-.225 1.192-.15.413-.376.797-.676 1.154-.3.35-.682.635-1.145.854-.457.213-.995.319-1.615.319Zm0-1.436c.326 0 .617-.056.873-.169.263-.112.485-.269.667-.469.188-.2.328-.432.422-.694.094-.263.14-.545.14-.845 0-.319-.05-.61-.15-.873a1.872 1.872 0 0 0-.422-.695c-.181-.2-.4-.353-.657-.46a2.268 2.268 0 0 0-.873-.159c-.325 0-.616.053-.872.159-.257.107-.48.26-.667.46-.181.194-.319.426-.413.695-.094.263-.14.554-.14.873 0 .3.046.582.14.845.094.262.232.494.413.694.188.2.41.357.667.469.256.113.547.169.873.169Zm5.109 1.258v-6.852h1.539v6.852h-1.54Zm1.351 0v-1.352h2.872v1.352H89.54Zm8.67 0-2.366-3.201h-.948l2.872-3.651h1.764l-2.58 3.276-.02-.666 3.135 4.242h-1.858Zm-4.506 0v-6.852h1.54v6.852h-1.54Zm6.609 0 2.262-6.852h2.487l2.347 6.852h-1.596l-1.896-5.791.488.197h-1.211l.507-.197-1.849 5.791h-1.539Zm1.718-1.699.469-1.276h2.684l.479 1.276h-3.632Zm7.905 1.737v-1.436h1.276c.319 0 .607-.047.863-.141.257-.1.476-.238.657-.413.182-.182.32-.398.413-.648.094-.256.141-.538.141-.845a2.42 2.42 0 0 0-.141-.854 1.689 1.689 0 0 0-1.07-1.032 2.492 2.492 0 0 0-.863-.141h-1.276v-1.436h1.192c.619 0 1.16.091 1.623.272.463.182.851.429 1.164.742.313.313.544.672.695 1.079.156.401.234.823.234 1.267v.207c0 .413-.078.822-.234 1.229a3.168 3.168 0 0 1-.695 1.089 3.504 3.504 0 0 1-1.164.77c-.463.194-1.004.291-1.623.291h-1.192Zm-1.352 0v-6.946h1.539v6.946h-1.539Zm10.899.14c-.619 0-1.161-.106-1.624-.319a3.424 3.424 0 0 1-1.135-.854 3.788 3.788 0 0 1-.676-1.154 3.618 3.618 0 0 1-.216-1.192v-.207c0-.425.075-.845.225-1.258a3.5 3.5 0 0 1 .695-1.135 3.31 3.31 0 0 1 1.145-.807c.457-.207.985-.31 1.586-.31.601 0 1.13.103 1.586.31.457.2.839.469 1.145.807a3.5 3.5 0 0 1 .695 1.135c.156.413.235.833.235 1.258v.207c0 .381-.076.779-.226 1.192-.15.413-.375.797-.675 1.154-.301.35-.682.635-1.146.854-.456.213-.994.319-1.614.319Zm0-1.436c.326 0 .616-.056.873-.169.263-.112.485-.269.666-.469.188-.2.329-.432.423-.694.094-.263.141-.545.141-.845 0-.319-.051-.61-.151-.873a1.857 1.857 0 0 0-.422-.695c-.181-.2-.4-.353-.657-.46a2.268 2.268 0 0 0-.873-.159c-.325 0-.616.053-.873.159-.256.107-.478.26-.666.46a1.932 1.932 0 0 0-.413.695 2.579 2.579 0 0 0-.141.873c0 .3.047.582.141.845.094.262.231.494.413.694.188.2.41.357.666.469.257.113.548.169.873.169Zm6.277 1.258v-5.697h1.539v5.697h-1.539Zm-1.924-5.509v-1.343h5.397v1.343h-5.397Z"/><path fill="#fff" d="M76.018 270.034v-2.394h2.128c.532 0 1.011-.078 1.439-.234a3.267 3.267 0 0 0 1.095-.689c.302-.302.532-.662.688-1.079.157-.427.235-.897.235-1.408 0-.532-.078-1.006-.235-1.423a2.845 2.845 0 0 0-.688-1.064 2.903 2.903 0 0 0-1.095-.657 4.176 4.176 0 0 0-1.44-.235h-2.127v-2.393h1.987c1.032 0 1.934.151 2.706.454.772.302 1.418.714 1.94 1.235a4.95 4.95 0 0 1 1.157 1.799c.261.668.392 1.372.392 2.112v.344c0 .689-.13 1.372-.392 2.05a5.273 5.273 0 0 1-1.157 1.814c-.522.532-1.168.96-1.94 1.283-.772.323-1.674.485-2.706.485h-1.987Zm-2.252 0v-11.576h2.565v11.576h-2.565Zm17.227.234c-1.033 0-1.935-.177-2.707-.531a5.696 5.696 0 0 1-1.892-1.424 6.336 6.336 0 0 1-1.127-1.924 6.031 6.031 0 0 1-.36-1.987v-.344c0-.709.126-1.408.376-2.096.26-.699.646-1.33 1.157-1.893a5.543 5.543 0 0 1 1.909-1.345c.761-.344 1.642-.516 2.644-.516 1 0 1.882.172 2.643.516a5.543 5.543 0 0 1 1.909 1.345 5.824 5.824 0 0 1 1.157 1.893c.26.688.391 1.387.391 2.096v.344c0 .636-.125 1.299-.375 1.987a6.336 6.336 0 0 1-1.127 1.924c-.5.584-1.136 1.059-1.908 1.424-.761.354-1.658.531-2.69.531Zm0-2.393a3.58 3.58 0 0 0 1.454-.282 3.138 3.138 0 0 0 1.11-.782c.314-.333.548-.719.705-1.157.156-.438.234-.908.234-1.408 0-.532-.083-1.017-.25-1.455a3.114 3.114 0 0 0-.704-1.157 3.01 3.01 0 0 0-1.095-.767 3.774 3.774 0 0 0-1.454-.266c-.543 0-1.028.089-1.455.266a3.16 3.16 0 0 0-1.8 1.924 4.302 4.302 0 0 0-.234 1.455c0 .5.078.97.235 1.408.156.438.386.824.688 1.157.313.334.683.595 1.11.782a3.58 3.58 0 0 0 1.456.282Zm9.522 2.096v-9.495h2.566v9.495h-2.566Zm-3.207-9.182v-2.237h8.995v2.237h-8.995Z"/><path fill="#fff" fill-opacity=".75" d="M75.75 288.526c-.526 0-.974-.087-1.343-.263a1.954 1.954 0 0 1-.844-.76c-.195-.325-.291-.71-.291-1.154h.844c0 .213.05.428.15.647.1.213.27.395.507.545.238.144.563.216.976.216.545 0 .948-.116 1.211-.348.263-.237.394-.51.394-.816a.935.935 0 0 0-.356-.742c-.232-.206-.57-.331-1.014-.375l-.62-.056c-.588-.05-1.054-.229-1.398-.535-.344-.313-.516-.754-.516-1.324 0-.394.094-.729.281-1.004.188-.282.45-.494.789-.638.338-.15.735-.226 1.192-.226.457 0 .85.085 1.182.254.338.163.598.4.78.713.18.313.272.692.272 1.136H77.1c0-.219-.047-.429-.14-.629a1.175 1.175 0 0 0-.451-.507c-.2-.131-.467-.197-.798-.197-.294 0-.548.05-.76.15a1.118 1.118 0 0 0-.48.394.992.992 0 0 0-.159.554c0 .269.091.504.272.704.188.2.473.316.855.347l.62.057c.65.062 1.172.259 1.566.591.395.325.592.77.592 1.333 0 .388-.1.729-.3 1.023-.2.288-.486.513-.855.676-.369.156-.807.234-1.314.234Zm-.404 1.22v-1.37h.807v1.37h-.807Zm-.038-7.602v-1.37h.807v1.37h-.807Zm6.634 6.561c-.513 0-.951-.101-1.314-.301a2.069 2.069 0 0 1-.826-.798 2.151 2.151 0 0 1-.282-1.079h.883c0 .426.137.763.413 1.014.281.25.657.375 1.126.375.313 0 .582-.056.807-.169.232-.112.41-.272.535-.478.131-.213.197-.46.197-.742 0-.425-.14-.77-.422-1.032-.282-.263-.651-.395-1.108-.395-.169 0-.328.022-.478.066a1.276 1.276 0 0 0-.385.169l-.488-.751 2.647-1.961-.094-.169h-3.36v-.77h4.214v1.248l-2.215 1.624-.676.009c.088-.043.213-.081.375-.112.163-.031.31-.047.442-.047.512 0 .95.094 1.313.282.363.187.639.438.826.75.194.313.291.654.291 1.023v.132c0 .363-.094.707-.281 1.032a2.114 2.114 0 0 1-.826.779c-.357.2-.795.301-1.314.301Zm6.493 0c-.526 0-.973-.107-1.343-.32a2.253 2.253 0 0 1-.844-.854 2.328 2.328 0 0 1-.282-1.117h.864c0 .288.065.548.197.779.138.226.325.404.563.535.244.126.526.188.845.188.319 0 .597-.066.835-.197a1.447 1.447 0 0 0 .77-1.305c0-.287-.07-.547-.207-.779a1.45 1.45 0 0 0-.563-.553 1.634 1.634 0 0 0-.835-.207c-.232 0-.473.041-.723.122a1.378 1.378 0 0 0-.582.329h-.835l.347-3.642h3.66v.77h-3.134l.225-.31-.263 2.656-.244-.084c.113-.125.247-.232.404-.319a1.93 1.93 0 0 1 .535-.198c.2-.05.416-.075.647-.075.52 0 .96.11 1.324.329.362.213.638.491.826.835.187.338.281.692.281 1.061v.131a2.227 2.227 0 0 1-1.126 1.905c-.37.213-.817.32-1.342.32Zm3.761-.169v-1.145h1.09v1.145h-1.09Zm3.63 0 2.9-5.998-.047-.084h-3.867v-.77h4.73v1.079l-2.778 5.773h-.938Zm-1.014-4.937v-1.915h.751v1.915h-.75Zm8.887 5.124c-.495 0-.911-.087-1.249-.262a2.14 2.14 0 0 1-.798-.723 3.4 3.4 0 0 1-.422-1.07 6.386 6.386 0 0 1-.122-1.267v-.46c0-1.045.272-1.855.817-2.431.544-.582 1.314-.873 2.309-.873a8.163 8.163 0 0 1 1.163.075v.77a8.7 8.7 0 0 0-1.201-.075c-.563 0-1.011.106-1.342.319-.332.206-.57.51-.714.91-.137.395-.206.873-.206 1.436v1.258h-.225c.006-.463.094-.857.263-1.183.175-.331.419-.585.732-.76a2.21 2.21 0 0 1 1.098-.263c.513 0 .938.1 1.276.301.338.194.592.463.76.807.169.344.254.735.254 1.173 0 .444-.091.842-.272 1.192-.182.35-.451.626-.807.826-.351.2-.789.3-1.314.3Zm0-.788c.319 0 .591-.069.816-.207.232-.137.407-.322.526-.553.125-.232.187-.488.187-.77a1.88 1.88 0 0 0-.159-.807 1.143 1.143 0 0 0-.498-.535c-.219-.125-.503-.188-.854-.188-.306 0-.582.063-.826.188a1.388 1.388 0 0 0-.582.526 1.54 1.54 0 0 0-.206.816c0 .288.053.548.16.779.106.232.275.416.506.554.238.131.548.197.93.197Z"/><path fill="#0E7" d="M111.576 287.728v-4.843h.77v4.843h-.77Zm-1.858-2.064v-.714h4.486v.714h-4.486Zm8.342 2.872v-6.401l.413.319h-1.971v-.77h2.459v6.852h-.901Zm-1.633 0v-.77h4.054v.77h-4.054Zm5.732 0v-1.145h1.089v1.145h-1.089Zm2.729 0v-1.127c0-.275.04-.51.122-.704.087-.194.228-.369.422-.525.2-.157.469-.313.807-.469l1.267-.592c.338-.162.598-.356.779-.582.182-.231.273-.525.273-.882 0-.425-.129-.76-.385-1.004-.251-.244-.601-.366-1.051-.366-.445 0-.795.122-1.052.366-.25.244-.375.585-.375 1.023h-.882c0-.394.081-.757.244-1.089.169-.332.422-.594.76-.788.344-.201.779-.301 1.305-.301.525 0 .957.1 1.295.301.344.194.6.45.769.769.169.319.254.66.254 1.023v.132c0 .494-.141.91-.423 1.248-.281.332-.678.616-1.192.854l-1.267.591c-.3.138-.503.273-.61.404-.106.125-.159.297-.159.516v.864l-.244-.432h3.979v.77h-4.636Zm8.313 0v-6.401l.413.319h-1.971v-.77h2.459v6.852h-.901Zm-1.633 0v-.77h4.055v.77h-4.055Zm7.404 0 2.59-6.852h.713l-2.59 6.852h-.713Zm-.507-3.173c-.357 0-.648-.081-.873-.244a1.444 1.444 0 0 1-.488-.647c-.1-.269-.15-.56-.15-.873v-.244c0-.338.053-.638.159-.901.107-.269.272-.479.498-.629.225-.157.51-.235.854-.235.35 0 .635.078.854.235.225.15.391.36.497.629.107.263.16.563.16.901v.244c0 .313-.053.604-.16.873-.1.269-.259.485-.478.647-.219.163-.51.244-.873.244Zm0-.619c.288 0 .5-.103.638-.31.144-.213.216-.529.216-.948 0-.444-.072-.766-.216-.967-.144-.206-.357-.309-.638-.309-.282 0-.495.103-.638.309-.144.201-.216.52-.216.958 0 .419.068.735.206.948.144.212.36.319.648.319Zm4.28 3.886c-.357 0-.648-.082-.873-.245a1.444 1.444 0 0 1-.488-.647c-.1-.269-.15-.56-.15-.873v-.244c0-.338.053-.638.159-.901.106-.269.272-.479.498-.629.225-.156.509-.235.854-.235.35 0 .635.079.854.235.225.15.391.36.497.629.107.263.16.563.16.901v.244c0 .313-.053.604-.16.873-.1.269-.259.485-.478.647-.219.163-.51.245-.873.245Zm0-.62c.287 0 .5-.103.638-.31.144-.212.216-.528.216-.948 0-.444-.072-.766-.216-.966-.144-.207-.357-.31-.638-.31-.282 0-.495.103-.639.31-.144.2-.215.519-.215.957 0 .419.068.735.206.948.144.213.36.319.648.319Z"/><g fill="#fff" clip-path="url(#r)" opacity=".5"><path d="M311.037 244.835c.973 0 1.762-.462 1.762-1.031 0-.57-.789-1.031-1.762-1.031s-1.762.461-1.762 1.031c0 .569.789 1.031 1.762 1.031ZM311.037 252.605c.973 0 1.762-.461 1.762-1.031 0-.569-.789-1.031-1.762-1.031s-1.762.462-1.762 1.031c0 .57.789 1.031 1.762 1.031ZM308.581 246.263c.487-.848.484-1.767-.007-2.052-.49-.285-1.282.172-1.769 1.02-.486.848-.483 1.766.008 2.051.49.285 1.282-.171 1.768-1.019ZM315.267 250.147c.487-.848.484-1.766-.006-2.051-.49-.285-1.282.172-1.769 1.02-.486.848-.483 1.766.007 2.051.49.285 1.282-.172 1.768-1.02ZM308.575 251.167c.49-.285.493-1.203.007-2.052-.487-.848-1.279-1.304-1.769-1.019-.491.285-.494 1.203-.007 2.051.486.848 1.278 1.305 1.769 1.02ZM315.261 247.282c.49-.284.493-1.203.007-2.051-.487-.848-1.279-1.304-1.769-1.02-.49.285-.493 1.203-.006 2.052.486.848 1.278 1.304 1.768 1.019Z"/></g><path fill="#fff" d="M261.217 269.996c-.816 0-1.525-.155-2.126-.465a3.552 3.552 0 0 1-1.394-1.281 3.398 3.398 0 0 1-.478-1.774h2.224c0 .319.075.601.225.845.16.244.376.432.648.563.272.131.582.197.929.197.366 0 .685-.075.958-.225a1.61 1.61 0 0 0 .619-.634c.141-.272.211-.577.211-.915 0-.347-.07-.652-.211-.915a1.588 1.588 0 0 0-.619-.648c-.263-.159-.578-.239-.944-.239-.347 0-.666.071-.957.211-.282.141-.488.319-.619.535h-2.169l.521-5.8h6.35v1.971h-5.378l.83-.591-.309 3.336-.479-.141a4.21 4.21 0 0 1 .619-.605c.235-.178.512-.319.831-.422.319-.113.699-.169 1.14-.169.751 0 1.394.155 1.929.464.545.301.962.709 1.253 1.225.291.507.437 1.075.437 1.704v.183c0 .629-.16 1.215-.479 1.76-.31.544-.765.985-1.366 1.323-.6.338-1.332.507-2.196.507Zm9.514 0c-.816 0-1.525-.155-2.126-.465a3.552 3.552 0 0 1-1.394-1.281 3.398 3.398 0 0 1-.478-1.774h2.224c0 .319.075.601.225.845.16.244.376.432.648.563.272.131.582.197.929.197.366 0 .685-.075.958-.225a1.61 1.61 0 0 0 .619-.634c.141-.272.211-.577.211-.915 0-.347-.07-.652-.211-.915a1.588 1.588 0 0 0-.619-.648c-.263-.159-.578-.239-.944-.239-.347 0-.666.071-.957.211-.282.141-.488.319-.619.535h-2.169l.521-5.8h6.35v1.971h-5.378l.83-.591-.309 3.336-.479-.141a4.21 4.21 0 0 1 .619-.605c.235-.178.512-.319.831-.422.319-.113.699-.169 1.14-.169.751 0 1.394.155 1.929.464.545.301.962.709 1.253 1.225.291.507.437 1.075.437 1.704v.183c0 .629-.16 1.215-.479 1.76-.31.544-.765.985-1.366 1.323-.6.338-1.332.507-2.196.507Zm8.627-.268v-8.757l.62.479h-3.084v-1.999h4.773v10.277h-2.309Zm-2.703 0v-1.999h7.307v1.999h-7.307Zm8.923 0v-2.52h2.478v2.52h-2.478Zm7.834.268c-.798 0-1.493-.146-2.084-.437-.591-.291-1.046-.69-1.366-1.196a3.231 3.231 0 0 1-.478-1.732h2.238c0 .432.15.784.451 1.056.31.263.723.394 1.239.394.356 0 .657-.066.901-.197.253-.131.45-.31.591-.535a1.5 1.5 0 0 0 .211-.788c0-.451-.155-.822-.464-1.113-.301-.291-.709-.436-1.225-.436-.254 0-.493.047-.718.141a1.98 1.98 0 0 0-.577.324l-1.07-1.732 3.167-2.084-.126-.239h-4.182v-1.971h7.011v2.14l-3.618 2.309-1.253-.296c.207-.075.432-.131.676-.169.244-.037.469-.056.676-.056.807 0 1.506.131 2.097.394.592.263 1.042.629 1.352 1.098.319.469.479 1.023.479 1.661v.169c0 .629-.16 1.192-.479 1.69-.31.497-.76.891-1.352 1.182-.591.282-1.29.423-2.097.423Zm9.711 0c-.817 0-1.525-.155-2.126-.465a3.545 3.545 0 0 1-1.394-1.281 3.398 3.398 0 0 1-.478-1.774h2.224c0 .319.075.601.225.845.16.244.376.432.648.563.272.131.582.197.929.197.366 0 .685-.075.957-.225.273-.16.479-.371.62-.634.141-.272.211-.577.211-.915 0-.347-.07-.652-.211-.915a1.584 1.584 0 0 0-.62-.648c-.262-.159-.577-.239-.943-.239-.347 0-.666.071-.957.211-.282.141-.488.319-.62.535h-2.168l.521-5.8h6.35v1.971h-5.378l.83-.591-.31 3.336-.478-.141c.187-.225.394-.427.619-.605.235-.178.512-.319.831-.422.319-.113.699-.169 1.14-.169.751 0 1.394.155 1.929.464.544.301.962.709 1.253 1.225a3.36 3.36 0 0 1 .436 1.704v.183c0 .629-.159 1.215-.478 1.76-.31.544-.765.985-1.366 1.323-.601.338-1.333.507-2.196.507Zm8.627-.268v-8.757l.619.479h-3.083v-1.999h4.773v10.277h-2.309Zm-2.703 0v-1.999h7.307v1.999h-7.307Z"/><path fill="#fff" fill-opacity=".75" d="M271.248 288.501c-.525 0-.973-.087-1.342-.263a1.954 1.954 0 0 1-.844-.76c-.194-.325-.291-.71-.291-1.154h.844c0 .212.05.428.15.647.101.213.269.394.507.545.238.144.563.215.976.215.545 0 .948-.115 1.211-.347.263-.238.394-.51.394-.816a.935.935 0 0 0-.356-.742c-.232-.206-.57-.331-1.014-.375l-.619-.057c-.589-.05-1.055-.228-1.399-.535-.344-.312-.516-.754-.516-1.323 0-.394.094-.729.281-1.004.188-.282.451-.495.789-.638.338-.151.735-.226 1.192-.226.457 0 .851.085 1.182.254.338.162.598.4.779.713.182.313.273.691.273 1.136h-.845c0-.219-.047-.429-.141-.629a1.166 1.166 0 0 0-.45-.507c-.201-.131-.467-.197-.798-.197-.294 0-.548.05-.76.15a1.111 1.111 0 0 0-.479.394.995.995 0 0 0-.16.554c0 .269.091.504.273.704.187.2.472.316.854.347l.619.057c.651.062 1.173.259 1.568.591.394.325.591.77.591 1.333 0 .388-.1.729-.301 1.023a1.97 1.97 0 0 1-.854.675c-.369.157-.807.235-1.314.235Zm-.403 1.22v-1.37h.807v1.37h-.807Zm-.038-7.602v-1.37h.807v1.37h-.807Zm4.475 6.391v-1.126c0-.275.041-.51.122-.704.088-.194.229-.369.423-.525.2-.157.469-.313.807-.47l1.267-.591c.338-.163.597-.357.779-.582.181-.231.272-.525.272-.882 0-.426-.128-.76-.385-1.004-.25-.244-.6-.366-1.051-.366-.444 0-.795.122-1.051.366-.25.244-.376.585-.376 1.023h-.882c0-.395.081-.757.244-1.089.169-.332.422-.594.76-.788.345-.201.779-.301 1.305-.301.526 0 .957.1 1.295.301a1.9 1.9 0 0 1 .77.769c.169.319.253.66.253 1.023v.132c0 .494-.141.91-.422 1.248-.282.332-.679.616-1.192.854l-1.267.591c-.3.138-.504.273-.61.404-.107.125-.16.297-.16.516v.864l-.244-.432h3.98v.769h-4.637Zm6.352 1.474-.722-.272.872-2.422.742.282-.892 2.412Zm4.446-8.513c.495 0 .908.088 1.239.263.338.175.604.419.798.732.2.307.341.66.423 1.061.087.4.131.822.131 1.267v.46c0 1.045-.272 1.858-.817 2.44-.544.576-1.314.863-2.309.863-.237 0-.444-.006-.619-.018-.169-.013-.35-.032-.544-.057v-.769a9.086 9.086 0 0 0 1.201.075c.563 0 1.011-.103 1.342-.31a1.72 1.72 0 0 0 .704-.91c.144-.401.216-.883.216-1.446v-1.257h.225c-.006.463-.097.86-.272 1.192a1.78 1.78 0 0 1-.723.75c-.313.176-.679.263-1.098.263-.513 0-.938-.097-1.276-.291a1.904 1.904 0 0 1-.76-.816 2.63 2.63 0 0 1-.254-1.174c0-.444.091-.841.272-1.192.182-.35.448-.625.798-.825.357-.201.798-.301 1.323-.301Zm0 .789c-.319 0-.594.068-.825.206a1.436 1.436 0 0 0-.526.554 1.656 1.656 0 0 0-.178.769c0 .313.053.586.159.817.107.225.269.4.488.526.225.125.513.187.864.187.306 0 .582-.059.826-.178.244-.125.434-.3.572-.526.144-.231.216-.506.216-.826a1.84 1.84 0 0 0-.16-.779 1.17 1.17 0 0 0-.516-.544c-.231-.138-.538-.206-.92-.206Zm6.653 6.419c-.526 0-.973-.106-1.342-.319a2.255 2.255 0 0 1-.845-.854 2.325 2.325 0 0 1-.282-1.117h.864c0 .288.066.548.197.779.138.226.325.404.563.535.244.125.526.188.845.188.319 0 .597-.066.835-.197.244-.131.432-.31.563-.535.138-.225.207-.482.207-.77 0-.288-.069-.547-.207-.779a1.447 1.447 0 0 0-.563-.553 1.634 1.634 0 0 0-.835-.207c-.232 0-.473.041-.723.122a1.38 1.38 0 0 0-.582.329h-.835l.347-3.642h3.661v.77h-3.135l.225-.31-.263 2.656-.244-.084a1.56 1.56 0 0 1 .404-.32c.156-.087.335-.153.535-.197.2-.05.416-.075.647-.075.52 0 .961.11 1.324.329.363.212.638.491.826.835.187.338.281.691.281 1.061v.131c0 .369-.097.726-.291 1.07a2.222 2.222 0 0 1-.835.835c-.369.213-.817.319-1.342.319Zm6.343 0c-.526 0-.973-.106-1.343-.319a2.252 2.252 0 0 1-.844-.854 2.325 2.325 0 0 1-.282-1.117h.864c0 .288.065.548.197.779.137.226.325.404.563.535.244.125.525.188.845.188.319 0 .597-.066.835-.197.244-.131.432-.31.563-.535.138-.225.207-.482.207-.77 0-.288-.069-.547-.207-.779a1.447 1.447 0 0 0-.563-.553 1.634 1.634 0 0 0-.835-.207c-.232 0-.473.041-.723.122a1.38 1.38 0 0 0-.582.329h-.835l.347-3.642h3.66v.77h-3.135l.226-.31-.263 2.656-.244-.084a1.56 1.56 0 0 1 .404-.32c.156-.087.334-.153.534-.197.201-.05.417-.075.648-.075.519 0 .961.11 1.323.329.363.212.639.491.826.835.188.338.282.691.282 1.061v.131a2.23 2.23 0 0 1-1.126 1.905c-.369.213-.817.319-1.342.319Zm3.761-.169v-1.145h1.089v1.145h-1.089Zm2.729 0v-1.126c0-.275.04-.51.122-.704.087-.194.228-.369.422-.525.2-.157.469-.313.807-.47l1.267-.591c.338-.163.598-.357.779-.582.182-.231.273-.525.273-.882 0-.426-.129-.76-.385-1.004-.25-.244-.601-.366-1.051-.366-.445 0-.795.122-1.052.366-.25.244-.375.585-.375 1.023h-.882c0-.395.081-.757.244-1.089.169-.332.422-.594.76-.788.344-.201.779-.301 1.305-.301.525 0 .957.1 1.295.301.344.194.601.45.769.769.169.319.254.66.254 1.023v.132c0 .494-.141.91-.422 1.248-.282.332-.679.616-1.192.854l-1.268.591c-.3.138-.503.273-.61.404-.106.125-.159.297-.159.516v.864l-.244-.432h3.979v.769h-4.636Zm5.967-1.623v-1.108l2.816-4.289.629.497-2.628 4.018.084.168h4.449v.714h-5.35Zm3.604 1.623v-4.852h.845v4.852h-.845Z"/><rect width="25.029" height="25.029" x="329.808" y="254.957" fill="#fff" fill-opacity=".1" rx="12.514"/><g clip-path="url(#s)"><path fill="#fff" fill-opacity=".65" d="M346.158 261.388c.348-.116.673-.174.975-.174.453 0 .808.128 1.063.383.256.256.383.61.383 1.063 0 .256-.058.575-.174.959l-3.345 10.315c-.14.441-.296.778-.471 1.01-.174.233-.348.349-.522.349-.36 0-.657-.477-.889-1.429l-.592-2.422c-.151-.627-.442-1.237-.872-1.83a6.674 6.674 0 0 0-1.533-1.55c-.592-.43-1.202-.715-1.829-.854l-2.422-.592c-.465-.117-.819-.25-1.063-.401-.244-.163-.366-.331-.366-.506 0-.174.11-.342.331-.505.232-.174.569-.331 1.011-.47l10.315-3.346Z"/></g><rect width="25.029" height="25.029" x="360.312" y="254.957" fill="#fff" fill-opacity=".1" rx="12.514"/><g fill="#fff" fill-opacity=".65" clip-path="url(#t)"><path d="M372.812 271.509a1.115 1.115 0 0 0 .821-.331l2.809-2.854c.218-.222.344-.52.351-.832a1.21 1.21 0 0 0-.351-.831 1.207 1.207 0 0 0-.829-.331 1.104 1.104 0 0 0-.807.345l-.576.571a.183.183 0 0 1-.105.049.25.25 0 0 1-.113-.049.135.135 0 0 1-.063-.12v-4.749a1.105 1.105 0 0 0-.351-.81 1.113 1.113 0 0 0-1.252-.264 1.1 1.1 0 0 0-.37.264 1.1 1.1 0 0 0-.344.81v4.749a.114.114 0 0 1-.017.07.122.122 0 0 1-.053.05.241.241 0 0 1-.112.049.147.147 0 0 1-.098-.049l-.583-.571a1.107 1.107 0 0 0-.807-.345 1.212 1.212 0 0 0-.829.331c-.22.221-.346.519-.351.831.007.312.132.61.351.832l2.808 2.854a1.13 1.13 0 0 0 .871.331Z"/><path d="M372.812 273.165a4.967 4.967 0 0 1-3.199-1.15 4.996 4.996 0 0 1-1.716-2.944 1.051 1.051 0 0 0-1.01-.916h-.064a1.04 1.04 0 0 0-1.004.791 1.063 1.063 0 0 0-.014.456 7.146 7.146 0 0 0 2.441 4.229 7.096 7.096 0 0 0 4.58 1.662 7.096 7.096 0 0 0 4.581-1.66 7.144 7.144 0 0 0 2.44-4.231 1.05 1.05 0 0 0-1.046-1.247h-.071a1.053 1.053 0 0 0-1.025.902 4.996 4.996 0 0 1-1.703 2.946 4.962 4.962 0 0 1-3.19 1.162Z"/></g><path fill="#fff" fill-opacity=".5" d="M395.944 274.799a1.471 1.471 0 0 1-.436-1.087c0-.447.145-.816.436-1.106l5.168-5.155-5.168-5.135a1.581 1.581 0 0 1-.436-1.106c0-.435.145-.81.436-1.126a1.59 1.59 0 0 1 1.109-.434c.435 0 .811.144 1.128.434l6.277 6.261c.291.316.436.692.436 1.126 0 .421-.145.79-.436 1.106l-6.277 6.222a1.515 1.515 0 0 1-2.237 0Z"/><path fill="#fff" d="M21.597 85.95c-1.148 0-2.1-.162-2.857-.483-.745-.332-1.302-.803-1.669-1.41-.356-.609-.533-1.326-.533-2.152h2.856c0 .31.08.585.241.826.16.241.401.43.723.568.332.138.745.207 1.239.207.642 0 1.147-.115 1.514-.344.367-.241.55-.568.55-.981 0-.344-.149-.631-.447-.86-.298-.242-.803-.39-1.514-.448l-.792-.069c-1.239-.115-2.214-.493-2.925-1.136-.7-.642-1.05-1.548-1.05-2.718 0-.815.167-1.486.5-2.014.344-.539.843-.94 1.497-1.204.653-.275 1.445-.413 2.374-.413 1.01 0 1.847.155 2.512.465.677.298 1.182.74 1.515 1.325.344.585.516 1.29.516 2.116H22.99c0-.287-.068-.54-.206-.757a1.313 1.313 0 0 0-.568-.516c-.252-.126-.556-.19-.912-.19-.321 0-.596.052-.826.155-.23.092-.401.224-.516.396a1.122 1.122 0 0 0-.172.637c0 .298.103.579.31.843.206.252.567.401 1.084.447l.791.07c1.4.114 2.507.492 3.321 1.135.815.642 1.222 1.554 1.222 2.736 0 .803-.19 1.485-.568 2.047-.367.562-.918.993-1.652 1.29-.723.288-1.623.431-2.701.431Zm-1.377 2.098v-2.512h2.512v2.512H20.22Zm-.069-13.938v-2.512h2.512v2.513h-2.512ZM31.435 85.83v-10.36l.757.586h-3.82v-2.788h6.264V85.83h-3.2Zm-3.407 0V83.04h9.43v2.788h-9.43Zm14.52 0v-10.36l.756.586h-3.82v-2.788h6.264V85.83h-3.2Zm-3.408 0V83.04h9.43v2.788h-9.43Zm12.23 3.028-2.39-.93 1.892-5.54 2.65.964-2.151 5.506Zm2.365-5.248v-3.252l4.56-7.468 2.529 1.6-3.751 6.195.258.378h7.244v2.547h-10.84Zm6.538 2.22v-9.103h2.96v9.103h-2.96Zm9.873.378c-1.17 0-2.127-.264-2.873-.791-.746-.528-1.296-1.257-1.652-2.186-.356-.94-.533-2.03-.533-3.269v-.792c0-1.296.189-2.409.567-3.338.379-.94.941-1.663 1.687-2.168.757-.516 1.692-.774 2.804-.774 1.113 0 2.042.258 2.788.774.757.505 1.325 1.228 1.704 2.168.378.93.567 2.042.567 3.338v.792c0 1.239-.177 2.329-.533 3.27-.356.928-.906 1.657-1.652 2.185-.746.527-1.703.791-2.874.791Zm0-2.96c.47 0 .844-.108 1.119-.326.287-.23.493-.614.62-1.153.125-.54.189-1.268.189-2.186 0-.963-.07-1.715-.207-2.254-.126-.539-.333-.917-.62-1.135-.275-.23-.642-.344-1.1-.344-.448 0-.815.108-1.102.326-.287.218-.499.597-.636 1.136-.127.54-.19 1.285-.19 2.237 0 .93.063 1.663.19 2.203.126.539.332.923.619 1.152.287.23.66.344 1.118.344Zm5.813.362v-3.252l4.56-7.468 2.529 1.6-3.751 6.195.258.378h7.244v2.547H75.96Zm6.538 2.22v-9.103h2.96v9.103h-2.96Zm4.746 0v-3.407h3.372v3.407h-3.372Zm9.246.344c-.998 0-1.87-.178-2.615-.534-.734-.355-1.302-.849-1.704-1.48-.401-.63-.602-1.347-.602-2.15h3.097c0 .447.161.814.482 1.1.333.276.78.414 1.342.414.379 0 .7-.069.964-.207.275-.149.487-.344.637-.585.149-.252.223-.533.223-.843 0-.47-.16-.86-.481-1.17-.322-.31-.77-.465-1.343-.465-.31 0-.602.058-.877.173-.275.114-.51.258-.706.43l-1.428-2.358 3.545-2.202-.155-.276h-4.766v-2.753h8.844v2.736l-4.543 2.77-1.617-.498c.275-.092.562-.155.86-.19.31-.045.591-.068.843-.068.998 0 1.864.154 2.599.464.745.31 1.319.752 1.72 1.325.402.574.603 1.268.603 2.082v.207c0 .791-.201 1.497-.603 2.116-.401.608-.975 1.09-1.72 1.445-.734.345-1.6.517-2.599.517Zm11.457.034c-.907 0-1.692-.155-2.358-.464a4.604 4.604 0 0 1-1.635-1.274 5.64 5.64 0 0 1-.946-1.91 8.692 8.692 0 0 1-.31-2.357v-.706c0-2.122.534-3.705 1.601-4.749 1.066-1.055 2.638-1.583 4.714-1.583.402 0 .815.012 1.239.035.436.023.838.057 1.205.103v2.684a26.646 26.646 0 0 0-1.222-.086 17.271 17.271 0 0 0-1.325-.052c-.86 0-1.526.144-1.996.43-.47.287-.797.712-.981 1.274-.183.562-.275 1.262-.275 2.1v1.513h-.619c.011-.837.177-1.537.499-2.099a3.224 3.224 0 0 1 1.359-1.273c.573-.287 1.222-.43 1.944-.43.838 0 1.566.172 2.186.516a3.623 3.623 0 0 1 1.445 1.462c.344.631.516 1.383.516 2.255 0 .94-.218 1.755-.654 2.443a4.278 4.278 0 0 1-1.772 1.6c-.757.379-1.629.568-2.615.568Zm-.104-2.65c.425 0 .786-.08 1.084-.24.31-.161.545-.385.706-.672.172-.286.258-.62.258-.998 0-.39-.086-.722-.258-.998a1.69 1.69 0 0 0-.688-.67c-.299-.161-.654-.242-1.067-.242-.356 0-.694.07-1.016.207-.321.137-.579.35-.774.636-.195.276-.292.631-.292 1.067 0 .367.074.7.223.998.161.287.396.51.706.671.31.161.682.241 1.118.241Z"/><path fill="#0E7" d="M18.43 100.021v-4.843h.77v4.843h-.77Zm-1.858-2.064v-.714h4.486v.714h-4.486Zm8.492 3.041c-.526 0-.973-.107-1.342-.32a2.253 2.253 0 0 1-.845-.854 2.33 2.33 0 0 1-.281-1.117h.863c0 .288.066.548.197.78.138.225.326.403.563.534.244.126.526.188.845.188.32 0 .598-.066.835-.197a1.446 1.446 0 0 0 .77-1.305c0-.287-.069-.547-.206-.779a1.452 1.452 0 0 0-.564-.553 1.638 1.638 0 0 0-.835-.207c-.231 0-.472.04-.723.122a1.38 1.38 0 0 0-.582.329h-.835l.348-3.642h3.66v.77h-3.135l.225-.31-.262 2.656-.245-.084c.113-.126.248-.232.404-.32.157-.087.335-.153.535-.197.2-.05.416-.075.648-.075.519 0 .96.11 1.323.329.363.213.638.491.826.835.188.338.282.692.282 1.06v.132c0 .37-.097.726-.291 1.07a2.227 2.227 0 0 1-.836.835c-.369.213-.816.32-1.342.32Zm3.574-.169v-1.145h1.089v1.145h-1.089Zm4.7.169c-.513 0-.951-.101-1.314-.301a2.07 2.07 0 0 1-.826-.798 2.154 2.154 0 0 1-.282-1.079h.882c0 .426.138.763.413 1.014.282.25.657.375 1.127.375.313 0 .582-.056.807-.169.231-.112.41-.272.535-.479.131-.212.197-.46.197-.74 0-.426-.14-.77-.422-1.033-.282-.263-.651-.395-1.108-.395a1.7 1.7 0 0 0-.479.066 1.263 1.263 0 0 0-.385.17l-.487-.752 2.646-1.961-.094-.17h-3.36v-.769h4.215v1.248l-2.215 1.624-.676.01c.087-.044.212-.082.375-.113s.31-.047.441-.047c.513 0 .951.094 1.314.282.363.187.639.438.826.75.194.313.291.654.291 1.023v.132c0 .363-.094.707-.281 1.032a2.115 2.115 0 0 1-.826.779c-.357.2-.795.301-1.314.301Zm5.394-.169 2.59-6.852h.714l-2.59 6.852h-.714Zm-.507-3.173c-.356 0-.647-.081-.872-.244a1.452 1.452 0 0 1-.488-.647c-.1-.27-.15-.56-.15-.873v-.244c0-.338.053-.638.159-.901.106-.27.272-.479.497-.63.226-.156.51-.234.854-.234.35 0 .636.078.855.235.225.15.39.36.497.629.107.263.16.563.16.9v.245c0 .313-.053.604-.16.873-.1.269-.26.484-.479.647-.219.163-.51.244-.873.244Zm0-.62c.288 0 .501-.103.639-.309.144-.213.216-.529.216-.948 0-.444-.072-.766-.216-.967-.144-.206-.357-.31-.639-.31-.281 0-.494.104-.638.31-.144.2-.216.52-.216.958 0 .419.07.735.207.948.144.212.36.319.647.319Zm4.28 3.886c-.356 0-.647-.081-.872-.244a1.447 1.447 0 0 1-.489-.647c-.1-.27-.15-.56-.15-.873v-.244c0-.338.053-.638.16-.901.106-.27.272-.479.497-.629.226-.156.51-.235.854-.235.35 0 .636.079.854.235.226.15.392.36.498.629.106.263.16.563.16.9v.245c0 .313-.054.604-.16.873-.1.269-.26.485-.479.647-.219.163-.51.244-.873.244Zm0-.619c.288 0 .501-.103.639-.31.144-.212.215-.528.215-.948 0-.444-.071-.766-.215-.966-.144-.207-.357-.31-.639-.31-.281 0-.494.103-.638.31-.144.2-.216.519-.216.957 0 .42.07.735.207.948.144.213.36.319.647.319Zm5.952 2.234a7.76 7.76 0 0 1-.882-1.248 6.05 6.05 0 0 1-.582-1.474 7.388 7.388 0 0 1-.206-1.811c0-.664.069-1.264.206-1.803a6.125 6.125 0 0 1 .591-1.464 7.04 7.04 0 0 1 .873-1.192h1.033c-.388.42-.72.854-.995 1.305-.27.45-.476.935-.62 1.455a6.547 6.547 0 0 0-.206 1.698c0 .62.069 1.192.207 1.718.137.519.34 1.007.61 1.464.275.463.61.914 1.004 1.352h-1.033Zm4.261-1.718c-.525 0-.973-.087-1.342-.263a1.955 1.955 0 0 1-.845-.76c-.194-.325-.29-.71-.29-1.154h.844c0 .213.05.428.15.647.1.213.27.395.507.545.238.144.563.216.976.216.545 0 .948-.116 1.211-.348.263-.237.394-.51.394-.816a.933.933 0 0 0-.356-.742c-.232-.206-.57-.331-1.014-.375l-.62-.056c-.588-.05-1.054-.229-1.398-.535-.344-.313-.516-.754-.516-1.324 0-.394.094-.729.281-1.004.188-.282.45-.494.789-.638.338-.15.735-.226 1.192-.226.457 0 .85.085 1.182.254.338.163.598.4.78.713.18.313.271.692.271 1.136h-.844c0-.22-.047-.429-.141-.629a1.167 1.167 0 0 0-.45-.507c-.2-.131-.467-.197-.798-.197-.294 0-.548.05-.76.15a1.111 1.111 0 0 0-.48.394.99.99 0 0 0-.159.554c0 .27.091.504.272.704.188.2.473.316.854.347l.62.057c.65.062 1.173.26 1.567.591.395.325.592.77.592 1.333 0 .388-.1.729-.3 1.023-.2.288-.486.513-.855.676-.369.156-.807.234-1.314.234Zm-.403 1.22v-1.37h.807v1.37h-.807Zm-.038-7.602v-1.37h.807v1.37h-.807Zm6.718 6.579c-.494 0-.91-.087-1.248-.262a2.127 2.127 0 0 1-.798-.723 3.388 3.388 0 0 1-.422-1.07 6.36 6.36 0 0 1-.122-1.267v-.46c0-1.045.272-1.855.816-2.431.545-.582 1.314-.873 2.31-.873a8.44 8.44 0 0 1 1.163.075v.77a9.008 9.008 0 0 0-1.201-.075c-.563 0-1.01.106-1.343.319-.331.206-.569.51-.713.91-.137.394-.206.873-.206 1.436v1.258h-.226c.007-.463.094-.857.263-1.183.175-.331.42-.585.732-.76.313-.175.68-.263 1.099-.263.513 0 .938.1 1.276.3.338.195.591.464.76.808.17.344.254.735.254 1.173 0 .444-.091.842-.273 1.192-.181.35-.45.626-.807.826-.35.2-.788.3-1.314.3Zm0-.788c.32 0 .592-.069.817-.207.231-.137.407-.322.525-.553.126-.232.188-.488.188-.77 0-.313-.053-.582-.16-.807a1.145 1.145 0 0 0-.497-.535c-.219-.125-.504-.188-.854-.188-.307 0-.582.063-.826.188a1.389 1.389 0 0 0-.582.526 1.537 1.537 0 0 0-.206.816c0 .288.053.548.16.78.106.23.275.415.506.553.238.131.548.197.93.197Zm5.94.788c-.583 0-1.055-.144-1.418-.431-.363-.288-.629-.686-.798-1.192-.169-.514-.253-1.102-.253-1.765v-.432c0-.694.09-1.295.272-1.802.182-.513.454-.907.817-1.182.369-.282.829-.423 1.38-.423.556 0 1.016.141 1.38.423.362.275.634.67.816 1.182.181.507.272 1.108.272 1.802v.432c0 .663-.085 1.251-.254 1.765-.169.506-.434.904-.797 1.192-.363.287-.836.431-1.418.431Zm0-.807c.362 0 .656-.097.882-.29.231-.201.4-.508.506-.92.107-.414.16-.94.16-1.577 0-.67-.056-1.211-.169-1.624-.106-.42-.275-.723-.507-.91-.225-.195-.516-.291-.873-.291-.356 0-.65.097-.882.29-.225.188-.394.489-.507.901-.106.413-.16.952-.16 1.615 0 .644.054 1.176.16 1.595.107.413.273.72.498.92.231.194.528.291.891.291Zm3.564-1.004v-1.108l2.816-4.289.628.497-2.628 4.018.085.169h4.449v.713h-5.35Zm3.604 1.624v-4.853h.845v4.853h-.845Zm2.654 0v-1.145h1.089v1.145h-1.089Zm2.166-1.624v-1.108l2.815-4.289.63.497-2.629 4.018.085.169h4.448v.713h-5.35Zm3.604 1.624v-4.853h.844v4.853h-.844Zm5.085.169c-.513 0-.951-.101-1.314-.301a2.07 2.07 0 0 1-.826-.798 2.154 2.154 0 0 1-.282-1.079h.882c0 .426.138.763.413 1.014.282.25.657.375 1.127.375.313 0 .582-.056.807-.169.231-.112.41-.272.535-.479.131-.212.197-.46.197-.74 0-.426-.14-.77-.422-1.033-.282-.263-.651-.395-1.108-.395-.169 0-.328.022-.479.066a1.263 1.263 0 0 0-.384.17l-.489-.752 2.647-1.961-.094-.17h-3.36v-.769h4.215v1.248L85.46 96.85l-.675.01c.087-.044.213-.082.375-.113.163-.031.31-.047.441-.047.513 0 .951.094 1.314.282.363.187.639.438.826.75.194.313.291.654.291 1.023v.132c0 .363-.094.707-.281 1.032a2.116 2.116 0 0 1-.826.779c-.357.2-.795.301-1.314.301Zm4.221 1.539h-1.032c.394-.438.726-.889.995-1.352.275-.457.481-.945.62-1.464a6.764 6.764 0 0 0 .206-1.718 6.28 6.28 0 0 0-.216-1.698 5.453 5.453 0 0 0-.62-1.455 7.857 7.857 0 0 0-.985-1.305h1.032c.326.357.613.754.864 1.192.256.438.453.926.591 1.465.144.538.216 1.138.216 1.802 0 .663-.069 1.267-.207 1.811a5.828 5.828 0 0 1-.59 1.474c-.251.45-.542.866-.874 1.248Z"/></g></g><defs><clipPath id="a"><path fill="#fff" d="M0 0h438v299H0z"/></clipPath><clipPath id="c"><rect width="438" height="469.286" fill="#fff" rx="17.989"/></clipPath><clipPath id="d"><path fill="#fff" d="M236.086 24.247h14.079v14.079h-14.079z"/></clipPath><clipPath id="h"><path fill="#fff" d="M356.487 137.579h12.514v12.514h-12.514z"/></clipPath><clipPath id="i"><path fill="#fff" d="M390.815 134.529h18.771V153.3h-18.771z"/></clipPath><clipPath id="j"><path fill="#fff" d="M27.9 188.359h28.94v28.939H27.9z"/></clipPath><clipPath id="k"><path fill="#fff" d="M264.89 176.789h12.514v12.514H264.89z"/></clipPath><clipPath id="l"><path fill="#fff" d="M278.187 176.789h12.514v12.514h-12.514z"/></clipPath><clipPath id="m"><path fill="#fff" d="M291.483 176.789h12.514v12.514h-12.514z"/></clipPath><clipPath id="n"><path fill="#fff" d="M304.779 176.789h12.514v12.514h-12.514z"/></clipPath><clipPath id="p"><path fill="#fff" d="M334.501 196.571h14.079v14.079h-14.079z"/></clipPath><clipPath id="q"><path fill="#fff" d="M365.787 196.571h14.079v14.079h-14.079z"/></clipPath><clipPath id="r"><path fill="#fff" d="M304.78 241.432h12.514v12.514H304.78z"/></clipPath><clipPath id="s"><path fill="#fff" d="M334.501 261.214h14.079v14.079h-14.079z"/></clipPath><clipPath id="t"><path fill="#fff" d="M365.787 261.214h14.079v14.079h-14.079z"/></clipPath><filter id="b" width="438" height="472.414" x="0" y="0" color-interpolation-filters="sRGB" filterUnits="userSpaceOnUse"><feFlood flood-opacity="0" result="BackgroundImageFix"/><feBlend in="SourceGraphic" in2="BackgroundImageFix" result="shape"/><feColorMatrix in="SourceAlpha" result="hardAlpha" values="0 0 0 0 0 0 0 0 0 0 0 0 0 0 0 0 0 0 127 0"/><feOffset dy="3.129"/><feGaussianBlur stdDeviation="6.648"/><feComposite in2="hardAlpha" k2="-1" k3="1" operator="arithmetic"/><feColorMatrix values="0 0 0 0 1 0 0 0 0 1 0 0 0 0 1 0 0 0 0.06 0"/><feBlend in2="shape" result="effect1_innerShadow_10954_467241"/></filter><filter id="o" width="125.143" height="125.143" x="279.751" y="140.257" color-interpolation-filters="sRGB" filterUnits="userSpaceOnUse"><feFlood flood-opacity="0" result="BackgroundImageFix"/><feGaussianBlur in="BackgroundImageFix" stdDeviation="25.029"/><feComposite in2="SourceAlpha" operator="in" result="effect1_backgroundBlur_10954_467241"/><feBlend in="SourceGraphic" in2="effect1_backgroundBlur_10954_467241" result="shape"/></filter></defs></svg>