<svg width="438" height="299" viewBox="0 0 438 299" fill="none" xmlns="http://www.w3.org/2000/svg">
<g clip-path="url(#clip0_12525_125662)">
<g filter="url(#filter0_i_12525_125662)">
<g clip-path="url(#clip1_12525_125662)">
<rect width="438" height="470" rx="17.9893" fill="white" fill-opacity="0.01"/>
<path d="M134.767 29.175V18.882H138.56L142.438 27.2997H142.917L142.635 27.5535V18.882H144.806V29.175H140.985L137.108 20.7573H136.628L136.91 20.5035V29.175H134.767ZM150.531 29.4429C149.873 29.4429 149.29 29.3301 148.782 29.1045C148.284 28.8789 147.866 28.5781 147.527 28.2021C147.198 27.8167 146.945 27.389 146.766 26.919C146.597 26.4396 146.512 25.9508 146.512 25.4526V25.1706C146.512 24.6536 146.597 24.1601 146.766 23.6901C146.945 23.2107 147.198 22.783 147.527 22.407C147.856 22.031 148.265 21.7349 148.754 21.5187C149.252 21.2931 149.816 21.1803 150.446 21.1803C151.273 21.1803 151.969 21.3683 152.533 21.7443C153.106 22.1109 153.543 22.595 153.844 23.1966C154.145 23.7888 154.295 24.4374 154.295 25.1424V25.9038H147.457V24.6207H152.928L152.195 25.2129C152.195 24.7523 152.129 24.3575 151.997 24.0285C151.866 23.6995 151.668 23.4504 151.405 23.2812C151.151 23.1026 150.832 23.0133 150.446 23.0133C150.051 23.0133 149.718 23.1026 149.445 23.2812C149.172 23.4598 148.966 23.723 148.825 24.0708C148.684 24.4092 148.613 24.8275 148.613 25.3257C148.613 25.7863 148.679 26.1905 148.811 26.5383C148.942 26.8767 149.149 27.1399 149.431 27.3279C149.713 27.5159 150.08 27.6099 150.531 27.6099C150.944 27.6099 151.283 27.53 151.546 27.3702C151.809 27.2104 151.988 27.013 152.082 26.778H154.154C154.042 27.295 153.821 27.7556 153.492 28.1598C153.163 28.564 152.749 28.8789 152.251 29.1045C151.753 29.3301 151.179 29.4429 150.531 29.4429ZM159.301 29.2737C158.521 29.2737 157.891 29.1797 157.412 28.9917C156.932 28.7943 156.58 28.47 156.354 28.0188C156.138 27.5582 156.03 26.9378 156.03 26.1576V19.3614H158.131V26.2422C158.131 26.6088 158.225 26.8908 158.413 27.0882C158.61 27.2762 158.888 27.3702 159.245 27.3702H160.387V29.2737H159.301ZM154.86 23.0979V21.4482H160.387V23.0979H154.86ZM164.738 29.175L166.148 21.702H168.616L170.251 29.175H168.503L166.825 21.7584H167.826L166.317 29.175H164.738ZM164.202 29.175L164.188 27.2997H165.739L165.753 29.175H164.202ZM163.187 29.175L161.114 21.4482H163.328L165.26 29.175H163.187ZM169.081 29.175L169.095 27.2997H170.646V29.175H169.081ZM169.715 29.175L171.436 21.4482H173.508L171.647 29.175H169.715ZM178.488 29.4429C177.811 29.4429 177.21 29.3395 176.683 29.1327C176.157 28.9165 175.71 28.6251 175.344 28.2585C174.987 27.8919 174.714 27.4736 174.526 27.0036C174.338 26.5242 174.244 26.0213 174.244 25.4949V25.1706C174.244 24.6348 174.338 24.1272 174.526 23.6478C174.723 23.159 175.005 22.7313 175.372 22.3647C175.748 21.9981 176.199 21.7114 176.726 21.5046C177.252 21.2884 177.84 21.1803 178.488 21.1803C179.156 21.1803 179.748 21.2884 180.265 21.5046C180.791 21.7114 181.238 21.9981 181.604 22.3647C181.971 22.7313 182.253 23.159 182.45 23.6478C182.648 24.1272 182.746 24.6348 182.746 25.1706V25.4949C182.746 26.0213 182.652 26.5242 182.464 27.0036C182.276 27.4736 181.999 27.8919 181.632 28.2585C181.275 28.6251 180.833 28.9165 180.307 29.1327C179.781 29.3395 179.174 29.4429 178.488 29.4429ZM178.488 27.5394C178.93 27.5394 179.297 27.4454 179.588 27.2574C179.879 27.0694 180.1 26.8062 180.251 26.4678C180.41 26.1294 180.49 25.7534 180.49 25.3398C180.49 24.898 180.41 24.5126 180.251 24.1836C180.091 23.8452 179.861 23.5773 179.56 23.3799C179.268 23.1825 178.911 23.0838 178.488 23.0838C178.075 23.0838 177.717 23.1825 177.417 23.3799C177.116 23.5773 176.885 23.8452 176.726 24.1836C176.575 24.5126 176.5 24.898 176.5 25.3398C176.5 25.7534 176.575 26.1294 176.726 26.4678C176.876 26.8062 177.102 27.0694 177.402 27.2574C177.703 27.4454 178.065 27.5394 178.488 27.5394ZM184.321 29.175V21.4482H186.112V24.7617H186.069C186.069 23.6713 186.3 22.83 186.76 22.2378C187.23 21.6456 187.907 21.3495 188.791 21.3495H189.087V23.2953H188.523C187.902 23.2953 187.423 23.4645 187.084 23.8029C186.746 24.1319 186.577 24.6113 186.577 25.2411V29.175H184.321ZM195.698 29.175L193.259 25.5654H192.173L195.317 21.4482H197.686L194.725 25.2834L194.753 24.1836L198.236 29.175H195.698ZM190.255 29.175V18.882H192.511V29.175H190.255ZM201.973 29.4147C200.873 29.4147 200.013 29.1891 199.393 28.7379C198.773 28.2867 198.444 27.6522 198.406 26.8344H200.408C200.446 27.0788 200.591 27.2997 200.845 27.4971C201.108 27.6851 201.499 27.7791 202.016 27.7791C202.41 27.7791 202.735 27.7133 202.988 27.5817C203.252 27.4407 203.383 27.2433 203.383 26.9895C203.383 26.7639 203.285 26.5853 203.087 26.4537C202.89 26.3127 202.537 26.214 202.03 26.1576L201.423 26.1012C200.493 26.0072 199.792 25.7487 199.322 25.3257C198.862 24.9027 198.632 24.3622 198.632 23.7042C198.632 23.159 198.768 22.7031 199.04 22.3365C199.313 21.9699 199.689 21.6926 200.168 21.5046C200.657 21.3166 201.212 21.2226 201.832 21.2226C202.829 21.2226 203.632 21.4435 204.243 21.8853C204.854 22.3177 205.174 22.9475 205.202 23.7747H203.2C203.162 23.5209 203.031 23.3094 202.805 23.1402C202.58 22.9616 202.246 22.8723 201.804 22.8723C201.456 22.8723 201.179 22.9381 200.972 23.0697C200.765 23.2013 200.662 23.3799 200.662 23.6055C200.662 23.8217 200.751 23.9862 200.93 24.099C201.108 24.2118 201.4 24.2917 201.804 24.3387L202.41 24.3951C203.36 24.4985 204.098 24.7617 204.624 25.1847C205.15 25.6077 205.414 26.1764 205.414 26.8908C205.414 27.4078 205.273 27.859 204.991 28.2444C204.709 28.6204 204.309 28.9118 203.792 29.1186C203.275 29.316 202.669 29.4147 201.973 29.4147ZM209.836 29.175V21.4482H211.626V24.7758H211.5C211.5 23.9862 211.598 23.3282 211.796 22.8018C211.993 22.2754 212.289 21.8806 212.684 21.6174C213.079 21.3448 213.563 21.2085 214.136 21.2085H214.235C214.818 21.2085 215.302 21.3448 215.687 21.6174C216.082 21.8806 216.378 22.2754 216.576 22.8018C216.782 23.3282 216.886 23.9862 216.886 24.7758H216.336C216.336 23.9862 216.435 23.3282 216.632 22.8018C216.839 22.2754 217.14 21.8806 217.534 21.6174C217.929 21.3448 218.413 21.2085 218.987 21.2085H219.085C219.668 21.2085 220.157 21.3448 220.552 21.6174C220.956 21.8806 221.261 22.2754 221.468 22.8018C221.675 23.3282 221.778 23.9862 221.778 24.7758V29.175H219.522V24.6489C219.522 24.2259 219.41 23.8828 219.184 23.6196C218.968 23.3564 218.658 23.2248 218.253 23.2248C217.849 23.2248 217.53 23.3611 217.295 23.6337C217.06 23.8969 216.942 24.2494 216.942 24.6912V29.175H214.672V24.6489C214.672 24.2259 214.559 23.8828 214.334 23.6196C214.117 23.3564 213.812 23.2248 213.417 23.2248C213.004 23.2248 212.679 23.3611 212.444 23.6337C212.209 23.8969 212.092 24.2494 212.092 24.6912V29.175H209.836ZM228.369 29.175V26.8908H227.988V24.4092C227.988 24.0144 227.894 23.7183 227.706 23.5209C227.518 23.3235 227.217 23.2248 226.804 23.2248C226.597 23.2248 226.324 23.2295 225.986 23.2389C225.647 23.2483 225.3 23.2624 224.942 23.2812C224.585 23.3 224.261 23.3188 223.97 23.3376V21.4341C224.186 21.4153 224.44 21.3965 224.731 21.3777C225.022 21.3589 225.323 21.3448 225.633 21.3354C225.944 21.326 226.235 21.3213 226.508 21.3213C227.297 21.3213 227.96 21.4341 228.496 21.6597C229.041 21.8853 229.454 22.2284 229.736 22.689C230.018 23.1402 230.159 23.723 230.159 24.4374V29.175H228.369ZM225.901 29.3724C225.347 29.3724 224.858 29.2737 224.435 29.0763C224.021 28.8789 223.697 28.5969 223.462 28.2303C223.227 27.8543 223.109 27.4078 223.109 26.8908C223.109 26.3268 223.255 25.8662 223.547 25.509C223.838 25.1424 224.247 24.8745 224.773 24.7053C225.3 24.5267 225.906 24.4374 226.592 24.4374H228.242V25.6923H226.578C226.183 25.6923 225.878 25.791 225.662 25.9884C225.455 26.1764 225.351 26.4349 225.351 26.7639C225.351 27.0741 225.455 27.3279 225.662 27.5253C225.878 27.7133 226.183 27.8073 226.578 27.8073C226.832 27.8073 227.057 27.765 227.255 27.6804C227.462 27.5864 227.631 27.4313 227.762 27.2151C227.894 26.9989 227.969 26.6981 227.988 26.3127L228.524 26.8767C228.477 27.4125 228.345 27.8637 228.129 28.2303C227.922 28.5969 227.631 28.8789 227.255 29.0763C226.888 29.2737 226.437 29.3724 225.901 29.3724ZM232.074 29.175V21.4482H233.864V24.7617H233.737C233.737 23.9721 233.836 23.3141 234.033 22.7877C234.24 22.2613 234.55 21.8665 234.964 21.6033C235.378 21.3401 235.881 21.2085 236.473 21.2085H236.571C237.474 21.2085 238.16 21.5046 238.63 22.0968C239.109 22.6796 239.349 23.5679 239.349 24.7617V29.175H237.093V24.6348C237.093 24.2212 236.971 23.8828 236.727 23.6196C236.482 23.3564 236.153 23.2248 235.74 23.2248C235.317 23.2248 234.973 23.3611 234.71 23.6337C234.456 23.8969 234.33 24.2447 234.33 24.6771V29.175H232.074ZM245.939 29.175V26.8908H245.558V24.4092C245.558 24.0144 245.464 23.7183 245.276 23.5209C245.088 23.3235 244.787 23.2248 244.374 23.2248C244.167 23.2248 243.894 23.2295 243.556 23.2389C243.217 23.2483 242.87 23.2624 242.512 23.2812C242.155 23.3 241.831 23.3188 241.539 23.3376V21.4341C241.756 21.4153 242.009 21.3965 242.301 21.3777C242.592 21.3589 242.893 21.3448 243.203 21.3354C243.513 21.326 243.805 21.3213 244.077 21.3213C244.867 21.3213 245.53 21.4341 246.066 21.6597C246.611 21.8853 247.024 22.2284 247.306 22.689C247.588 23.1402 247.729 23.723 247.729 24.4374V29.175H245.939ZM243.471 29.3724C242.917 29.3724 242.428 29.2737 242.005 29.0763C241.591 28.8789 241.267 28.5969 241.032 28.2303C240.797 27.8543 240.679 27.4078 240.679 26.8908C240.679 26.3268 240.825 25.8662 241.116 25.509C241.408 25.1424 241.817 24.8745 242.343 24.7053C242.87 24.5267 243.476 24.4374 244.162 24.4374H245.812V25.6923H244.148C243.753 25.6923 243.448 25.791 243.231 25.9884C243.025 26.1764 242.921 26.4349 242.921 26.7639C242.921 27.0741 243.025 27.3279 243.231 27.5253C243.448 27.7133 243.753 27.8073 244.148 27.8073C244.402 27.8073 244.627 27.765 244.825 27.6804C245.032 27.5864 245.201 27.4313 245.332 27.2151C245.464 26.9989 245.539 26.6981 245.558 26.3127L246.094 26.8767C246.047 27.4125 245.915 27.8637 245.699 28.2303C245.492 28.5969 245.201 28.8789 244.825 29.0763C244.458 29.2737 244.007 29.3724 243.471 29.3724ZM252.689 32.2488C252.313 32.2488 251.928 32.2347 251.533 32.2065C251.138 32.1783 250.776 32.1407 250.447 32.0937V30.1902C250.776 30.2372 251.138 30.2748 251.533 30.303C251.937 30.3406 252.304 30.3594 252.633 30.3594C253.244 30.3594 253.737 30.2889 254.113 30.1479C254.499 30.0069 254.781 29.7907 254.959 29.4993C255.138 29.2173 255.227 28.8507 255.227 28.3995V26.8626L255.636 25.9602C255.617 26.6464 255.481 27.2339 255.227 27.7227C254.983 28.2115 254.64 28.5875 254.198 28.8507C253.756 29.1045 253.23 29.2314 252.619 29.2314C252.092 29.2314 251.613 29.1374 251.18 28.9494C250.757 28.752 250.395 28.4794 250.095 28.1316C249.794 27.7838 249.564 27.3796 249.404 26.919C249.244 26.449 249.164 25.9414 249.164 25.3962V25.0719C249.164 24.5267 249.249 24.0191 249.418 23.5491C249.587 23.0791 249.831 22.6702 250.151 22.3224C250.471 21.9746 250.851 21.7067 251.293 21.5187C251.735 21.3213 252.224 21.2226 252.76 21.2226C253.38 21.2226 253.916 21.3589 254.367 21.6315C254.828 21.9041 255.189 22.3036 255.453 22.83C255.716 23.3564 255.857 23.9909 255.876 24.7335L255.565 24.8181V21.4482H257.356V28.2585C257.356 29.2079 257.187 29.974 256.849 30.5568C256.51 31.1396 255.993 31.5673 255.298 31.8399C254.611 32.1125 253.742 32.2488 252.689 32.2488ZM253.324 27.3279C253.671 27.3279 253.986 27.2527 254.268 27.1023C254.55 26.9425 254.771 26.7169 254.931 26.4255C255.1 26.1341 255.185 25.7816 255.185 25.368V24.9591C255.185 24.5549 255.095 24.2165 254.917 23.9439C254.748 23.6619 254.522 23.4504 254.24 23.3094C253.958 23.159 253.657 23.0838 253.338 23.0838C252.962 23.0838 252.628 23.1731 252.337 23.3517C252.045 23.5303 251.82 23.7794 251.66 24.099C251.5 24.4186 251.42 24.7946 251.42 25.227C251.42 25.6688 251.5 26.0495 251.66 26.3691C251.829 26.6793 252.055 26.919 252.337 27.0882C252.628 27.248 252.957 27.3279 253.324 27.3279ZM262.849 29.4429C262.191 29.4429 261.608 29.3301 261.1 29.1045C260.602 28.8789 260.184 28.5781 259.845 28.2021C259.516 27.8167 259.263 27.389 259.084 26.919C258.915 26.4396 258.83 25.9508 258.83 25.4526V25.1706C258.83 24.6536 258.915 24.1601 259.084 23.6901C259.263 23.2107 259.516 22.783 259.845 22.407C260.174 22.031 260.583 21.7349 261.072 21.5187C261.57 21.2931 262.134 21.1803 262.764 21.1803C263.591 21.1803 264.287 21.3683 264.851 21.7443C265.424 22.1109 265.861 22.595 266.162 23.1966C266.463 23.7888 266.613 24.4374 266.613 25.1424V25.9038H259.775V24.6207H265.246L264.513 25.2129C264.513 24.7523 264.447 24.3575 264.315 24.0285C264.184 23.6995 263.986 23.4504 263.723 23.2812C263.469 23.1026 263.15 23.0133 262.764 23.0133C262.369 23.0133 262.036 23.1026 261.763 23.2812C261.49 23.4598 261.284 23.723 261.143 24.0708C261.002 24.4092 260.931 24.8275 260.931 25.3257C260.931 25.7863 260.997 26.1905 261.129 26.5383C261.26 26.8767 261.467 27.1399 261.749 27.3279C262.031 27.5159 262.398 27.6099 262.849 27.6099C263.262 27.6099 263.601 27.53 263.864 27.3702C264.127 27.2104 264.306 27.013 264.4 26.778H266.472C266.36 27.295 266.139 27.7556 265.81 28.1598C265.481 28.564 265.067 28.8789 264.569 29.1045C264.071 29.3301 263.497 29.4429 262.849 29.4429ZM268.108 29.175V21.4482H269.899V24.7758H269.772C269.772 23.9862 269.871 23.3282 270.068 22.8018C270.266 22.2754 270.562 21.8806 270.957 21.6174C271.351 21.3448 271.836 21.2085 272.409 21.2085H272.508C273.09 21.2085 273.575 21.3448 273.96 21.6174C274.355 21.8806 274.651 22.2754 274.848 22.8018C275.055 23.3282 275.158 23.9862 275.158 24.7758H274.609C274.609 23.9862 274.707 23.3282 274.905 22.8018C275.111 22.2754 275.412 21.8806 275.807 21.6174C276.202 21.3448 276.686 21.2085 277.259 21.2085H277.358C277.941 21.2085 278.43 21.3448 278.824 21.6174C279.229 21.8806 279.534 22.2754 279.741 22.8018C279.948 23.3282 280.051 23.9862 280.051 24.7758V29.175H277.795V24.6489C277.795 24.2259 277.682 23.8828 277.457 23.6196C277.241 23.3564 276.93 23.2248 276.526 23.2248C276.122 23.2248 275.802 23.3611 275.567 23.6337C275.332 23.8969 275.215 24.2494 275.215 24.6912V29.175H272.945V24.6489C272.945 24.2259 272.832 23.8828 272.606 23.6196C272.39 23.3564 272.085 23.2248 271.69 23.2248C271.276 23.2248 270.952 23.3611 270.717 23.6337C270.482 23.8969 270.364 24.2494 270.364 24.6912V29.175H268.108ZM285.513 29.4429C284.855 29.4429 284.273 29.3301 283.765 29.1045C283.267 28.8789 282.849 28.5781 282.51 28.2021C282.181 27.8167 281.927 27.389 281.749 26.919C281.58 26.4396 281.495 25.9508 281.495 25.4526V25.1706C281.495 24.6536 281.58 24.1601 281.749 23.6901C281.927 23.2107 282.181 22.783 282.51 22.407C282.839 22.031 283.248 21.7349 283.737 21.5187C284.235 21.2931 284.799 21.1803 285.429 21.1803C286.256 21.1803 286.952 21.3683 287.516 21.7443C288.089 22.1109 288.526 22.595 288.827 23.1966C289.128 23.7888 289.278 24.4374 289.278 25.1424V25.9038H282.44V24.6207H287.91L287.177 25.2129C287.177 24.7523 287.111 24.3575 286.98 24.0285C286.848 23.6995 286.651 23.4504 286.388 23.2812C286.134 23.1026 285.814 23.0133 285.429 23.0133C285.034 23.0133 284.7 23.1026 284.428 23.2812C284.155 23.4598 283.948 23.723 283.807 24.0708C283.666 24.4092 283.596 24.8275 283.596 25.3257C283.596 25.7863 283.662 26.1905 283.793 26.5383C283.925 26.8767 284.132 27.1399 284.414 27.3279C284.696 27.5159 285.062 27.6099 285.513 27.6099C285.927 27.6099 286.265 27.53 286.529 27.3702C286.792 27.2104 286.97 27.013 287.064 26.778H289.137C289.024 27.295 288.803 27.7556 288.474 28.1598C288.145 28.564 287.732 28.8789 287.234 29.1045C286.735 29.3301 286.162 29.4429 285.513 29.4429ZM290.773 29.175V21.4482H292.564V24.7617H292.437C292.437 23.9721 292.536 23.3141 292.733 22.7877C292.94 22.2613 293.25 21.8665 293.664 21.6033C294.077 21.3401 294.58 21.2085 295.172 21.2085H295.271C296.173 21.2085 296.86 21.5046 297.33 22.0968C297.809 22.6796 298.049 23.5679 298.049 24.7617V29.175H295.793V24.6348C295.793 24.2212 295.67 23.8828 295.426 23.6196C295.182 23.3564 294.853 23.2248 294.439 23.2248C294.016 23.2248 293.673 23.3611 293.41 23.6337C293.156 23.8969 293.029 24.2447 293.029 24.6771V29.175H290.773ZM303.482 29.2737C302.702 29.2737 302.072 29.1797 301.593 28.9917C301.113 28.7943 300.761 28.47 300.535 28.0188C300.319 27.5582 300.211 26.9378 300.211 26.1576V19.3614H302.312V26.2422C302.312 26.6088 302.406 26.8908 302.594 27.0882C302.791 27.2762 303.068 27.3702 303.426 27.3702H304.568V29.2737H303.482ZM299.041 23.0979V21.4482H304.568V23.0979H299.041Z" fill="white"/>
<line y1="48.9584" x2="438.667" y2="48.9584" stroke="white" stroke-opacity="0.1" stroke-width="0.783333"/>
<path d="M41.7965 115.413V111.438C42.5464 111.17 43.0832 110.464 43.0832 109.631C43.0832 108.568 42.2113 107.708 41.1356 107.708C40.6811 107.708 40.2633 107.863 39.9319 108.121L36.2822 106.091C36.2934 106.007 36.3011 105.923 36.3011 105.836C36.3011 104.774 35.4292 103.913 34.3535 103.913C33.2789 103.913 32.406 104.774 32.406 105.836C32.406 105.934 32.4158 106.03 32.43 106.124L28.9322 108.07C28.6126 107.843 28.2215 107.708 27.7974 107.708C26.7228 107.708 25.8499 108.568 25.8499 109.631C25.8499 110.403 26.3115 111.066 26.9754 111.372V115.478C26.3115 115.784 25.8499 116.448 25.8499 117.22C25.8499 118.282 26.7228 119.142 27.7974 119.142C28.3102 119.142 28.775 118.945 29.1227 118.626L32.4352 120.468C32.4173 120.573 32.4057 120.681 32.4057 120.791C32.4057 121.853 33.2787 122.713 34.3533 122.713C35.4292 122.713 36.3009 121.853 36.3009 120.791C36.3009 120.692 36.291 120.596 36.2766 120.502L39.7497 118.57C40.1031 118.923 40.5935 119.142 41.1354 119.142C42.2113 119.142 43.083 118.282 43.083 117.22C43.0832 116.387 42.5464 115.68 41.7965 115.413ZM33.0604 119.356L29.7223 117.499C29.7356 117.408 29.745 117.315 29.745 117.22C29.745 116.317 29.1139 115.562 28.264 115.355V111.496C28.575 111.42 28.856 111.271 29.0882 111.068L32.5576 113.085C32.5402 113.188 32.5288 113.294 32.5288 113.402C32.5288 114.247 33.0819 114.963 33.8488 115.221V118.936C33.5521 119.014 33.2836 119.16 33.0604 119.356ZM35.7186 111.921C35.3816 111.645 34.9487 111.479 34.4768 111.479C33.9787 111.479 33.5253 111.666 33.1807 111.97L29.7154 109.956C29.7336 109.85 29.7452 109.742 29.7452 109.631C29.7452 109.453 29.7188 109.282 29.6733 109.118L33.0349 107.248C33.382 107.564 33.8445 107.759 34.3538 107.759C34.8755 107.759 35.3483 107.556 35.6977 107.226L39.24 109.197C39.2074 109.336 39.1882 109.481 39.1882 109.631C39.1882 109.695 39.1919 109.758 39.1979 109.82L35.7186 111.921ZM35.6715 119.378C35.515 119.236 35.3354 119.118 35.1378 119.032V115.209C35.8876 114.942 36.4244 114.235 36.4244 113.402C36.4244 113.268 36.4105 113.137 36.3838 113.01L39.748 110.979C39.9583 111.19 40.218 111.351 40.5077 111.449V115.401C39.7411 115.659 39.1878 116.375 39.1878 117.219C39.1878 117.286 39.1912 117.351 39.1979 117.416L35.6715 119.378Z" fill="white"/>
<path d="M54.7893 114.63V113.552H56.8322C57.2667 113.552 57.626 113.468 57.9101 113.301C58.1942 113.126 58.4072 112.892 58.5493 112.599C58.6997 112.307 58.7749 111.981 58.7749 111.622C58.7749 111.254 58.6997 110.924 58.5493 110.632C58.4072 110.339 58.1942 110.109 57.9101 109.942C57.626 109.775 57.2667 109.692 56.8322 109.692H54.7893V108.614H56.6066C57.3586 108.614 57.9853 108.735 58.4866 108.977C58.9963 109.211 59.3807 109.545 59.6397 109.98C59.8987 110.414 60.0282 110.928 60.0282 111.521V111.722C60.0282 112.307 59.8987 112.821 59.6397 113.264C59.3807 113.698 58.9963 114.037 58.4866 114.279C57.9853 114.513 57.3586 114.63 56.6066 114.63H54.7893ZM53.8117 117.813V108.614H55.04V117.813H53.8117ZM64.614 118.039C64.0291 118.039 63.5152 117.939 63.0724 117.738C62.6295 117.537 62.2535 117.274 61.9444 116.948C61.6436 116.614 61.4138 116.242 61.255 115.833C61.1046 115.424 61.0294 115.006 61.0294 114.58V114.354C61.0294 113.928 61.1088 113.51 61.2676 113.101C61.4263 112.683 61.6603 112.311 61.9694 111.985C62.2786 111.651 62.6546 111.388 63.0974 111.196C63.5403 110.995 64.0458 110.895 64.614 110.895C65.1821 110.895 65.6876 110.995 66.1305 111.196C66.5733 111.388 66.9493 111.651 67.2585 111.985C67.5676 112.311 67.8016 112.683 67.9604 113.101C68.1191 113.51 68.1985 113.928 68.1985 114.354V114.58C68.1985 115.006 68.1191 115.424 67.9604 115.833C67.81 116.242 67.5802 116.614 67.271 116.948C66.9702 117.274 66.5984 117.537 66.1556 117.738C65.7127 117.939 65.1988 118.039 64.614 118.039ZM64.614 116.961C65.1153 116.961 65.5414 116.852 65.8924 116.635C66.2516 116.409 66.5232 116.109 66.707 115.733C66.8992 115.357 66.9953 114.935 66.9953 114.467C66.9953 113.991 66.8992 113.564 66.707 113.188C66.5148 112.812 66.2391 112.516 65.8798 112.299C65.5289 112.081 65.1069 111.973 64.614 111.973C64.1293 111.973 63.7074 112.081 63.3481 112.299C62.9888 112.516 62.7131 112.812 62.5209 113.188C62.3287 113.564 62.2326 113.991 62.2326 114.467C62.2326 114.935 62.3245 115.357 62.5084 115.733C62.7005 116.109 62.9721 116.409 63.323 116.635C63.6823 116.852 64.1126 116.961 64.614 116.961ZM70.0005 120.32V111.12H70.9531V114.016L70.7275 113.991C70.7693 113.272 70.9197 112.687 71.1787 112.236C71.4461 111.776 71.7928 111.438 72.2189 111.221C72.6451 111.003 73.1088 110.895 73.6101 110.895C74.0948 110.895 74.5334 110.987 74.9261 111.171C75.3272 111.354 75.6698 111.605 75.9539 111.923C76.238 112.24 76.4552 112.608 76.6056 113.025C76.756 113.443 76.8312 113.886 76.8312 114.354V114.58C76.8312 115.048 76.7518 115.49 76.5931 115.908C76.4343 116.326 76.2087 116.694 75.9163 117.011C75.6322 117.329 75.2896 117.579 74.8885 117.763C74.4958 117.947 74.0613 118.039 73.5851 118.039C73.1088 118.039 72.6534 117.934 72.2189 117.725C71.7845 117.517 71.4252 117.178 71.1411 116.71C70.857 116.242 70.6941 115.628 70.6523 114.868L71.2037 115.871V120.32H70.0005ZM73.3971 116.986C73.8483 116.986 74.241 116.882 74.5752 116.673C74.9094 116.455 75.1685 116.159 75.3523 115.783C75.5361 115.398 75.628 114.96 75.628 114.467C75.628 113.965 75.5361 113.527 75.3523 113.151C75.1685 112.775 74.9094 112.482 74.5752 112.273C74.241 112.056 73.8483 111.948 73.3971 111.948C72.996 111.948 72.6242 112.04 72.2816 112.223C71.939 112.399 71.6633 112.658 71.4544 113C71.2539 113.335 71.1536 113.74 71.1536 114.216V114.793C71.1536 115.252 71.2581 115.645 71.4669 115.971C71.6758 116.297 71.9516 116.547 72.2941 116.723C72.6367 116.898 73.0044 116.986 73.3971 116.986ZM80.9604 118.014C80.1666 118.014 79.5566 117.755 79.1305 117.237C78.7044 116.719 78.4913 115.971 78.4913 114.993V111.108H79.6945V115.231C79.6945 115.758 79.8365 116.171 80.1206 116.472C80.4047 116.765 80.7891 116.911 81.2737 116.911C81.775 116.911 82.1844 116.752 82.502 116.435C82.8195 116.109 82.9782 115.666 82.9782 115.106V111.108H84.1814V117.813H83.2289V114.943H83.3793C83.3793 115.603 83.2916 116.163 83.1161 116.623C82.9406 117.074 82.6774 117.421 82.3265 117.663C81.9839 117.897 81.5452 118.014 81.0105 118.014H80.9604ZM86.5869 117.813V108.664H87.7901V117.813H86.5869ZM85.6595 109.616V108.664H87.7901V109.616H85.6595ZM94.1462 117.813V115.808H93.9457V113.489C93.9457 113.03 93.8245 112.683 93.5822 112.449C93.3483 112.215 93.0015 112.098 92.5419 112.098C92.2829 112.098 92.0155 112.102 91.7398 112.111C91.4641 112.119 91.2009 112.127 90.9502 112.136C90.6995 112.144 90.4823 112.157 90.2985 112.173V111.12C90.4823 111.104 90.6745 111.091 90.875 111.083C91.0839 111.066 91.297 111.058 91.5142 111.058C91.7315 111.049 91.9403 111.045 92.1409 111.045C92.826 111.045 93.3859 111.129 93.8203 111.296C94.2548 111.455 94.5765 111.718 94.7854 112.085C94.9943 112.453 95.0987 112.95 95.0987 113.577V117.813H94.1462ZM91.9529 117.989C91.4515 117.989 91.0171 117.905 90.6494 117.738C90.2901 117.563 90.0102 117.312 89.8097 116.986C89.6175 116.66 89.5214 116.267 89.5214 115.808C89.5214 115.332 89.6259 114.935 89.8347 114.617C90.052 114.3 90.3653 114.062 90.7747 113.903C91.1842 113.736 91.6771 113.652 92.2537 113.652H94.071V114.555H92.2035C91.7189 114.555 91.3471 114.672 91.0881 114.905C90.8291 115.139 90.6995 115.44 90.6995 115.808C90.6995 116.176 90.8291 116.472 91.0881 116.698C91.3471 116.923 91.7189 117.036 92.2035 117.036C92.4876 117.036 92.7592 116.986 93.0182 116.886C93.2772 116.777 93.4903 116.602 93.6574 116.359C93.8329 116.109 93.929 115.766 93.9457 115.332L94.2715 115.808C94.2298 116.284 94.1128 116.685 93.9206 117.011C93.7368 117.329 93.4778 117.571 93.1435 117.738C92.8177 117.905 92.4208 117.989 91.9529 117.989ZM97.3071 117.813V111.12H98.2596V113.878H98.2095C98.2095 112.9 98.4225 112.186 98.8487 111.735C99.2831 111.275 99.9307 111.045 100.791 111.045H101.017V112.123H100.591C99.9223 112.123 99.4085 112.303 99.0492 112.662C98.6899 113.013 98.5103 113.523 98.5103 114.191V117.813H97.3071ZM105.3 117.813V111.12H106.252V113.991H106.102C106.102 113.33 106.189 112.775 106.365 112.324C106.549 111.864 106.824 111.517 107.192 111.283C107.56 111.041 108.023 110.92 108.583 110.92H108.633C109.477 110.92 110.1 111.183 110.501 111.709C110.91 112.236 111.115 112.996 111.115 113.991V117.813H109.912V113.74C109.912 113.222 109.766 112.808 109.473 112.499C109.181 112.182 108.78 112.023 108.27 112.023C107.744 112.023 107.317 112.186 106.992 112.512C106.666 112.837 106.503 113.272 106.503 113.815V117.813H105.3ZM116.161 118.039C115.577 118.039 115.071 117.939 114.645 117.738C114.219 117.537 113.872 117.274 113.605 116.948C113.337 116.614 113.137 116.242 113.003 115.833C112.878 115.424 112.815 115.006 112.815 114.58V114.354C112.815 113.92 112.878 113.498 113.003 113.088C113.137 112.679 113.337 112.311 113.605 111.985C113.872 111.651 114.21 111.388 114.62 111.196C115.038 110.995 115.526 110.895 116.086 110.895C116.813 110.895 117.411 111.054 117.879 111.371C118.355 111.68 118.706 112.081 118.931 112.574C119.165 113.067 119.282 113.594 119.282 114.153V114.692H113.341V113.79H118.405L118.129 114.279C118.129 113.803 118.054 113.393 117.904 113.051C117.753 112.7 117.528 112.428 117.227 112.236C116.926 112.044 116.546 111.948 116.086 111.948C115.61 111.948 115.213 112.056 114.896 112.273C114.586 112.491 114.353 112.787 114.194 113.163C114.043 113.539 113.968 113.974 113.968 114.467C113.968 114.943 114.043 115.373 114.194 115.758C114.353 116.134 114.595 116.435 114.921 116.66C115.247 116.877 115.66 116.986 116.161 116.986C116.688 116.986 117.114 116.869 117.44 116.635C117.774 116.401 117.975 116.13 118.041 115.82H119.169C119.078 116.28 118.894 116.677 118.618 117.011C118.342 117.345 117.996 117.6 117.578 117.776C117.16 117.951 116.688 118.039 116.161 118.039ZM123.598 117.888C123.096 117.888 122.662 117.817 122.294 117.675C121.935 117.533 121.655 117.291 121.454 116.948C121.262 116.597 121.166 116.125 121.166 115.532V109.09H122.319V115.683C122.319 116.042 122.415 116.322 122.607 116.522C122.808 116.714 123.088 116.811 123.447 116.811H124.625V117.888H123.598ZM120.013 112.023V111.12H124.625V112.023H120.013ZM128.282 117.813L129.636 111.346H131.265L132.844 117.813H131.817L130.238 111.371H130.639L129.272 117.813H128.282ZM127.668 117.813V116.861H129.059V117.813H127.668ZM127.392 117.813L125.5 111.12H126.653L128.495 117.813H127.392ZM132.067 117.813V116.861H133.459V117.813H132.067ZM132.631 117.813L134.236 111.12H135.326L133.684 117.813H132.631ZM139.912 118.039C139.327 118.039 138.813 117.939 138.37 117.738C137.927 117.537 137.551 117.274 137.242 116.948C136.941 116.614 136.712 116.242 136.553 115.833C136.403 115.424 136.327 115.006 136.327 114.58V114.354C136.327 113.928 136.407 113.51 136.565 113.101C136.724 112.683 136.958 112.311 137.267 111.985C137.576 111.651 137.952 111.388 138.395 111.196C138.838 110.995 139.344 110.895 139.912 110.895C140.48 110.895 140.986 110.995 141.428 111.196C141.871 111.388 142.247 111.651 142.556 111.985C142.866 112.311 143.1 112.683 143.258 113.101C143.417 113.51 143.496 113.928 143.496 114.354V114.58C143.496 115.006 143.417 115.424 143.258 115.833C143.108 116.242 142.878 116.614 142.569 116.948C142.268 117.274 141.896 117.537 141.453 117.738C141.011 117.939 140.497 118.039 139.912 118.039ZM139.912 116.961C140.413 116.961 140.839 116.852 141.19 116.635C141.55 116.409 141.821 116.109 142.005 115.733C142.197 115.357 142.293 114.935 142.293 114.467C142.293 113.991 142.197 113.564 142.005 113.188C141.813 112.812 141.537 112.516 141.178 112.299C140.827 112.081 140.405 111.973 139.912 111.973C139.427 111.973 139.005 112.081 138.646 112.299C138.287 112.516 138.011 112.812 137.819 113.188C137.627 113.564 137.531 113.991 137.531 114.467C137.531 114.935 137.622 115.357 137.806 115.733C137.998 116.109 138.27 116.409 138.621 116.635C138.98 116.852 139.411 116.961 139.912 116.961ZM145.298 117.813V111.12H146.251V113.878H146.201C146.201 112.9 146.414 112.186 146.84 111.735C147.275 111.275 147.922 111.045 148.783 111.045H149.008V112.123H148.582C147.914 112.123 147.4 112.303 147.041 112.662C146.681 113.013 146.502 113.523 146.502 114.191V117.813H145.298ZM155.051 117.813L152.532 114.692H151.429L154.5 111.12H155.766L152.983 114.341L153.071 113.702L156.443 117.813H155.051ZM150.439 117.813V108.664H151.642V117.813H150.439ZM159.719 118.014C158.842 118.014 158.161 117.826 157.676 117.45C157.2 117.074 156.953 116.56 156.937 115.908H158.065C158.081 116.167 158.211 116.414 158.453 116.648C158.704 116.873 159.126 116.986 159.719 116.986C160.254 116.986 160.663 116.882 160.947 116.673C161.231 116.455 161.374 116.192 161.374 115.883C161.374 115.607 161.269 115.394 161.06 115.244C160.851 115.085 160.513 114.981 160.045 114.931L159.318 114.855C158.683 114.789 158.165 114.601 157.764 114.291C157.363 113.974 157.162 113.531 157.162 112.963C157.162 112.537 157.271 112.173 157.488 111.872C157.705 111.563 158.006 111.329 158.391 111.171C158.775 111.003 159.218 110.92 159.719 110.92C160.471 110.92 161.081 111.087 161.549 111.421C162.017 111.755 162.259 112.253 162.276 112.913H161.148C161.14 112.645 161.014 112.42 160.772 112.236C160.538 112.044 160.187 111.948 159.719 111.948C159.251 111.948 158.896 112.044 158.654 112.236C158.411 112.428 158.29 112.67 158.29 112.963C158.29 113.213 158.374 113.414 158.541 113.564C158.716 113.715 159.001 113.811 159.393 113.853L160.12 113.928C160.839 114.003 161.415 114.204 161.85 114.529C162.284 114.847 162.502 115.298 162.502 115.883C162.502 116.301 162.38 116.673 162.138 116.999C161.904 117.316 161.578 117.567 161.16 117.751C160.743 117.926 160.262 118.014 159.719 118.014Z" fill="white" fill-opacity="0.75"/>
<path d="M25.0665 135.247H413.6" stroke="white" stroke-opacity="0.1" stroke-width="0.391667"/>
<path d="M36.408 152.405C38.0359 152.405 39.3556 151.633 39.3556 150.68C39.3556 149.727 38.0359 148.955 36.408 148.955C34.7801 148.955 33.4604 149.727 33.4604 150.68C33.4604 151.633 34.7801 152.405 36.408 152.405Z" fill="white"/>
<path d="M36.408 165.405C38.0359 165.405 39.3556 164.632 39.3556 163.68C39.3556 162.727 38.0359 161.954 36.408 161.954C34.7801 161.954 33.4604 162.727 33.4604 163.68C33.4604 164.632 34.7801 165.405 36.408 165.405Z" fill="white"/>
<path d="M32.3003 154.794C33.1143 153.375 33.109 151.838 32.2885 151.361C31.468 150.885 30.143 151.648 29.3291 153.067C28.5151 154.486 28.5204 156.022 29.3409 156.499C30.1614 156.976 31.4863 156.212 32.3003 154.794Z" fill="white"/>
<path d="M43.4857 161.292C44.2996 159.874 44.2948 158.337 43.4749 157.861C42.6549 157.385 41.3304 158.148 40.5164 159.567C39.7025 160.986 39.7073 162.522 40.5272 162.999C41.3472 163.475 42.6717 162.711 43.4857 161.292Z" fill="white"/>
<path d="M32.2889 162.998C33.1094 162.522 33.1147 160.985 32.3007 159.566C31.4867 158.147 30.1618 157.384 29.3413 157.861C28.5208 158.337 28.5155 159.874 29.3295 161.293C30.1435 162.711 31.4684 163.475 32.2889 162.998Z" fill="white"/>
<path d="M43.4755 156.5C44.2955 156.023 44.3003 154.487 43.4863 153.068C42.6724 151.649 41.3478 150.885 40.5279 151.362C39.708 151.838 39.7032 153.375 40.5171 154.793C41.3311 156.212 42.6556 156.976 43.4755 156.5Z" fill="white"/>
<path d="M57.1394 158.496V157.418H59.1823C59.6168 157.418 59.9761 157.335 60.2602 157.168C60.5443 156.992 60.7573 156.758 60.8994 156.466C61.0498 156.173 61.125 155.848 61.125 155.488C61.125 155.121 61.0498 154.791 60.8994 154.498C60.7573 154.206 60.5443 153.976 60.2602 153.809C59.9761 153.642 59.6168 153.558 59.1823 153.558H57.1394V152.48H58.9567C59.7087 152.48 60.3354 152.601 60.8367 152.844C61.3464 153.078 61.7308 153.412 61.9898 153.846C62.2488 154.281 62.3783 154.795 62.3783 155.388V155.588C62.3783 156.173 62.2488 156.687 61.9898 157.13C61.7308 157.565 61.3464 157.903 60.8367 158.145C60.3354 158.379 59.7087 158.496 58.9567 158.496H57.1394ZM56.1618 161.68V152.48H57.3901V161.68H56.1618ZM66.9641 161.905C66.3792 161.905 65.8653 161.805 65.4225 161.604C64.9796 161.404 64.6036 161.141 64.2945 160.815C63.9937 160.481 63.7639 160.109 63.6051 159.699C63.4547 159.29 63.3795 158.872 63.3795 158.446V158.22C63.3795 157.794 63.4589 157.377 63.6177 156.967C63.7764 156.549 64.0104 156.178 64.3195 155.852C64.6287 155.517 65.0047 155.254 65.4475 155.062C65.8904 154.862 66.3959 154.761 66.9641 154.761C67.5322 154.761 68.0377 154.862 68.4806 155.062C68.9234 155.254 69.2994 155.517 69.6086 155.852C69.9177 156.178 70.1517 156.549 70.3105 156.967C70.4692 157.377 70.5486 157.794 70.5486 158.22V158.446C70.5486 158.872 70.4692 159.29 70.3105 159.699C70.1601 160.109 69.9303 160.481 69.6211 160.815C69.3203 161.141 68.9485 161.404 68.5057 161.604C68.0628 161.805 67.5489 161.905 66.9641 161.905ZM66.9641 160.827C67.4654 160.827 67.8915 160.719 68.2425 160.502C68.6017 160.276 68.8733 159.975 69.0571 159.599C69.2493 159.223 69.3454 158.801 69.3454 158.333C69.3454 157.857 69.2493 157.431 69.0571 157.055C68.8649 156.679 68.5892 156.382 68.2299 156.165C67.879 155.948 67.457 155.839 66.9641 155.839C66.4794 155.839 66.0575 155.948 65.6982 156.165C65.3389 156.382 65.0632 156.679 64.871 157.055C64.6788 157.431 64.5827 157.857 64.5827 158.333C64.5827 158.801 64.6746 159.223 64.8585 159.599C65.0506 159.975 65.3222 160.276 65.6731 160.502C66.0324 160.719 66.4627 160.827 66.9641 160.827ZM72.4258 161.68V152.53H73.629V161.68H72.4258ZM71.4984 153.483V152.53H73.629V153.483H71.4984ZM80.5491 161.68L78.0299 158.559H76.927L79.9976 154.987H81.2635L78.4811 158.208L78.5688 157.569L81.9403 161.68H80.5491ZM75.9368 161.68V152.53H77.14V161.68H75.9368ZM87.1208 161.68V159.674H86.9203V157.356C86.9203 156.896 86.7991 156.549 86.5568 156.315C86.3228 156.081 85.9761 155.964 85.5165 155.964C85.2575 155.964 84.9901 155.969 84.7144 155.977C84.4387 155.985 84.1755 155.994 83.9248 156.002C83.6741 156.01 83.4569 156.023 83.2731 156.04V154.987C83.4569 154.97 83.6491 154.958 83.8496 154.949C84.0585 154.933 84.2715 154.924 84.4888 154.924C84.706 154.916 84.9149 154.912 85.1155 154.912C85.8006 154.912 86.3604 154.995 86.7949 155.162C87.2294 155.321 87.5511 155.584 87.76 155.952C87.9689 156.32 88.0733 156.817 88.0733 157.443V161.68H87.1208ZM84.9275 161.855C84.4261 161.855 83.9916 161.772 83.624 161.604C83.2647 161.429 82.9848 161.178 82.7843 160.852C82.5921 160.527 82.496 160.134 82.496 159.674C82.496 159.198 82.6004 158.801 82.8093 158.484C83.0266 158.166 83.3399 157.928 83.7493 157.769C84.1587 157.602 84.6517 157.519 85.2283 157.519H87.0456V158.421H85.1781C84.6935 158.421 84.3217 158.538 84.0627 158.772C83.8036 159.006 83.6741 159.307 83.6741 159.674C83.6741 160.042 83.8036 160.339 84.0627 160.564C84.3217 160.79 84.6935 160.903 85.1781 160.903C85.4622 160.903 85.7338 160.852 85.9928 160.752C86.2518 160.644 86.4649 160.468 86.632 160.226C86.8075 159.975 86.9035 159.633 86.9203 159.198L87.2461 159.674C87.2043 160.151 87.0874 160.552 86.8952 160.878C86.7114 161.195 86.4523 161.437 86.1181 161.604C85.7923 161.772 85.3954 161.855 84.9275 161.855ZM93.0766 161.905C92.6003 161.905 92.1616 161.818 91.7606 161.642C91.3595 161.467 91.0086 161.22 90.7078 160.903C90.4153 160.585 90.1855 160.217 90.0184 159.8C89.8597 159.382 89.7803 158.931 89.7803 158.446V158.22C89.7803 157.744 89.8597 157.297 90.0184 156.879C90.1772 156.462 90.3986 156.094 90.6827 155.776C90.9751 155.459 91.3177 155.212 91.7104 155.037C92.1115 154.853 92.5543 154.761 93.039 154.761C93.5487 154.761 94.0124 154.87 94.4302 155.087C94.8479 155.296 95.1905 155.626 95.4579 156.077C95.7253 156.528 95.8757 157.113 95.9091 157.832L95.4078 157.03V152.53H96.611V161.68H95.6584V158.709H96.0094C95.9759 159.47 95.8172 160.088 95.5331 160.564C95.249 161.032 94.8897 161.375 94.4552 161.592C94.0291 161.801 93.5695 161.905 93.0766 161.905ZM93.2395 160.852C93.6489 160.852 94.0207 160.761 94.355 160.577C94.6892 160.393 94.9566 160.13 95.1571 159.787C95.3576 159.436 95.4579 159.027 95.4579 158.559V157.982C95.4579 157.523 95.3535 157.134 95.1446 156.817C94.944 156.491 94.6725 156.244 94.3299 156.077C93.9957 155.902 93.628 155.814 93.227 155.814C92.7841 155.814 92.3914 155.919 92.0488 156.127C91.7146 156.336 91.4514 156.629 91.2592 157.005C91.0754 157.381 90.9835 157.824 90.9835 158.333C90.9835 158.843 91.0796 159.29 91.2718 159.674C91.4639 160.05 91.7313 160.343 92.0739 160.552C92.4165 160.752 92.805 160.852 93.2395 160.852ZM102.006 161.905C101.421 161.905 100.907 161.805 100.464 161.604C100.022 161.404 99.6455 161.141 99.3364 160.815C99.0356 160.481 98.8058 160.109 98.647 159.699C98.4966 159.29 98.4214 158.872 98.4214 158.446V158.22C98.4214 157.794 98.5008 157.377 98.6596 156.967C98.8183 156.549 99.0523 156.178 99.3614 155.852C99.6706 155.517 100.047 155.254 100.489 155.062C100.932 154.862 101.438 154.761 102.006 154.761C102.574 154.761 103.08 154.862 103.523 155.062C103.965 155.254 104.341 155.517 104.651 155.852C104.96 156.178 105.194 156.549 105.352 156.967C105.511 157.377 105.591 157.794 105.591 158.22V158.446C105.591 158.872 105.511 159.29 105.352 159.699C105.202 160.109 104.972 160.481 104.663 160.815C104.362 161.141 103.99 161.404 103.548 161.604C103.105 161.805 102.591 161.905 102.006 161.905ZM102.006 160.827C102.507 160.827 102.933 160.719 103.284 160.502C103.644 160.276 103.915 159.975 104.099 159.599C104.291 159.223 104.387 158.801 104.387 158.333C104.387 157.857 104.291 157.431 104.099 157.055C103.907 156.679 103.631 156.382 103.272 156.165C102.921 155.948 102.499 155.839 102.006 155.839C101.521 155.839 101.099 155.948 100.74 156.165C100.381 156.382 100.105 156.679 99.9129 157.055C99.7207 157.431 99.6246 157.857 99.6246 158.333C99.6246 158.801 99.7166 159.223 99.9004 159.599C100.093 159.975 100.364 160.276 100.715 160.502C101.074 160.719 101.505 160.827 102.006 160.827ZM110 161.755C109.498 161.755 109.064 161.684 108.696 161.542C108.337 161.4 108.057 161.157 107.856 160.815C107.664 160.464 107.568 159.992 107.568 159.399V152.956H108.721V159.549C108.721 159.908 108.817 160.188 109.009 160.389C109.21 160.581 109.49 160.677 109.849 160.677H111.027V161.755H110ZM106.415 155.889V154.987H111.027V155.889H106.415Z" fill="white" fill-opacity="0.75"/>
<g clip-path="url(#clip2_12525_125662)">
<path d="M406.558 150.718C406.681 150.718 406.8 150.748 406.913 150.81C407.026 150.872 407.114 150.954 407.175 151.057L409.229 154.409L412.998 155.181C413.131 155.212 413.26 155.279 413.384 155.381C413.528 155.515 413.6 155.69 413.6 155.907C413.6 156.112 413.528 156.288 413.384 156.432L410.635 159.196L411.113 163.011C411.124 163.042 411.129 163.078 411.129 163.119C411.129 163.325 411.052 163.5 410.897 163.644C410.753 163.788 410.583 163.86 410.388 163.86C410.285 163.86 410.192 163.839 410.11 163.798L406.573 162.254L403.036 163.798C402.882 163.86 402.748 163.875 402.635 163.845C402.429 163.824 402.264 163.731 402.141 163.567C402.027 163.392 401.981 163.206 402.002 163.011L402.48 159.196L399.732 156.432C399.68 156.37 399.608 156.236 399.515 156.03C399.505 155.999 399.5 155.953 399.5 155.891C399.5 155.716 399.557 155.562 399.67 155.428C399.793 155.284 399.943 155.196 400.118 155.165L403.917 154.393L405.94 151.057C406.094 150.831 406.3 150.718 406.558 150.718Z" fill="white" fill-opacity="0.1"/>
</g>
<path d="M25.0665 179.113H413.6" stroke="white" stroke-opacity="0.1" stroke-width="0.391667"/>
<path d="M43.3443 195.563H39.6887L28.722 206.53H36.0331L43.3443 195.563Z" fill="white"/>
<path d="M57.1394 205.597V204.519H59.6962C60.1892 204.519 60.5693 204.381 60.8367 204.105C61.1125 203.821 61.2503 203.445 61.2503 202.977C61.2503 202.501 61.1166 202.129 60.8493 201.862C60.5819 201.586 60.1975 201.448 59.6962 201.448H57.1394V200.646H59.5207C60.1056 200.646 60.6195 200.717 61.0623 200.859C61.5135 201.001 61.8645 201.239 62.1151 201.573C62.3741 201.899 62.5037 202.346 62.5037 202.914V203.09C62.5037 203.625 62.395 204.08 62.1778 204.456C61.9605 204.824 61.6305 205.108 61.1877 205.308C60.7448 205.5 60.1892 205.597 59.5207 205.597H57.1394ZM56.1618 205.597V196.347H57.3901V205.597H56.1618ZM57.1394 201.222V200.42H59.3578C59.8758 200.42 60.256 200.282 60.4983 200.007C60.749 199.723 60.8743 199.363 60.8743 198.929C60.8743 198.486 60.749 198.127 60.4983 197.851C60.256 197.567 59.8758 197.425 59.3578 197.425H57.1394V196.347H59.1447C60.1474 196.347 60.8952 196.56 61.3882 196.986C61.8812 197.404 62.1277 198.01 62.1277 198.803V198.979C62.1277 199.539 62.0023 199.986 61.7517 200.32C61.501 200.646 61.1501 200.88 60.6989 201.022C60.256 201.156 59.738 201.222 59.1447 201.222H57.1394ZM64.8309 205.546V198.854H66.0341V205.546H64.8309ZM63.8032 199.806V198.854H66.0341V199.806H63.8032ZM65.1693 197.776C64.902 197.776 64.7014 197.705 64.5677 197.563C64.4424 197.421 64.3797 197.241 64.3797 197.024C64.3797 196.806 64.4424 196.627 64.5677 196.485C64.7014 196.343 64.902 196.272 65.1693 196.272C65.4367 196.272 65.6331 196.343 65.7584 196.485C65.8921 196.627 65.9589 196.806 65.9589 197.024C65.9589 197.241 65.8921 197.421 65.7584 197.563C65.6331 197.705 65.4367 197.776 65.1693 197.776ZM68.536 205.546V198.515C68.536 197.772 68.7324 197.224 69.1251 196.873C69.5178 196.522 70.0943 196.347 70.8547 196.347H71.6819V197.35H70.6541C70.345 197.35 70.1068 197.437 69.9397 197.613C69.7726 197.78 69.6891 198.014 69.6891 198.315V205.546H68.536ZM67.6085 199.831V198.929H71.8072V199.831H67.6085ZM73.085 205.546V198.854H74.0375V201.611H73.9874C73.9874 200.633 74.2005 199.919 74.6266 199.468C75.0611 199.008 75.7087 198.778 76.5693 198.778H76.7949V199.856H76.3687C75.7003 199.856 75.1864 200.036 74.8271 200.395C74.4679 200.746 74.2882 201.256 74.2882 201.924V205.546H73.085ZM81.2354 205.772C80.6505 205.772 80.1366 205.672 79.6938 205.471C79.251 205.271 78.875 205.007 78.5658 204.682C78.265 204.347 78.0352 203.976 77.8765 203.566C77.7261 203.157 77.6509 202.739 77.6509 202.313V202.087C77.6509 201.661 77.7302 201.243 77.889 200.834C78.0478 200.416 78.2817 200.044 78.5909 199.718C78.9 199.384 79.276 199.121 79.7189 198.929C80.1617 198.728 80.6672 198.628 81.2354 198.628C81.8036 198.628 82.3091 198.728 82.7519 198.929C83.1948 199.121 83.5708 199.384 83.8799 199.718C84.1891 200.044 84.423 200.416 84.5818 200.834C84.7406 201.243 84.8199 201.661 84.8199 202.087V202.313C84.8199 202.739 84.7406 203.157 84.5818 203.566C84.4314 203.976 84.2016 204.347 83.8925 204.682C83.5917 205.007 83.2198 205.271 82.777 205.471C82.3342 205.672 81.8203 205.772 81.2354 205.772ZM81.2354 204.694C81.7367 204.694 82.1629 204.585 82.5138 204.368C82.8731 204.143 83.1446 203.842 83.3285 203.466C83.5206 203.09 83.6167 202.668 83.6167 202.2C83.6167 201.724 83.5206 201.298 83.3285 200.922C83.1363 200.546 82.8606 200.249 82.5013 200.032C82.1503 199.814 81.7284 199.706 81.2354 199.706C80.7508 199.706 80.3288 199.814 79.9695 200.032C79.6102 200.249 79.3345 200.546 79.1423 200.922C78.9502 201.298 78.8541 201.724 78.8541 202.2C78.8541 202.668 78.946 203.09 79.1298 203.466C79.322 203.842 79.5935 204.143 79.9445 204.368C80.3038 204.585 80.7341 204.694 81.2354 204.694ZM88.8153 205.747C87.938 205.747 87.257 205.559 86.7724 205.183C86.2961 204.807 86.0496 204.293 86.0329 203.641H87.1609C87.1776 203.9 87.3072 204.147 87.5495 204.381C87.8001 204.606 88.2221 204.719 88.8153 204.719C89.3501 204.719 89.7595 204.615 90.0436 204.406C90.3277 204.189 90.4697 203.925 90.4697 203.616C90.4697 203.341 90.3653 203.127 90.1564 202.977C89.9475 202.818 89.6091 202.714 89.1412 202.664L88.4143 202.589C87.7792 202.522 87.2612 202.334 86.8601 202.025C86.4591 201.707 86.2585 201.264 86.2585 200.696C86.2585 200.27 86.3672 199.906 86.5844 199.606C86.8016 199.296 87.1024 199.062 87.4868 198.904C87.8712 198.737 88.314 198.653 88.8153 198.653C89.5673 198.653 90.1773 198.82 90.6452 199.154C91.1131 199.489 91.3554 199.986 91.3721 200.646H90.2441C90.2358 200.378 90.1104 200.153 89.8681 199.969C89.6342 199.777 89.2832 199.681 88.8153 199.681C88.3474 199.681 87.9923 199.777 87.75 199.969C87.5077 200.161 87.3865 200.404 87.3865 200.696C87.3865 200.947 87.4701 201.147 87.6372 201.298C87.8127 201.448 88.0968 201.544 88.4895 201.586L89.2164 201.661C89.935 201.736 90.5115 201.937 90.946 202.263C91.3805 202.58 91.5977 203.031 91.5977 203.616C91.5977 204.034 91.4766 204.406 91.2343 204.732C91.0003 205.049 90.6744 205.3 90.2567 205.484C89.8389 205.659 89.3584 205.747 88.8153 205.747ZM95.9485 205.622C95.4471 205.622 95.0126 205.551 94.645 205.409C94.2857 205.266 94.0058 205.024 93.8053 204.682C93.6131 204.331 93.517 203.859 93.517 203.265V196.823H94.6701V203.416C94.6701 203.775 94.7662 204.055 94.9583 204.255C95.1589 204.448 95.4388 204.544 95.7981 204.544H96.9762V205.622H95.9485ZM92.3639 199.756V198.854H96.9762V199.756H92.3639Z" fill="white" fill-opacity="0.75"/>
<g clip-path="url(#clip3_12525_125662)">
<path d="M406.558 194.584C406.681 194.584 406.8 194.615 406.913 194.677C407.026 194.739 407.114 194.821 407.175 194.924L409.229 198.275L412.998 199.047C413.131 199.078 413.26 199.145 413.384 199.248C413.528 199.382 413.6 199.557 413.6 199.773C413.6 199.979 413.528 200.154 413.384 200.298L410.635 203.063L411.113 206.877C411.124 206.908 411.129 206.944 411.129 206.985C411.129 207.191 411.052 207.366 410.897 207.511C410.753 207.655 410.583 207.727 410.388 207.727C410.285 207.727 410.192 207.706 410.11 207.665L406.573 206.121L403.036 207.665C402.882 207.727 402.748 207.742 402.635 207.711C402.429 207.691 402.264 207.598 402.141 207.433C402.027 207.258 401.981 207.073 402.002 206.877L402.48 203.063L399.732 200.298C399.68 200.237 399.608 200.103 399.515 199.897C399.505 199.866 399.5 199.82 399.5 199.758C399.5 199.583 399.557 199.428 399.67 199.295C399.793 199.15 399.943 199.063 400.118 199.032L403.917 198.26L405.94 194.924C406.094 194.697 406.3 194.584 406.558 194.584Z" fill="white" fill-opacity="0.1"/>
</g>
<path d="M25.0665 222.98H413.6" stroke="white" stroke-opacity="0.1" stroke-width="0.391667"/>
<path fill-rule="evenodd" clip-rule="evenodd" d="M35.9903 236.286L38.8755 240.597L41.7608 244.909L35.9903 247.816L30.2198 244.898L33.1051 240.586L35.9903 236.286ZM35.9903 248.978L30.5399 246.07L35.9903 253.51L41.4407 246.07L35.9903 248.978Z" fill="#343434"/>
<path fill-rule="evenodd" clip-rule="evenodd" d="M35.9904 236.286L38.8756 240.586L41.7608 244.898L35.9904 242.72V236.286Z" fill="#C6C6C6"/>
<path fill-rule="evenodd" clip-rule="evenodd" d="M35.9904 248.978L41.4518 246.07L35.9904 253.521V248.978Z" fill="#C6C6C6"/>
<path fill-rule="evenodd" clip-rule="evenodd" d="M35.9904 242.72L41.7608 244.898L35.9904 247.805V242.72Z" fill="#A3A3A3"/>
<path fill-rule="evenodd" clip-rule="evenodd" d="M35.9903 236.286L33.1051 240.586L30.2198 244.898L35.9903 242.72V236.286Z" fill="white"/>
<path fill-rule="evenodd" clip-rule="evenodd" d="M35.9902 248.978L30.5398 246.07L35.9902 253.521V248.978Z" fill="white"/>
<path fill-rule="evenodd" clip-rule="evenodd" d="M35.9903 242.72L30.2198 244.898L35.9903 247.805V242.72Z" fill="#BFBFBF"/>
<path d="M56.1618 249.413V240.264H57.3901V249.413H56.1618ZM57.1394 249.413V248.31H61.5762V249.413H57.1394ZM57.1394 245.315V244.212H61.1877V245.315H57.1394ZM57.1394 241.367V240.264H61.4509V241.367H57.1394ZM66.1084 249.488C65.607 249.488 65.1725 249.417 64.8049 249.275C64.4456 249.133 64.1657 248.891 63.9652 248.548C63.773 248.197 63.6769 247.725 63.6769 247.132V240.69H64.83V247.282C64.83 247.642 64.926 247.922 65.1182 248.122C65.3188 248.314 65.5987 248.41 65.958 248.41H67.1361V249.488H66.1084ZM62.5238 243.623V242.72H67.1361V243.623H62.5238ZM68.8379 249.413V240.264H70.0411V245.728H69.7403C69.7403 245.068 69.8238 244.5 69.9909 244.024C70.1664 243.539 70.4338 243.167 70.7931 242.908C71.1524 242.649 71.6119 242.52 72.1717 242.52H72.2219C73.024 242.52 73.6298 242.787 74.0392 243.322C74.4486 243.848 74.6533 244.604 74.6533 245.59V249.413H73.4501V245.34C73.4501 244.797 73.2956 244.375 72.9864 244.074C72.6856 243.773 72.2929 243.623 71.8083 243.623C71.2735 243.623 70.8432 243.802 70.5173 244.162C70.1998 244.513 70.0411 244.976 70.0411 245.553V249.413H68.8379ZM79.6999 249.639C79.115 249.639 78.6095 249.538 78.1833 249.338C77.7572 249.137 77.4105 248.874 77.1431 248.548C76.8757 248.214 76.6752 247.842 76.5415 247.433C76.4161 247.023 76.3535 246.606 76.3535 246.179V245.954C76.3535 245.519 76.4161 245.097 76.5415 244.688C76.6752 244.279 76.8757 243.911 77.1431 243.585C77.4105 243.251 77.7489 242.988 78.1583 242.795C78.5761 242.595 79.0649 242.495 79.6247 242.495C80.3516 242.495 80.949 242.653 81.4169 242.971C81.8932 243.28 82.2441 243.681 82.4697 244.174C82.7037 244.667 82.8207 245.194 82.8207 245.753V246.292H76.8799V245.39H81.9433L81.6676 245.879C81.6676 245.402 81.5924 244.993 81.442 244.65C81.2916 244.299 81.066 244.028 80.7652 243.836C80.4644 243.644 80.0842 243.547 79.6247 243.547C79.1484 243.547 78.7515 243.656 78.434 243.873C78.1249 244.091 77.8909 244.387 77.7321 244.763C77.5817 245.139 77.5065 245.574 77.5065 246.067C77.5065 246.543 77.5817 246.973 77.7321 247.358C77.8909 247.734 78.1332 248.034 78.4591 248.26C78.7849 248.477 79.1985 248.586 79.6999 248.586C80.2263 248.586 80.6524 248.469 80.9783 248.235C81.3125 248.001 81.513 247.729 81.5799 247.42H82.7079C82.616 247.88 82.4321 248.277 82.1564 248.611C81.8807 248.945 81.5339 249.2 81.1161 249.375C80.6984 249.551 80.2263 249.639 79.6999 249.639ZM84.529 249.413V242.72H85.4816V245.478H85.4314C85.4314 244.5 85.6445 243.786 86.0706 243.334C86.5051 242.875 87.1527 242.645 88.0133 242.645H88.2389V243.723H87.8128C87.1443 243.723 86.6305 243.903 86.2712 244.262C85.9119 244.613 85.7322 245.123 85.7322 245.791V249.413H84.529ZM92.4413 249.639C91.8564 249.639 91.3509 249.538 90.9247 249.338C90.4986 249.137 90.1519 248.874 89.8845 248.548C89.6171 248.214 89.4166 247.842 89.2829 247.433C89.1575 247.023 89.0949 246.606 89.0949 246.179V245.954C89.0949 245.519 89.1575 245.097 89.2829 244.688C89.4166 244.279 89.6171 243.911 89.8845 243.585C90.1519 243.251 90.4903 242.988 90.8997 242.795C91.3175 242.595 91.8063 242.495 92.3661 242.495C93.093 242.495 93.6904 242.653 94.1584 242.971C94.6346 243.28 94.9855 243.681 95.2112 244.174C95.4451 244.667 95.5621 245.194 95.5621 245.753V246.292H89.6213V245.39H94.6848L94.409 245.879C94.409 245.402 94.3338 244.993 94.1834 244.65C94.033 244.299 93.8074 244.028 93.5066 243.836C93.2058 243.644 92.8256 243.547 92.3661 243.547C91.8898 243.547 91.4929 243.656 91.1754 243.873C90.8663 244.091 90.6323 244.387 90.4735 244.763C90.3231 245.139 90.2479 245.574 90.2479 246.067C90.2479 246.543 90.3231 246.973 90.4735 247.358C90.6323 247.734 90.8746 248.034 91.2005 248.26C91.5263 248.477 91.9399 248.586 92.4413 248.586C92.9677 248.586 93.3938 248.469 93.7197 248.235C94.0539 248.001 94.2544 247.729 94.3213 247.42H95.4493C95.3574 247.88 95.1736 248.277 94.8978 248.611C94.6221 248.945 94.2753 249.2 93.8575 249.375C93.4398 249.551 92.9677 249.639 92.4413 249.639ZM99.5891 249.614C98.7953 249.614 98.1854 249.355 97.7592 248.837C97.3331 248.319 97.12 247.571 97.12 246.593V242.708H98.3232V246.831C98.3232 247.358 98.4653 247.771 98.7494 248.072C99.0335 248.364 99.4178 248.511 99.9024 248.511C100.404 248.511 100.813 248.352 101.131 248.034C101.448 247.709 101.607 247.266 101.607 246.706V242.708H102.81V249.413H101.858V246.543H102.008C102.008 247.203 101.92 247.763 101.745 248.222C101.569 248.674 101.306 249.02 100.955 249.263C100.613 249.497 100.174 249.614 99.6392 249.614H99.5891ZM105.14 249.413V242.72H106.093V245.59H105.943C105.943 244.939 106.026 244.387 106.193 243.936C106.369 243.476 106.628 243.126 106.97 242.883C107.313 242.641 107.747 242.52 108.274 242.52H108.324C108.85 242.52 109.285 242.641 109.627 242.883C109.978 243.126 110.237 243.476 110.404 243.936C110.572 244.387 110.655 244.939 110.655 245.59H110.304C110.304 244.939 110.392 244.387 110.567 243.936C110.743 243.476 111.002 243.126 111.344 242.883C111.695 242.641 112.134 242.52 112.66 242.52H112.711C113.237 242.52 113.676 242.641 114.027 242.883C114.378 243.126 114.637 243.476 114.804 243.936C114.979 244.387 115.067 244.939 115.067 245.59V249.413H113.864V245.327C113.864 244.784 113.73 244.366 113.463 244.074C113.195 243.773 112.823 243.623 112.347 243.623C111.854 243.623 111.457 243.781 111.156 244.099C110.856 244.408 110.705 244.843 110.705 245.402V249.413H109.502V245.327C109.502 244.784 109.368 244.366 109.101 244.074C108.834 243.773 108.462 243.623 107.986 243.623C107.493 243.623 107.096 243.781 106.795 244.099C106.494 244.408 106.344 244.843 106.344 245.402V249.413H105.14Z" fill="white" fill-opacity="0.75"/>
<g clip-path="url(#clip4_12525_125662)">
<path d="M406.558 238.451C406.681 238.451 406.8 238.482 406.913 238.544C407.026 238.605 407.114 238.688 407.175 238.791L409.229 242.142L412.998 242.914C413.131 242.945 413.26 243.012 413.384 243.115C413.528 243.249 413.6 243.424 413.6 243.64C413.6 243.846 413.528 244.021 413.384 244.165L410.635 246.929L411.113 250.744C411.124 250.775 411.129 250.811 411.129 250.852C411.129 251.058 411.052 251.233 410.897 251.377C410.753 251.521 410.583 251.593 410.388 251.593C410.285 251.593 410.192 251.573 410.11 251.532L406.573 249.987L403.036 251.532C402.882 251.593 402.748 251.609 402.635 251.578C402.429 251.557 402.264 251.465 402.141 251.3C402.027 251.125 401.981 250.94 402.002 250.744L402.48 246.929L399.732 244.165C399.68 244.103 399.608 243.969 399.515 243.764C399.505 243.733 399.5 243.686 399.5 243.625C399.5 243.45 399.557 243.295 399.67 243.161C399.793 243.017 399.943 242.93 400.118 242.899L403.917 242.127L405.94 238.791C406.094 238.564 406.3 238.451 406.558 238.451Z" fill="#7700EE"/>
</g>
<path d="M25.0665 266.847H413.6" stroke="white" stroke-opacity="0.1" stroke-width="0.391667"/>
<path d="M40.9031 295.409C42.9379 293.912 44.2582 291.5 44.2582 288.78C44.2582 284.237 40.5758 280.555 36.0332 280.555C31.4906 280.555 27.8082 284.237 27.8082 288.78C27.8082 291.5 29.1286 293.912 31.1634 295.409L35.3663 288.763H31.0658V287.346H35.3663V285.888H31.0658V284.472H41.0007V285.888H36.701V287.346H41.0007V288.763H36.701L40.9031 295.409Z" fill="white"/>
<path d="M39.7468 296.121L36.0332 290.246L32.3196 296.121C33.4352 296.686 34.697 297.005 36.0332 297.005C37.3694 297.005 38.6312 296.686 39.7468 296.121Z" fill="white"/>
<path d="M61.9271 293.28L58.2047 289.006H56.8637L61.1125 284.13H62.5162L58.6559 288.542L58.5431 287.677L63.4562 293.28H61.9271ZM56.1618 293.28V284.13H57.3901V293.28H56.1618ZM68.5289 293.28V291.274H68.3283V288.956C68.3283 288.496 68.2072 288.149 67.9649 287.916C67.7309 287.682 67.3841 287.565 66.9246 287.565C66.6656 287.565 66.3982 287.569 66.1225 287.577C65.8467 287.585 65.5835 287.594 65.3329 287.602C65.0822 287.611 64.8649 287.623 64.6811 287.64V286.587C64.8649 286.57 65.0571 286.558 65.2577 286.549C65.4665 286.533 65.6796 286.524 65.8969 286.524C66.1141 286.516 66.323 286.512 66.5235 286.512C67.2087 286.512 67.7685 286.595 68.203 286.762C68.6375 286.921 68.9592 287.184 69.1681 287.552C69.3769 287.92 69.4814 288.417 69.4814 289.044V293.28H68.5289ZM66.3355 293.455C65.8342 293.455 65.3997 293.372 65.0321 293.205C64.6728 293.029 64.3929 292.778 64.1923 292.453C64.0001 292.127 63.9041 291.734 63.9041 291.274C63.9041 290.798 64.0085 290.401 64.2174 290.084C64.4346 289.766 64.748 289.528 65.1574 289.369C65.5668 289.202 66.0598 289.119 66.6363 289.119H68.4537V290.021H66.5862C66.1016 290.021 65.7297 290.138 65.4707 290.372C65.2117 290.606 65.0822 290.907 65.0822 291.274C65.0822 291.642 65.2117 291.939 65.4707 292.164C65.7297 292.39 66.1016 292.503 66.5862 292.503C66.8703 292.503 67.1418 292.453 67.4009 292.352C67.6599 292.244 67.8729 292.068 68.0401 291.826C68.2155 291.575 68.3116 291.233 68.3283 290.798L68.6542 291.274C68.6124 291.751 68.4954 292.152 68.3033 292.478C68.1194 292.795 67.8604 293.037 67.5262 293.205C67.2003 293.372 66.8034 293.455 66.3355 293.455ZM71.6897 293.28V286.587H72.6422V289.344H72.5921C72.5921 288.367 72.8052 287.652 73.2313 287.201C73.6658 286.742 74.3133 286.512 75.174 286.512H75.3996V287.59H74.9734C74.305 287.59 73.7911 287.769 73.4318 288.129C73.0725 288.48 72.8929 288.989 72.8929 289.658V293.28H71.6897ZM79.149 293.48C78.3552 293.48 77.7453 293.221 77.3191 292.703C76.893 292.185 76.6799 291.437 76.6799 290.46V286.574H77.8831V290.698C77.8831 291.224 78.0252 291.638 78.3093 291.939C78.5934 292.231 78.9777 292.377 79.4623 292.377C79.9637 292.377 80.3731 292.219 80.6906 291.901C81.0081 291.575 81.1669 291.132 81.1669 290.573V286.574H82.3701V293.28H81.4175V290.41H81.5679C81.5679 291.07 81.4802 291.63 81.3047 292.089C81.1293 292.54 80.8661 292.887 80.5151 293.129C80.1726 293.363 79.7339 293.48 79.1991 293.48H79.149ZM84.7004 293.28V286.587H85.6529V289.344H85.6028C85.6028 288.367 85.8158 287.652 86.242 287.201C86.6765 286.742 87.324 286.512 88.1846 286.512H88.4102V287.59H87.9841C87.3157 287.59 86.8018 287.769 86.4425 288.129C86.0832 288.48 85.9036 288.989 85.9036 289.658V293.28H84.7004ZM93.8648 293.28V291.274H93.6643V288.956C93.6643 288.496 93.5431 288.149 93.3008 287.916C93.0668 287.682 92.7201 287.565 92.2605 287.565C92.0015 287.565 91.7341 287.569 91.4584 287.577C91.1827 287.585 90.9195 287.594 90.6688 287.602C90.4181 287.611 90.2009 287.623 90.0171 287.64V286.587C90.2009 286.57 90.3931 286.558 90.5936 286.549C90.8025 286.533 91.0155 286.524 91.2328 286.524C91.45 286.516 91.6589 286.512 91.8595 286.512C92.5446 286.512 93.1044 286.595 93.5389 286.762C93.9734 286.921 94.2951 287.184 94.504 287.552C94.7129 287.92 94.8173 288.417 94.8173 289.044V293.28H93.8648ZM91.6715 293.455C91.1701 293.455 90.7356 293.372 90.368 293.205C90.0087 293.029 89.7288 292.778 89.5283 292.453C89.3361 292.127 89.24 291.734 89.24 291.274C89.24 290.798 89.3444 290.401 89.5533 290.084C89.7706 289.766 90.0839 289.528 90.4933 289.369C90.9027 289.202 91.3957 289.119 91.9723 289.119H93.7896V290.021H91.9221C91.4375 290.021 91.0657 290.138 90.8067 290.372C90.5476 290.606 90.4181 290.907 90.4181 291.274C90.4181 291.642 90.5476 291.939 90.8067 292.164C91.0657 292.39 91.4375 292.503 91.9221 292.503C92.2062 292.503 92.4778 292.453 92.7368 292.352C92.9958 292.244 93.2089 292.068 93.376 291.826C93.5515 291.575 93.6475 291.233 93.6643 290.798L93.9901 291.274C93.9483 291.751 93.8314 292.152 93.6392 292.478C93.4554 292.795 93.1963 293.037 92.8621 293.205C92.5363 293.372 92.1394 293.455 91.6715 293.455Z" fill="white" fill-opacity="0.75"/>
<g clip-path="url(#clip5_12525_125662)">
<path d="M406.558 282.318C406.681 282.318 406.8 282.349 406.913 282.41C407.026 282.472 407.114 282.554 407.175 282.657L409.229 286.009L412.998 286.781C413.131 286.812 413.26 286.879 413.384 286.982C413.528 287.115 413.6 287.29 413.6 287.507C413.6 287.713 413.528 287.888 413.384 288.032L410.635 290.796L411.113 294.611C411.124 294.642 411.129 294.678 411.129 294.719C411.129 294.925 411.052 295.1 410.897 295.244C410.753 295.388 410.583 295.46 410.388 295.46C410.285 295.46 410.192 295.44 410.11 295.398L406.573 293.854L403.036 295.398C402.882 295.46 402.748 295.476 402.635 295.445C402.429 295.424 402.264 295.331 402.141 295.167C402.027 294.992 401.981 294.806 402.002 294.611L402.48 290.796L399.732 288.032C399.68 287.97 399.608 287.836 399.515 287.63C399.505 287.599 399.5 287.553 399.5 287.491C399.5 287.316 399.557 287.162 399.67 287.028C399.793 286.884 399.943 286.796 400.118 286.765L403.917 285.993L405.94 282.657C406.094 282.431 406.3 282.318 406.558 282.318Z" fill="#7700EE"/>
</g>
<rect x="25.0667" y="61.8799" width="40.9333" height="23.5" rx="11.75" fill="white" fill-opacity="0.05"/>
<path d="M36.4555 76.6299L38.7209 69.7679H41.2119L43.5619 76.6299H41.9639L40.0651 70.8301L40.5539 71.0275H39.3413L39.8489 70.8301L37.9971 76.6299H36.4555ZM38.1757 74.9285L38.6457 73.6501H41.3341L41.8135 74.9285H38.1757ZM44.739 76.6299V69.7679H46.2806V76.6299H44.739ZM46.0926 76.6299V75.2763H48.969V76.6299H46.0926ZM50.2626 76.6299V69.7679H51.8042V76.6299H50.2626ZM51.6162 76.6299V75.2763H54.4926V76.6299H51.6162Z" fill="white" fill-opacity="0.5"/>
<rect x="76.9667" y="61.8799" width="71.9333" height="23.5" rx="11.75" fill="#7700EE" fill-opacity="0.25"/>
<path d="M90.4731 74.6653V73.3305H91.7045C91.9426 73.3305 92.1463 73.2835 92.3155 73.1895C92.4909 73.0955 92.6257 72.9639 92.7197 72.7947C92.8137 72.6192 92.8607 72.4187 92.8607 72.1931C92.8607 71.9549 92.8137 71.7513 92.7197 71.5821C92.6257 71.4066 92.4909 71.275 92.3155 71.1873C92.1463 71.0933 91.9426 71.0463 91.7045 71.0463H90.4731V69.7115H91.6293C92.2121 69.7115 92.7103 69.8086 93.1239 70.0029C93.5437 70.1971 93.8633 70.4729 94.0827 70.8301C94.3083 71.1873 94.4211 71.6165 94.4211 72.1179V72.2683C94.4211 72.7571 94.3083 73.1832 94.0827 73.5467C93.8633 73.9039 93.5437 74.1796 93.1239 74.3739C92.7103 74.5681 92.2121 74.6653 91.6293 74.6653H90.4731ZM89.1195 76.6299V69.7115H90.6611V76.6299H89.1195ZM98.9612 76.8085C98.3408 76.8085 97.7987 76.7019 97.335 76.4889C96.8775 76.2695 96.4984 75.9844 96.1976 75.6335C95.8968 75.2763 95.6712 74.8909 95.5208 74.4773C95.3767 74.0637 95.3046 73.6657 95.3046 73.2835V73.0767C95.3046 72.6505 95.3798 72.2307 95.5302 71.8171C95.6869 71.3972 95.9187 71.0181 96.2258 70.6797C96.5329 70.3413 96.9151 70.0718 97.3726 69.8713C97.8301 69.6645 98.3596 69.5611 98.9612 69.5611C99.5628 69.5611 100.092 69.6645 100.55 69.8713C101.007 70.0718 101.39 70.3413 101.697 70.6797C102.004 71.0181 102.236 71.3972 102.392 71.8171C102.549 72.2307 102.627 72.6505 102.627 73.0767V73.2835C102.627 73.6657 102.552 74.0637 102.402 74.4773C102.251 74.8909 102.026 75.2763 101.725 75.6335C101.424 75.9844 101.042 76.2695 100.578 76.4889C100.121 76.7019 99.5816 76.8085 98.9612 76.8085ZM98.9612 75.3703C99.2871 75.3703 99.5785 75.3139 99.8354 75.2011C100.099 75.0883 100.321 74.9316 100.503 74.7311C100.691 74.5305 100.832 74.2987 100.926 74.0355C101.02 73.7723 101.067 73.4903 101.067 73.1895C101.067 72.8699 101.017 72.5785 100.916 72.3153C100.822 72.0458 100.681 71.8139 100.493 71.6197C100.312 71.4191 100.092 71.2656 99.8354 71.1591C99.5785 71.0525 99.2871 70.9993 98.9612 70.9993C98.6353 70.9993 98.3439 71.0525 98.087 71.1591C97.8301 71.2656 97.6076 71.4191 97.4196 71.6197C97.2379 71.8139 97.1 72.0458 97.006 72.3153C96.912 72.5785 96.865 72.8699 96.865 73.1895C96.865 73.4903 96.912 73.7723 97.006 74.0355C97.1 74.2987 97.2379 74.5305 97.4196 74.7311C97.6076 74.9316 97.8301 75.0883 98.087 75.2011C98.3439 75.3139 98.6353 75.3703 98.9612 75.3703ZM105.431 74.6653V73.3305H106.662C106.9 73.3305 107.104 73.2835 107.273 73.1895C107.449 73.0955 107.583 72.9639 107.677 72.7947C107.771 72.6192 107.818 72.4187 107.818 72.1931C107.818 71.9549 107.771 71.7513 107.677 71.5821C107.583 71.4066 107.449 71.275 107.273 71.1873C107.104 71.0933 106.9 71.0463 106.662 71.0463H105.431V69.7115H106.587C107.17 69.7115 107.668 69.8086 108.082 70.0029C108.501 70.1971 108.821 70.4729 109.04 70.8301C109.266 71.1873 109.379 71.6165 109.379 72.1179V72.2683C109.379 72.7571 109.266 73.1832 109.04 73.5467C108.821 73.9039 108.501 74.1796 108.082 74.3739C107.668 74.5681 107.17 74.6653 106.587 74.6653H105.431ZM104.077 76.6299V69.7115H105.619V76.6299H104.077ZM113.505 76.8085C112.86 76.8085 112.312 76.6894 111.86 76.4513C111.415 76.2069 111.077 75.8622 110.845 75.4173C110.613 74.9723 110.497 74.4459 110.497 73.8381V69.7679H112.039V73.8945C112.039 74.1953 112.095 74.4585 112.208 74.6841C112.327 74.9034 112.493 75.0726 112.706 75.1917C112.926 75.3107 113.192 75.3703 113.505 75.3703C113.825 75.3703 114.091 75.3107 114.304 75.1917C114.524 75.0726 114.69 74.9034 114.803 74.6841C114.915 74.4647 114.972 74.2015 114.972 73.8945V69.7679H116.513V73.8381C116.513 74.4459 116.397 74.9723 116.166 75.4173C115.934 75.8622 115.595 76.2069 115.15 76.4513C114.705 76.6894 114.157 76.8085 113.505 76.8085ZM118.209 76.6299V69.7679H119.75V76.6299H118.209ZM119.562 76.6299V75.2763H122.439V76.6299H119.562ZM123.139 76.6299L125.404 69.7679H127.895L130.245 76.6299H128.647L126.748 70.8301L127.237 71.0275H126.025L126.532 70.8301L124.68 76.6299H123.139ZM124.859 74.9285L125.329 73.6501H128.017L128.497 74.9285H124.859ZM131.422 76.6299V69.7115H132.964V76.6299H131.422ZM135.587 76.6299L133.575 73.6783H135.267L137.373 76.6299H135.587ZM132.55 74.4303V73.2177H134.242C134.468 73.2177 134.662 73.1738 134.825 73.0861C134.994 72.9921 135.123 72.8636 135.211 72.7007C135.305 72.5315 135.352 72.3372 135.352 72.1179C135.352 71.8985 135.305 71.7074 135.211 71.5445C135.123 71.3753 134.994 71.2468 134.825 71.1591C134.662 71.0651 134.468 71.0181 134.242 71.0181H132.55V69.7115H134.12C134.69 69.7115 135.186 69.7992 135.605 69.9747C136.025 70.1439 136.348 70.3977 136.574 70.7361C136.799 71.0745 136.912 71.5006 136.912 72.0145V72.1649C136.912 72.6725 136.796 73.0955 136.564 73.4339C136.339 73.766 136.016 74.0167 135.596 74.1859C135.182 74.3488 134.69 74.4303 134.12 74.4303H132.55Z" fill="white" fill-opacity="0.75"/>
<rect x="159.867" y="61.8799" width="79.9333" height="23.5" rx="11.75" fill="white" fill-opacity="0.05"/>
<path d="M171.804 76.6299V69.7679H173.346V76.6299H171.804ZM173.158 73.8663V72.5879H175.808V73.8663H173.158ZM173.158 71.0463V69.7679H175.921V71.0463H173.158ZM176.257 76.6299L178.522 69.7679H181.013L183.363 76.6299H181.765L179.866 70.8301L180.355 71.0275H179.143L179.65 70.8301L177.798 76.6299H176.257ZM177.977 74.9285L178.447 73.6501H181.135L181.615 74.9285H177.977ZM185.586 76.6299L183.499 69.7679H185.087L186.742 75.5583L186.385 75.3797H187.343L186.967 75.5583L188.5 69.7679H190.041L188.095 76.6299H185.586ZM194.483 76.8085C193.863 76.8085 193.321 76.7019 192.857 76.4889C192.399 76.2695 192.02 75.9844 191.719 75.6335C191.419 75.2763 191.193 74.8909 191.043 74.4773C190.898 74.0637 190.826 73.6657 190.826 73.2835V73.0767C190.826 72.6505 190.902 72.2307 191.052 71.8171C191.209 71.3972 191.441 71.0181 191.748 70.6797C192.055 70.3413 192.437 70.0718 192.894 69.8713C193.352 69.6645 193.881 69.5611 194.483 69.5611C195.085 69.5611 195.614 69.6645 196.072 69.8713C196.529 70.0718 196.911 70.3413 197.218 70.6797C197.525 71.0181 197.757 71.3972 197.914 71.8171C198.071 72.2307 198.149 72.6505 198.149 73.0767V73.2835C198.149 73.6657 198.074 74.0637 197.923 74.4773C197.773 74.8909 197.547 75.2763 197.247 75.6335C196.946 75.9844 196.564 76.2695 196.1 76.4889C195.642 76.7019 195.103 76.8085 194.483 76.8085ZM194.483 75.3703C194.809 75.3703 195.1 75.3139 195.357 75.2011C195.62 75.0883 195.843 74.9316 196.025 74.7311C196.213 74.5305 196.354 74.2987 196.448 74.0355C196.542 73.7723 196.589 73.4903 196.589 73.1895C196.589 72.8699 196.538 72.5785 196.438 72.3153C196.344 72.0458 196.203 71.8139 196.015 71.6197C195.833 71.4191 195.614 71.2656 195.357 71.1591C195.1 71.0525 194.809 70.9993 194.483 70.9993C194.157 70.9993 193.866 71.0525 193.609 71.1591C193.352 71.2656 193.129 71.4191 192.941 71.6197C192.76 71.8139 192.622 72.0458 192.528 72.3153C192.434 72.5785 192.387 72.8699 192.387 73.1895C192.387 73.4903 192.434 73.7723 192.528 74.0355C192.622 74.2987 192.76 74.5305 192.941 74.7311C193.129 74.9316 193.352 75.0883 193.609 75.2011C193.866 75.3139 194.157 75.3703 194.483 75.3703ZM202.475 76.8085C201.83 76.8085 201.282 76.6894 200.83 76.4513C200.385 76.2069 200.047 75.8622 199.815 75.4173C199.583 74.9723 199.467 74.4459 199.467 73.8381V69.7679H201.009V73.8945C201.009 74.1953 201.065 74.4585 201.178 74.6841C201.297 74.9034 201.463 75.0726 201.676 75.1917C201.896 75.3107 202.162 75.3703 202.475 75.3703C202.795 75.3703 203.061 75.3107 203.274 75.1917C203.494 75.0726 203.66 74.9034 203.773 74.6841C203.885 74.4647 203.942 74.2015 203.942 73.8945V69.7679H205.483V73.8381C205.483 74.4459 205.367 74.9723 205.136 75.4173C204.904 75.8622 204.565 76.2069 204.12 76.4513C203.675 76.6894 203.127 76.8085 202.475 76.8085ZM207.179 76.6299V69.7115H208.72V76.6299H207.179ZM211.343 76.6299L209.331 73.6783H211.023L213.129 76.6299H211.343ZM208.307 74.4303V73.2177H209.999C210.224 73.2177 210.419 73.1738 210.582 73.0861C210.751 72.9921 210.879 72.8636 210.967 72.7007C211.061 72.5315 211.108 72.3372 211.108 72.1179C211.108 71.8985 211.061 71.7074 210.967 71.5445C210.879 71.3753 210.751 71.2468 210.582 71.1591C210.419 71.0651 210.224 71.0181 209.999 71.0181H208.307V69.7115H209.877C210.447 69.7115 210.942 69.7992 211.362 69.9747C211.782 70.1439 212.104 70.3977 212.33 70.7361C212.556 71.0745 212.668 71.5006 212.668 72.0145V72.1649C212.668 72.6725 212.553 73.0955 212.321 73.4339C212.095 73.766 211.772 74.0167 211.352 74.1859C210.939 74.3488 210.447 74.4303 209.877 74.4303H208.307ZM214.346 76.6299V69.7679H215.888V76.6299H214.346ZM219.093 76.6299V70.9241H220.635V76.6299H219.093ZM217.166 71.1121V69.7679H222.571V71.1121H217.166ZM223.823 76.6299V69.7679H225.327V76.6299H223.823ZM225.139 76.6299V75.3515H228.138V76.6299H225.139ZM225.139 73.7817V72.5033H227.921V73.7817H225.139ZM225.139 71.0463V69.7679H228.072V71.0463H225.139Z" fill="white" fill-opacity="0.5"/>
</g>
</g>
</g>
<defs>
<filter id="filter0_i_12525_125662" x="0" y="0" width="438" height="473.129" filterUnits="userSpaceOnUse" color-interpolation-filters="sRGB">
<feFlood flood-opacity="0" result="BackgroundImageFix"/>
<feBlend mode="normal" in="SourceGraphic" in2="BackgroundImageFix" result="shape"/>
<feColorMatrix in="SourceAlpha" type="matrix" values="0 0 0 0 0 0 0 0 0 0 0 0 0 0 0 0 0 0 127 0" result="hardAlpha"/>
<feOffset dy="3.12857"/>
<feGaussianBlur stdDeviation="6.64821"/>
<feComposite in2="hardAlpha" operator="arithmetic" k2="-1" k3="1"/>
<feColorMatrix type="matrix" values="0 0 0 0 1 0 0 0 0 1 0 0 0 0 1 0 0 0 0.06 0"/>
<feBlend mode="normal" in2="shape" result="effect1_innerShadow_12525_125662"/>
</filter>
<clipPath id="clip0_12525_125662">
<rect width="438" height="299" fill="white"/>
</clipPath>
<clipPath id="clip1_12525_125662">
<rect width="438" height="470" rx="17.9893" fill="white"/>
</clipPath>
<clipPath id="clip2_12525_125662">
<rect width="14.1" height="14.1" fill="white" transform="translate(399.5 150.13)"/>
</clipPath>
<clipPath id="clip3_12525_125662">
<rect width="14.1" height="14.1" fill="white" transform="translate(399.5 193.997)"/>
</clipPath>
<clipPath id="clip4_12525_125662">
<rect width="14.1" height="14.1" fill="white" transform="translate(399.5 237.863)"/>
</clipPath>
<clipPath id="clip5_12525_125662">
<rect width="14.1" height="14.1" fill="white" transform="translate(399.5 281.73)"/>
</clipPath>
</defs>
</svg>
