<svg xmlns="http://www.w3.org/2000/svg" width="438" height="299" fill="none"><g clip-path="url(#a)" filter="url(#b)"><g clip-path="url(#c)"><rect width="438" height="470" fill="#fff" fill-opacity=".01" rx="17.989"/><path fill="#fff" d="M134.767 29.175V18.882h3.793l3.878 8.418h.479l-.282.253v-8.671h2.171v10.293h-3.821l-3.877-8.418h-.48l.282-.254v8.672h-2.143Zm15.764.268c-.658 0-1.241-.113-1.749-.338a3.744 3.744 0 0 1-1.255-.903 4.34 4.34 0 0 1-.761-1.283 4.381 4.381 0 0 1-.254-1.466v-.282c0-.517.085-1.01.254-1.48.179-.48.432-.908.761-1.284a3.467 3.467 0 0 1 1.227-.888c.498-.226 1.062-.339 1.692-.339.827 0 1.523.188 2.087.564.573.367 1.01.851 1.311 1.453.301.592.451 1.24.451 1.945v.762h-6.838V24.62h5.471l-.733.592c0-.46-.066-.855-.198-1.184a1.531 1.531 0 0 0-.592-.748c-.254-.178-.573-.268-.959-.268-.395 0-.728.09-1.001.268-.273.179-.479.442-.62.79-.141.338-.212.756-.212 1.255 0 .46.066.864.198 1.212.131.339.338.602.62.79.282.188.649.282 1.1.282.413 0 .752-.08 1.015-.24.263-.16.442-.357.536-.592h2.072a3.247 3.247 0 0 1-.662 1.382c-.329.404-.743.719-1.241.945-.498.225-1.072.338-1.72.338Zm8.77-.17c-.78 0-1.41-.093-1.889-.281a1.987 1.987 0 0 1-1.058-.973c-.216-.46-.324-1.081-.324-1.861V19.36h2.101v6.881c0 .367.094.649.282.846.197.188.475.282.832.282h1.142v1.904h-1.086Zm-4.441-6.175v-1.65h5.527v1.65h-5.527Zm9.878 6.077 1.41-7.473h2.468l1.635 7.473h-1.748l-1.678-7.417h1.001l-1.509 7.417h-1.579Zm-.536 0-.014-1.875h1.551l.014 1.875h-1.551Zm-1.015 0-2.073-7.727h2.214l1.932 7.727h-2.073Zm5.894 0 .014-1.875h1.551v1.875h-1.565Zm.634 0 1.721-7.727h2.072l-1.861 7.727h-1.932Zm8.773.268c-.677 0-1.278-.104-1.805-.31a4.032 4.032 0 0 1-1.339-.874 3.814 3.814 0 0 1-.818-1.255 4.096 4.096 0 0 1-.282-1.51v-.323c0-.536.094-1.044.282-1.523.197-.489.479-.917.846-1.283a4.013 4.013 0 0 1 1.354-.86 4.597 4.597 0 0 1 1.762-.325c.668 0 1.26.108 1.777.325a3.86 3.86 0 0 1 1.339.86c.367.366.649.794.846 1.283.198.48.296.987.296 1.523v.324c0 .526-.094 1.03-.282 1.509-.188.47-.465.888-.832 1.255a3.88 3.88 0 0 1-1.325.874c-.526.207-1.133.31-1.819.31Zm0-1.904c.442 0 .809-.094 1.1-.282.291-.188.512-.45.663-.79a2.62 2.62 0 0 0 .239-1.127c0-.442-.08-.827-.239-1.156a1.92 1.92 0 0 0-.691-.804c-.292-.197-.649-.296-1.072-.296-.413 0-.771.099-1.071.296a1.913 1.913 0 0 0-.691.804c-.151.329-.226.714-.226 1.156 0 .413.075.79.226 1.128.15.338.376.601.676.79.301.187.663.281 1.086.281Zm5.833 1.636v-7.727h1.791v3.314h-.043c0-1.09.231-1.932.691-2.524.47-.592 1.147-.889 2.031-.889h.296v1.946h-.564c-.621 0-1.1.17-1.439.508-.338.329-.507.808-.507 1.438v3.934h-2.256Zm11.377 0-2.439-3.61h-1.086l3.144-4.117h2.369l-2.961 3.835.028-1.1 3.483 4.992h-2.538Zm-5.443 0V18.882h2.256v10.293h-2.256Zm11.718.24c-1.1 0-1.96-.226-2.58-.677-.62-.451-.949-1.086-.987-1.904h2.002c.038.245.183.466.437.663.263.188.654.282 1.171.282.394 0 .719-.066.972-.197.264-.141.395-.339.395-.593a.612.612 0 0 0-.296-.535c-.197-.141-.55-.24-1.057-.296l-.607-.057c-.93-.094-1.631-.352-2.101-.775-.46-.423-.69-.964-.69-1.622 0-.545.136-1 .408-1.367.273-.367.649-.644 1.128-.832.489-.188 1.044-.282 1.664-.282.997 0 1.8.22 2.411.662.611.433.931 1.063.959 1.89H203.2a.95.95 0 0 0-.395-.635c-.225-.178-.559-.268-1.001-.268-.348 0-.625.066-.832.198-.207.131-.31.31-.31.535 0 .217.089.381.268.494.178.113.47.193.874.24l.606.056c.95.104 1.688.367 2.214.79.526.423.79.991.79 1.706 0 .517-.141.968-.423 1.353-.282.376-.682.668-1.199.875-.517.197-1.123.296-1.819.296Zm7.863-.24v-7.727h1.79v3.328h-.126c0-.79.098-1.448.296-1.974.197-.527.493-.921.888-1.185.395-.272.879-.409 1.452-.409h.099c.583 0 1.067.137 1.452.41.395.263.691.657.889 1.184.206.526.31 1.184.31 1.974h-.55c0-.79.099-1.448.296-1.974.207-.527.508-.921.902-1.185.395-.272.879-.409 1.453-.409h.098c.583 0 1.072.137 1.467.41.404.263.709.657.916 1.184.207.526.31 1.184.31 1.974v4.399h-2.256v-4.526c0-.423-.112-.766-.338-1.03-.216-.263-.526-.394-.931-.394-.404 0-.723.136-.958.409-.235.263-.353.615-.353 1.057v4.484h-2.27v-4.526c0-.423-.113-.766-.338-1.03-.217-.263-.522-.394-.917-.394-.413 0-.738.136-.973.409-.235.263-.352.615-.352 1.057v4.484h-2.256Zm18.533 0v-2.284h-.381v-2.482c0-.395-.094-.69-.282-.888-.188-.198-.489-.296-.902-.296a42.195 42.195 0 0 0-1.862.056c-.357.019-.681.038-.972.057v-1.904c.216-.019.47-.038.761-.056a29.024 29.024 0 0 1 1.777-.056c.789 0 1.452.112 1.988.338.545.225.958.568 1.24 1.029.282.451.423 1.034.423 1.748v4.738h-1.79Zm-2.468.197c-.554 0-1.043-.098-1.466-.296a2.306 2.306 0 0 1-.973-.846c-.235-.376-.353-.822-.353-1.34 0-.563.146-1.024.438-1.381.291-.367.7-.634 1.226-.804.527-.178 1.133-.268 1.819-.268h1.65v1.255h-1.664c-.395 0-.7.099-.916.296-.207.188-.311.447-.311.776 0 .31.104.564.311.761.216.188.521.282.916.282.254 0 .479-.042.677-.127.207-.094.376-.249.507-.465.132-.216.207-.517.226-.902l.536.564c-.047.536-.179.987-.395 1.353a2.107 2.107 0 0 1-.874.846c-.367.198-.818.296-1.354.296Zm6.173-.197v-7.727h1.79v3.314h-.127c0-.79.099-1.448.296-1.974.207-.527.517-.922.931-1.185.414-.263.917-.395 1.509-.395h.098c.903 0 1.589.297 2.059.889.479.583.719 1.47.719 2.665v4.413h-2.256v-4.54c0-.414-.122-.752-.366-1.015-.245-.264-.574-.395-.987-.395-.423 0-.767.136-1.03.409-.254.263-.38.61-.38 1.043v4.498h-2.256Zm13.865 0v-2.284h-.381v-2.482c0-.395-.094-.69-.282-.888-.188-.198-.489-.296-.902-.296a42.195 42.195 0 0 0-1.862.056c-.357.019-.681.038-.973.057v-1.904c.217-.019.47-.038.762-.056a28.96 28.96 0 0 1 1.776-.056c.79 0 1.453.112 1.989.338.545.225.958.568 1.24 1.029.282.451.423 1.034.423 1.748v4.738h-1.79Zm-2.468.197c-.554 0-1.043-.098-1.466-.296a2.306 2.306 0 0 1-.973-.846c-.235-.376-.353-.822-.353-1.34 0-.563.146-1.024.437-1.381.292-.367.701-.634 1.227-.804.527-.178 1.133-.268 1.819-.268h1.65v1.255h-1.664c-.395 0-.7.099-.917.296-.206.188-.31.447-.31.776 0 .31.104.564.31.761.217.188.522.282.917.282.254 0 .479-.042.677-.127.207-.094.376-.249.507-.465.132-.216.207-.517.226-.902l.536.564c-.047.536-.179.987-.395 1.353a2.107 2.107 0 0 1-.874.846c-.367.198-.818.296-1.354.296Zm9.218 2.877c-.376 0-.761-.014-1.156-.043a15.547 15.547 0 0 1-1.086-.112V30.19c.329.047.691.085 1.086.113.404.038.771.056 1.1.056.611 0 1.104-.07 1.48-.211.386-.141.668-.357.846-.649.179-.282.268-.648.268-1.1v-1.536l.409-.903c-.019.686-.155 1.274-.409 1.763a2.66 2.66 0 0 1-1.029 1.128c-.442.254-.968.38-1.579.38a3.573 3.573 0 0 1-1.439-.282 3.206 3.206 0 0 1-1.085-.817 3.673 3.673 0 0 1-.691-1.213c-.16-.47-.24-.978-.24-1.523v-.324c0-.545.085-1.053.254-1.523.169-.47.413-.879.733-1.227.32-.347.7-.615 1.142-.803a3.557 3.557 0 0 1 1.467-.296c.62 0 1.156.136 1.607.409.461.272.822.672 1.086 1.198.263.526.404 1.16.423 1.904l-.311.084v-3.37h1.791v6.81c0 .95-.169 1.716-.507 2.299-.339.583-.856 1.01-1.551 1.283-.687.272-1.556.409-2.609.409Zm.635-4.921c.347 0 .662-.075.944-.226.282-.16.503-.385.663-.677.169-.29.254-.643.254-1.057v-.409c0-.404-.09-.742-.268-1.015a1.627 1.627 0 0 0-.677-.635 1.89 1.89 0 0 0-.902-.225c-.376 0-.71.09-1.001.268a1.797 1.797 0 0 0-.677.747c-.16.32-.24.696-.24 1.128 0 .442.08.822.24 1.142.169.31.395.55.677.72.291.159.62.239.987.239Zm9.525 2.115c-.658 0-1.241-.113-1.749-.338a3.744 3.744 0 0 1-1.255-.903 4.34 4.34 0 0 1-.761-1.283 4.381 4.381 0 0 1-.254-1.466v-.282c0-.517.085-1.01.254-1.48.179-.48.432-.908.761-1.284a3.467 3.467 0 0 1 1.227-.888c.498-.226 1.062-.339 1.692-.339.827 0 1.523.188 2.087.564.573.367 1.01.851 1.311 1.453.301.592.451 1.24.451 1.945v.762h-6.838V24.62h5.471l-.733.592c0-.46-.066-.855-.198-1.184a1.531 1.531 0 0 0-.592-.748c-.254-.178-.573-.268-.959-.268-.395 0-.728.09-1.001.268-.273.179-.479.442-.62.79-.141.338-.212.756-.212 1.255 0 .46.066.864.198 1.212.131.339.338.602.62.79.282.188.649.282 1.1.282.413 0 .752-.08 1.015-.24.263-.16.442-.357.536-.592h2.072a3.247 3.247 0 0 1-.662 1.382c-.329.404-.743.719-1.241.945-.498.225-1.072.338-1.72.338Zm5.259-.268v-7.727h1.791v3.328h-.127c0-.79.099-1.448.296-1.974.198-.527.494-.921.889-1.185.394-.272.879-.409 1.452-.409h.099c.582 0 1.067.137 1.452.41.395.263.691.657.888 1.184.207.526.31 1.184.31 1.974h-.549c0-.79.098-1.448.296-1.974.206-.527.507-.921.902-1.185.395-.272.879-.409 1.452-.409h.099c.583 0 1.072.137 1.466.41.405.263.71.657.917 1.184.207.526.31 1.184.31 1.974v4.399h-2.256v-4.526c0-.423-.113-.766-.338-1.03-.216-.263-.527-.394-.931-.394s-.724.136-.959.409c-.235.263-.352.615-.352 1.057v4.484h-2.27v-4.526c0-.423-.113-.766-.339-1.03-.216-.263-.521-.394-.916-.394-.414 0-.738.136-.973.409-.235.263-.353.615-.353 1.057v4.484h-2.256Zm17.405.268c-.658 0-1.24-.113-1.748-.338a3.744 3.744 0 0 1-1.255-.903 4.32 4.32 0 0 1-.761-1.283 4.381 4.381 0 0 1-.254-1.466v-.282c0-.517.085-1.01.254-1.48.178-.48.432-.908.761-1.284a3.467 3.467 0 0 1 1.227-.888c.498-.226 1.062-.339 1.692-.339.827 0 1.523.188 2.087.564.573.367 1.01.851 1.311 1.453.301.592.451 1.24.451 1.945v.762h-6.838V24.62h5.47l-.733.592c0-.46-.066-.855-.197-1.184a1.537 1.537 0 0 0-.592-.748c-.254-.178-.574-.268-.959-.268-.395 0-.729.09-1.001.268-.273.179-.48.442-.621.79-.141.338-.211.756-.211 1.255 0 .46.066.864.197 1.212.132.339.339.602.621.79.282.188.648.282 1.099.282.414 0 .752-.08 1.016-.24.263-.16.441-.357.535-.592h2.073a3.26 3.26 0 0 1-.663 1.382c-.329.404-.742.719-1.24.945-.499.225-1.072.338-1.721.338Zm5.26-.268v-7.727h1.791v3.314h-.127c0-.79.099-1.448.296-1.974.207-.527.517-.922.931-1.185.413-.263.916-.395 1.508-.395h.099c.902 0 1.589.297 2.059.889.479.583.719 1.47.719 2.665v4.413h-2.256v-4.54c0-.414-.123-.752-.367-1.015-.244-.264-.573-.395-.987-.395-.423 0-.766.136-1.029.409-.254.263-.381.61-.381 1.043v4.498h-2.256Zm12.709.099c-.78 0-1.41-.094-1.889-.282a1.987 1.987 0 0 1-1.058-.973c-.216-.46-.324-1.081-.324-1.861V19.36h2.101v6.881c0 .367.094.649.282.846.197.188.474.282.832.282h1.142v1.904h-1.086Zm-4.441-6.176v-1.65h5.527v1.65h-5.527Z"/><path stroke="#fff" stroke-opacity=".1" stroke-width=".783" d="M0 48.958h438.667"/><path fill="#fff" d="M41.797 115.413v-3.975a1.923 1.923 0 0 0 1.286-1.807 1.935 1.935 0 0 0-1.947-1.923c-.455 0-.873.155-1.204.413l-3.65-2.03c.011-.084.02-.168.02-.255 0-1.062-.873-1.923-1.949-1.923-1.074 0-1.947.861-1.947 1.923 0 .098.01.194.024.288l-3.498 1.946a1.953 1.953 0 0 0-1.135-.362c-1.074 0-1.947.86-1.947 1.923a1.92 1.92 0 0 0 1.125 1.741v4.106a1.92 1.92 0 0 0-1.125 1.742c0 1.062.873 1.922 1.947 1.922.513 0 .978-.197 1.326-.516l3.312 1.842c-.018.105-.03.213-.03.323 0 1.062.874 1.922 1.948 1.922 1.076 0 1.948-.86 1.948-1.922 0-.099-.01-.195-.024-.289l3.473-1.932c.353.353.843.572 1.385.572 1.076 0 1.948-.86 1.948-1.922 0-.833-.537-1.54-1.286-1.807Zm-8.737 3.943-3.338-1.857c.014-.091.023-.184.023-.279 0-.903-.631-1.658-1.481-1.865v-3.859c.311-.076.592-.225.824-.428l3.47 2.017a1.903 1.903 0 0 0-.03.317c0 .845.554 1.561 1.32 1.819v3.715a1.944 1.944 0 0 0-.788.42Zm2.659-7.435a1.954 1.954 0 0 0-1.242-.442c-.498 0-.952.187-1.296.491l-3.466-2.014c.019-.106.03-.214.03-.325 0-.178-.026-.349-.072-.513l3.362-1.87c.347.316.81.511 1.319.511a1.95 1.95 0 0 0 1.344-.533l3.542 1.971a1.897 1.897 0 0 0-.042.623l-3.48 2.101Zm-.047 7.457a1.958 1.958 0 0 0-.534-.346v-3.823a1.923 1.923 0 0 0 1.246-2.199l3.364-2.031c.21.211.47.372.76.47v3.952a1.925 1.925 0 0 0-1.31 2.015l-3.526 1.962Z"/><path fill="#fff" fill-opacity=".75" d="M54.79 114.63v-1.078h2.042c.435 0 .794-.084 1.078-.251.284-.175.497-.409.64-.702.15-.292.225-.618.225-.977a2.13 2.13 0 0 0-.226-.99 1.59 1.59 0 0 0-.639-.69c-.284-.167-.643-.25-1.078-.25H54.79v-1.078h1.818c.752 0 1.378.121 1.88.363.51.234.894.568 1.153 1.003.259.434.388.948.388 1.541v.201c0 .585-.13 1.099-.388 1.542-.26.434-.644.773-1.153 1.015-.502.234-1.128.351-1.88.351h-1.818Zm-.978 3.183v-9.199h1.228v9.199h-1.228Zm10.802.226c-.585 0-1.099-.1-1.542-.301a3.56 3.56 0 0 1-1.128-.79c-.3-.334-.53-.706-.689-1.115a3.606 3.606 0 0 1-.226-1.253v-.226c0-.426.08-.844.239-1.253a3.32 3.32 0 0 1 .701-1.116 3.31 3.31 0 0 1 1.128-.789c.443-.201.949-.301 1.517-.301s1.074.1 1.516.301a3.31 3.31 0 0 1 1.129.789c.309.326.543.698.701 1.116.16.409.239.827.239 1.253v.226c0 .426-.08.844-.239 1.253-.15.409-.38.781-.689 1.115-.3.326-.673.589-1.115.79-.443.201-.957.301-1.542.301Zm0-1.078c.501 0 .927-.109 1.278-.326.36-.226.631-.526.815-.902.192-.376.288-.798.288-1.266 0-.476-.096-.903-.288-1.279a2.174 2.174 0 0 0-.827-.889c-.351-.218-.773-.326-1.266-.326-.485 0-.907.108-1.266.326-.36.217-.635.513-.827.889a2.772 2.772 0 0 0-.288 1.279c0 .468.092.89.275 1.266.192.376.464.676.815.902.36.217.79.326 1.291.326ZM70 120.32v-9.2h.953v2.896l-.225-.025c.041-.719.192-1.304.45-1.755.268-.46.615-.798 1.04-1.015a3.01 3.01 0 0 1 1.392-.326c.485 0 .923.092 1.316.276a3.07 3.07 0 0 1 1.028.752c.284.317.501.685.652 1.102.15.418.225.861.225 1.329v.226c0 .468-.08.91-.238 1.328a3.38 3.38 0 0 1-.677 1.103 3.083 3.083 0 0 1-1.028.752 3.034 3.034 0 0 1-1.303.276c-.476 0-.932-.105-1.366-.314-.434-.208-.794-.547-1.078-1.015-.284-.468-.447-1.082-.489-1.842l.552 1.003v4.449H70Zm3.397-3.334c.451 0 .844-.104 1.178-.313.334-.218.593-.514.777-.89.184-.385.276-.823.276-1.316 0-.502-.092-.94-.276-1.316a2.093 2.093 0 0 0-.777-.878c-.334-.217-.727-.325-1.178-.325-.401 0-.773.092-1.115.275a2.06 2.06 0 0 0-.828.777c-.2.335-.3.74-.3 1.216v.577c0 .459.104.852.313 1.178.209.326.485.576.827.752.343.175.71.263 1.103.263Zm7.563 1.028c-.793 0-1.403-.259-1.83-.777-.426-.518-.639-1.266-.639-2.244v-3.885h1.204v4.123c0 .527.142.94.426 1.241.284.293.668.439 1.153.439.501 0 .91-.159 1.228-.476.318-.326.476-.769.476-1.329v-3.998h1.203v6.705h-.952v-2.87h.15c0 .66-.087 1.22-.263 1.68-.175.451-.439.798-.79 1.04-.342.234-.78.351-1.316.351h-.05Zm5.627-.201v-9.149h1.203v9.149h-1.203Zm-.928-8.197v-.952h2.131v.952h-2.13Zm8.487 8.197v-2.005h-.2v-2.319c0-.459-.121-.806-.364-1.04-.234-.234-.58-.351-1.04-.351-.26 0-.526.004-.802.013-.276.008-.54.016-.79.025-.25.008-.468.021-.651.037v-1.053c.183-.016.375-.029.576-.037.209-.017.422-.025.64-.025.216-.009.425-.013.626-.013.685 0 1.245.084 1.68.251.434.159.755.422.964.789.21.368.314.865.314 1.492v4.236h-.953Zm-2.193.176c-.502 0-.936-.084-1.304-.251a1.98 1.98 0 0 1-.84-.752c-.191-.326-.288-.719-.288-1.178 0-.476.105-.873.314-1.191.217-.317.53-.555.94-.714.41-.167.902-.251 1.479-.251h1.817v.903h-1.867c-.485 0-.857.117-1.116.35a1.162 1.162 0 0 0-.388.903c0 .368.13.664.388.89.26.225.63.338 1.116.338.284 0 .555-.05.814-.15.26-.109.472-.284.64-.527.175-.25.271-.593.288-1.027l.326.476c-.042.476-.16.877-.351 1.203-.184.318-.443.56-.778.727-.325.167-.722.251-1.19.251Zm5.354-.176v-6.693h.953v2.758h-.05c0-.978.213-1.692.639-2.143.434-.46 1.082-.69 1.942-.69h.226v1.078h-.426c-.669 0-1.182.18-1.542.539-.36.351-.539.861-.539 1.529v3.622h-1.203Zm7.993 0v-6.693h.952v2.871h-.15c0-.661.087-1.216.263-1.667.184-.46.459-.807.827-1.041.368-.242.831-.363 1.391-.363h.05c.844 0 1.467.263 1.868.789.409.527.614 1.287.614 2.282v3.822h-1.203v-4.073c0-.518-.146-.932-.439-1.241-.292-.317-.693-.476-1.203-.476-.526 0-.953.163-1.278.489-.326.325-.489.76-.489 1.303v3.998H105.3Zm10.861.226c-.584 0-1.09-.1-1.516-.301a2.94 2.94 0 0 1-1.04-.79 3.515 3.515 0 0 1-.602-1.115 4.266 4.266 0 0 1-.188-1.253v-.226c0-.434.063-.856.188-1.266.134-.409.334-.777.602-1.103a2.793 2.793 0 0 1 1.015-.789c.418-.201.906-.301 1.466-.301.727 0 1.325.159 1.793.476.476.309.827.71 1.052 1.203.234.493.351 1.02.351 1.579v.539h-5.941v-.902h5.064l-.276.489c0-.476-.075-.886-.225-1.228a1.765 1.765 0 0 0-.677-.815c-.301-.192-.681-.288-1.141-.288-.476 0-.873.108-1.19.325-.31.218-.543.514-.702.89-.151.376-.226.811-.226 1.304 0 .476.075.906.226 1.291.159.376.401.677.727.902.326.217.739.326 1.24.326.527 0 .953-.117 1.279-.351.334-.234.535-.505.601-.815h1.128a2.64 2.64 0 0 1-.551 1.191 2.667 2.667 0 0 1-1.04.765c-.418.175-.89.263-1.417.263Zm7.437-.151c-.502 0-.936-.071-1.304-.213a1.659 1.659 0 0 1-.84-.727c-.192-.351-.288-.823-.288-1.416v-6.442h1.153v6.593c0 .359.096.639.288.839.201.192.481.289.84.289h1.178v1.077h-1.027Zm-3.585-5.865v-.903h4.612v.903h-4.612Zm8.269 5.79 1.354-6.467h1.629l1.579 6.467h-1.027l-1.579-6.442h.401l-1.367 6.442h-.99Zm-.614 0v-.952h1.391v.952h-1.391Zm-.276 0-1.892-6.693h1.153l1.842 6.693h-1.103Zm4.675 0v-.952h1.392v.952h-1.392Zm.564 0 1.605-6.693h1.09l-1.642 6.693h-1.053Zm7.281.226c-.585 0-1.099-.1-1.542-.301a3.559 3.559 0 0 1-1.128-.79 3.604 3.604 0 0 1-.689-1.115 3.615 3.615 0 0 1-.226-1.253v-.226c0-.426.08-.844.238-1.253.159-.418.393-.79.702-1.116a3.305 3.305 0 0 1 1.128-.789c.443-.201.949-.301 1.517-.301s1.074.1 1.516.301c.443.192.819.455 1.128.789.31.326.544.698.702 1.116.159.409.238.827.238 1.253v.226c0 .426-.079.844-.238 1.253a3.31 3.31 0 0 1-.689 1.115 3.418 3.418 0 0 1-1.116.79c-.442.201-.956.301-1.541.301Zm0-1.078c.501 0 .927-.109 1.278-.326.36-.226.631-.526.815-.902.192-.376.288-.798.288-1.266 0-.476-.096-.903-.288-1.279a2.175 2.175 0 0 0-.827-.889c-.351-.218-.773-.326-1.266-.326-.485 0-.907.108-1.266.326a2.175 2.175 0 0 0-.827.889 2.774 2.774 0 0 0-.288 1.279c0 .468.091.89.275 1.266.192.376.464.676.815.902.359.217.79.326 1.291.326Zm5.386.852v-6.693h.953v2.758h-.05c0-.978.213-1.692.639-2.143.435-.46 1.082-.69 1.943-.69h.225v1.078h-.426c-.668 0-1.182.18-1.541.539-.36.351-.539.861-.539 1.529v3.622h-1.204Zm9.753 0-2.519-3.121h-1.103l3.071-3.572h1.266l-2.783 3.221.088-.639 3.372 4.111h-1.392Zm-4.612 0v-9.149h1.203v9.149h-1.203Zm9.28.201c-.877 0-1.558-.188-2.043-.564-.476-.376-.723-.89-.739-1.542h1.128c.016.259.146.506.388.74.251.225.673.338 1.266.338.535 0 .944-.104 1.228-.313.284-.218.427-.481.427-.79a.74.74 0 0 0-.314-.639c-.209-.159-.547-.263-1.015-.313l-.727-.076c-.635-.066-1.153-.254-1.554-.564-.401-.317-.602-.76-.602-1.328 0-.426.109-.79.326-1.091a2 2 0 0 1 .903-.701c.384-.168.827-.251 1.328-.251.752 0 1.362.167 1.83.501.468.334.71.832.727 1.492h-1.128c-.008-.268-.134-.493-.376-.677-.234-.192-.585-.288-1.053-.288-.468 0-.823.096-1.065.288a.888.888 0 0 0-.364.727c0 .25.084.451.251.601.175.151.46.247.852.289l.727.075c.719.075 1.295.276 1.73.601.434.318.652.769.652 1.354 0 .418-.122.79-.364 1.116-.234.317-.56.568-.978.752-.417.175-.898.263-1.441.263Z"/><path stroke="#fff" stroke-opacity=".1" stroke-width=".392" d="M25.067 135.247H413.6"/><path fill="#fff" d="M36.408 152.405c1.628 0 2.948-.772 2.948-1.725 0-.953-1.32-1.725-2.948-1.725s-2.948.772-2.948 1.725c0 .953 1.32 1.725 2.948 1.725ZM36.408 165.405c1.628 0 2.948-.773 2.948-1.725 0-.953-1.32-1.726-2.948-1.726s-2.948.773-2.948 1.726c0 .952 1.32 1.725 2.948 1.725ZM32.3 154.794c.814-1.419.809-2.956-.011-3.433-.821-.476-2.146.287-2.96 1.706-.814 1.419-.809 2.955.012 3.432.82.477 2.145-.287 2.96-1.705ZM43.486 161.292c.814-1.418.809-2.955-.011-3.431-.82-.476-2.145.287-2.959 1.706-.813 1.419-.809 2.955.011 3.432.82.476 2.145-.288 2.959-1.707ZM32.289 162.998c.82-.476.826-2.013.012-3.432s-2.14-2.182-2.96-1.705c-.82.476-.826 2.013-.012 3.432.814 1.418 2.14 2.182 2.96 1.705ZM43.475 156.5c.82-.477.825-2.013.011-3.432s-2.138-2.183-2.958-1.706c-.82.476-.825 2.013-.01 3.431.813 1.419 2.138 2.183 2.957 1.707Z"/><path fill="#fff" fill-opacity=".75" d="M57.14 158.496v-1.078h2.042c.435 0 .794-.083 1.078-.25.284-.176.497-.41.64-.702.15-.293.225-.618.225-.978 0-.367-.075-.697-.226-.99a1.592 1.592 0 0 0-.639-.689c-.284-.167-.643-.251-1.078-.251H57.14v-1.078h1.818c.752 0 1.378.121 1.88.364.51.234.894.568 1.153 1.002.259.435.388.949.388 1.542v.2c0 .585-.13 1.099-.388 1.542-.26.435-.644.773-1.153 1.015-.502.234-1.128.351-1.88.351h-1.818Zm-.978 3.184v-9.2h1.228v9.2h-1.228Zm10.802.225c-.585 0-1.099-.1-1.541-.301a3.543 3.543 0 0 1-1.129-.789c-.3-.334-.53-.706-.689-1.116a3.606 3.606 0 0 1-.225-1.253v-.226c0-.426.079-.843.238-1.253.158-.418.392-.789.702-1.115.309-.335.685-.598 1.128-.79.442-.2.948-.301 1.516-.301.568 0 1.074.101 1.517.301.442.192.818.455 1.128.79.309.326.543.697.702 1.115.158.41.238.827.238 1.253v.226c0 .426-.08.844-.239 1.253-.15.41-.38.782-.689 1.116-.3.326-.672.589-1.115.789-.443.201-.957.301-1.542.301Zm0-1.078c.501 0 .927-.108 1.279-.325.359-.226.63-.527.814-.903.192-.376.288-.798.288-1.266 0-.476-.096-.902-.288-1.278a2.177 2.177 0 0 0-.827-.89c-.351-.217-.773-.326-1.266-.326-.485 0-.906.109-1.266.326-.36.217-.635.514-.827.89a2.768 2.768 0 0 0-.288 1.278c0 .468.092.89.276 1.266.192.376.463.677.814.903.36.217.79.325 1.291.325Zm5.462.853v-9.15h1.203v9.15h-1.203Zm-.928-8.197v-.953h2.131v.953h-2.13Zm9.051 8.197-2.52-3.121h-1.102l3.07-3.572h1.266l-2.782 3.221.088-.639 3.371 4.111h-1.39Zm-4.612 0v-9.15h1.203v9.15h-1.203Zm11.184 0v-2.006h-.2v-2.318c0-.46-.122-.807-.364-1.041-.234-.234-.58-.351-1.04-.351-.26 0-.527.005-.803.013l-.79.025c-.25.008-.467.021-.65.038v-1.053c.183-.017.375-.029.576-.038.209-.016.422-.025.639-.025.217-.008.426-.012.626-.012.686 0 1.245.083 1.68.25.434.159.756.422.965.79.209.368.313.865.313 1.491v4.237h-.952Zm-2.194.175c-.5 0-.935-.083-1.303-.251a1.98 1.98 0 0 1-.84-.752c-.192-.325-.288-.718-.288-1.178 0-.476.104-.873.313-1.19.218-.318.53-.556.94-.715.41-.167.903-.25 1.48-.25h1.817v.902h-1.868c-.484 0-.856.117-1.115.351a1.16 1.16 0 0 0-.389.902c0 .368.13.665.389.89.259.226.63.339 1.115.339.284 0 .556-.051.815-.151.259-.108.472-.284.639-.526.175-.251.271-.593.288-1.028l.326.476c-.042.477-.159.878-.35 1.204a1.816 1.816 0 0 1-.778.726c-.326.168-.723.251-1.19.251Zm8.15.05c-.477 0-.915-.087-1.316-.263a3.205 3.205 0 0 1-1.053-.739 3.58 3.58 0 0 1-.69-1.103 3.782 3.782 0 0 1-.238-1.354v-.226c0-.476.08-.923.238-1.341.16-.417.38-.785.665-1.103a3.148 3.148 0 0 1 2.356-1.015c.51 0 .973.109 1.391.326.418.209.76.539 1.028.99.267.451.418 1.036.451 1.755l-.501-.802v-4.5h1.203v9.15h-.953v-2.971h.351c-.033.761-.192 1.379-.476 1.855-.284.468-.643.811-1.078 1.028a3.088 3.088 0 0 1-1.378.313Zm.163-1.053c.409 0 .78-.091 1.115-.275.334-.184.602-.447.802-.79.2-.351.3-.76.3-1.228v-.577c0-.459-.103-.848-.312-1.165a1.934 1.934 0 0 0-.815-.74 2.342 2.342 0 0 0-1.103-.263c-.443 0-.836.105-1.178.313a2.18 2.18 0 0 0-.79.878c-.184.376-.275.819-.275 1.328 0 .51.096.957.288 1.341.192.376.46.669.802.878.343.2.731.3 1.166.3Zm8.766 1.053c-.585 0-1.099-.1-1.542-.301a3.55 3.55 0 0 1-1.128-.789c-.3-.334-.53-.706-.689-1.116a3.606 3.606 0 0 1-.226-1.253v-.226c0-.426.08-.843.239-1.253.158-.418.392-.789.701-1.115.31-.335.686-.598 1.128-.79.443-.2.949-.301 1.517-.301s1.074.101 1.517.301c.442.192.818.455 1.128.79.309.326.543.697.701 1.115.159.41.239.827.239 1.253v.226c0 .426-.08.844-.239 1.253-.15.41-.38.782-.689 1.116a3.407 3.407 0 0 1-1.115.789c-.443.201-.957.301-1.542.301Zm0-1.078c.501 0 .927-.108 1.278-.325.36-.226.631-.527.815-.903.192-.376.288-.798.288-1.266a2.77 2.77 0 0 0-.288-1.278 2.177 2.177 0 0 0-.827-.89c-.351-.217-.773-.326-1.266-.326-.485 0-.907.109-1.266.326a2.178 2.178 0 0 0-.827.89 2.768 2.768 0 0 0-.288 1.278c0 .468.092.89.275 1.266.193.376.464.677.815.903.359.217.79.325 1.291.325Zm7.994.928c-.502 0-.936-.071-1.304-.213a1.663 1.663 0 0 1-.84-.727c-.192-.351-.288-.823-.288-1.416v-6.443h1.153v6.593c0 .359.096.639.288.84.201.192.481.288.84.288h1.178v1.078H110Zm-3.585-5.866v-.902h4.612v.902h-4.612Z"/><g clip-path="url(#d)"><path fill="#fff" fill-opacity=".1" d="M406.558 150.718a.729.729 0 0 1 .617.339l2.054 3.352 3.769.772a.949.949 0 0 1 .386.2.685.685 0 0 1 .216.526.716.716 0 0 1-.216.525l-2.749 2.764.478 3.815a.323.323 0 0 1 .016.108.69.69 0 0 1-.232.525.697.697 0 0 1-.787.154l-3.537-1.544-3.537 1.544a.638.638 0 0 1-.401.047.679.679 0 0 1-.494-.278.831.831 0 0 1-.139-.556l.478-3.815-2.748-2.764a2.035 2.035 0 0 1-.217-.402.697.697 0 0 1 .155-.602.75.75 0 0 1 .448-.263l3.799-.772 2.023-3.336a.714.714 0 0 1 .618-.339Z"/></g><path stroke="#fff" stroke-opacity=".1" stroke-width=".392" d="M25.067 179.113H413.6"/><path fill="#fff" d="M43.344 195.563H39.69L28.722 206.53h7.311l7.311-10.967Z"/><path fill="#fff" fill-opacity=".75" d="M57.14 205.597v-1.078h2.556c.493 0 .873-.138 1.14-.414.276-.284.414-.66.414-1.128 0-.476-.133-.848-.4-1.115-.268-.276-.653-.414-1.154-.414H57.14v-.802h2.382c.585 0 1.099.071 1.541.213.452.142.803.38 1.053.714.26.326.389.773.389 1.341v.176c0 .535-.109.99-.326 1.366-.217.368-.547.652-.99.852-.443.192-.999.289-1.667.289h-2.382Zm-.978 0v-9.25h1.228v9.25h-1.228Zm.977-4.375v-.802h2.219c.518 0 .898-.138 1.14-.413.251-.284.376-.644.376-1.078 0-.443-.125-.802-.376-1.078-.242-.284-.622-.426-1.14-.426h-2.219v-1.078h2.006c1.002 0 1.75.213 2.243.639.493.418.74 1.024.74 1.817v.176c0 .56-.126 1.007-.376 1.341-.251.326-.602.56-1.053.702-.443.134-.961.2-1.554.2h-2.006Zm7.692 4.324v-6.692h1.203v6.692h-1.203Zm-1.028-5.74v-.952h2.231v.952h-2.23Zm1.366-2.03c-.267 0-.468-.071-.601-.213a.785.785 0 0 1-.188-.539c0-.218.062-.397.188-.539.133-.142.334-.213.601-.213.268 0 .464.071.59.213.133.142.2.321.2.539a.756.756 0 0 1-.2.539c-.126.142-.322.213-.59.213Zm3.367 7.77v-7.031c0-.743.196-1.291.59-1.642.392-.351.968-.526 1.729-.526h.827v1.003h-1.028c-.309 0-.547.087-.714.263-.167.167-.25.401-.25.702v7.231h-1.154Zm-.927-5.715v-.902h4.198v.902H67.61Zm5.476 5.715v-6.692h.953v2.757h-.05c0-.978.213-1.692.639-2.143.434-.46 1.082-.69 1.942-.69h.226v1.078h-.426c-.669 0-1.183.18-1.542.539-.36.351-.539.861-.539 1.529v3.622h-1.203Zm8.15.226c-.585 0-1.098-.1-1.541-.301a3.56 3.56 0 0 1-1.128-.789c-.301-.335-.53-.706-.69-1.116a3.606 3.606 0 0 1-.225-1.253v-.226c0-.426.08-.844.238-1.253a3.32 3.32 0 0 1 .702-1.116c.309-.334.685-.597 1.128-.789.443-.201.948-.301 1.516-.301.569 0 1.074.1 1.517.301.443.192.819.455 1.128.789.31.326.543.698.702 1.116.159.409.238.827.238 1.253v.226c0 .426-.08.844-.238 1.253-.15.41-.38.781-.69 1.116-.3.325-.672.589-1.115.789-.443.201-.957.301-1.542.301Zm0-1.078c.502 0 .928-.109 1.279-.326.36-.225.63-.526.815-.902.192-.376.288-.798.288-1.266 0-.476-.096-.902-.288-1.278a2.177 2.177 0 0 0-.828-.89c-.35-.218-.773-.326-1.266-.326-.484 0-.906.108-1.266.326-.359.217-.634.514-.827.89a2.769 2.769 0 0 0-.288 1.278c0 .468.092.89.276 1.266.192.376.464.677.815.902.359.217.79.326 1.29.326Zm7.58 1.053c-.877 0-1.558-.188-2.043-.564-.476-.376-.722-.89-.74-1.542h1.129c.017.259.146.506.388.74.251.225.673.338 1.266.338.535 0 .945-.104 1.229-.313.284-.217.426-.481.426-.79a.741.741 0 0 0-.314-.639c-.209-.159-.547-.263-1.015-.313l-.727-.075c-.635-.067-1.153-.255-1.554-.564-.4-.318-.602-.761-.602-1.329 0-.426.11-.79.326-1.09.218-.31.518-.544.903-.702.384-.167.827-.251 1.328-.251.752 0 1.362.167 1.83.501.468.335.71.832.727 1.492h-1.128c-.008-.268-.134-.493-.376-.677-.234-.192-.585-.288-1.053-.288-.468 0-.823.096-1.065.288a.891.891 0 0 0-.364.727c0 .251.084.451.251.602.176.15.46.246.853.288l.726.075c.719.075 1.296.276 1.73.602.434.317.652.768.652 1.353 0 .418-.121.79-.364 1.116-.234.317-.56.568-.977.752-.418.175-.899.263-1.442.263Zm7.133-.125c-.5 0-.935-.071-1.303-.213a1.664 1.664 0 0 1-.84-.727c-.192-.351-.288-.823-.288-1.417v-6.442h1.153v6.593c0 .359.096.639.288.839.2.193.48.289.84.289h1.178v1.078h-1.028Zm-3.584-5.866v-.902h4.612v.902h-4.612Z"/><g clip-path="url(#e)"><path fill="#fff" fill-opacity=".1" d="M406.558 194.584a.73.73 0 0 1 .355.093.672.672 0 0 1 .262.247l2.054 3.351 3.769.772a.94.94 0 0 1 .386.201.684.684 0 0 1 .216.525.715.715 0 0 1-.216.525l-2.749 2.765.478 3.814a.323.323 0 0 1 .016.108.693.693 0 0 1-.232.526.697.697 0 0 1-.787.154l-3.537-1.544-3.537 1.544a.63.63 0 0 1-.401.046.672.672 0 0 1-.494-.278.83.83 0 0 1-.139-.556l.478-3.814-2.748-2.765c-.052-.061-.124-.195-.217-.401a.695.695 0 0 1 .155-.602.745.745 0 0 1 .448-.263l3.799-.772 2.023-3.336a.712.712 0 0 1 .618-.34Z"/></g><path stroke="#fff" stroke-opacity=".1" stroke-width=".392" d="M25.067 222.98H413.6"/><path fill="#343434" fill-rule="evenodd" d="m35.99 236.286 2.886 4.311 2.885 4.312-5.77 2.907-5.771-2.918 2.885-4.312 2.885-4.3Zm0 12.692-5.45-2.908 5.45 7.44 5.45-7.44-5.45 2.908Z" clip-rule="evenodd"/><path fill="#C6C6C6" fill-rule="evenodd" d="m35.99 236.286 2.886 4.3 2.885 4.312-5.77-2.178v-6.434ZM35.99 248.978l5.462-2.908-5.462 7.451v-4.543Z" clip-rule="evenodd"/><path fill="#A3A3A3" fill-rule="evenodd" d="m35.99 242.72 5.77 2.178-5.77 2.907v-5.085Z" clip-rule="evenodd"/><path fill="#fff" fill-rule="evenodd" d="m35.99 236.286-2.885 4.3-2.885 4.312 5.77-2.178v-6.434ZM35.99 248.978l-5.45-2.908 5.45 7.451v-4.543Z" clip-rule="evenodd"/><path fill="#BFBFBF" fill-rule="evenodd" d="m35.99 242.72-5.77 2.178 5.77 2.907v-5.085Z" clip-rule="evenodd"/><path fill="#fff" fill-opacity=".75" d="M56.162 249.413v-9.149h1.228v9.149h-1.228Zm.977 0v-1.103h4.437v1.103H57.14Zm0-4.098v-1.103h4.049v1.103h-4.049Zm0-3.948v-1.103h4.312v1.103h-4.312Zm8.97 8.121c-.502 0-.936-.071-1.304-.213a1.655 1.655 0 0 1-.84-.727c-.192-.351-.288-.823-.288-1.416v-6.442h1.153v6.592c0 .36.096.64.288.84.2.192.48.288.84.288h1.178v1.078h-1.028Zm-3.585-5.865v-.903h4.612v.903h-4.612Zm6.314 5.79v-9.149h1.203v5.464h-.3c0-.66.083-1.228.25-1.704.175-.485.443-.857.802-1.116.36-.259.819-.388 1.379-.388h.05c.802 0 1.408.267 1.817.802.41.526.614 1.282.614 2.268v3.823H73.45v-4.073c0-.543-.154-.965-.464-1.266-.3-.301-.693-.451-1.178-.451-.535 0-.965.179-1.29.539-.318.351-.477.814-.477 1.391v3.86h-1.203Zm10.862.226c-.585 0-1.09-.101-1.517-.301a2.943 2.943 0 0 1-1.04-.79 3.52 3.52 0 0 1-.602-1.115 4.26 4.26 0 0 1-.188-1.254v-.225c0-.435.063-.857.189-1.266.133-.409.334-.777.601-1.103a2.816 2.816 0 0 1 1.015-.79c.418-.2.907-.3 1.467-.3.727 0 1.324.158 1.792.476.476.309.827.71 1.053 1.203.234.493.35 1.02.35 1.579v.539h-5.94v-.902h5.063l-.275.489c0-.477-.076-.886-.226-1.229a1.76 1.76 0 0 0-.677-.814c-.3-.192-.68-.289-1.14-.289-.477 0-.874.109-1.191.326-.31.218-.543.514-.702.89-.15.376-.225.811-.225 1.304 0 .476.075.906.225 1.291.159.376.401.676.727.902.326.217.74.326 1.24.326.527 0 .953-.117 1.28-.351.334-.234.534-.506.6-.815h1.129c-.092.46-.276.857-.552 1.191a2.656 2.656 0 0 1-1.04.764c-.418.176-.89.264-1.416.264Zm4.829-.226v-6.693h.953v2.758h-.05c0-.978.212-1.692.639-2.144.434-.459 1.082-.689 1.942-.689h.226v1.078h-.426c-.669 0-1.183.18-1.542.539-.36.351-.539.861-.539 1.529v3.622H84.53Zm7.912.226c-.585 0-1.09-.101-1.516-.301a2.943 2.943 0 0 1-1.04-.79 3.52 3.52 0 0 1-.602-1.115 4.26 4.26 0 0 1-.188-1.254v-.225c0-.435.063-.857.188-1.266.134-.409.334-.777.602-1.103a2.816 2.816 0 0 1 1.015-.79c.417-.2.906-.3 1.466-.3.727 0 1.324.158 1.792.476.477.309.828.71 1.053 1.203.234.493.351 1.02.351 1.579v.539h-5.94v-.902h5.063l-.276.489c0-.477-.075-.886-.226-1.229a1.76 1.76 0 0 0-.676-.814c-.301-.192-.681-.289-1.14-.289-.477 0-.874.109-1.192.326-.309.218-.543.514-.701.89-.15.376-.226.811-.226 1.304 0 .476.075.906.225 1.291.16.376.402.676.728.902.325.217.739.326 1.24.326.527 0 .953-.117 1.279-.351.334-.234.534-.506.601-.815h1.128c-.092.46-.275.857-.551 1.191a2.656 2.656 0 0 1-1.04.764c-.418.176-.89.264-1.417.264Zm7.148-.025c-.794 0-1.404-.259-1.83-.777-.426-.518-.639-1.266-.639-2.244v-3.885h1.203v4.123c0 .527.142.94.426 1.241.285.292.669.439 1.153.439.502 0 .911-.159 1.229-.477.317-.325.476-.768.476-1.328v-3.998h1.203v6.705h-.952v-2.87h.15c0 .66-.088 1.22-.263 1.679-.176.452-.439.798-.79 1.041-.342.234-.781.351-1.316.351h-.05Zm5.551-.201v-6.693h.953v2.87h-.15c0-.651.083-1.203.25-1.654.176-.46.435-.81.777-1.053.343-.242.777-.363 1.304-.363h.05c.526 0 .961.121 1.303.363.351.243.61.593.777 1.053.168.451.251 1.003.251 1.654h-.351c0-.651.088-1.203.263-1.654.176-.46.435-.81.777-1.053.351-.242.79-.363 1.316-.363h.051c.526 0 .965.121 1.316.363.351.243.61.593.777 1.053.175.451.263 1.003.263 1.654v3.823h-1.203v-4.086c0-.543-.134-.961-.401-1.253-.268-.301-.64-.451-1.116-.451-.493 0-.89.158-1.191.476-.3.309-.451.744-.451 1.303v4.011h-1.203v-4.086c0-.543-.134-.961-.401-1.253-.267-.301-.639-.451-1.115-.451-.493 0-.89.158-1.191.476-.301.309-.451.744-.451 1.303v4.011h-1.204Z"/><g clip-path="url(#f)"><path fill="#70E" d="M406.558 238.451a.73.73 0 0 1 .355.093.665.665 0 0 1 .262.247l2.054 3.351 3.769.772a.94.94 0 0 1 .386.201.684.684 0 0 1 .216.525.715.715 0 0 1-.216.525l-2.749 2.764.478 3.815a.323.323 0 0 1 .016.108.69.69 0 0 1-.232.525.697.697 0 0 1-.787.155l-3.537-1.545-3.537 1.545c-.154.061-.288.077-.401.046a.676.676 0 0 1-.494-.278.83.83 0 0 1-.139-.556l.478-3.815-2.748-2.764a2.049 2.049 0 0 1-.217-.401.7.7 0 0 1 .155-.603.748.748 0 0 1 .448-.262l3.799-.772 2.023-3.336a.712.712 0 0 1 .618-.34Z"/></g><path stroke="#fff" stroke-opacity=".1" stroke-width=".392" d="M25.067 266.847H413.6"/><path fill="#fff" d="M40.903 295.409a8.225 8.225 0 0 0-4.87-14.854 8.225 8.225 0 0 0-4.87 14.854l4.203-6.646h-4.3v-1.417h4.3v-1.458h-4.3v-1.416H41v1.416h-4.3v1.458h4.3v1.417h-4.3l4.202 6.646Z"/><path fill="#fff" d="m39.747 296.121-3.714-5.875-3.713 5.875a8.196 8.196 0 0 0 3.713.884 8.196 8.196 0 0 0 3.714-.884Z"/><path fill="#fff" fill-opacity=".75" d="m61.927 293.28-3.722-4.274h-1.341l4.248-4.876h1.404l-3.86 4.412-.113-.865 4.913 5.603h-1.529Zm-5.765 0v-9.15h1.228v9.15h-1.228Zm12.367 0v-2.006h-.2v-2.318c0-.46-.122-.807-.364-1.04-.234-.234-.58-.351-1.04-.351-.26 0-.527.004-.802.012l-.79.025c-.25.009-.468.021-.652.038v-1.053c.184-.017.376-.029.577-.038a8.36 8.36 0 0 1 .639-.025c.217-.008.426-.012.626-.012.686 0 1.246.083 1.68.25.434.159.756.422.965.79.209.368.313.865.313 1.492v4.236h-.952Zm-2.194.175c-.5 0-.935-.083-1.303-.25a1.994 1.994 0 0 1-.84-.752c-.192-.326-.288-.719-.288-1.179 0-.476.104-.873.313-1.19.218-.318.531-.556.94-.715.41-.167.903-.25 1.48-.25h1.817v.902h-1.868c-.484 0-.856.117-1.115.351a1.161 1.161 0 0 0-.389.902c0 .368.13.665.389.89.259.226.63.339 1.115.339.284 0 .556-.05.815-.151.259-.108.472-.284.64-.526.175-.251.27-.593.287-1.028l.326.476c-.042.477-.159.878-.35 1.204a1.824 1.824 0 0 1-.778.727c-.326.167-.723.25-1.19.25Zm5.355-.175v-6.693h.952v2.757h-.05c0-.977.213-1.692.64-2.143.434-.459 1.081-.689 1.942-.689h.226v1.078h-.427c-.668 0-1.182.179-1.541.539-.36.351-.54.86-.54 1.529v3.622H71.69Zm7.459.2c-.794 0-1.404-.259-1.83-.777-.426-.518-.64-1.266-.64-2.243v-3.886h1.204v4.124c0 .526.142.94.426 1.241.284.292.669.438 1.153.438.502 0 .911-.158 1.229-.476.317-.326.476-.769.476-1.328v-3.999h1.203v6.706h-.953v-2.87h.15c0 .66-.087 1.22-.262 1.679-.176.451-.439.798-.79 1.04-.342.234-.781.351-1.316.351h-.05Zm5.551-.2v-6.693h.953v2.757h-.05c0-.977.213-1.692.639-2.143.434-.459 1.082-.689 1.943-.689h.225v1.078h-.426c-.668 0-1.182.179-1.541.539-.36.351-.54.86-.54 1.529v3.622H84.7Zm9.165 0v-2.006h-.2v-2.318c0-.46-.122-.807-.364-1.04-.234-.234-.58-.351-1.04-.351-.26 0-.527.004-.803.012l-.79.025c-.25.009-.467.021-.65.038v-1.053c.183-.017.375-.029.576-.038.209-.016.422-.025.639-.025.217-.008.426-.012.626-.012.686 0 1.245.083 1.68.25.434.159.756.422.965.79.209.368.313.865.313 1.492v4.236h-.952Zm-2.194.175c-.5 0-.935-.083-1.303-.25a1.993 1.993 0 0 1-.84-.752c-.192-.326-.288-.719-.288-1.179 0-.476.104-.873.313-1.19.218-.318.53-.556.94-.715.41-.167.903-.25 1.48-.25h1.817v.902h-1.868c-.484 0-.856.117-1.115.351a1.16 1.16 0 0 0-.389.902c0 .368.13.665.389.89.259.226.63.339 1.115.339.284 0 .556-.05.815-.151.259-.108.472-.284.639-.526.175-.251.271-.593.288-1.028l.326.476c-.042.477-.159.878-.35 1.204a1.824 1.824 0 0 1-.778.727c-.326.167-.723.25-1.19.25Z"/><g clip-path="url(#g)"><path fill="#70E" d="M406.558 282.318a.74.74 0 0 1 .617.339l2.054 3.352 3.769.772a.94.94 0 0 1 .386.201.681.681 0 0 1 .216.525.715.715 0 0 1-.216.525l-2.749 2.764.478 3.815a.323.323 0 0 1 .016.108.69.69 0 0 1-.232.525.697.697 0 0 1-.787.154l-3.537-1.544-3.537 1.544c-.154.062-.288.078-.401.047a.679.679 0 0 1-.494-.278.831.831 0 0 1-.139-.556l.478-3.815-2.748-2.764a2.035 2.035 0 0 1-.217-.402.697.697 0 0 1 .155-.602.75.75 0 0 1 .448-.263l3.799-.772 2.023-3.336a.714.714 0 0 1 .618-.339Z"/></g><rect width="40.933" height="23.5" x="25.067" y="61.88" fill="#fff" fill-opacity=".05" rx="11.75"/><path fill="#fff" fill-opacity=".5" d="m36.456 76.63 2.265-6.862h2.49l2.35 6.862h-1.597l-1.899-5.8.489.198H39.34l.508-.198-1.852 5.8h-1.541Zm1.72-1.701.47-1.279h2.688l.48 1.278h-3.638Zm6.563 1.7v-6.861h1.542v6.862h-1.542Zm1.354 0v-1.353h2.876v1.354h-2.876Zm4.17 0v-6.861h1.541v6.862h-1.541Zm1.353 0v-1.353h2.877v1.354h-2.877Z"/><rect width="71.933" height="23.5" x="76.967" y="61.88" fill="#70E" fill-opacity=".25" rx="11.75"/><path fill="#fff" fill-opacity=".75" d="M90.473 74.665V73.33h1.231c.239 0 .442-.046.612-.14a.982.982 0 0 0 .404-.395c.094-.176.14-.376.14-.602a1.24 1.24 0 0 0-.14-.61.912.912 0 0 0-.404-.396 1.24 1.24 0 0 0-.612-.14h-1.23v-1.335h1.155c.583 0 1.081.097 1.495.29.42.195.74.47.959.828.225.357.338.787.338 1.288v.15c0 .49-.113.915-.338 1.279-.22.357-.54.633-.96.827-.413.194-.91.291-1.494.291h-1.156ZM89.12 76.63v-6.918h1.541v6.918H89.12Zm9.841.178c-.62 0-1.162-.106-1.626-.32a3.423 3.423 0 0 1-1.137-.855 3.809 3.809 0 0 1-.677-1.156 3.624 3.624 0 0 1-.216-1.194v-.206c0-.427.075-.846.225-1.26a3.5 3.5 0 0 1 .696-1.137c.307-.339.69-.608 1.147-.809.457-.206.987-.31 1.588-.31.602 0 1.131.103 1.589.31.457.2.84.47 1.147.809.307.338.539.717.695 1.137.157.414.235.834.235 1.26v.207c0 .382-.075.78-.225 1.193a3.817 3.817 0 0 1-.677 1.156 3.4 3.4 0 0 1-1.147.856c-.457.213-.996.32-1.617.32Zm0-1.438c.326 0 .618-.056.874-.169.264-.113.486-.27.668-.47.188-.2.329-.432.423-.695.094-.264.141-.546.141-.847 0-.32-.05-.61-.151-.874a1.872 1.872 0 0 0-.423-.695 1.806 1.806 0 0 0-.658-.46 2.263 2.263 0 0 0-.874-.16c-.326 0-.617.052-.874.16a1.902 1.902 0 0 0-1.081 1.155 2.584 2.584 0 0 0-.141.874c0 .301.047.583.141.847.094.263.232.495.414.695.188.2.41.357.667.47.257.113.548.17.874.17Zm6.47-.705V73.33h1.231c.238 0 .442-.046.611-.14a.978.978 0 0 0 .404-.395c.094-.176.141-.376.141-.602a1.24 1.24 0 0 0-.141-.61.908.908 0 0 0-.404-.396 1.24 1.24 0 0 0-.611-.14h-1.231v-1.335h1.156c.583 0 1.081.097 1.495.29.419.195.739.47.958.828.226.357.339.787.339 1.288v.15c0 .49-.113.915-.339 1.279a2.149 2.149 0 0 1-.958.827c-.414.194-.912.291-1.495.291h-1.156Zm-1.354 1.965v-6.918h1.542v6.918h-1.542Zm9.428.178c-.645 0-1.193-.119-1.645-.357a2.448 2.448 0 0 1-1.015-1.034c-.232-.445-.348-.971-.348-1.579v-4.07h1.542v4.126c0 .301.056.564.169.79.119.22.285.389.498.508.22.119.486.178.799.178.32 0 .586-.06.799-.178.22-.12.386-.289.499-.508.112-.22.169-.483.169-.79v-4.126h1.541v4.07c0 .608-.116 1.134-.347 1.58a2.45 2.45 0 0 1-1.016 1.033c-.445.238-.993.358-1.645.358Zm4.704-.178v-6.862h1.541v6.862h-1.541Zm1.353 0v-1.354h2.877v1.354h-2.877Zm3.577 0 2.265-6.862h2.491l2.35 6.862h-1.598l-1.899-5.8.489.198h-1.212l.507-.198-1.852 5.8h-1.541Zm1.72-1.701.47-1.279h2.688l.48 1.278h-3.638Zm6.563 1.7v-6.918h1.542v6.919h-1.542Zm4.165 0-2.012-2.95h1.692l2.106 2.95h-1.786Zm-3.037-2.199v-1.212h1.692c.226 0 .42-.044.583-.132a.955.955 0 0 0 .386-.385 1.18 1.18 0 0 0 .141-.583c0-.22-.047-.41-.141-.573a.885.885 0 0 0-.386-.386 1.147 1.147 0 0 0-.583-.14h-1.692V69.71h1.57c.57 0 1.066.088 1.485.264.42.169.743.423.969.761.225.338.338.765.338 1.278v.15c0 .508-.116.931-.348 1.27-.225.332-.548.583-.968.752-.414.163-.906.244-1.476.244h-1.57Z"/><rect width="79.933" height="23.5" x="159.867" y="61.88" fill="#fff" fill-opacity=".05" rx="11.75"/><path fill="#fff" fill-opacity=".5" d="M171.804 76.63v-6.862h1.542v6.862h-1.542Zm1.354-2.764v-1.278h2.65v1.278h-2.65Zm0-2.82v-1.278h2.763v1.278h-2.763Zm3.099 5.584 2.265-6.862h2.491l2.35 6.862h-1.598l-1.899-5.8.489.198h-1.212l.507-.198-1.852 5.8h-1.541Zm1.72-1.701.47-1.279h2.688l.48 1.278h-3.638Zm7.609 1.7-2.087-6.861h1.588l1.655 5.79-.357-.178h.958l-.376.178 1.533-5.79h1.541l-1.946 6.862h-2.509Zm8.897.18c-.62 0-1.162-.107-1.626-.32a3.423 3.423 0 0 1-1.138-.856 3.814 3.814 0 0 1-.676-1.156 3.602 3.602 0 0 1-.217-1.194v-.206c0-.427.076-.846.226-1.26.157-.42.389-.799.696-1.137a3.328 3.328 0 0 1 1.146-.809c.458-.206.987-.31 1.589-.31s1.131.103 1.589.31c.457.2.839.47 1.146.809.307.338.539.717.696 1.137.157.414.235.834.235 1.26v.207c0 .382-.075.78-.226 1.193-.15.414-.376.8-.676 1.156a3.4 3.4 0 0 1-1.147.856c-.458.213-.997.32-1.617.32Zm0-1.439c.326 0 .617-.056.874-.169.263-.113.486-.27.668-.47.188-.2.329-.432.423-.695.094-.264.141-.546.141-.847 0-.32-.051-.61-.151-.874a1.872 1.872 0 0 0-.423-.695 1.813 1.813 0 0 0-.658-.46 2.262 2.262 0 0 0-.874-.16c-.326 0-.617.052-.874.16-.257.106-.48.26-.668.46a1.947 1.947 0 0 0-.413.695 2.584 2.584 0 0 0-.141.874c0 .301.047.583.141.847.094.263.232.495.413.695.188.2.411.357.668.47.257.113.548.17.874.17Zm7.992 1.438c-.645 0-1.193-.119-1.645-.357a2.448 2.448 0 0 1-1.015-1.034c-.232-.445-.348-.971-.348-1.579v-4.07h1.542v4.126c0 .301.056.564.169.79.119.22.285.389.498.508.22.119.486.178.799.178.32 0 .586-.06.799-.178.22-.12.386-.289.499-.508.112-.22.169-.483.169-.79v-4.126h1.541v4.07c0 .608-.116 1.134-.347 1.58a2.45 2.45 0 0 1-1.016 1.033c-.445.238-.993.358-1.645.358Zm4.704-.178v-6.918h1.541v6.918h-1.541Zm4.164 0-2.012-2.952h1.692l2.106 2.952h-1.786Zm-3.036-2.2v-1.212h1.692c.225 0 .42-.044.583-.132a.953.953 0 0 0 .385-.385 1.18 1.18 0 0 0 .141-.583c0-.22-.047-.41-.141-.573a.882.882 0 0 0-.385-.386 1.15 1.15 0 0 0-.583-.14h-1.692V69.71h1.57c.57 0 1.065.088 1.485.264.42.169.742.423.968.761.226.338.338.765.338 1.278v.15c0 .508-.115.931-.347 1.27-.226.332-.549.583-.969.752-.413.163-.905.244-1.475.244h-1.57Zm6.039 2.2v-6.862h1.542v6.862h-1.542Zm4.747 0v-5.706h1.542v5.706h-1.542Zm-1.927-5.518v-1.344h5.405v1.344h-5.405Zm6.657 5.518v-6.862h1.504v6.862h-1.504Zm1.316 0v-1.278h2.999v1.278h-2.999Zm0-2.848v-1.279h2.782v1.279h-2.782Zm0-2.736v-1.278h2.933v1.278h-2.933Z"/></g></g><defs><clipPath id="a"><path fill="#fff" d="M0 0h438v299H0z"/></clipPath><clipPath id="c"><rect width="438" height="470" fill="#fff" rx="17.989"/></clipPath><clipPath id="d"><path fill="#fff" d="M399.5 150.13h14.1v14.1h-14.1z"/></clipPath><clipPath id="e"><path fill="#fff" d="M399.5 193.997h14.1v14.1h-14.1z"/></clipPath><clipPath id="f"><path fill="#fff" d="M399.5 237.863h14.1v14.1h-14.1z"/></clipPath><clipPath id="g"><path fill="#fff" d="M399.5 281.73h14.1v14.1h-14.1z"/></clipPath><filter id="b" width="438" height="473.129" x="0" y="0" color-interpolation-filters="sRGB" filterUnits="userSpaceOnUse"><feFlood flood-opacity="0" result="BackgroundImageFix"/><feBlend in="SourceGraphic" in2="BackgroundImageFix" result="shape"/><feColorMatrix in="SourceAlpha" result="hardAlpha" values="0 0 0 0 0 0 0 0 0 0 0 0 0 0 0 0 0 0 127 0"/><feOffset dy="3.129"/><feGaussianBlur stdDeviation="6.648"/><feComposite in2="hardAlpha" k2="-1" k3="1" operator="arithmetic"/><feColorMatrix values="0 0 0 0 1 0 0 0 0 1 0 0 0 0 1 0 0 0 0.06 0"/><feBlend in2="shape" result="effect1_innerShadow_12525_125662"/></filter></defs></svg>