<svg xmlns="http://www.w3.org/2000/svg" width="438" height="299" fill="none"><g clip-path="url(#a)" filter="url(#b)"><rect width="438" height="469.286" fill="#fff" fill-opacity=".01" rx="17.989"/><path fill="#fff" d="M150.325 29.137V18.86h3.787l3.872 8.405h.479l-.282.253V18.86h2.168v10.277h-3.815l-3.872-8.404h-.478l.281-.254v8.659h-2.14Zm15.965.268c-.676 0-1.276-.103-1.802-.31a4.023 4.023 0 0 1-1.337-.873 3.805 3.805 0 0 1-.817-1.253 4.084 4.084 0 0 1-.282-1.506v-.324c0-.535.094-1.042.282-1.52.197-.488.479-.916.845-1.282a4.01 4.01 0 0 1 1.351-.858 4.593 4.593 0 0 1 1.76-.324c.666 0 1.258.108 1.774.324.526.206.971.492 1.337.858s.648.794.845 1.282c.197.478.296.985.296 1.52v.324c0 .525-.094 1.028-.282 1.506-.188.47-.464.887-.83 1.253a3.876 3.876 0 0 1-1.324.873c-.525.207-1.131.31-1.816.31Zm0-1.9c.441 0 .807-.095 1.098-.282.291-.188.512-.45.662-.789.159-.338.239-.713.239-1.126 0-.441-.08-.826-.239-1.154a1.923 1.923 0 0 0-.69-.803c-.291-.197-.648-.296-1.07-.296-.413 0-.77.1-1.07.296-.3.197-.53.465-.69.803-.15.328-.225.713-.225 1.154 0 .413.075.788.225 1.126.15.338.376.601.676.789.3.188.662.281 1.084.281Zm9.006 1.886a3.686 3.686 0 0 1-1.493-.296 3.582 3.582 0 0 1-1.154-.816 3.758 3.758 0 0 1-.76-1.253 4.62 4.62 0 0 1-.254-1.549v-.324c0-.553.08-1.07.24-1.548.168-.48.408-.897.718-1.253a3.259 3.259 0 0 1 1.14-.845c.441-.207.934-.31 1.478-.31.62 0 1.155.136 1.605.408.451.263.803.657 1.056 1.183.253.516.394 1.154.422 1.915l-.591-.55V18.86h2.267v10.277h-1.788v-3.195h.309c-.028.732-.183 1.356-.464 1.872-.272.516-.643.91-1.112 1.183-.47.262-1.009.394-1.619.394Zm.563-1.887c.347 0 .661-.075.943-.225.291-.16.521-.39.69-.69.178-.3.267-.662.267-1.084v-.52c0-.414-.089-.761-.267-1.043a1.794 1.794 0 0 0-.704-.647 2.026 2.026 0 0 0-.943-.225c-.376 0-.714.098-1.014.295-.291.188-.521.45-.69.789-.169.328-.253.713-.253 1.154 0 .45.084.84.253 1.169.169.328.404.581.704.76.3.178.638.267 1.014.267Zm9.688 1.9c-.657 0-1.239-.112-1.746-.337a3.726 3.726 0 0 1-1.253-.901 4.308 4.308 0 0 1-.76-1.281 4.369 4.369 0 0 1-.254-1.464v-.282c0-.516.085-1.009.254-1.478.178-.479.431-.906.76-1.281a3.46 3.46 0 0 1 1.225-.887c.497-.226 1.06-.338 1.689-.338.826 0 1.521.188 2.084.563a3.61 3.61 0 0 1 1.309 1.45c.3.591.451 1.24.451 1.943v.76h-6.829v-1.28h5.463l-.732.59c0-.46-.066-.854-.197-1.182a1.535 1.535 0 0 0-.592-.746c-.253-.179-.572-.268-.957-.268-.394 0-.727.09-.999.268-.273.178-.479.44-.62.788-.141.338-.211.756-.211 1.253 0 .46.066.863.197 1.21.131.339.338.601.619.79.282.187.648.28 1.099.28.413 0 .75-.079 1.013-.239.263-.16.441-.356.535-.59h2.07a3.252 3.252 0 0 1-.662 1.379 3.347 3.347 0 0 1-1.239.943c-.497.225-1.07.338-1.717.338Zm8.207-.267v-7.715h1.788v3.323h-.127c0-.789.099-1.446.296-1.971.197-.526.493-.92.887-1.183.394-.272.878-.408 1.45-.408h.099c.582 0 1.065.136 1.45.408.394.263.69.657.887 1.183.206.525.309 1.182.309 1.97h-.549c0-.788.099-1.445.296-1.97.207-.526.507-.92.901-1.183.394-.272.878-.408 1.45-.408h.099c.582 0 1.07.136 1.464.408.403.263.708.657.915 1.183.206.525.31 1.182.31 1.97v4.393h-2.253v-4.519c0-.422-.112-.765-.338-1.027-.216-.263-.525-.395-.929-.395s-.723.136-.957.409c-.235.262-.352.614-.352 1.055v4.477h-2.267v-4.519c0-.422-.113-.765-.338-1.027-.216-.263-.521-.395-.915-.395-.413 0-.737.136-.971.409-.235.262-.352.614-.352 1.055v4.477h-2.253Zm18.505 0v-2.28h-.38v-2.478c0-.394-.094-.69-.282-.887-.187-.197-.488-.296-.901-.296a42.032 42.032 0 0 0-1.858.056c-.357.02-.681.038-.972.057v-1.9c.216-.02.47-.038.761-.057a28.793 28.793 0 0 1 1.774-.056c.788 0 1.45.112 1.985.338.544.225.957.567 1.239 1.027.281.45.422 1.033.422 1.746v4.73h-1.788Zm-2.464.198c-.554 0-1.042-.099-1.464-.296a2.3 2.3 0 0 1-.971-.845c-.235-.375-.352-.821-.352-1.337 0-.563.145-1.023.436-1.38.291-.366.699-.634 1.225-.803.526-.178 1.131-.267 1.816-.267h1.647v1.253h-1.661c-.394 0-.699.099-.915.296-.207.187-.31.445-.31.774 0 .31.103.563.31.76.216.188.521.282.915.282.253 0 .479-.042.676-.127.206-.094.375-.249.507-.465.131-.215.206-.516.225-.9l.535.563c-.047.535-.178.985-.394 1.351a2.11 2.11 0 0 1-.873.845c-.366.197-.817.296-1.352.296Zm6.163-.198v-7.715h1.788v3.309h-.127c0-.789.099-1.446.296-1.971.207-.526.516-.92.929-1.183.413-.263.915-.394 1.507-.394h.098c.901 0 1.586.296 2.056.887.478.582.718 1.469.718 2.66v4.407h-2.253v-4.533c0-.413-.122-.75-.366-1.014-.244-.262-.572-.394-.985-.394-.423 0-.765.136-1.028.409-.254.262-.38.61-.38 1.041v4.491h-2.253Zm13.844 0v-2.28h-.38v-2.478c0-.394-.094-.69-.281-.887-.188-.197-.489-.296-.901-.296a42.032 42.032 0 0 0-1.859.056c-.357.02-.68.038-.971.057v-1.9c.216-.02.469-.038.76-.057a28.896 28.896 0 0 1 1.774-.056c.788 0 1.45.112 1.985.338.544.225.957.567 1.239 1.027.281.45.422 1.033.422 1.746v4.73h-1.788Zm-2.464.198c-.553 0-1.041-.099-1.464-.296a2.306 2.306 0 0 1-.971-.845c-.235-.375-.352-.821-.352-1.337 0-.563.145-1.023.436-1.38.291-.366.7-.634 1.225-.803.526-.178 1.131-.267 1.816-.267h1.648v1.253h-1.662c-.394 0-.699.099-.915.296-.206.187-.31.445-.31.774 0 .31.104.563.31.76.216.188.521.282.915.282a1.7 1.7 0 0 0 .676-.127c.207-.094.375-.249.507-.465.131-.215.206-.516.225-.9l.535.563c-.047.535-.178.985-.394 1.351a2.11 2.11 0 0 1-.873.845c-.366.197-.817.296-1.352.296Zm9.204 2.872c-.375 0-.76-.014-1.154-.043a15.49 15.49 0 0 1-1.084-.112v-1.9c.328.046.69.084 1.084.112.403.037.77.056 1.098.056.61 0 1.103-.07 1.478-.211.385-.14.667-.357.845-.648.178-.281.267-.647.267-1.098V26.83l.409-.902c-.019.686-.155 1.272-.409 1.76a2.66 2.66 0 0 1-1.027 1.127c-.441.253-.967.38-1.577.38a3.564 3.564 0 0 1-1.436-.282 3.211 3.211 0 0 1-1.084-.816 3.68 3.68 0 0 1-.69-1.211 4.682 4.682 0 0 1-.239-1.52v-.324c0-.545.084-1.052.253-1.52a3.58 3.58 0 0 1 .732-1.226 3.26 3.26 0 0 1 1.141-.802 3.548 3.548 0 0 1 1.464-.296c.619 0 1.154.136 1.605.408.46.273.821.671 1.084 1.197.263.526.403 1.16.422 1.9l-.31.085v-3.365h1.788v6.8c0 .948-.169 1.713-.506 2.295-.338.582-.855 1.01-1.549 1.281-.685.273-1.553.409-2.605.409Zm.634-4.914c.347 0 .662-.075.943-.225a1.7 1.7 0 0 0 .662-.676c.169-.29.253-.643.253-1.056v-.408c0-.404-.089-.742-.267-1.014a1.623 1.623 0 0 0-.676-.633 1.888 1.888 0 0 0-.901-.226c-.375 0-.709.09-1 .268a1.79 1.79 0 0 0-.675.746c-.16.32-.24.695-.24 1.127 0 .44.08.82.24 1.14.169.31.394.549.675.718.291.16.62.24.986.24Zm9.511 2.112c-.657 0-1.239-.113-1.746-.338a3.726 3.726 0 0 1-1.253-.901 4.308 4.308 0 0 1-.76-1.281 4.369 4.369 0 0 1-.254-1.464v-.282c0-.516.085-1.009.254-1.478.178-.479.431-.906.76-1.281a3.46 3.46 0 0 1 1.225-.887c.497-.226 1.06-.338 1.689-.338.826 0 1.521.188 2.084.563a3.61 3.61 0 0 1 1.309 1.45c.3.591.451 1.24.451 1.943v.76h-6.829v-1.28h5.463l-.732.59c0-.46-.066-.854-.197-1.182a1.535 1.535 0 0 0-.592-.746c-.253-.179-.572-.268-.957-.268-.394 0-.727.09-.999.268-.273.178-.479.44-.62.788-.141.338-.211.756-.211 1.253 0 .46.066.863.197 1.21.131.339.338.601.619.79.282.187.648.28 1.099.28.413 0 .75-.079 1.013-.239.263-.16.441-.356.535-.59h2.07a3.252 3.252 0 0 1-.662 1.379 3.347 3.347 0 0 1-1.239.943c-.497.225-1.07.338-1.717.338Zm5.251-.268v-7.715h1.788v3.323h-.126c0-.789.098-1.446.295-1.971.197-.526.493-.92.887-1.183.394-.272.878-.408 1.45-.408h.099c.582 0 1.065.136 1.45.408.394.263.69.657.887 1.183.206.525.31 1.182.31 1.97h-.55c0-.788.099-1.445.296-1.97.207-.526.507-.92.901-1.183.394-.272.878-.408 1.45-.408h.099c.582 0 1.07.136 1.464.408.404.263.709.657.915 1.183.207.525.31 1.182.31 1.97v4.393h-2.253v-4.519c0-.422-.112-.765-.338-1.027-.216-.263-.525-.395-.929-.395-.403 0-.723.136-.957.409-.235.262-.352.614-.352 1.055v4.477h-2.267v-4.519c0-.422-.112-.765-.338-1.027-.216-.263-.521-.395-.915-.395-.413 0-.737.136-.971.409-.235.262-.352.614-.352 1.055v4.477h-2.253Zm17.379.268c-.657 0-1.239-.113-1.746-.338a3.736 3.736 0 0 1-1.253-.901 4.33 4.33 0 0 1-.76-1.281 4.369 4.369 0 0 1-.254-1.464v-.282c0-.516.085-1.009.254-1.478.178-.479.432-.906.76-1.281a3.468 3.468 0 0 1 1.225-.887c.497-.226 1.06-.338 1.689-.338.826 0 1.521.188 2.084.563a3.61 3.61 0 0 1 1.309 1.45 4.22 4.22 0 0 1 .451 1.943v.76h-6.828v-1.28h5.462l-.732.59c0-.46-.066-.854-.197-1.182a1.533 1.533 0 0 0-.591-.746c-.254-.179-.573-.268-.958-.268-.394 0-.727.09-.999.268-.272.178-.479.44-.62.788-.14.338-.211.756-.211 1.253 0 .46.066.863.197 1.21.132.339.338.601.62.79.281.187.647.28 1.098.28.413 0 .751-.079 1.013-.239.263-.16.442-.356.535-.59h2.07a3.252 3.252 0 0 1-.662 1.379 3.347 3.347 0 0 1-1.239.943c-.497.225-1.07.338-1.717.338Zm5.251-.268v-7.715h1.788v3.309h-.126c0-.789.098-1.446.295-1.971.207-.526.517-.92.93-1.183.413-.263.915-.394 1.506-.394h.099c.901 0 1.586.296 2.055.887.479.582.718 1.469.718 2.66v4.407h-2.253v-4.533c0-.413-.122-.75-.366-1.014-.244-.262-.572-.394-.985-.394-.422 0-.765.136-1.028.409-.253.262-.38.61-.38 1.041v4.491h-2.253Zm12.69.099c-.779 0-1.408-.094-1.886-.282a1.982 1.982 0 0 1-1.056-.971c-.216-.46-.324-1.08-.324-1.858v-6.786h2.098v6.87c0 .366.093.648.281.845.197.188.474.281.831.281h1.14v1.901h-1.084Zm-4.435-6.166v-1.648h5.519v1.648h-5.519Z"/><path stroke="#fff" stroke-opacity=".1" stroke-width=".782" d="M0 48.884h438"/><mask id="c" fill="#fff"><path fill-rule="evenodd" d="M30.57 61.79h388.659a6.257 6.257 0 0 1 6.257 6.256V108.566v-10.18a6.258 6.258 0 0 1-2.135 4.707l-11.798 10.332a6.249 6.249 0 0 1-2.609 1.364H18.771a6.257 6.257 0 0 1-6.257-6.257V78.379c0-1.803.778-3.52 2.135-4.707l11.798-10.333c1.14-.999 2.606-1.55 4.122-1.55Z" clip-rule="evenodd"/></mask><path fill="#fff" fill-opacity=".05" fill-rule="evenodd" d="M30.57 61.79h388.659a6.257 6.257 0 0 1 6.257 6.256V108.566v-10.18a6.258 6.258 0 0 1-2.135 4.707l-11.798 10.332a6.249 6.249 0 0 1-2.609 1.364H18.771a6.257 6.257 0 0 1-6.257-6.257V78.379c0-1.803.778-3.52 2.135-4.707l11.798-10.333c1.14-.999 2.606-1.55 4.122-1.55Z" clip-rule="evenodd"/><path fill="#fff" fill-opacity=".1" d="M425.486 108.566h-.783l1.565.005-.782-.005Zm-2.135-5.473-.515-.589.515.589Zm-11.798 10.332-.515-.588.515.588Zm-2.609 1.364v.782h.096l.093-.023-.189-.759ZM14.649 73.672l-.515-.589.515.589Zm11.798-10.333.515.589-.515-.589Zm392.782-2.332H30.569v1.564h388.66v-1.564Zm7.039 7.04a7.04 7.04 0 0 0-7.039-7.04v1.564a5.476 5.476 0 0 1 5.475 5.475h1.564Zm0 40.485V68.046h-1.564v40.486h1.564Zm0 .039v-.039h-1.564l-.001.03 1.565.009Zm-1.565-10.186v10.181h1.565v-10.18h-1.565Zm-.837 5.296a7.041 7.041 0 0 0 2.402-5.296h-1.565c0 1.578-.68 3.08-1.867 4.119l1.03 1.177Zm-11.798 10.332 11.798-10.332-1.03-1.177-11.798 10.333 1.03 1.176Zm-2.935 1.535a7.025 7.025 0 0 0 2.935-1.535l-1.03-1.176a5.472 5.472 0 0 1-2.283 1.193l.378 1.518Zm-390.362.023h390.173v-1.564H18.771v1.564Zm-7.039-7.039a7.039 7.039 0 0 0 7.04 7.039v-1.564a5.475 5.475 0 0 1-5.476-5.475h-1.564Zm0-30.153v30.153h1.564V78.379h-1.564Zm2.402-5.296a7.04 7.04 0 0 0-2.402 5.296h1.564c0-1.578.681-3.08 1.868-4.119l-1.03-1.177ZM25.93 62.751 14.134 73.083l1.03 1.177 11.798-10.332-1.03-1.177Zm4.638-1.744a7.04 7.04 0 0 0-4.637 1.744l1.03 1.177a5.475 5.475 0 0 1 3.607-1.357v-1.564Z" mask="url(#c)"/><path fill="#fff" fill-opacity=".65" d="M41.61 81.401c2.38 0 4.31-1.129 4.31-2.522 0-1.393-1.93-2.522-4.31-2.522s-4.31 1.129-4.31 2.522c0 1.393 1.93 2.522 4.31 2.522ZM41.61 100.408c2.38 0 4.31-1.13 4.31-2.523 0-1.393-1.93-2.522-4.31-2.522s-4.31 1.13-4.31 2.522c0 1.393 1.93 2.523 4.31 2.523ZM35.605 84.893c1.19-2.074 1.182-4.32-.018-5.018-1.2-.697-3.136.42-4.326 2.494-1.19 2.074-1.183 4.321.017 5.018 1.2.697 3.137-.42 4.327-2.494ZM51.958 94.395c1.19-2.074 1.183-4.32-.015-5.017-1.2-.697-3.136.42-4.326 2.495-1.19 2.074-1.183 4.32.016 5.017 1.199.696 3.135-.42 4.325-2.495ZM35.588 96.89c1.2-.698 1.207-2.945.017-5.019-1.19-2.074-3.127-3.19-4.327-2.494-1.2.697-1.207 2.944-.017 5.018 1.19 2.075 3.127 3.191 4.327 2.494ZM51.944 87.388c1.198-.697 1.205-2.943.015-5.017-1.19-2.075-3.126-3.192-4.325-2.495-1.199.696-1.206 2.943-.016 5.017 1.19 2.074 3.127 3.191 4.325 2.495Z"/><path fill="#fff" fill-opacity=".75" d="M68.785 83.204v-1.077h2.04c.433 0 .792-.083 1.076-.25.284-.175.496-.409.638-.7.15-.293.225-.618.225-.977a2.13 2.13 0 0 0-.225-.989 1.589 1.589 0 0 0-.638-.688c-.284-.167-.642-.25-1.076-.25h-2.04v-1.076h1.814c.751 0 1.377.12 1.877.362.51.234.893.568 1.152 1.002.258.433.388.947.388 1.539v.2c0 .584-.13 1.097-.388 1.54-.259.433-.643.771-1.151 1.013-.501.234-1.127.35-1.878.35h-1.814Zm-.976 3.178v-9.185h1.226v9.185H67.81Zm10.785.225c-.584 0-1.096-.1-1.539-.3a3.55 3.55 0 0 1-1.126-.788c-.3-.334-.53-.705-.688-1.114a3.602 3.602 0 0 1-.225-1.252v-.225c0-.425.079-.843.237-1.251.159-.417.392-.789.701-1.114a3.305 3.305 0 0 1 1.126-.788c.442-.2.947-.3 1.514-.3.568 0 1.073.1 1.515.3.442.191.817.454 1.126.788.309.325.542.697.7 1.114.16.408.239.826.239 1.251v.225c0 .426-.08.843-.238 1.252-.15.409-.38.78-.688 1.114-.3.325-.672.588-1.114.788-.442.2-.956.3-1.54.3Zm0-1.076c.501 0 .927-.108 1.277-.325.359-.225.63-.526.813-.901.192-.376.288-.797.288-1.264 0-.476-.096-.901-.288-1.277a2.175 2.175 0 0 0-.825-.888c-.35-.217-.772-.326-1.264-.326-.484 0-.906.109-1.264.326a2.174 2.174 0 0 0-.826.888c-.192.376-.288.801-.288 1.277 0 .467.092.888.275 1.264.192.375.463.675.814.9.358.218.788.326 1.288.326Zm5.454.851v-9.135h1.201v9.135h-1.201Zm-.926-8.184v-.951h2.127v.95h-2.127Zm9.037 8.184-2.515-3.116h-1.102l3.066-3.567h1.264l-2.778 3.217.088-.639 3.366 4.105h-1.39Zm-4.605 0v-9.135h1.201v9.135h-1.201Zm11.167 0V84.38h-.2v-2.315c0-.46-.122-.805-.364-1.039-.233-.234-.58-.35-1.038-.35-.259 0-.526.004-.801.012l-.788.025a11.6 11.6 0 0 0-.651.038v-1.052c.183-.016.375-.029.575-.037.209-.017.422-.025.639-.025.217-.008.425-.013.625-.013.684 0 1.243.084 1.677.25.434.16.755.422.964.79.208.366.313.862.313 1.488v4.23h-.951Zm-2.19.175c-.5 0-.935-.083-1.302-.25a1.98 1.98 0 0 1-.838-.75c-.192-.326-.288-.718-.288-1.177 0-.476.104-.872.313-1.19.217-.316.53-.554.938-.712.41-.167.901-.25 1.477-.25h1.815v.9H96.78c-.484 0-.855.117-1.114.35a1.159 1.159 0 0 0-.388.902c0 .367.13.663.388.888.259.226.63.338 1.114.338.284 0 .555-.05.813-.15.259-.108.472-.284.639-.526.175-.25.27-.592.287-1.026l.326.476c-.042.475-.159.876-.35 1.201a1.813 1.813 0 0 1-.776.726c-.326.167-.722.25-1.19.25Zm8.136.05c-.475 0-.913-.087-1.314-.263-.4-.175-.75-.42-1.051-.738a3.562 3.562 0 0 1-.688-1.101 3.763 3.763 0 0 1-.238-1.352v-.225c0-.475.079-.922.238-1.339a3.48 3.48 0 0 1 .663-1.101 3.15 3.15 0 0 1 2.353-1.014c.509 0 .972.109 1.389.326.417.208.759.538 1.026.988.267.45.417 1.035.451 1.752l-.501-.8v-4.493h1.201v9.135h-.951v-2.966h.351c-.034.76-.192 1.377-.476 1.852-.283.468-.642.81-1.076 1.026a3.086 3.086 0 0 1-1.377.313Zm.163-1.05c.409 0 .78-.093 1.114-.276.334-.184.601-.447.801-.789.2-.35.3-.759.3-1.226v-.576c0-.459-.104-.846-.313-1.163a1.93 1.93 0 0 0-.813-.739 2.334 2.334 0 0 0-1.101-.263c-.443 0-.835.105-1.177.313a2.17 2.17 0 0 0-.788.876c-.184.376-.276.818-.276 1.327s.096.955.288 1.339c.192.375.459.667.801.876.342.2.73.3 1.164.3Zm8.753 1.05c-.584 0-1.097-.1-1.539-.3a3.543 3.543 0 0 1-1.126-.788 3.597 3.597 0 0 1-.689-1.114 3.607 3.607 0 0 1-.225-1.252v-.225c0-.425.079-.843.238-1.251.158-.417.392-.789.701-1.114a3.298 3.298 0 0 1 1.126-.788c.442-.2.947-.3 1.514-.3.568 0 1.072.1 1.514.3.443.191.818.454 1.127.788.308.325.542.697.701 1.114.158.408.237.826.237 1.251v.225c0 .426-.079.843-.237 1.252a3.32 3.32 0 0 1-.689 1.114c-.3.325-.671.588-1.114.788-.442.2-.955.3-1.539.3Zm0-1.076c.501 0 .926-.108 1.277-.325.358-.225.63-.526.813-.901.192-.376.288-.797.288-1.264 0-.476-.096-.901-.288-1.277a2.174 2.174 0 0 0-.826-.888c-.35-.217-.772-.326-1.264-.326-.484 0-.905.109-1.264.326a2.18 2.18 0 0 0-.826.888c-.192.376-.288.801-.288 1.277 0 .467.092.888.276 1.264.192.375.463.675.813.9.359.218.789.326 1.289.326Zm7.982.926c-.501 0-.935-.07-1.302-.213a1.651 1.651 0 0 1-.838-.725c-.192-.35-.288-.822-.288-1.415v-6.432h1.151v6.583c0 .358.096.638.288.838.2.192.48.288.838.288h1.177v1.076h-1.026Zm-3.579-5.856V79.7h4.605v.9h-4.605Zm9.151 5.781V79.7h.952v2.866h-.151c0-.659.088-1.214.263-1.664.184-.459.459-.805.826-1.039.367-.242.83-.363 1.389-.363h.05c.843 0 1.464.263 1.865.789.409.525.613 1.284.613 2.277v3.817h-1.201v-4.067c0-.517-.146-.93-.438-1.239-.292-.317-.693-.475-1.202-.475-.525 0-.951.162-1.276.487-.325.326-.488.76-.488 1.302v3.992h-1.202Zm10.846.225c-.584 0-1.089-.1-1.514-.3a2.93 2.93 0 0 1-1.039-.788 3.525 3.525 0 0 1-.601-1.114 4.256 4.256 0 0 1-.187-1.252v-.225c0-.434.062-.855.187-1.264.134-.409.334-.776.601-1.101a2.799 2.799 0 0 1 1.014-.788c.417-.2.905-.3 1.464-.3.726 0 1.322.158 1.789.475.476.308.826.709 1.052 1.201a3.64 3.64 0 0 1 .35 1.577v.538h-5.932v-.901h5.056l-.275.488c0-.475-.075-.884-.226-1.226a1.76 1.76 0 0 0-.675-.814c-.301-.192-.68-.288-1.139-.288-.476 0-.872.109-1.189.326a2.017 2.017 0 0 0-.701.888c-.15.376-.225.81-.225 1.302 0 .475.075.905.225 1.289.159.375.401.675.726.9.325.218.738.326 1.239.326.526 0 .951-.117 1.276-.35.334-.234.534-.505.601-.814h1.126a2.645 2.645 0 0 1-.55 1.19 2.662 2.662 0 0 1-1.039.763 3.619 3.619 0 0 1-1.414.262Zm7.425-.15c-.501 0-.935-.07-1.302-.213a1.651 1.651 0 0 1-.838-.725c-.192-.35-.288-.822-.288-1.415v-6.432h1.151v6.583c0 .358.096.638.288.838.2.192.48.288.839.288h1.176v1.076h-1.026Zm-3.579-5.856V79.7h4.605v.9h-4.605Zm8.256 5.781 1.352-6.457h1.627l1.577 6.457h-1.027l-1.576-6.432h.4l-1.364 6.432h-.989Zm-.613 0v-.951h1.389v.951h-1.389Zm-.275 0-1.89-6.683h1.151l1.84 6.683h-1.101Zm4.668 0v-.951h1.389v.951h-1.389Zm.563 0 1.602-6.683h1.088l-1.639 6.683h-1.051Zm7.269.225c-.584 0-1.097-.1-1.539-.3a3.543 3.543 0 0 1-1.126-.788 3.597 3.597 0 0 1-.689-1.114 3.607 3.607 0 0 1-.225-1.252v-.225c0-.425.079-.843.238-1.251.158-.417.392-.789.701-1.114a3.298 3.298 0 0 1 1.126-.788c.442-.2.947-.3 1.514-.3.568 0 1.072.1 1.514.3.443.191.818.454 1.127.788.308.325.542.697.701 1.114.158.408.237.826.237 1.251v.225c0 .426-.079.843-.237 1.252a3.32 3.32 0 0 1-.689 1.114c-.3.325-.671.588-1.114.788-.442.2-.955.3-1.539.3Zm0-1.076c.501 0 .926-.108 1.277-.325.358-.225.63-.526.813-.901.192-.376.288-.797.288-1.264 0-.476-.096-.901-.288-1.277a2.174 2.174 0 0 0-.826-.888c-.35-.217-.772-.326-1.264-.326-.484 0-.905.109-1.264.326a2.18 2.18 0 0 0-.826.888c-.192.376-.287.801-.287 1.277 0 .467.091.888.275 1.264.192.375.463.675.813.9.359.218.789.326 1.289.326Zm5.379.851V79.7h.951v2.754h-.05c0-.977.212-1.69.638-2.14.434-.46 1.08-.689 1.94-.689h.225v1.077h-.426c-.667 0-1.18.179-1.539.538-.359.35-.538.859-.538 1.526v3.617h-1.201Zm9.738 0-2.516-3.116h-1.101l3.066-3.567h1.264l-2.778 3.217.087-.639 3.367 4.105h-1.389Zm-4.606 0v-9.135h1.202v9.135h-1.202Z"/><path fill="#fff" fill-opacity=".5" d="M67.477 100.382V93.53h1.502l3.482 6.026h.3l-.188.17V93.53h.883v6.851h-1.52l-3.483-6.026h-.3l.188-.168v6.194h-.864Zm10.143.169c-.438 0-.823-.075-1.155-.225a2.661 2.661 0 0 1-.845-.591 2.7 2.7 0 0 1-.516-.836 2.703 2.703 0 0 1-.169-.938v-.17c0-.319.06-.631.179-.938.118-.313.294-.591.525-.835.232-.25.513-.448.845-.592.332-.15.71-.225 1.136-.225.425 0 .804.075 1.135.225.332.144.613.341.845.592.232.244.407.522.526.835.118.307.178.62.178.939v.169c0 .319-.06.632-.178.938a2.483 2.483 0 0 1-.517.835 2.551 2.551 0 0 1-.835.592c-.332.15-.716.225-1.154.225Zm0-.807c.375 0 .694-.082.957-.244a1.63 1.63 0 0 0 .61-.676c.144-.281.216-.597.216-.948 0-.357-.072-.676-.216-.957a1.63 1.63 0 0 0-.62-.667c-.262-.162-.578-.244-.947-.244-.363 0-.68.082-.948.244a1.631 1.631 0 0 0-.62.667c-.144.281-.216.6-.216.957 0 .35.07.666.207.948.144.282.347.507.61.676.269.162.591.244.967.244Zm6.126.807c-.356 0-.685-.066-.985-.197a2.395 2.395 0 0 1-.788-.554 2.67 2.67 0 0 1-.517-.826 2.83 2.83 0 0 1-.178-1.013v-.17c0-.356.06-.69.178-1.004.12-.313.285-.588.498-.826a2.358 2.358 0 0 1 1.764-.76c.382 0 .73.081 1.042.244.313.157.57.404.77.742.2.338.313.776.338 1.314l-.376-.601v-3.37h.901v6.852h-.713v-2.224h.263c-.025.57-.144 1.032-.357 1.389-.213.35-.482.607-.807.769-.32.157-.663.235-1.033.235Zm.122-.788c.307 0 .586-.07.836-.207.25-.138.45-.335.6-.591.15-.263.226-.57.226-.92v-.432c0-.344-.079-.635-.235-.873a1.448 1.448 0 0 0-.61-.553 1.75 1.75 0 0 0-.826-.197 1.66 1.66 0 0 0-.882.234 1.63 1.63 0 0 0-.592.657 2.241 2.241 0 0 0-.206.995c0 .382.072.716.216 1.004.144.282.344.5.6.657.257.15.548.226.873.226Zm6.387.788c-.438 0-.817-.075-1.136-.225a2.199 2.199 0 0 1-.779-.591c-.2-.25-.35-.53-.45-.836a3.19 3.19 0 0 1-.141-.938v-.17c0-.325.047-.64.14-.947.1-.307.251-.582.451-.826.2-.25.454-.448.76-.592.313-.15.68-.225 1.099-.225.544 0 .991.12 1.342.357.356.231.62.532.788.9.175.37.263.764.263 1.183v.404h-4.449v-.676h3.792l-.207.366c0-.356-.056-.663-.168-.92a1.32 1.32 0 0 0-.507-.61c-.225-.144-.51-.215-.854-.215-.357 0-.654.08-.892.244a1.512 1.512 0 0 0-.526.666 2.615 2.615 0 0 0-.169.976c0 .357.057.679.17.967.118.281.3.507.544.676.244.162.553.244.929.244.394 0 .713-.088.957-.263.25-.175.4-.379.45-.61h.845a1.988 1.988 0 0 1-.413.891c-.206.251-.466.442-.778.573a2.723 2.723 0 0 1-1.061.197Zm5.996-.169V95.37h.901v5.012h-.901Zm-.77-4.299v-.713h1.671v.713h-1.67Zm1.023-1.52c-.2 0-.35-.053-.45-.16a.587.587 0 0 1-.14-.403c0-.163.046-.297.14-.404.1-.106.25-.16.45-.16s.348.054.441.16c.1.107.15.241.15.404 0 .162-.05.297-.15.403-.093.107-.24.16-.44.16Zm4.033 5.969c-.657 0-1.167-.141-1.53-.422-.357-.282-.541-.666-.554-1.154h.845c.012.193.11.378.29.553.188.17.504.254.949.254.4 0 .707-.079.919-.235.213-.163.32-.36.32-.591a.556.556 0 0 0-.235-.479c-.157-.119-.41-.197-.76-.235l-.545-.056c-.475-.05-.863-.19-1.163-.422-.3-.238-.451-.57-.451-.995 0-.32.081-.591.244-.817.163-.231.388-.407.676-.525.288-.126.619-.188.995-.188.563 0 1.02.125 1.37.375.35.25.532.623.544 1.117h-.844c-.007-.2-.101-.369-.282-.507-.175-.144-.438-.215-.788-.215-.351 0-.617.072-.798.215a.667.667 0 0 0-.272.545c0 .188.062.338.187.45.132.113.345.185.639.216l.544.056c.538.057.97.207 1.295.451.326.238.488.576.488 1.014 0 .313-.09.591-.272.835a1.768 1.768 0 0 1-.732.563 2.758 2.758 0 0 1-1.079.197Zm7.261 0c-.594 0-1.051-.194-1.37-.582-.319-.388-.479-.948-.479-1.68v-2.91h.901v3.089c0 .394.107.704.319.929.213.219.501.328.864.328.375 0 .682-.119.92-.356.237-.244.356-.576.356-.995V95.36h.901v5.021h-.713v-2.15h.113c0 .495-.066.914-.198 1.258a1.628 1.628 0 0 1-.591.779c-.256.176-.585.263-.985.263h-.038Zm4.157-.15V95.37h.714v2.15h-.113c0-.495.066-.911.197-1.249.138-.344.344-.604.62-.779.275-.181.622-.272 1.041-.272h.038c.632 0 1.098.197 1.398.591.307.394.46.964.46 1.708v2.863h-.901v-3.05c0-.388-.109-.698-.328-.93-.219-.237-.52-.356-.901-.356-.394 0-.714.122-.958.366s-.366.57-.366.976v2.994h-.901Zm9.035 0V98.88h-.15v-1.736c0-.344-.09-.604-.272-.779-.175-.175-.435-.263-.779-.263-.194 0-.394.003-.601.01l-.591.018c-.188.007-.35.016-.488.029v-.789a8.84 8.84 0 0 1 .432-.028 5.95 5.95 0 0 1 .478-.019c.163-.006.32-.01.47-.01.513 0 .932.063 1.257.188.326.12.567.316.723.592.157.275.235.647.235 1.117v3.172h-.714Zm-1.642.131c-.375 0-.701-.062-.976-.187a1.487 1.487 0 0 1-.629-.563c-.144-.244-.216-.538-.216-.883 0-.356.078-.653.235-.891.162-.238.397-.416.704-.535.306-.125.675-.188 1.107-.188h1.361v.676h-1.398c-.363 0-.642.087-.836.263a.87.87 0 0 0-.291.675c0 .276.097.498.291.667.194.169.473.253.836.253.212 0 .416-.037.61-.112.194-.082.353-.213.478-.395.132-.187.204-.444.216-.77l.244.357a2.13 2.13 0 0 1-.262.901c-.138.238-.332.42-.582.545-.244.125-.542.187-.892.187Zm5.061-.131-1.708-5.012h.938l1.671 5.012h-.901Zm.225 0v-.713h1.089v.713h-1.089Zm.432 0 1.455-5.012h.882l-1.483 5.012h-.854Zm6.511 0V98.88h-.15v-1.736c0-.344-.091-.604-.272-.779-.176-.175-.435-.263-.779-.263-.194 0-.395.003-.601.01l-.591.018a8.684 8.684 0 0 0-.489.029v-.789a8.84 8.84 0 0 1 .432-.028c.157-.013.316-.019.479-.019.163-.006.319-.01.469-.01.513 0 .932.063 1.258.188.325.12.566.316.723.592.156.275.234.647.234 1.117v3.172h-.713Zm-1.643.131c-.375 0-.7-.062-.976-.187a1.493 1.493 0 0 1-.629-.563c-.143-.244-.215-.538-.215-.883 0-.356.078-.653.234-.891.163-.238.398-.416.704-.535.307-.125.676-.188 1.108-.188h1.361v.676h-1.399c-.363 0-.641.087-.835.263a.87.87 0 0 0-.291.675c0 .276.097.498.291.667.194.169.472.253.835.253.213 0 .416-.037.61-.112a1.08 1.08 0 0 0 .479-.395c.131-.187.203-.444.216-.77l.244.357c-.032.357-.119.657-.263.901-.138.238-.332.42-.582.545-.244.125-.541.187-.892.187Zm4.254-.131V95.37h.901v5.012h-.901Zm-.77-4.299v-.713h1.671v.713h-1.671Zm1.023-1.52c-.2 0-.35-.053-.45-.16a.587.587 0 0 1-.141-.403c0-.163.047-.297.141-.404.1-.106.25-.16.45-.16.201 0 .348.054.441.16.101.107.151.241.151.404 0 .162-.05.297-.151.403-.093.107-.24.16-.441.16Zm2.446 5.819V93.53h.901v6.852h-.901Zm-.694-6.138v-.713h1.595v.713h-1.595Zm6.355 6.138V98.88h-.15v-1.736c0-.344-.091-.604-.272-.779-.175-.175-.435-.263-.779-.263-.194 0-.394.003-.601.01l-.591.018c-.188.007-.35.016-.488.029v-.789c.138-.012.281-.022.432-.028a5.95 5.95 0 0 1 .478-.019c.163-.006.319-.01.47-.01.513 0 .932.063 1.257.188.326.12.567.316.723.592.156.275.235.647.235 1.117v3.172h-.714Zm-1.642.131c-.376 0-.701-.062-.976-.187a1.487 1.487 0 0 1-.629-.563c-.144-.244-.216-.538-.216-.883 0-.356.078-.653.235-.891.162-.238.397-.416.704-.535.306-.125.675-.188 1.107-.188h1.361v.676h-1.399c-.362 0-.641.087-.835.263a.87.87 0 0 0-.291.675c0 .276.097.498.291.667.194.169.473.253.835.253.213 0 .417-.037.611-.112.194-.082.353-.213.478-.395.132-.187.204-.444.216-.77l.244.357a2.116 2.116 0 0 1-.263.901c-.137.238-.331.42-.582.545-.244.125-.541.187-.891.187Zm6.656.038c-.413 0-.782-.091-1.107-.272a1.967 1.967 0 0 1-.761-.789c-.187-.35-.291-.77-.309-1.257h.244v2.149h-.714V93.53h.901v3.332l-.319.686c.025-.545.135-.989.329-1.333s.447-.598.76-.76a2.209 2.209 0 0 1 1.051-.254c.357 0 .682.069.976.207.294.131.548.316.761.553.212.232.375.504.488.817.112.307.169.638.169.995v.169c0 .357-.06.691-.179 1.004a2.5 2.5 0 0 1-.497.835 2.395 2.395 0 0 1-1.793.77Zm-.103-.788c.338 0 .632-.082.882-.244.25-.163.444-.385.582-.667.138-.288.206-.62.206-.995s-.071-.704-.215-.985a1.509 1.509 0 0 0-.582-.648 1.616 1.616 0 0 0-.873-.234 1.74 1.74 0 0 0-.836.206 1.536 1.536 0 0 0-.619.582c-.15.25-.225.554-.225.91v.432c0 .344.078.638.234.882.157.244.363.432.62.564.256.13.532.197.826.197Zm3.984.619V93.53h.901v6.852h-.901Zm-.695-6.138v-.713h1.596v.713h-1.596Zm5.454 6.307c-.438 0-.816-.075-1.135-.225a2.198 2.198 0 0 1-.779-.591 2.64 2.64 0 0 1-.451-.836 3.184 3.184 0 0 1-.141-.938v-.17c0-.325.047-.64.141-.947.1-.307.251-.582.451-.826.2-.25.453-.448.76-.592.313-.15.679-.225 1.098-.225.544 0 .992.12 1.342.357.357.231.62.532.789.9.175.37.262.764.262 1.183v.404h-4.448v-.676h3.791l-.206.366c0-.356-.056-.663-.169-.92a1.324 1.324 0 0 0-.507-.61c-.225-.144-.51-.215-.854-.215-.357 0-.654.08-.892.244a1.515 1.515 0 0 0-.525.666 2.607 2.607 0 0 0-.169.976c0 .357.056.679.169.967.119.281.3.507.544.676.244.162.554.244.929.244.395 0 .714-.088.958-.263.25-.175.4-.379.45-.61h.845a1.985 1.985 0 0 1-.413.891 1.98 1.98 0 0 1-.779.573 2.723 2.723 0 0 1-1.061.197Z"/><mask id="d" fill="#fff"><path fill-rule="evenodd" d="M326.576 74.304h83.267c1.728 0 3.128 1.4 3.128 3.128v16.759a3.128 3.128 0 0 1-1.067 2.329l-5.898 5.166a3.129 3.129 0 0 1-2.061.775h5.925H320.678a3.129 3.129 0 0 1-3.128-3.129V82.598c0-.901.389-1.76 1.067-2.353l5.898-5.166c.57-.5 1.303-.775 2.061-.775Z" clip-rule="evenodd"/></mask><path fill="#E07" fill-rule="evenodd" d="M326.576 74.304h83.267c1.728 0 3.128 1.4 3.128 3.128v16.759a3.128 3.128 0 0 1-1.067 2.329l-5.898 5.166a3.129 3.129 0 0 1-2.061.775h5.925H320.678a3.129 3.129 0 0 1-3.128-3.129V82.598c0-.901.389-1.76 1.067-2.353l5.898-5.166c.57-.5 1.303-.775 2.061-.775Z" clip-rule="evenodd"/><path fill="#fff" fill-opacity=".1" d="m412.971 94.191.782.006v-.006h-.782Zm-1.067 2.329.516.588-.516-.588Zm-5.898 5.166-.515-.589.515.589Zm3.864.775.007.782-.007-1.564v.782Zm-91.253-22.216.515.588-.515-.588Zm5.898-5.166L324 74.49l.515.589Zm85.328-1.557h-83.267v1.564h83.267v-1.564Zm3.91 3.91a3.91 3.91 0 0 0-3.91-3.91v1.564a2.346 2.346 0 0 1 2.346 2.346h1.564Zm0 16.759V77.432h-1.564v16.759h1.564Zm-1.333 2.917a3.914 3.914 0 0 0 1.333-2.91l-1.564-.013a2.345 2.345 0 0 1-.8 1.746l1.031 1.177Zm-5.898 5.166 5.898-5.166-1.031-1.177-5.898 5.166 1.031 1.177Zm-2.577.969a3.91 3.91 0 0 0 2.577-.969l-1.031-1.177a2.346 2.346 0 0 1-1.546.582v1.564Zm5.925-1.564h-5.925v1.564h5.925v-1.564Zm-.027 1.564h.034l-.014-1.564h-.02v1.564Zm-89.165 0h89.165v-1.564h-89.165v1.564Zm-3.91-3.91a3.91 3.91 0 0 0 3.91 3.91v-1.564a2.346 2.346 0 0 1-2.346-2.347h-1.564Zm0-16.735v16.734h1.564V82.598h-1.564Zm1.334-2.942a3.91 3.91 0 0 0-1.334 2.942h1.564c0-.676.292-1.32.8-1.765l-1.03-1.177ZM324 74.49l-5.898 5.166 1.03 1.177 5.898-5.166L324 74.49Zm2.576-.968c-.948 0-1.864.344-2.576.968l1.03 1.177a2.346 2.346 0 0 1 1.546-.581v-1.564Z" mask="url(#d)"/><path fill="#fff" d="M344.305 92.343v-8.038h1.073v8.038h-1.073Zm4.938 0-2.65-3.559h1.26l2.693 3.559h-1.303Zm-4.27-2.891v-.953h2.146c.336 0 .624-.069.865-.208.241-.138.427-.328.559-.57.131-.247.197-.528.197-.842 0-.314-.066-.592-.197-.833a1.43 1.43 0 0 0-.559-.58 1.637 1.637 0 0 0-.865-.219h-2.146v-.942h1.949c.584 0 1.095.088 1.533.263a2.13 2.13 0 0 1 1.018.81c.241.366.362.836.362 1.413v.175c0 .577-.124 1.048-.373 1.413a2.13 2.13 0 0 1-1.018.81c-.431.175-.938.263-1.522.263h-1.949Zm9.224 3.088c-.511 0-.952-.088-1.324-.263a2.556 2.556 0 0 1-.909-.69 3.072 3.072 0 0 1-.526-.974 3.737 3.737 0 0 1-.164-1.095v-.197c0-.38.055-.749.164-1.106.117-.358.292-.68.526-.964.233-.292.529-.522.887-.69.365-.175.792-.263 1.281-.263.635 0 1.157.14 1.566.416.416.27.722.621.919 1.052.205.43.307.89.307 1.38v.47h-5.19v-.788h4.424l-.241.427c0-.416-.066-.774-.197-1.073a1.543 1.543 0 0 0-.592-.712c-.263-.168-.595-.252-.996-.252-.416 0-.763.095-1.04.285a1.76 1.76 0 0 0-.614.777 3.059 3.059 0 0 0-.197 1.14c0 .415.066.791.197 1.127.139.329.351.591.635.788.285.19.646.285 1.084.285.46 0 .833-.102 1.117-.306.292-.205.468-.442.526-.712h.985c-.08.401-.24.748-.481 1.04a2.325 2.325 0 0 1-.909.668c-.365.153-.778.23-1.238.23Zm6.136-.022c-.767 0-1.362-.164-1.785-.493-.416-.328-.631-.777-.646-1.347h.985c.015.227.128.442.34.646.219.198.588.296 1.106.296.467 0 .825-.091 1.073-.274.248-.19.372-.42.372-.69a.647.647 0 0 0-.274-.558c-.182-.139-.478-.23-.886-.274l-.636-.065c-.554-.059-1.007-.223-1.357-.493-.351-.278-.526-.665-.526-1.16 0-.373.095-.69.285-.953.19-.27.452-.475.788-.614a2.89 2.89 0 0 1 1.161-.219c.657 0 1.19.146 1.599.438.408.292.62.727.635 1.303h-.986c-.007-.233-.117-.43-.328-.591-.205-.168-.511-.252-.92-.252-.409 0-.719.084-.931.252a.777.777 0 0 0-.317.635c0 .22.073.394.219.526.153.131.401.215.744.252l.635.065c.628.066 1.132.241 1.511.526.38.277.57.671.57 1.182 0 .365-.106.69-.318.975a2.062 2.062 0 0 1-.854.657 3.23 3.23 0 0 1-1.259.23Zm6.648.022c-.511 0-.96-.088-1.347-.263a3.102 3.102 0 0 1-.985-.69 3.153 3.153 0 0 1-.603-.974 3.162 3.162 0 0 1-.197-1.095v-.197c0-.373.07-.738.208-1.095.139-.365.343-.69.613-.975a2.9 2.9 0 0 1 .986-.69 3.182 3.182 0 0 1 1.325-.263c.496 0 .938.088 1.325.263.387.168.715.398.985.69.27.285.475.61.614.975.138.357.208.722.208 1.095v.197c0 .372-.07.737-.208 1.095a2.91 2.91 0 0 1-.603.974 2.967 2.967 0 0 1-.974.69c-.387.175-.836.263-1.347.263Zm0-.942c.438 0 .81-.095 1.117-.284.314-.198.551-.46.712-.789.167-.328.251-.697.251-1.106a2.43 2.43 0 0 0-.251-1.117 1.903 1.903 0 0 0-.723-.777c-.307-.19-.675-.285-1.106-.285-.423 0-.792.095-1.106.285-.314.19-.555.449-.723.777-.168.329-.252.701-.252 1.117 0 .409.081.778.241 1.106.168.329.405.591.712.788.314.19.69.285 1.128.285Zm4.772.745v-7.994h1.051v7.994h-1.051Zm-.811-7.162v-.832h1.862v.832h-1.862Zm5.126 7.162-1.992-5.847h1.095l1.949 5.847h-1.052Zm.263 0v-.832h1.27v.832h-1.27Zm.504 0 1.697-5.847h1.03l-1.731 5.847h-.996Zm6.48.197c-.511 0-.952-.088-1.324-.263a2.556 2.556 0 0 1-.909-.69 3.072 3.072 0 0 1-.526-.974 3.737 3.737 0 0 1-.164-1.095v-.197c0-.38.055-.749.164-1.106.117-.358.292-.68.526-.964.233-.292.529-.522.887-.69.365-.175.792-.263 1.281-.263.635 0 1.157.14 1.566.416.416.27.722.621.919 1.052.205.43.307.89.307 1.38v.47h-5.19v-.788h4.424l-.241.427c0-.416-.066-.774-.197-1.073a1.543 1.543 0 0 0-.592-.712c-.263-.168-.595-.252-.996-.252-.416 0-.763.095-1.04.285a1.76 1.76 0 0 0-.614.777 3.059 3.059 0 0 0-.197 1.14c0 .415.066.791.197 1.127.139.329.351.591.635.788.285.19.646.285 1.084.285.46 0 .833-.102 1.117-.306.292-.205.468-.442.526-.712h.985c-.08.401-.24.748-.481 1.04a2.325 2.325 0 0 1-.909.668c-.365.153-.778.23-1.238.23Z"/><mask id="e" fill="#fff"><path fill-rule="evenodd" d="M30.57 122.796h388.659a6.258 6.258 0 0 1 6.257 6.258v40.519-10.18a6.256 6.256 0 0 1-2.135 4.707l-11.798 10.332a6.249 6.249 0 0 1-2.609 1.364H18.771a6.257 6.257 0 0 1-6.257-6.257v-30.153c0-1.803.778-3.519 2.135-4.707l11.798-10.333a6.258 6.258 0 0 1 4.122-1.55Z" clip-rule="evenodd"/></mask><path fill="#fff" fill-opacity=".05" fill-rule="evenodd" d="M30.57 122.796h388.659a6.258 6.258 0 0 1 6.257 6.258v40.519-10.18a6.256 6.256 0 0 1-2.135 4.707l-11.798 10.332a6.249 6.249 0 0 1-2.609 1.364H18.771a6.257 6.257 0 0 1-6.257-6.257v-30.153c0-1.803.778-3.519 2.135-4.707l11.798-10.333a6.258 6.258 0 0 1 4.122-1.55Z" clip-rule="evenodd"/><path fill="#fff" fill-opacity=".1" d="M425.486 169.573h-.783l1.565.005-.782-.005Zm-2.135-5.473-.515-.589.515.589Zm-11.798 10.332-.515-.588.515.588Zm-2.609 1.364v.783h.096l.093-.024-.189-.759ZM14.649 134.679l-.515-.589.515.589Zm11.798-10.333.515.589-.515-.589Zm392.782-2.332H30.569v1.565h388.66v-1.565Zm7.039 7.04a7.04 7.04 0 0 0-7.039-7.04v1.565a5.475 5.475 0 0 1 5.475 5.475h1.564Zm0 40.485v-40.485h-1.564v40.485h1.564Zm0 .039v-.039h-1.564l-.001.03 1.565.009Zm-1.565-10.185v10.18h1.565v-10.18h-1.565Zm-.837 5.295a7.041 7.041 0 0 0 2.402-5.295h-1.565c0 1.577-.68 3.079-1.867 4.118l1.03 1.177Zm-11.798 10.332 11.798-10.332-1.03-1.177-11.798 10.333 1.03 1.176Zm-2.935 1.535a7.025 7.025 0 0 0 2.935-1.535l-1.03-1.176a5.472 5.472 0 0 1-2.283 1.193l.378 1.518Zm-390.362.024h390.173v-1.565H18.771v1.565Zm-7.039-7.04a7.04 7.04 0 0 0 7.04 7.04v-1.565a5.475 5.475 0 0 1-5.476-5.475h-1.564Zm0-30.153v30.153h1.564v-30.153h-1.564Zm2.402-5.296a7.04 7.04 0 0 0-2.402 5.296h1.564c0-1.578.681-3.079 1.868-4.119l-1.03-1.177Zm11.797-10.332L14.134 134.09l1.03 1.177 11.798-10.332-1.03-1.177Zm4.638-1.744a7.04 7.04 0 0 0-4.637 1.744l1.03 1.177a5.471 5.471 0 0 1 3.607-1.356v-1.565Z" mask="url(#e)"/><path fill="#fff" fill-opacity=".65" d="M51.752 141.372h-5.345l-16.034 16.034h10.69l10.689-16.034Z"/><path fill="#fff" fill-opacity=".75" d="M68.785 147.439v-1.076h2.553c.492 0 .872-.138 1.139-.413.275-.284.412-.659.412-1.126 0-.476-.133-.847-.4-1.114-.267-.275-.65-.413-1.151-.413h-2.553v-.801h2.377c.584 0 1.098.071 1.54.213.45.142.8.379 1.051.713.259.326.388.772.388 1.339v.175c0 .534-.109.989-.326 1.364-.216.368-.546.651-.988.851-.442.192-.997.288-1.665.288h-2.377Zm-.976 0v-9.235h1.226v9.235H67.81Zm.976-4.367v-.801H71c.517 0 .897-.138 1.139-.413.25-.284.375-.643.375-1.076 0-.443-.125-.801-.375-1.077-.242-.283-.622-.425-1.14-.425h-2.214v-1.076h2.002c1.001 0 1.748.212 2.24.638.492.417.739 1.022.739 1.814v.176c0 .559-.126 1.005-.376 1.339-.25.325-.6.559-1.051.701-.442.133-.96.2-1.552.2h-2.002Zm7.68 4.317v-6.682h1.201v6.682h-1.201Zm-1.026-5.731v-.951h2.227v.951h-2.227Zm1.364-2.028c-.267 0-.468-.071-.601-.212a.786.786 0 0 1-.188-.539c0-.216.063-.396.188-.538.133-.141.334-.212.6-.212.267 0 .464.071.589.212.133.142.2.322.2.538a.756.756 0 0 1-.2.539c-.125.141-.322.212-.588.212Zm3.361 7.759v-7.02c0-.743.196-1.289.588-1.64.392-.35.968-.525 1.727-.525h.826v1.001H82.28c-.309 0-.546.087-.713.263-.167.166-.25.4-.25.7v7.221h-1.152Zm-.926-5.706v-.901h4.192v.901h-4.192Zm5.468 5.706v-6.682h.951v2.753h-.05c0-.976.213-1.69.639-2.14.433-.459 1.08-.689 1.94-.689h.224v1.077h-.425c-.668 0-1.18.179-1.54.538-.358.35-.537.859-.537 1.527v3.616h-1.202Zm8.138.225c-.584 0-1.097-.1-1.54-.3a3.551 3.551 0 0 1-1.125-.788 3.6 3.6 0 0 1-.689-1.114 3.604 3.604 0 0 1-.225-1.252v-.225c0-.425.08-.842.238-1.251.158-.417.392-.789.7-1.114a3.3 3.3 0 0 1 1.127-.788c.442-.201.947-.301 1.514-.301.568 0 1.072.1 1.514.301a3.3 3.3 0 0 1 1.127.788c.308.325.542.697.7 1.114.159.409.238.826.238 1.251v.225c0 .426-.079.843-.237 1.252-.15.409-.38.78-.689 1.114-.3.325-.671.588-1.114.788-.442.2-.955.3-1.539.3Zm0-1.076c.5 0 .926-.108 1.277-.325.358-.225.63-.526.813-.901a2.74 2.74 0 0 0 .288-1.264c0-.476-.096-.901-.288-1.277a2.176 2.176 0 0 0-.826-.888c-.35-.217-.772-.325-1.264-.325-.484 0-.905.108-1.264.325a2.176 2.176 0 0 0-.826.888 2.767 2.767 0 0 0-.288 1.277c0 .467.092.888.276 1.264.192.375.463.676.813.901.359.217.789.325 1.29.325Zm7.569 1.051c-.876 0-1.556-.187-2.04-.563-.476-.375-.722-.888-.739-1.539h1.127c.016.259.146.505.388.738.25.226.671.338 1.264.338.534 0 .942-.104 1.226-.313.284-.217.425-.479.425-.788a.74.74 0 0 0-.312-.638c-.209-.159-.547-.263-1.014-.313l-.726-.075c-.634-.067-1.151-.255-1.552-.563-.4-.317-.6-.76-.6-1.327 0-.425.108-.788.325-1.089.217-.308.517-.542.901-.7.384-.167.826-.251 1.327-.251.75 0 1.359.167 1.827.501.467.334.709.83.726 1.489h-1.127c-.008-.267-.133-.492-.375-.676-.234-.192-.584-.288-1.051-.288-.468 0-.822.096-1.064.288a.89.89 0 0 0-.363.726c0 .25.083.451.25.601.175.15.46.246.851.288l.726.075c.718.075 1.293.275 1.727.6.434.317.651.768.651 1.352 0 .417-.121.788-.363 1.114-.234.317-.559.567-.976.751-.417.175-.897.262-1.439.262Zm7.122-.125c-.501 0-.934-.071-1.302-.212a1.657 1.657 0 0 1-.838-.726c-.192-.351-.288-.822-.288-1.414v-6.433h1.151v6.583c0 .358.096.638.288.838.201.192.48.288.839.288h1.176v1.076h-1.026Zm-3.579-5.856v-.901h4.605v.901h-4.605Zm9.152 5.781v-6.682h.951v2.865h-.15c0-.659.087-1.214.262-1.664.184-.459.459-.805.826-1.039.368-.242.831-.363 1.39-.363h.05c.842 0 1.464.263 1.864.789.409.525.613 1.285.613 2.277v3.817h-1.201v-4.067c0-.517-.146-.93-.438-1.239-.292-.317-.692-.475-1.201-.475-.526 0-.951.162-1.277.488-.325.325-.488.759-.488 1.301v3.992h-1.201Zm10.845.225c-.584 0-1.088-.1-1.514-.3a2.94 2.94 0 0 1-1.039-.788 3.505 3.505 0 0 1-.6-1.114 4.26 4.26 0 0 1-.188-1.252v-.225a4.3 4.3 0 0 1 .188-1.264 3.35 3.35 0 0 1 .6-1.101 2.796 2.796 0 0 1 1.014-.788c.417-.201.905-.301 1.464-.301.726 0 1.323.159 1.79.476.475.309.826.709 1.051 1.201.234.492.35 1.018.35 1.577v.538h-5.931v-.901h5.055l-.275.488c0-.475-.075-.884-.225-1.226a1.76 1.76 0 0 0-.676-.814c-.3-.192-.68-.288-1.139-.288-.475 0-.872.109-1.189.326a2.016 2.016 0 0 0-.7.888c-.151.376-.226.81-.226 1.302 0 .475.075.905.226 1.289.158.375.4.676.725.901.326.217.739.325 1.239.325.526 0 .951-.117 1.277-.35.333-.234.534-.505.6-.814h1.127a2.654 2.654 0 0 1-.551 1.189 2.654 2.654 0 0 1-1.039.764 3.622 3.622 0 0 1-1.414.262Zm7.425-.15c-.501 0-.934-.071-1.301-.212a1.655 1.655 0 0 1-.839-.726c-.192-.351-.288-.822-.288-1.414v-6.433h1.152v6.583c0 .358.096.638.287.838.201.192.48.288.839.288h1.176v1.076h-1.026Zm-3.579-5.856v-.901h4.605v.901h-4.605Zm8.257 5.781 1.351-6.457h1.627l1.577 6.457h-1.026l-1.577-6.432h.4l-1.364 6.432h-.988Zm-.614 0v-.951h1.39v.951h-1.39Zm-.275 0-1.89-6.682h1.152l1.839 6.682h-1.101Zm4.668 0v-.951h1.389v.951h-1.389Zm.563 0 1.602-6.682h1.089l-1.64 6.682h-1.051Zm7.27.225c-.584 0-1.098-.1-1.54-.3a3.556 3.556 0 0 1-1.126-.788c-.3-.334-.53-.705-.688-1.114a3.61 3.61 0 0 1-.226-1.252v-.225c0-.425.08-.842.238-1.251.159-.417.392-.789.701-1.114a3.304 3.304 0 0 1 1.126-.788c.442-.201.947-.301 1.515-.301.567 0 1.072.1 1.514.301.442.192.817.454 1.126.788.309.325.542.697.701 1.114.158.409.238.826.238 1.251v.225c0 .426-.08.843-.238 1.252-.15.409-.38.78-.688 1.114a3.415 3.415 0 0 1-1.114.788c-.442.2-.955.3-1.539.3Zm0-1.076c.5 0 .926-.108 1.276-.325.359-.225.63-.526.813-.901.192-.376.288-.797.288-1.264 0-.476-.096-.901-.288-1.277a2.17 2.17 0 0 0-.826-.888c-.35-.217-.771-.325-1.263-.325-.484 0-.906.108-1.264.325a2.176 2.176 0 0 0-.826.888 2.766 2.766 0 0 0-.288 1.277c0 .467.092.888.275 1.264.192.375.463.676.814.901.358.217.788.325 1.289.325Zm5.378.851v-6.682h.951v2.753h-.05c0-.976.213-1.69.638-2.14.434-.459 1.081-.689 1.94-.689h.225v1.077h-.425c-.668 0-1.181.179-1.54.538-.358.35-.538.859-.538 1.527v3.616h-1.201Zm9.738 0-2.515-3.116h-1.102l3.066-3.566h1.264l-2.778 3.216.088-.639 3.366 4.105h-1.389Zm-4.605 0v-9.135h1.201v9.135h-1.201Z"/><path fill="#fff" fill-opacity=".5" d="M67.477 161.389v-6.851h1.502l3.482 6.025h.3l-.188.169v-6.194h.883v6.851h-1.52l-3.483-6.025h-.3l.188-.169v6.194h-.864Zm10.143.169c-.438 0-.823-.075-1.155-.225a2.66 2.66 0 0 1-.845-.591 2.707 2.707 0 0 1-.516-.836 2.698 2.698 0 0 1-.169-.938v-.169c0-.319.06-.632.179-.939.118-.313.294-.591.525-.835.232-.25.513-.448.845-.591.332-.151.71-.226 1.136-.226.425 0 .804.075 1.135.226.332.143.613.341.845.591.232.244.407.522.526.835.118.307.178.62.178.939v.169c0 .319-.06.632-.178.938a2.489 2.489 0 0 1-.517.836 2.55 2.55 0 0 1-.835.591c-.332.15-.716.225-1.154.225Zm0-.807c.375 0 .694-.081.957-.244.269-.169.472-.394.61-.676a2.05 2.05 0 0 0 .216-.948c0-.356-.072-.676-.216-.957a1.632 1.632 0 0 0-.62-.667c-.262-.162-.578-.244-.947-.244-.363 0-.68.082-.948.244a1.632 1.632 0 0 0-.62.667 2.071 2.071 0 0 0-.216.957c0 .351.07.667.207.948.144.282.347.507.61.676.269.163.591.244.967.244Zm6.126.807a2.393 2.393 0 0 1-1.774-.751 2.671 2.671 0 0 1-.516-.826 2.826 2.826 0 0 1-.178-1.013v-.169c0-.357.06-.692.178-1.005.12-.312.285-.588.498-.826a2.354 2.354 0 0 1 1.764-.76c.382 0 .73.082 1.042.244.313.157.57.404.77.742.2.338.313.776.338 1.314l-.376-.601v-3.369h.901v6.851h-.713v-2.224h.263c-.025.569-.144 1.032-.357 1.389-.213.35-.482.607-.807.769-.32.157-.663.235-1.033.235Zm.122-.788a1.7 1.7 0 0 0 .836-.207c.25-.137.45-.335.6-.591.15-.263.226-.569.226-.92v-.432c0-.344-.079-.635-.235-.872a1.441 1.441 0 0 0-.61-.554 1.742 1.742 0 0 0-.826-.197c-.332 0-.626.078-.882.234-.25.157-.448.376-.592.657a2.242 2.242 0 0 0-.206.995c0 .382.072.717.216 1.004.144.282.344.501.6.657.257.151.548.226.873.226Zm6.387.788c-.438 0-.817-.075-1.136-.225a2.197 2.197 0 0 1-.779-.591c-.2-.251-.35-.529-.45-.836a3.185 3.185 0 0 1-.141-.938v-.169c0-.326.047-.642.14-.948.1-.307.251-.582.451-.826.2-.25.454-.448.76-.591.313-.151.68-.226 1.099-.226.544 0 .991.119 1.342.357.356.231.62.532.788.901.175.369.263.763.263 1.183v.403h-4.449v-.676h3.792l-.207.366c0-.356-.056-.663-.168-.919a1.314 1.314 0 0 0-.507-.61c-.225-.144-.51-.216-.854-.216-.357 0-.654.081-.892.244a1.504 1.504 0 0 0-.526.666 2.617 2.617 0 0 0-.169.976c0 .357.057.679.17.967.118.281.3.507.544.676.244.162.553.244.929.244.394 0 .713-.088.957-.263.25-.175.4-.379.45-.61h.845a1.985 1.985 0 0 1-.413.891 1.98 1.98 0 0 1-.778.573 2.723 2.723 0 0 1-1.061.197Zm5.996-.169v-5.012h.901v5.012h-.901Zm-.77-4.298v-.714h1.671v.714h-1.67Zm1.023-1.521c-.2 0-.35-.053-.45-.16a.585.585 0 0 1-.14-.403c0-.163.046-.297.14-.404.1-.106.25-.159.45-.159s.348.053.441.159c.1.107.15.241.15.404 0 .163-.05.297-.15.403-.093.107-.24.16-.44.16Zm4.033 5.969c-.657 0-1.167-.14-1.53-.422-.357-.282-.541-.666-.554-1.154h.845c.012.194.11.378.29.553.188.169.504.254.949.254.4 0 .707-.079.919-.235.213-.163.32-.36.32-.591a.557.557 0 0 0-.235-.479c-.157-.119-.41-.197-.76-.235l-.545-.056c-.475-.05-.863-.191-1.163-.422-.3-.238-.451-.57-.451-.995 0-.319.081-.591.244-.817.163-.231.388-.406.676-.525.288-.125.619-.188.995-.188.563 0 1.02.125 1.37.375.35.251.532.623.544 1.117h-.844c-.007-.2-.101-.369-.282-.506-.175-.144-.438-.216-.788-.216-.351 0-.617.072-.798.216a.665.665 0 0 0-.272.544c0 .188.062.338.187.45.132.113.345.185.639.216l.544.057c.538.056.97.206 1.295.45.326.238.488.576.488 1.014 0 .313-.09.591-.272.835a1.76 1.76 0 0 1-.732.563 2.758 2.758 0 0 1-1.079.197Zm7.261 0c-.594 0-1.051-.194-1.37-.582-.319-.388-.479-.948-.479-1.68v-2.909h.901v3.088c0 .394.107.704.319.929.213.219.501.328.864.328.375 0 .682-.118.92-.356.237-.244.356-.576.356-.995v-2.994h.901v5.021h-.713v-2.149h.113c0 .494-.066.913-.198 1.258a1.638 1.638 0 0 1-.591.779c-.256.175-.585.262-.985.262h-.038Zm4.157-.15v-5.012h.714v2.15h-.113c0-.495.066-.911.197-1.249.138-.344.344-.604.62-.779.275-.181.622-.272 1.041-.272h.038c.632 0 1.098.197 1.398.591.307.395.46.964.46 1.709v2.862h-.901v-3.05c0-.388-.109-.698-.328-.929-.219-.238-.52-.357-.901-.357-.394 0-.714.122-.958.366s-.366.569-.366.976v2.994h-.901Zm9.035 0v-1.502h-.15v-1.736c0-.344-.09-.604-.272-.779-.175-.175-.435-.263-.779-.263-.194 0-.394.003-.601.01l-.591.018c-.188.007-.35.016-.488.029v-.789c.138-.012.282-.022.432-.028a6.24 6.24 0 0 1 .478-.019c.163-.006.32-.009.47-.009.513 0 .932.062 1.257.188.326.118.567.316.723.591.157.275.235.648.235 1.117v3.172h-.714Zm-1.642.132c-.375 0-.701-.063-.976-.188a1.49 1.49 0 0 1-.629-.563c-.144-.244-.216-.538-.216-.883 0-.356.078-.653.235-.891a1.46 1.46 0 0 1 .704-.535c.306-.125.675-.188 1.107-.188h1.361v.676h-1.398c-.363 0-.642.087-.836.263a.868.868 0 0 0-.291.675c0 .276.097.498.291.667.194.169.473.253.836.253.212 0 .416-.037.61-.112.194-.082.353-.213.478-.395.132-.187.204-.444.216-.769l.244.356a2.128 2.128 0 0 1-.262.901c-.138.238-.332.42-.582.545-.244.125-.542.188-.892.188Zm5.061-.132-1.708-5.012h.938l1.671 5.012h-.901Zm.225 0v-.713h1.089v.713h-1.089Zm.432 0 1.455-5.012h.882l-1.483 5.012h-.854Zm6.511 0v-1.502h-.15v-1.736c0-.344-.091-.604-.272-.779-.176-.175-.435-.263-.779-.263-.194 0-.395.003-.601.01l-.591.018a8.888 8.888 0 0 0-.489.029v-.789c.138-.012.282-.022.432-.028.157-.012.316-.019.479-.019.163-.006.319-.009.469-.009.513 0 .932.062 1.258.188.325.118.566.316.723.591.156.275.234.648.234 1.117v3.172h-.713Zm-1.643.132c-.375 0-.7-.063-.976-.188a1.495 1.495 0 0 1-.629-.563c-.143-.244-.215-.538-.215-.883 0-.356.078-.653.234-.891a1.47 1.47 0 0 1 .704-.535c.307-.125.676-.188 1.108-.188h1.361v.676h-1.399c-.363 0-.641.087-.835.263a.868.868 0 0 0-.291.675c0 .276.097.498.291.667.194.169.472.253.835.253.213 0 .416-.037.61-.112.194-.082.354-.213.479-.395.131-.187.203-.444.216-.769l.244.356c-.032.357-.119.657-.263.901-.138.238-.332.42-.582.545-.244.125-.541.188-.892.188Zm4.254-.132v-5.012h.901v5.012h-.901Zm-.77-4.298v-.714h1.671v.714h-1.671Zm1.023-1.521c-.2 0-.35-.053-.45-.16a.584.584 0 0 1-.141-.403c0-.163.047-.297.141-.404.1-.106.25-.159.45-.159.201 0 .348.053.441.159a.564.564 0 0 1 .151.404.56.56 0 0 1-.151.403c-.093.107-.24.16-.441.16Zm2.446 5.819v-6.851h.901v6.851h-.901Zm-.694-6.138v-.713h1.595v.713h-1.595Zm6.355 6.138v-1.502h-.15v-1.736c0-.344-.091-.604-.272-.779-.175-.175-.435-.263-.779-.263-.194 0-.394.003-.601.01l-.591.018c-.188.007-.35.016-.488.029v-.789c.138-.012.281-.022.432-.028a6.24 6.24 0 0 1 .478-.019c.163-.006.319-.009.47-.009.513 0 .932.062 1.257.188.326.118.567.316.723.591.156.275.235.648.235 1.117v3.172h-.714Zm-1.642.132a2.34 2.34 0 0 1-.976-.188 1.49 1.49 0 0 1-.629-.563c-.144-.244-.216-.538-.216-.883 0-.356.078-.653.235-.891a1.46 1.46 0 0 1 .704-.535c.306-.125.675-.188 1.107-.188h1.361v.676h-1.399c-.362 0-.641.087-.835.263a.868.868 0 0 0-.291.675c0 .276.097.498.291.667.194.169.473.253.835.253.213 0 .417-.037.611-.112.194-.082.353-.213.478-.395.132-.187.204-.444.216-.769l.244.356c-.031.357-.119.657-.263.901-.137.238-.331.42-.582.545-.244.125-.541.188-.891.188Zm6.656.037c-.413 0-.782-.091-1.107-.272a1.966 1.966 0 0 1-.761-.788c-.187-.351-.291-.77-.309-1.258h.244v2.149h-.714v-6.851h.901v3.332l-.319.685c.025-.545.135-.989.329-1.333s.447-.598.76-.76a2.21 2.21 0 0 1 1.051-.254c.357 0 .682.069.976.207.294.131.548.316.761.553.212.232.375.504.488.817.112.307.169.638.169.995v.169c0 .357-.06.691-.179 1.004a2.498 2.498 0 0 1-.497.835 2.39 2.39 0 0 1-1.793.77Zm-.103-.788c.338 0 .632-.082.882-.244.25-.163.444-.385.582-.667.138-.288.206-.619.206-.995 0-.375-.071-.704-.215-.985a1.506 1.506 0 0 0-.582-.648 1.62 1.62 0 0 0-.873-.234c-.301 0-.579.068-.836.206a1.545 1.545 0 0 0-.619.582c-.15.25-.225.554-.225.91v.432c0 .344.078.638.234.882.157.244.363.432.62.564.256.131.532.197.826.197Zm3.984.619v-6.851h.901v6.851h-.901Zm-.695-6.138v-.713h1.596v.713h-1.596Zm5.454 6.307c-.438 0-.816-.075-1.135-.225a2.197 2.197 0 0 1-.779-.591 2.646 2.646 0 0 1-.451-.836 3.178 3.178 0 0 1-.141-.938v-.169c0-.326.047-.642.141-.948.1-.307.251-.582.451-.826.2-.25.453-.448.76-.591.313-.151.679-.226 1.098-.226.544 0 .992.119 1.342.357.357.231.62.532.789.901.175.369.262.763.262 1.183v.403h-4.448v-.676h3.791l-.206.366c0-.356-.056-.663-.169-.919a1.318 1.318 0 0 0-.507-.61c-.225-.144-.51-.216-.854-.216-.357 0-.654.081-.892.244a1.507 1.507 0 0 0-.525.666 2.609 2.609 0 0 0-.169.976c0 .357.056.679.169.967.119.281.3.507.544.676.244.162.554.244.929.244.395 0 .714-.088.958-.263.25-.175.4-.379.45-.61h.845a1.982 1.982 0 0 1-.413.891 1.977 1.977 0 0 1-.779.573 2.723 2.723 0 0 1-1.061.197Z"/><mask id="f" fill="#fff"><path fill-rule="evenodd" d="M326.576 135.311h83.267a3.128 3.128 0 0 1 3.128 3.128v16.759a3.129 3.129 0 0 1-1.067 2.329l-5.898 5.166a3.129 3.129 0 0 1-2.061.775h5.925H320.678a3.129 3.129 0 0 1-3.128-3.129v-16.734a3.13 3.13 0 0 1 1.067-2.353l5.898-5.166c.57-.5 1.303-.775 2.061-.775Z" clip-rule="evenodd"/></mask><path fill="#E07" fill-rule="evenodd" d="M326.576 135.311h83.267a3.128 3.128 0 0 1 3.128 3.128v16.759a3.129 3.129 0 0 1-1.067 2.329l-5.898 5.166a3.129 3.129 0 0 1-2.061.775h5.925H320.678a3.129 3.129 0 0 1-3.128-3.129v-16.734a3.13 3.13 0 0 1 1.067-2.353l5.898-5.166c.57-.5 1.303-.775 2.061-.775Z" clip-rule="evenodd"/><path fill="#fff" fill-opacity=".1" d="m412.971 155.198.782.006v-.006h-.782Zm-1.067 2.329.516.588-.516-.588Zm-5.898 5.166-.515-.589.515.589Zm3.864.775.007.782-.007-1.564v.782Zm-91.253-22.216.515.588-.515-.588Zm5.898-5.166-.515-.589.515.589Zm85.328-1.557h-83.267v1.564h83.267v-1.564Zm3.91 3.91a3.91 3.91 0 0 0-3.91-3.91v1.564a2.346 2.346 0 0 1 2.346 2.346h1.564Zm0 16.759v-16.759h-1.564v16.759h1.564Zm-1.333 2.917a3.914 3.914 0 0 0 1.333-2.911l-1.564-.012a2.344 2.344 0 0 1-.8 1.746l1.031 1.177Zm-5.898 5.166 5.898-5.166-1.031-1.177-5.898 5.166 1.031 1.177Zm-2.577.969a3.91 3.91 0 0 0 2.577-.969l-1.031-1.177a2.346 2.346 0 0 1-1.546.582v1.564Zm5.925-1.564h-5.925v1.564h5.925v-1.564Zm-.027 1.564h.034l-.014-1.564h-.02v1.564Zm-89.165 0h89.165v-1.564h-89.165v1.564Zm-3.91-3.911a3.91 3.91 0 0 0 3.91 3.911v-1.564a2.346 2.346 0 0 1-2.346-2.347h-1.564Zm0-16.734v16.734h1.564v-16.734h-1.564Zm1.334-2.941a3.907 3.907 0 0 0-1.334 2.941h1.564c0-.676.292-1.319.8-1.765l-1.03-1.176Zm5.898-5.167-5.898 5.167 1.03 1.176 5.898-5.166-1.03-1.177Zm2.576-.968c-.948 0-1.864.344-2.576.968l1.03 1.177a2.345 2.345 0 0 1 1.546-.581v-1.564Z" mask="url(#f)"/><path fill="#fff" d="M344.305 153.35v-8.037h1.073v8.037h-1.073Zm4.938 0-2.65-3.559h1.26l2.693 3.559h-1.303Zm-4.27-2.891v-.953h2.146c.336 0 .624-.069.865-.208.241-.138.427-.328.559-.569.131-.248.197-.529.197-.843 0-.314-.066-.591-.197-.832a1.429 1.429 0 0 0-.559-.581 1.637 1.637 0 0 0-.865-.219h-2.146v-.941h1.949c.584 0 1.095.087 1.533.262.438.176.777.446 1.018.811.241.365.362.836.362 1.412v.175c0 .577-.124 1.048-.373 1.413a2.13 2.13 0 0 1-1.018.81c-.431.175-.938.263-1.522.263h-1.949Zm9.224 3.088c-.511 0-.952-.088-1.324-.263a2.55 2.55 0 0 1-.909-.69 3.077 3.077 0 0 1-.526-.974 3.74 3.74 0 0 1-.164-1.095v-.197c0-.38.055-.749.164-1.106.117-.358.292-.679.526-.964.233-.292.529-.522.887-.69.365-.175.792-.263 1.281-.263.635 0 1.157.139 1.566.417.416.27.722.62.919 1.051.205.43.307.89.307 1.379v.471h-5.19v-.788h4.424l-.241.427c0-.416-.066-.774-.197-1.073a1.542 1.542 0 0 0-.592-.712c-.263-.168-.595-.252-.996-.252-.416 0-.763.095-1.04.285-.271.19-.475.449-.614.777a3.064 3.064 0 0 0-.197 1.139c0 .416.066.792.197 1.128.139.329.351.591.635.788.285.19.646.285 1.084.285.46 0 .833-.102 1.117-.306.292-.205.468-.442.526-.712h.985c-.08.401-.24.748-.481 1.04a2.322 2.322 0 0 1-.909.668c-.365.153-.778.23-1.238.23Zm6.136-.022c-.767 0-1.362-.164-1.785-.493-.416-.328-.631-.777-.646-1.347h.985c.015.227.128.442.34.647.219.197.588.295 1.106.295.467 0 .825-.091 1.073-.274.248-.189.372-.419.372-.689a.648.648 0 0 0-.274-.559c-.182-.139-.478-.23-.886-.274l-.636-.065c-.554-.059-1.007-.223-1.357-.493-.351-.277-.526-.664-.526-1.161 0-.372.095-.69.285-.952.19-.271.452-.475.788-.614a2.89 2.89 0 0 1 1.161-.219c.657 0 1.19.146 1.599.438.408.292.62.727.635 1.303h-.986c-.007-.233-.117-.43-.328-.591-.205-.168-.511-.252-.92-.252-.409 0-.719.084-.931.252a.777.777 0 0 0-.317.635c0 .219.073.394.219.526.153.131.401.215.744.252l.635.065c.628.066 1.132.241 1.511.526.38.277.57.672.57 1.183 0 .365-.106.689-.318.974a2.052 2.052 0 0 1-.854.657c-.365.153-.785.23-1.259.23Zm6.648.022c-.511 0-.96-.088-1.347-.263a3.095 3.095 0 0 1-.985-.69 3.158 3.158 0 0 1-.603-.974 3.164 3.164 0 0 1-.197-1.095v-.197c0-.373.07-.738.208-1.095a2.91 2.91 0 0 1 .613-.975c.271-.292.599-.522.986-.69a3.185 3.185 0 0 1 1.325-.263c.496 0 .938.088 1.325.263.387.168.715.398.985.69.27.285.475.61.614.975.138.357.208.722.208 1.095v.197c0 .372-.07.737-.208 1.095a2.914 2.914 0 0 1-.603.974 2.96 2.96 0 0 1-.974.69c-.387.175-.836.263-1.347.263Zm0-.942c.438 0 .81-.095 1.117-.284.314-.198.551-.46.712-.789.167-.328.251-.697.251-1.106 0-.416-.084-.788-.251-1.117a1.907 1.907 0 0 0-.723-.777c-.307-.19-.675-.285-1.106-.285-.423 0-.792.095-1.106.285-.314.19-.555.449-.723.777a2.42 2.42 0 0 0-.252 1.117c0 .409.081.778.241 1.106.168.329.405.591.712.789.314.189.69.284 1.128.284Zm4.772.745v-7.994h1.051v7.994h-1.051Zm-.811-7.161v-.833h1.862v.833h-1.862Zm5.126 7.161-1.992-5.847h1.095l1.949 5.847h-1.052Zm.263 0v-.832h1.27v.832h-1.27Zm.504 0 1.697-5.847h1.03l-1.731 5.847h-.996Zm6.48.197c-.511 0-.952-.088-1.324-.263a2.55 2.55 0 0 1-.909-.69 3.077 3.077 0 0 1-.526-.974 3.74 3.74 0 0 1-.164-1.095v-.197c0-.38.055-.749.164-1.106.117-.358.292-.679.526-.964.233-.292.529-.522.887-.69.365-.175.792-.263 1.281-.263.635 0 1.157.139 1.566.417.416.27.722.62.919 1.051.205.43.307.89.307 1.379v.471h-5.19v-.788h4.424l-.241.427c0-.416-.066-.774-.197-1.073a1.542 1.542 0 0 0-.592-.712c-.263-.168-.595-.252-.996-.252-.416 0-.763.095-1.04.285-.271.19-.475.449-.614.777a3.064 3.064 0 0 0-.197 1.139c0 .416.066.792.197 1.128.139.329.351.591.635.788.285.19.646.285 1.084.285.46 0 .833-.102 1.117-.306.292-.205.468-.442.526-.712h.985c-.08.401-.24.748-.481 1.04a2.322 2.322 0 0 1-.909.668c-.365.153-.778.23-1.238.23Z"/><mask id="g" fill="#fff"><path fill-rule="evenodd" d="M30.57 183.804h388.659a6.257 6.257 0 0 1 6.257 6.257V230.581 220.4a6.256 6.256 0 0 1-2.135 4.707l-11.798 10.332a6.25 6.25 0 0 1-2.609 1.365H18.771a6.257 6.257 0 0 1-6.257-6.257v-30.154c0-1.803.778-3.519 2.135-4.707l11.798-10.332a6.258 6.258 0 0 1 4.122-1.55Z" clip-rule="evenodd"/></mask><path fill="#fff" fill-opacity=".05" fill-rule="evenodd" d="M30.57 183.804h388.659a6.257 6.257 0 0 1 6.257 6.257V230.581 220.4a6.256 6.256 0 0 1-2.135 4.707l-11.798 10.332a6.25 6.25 0 0 1-2.609 1.365H18.771a6.257 6.257 0 0 1-6.257-6.257v-30.154c0-1.803.778-3.519 2.135-4.707l11.798-10.332a6.258 6.258 0 0 1 4.122-1.55Z" clip-rule="evenodd"/><path fill="#fff" fill-opacity=".1" d="M425.486 230.581h-.783l1.565.004-.782-.004Zm-2.135-5.474-.515-.588.515.588Zm-11.798 10.332-.515-.588.515.588Zm-2.609 1.365v.782h.096l.093-.023-.189-.759ZM14.649 195.686l-.515-.588.515.588Zm11.798-10.332.515.588-.515-.588Zm392.782-2.332H30.569v1.564h388.66v-1.564Zm7.039 7.039a7.039 7.039 0 0 0-7.039-7.039v1.564a5.475 5.475 0 0 1 5.475 5.475h1.564Zm0 40.486v-40.486h-1.564v40.486h1.564Zm0 .038v-.038h-1.564l-.001.03 1.565.008Zm-1.565-10.185v10.181h1.565V220.4h-1.565Zm-.837 5.295a7.038 7.038 0 0 0 2.402-5.295h-1.565c0 1.578-.68 3.079-1.867 4.119l1.03 1.176Zm-11.798 10.333 11.798-10.333-1.03-1.176-11.798 10.332 1.03 1.177Zm-2.935 1.535a7.037 7.037 0 0 0 2.935-1.535l-1.03-1.177a5.474 5.474 0 0 1-2.283 1.194l.378 1.518Zm-390.362.023h390.173v-1.564H18.771v1.564Zm-7.039-7.039a7.04 7.04 0 0 0 7.04 7.039v-1.564a5.476 5.476 0 0 1-5.476-5.475h-1.564Zm0-30.154v30.154h1.564v-30.154h-1.564Zm2.402-5.295a7.038 7.038 0 0 0-2.402 5.295h1.564c0-1.578.681-3.079 1.868-4.118l-1.03-1.177Zm11.797-10.333-11.797 10.333 1.03 1.177 11.798-10.333-1.03-1.177Zm4.638-1.743a7.039 7.039 0 0 0-4.637 1.743l1.03 1.177a5.476 5.476 0 0 1 3.607-1.356v-1.564Z" mask="url(#g)"/><path fill="#fff" fill-opacity=".65" d="M52.862 202.587c-.402-.318-.881-.753-1.755-.862-.82-.108-1.655.443-2.22.807-.564.365-1.63 1.436-2.072 1.762-.44.326-1.57.628-3.386 1.722-1.818 1.094-8.947 5.688-8.947 5.688l1.856.023-8.274 4.276h.828l-1.191.908s1.052.279 1.933-.28v.256s9.851-3.895 11.753-2.886l-1.16.341c.101 0 1.972.124 1.972.124a2.674 2.674 0 0 0 1.191 1.925c1.129.745 1.152 1.156 1.152 1.156s-.587.241-.587.543c0 0 .866-.264 1.67-.24.51.019 1.016.1 1.508.24 0 0-.062-.326-.843-.543-.781-.217-1.555-1.071-1.934-1.536a2.184 2.184 0 0 1-.317-2.126c.271-.707 1.215-1.095 3.163-2.103 2.297-1.195 2.822-2.08 3.147-2.77.325-.691.804-2.064 1.075-2.709.34-.83.758-1.272 1.106-1.536.348-.264 1.894-.846 1.894-.846s-1.183-1.032-1.562-1.334Z"/><path fill="#fff" fill-opacity=".75" d="m73.565 208.396-3.716-4.267h-1.34l4.243-4.868h1.401l-3.854 4.405-.113-.863 4.906 5.593h-1.527Zm-5.756 0v-9.135h1.226v9.135H67.81Zm10.474.201c-.792 0-1.401-.259-1.827-.776-.425-.517-.638-1.264-.638-2.24v-3.88h1.201v4.118c0 .525.142.938.426 1.238.284.292.667.438 1.151.438.5 0 .91-.158 1.227-.475.317-.325.475-.768.475-1.327v-3.992H81.5v6.695h-.95v-2.865h.15c0 .659-.088 1.218-.263 1.677-.175.45-.438.796-.789 1.038-.342.234-.78.351-1.314.351h-.05Zm7.733 0c-.876 0-1.556-.188-2.04-.563-.475-.376-.721-.889-.738-1.54h1.126c.017.259.146.505.388.739.25.225.672.338 1.264.338.534 0 .943-.105 1.227-.313.283-.217.425-.48.425-.789a.74.74 0 0 0-.313-.638c-.208-.158-.546-.263-1.013-.313l-.726-.075c-.634-.067-1.151-.254-1.552-.563-.4-.317-.6-.759-.6-1.327 0-.425.108-.788.325-1.088a2 2 0 0 1 .9-.701c.385-.167.827-.25 1.327-.25.751 0 1.36.166 1.827.5.468.334.71.83.726 1.489h-1.126c-.008-.267-.134-.492-.376-.675-.233-.192-.583-.288-1.05-.288-.468 0-.822.096-1.064.288a.888.888 0 0 0-.363.725c0 .251.083.451.25.601.175.15.459.246.85.288l.727.075c.717.075 1.293.275 1.727.601.434.317.65.767.65 1.351 0 .417-.12.789-.362 1.114-.234.317-.56.567-.977.751-.417.175-.896.263-1.439.263Zm8.562-.201v-2.002h-.2v-2.315c0-.459-.121-.805-.363-1.039-.234-.233-.58-.35-1.04-.35-.258 0-.525.004-.8.012l-.788.026c-.25.008-.468.02-.651.037v-1.051c.183-.017.375-.029.575-.038.21-.016.422-.025.639-.025.217-.008.425-.012.625-.012.685 0 1.243.083 1.677.25.434.159.755.421.964.788.209.368.313.864.313 1.49v4.229h-.951Zm-2.19.176c-.5 0-.935-.084-1.302-.251a1.98 1.98 0 0 1-.838-.75c-.192-.326-.288-.718-.288-1.177 0-.475.104-.872.313-1.189.217-.317.53-.554.938-.713.41-.167.901-.25 1.477-.25h1.815v.901h-1.865c-.484 0-.855.117-1.114.35a1.16 1.16 0 0 0-.388.901c0 .367.13.663.388.889.259.225.63.338 1.114.338.284 0 .555-.05.813-.151.26-.108.472-.283.639-.525.175-.25.27-.593.287-1.026l.326.475c-.042.476-.159.876-.35 1.202a1.806 1.806 0 0 1-.776.725c-.326.167-.722.251-1.19.251Zm5.346-.176v-6.682h.95v2.866h-.15c0-.651.084-1.202.251-1.652.175-.459.434-.81.776-1.051.342-.242.776-.363 1.301-.363h.05c.526 0 .96.121 1.302.363.35.241.609.592.776 1.051.167.45.25 1.001.25 1.652h-.35c0-.651.087-1.202.262-1.652.176-.459.434-.81.776-1.051.351-.242.789-.363 1.314-.363h.05c.526 0 .964.121 1.314.363.351.241.609.592.776 1.051.175.45.263 1.001.263 1.652v3.816h-1.201v-4.079c0-.542-.134-.96-.401-1.252-.267-.3-.638-.45-1.114-.45-.492 0-.888.158-1.188.475-.301.309-.451.743-.451 1.302v4.004h-1.201v-4.079c0-.542-.134-.96-.401-1.252-.267-.3-.638-.45-1.113-.45-.493 0-.889.158-1.19.475-.3.309-.45.743-.45 1.302v4.004h-1.201Zm16.153 0v-2.002h-.2v-2.315c0-.459-.121-.805-.363-1.039-.234-.233-.58-.35-1.039-.35-.259 0-.526.004-.801.012l-.788.026c-.251.008-.467.02-.651.037v-1.051a12.2 12.2 0 0 1 .576-.038c.208-.016.421-.025.638-.025.217-.008.425-.012.626-.012.684 0 1.243.083 1.677.25.433.159.755.421.963.788.209.368.313.864.313 1.49v4.229h-.951Zm-2.19.176c-.501 0-.935-.084-1.302-.251a1.982 1.982 0 0 1-.838-.75c-.192-.326-.288-.718-.288-1.177 0-.475.104-.872.313-1.189.217-.317.53-.554.939-.713.408-.167.901-.25 1.476-.25h1.815v.901h-1.865c-.484 0-.855.117-1.114.35a1.162 1.162 0 0 0-.388.901c0 .367.13.663.388.889.259.225.63.338 1.114.338.284 0 .555-.05.814-.151a1.44 1.44 0 0 0 .638-.525c.175-.25.271-.593.288-1.026l.325.475c-.042.476-.158.876-.35 1.202a1.813 1.813 0 0 1-.776.725c-.326.167-.722.251-1.189.251Zm8.193-.176v-6.682h.951v2.866h-.15c0-.659.088-1.214.263-1.665.184-.459.459-.805.826-1.038.367-.242.83-.363 1.389-.363h.05c.843 0 1.464.262 1.865.788.409.526.613 1.285.613 2.278v3.816h-1.201v-4.067c0-.517-.146-.93-.438-1.239-.292-.317-.693-.475-1.202-.475-.525 0-.951.163-1.276.488-.326.325-.488.759-.488 1.301v3.992h-1.202Zm10.846.226c-.584 0-1.089-.1-1.514-.301a2.931 2.931 0 0 1-1.039-.788 3.527 3.527 0 0 1-.601-1.114 4.257 4.257 0 0 1-.187-1.251v-.225c0-.434.062-.856.187-1.264.134-.409.334-.776.601-1.102a2.806 2.806 0 0 1 1.014-.788c.417-.2.905-.3 1.464-.3.726 0 1.322.158 1.789.475.476.309.826.709 1.052 1.202.233.492.35 1.017.35 1.576v.538h-5.932v-.901h5.056l-.275.488c0-.475-.075-.884-.226-1.226a1.76 1.76 0 0 0-.675-.813c-.301-.192-.68-.288-1.139-.288-.476 0-.872.108-1.189.325a2.015 2.015 0 0 0-.701.889c-.15.375-.225.809-.225 1.301 0 .476.075.905.225 1.289.159.376.401.676.726.901.325.217.738.326 1.239.326.526 0 .951-.117 1.276-.351.334-.233.534-.505.601-.813h1.126a2.647 2.647 0 0 1-.55 1.189 2.667 2.667 0 0 1-1.039.763 3.622 3.622 0 0 1-1.414.263Zm7.425-.15c-.501 0-.935-.071-1.302-.213a1.653 1.653 0 0 1-.838-.726c-.192-.35-.288-.822-.288-1.414v-6.432h1.151v6.582c0 .359.096.638.288.839.2.191.48.287.839.287h1.176v1.077h-1.026Zm-3.579-5.857v-.901h4.605v.901h-4.605Zm8.256 5.781 1.352-6.457h1.627l1.576 6.457h-1.026l-1.576-6.432h.4l-1.364 6.432h-.989Zm-.613 0v-.951h1.389v.951h-1.389Zm-.275 0-1.89-6.682h1.151l1.84 6.682h-1.101Zm4.668 0v-.951h1.389v.951h-1.389Zm.563 0 1.602-6.682h1.088l-1.639 6.682h-1.051Zm7.269.226c-.584 0-1.097-.1-1.539-.301a3.545 3.545 0 0 1-1.126-.788 3.6 3.6 0 0 1-.689-1.114 3.607 3.607 0 0 1-.225-1.251v-.225c0-.426.079-.843.238-1.252a3.31 3.31 0 0 1 .701-1.114 3.308 3.308 0 0 1 1.126-.788c.442-.2.947-.3 1.514-.3.567 0 1.072.1 1.514.3.443.192.818.455 1.127.788.308.326.542.697.7 1.114.159.409.238.826.238 1.252v.225c0 .425-.079.842-.238 1.251-.15.409-.379.78-.688 1.114-.3.325-.671.588-1.114.788-.442.201-.955.301-1.539.301Zm0-1.076c.501 0 .926-.109 1.277-.326.358-.225.63-.525.813-.901.192-.375.288-.797.288-1.264 0-.475-.096-.901-.288-1.276a2.172 2.172 0 0 0-.826-.889c-.35-.217-.772-.325-1.264-.325-.484 0-.905.108-1.264.325a2.172 2.172 0 0 0-.826.889 2.762 2.762 0 0 0-.288 1.276c0 .467.092.889.276 1.264.192.376.463.676.813.901.359.217.789.326 1.289.326Zm5.379.85v-6.682h.951v2.753h-.05c0-.976.212-1.689.638-2.14.434-.459 1.08-.688 1.94-.688h.225v1.076h-.426c-.667 0-1.18.179-1.539.538-.359.351-.538.859-.538 1.527v3.616h-1.201Zm9.738 0-2.516-3.116h-1.101l3.066-3.566h1.264l-2.778 3.216.087-.638 3.367 4.104h-1.389Zm-4.606 0v-9.135h1.202v9.135h-1.202Z"/><path fill="#fff" fill-opacity=".5" d="M67.477 222.396v-6.851h1.502l3.482 6.026h.3l-.188.168v-6.194h.883v6.851h-1.52l-3.483-6.025h-.3l.188-.169v6.194h-.864Zm10.143.169c-.438 0-.823-.075-1.155-.225a2.66 2.66 0 0 1-.845-.591 2.702 2.702 0 0 1-.516-.835 2.707 2.707 0 0 1-.169-.939v-.169c0-.319.06-.632.179-.939.118-.312.294-.591.525-.835.232-.25.513-.447.845-.591.332-.15.71-.225 1.136-.225.425 0 .804.075 1.135.225.332.144.613.341.845.591.232.244.407.523.526.835.118.307.178.62.178.939v.169c0 .319-.06.632-.178.939a2.484 2.484 0 0 1-.517.835 2.55 2.55 0 0 1-.835.591c-.332.15-.716.225-1.154.225Zm0-.807c.375 0 .694-.081.957-.244.269-.169.472-.394.61-.676a2.05 2.05 0 0 0 .216-.948c0-.356-.072-.675-.216-.957a1.63 1.63 0 0 0-.62-.666c-.262-.163-.578-.244-.947-.244-.363 0-.68.081-.948.244a1.63 1.63 0 0 0-.62.666 2.074 2.074 0 0 0-.216.957c0 .351.07.667.207.948.144.282.347.507.61.676.269.163.591.244.967.244Zm6.126.807c-.356 0-.685-.065-.985-.197a2.405 2.405 0 0 1-.788-.553 2.683 2.683 0 0 1-.517-.826 2.832 2.832 0 0 1-.178-1.014v-.169c0-.357.06-.691.178-1.004.12-.313.285-.588.498-.826a2.354 2.354 0 0 1 1.764-.76c.382 0 .73.081 1.042.244.313.156.57.403.77.741.2.338.313.776.338 1.314l-.376-.601v-3.369h.901v6.851h-.713v-2.224h.263c-.025.569-.144 1.032-.357 1.389a1.978 1.978 0 0 1-.807.77c-.32.156-.663.234-1.033.234Zm.122-.788c.307 0 .586-.069.836-.206.25-.138.45-.335.6-.592.15-.263.226-.569.226-.92v-.431c0-.344-.079-.635-.235-.873a1.448 1.448 0 0 0-.61-.554 1.754 1.754 0 0 0-.826-.197c-.332 0-.626.078-.882.235-.25.156-.448.375-.592.657a2.238 2.238 0 0 0-.206.994c0 .382.072.717.216 1.005.144.281.344.5.6.657.257.15.548.225.873.225Zm6.387.788c-.438 0-.817-.075-1.136-.225a2.197 2.197 0 0 1-.779-.591c-.2-.25-.35-.529-.45-.835a3.196 3.196 0 0 1-.141-.939v-.169c0-.325.047-.641.14-.948.1-.307.251-.582.451-.826.2-.25.454-.447.76-.591.313-.15.68-.225 1.099-.225.544 0 .991.118 1.342.356.356.232.62.532.788.901.175.369.263.764.263 1.183v.403h-4.449v-.675h3.792l-.207.366c0-.357-.056-.664-.168-.92a1.32 1.32 0 0 0-.507-.61c-.225-.144-.51-.216-.854-.216-.357 0-.654.081-.892.244a1.515 1.515 0 0 0-.526.666 2.617 2.617 0 0 0-.169.976c0 .357.057.679.17.967.118.282.3.507.544.676.244.163.553.244.929.244.394 0 .713-.088.957-.263.25-.175.4-.378.45-.61h.845a1.989 1.989 0 0 1-.413.892c-.206.25-.466.441-.778.572a2.705 2.705 0 0 1-1.061.197Zm5.996-.169v-5.011h.901v5.011h-.901Zm-.77-4.298v-.713h1.671v.713h-1.67Zm1.023-1.521c-.2 0-.35-.053-.45-.159a.589.589 0 0 1-.14-.404c0-.162.046-.297.14-.403.1-.107.25-.16.45-.16s.348.053.441.16c.1.106.15.241.15.403 0 .163-.05.297-.15.404-.093.106-.24.159-.44.159Zm4.033 5.97c-.657 0-1.167-.141-1.53-.423-.357-.281-.541-.666-.554-1.154h.845c.012.194.11.378.29.554.188.169.504.253.949.253.4 0 .707-.078.919-.235.213-.162.32-.359.32-.591a.558.558 0 0 0-.235-.479c-.157-.118-.41-.197-.76-.234l-.545-.057c-.475-.05-.863-.19-1.163-.422-.3-.238-.451-.569-.451-.995 0-.319.081-.591.244-.816.163-.232.388-.407.676-.526.288-.125.619-.188.995-.188.563 0 1.02.125 1.37.376.35.25.532.622.544 1.117h-.844c-.007-.201-.101-.37-.282-.507-.175-.144-.438-.216-.788-.216-.351 0-.617.072-.798.216a.666.666 0 0 0-.272.544c0 .188.062.338.187.451.132.112.345.184.639.216l.544.056c.538.056.97.206 1.295.45.326.238.488.576.488 1.014 0 .313-.09.591-.272.835a1.77 1.77 0 0 1-.732.564 2.776 2.776 0 0 1-1.079.197Zm7.261 0c-.594 0-1.051-.194-1.37-.582-.319-.388-.479-.948-.479-1.68v-2.91h.901v3.088c0 .394.107.704.319.929.213.219.501.329.864.329.375 0 .682-.119.92-.357.237-.244.356-.576.356-.995v-2.994h.901v5.021h-.713v-2.149h.113c0 .494-.066.914-.198 1.258a1.634 1.634 0 0 1-.591.779c-.256.175-.585.263-.985.263h-.038Zm4.157-.151v-5.011h.714v2.149h-.113c0-.494.066-.911.197-1.248.138-.345.344-.604.62-.779.275-.182.622-.273 1.041-.273h.038c.632 0 1.098.197 1.398.592.307.394.46.963.46 1.708v2.862h-.901v-3.05c0-.388-.109-.698-.328-.929-.219-.238-.52-.357-.901-.357-.394 0-.714.122-.958.366s-.366.57-.366.976v2.994h-.901Zm9.035 0v-1.501h-.15v-1.737c0-.344-.09-.603-.272-.779-.175-.175-.435-.262-.779-.262-.194 0-.394.003-.601.009l-.591.019c-.188.006-.35.015-.488.028v-.788a9.2 9.2 0 0 1 .432-.029c.156-.012.316-.018.478-.018.163-.007.32-.01.47-.01.513 0 .932.063 1.257.188.326.119.567.316.723.591.157.276.235.648.235 1.117v3.172h-.714Zm-1.642.132c-.375 0-.701-.063-.976-.188a1.483 1.483 0 0 1-.629-.563c-.144-.244-.216-.538-.216-.882 0-.357.078-.654.235-.892a1.46 1.46 0 0 1 .704-.535c.306-.125.675-.188 1.107-.188h1.361v.676h-1.398c-.363 0-.642.088-.836.263a.868.868 0 0 0-.291.676.84.84 0 0 0 .291.666c.194.169.473.254.836.254.212 0 .416-.038.61-.113a1.08 1.08 0 0 0 .478-.394c.132-.188.204-.445.216-.77l.244.357a2.133 2.133 0 0 1-.262.901 1.36 1.36 0 0 1-.582.544c-.244.125-.542.188-.892.188Zm5.061-.132-1.708-5.011h.938l1.671 5.011h-.901Zm.225 0v-.713h1.089v.713h-1.089Zm.432 0 1.455-5.011h.882l-1.483 5.011h-.854Zm6.511 0v-1.501h-.15v-1.737c0-.344-.091-.603-.272-.779-.176-.175-.435-.262-.779-.262-.194 0-.395.003-.601.009l-.591.019a8.076 8.076 0 0 0-.489.028v-.788a9.2 9.2 0 0 1 .432-.029 6.27 6.27 0 0 1 .479-.018c.163-.007.319-.01.469-.01.513 0 .932.063 1.258.188.325.119.566.316.723.591.156.276.234.648.234 1.117v3.172h-.713Zm-1.643.132c-.375 0-.7-.063-.976-.188a1.489 1.489 0 0 1-.629-.563c-.143-.244-.215-.538-.215-.882 0-.357.078-.654.234-.892a1.47 1.47 0 0 1 .704-.535c.307-.125.676-.188 1.108-.188h1.361v.676h-1.399c-.363 0-.641.088-.835.263a.868.868 0 0 0-.291.676.84.84 0 0 0 .291.666c.194.169.472.254.835.254.213 0 .416-.038.61-.113.194-.081.354-.213.479-.394.131-.188.203-.445.216-.77l.244.357c-.032.356-.119.657-.263.901a1.36 1.36 0 0 1-.582.544c-.244.125-.541.188-.892.188Zm4.254-.132v-5.011h.901v5.011h-.901Zm-.77-4.298v-.713h1.671v.713h-1.671Zm1.023-1.521c-.2 0-.35-.053-.45-.159a.589.589 0 0 1-.141-.404c0-.162.047-.297.141-.403.1-.107.25-.16.45-.16.201 0 .348.053.441.16a.561.561 0 0 1 .151.403c0 .163-.05.297-.151.404-.093.106-.24.159-.441.159Zm2.446 5.819v-6.851h.901v6.851h-.901Zm-.694-6.138v-.713h1.595v.713h-1.595Zm6.355 6.138v-1.501h-.15v-1.737c0-.344-.091-.603-.272-.779-.175-.175-.435-.262-.779-.262-.194 0-.394.003-.601.009l-.591.019c-.188.006-.35.015-.488.028v-.788a9.11 9.11 0 0 1 .432-.029c.156-.012.316-.018.478-.018.163-.007.319-.01.47-.01.513 0 .932.063 1.257.188.326.119.567.316.723.591.156.276.235.648.235 1.117v3.172h-.714Zm-1.642.132a2.34 2.34 0 0 1-.976-.188 1.483 1.483 0 0 1-.629-.563c-.144-.244-.216-.538-.216-.882 0-.357.078-.654.235-.892a1.46 1.46 0 0 1 .704-.535c.306-.125.675-.188 1.107-.188h1.361v.676h-1.399c-.362 0-.641.088-.835.263a.868.868 0 0 0-.291.676.84.84 0 0 0 .291.666c.194.169.473.254.835.254.213 0 .417-.038.611-.113a1.08 1.08 0 0 0 .478-.394c.132-.188.204-.445.216-.77l.244.357a2.118 2.118 0 0 1-.263.901 1.349 1.349 0 0 1-.582.544c-.244.125-.541.188-.891.188Zm6.656.037c-.413 0-.782-.09-1.107-.272a1.96 1.96 0 0 1-.761-.788c-.187-.351-.291-.77-.309-1.258h.244v2.149h-.714v-6.851h.901v3.332l-.319.685c.025-.544.135-.989.329-1.333s.447-.597.76-.76a2.209 2.209 0 0 1 1.051-.253c.357 0 .682.068.976.206.294.131.548.316.761.554.212.231.375.504.488.816.112.307.169.639.169.995v.169c0 .357-.06.692-.179 1.004a2.502 2.502 0 0 1-.497.836 2.388 2.388 0 0 1-.789.563c-.3.138-.635.206-1.004.206Zm-.103-.788c.338 0 .632-.081.882-.244a1.64 1.64 0 0 0 .582-.666c.138-.288.206-.62.206-.995 0-.376-.071-.704-.215-.986a1.509 1.509 0 0 0-.582-.647 1.611 1.611 0 0 0-.873-.235c-.301 0-.579.069-.836.206a1.545 1.545 0 0 0-.619.582c-.15.251-.225.554-.225.911v.432c0 .344.078.638.234.882.157.244.363.432.62.563.256.131.532.197.826.197Zm3.984.619v-6.851h.901v6.851h-.901Zm-.695-6.138v-.713h1.596v.713h-1.596Zm5.454 6.307c-.438 0-.816-.075-1.135-.225a2.197 2.197 0 0 1-.779-.591c-.2-.25-.351-.529-.451-.835a3.19 3.19 0 0 1-.141-.939v-.169c0-.325.047-.641.141-.948.1-.307.251-.582.451-.826.2-.25.453-.447.76-.591.313-.15.679-.225 1.098-.225.544 0 .992.118 1.342.356.357.232.62.532.789.901.175.369.262.764.262 1.183v.403h-4.448v-.675h3.791l-.206.366a2.27 2.27 0 0 0-.169-.92 1.323 1.323 0 0 0-.507-.61c-.225-.144-.51-.216-.854-.216-.357 0-.654.081-.892.244a1.518 1.518 0 0 0-.525.666 2.609 2.609 0 0 0-.169.976c0 .357.056.679.169.967.119.282.3.507.544.676.244.163.554.244.929.244.395 0 .714-.088.958-.263.25-.175.4-.378.45-.61h.845a1.985 1.985 0 0 1-.413.892c-.206.25-.466.441-.779.572a2.705 2.705 0 0 1-1.061.197Z"/><mask id="h" fill="#fff"><path fill-rule="evenodd" d="M326.576 196.318h83.267a3.128 3.128 0 0 1 3.128 3.129v16.758a3.129 3.129 0 0 1-1.067 2.329l-5.898 5.166c-.57.5-1.302.775-2.061.775h5.925H320.678a3.128 3.128 0 0 1-3.128-3.128v-16.734c0-.902.389-1.76 1.067-2.354l5.898-5.166a3.13 3.13 0 0 1 2.061-.775Z" clip-rule="evenodd"/></mask><path fill="#E07" fill-rule="evenodd" d="M326.576 196.318h83.267a3.128 3.128 0 0 1 3.128 3.129v16.758a3.129 3.129 0 0 1-1.067 2.329l-5.898 5.166c-.57.5-1.302.775-2.061.775h5.925H320.678a3.128 3.128 0 0 1-3.128-3.128v-16.734c0-.902.389-1.76 1.067-2.354l5.898-5.166a3.13 3.13 0 0 1 2.061-.775Z" clip-rule="evenodd"/><path fill="#fff" fill-opacity=".1" d="m412.971 216.205.782.007v-.007h-.782Zm-1.067 2.329.516.588-.516-.588Zm-5.898 5.166-.515-.588.515.588Zm3.864.775.007.782-.007-1.564v.782Zm-91.253-22.216.515.589-.515-.589Zm5.898-5.166-.515-.588.515.588Zm85.328-1.557h-83.267v1.564h83.267v-1.564Zm3.91 3.911a3.91 3.91 0 0 0-3.91-3.911v1.564a2.346 2.346 0 0 1 2.346 2.347h1.564Zm0 16.758v-16.758h-1.564v16.758h1.564Zm-1.333 2.917a3.912 3.912 0 0 0 1.333-2.91l-1.564-.013a2.346 2.346 0 0 1-.8 1.747l1.031 1.176Zm-5.898 5.167 5.898-5.167-1.031-1.176-5.898 5.166 1.031 1.177Zm-2.577.968c.948 0 1.864-.344 2.577-.968l-1.031-1.177a2.35 2.35 0 0 1-1.546.581v1.564Zm5.925-1.564h-5.925v1.564h5.925v-1.564Zm-.027 1.564h.034l-.014-1.564h-.02v1.564Zm-89.165 0h89.165v-1.564h-89.165v1.564Zm-3.91-3.91a3.91 3.91 0 0 0 3.91 3.91v-1.564a2.346 2.346 0 0 1-2.346-2.346h-1.564Zm0-16.734v16.734h1.564v-16.734h-1.564Zm1.334-2.942a3.91 3.91 0 0 0-1.334 2.942h1.564c0-.677.292-1.32.8-1.765l-1.03-1.177Zm5.898-5.166-5.898 5.166 1.03 1.177 5.898-5.167-1.03-1.176Zm2.576-.969c-.948 0-1.864.344-2.576.969l1.03 1.176a2.35 2.35 0 0 1 1.546-.581v-1.564Z" mask="url(#h)"/><path fill="#fff" d="M344.305 214.357v-8.037h1.073v8.037h-1.073Zm4.938 0-2.65-3.559h1.26l2.693 3.559h-1.303Zm-4.27-2.891v-.952h2.146c.336 0 .624-.07.865-.208.241-.139.427-.329.559-.57.131-.248.197-.529.197-.843 0-.314-.066-.591-.197-.832a1.426 1.426 0 0 0-.559-.58 1.637 1.637 0 0 0-.865-.219h-2.146v-.942h1.949c.584 0 1.095.087 1.533.263a2.13 2.13 0 0 1 1.018.81c.241.365.362.836.362 1.413v.175c0 .576-.124 1.047-.373 1.412-.241.365-.58.635-1.018.811-.431.175-.938.262-1.522.262h-1.949Zm9.224 3.088c-.511 0-.952-.087-1.324-.263a2.56 2.56 0 0 1-.909-.689 3.071 3.071 0 0 1-.526-.975 3.74 3.74 0 0 1-.164-1.095v-.197c0-.38.055-.748.164-1.106.117-.358.292-.679.526-.964a2.43 2.43 0 0 1 .887-.689c.365-.176.792-.263 1.281-.263.635 0 1.157.138 1.566.416.416.27.722.62.919 1.051.205.431.307.891.307 1.38v.471h-5.19v-.789h4.424l-.241.427c0-.416-.066-.774-.197-1.073a1.547 1.547 0 0 0-.592-.712c-.263-.167-.595-.251-.996-.251-.416 0-.763.094-1.04.284a1.76 1.76 0 0 0-.614.778 3.057 3.057 0 0 0-.197 1.139c0 .416.066.792.197 1.127.139.329.351.592.635.789.285.19.646.284 1.084.284.46 0 .833-.102 1.117-.306.292-.205.468-.442.526-.712h.985a2.31 2.31 0 0 1-.481 1.04 2.322 2.322 0 0 1-.909.668c-.365.154-.778.23-1.238.23Zm6.136-.022c-.767 0-1.362-.164-1.785-.492-.416-.329-.631-.778-.646-1.347h.985c.015.226.128.441.34.646.219.197.588.295 1.106.295.467 0 .825-.091 1.073-.273.248-.19.372-.42.372-.69a.648.648 0 0 0-.274-.559c-.182-.138-.478-.23-.886-.273l-.636-.066c-.554-.058-1.007-.223-1.357-.493-.351-.277-.526-.664-.526-1.16 0-.373.095-.69.285-.953.19-.27.452-.475.788-.613a2.89 2.89 0 0 1 1.161-.219c.657 0 1.19.146 1.599.438.408.292.62.726.635 1.303h-.986c-.007-.234-.117-.431-.328-.592-.205-.167-.511-.251-.92-.251-.409 0-.719.084-.931.251a.778.778 0 0 0-.317.636.67.67 0 0 0 .219.525c.153.132.401.215.744.252l.635.066c.628.065 1.132.241 1.511.525.38.278.57.672.57 1.183 0 .365-.106.69-.318.974a2.052 2.052 0 0 1-.854.657c-.365.154-.785.23-1.259.23Zm6.648.022c-.511 0-.96-.087-1.347-.263a3.108 3.108 0 0 1-.985-.689 3.151 3.151 0 0 1-.603-.975 3.164 3.164 0 0 1-.197-1.095v-.197c0-.372.07-.737.208-1.095a2.91 2.91 0 0 1 .613-.975c.271-.292.599-.522.986-.689a3.17 3.17 0 0 1 1.325-.263c.496 0 .938.087 1.325.263.387.167.715.397.985.689.27.285.475.61.614.975.138.358.208.723.208 1.095v.197c0 .372-.07.737-.208 1.095a2.909 2.909 0 0 1-.603.975 2.972 2.972 0 0 1-.974.689c-.387.176-.836.263-1.347.263Zm0-.941c.438 0 .81-.095 1.117-.285.314-.197.551-.46.712-.789.167-.328.251-.697.251-1.105 0-.417-.084-.789-.251-1.117a1.903 1.903 0 0 0-.723-.778c-.307-.19-.675-.285-1.106-.285-.423 0-.792.095-1.106.285-.314.19-.555.449-.723.778-.168.328-.252.7-.252 1.117 0 .408.081.777.241 1.105a2 2 0 0 0 .712.789c.314.19.69.285 1.128.285Zm4.772.744v-7.993h1.051v7.993h-1.051Zm-.811-7.161v-.832h1.862v.832h-1.862Zm5.126 7.161-1.992-5.847h1.095l1.949 5.847h-1.052Zm.263 0v-.832h1.27v.832h-1.27Zm.504 0 1.697-5.847h1.03l-1.731 5.847h-.996Zm6.48.197c-.511 0-.952-.087-1.324-.263a2.56 2.56 0 0 1-.909-.689 3.071 3.071 0 0 1-.526-.975 3.74 3.74 0 0 1-.164-1.095v-.197c0-.38.055-.748.164-1.106.117-.358.292-.679.526-.964a2.43 2.43 0 0 1 .887-.689c.365-.176.792-.263 1.281-.263.635 0 1.157.138 1.566.416.416.27.722.62.919 1.051.205.431.307.891.307 1.38v.471h-5.19v-.789h4.424l-.241.427c0-.416-.066-.774-.197-1.073a1.547 1.547 0 0 0-.592-.712c-.263-.167-.595-.251-.996-.251-.416 0-.763.094-1.04.284a1.76 1.76 0 0 0-.614.778 3.057 3.057 0 0 0-.197 1.139c0 .416.066.792.197 1.127.139.329.351.592.635.789.285.19.646.284 1.084.284.46 0 .833-.102 1.117-.306.292-.205.468-.442.526-.712h.985a2.31 2.31 0 0 1-.481 1.04 2.322 2.322 0 0 1-.909.668c-.365.154-.778.23-1.238.23Z"/><mask id="i" fill="#fff"><path fill-rule="evenodd" d="M30.57 244.811h388.659a6.257 6.257 0 0 1 6.257 6.257V291.588v-10.181a6.256 6.256 0 0 1-2.135 4.707l-11.798 10.332a6.25 6.25 0 0 1-2.609 1.365H18.771a6.257 6.257 0 0 1-6.257-6.257V261.4c0-1.803.778-3.519 2.135-4.707l11.798-10.332a6.258 6.258 0 0 1 4.122-1.55Z" clip-rule="evenodd"/></mask><path fill="#fff" fill-opacity=".05" fill-rule="evenodd" d="M30.57 244.811h388.659a6.257 6.257 0 0 1 6.257 6.257V291.588v-10.181a6.256 6.256 0 0 1-2.135 4.707l-11.798 10.332a6.25 6.25 0 0 1-2.609 1.365H18.771a6.257 6.257 0 0 1-6.257-6.257V261.4c0-1.803.778-3.519 2.135-4.707l11.798-10.332a6.258 6.258 0 0 1 4.122-1.55Z" clip-rule="evenodd"/><path fill="#fff" fill-opacity=".1" d="M425.486 291.588h-.783l1.565.004-.782-.004Zm-2.135-5.474-.515-.588.515.588Zm-11.798 10.332-.515-.588.515.588Zm-2.609 1.365v.782h.096l.093-.023-.189-.759ZM14.649 256.693l-.515-.588.515.588Zm11.798-10.332.515.588-.515-.588Zm392.782-2.332H30.569v1.564h388.66v-1.564Zm7.039 7.039a7.039 7.039 0 0 0-7.039-7.039v1.564a5.475 5.475 0 0 1 5.475 5.475h1.564Zm0 40.486v-40.486h-1.564v40.486h1.564Zm0 .038v-.038h-1.564l-.001.03 1.565.008Zm-1.565-10.185v10.181h1.565v-10.181h-1.565Zm-.837 5.295a7.038 7.038 0 0 0 2.402-5.295h-1.565c0 1.578-.68 3.079-1.867 4.119l1.03 1.176Zm-11.798 10.333 11.798-10.333-1.03-1.176-11.798 10.332 1.03 1.177Zm-2.935 1.535a7.037 7.037 0 0 0 2.935-1.535l-1.03-1.177a5.474 5.474 0 0 1-2.283 1.194l.378 1.518Zm-390.362.023h390.173v-1.564H18.771v1.564Zm-7.039-7.039a7.04 7.04 0 0 0 7.04 7.039v-1.564a5.476 5.476 0 0 1-5.476-5.475h-1.564Zm0-30.154v30.154h1.564V261.4h-1.564Zm2.402-5.295a7.038 7.038 0 0 0-2.402 5.295h1.564c0-1.578.681-3.079 1.868-4.118l-1.03-1.177Zm11.797-10.333-11.797 10.333 1.03 1.177 11.798-10.333-1.03-1.177Zm4.638-1.743a7.039 7.039 0 0 0-4.637 1.743l1.03 1.177a5.476 5.476 0 0 1 3.607-1.356v-1.564Z" mask="url(#i)"/><path fill="#fff" fill-opacity=".65" d="M40.868 258.042a10.264 10.264 0 0 0-7.192 2.927 9.901 9.901 0 0 0-2.8 8.947l1.314-.883c2.31-1.556 6.057-1.556 8.368 0l1.38.928.746.504c2.082 1.402 5.456 1.402 7.538 0l.613-.412a9.83 9.83 0 0 0-.088-4.391 9.938 9.938 0 0 0-1.994-3.931 10.167 10.167 0 0 0-3.516-2.713 10.328 10.328 0 0 0-4.36-.971l-.01-.005Z"/><path fill="#fff" fill-opacity=".65" d="M46.584 274.037c-1.532 0-2.998-.408-4.101-1.152l-2.124-1.43c-1.017-.687-2.383-1.065-3.843-1.065s-2.826.376-3.842 1.065l-1.374.924a.6.6 0 0 1-.822-.157.58.58 0 0 1 .147-.81l1.374-.924c1.215-.815 2.818-1.269 4.517-1.269 1.7 0 3.302.45 4.517 1.269l2.124 1.43a6.655 6.655 0 0 0 3.427.948c1.21 0 2.395-.328 3.427-.948l.807-.544a.607.607 0 0 1 .83.153.577.577 0 0 1-.156.814l-.807.544c-1.108.745-2.568 1.152-4.1 1.152Z"/><path fill="#fff" fill-opacity=".65" d="M36.472 278.233v-5.645a2.194 2.194 0 0 1 .016-.356.636.636 0 0 1 .212-.403.654.654 0 0 1 .43-.161.63.63 0 0 1 .415.168.61.61 0 0 1 .194.396c.025.196.032.394.022.591v11.257c-.035.418-.301.693-.66.685-.358-.007-.616-.293-.618-.717v-3.752l-.011-2.063ZM35.264 275.392v2.805c0 .48-.261.798-.631.787-.37-.011-.65-.335-.652-.793v-5.609c0-.491.292-.822.671-.803.38.018.605.316.607.807.006.935.005 1.871.005 2.806ZM38.974 275.388v-1.97c0-.457.247-.753.615-.753.367 0 .651.305.654.736.015 1.342.015 2.684 0 4.025 0 .457-.276.732-.65.728-.375-.004-.62-.284-.623-.753v-2.014l.004.001ZM31.491 275.798v-1.97c0-.457.248-.753.616-.753.367 0 .65.305.654.736.013 1.342.013 2.684 0 4.025 0 .457-.276.733-.65.729-.376-.005-.623-.284-.623-.753v-2.016l.003.002ZM42.094 274.12h-.002a.624.624 0 0 0-.63.619v1.073c0 .342.282.619.63.619h.002c.348 0 .63-.277.63-.619v-1.073a.625.625 0 0 0-.63-.619ZM44.592 275.059h-.002a.624.624 0 0 0-.63.619v6.016c0 .342.282.619.63.619h.002c.348 0 .63-.277.63-.619v-6.016a.625.625 0 0 0-.63-.619ZM47.072 275.292h-.002a.624.624 0 0 0-.63.619v5.113c0 .342.282.619.63.619h.002c.348 0 .63-.277.63-.619v-5.113a.624.624 0 0 0-.63-.619ZM49.588 274.709h-.002a.624.624 0 0 0-.63.618v2.206c0 .342.282.619.63.619h.002c.348 0 .63-.277.63-.619v-2.206a.624.624 0 0 0-.63-.618Z"/><path fill="#fff" fill-opacity=".75" d="M67.809 269.404v-9.136h1.627l2.703 6.095h.2l2.69-6.095h1.64v9.136h-1.227v-7.797l.088.025-2.59 5.882h-1.502l-2.603-5.882.1-.025v7.797h-1.126Zm14.415.225c-.584 0-1.097-.1-1.54-.301a3.552 3.552 0 0 1-1.125-.788c-.3-.334-.53-.705-.689-1.114a3.601 3.601 0 0 1-.225-1.251v-.225c0-.426.08-.843.238-1.252.158-.417.392-.788.7-1.114a3.314 3.314 0 0 1 1.127-.788c.442-.2.947-.3 1.514-.3.567 0 1.072.1 1.514.3.443.192.818.455 1.127.788.308.326.542.697.7 1.114.159.409.238.826.238 1.252v.225c0 .425-.079.843-.237 1.251-.15.409-.38.78-.689 1.114-.3.325-.671.588-1.114.788-.442.201-.955.301-1.539.301Zm0-1.076c.5 0 .926-.109 1.277-.326.358-.225.63-.525.813-.901.192-.375.288-.797.288-1.264 0-.475-.096-.901-.288-1.276a2.173 2.173 0 0 0-.826-.889c-.35-.217-.772-.325-1.264-.325-.484 0-.905.108-1.264.325a2.173 2.173 0 0 0-.826.889 2.763 2.763 0 0 0-.287 1.276c0 .467.091.889.275 1.264.192.376.463.676.813.901.359.217.789.326 1.29.326Zm8.457 1.076c-.584 0-1.097-.1-1.54-.301a3.553 3.553 0 0 1-1.126-.788 3.6 3.6 0 0 1-.688-1.114 3.599 3.599 0 0 1-.225-1.251v-.225c0-.426.08-.843.238-1.252.158-.417.392-.788.7-1.114a3.315 3.315 0 0 1 1.127-.788c.442-.2.947-.3 1.514-.3.567 0 1.072.1 1.514.3.443.192.818.455 1.127.788.308.326.542.697.7 1.114.159.409.238.826.238 1.252v.225c0 .425-.08.843-.238 1.251-.15.409-.38.78-.688 1.114-.3.325-.672.588-1.114.788-.442.201-.955.301-1.539.301Zm0-1.076c.5 0 .926-.109 1.276-.326.36-.225.63-.525.814-.901.192-.375.288-.797.288-1.264 0-.475-.096-.901-.288-1.276a2.173 2.173 0 0 0-.826-.889c-.35-.217-.772-.325-1.264-.325-.484 0-.905.108-1.264.325a2.173 2.173 0 0 0-.826.889 2.763 2.763 0 0 0-.288 1.276c0 .467.092.889.276 1.264.192.376.463.676.813.901.359.217.788.326 1.29.326Zm5.379.851v-6.683h.95v2.866h-.15c0-.659.088-1.214.263-1.665.184-.459.46-.805.826-1.038.367-.242.83-.363 1.39-.363h.05c.842 0 1.463.263 1.864.788.409.526.613 1.285.613 2.278v3.817h-1.201v-4.068c0-.517-.146-.93-.438-1.238-.292-.318-.693-.476-1.202-.476-.525 0-.95.163-1.276.488-.325.325-.488.759-.488 1.302v3.992H96.06Zm8.004 0v-6.683h.951v2.753h-.05c0-.976.213-1.689.638-2.14.434-.459 1.081-.688 1.94-.688h.225v1.076h-.425c-.667 0-1.181.179-1.539.538-.359.351-.538.86-.538 1.527v3.617h-1.202Zm5.458 0v-6.683h1.202v6.683h-1.202Zm-1.026-5.732v-.951h2.228v.951h-2.228Zm1.364-2.027c-.267 0-.467-.071-.6-.213a.78.78 0 0 1-.188-.538.78.78 0 0 1 .188-.538c.133-.142.333-.213.6-.213.267 0 .463.071.588.213a.752.752 0 0 1 .201.538.752.752 0 0 1-.201.538c-.125.142-.321.213-.588.213Zm4.613 7.759-2.277-6.683h1.251l2.228 6.683h-1.202Zm.301 0v-.952h1.451v.952h-1.451Zm.575 0 1.94-6.683h1.176l-1.977 6.683h-1.139Zm7.407.225c-.584 0-1.089-.1-1.515-.301a2.936 2.936 0 0 1-1.038-.788 3.507 3.507 0 0 1-.601-1.114 4.253 4.253 0 0 1-.188-1.251v-.225c0-.434.063-.856.188-1.264.133-.409.334-.776.601-1.102a2.811 2.811 0 0 1 1.013-.788c.417-.2.906-.3 1.465-.3.725 0 1.322.158 1.789.475.476.309.826.709 1.051 1.202.234.492.351 1.017.351 1.576v.539h-5.932v-.902h5.056l-.276.489c0-.476-.075-.885-.225-1.227a1.756 1.756 0 0 0-.676-.813c-.3-.192-.68-.288-1.138-.288-.476 0-.872.108-1.189.325a2.009 2.009 0 0 0-.701.889c-.15.375-.225.809-.225 1.301 0 .476.075.905.225 1.289.158.376.4.676.726.901.325.217.738.326 1.239.326.525 0 .951-.117 1.276-.351.334-.233.534-.505.601-.813h1.126a2.648 2.648 0 0 1-.551 1.189 2.656 2.656 0 0 1-1.038.763 3.626 3.626 0 0 1-1.414.263Zm4.821-.225v-6.683h.951v2.753h-.05c0-.976.213-1.689.639-2.14.433-.459 1.08-.688 1.939-.688h.226v1.076h-.426c-.667 0-1.18.179-1.539.538-.359.351-.538.86-.538 1.527v3.617h-1.202Zm7.981 0v-6.683h.951v2.866h-.15c0-.659.087-1.214.262-1.665.184-.459.459-.805.826-1.038.367-.242.83-.363 1.389-.363h.051c.842 0 1.464.263 1.864.788.409.526.613 1.285.613 2.278v3.817h-1.201v-4.068c0-.517-.146-.93-.438-1.238-.292-.318-.692-.476-1.201-.476-.526 0-.951.163-1.277.488-.325.325-.488.759-.488 1.302v3.992h-1.201Zm10.845.225c-.584 0-1.089-.1-1.514-.301a2.931 2.931 0 0 1-1.039-.788 3.505 3.505 0 0 1-.6-1.114 4.22 4.22 0 0 1-.188-1.251v-.225c0-.434.062-.856.188-1.264.133-.409.333-.776.6-1.102a2.806 2.806 0 0 1 1.014-.788c.417-.2.905-.3 1.464-.3.726 0 1.322.158 1.79.475.475.309.826.709 1.051 1.202.233.492.35 1.017.35 1.576v.539h-5.932v-.902h5.056l-.275.489c0-.476-.075-.885-.225-1.227a1.762 1.762 0 0 0-.676-.813c-.3-.192-.68-.288-1.139-.288-.475 0-.872.108-1.189.325a2.023 2.023 0 0 0-.701.889c-.15.375-.225.809-.225 1.301 0 .476.075.905.225 1.289.159.376.401.676.726.901.326.217.739.326 1.239.326.526 0 .951-.117 1.277-.351.333-.233.534-.505.6-.813h1.127a2.659 2.659 0 0 1-.551 1.189 2.66 2.66 0 0 1-1.039.763 3.622 3.622 0 0 1-1.414.263Zm7.425-.15c-.501 0-.934-.071-1.301-.213a1.655 1.655 0 0 1-.839-.726c-.192-.35-.288-.822-.288-1.414v-6.432h1.152v6.582c0 .359.095.638.287.839.201.191.48.287.839.287h1.176v1.077h-1.026Zm-3.579-5.857v-.901h4.605v.901h-4.605Zm8.257 5.782 1.351-6.458h1.627l1.577 6.458h-1.026l-1.577-6.433h.4l-1.364 6.433h-.988Zm-.614 0v-.952h1.389v.952h-1.389Zm-.275 0-1.89-6.683h1.152l1.839 6.683h-1.101Zm4.668 0v-.952h1.389v.952h-1.389Zm.563 0 1.602-6.683h1.089l-1.64 6.683h-1.051Zm7.269.225c-.584 0-1.097-.1-1.539-.301a3.556 3.556 0 0 1-1.126-.788c-.3-.334-.53-.705-.688-1.114a3.581 3.581 0 0 1-.226-1.251v-.225c0-.426.08-.843.238-1.252.159-.417.392-.788.701-1.114a3.318 3.318 0 0 1 1.126-.788c.442-.2.947-.3 1.514-.3.568 0 1.073.1 1.515.3.442.192.817.455 1.126.788.309.326.542.697.701 1.114.158.409.238.826.238 1.252v.225c0 .425-.08.843-.238 1.251-.15.409-.38.78-.688 1.114a3.415 3.415 0 0 1-1.114.788c-.442.201-.956.301-1.54.301Zm0-1.076c.501 0 .927-.109 1.277-.326.359-.225.63-.525.813-.901.192-.375.288-.797.288-1.264 0-.475-.096-.901-.288-1.276a2.172 2.172 0 0 0-.826-.889c-.35-.217-.771-.325-1.264-.325-.483 0-.905.108-1.263.325a2.166 2.166 0 0 0-.826.889 2.762 2.762 0 0 0-.288 1.276c0 .467.092.889.275 1.264.192.376.463.676.814.901.358.217.788.326 1.288.326Zm5.379.851v-6.683h.951v2.753h-.05c0-.976.213-1.689.638-2.14.434-.459 1.081-.688 1.94-.688h.225v1.076h-.425c-.668 0-1.181.179-1.54.538-.358.351-.538.86-.538 1.527v3.617h-1.201Zm9.738 0-2.515-3.116h-1.102l3.066-3.567h1.264l-2.778 3.216.088-.638 3.366 4.105h-1.389Zm-4.605 0v-9.136h1.201v9.136h-1.201Z"/><path fill="#fff" fill-opacity=".5" d="M67.477 283.404v-6.852h1.502l3.482 6.026h.3l-.188.169v-6.195h.883v6.852h-1.52l-3.483-6.026h-.3l.188-.169v6.195h-.864Zm9.964.169c-.438 0-.816-.076-1.135-.226a2.197 2.197 0 0 1-.78-.591c-.2-.25-.35-.529-.45-.835a3.196 3.196 0 0 1-.14-.939v-.169c0-.325.046-.641.14-.948.1-.306.25-.582.45-.826.2-.25.454-.447.76-.591.314-.15.68-.225 1.099-.225.544 0 .992.119 1.342.356.357.232.62.532.788.901.176.37.263.764.263 1.183v.404H75.33v-.676h3.792l-.206.366a2.28 2.28 0 0 0-.17-.92 1.32 1.32 0 0 0-.506-.61c-.225-.144-.51-.216-.854-.216-.357 0-.654.081-.892.244a1.515 1.515 0 0 0-.525.666 2.619 2.619 0 0 0-.17.977c0 .356.057.678.17.966.119.282.3.507.544.676.244.163.554.244.93.244.393 0 .713-.087.957-.263.25-.175.4-.378.45-.61h.845a1.989 1.989 0 0 1-.413.892c-.207.25-.466.441-.78.572a2.705 2.705 0 0 1-1.06.198Zm5.569-.113c-.376 0-.701-.053-.976-.16a1.24 1.24 0 0 1-.63-.544c-.143-.263-.215-.616-.215-1.061v-4.824h.864v4.937c0 .269.071.479.215.629.15.144.36.216.63.216h.882v.807h-.77Zm-2.684-4.393v-.675h3.454v.675h-3.454Zm6.192 4.337 1.014-4.843h1.22l1.182 4.843h-.77l-1.182-4.825h.3l-1.022 4.825h-.742Zm-.46 0v-.714H87.1v.714h-1.042Zm-.206 0-1.418-5.012h.864l1.38 5.012h-.826Zm3.5 0v-.714h1.042v.714h-1.041Zm.423 0 1.201-5.012h.817l-1.23 5.012h-.788Zm5.452.169c-.438 0-.823-.076-1.154-.226a2.66 2.66 0 0 1-.845-.591 2.7 2.7 0 0 1-.516-.835 2.708 2.708 0 0 1-.17-.939v-.169c0-.319.06-.632.179-.938.119-.313.294-.592.526-.836.231-.25.513-.447.844-.591.332-.15.71-.225 1.136-.225.425 0 .804.075 1.136.225.331.144.613.341.844.591.232.244.407.523.526.836.119.306.178.619.178.938v.169c0 .319-.06.632-.178.939a2.484 2.484 0 0 1-.516.835 2.55 2.55 0 0 1-.836.591c-.331.15-.716.226-1.154.226Zm0-.808c.375 0 .694-.081.957-.244.27-.169.473-.394.61-.675.144-.282.216-.598.216-.948 0-.357-.072-.676-.216-.958a1.635 1.635 0 0 0-.62-.666c-.262-.163-.578-.244-.947-.244-.363 0-.679.081-.948.244-.27.163-.475.385-.62.666a2.077 2.077 0 0 0-.215.958c0 .35.069.666.206.948.144.281.347.506.61.675.27.163.591.244.967.244Zm4.034.639v-5.012h.713v2.064h-.038c0-.732.16-1.267.479-1.605.326-.344.811-.516 1.455-.516h.169v.807h-.319c-.501 0-.886.135-1.155.404-.269.263-.403.645-.403 1.145v2.713h-.901Zm7.303 0-1.886-2.337h-.826l2.299-2.675h.948l-2.083 2.412.065-.479 2.525 3.079h-1.042Zm-3.454 0v-6.852h.901v6.852h-.901Zm7.76 0v-5.012h.901v5.012h-.901Zm-.769-4.299v-.713h1.67v.713h-1.67Zm1.023-1.521c-.201 0-.351-.053-.451-.159a.589.589 0 0 1-.141-.404c0-.162.047-.297.141-.403.1-.107.25-.16.451-.16.2 0 .347.053.441.16.1.106.15.241.15.403 0 .163-.05.297-.15.404-.094.106-.241.159-.441.159Zm4.032 5.97c-.657 0-1.167-.141-1.53-.423-.357-.281-.541-.666-.554-1.154h.845c.013.194.11.378.291.554.188.169.504.253.948.253.4 0 .707-.078.92-.235.213-.162.319-.359.319-.591a.556.556 0 0 0-.235-.479c-.156-.118-.41-.197-.76-.234l-.544-.056c-.476-.051-.864-.191-1.164-.423-.301-.238-.451-.569-.451-.995 0-.319.082-.591.244-.816.163-.232.388-.407.676-.526a2.48 2.48 0 0 1 .995-.188c.563 0 1.02.126 1.37.376.351.25.532.622.545 1.117h-.845c-.006-.2-.1-.369-.282-.507-.175-.144-.438-.216-.788-.216-.35 0-.616.072-.798.216a.667.667 0 0 0-.272.544c0 .188.063.338.188.451.131.112.344.184.638.216l.544.056c.538.056.97.206 1.296.451.325.237.488.575.488 1.013 0 .313-.091.591-.273.835a1.77 1.77 0 0 1-.732.564 2.773 2.773 0 0 1-1.079.197Zm7.261 0c-.594 0-1.051-.194-1.37-.582-.319-.388-.479-.948-.479-1.68v-2.91h.901v3.088c0 .394.107.704.32.929.212.219.5.329.863.329.376 0 .682-.119.92-.357.238-.244.357-.576.357-.995v-2.994h.901v5.022h-.714v-2.15h.113c0 .495-.066.914-.197 1.258a1.641 1.641 0 0 1-.592.779c-.256.175-.585.263-.985.263h-.038Zm4.158-.15v-5.012h.713v2.149h-.113c0-.494.066-.91.197-1.248.138-.345.345-.604.62-.779.275-.182.622-.273 1.042-.273h.037c.632 0 1.098.198 1.399.592.306.394.46.963.46 1.708v2.863h-.901v-3.051c0-.388-.11-.697-.329-.929-.219-.238-.519-.357-.901-.357-.394 0-.713.122-.957.366s-.366.57-.366.977v2.994h-.901Zm9.035 0v-1.502h-.15v-1.737c0-.344-.091-.603-.273-.779-.175-.175-.434-.262-.779-.262-.194 0-.394.003-.6.009l-.592.019c-.187.006-.35.015-.488.028v-.788a9.2 9.2 0 0 1 .432-.029 6.27 6.27 0 0 1 .479-.018c.162-.007.319-.01.469-.01.513 0 .932.063 1.258.188.325.119.566.316.722.591.157.276.235.648.235 1.117v3.173h-.713Zm-1.643.131c-.375 0-.7-.063-.976-.188a1.489 1.489 0 0 1-.629-.563c-.144-.244-.216-.538-.216-.882 0-.357.079-.654.235-.892.163-.238.397-.416.704-.535.307-.125.676-.187 1.108-.187h1.36v.675h-1.398c-.363 0-.641.088-.835.263a.87.87 0 0 0-.291.676.84.84 0 0 0 .291.666c.194.169.472.254.835.254.213 0 .416-.038.61-.113.194-.081.354-.213.479-.394.131-.188.203-.444.216-.77l.244.357c-.032.357-.119.657-.263.901a1.36 1.36 0 0 1-.582.544c-.244.125-.541.188-.892.188Zm5.061-.131-1.708-5.012h.939l1.671 5.012h-.902Zm.226 0v-.714h1.088v.714h-1.088Zm.431 0 1.455-5.012h.883l-1.483 5.012h-.855Zm6.511 0v-1.502h-.15v-1.737c0-.344-.091-.603-.272-.779-.175-.175-.435-.262-.779-.262-.194 0-.394.003-.601.009l-.591.019a7.99 7.99 0 0 0-.488.028v-.788a9.02 9.02 0 0 1 .432-.029c.156-.012.316-.018.478-.018.163-.007.319-.01.47-.01.513 0 .932.063 1.257.188.326.119.566.316.723.591.156.276.235.648.235 1.117v3.173h-.714Zm-1.642.131a2.34 2.34 0 0 1-.976-.188 1.483 1.483 0 0 1-.629-.563c-.144-.244-.216-.538-.216-.882 0-.357.078-.654.235-.892.162-.238.397-.416.703-.535.307-.125.676-.187 1.108-.187h1.361v.675h-1.399c-.362 0-.641.088-.835.263a.87.87 0 0 0-.291.676.84.84 0 0 0 .291.666c.194.169.473.254.835.254.213 0 .417-.038.611-.113.193-.081.353-.213.478-.394.132-.188.204-.444.216-.77l.244.357c-.031.357-.119.657-.263.901a1.349 1.349 0 0 1-.582.544c-.244.125-.541.188-.891.188Zm4.253-.131v-5.012h.901v5.012h-.901Zm-.769-4.299v-.713h1.67v.713h-1.67Zm1.023-1.521c-.201 0-.351-.053-.451-.159a.589.589 0 0 1-.141-.404c0-.162.047-.297.141-.403.1-.107.25-.16.451-.16.2 0 .347.053.441.16.1.106.15.241.15.403 0 .163-.05.297-.15.404-.094.106-.241.159-.441.159Zm2.446 5.82v-6.852h.901v6.852h-.901Zm-.695-6.139v-.713h1.596v.713h-1.596Zm6.356 6.139v-1.502h-.151v-1.737c0-.344-.09-.603-.272-.779-.175-.175-.435-.262-.779-.262-.194 0-.394.003-.6.009l-.592.019c-.187.006-.35.015-.488.028v-.788a9.2 9.2 0 0 1 .432-.029c.156-.012.316-.018.479-.018.162-.007.319-.01.469-.01.513 0 .932.063 1.258.188.325.119.566.316.722.591.157.276.235.648.235 1.117v3.173h-.713Zm-1.643.131c-.375 0-.701-.063-.976-.188a1.483 1.483 0 0 1-.629-.563c-.144-.244-.216-.538-.216-.882 0-.357.078-.654.235-.892.163-.238.397-.416.704-.535.306-.125.676-.187 1.107-.187h1.361v.675h-1.398c-.363 0-.642.088-.836.263a.872.872 0 0 0-.29.676c0 .275.097.497.29.666.194.169.473.254.836.254.213 0 .416-.038.61-.113.194-.081.353-.213.479-.394.131-.188.203-.444.215-.77l.244.357c-.031.357-.118.657-.262.901a1.36 1.36 0 0 1-.582.544c-.244.125-.541.188-.892.188Zm6.656.038c-.413 0-.782-.091-1.107-.273a1.958 1.958 0 0 1-.76-.788c-.188-.35-.291-.77-.31-1.258h.244v2.15h-.713v-6.852h.901v3.332l-.319.685c.025-.544.134-.989.328-1.333s.447-.597.76-.76c.319-.169.67-.253 1.052-.253.356 0 .682.068.976.206.294.132.547.316.76.554.213.231.375.504.488.816.113.307.169.639.169.995v.169c0 .357-.06.692-.178 1.005a2.527 2.527 0 0 1-.498.835 2.394 2.394 0 0 1-1.793.77Zm-.103-.789c.338 0 .632-.081.882-.244.251-.163.445-.385.582-.666.138-.288.207-.62.207-.995 0-.376-.072-.704-.216-.986a1.509 1.509 0 0 0-.582-.647 1.607 1.607 0 0 0-.873-.235c-.3 0-.579.069-.835.207a1.538 1.538 0 0 0-.62.581c-.15.251-.225.554-.225.911v.432c0 .344.078.638.235.882.156.244.363.432.619.563.257.131.532.197.826.197Zm3.984.62v-6.852h.901v6.852h-.901Zm-.695-6.139v-.713h1.596v.713h-1.596Zm5.455 6.308c-.438 0-.817-.076-1.136-.226a2.197 2.197 0 0 1-.779-.591c-.2-.25-.35-.529-.45-.835a3.19 3.19 0 0 1-.141-.939v-.169c0-.325.047-.641.141-.948.1-.306.25-.582.45-.826.2-.25.454-.447.76-.591.313-.15.679-.225 1.098-.225.545 0 .992.119 1.343.356.356.232.619.532.788.901.175.37.263.764.263 1.183v.404h-4.449v-.676h3.792l-.207.366c0-.357-.056-.663-.169-.92a1.315 1.315 0 0 0-.506-.61c-.226-.144-.51-.216-.855-.216-.356 0-.653.081-.891.244a1.513 1.513 0 0 0-.526.666 2.63 2.63 0 0 0-.169.977c0 .356.057.678.169.966.119.282.301.507.545.676.244.163.553.244.929.244.394 0 .713-.087.957-.263.25-.175.401-.378.451-.61h.844a1.975 1.975 0 0 1-.413.892c-.206.25-.466.441-.779.572a2.7 2.7 0 0 1-1.06.198Z"/><mask id="j" fill="#fff"><path fill-rule="evenodd" d="M326.576 257.325h83.267a3.128 3.128 0 0 1 3.128 3.129v16.759a3.127 3.127 0 0 1-1.067 2.328l-5.898 5.166c-.57.5-1.302.775-2.061.775h5.925H320.678a3.128 3.128 0 0 1-3.128-3.128V265.62c0-.902.389-1.76 1.067-2.354l5.898-5.166a3.13 3.13 0 0 1 2.061-.775Z" clip-rule="evenodd"/></mask><path fill="#E07" fill-rule="evenodd" d="M326.576 257.325h83.267a3.128 3.128 0 0 1 3.128 3.129v16.759a3.127 3.127 0 0 1-1.067 2.328l-5.898 5.166c-.57.5-1.302.775-2.061.775h5.925H320.678a3.128 3.128 0 0 1-3.128-3.128V265.62c0-.902.389-1.76 1.067-2.354l5.898-5.166a3.13 3.13 0 0 1 2.061-.775Z" clip-rule="evenodd"/><path fill="#fff" fill-opacity=".1" d="m412.971 277.213.782.006v-.006h-.782Zm-1.067 2.328.516.588-.516-.588Zm-5.898 5.166-.515-.588.515.588Zm3.864.775.007.782-.007-1.564v.782Zm-91.253-22.216.515.589-.515-.589Zm5.898-5.166-.515-.588.515.588Zm85.328-1.557h-83.267v1.564h83.267v-1.564Zm3.91 3.911a3.91 3.91 0 0 0-3.91-3.911v1.564a2.346 2.346 0 0 1 2.346 2.347h1.564Zm0 16.759v-16.759h-1.564v16.759h1.564Zm-1.333 2.916a3.912 3.912 0 0 0 1.333-2.91l-1.564-.013a2.346 2.346 0 0 1-.8 1.747l1.031 1.176Zm-5.898 5.167 5.898-5.167-1.031-1.176-5.898 5.166 1.031 1.177Zm-2.577.968c.948 0 1.864-.344 2.577-.968l-1.031-1.177a2.345 2.345 0 0 1-1.546.581v1.564Zm5.925-1.564h-5.925v1.564h5.925V284.7Zm-.027 1.564h.034l-.014-1.564h-.02v1.564Zm-89.165 0h89.165V284.7h-89.165v1.564Zm-3.91-3.91a3.91 3.91 0 0 0 3.91 3.91V284.7a2.346 2.346 0 0 1-2.346-2.346h-1.564Zm0-16.734v16.734h1.564V265.62h-1.564Zm1.334-2.942a3.911 3.911 0 0 0-1.334 2.942h1.564c0-.676.292-1.32.8-1.765l-1.03-1.177Zm5.898-5.166-5.898 5.166 1.03 1.177 5.898-5.166-1.03-1.177Zm2.576-.969c-.948 0-1.864.344-2.576.969l1.03 1.177a2.346 2.346 0 0 1 1.546-.582v-1.564Z" mask="url(#j)"/><path fill="#fff" d="M344.305 275.364v-8.037h1.073v8.037h-1.073Zm4.938 0-2.65-3.558h1.26l2.693 3.558h-1.303Zm-4.27-2.891v-.952h2.146c.336 0 .624-.07.865-.208.241-.139.427-.329.559-.57.131-.248.197-.529.197-.843 0-.314-.066-.591-.197-.832a1.426 1.426 0 0 0-.559-.58 1.637 1.637 0 0 0-.865-.219h-2.146v-.942h1.949c.584 0 1.095.088 1.533.263a2.13 2.13 0 0 1 1.018.81c.241.365.362.836.362 1.413v.175c0 .577-.124 1.047-.373 1.412-.241.365-.58.635-1.018.811-.431.175-.938.262-1.522.262h-1.949Zm9.224 3.088c-.511 0-.952-.087-1.324-.262a2.573 2.573 0 0 1-.909-.69 3.071 3.071 0 0 1-.526-.975 3.74 3.74 0 0 1-.164-1.095v-.197c0-.38.055-.748.164-1.106a2.93 2.93 0 0 1 .526-.963c.233-.292.529-.522.887-.69.365-.176.792-.263 1.281-.263.635 0 1.157.139 1.566.416.416.27.722.62.919 1.051.205.431.307.891.307 1.38v.471h-5.19v-.789h4.424l-.241.427c0-.416-.066-.773-.197-1.073a1.54 1.54 0 0 0-.592-.711c-.263-.168-.595-.252-.996-.252-.416 0-.763.095-1.04.284a1.76 1.76 0 0 0-.614.778 3.057 3.057 0 0 0-.197 1.139c0 .416.066.792.197 1.127.139.329.351.592.635.789.285.19.646.285 1.084.285.46 0 .833-.103 1.117-.307.292-.204.468-.442.526-.712h.985a2.31 2.31 0 0 1-.481 1.04 2.322 2.322 0 0 1-.909.668c-.365.154-.778.23-1.238.23Zm6.136-.022c-.767 0-1.362-.164-1.785-.492-.416-.329-.631-.778-.646-1.347h.985c.015.226.128.442.34.646.219.197.588.296 1.106.296.467 0 .825-.092 1.073-.274.248-.19.372-.42.372-.69a.645.645 0 0 0-.274-.558c-.182-.139-.478-.23-.886-.274l-.636-.066c-.554-.058-1.007-.223-1.357-.493-.351-.277-.526-.664-.526-1.16 0-.373.095-.69.285-.953.19-.27.452-.475.788-.613a2.89 2.89 0 0 1 1.161-.219c.657 0 1.19.146 1.599.438.408.292.62.726.635 1.303h-.986c-.007-.234-.117-.431-.328-.591-.205-.168-.511-.252-.92-.252-.409 0-.719.084-.931.252a.775.775 0 0 0-.317.635.67.67 0 0 0 .219.525c.153.132.401.216.744.252l.635.066c.628.065 1.132.241 1.511.525.38.278.57.672.57 1.183 0 .365-.106.69-.318.975a2.068 2.068 0 0 1-.854.657 3.235 3.235 0 0 1-1.259.229Zm6.648.022c-.511 0-.96-.087-1.347-.262a3.127 3.127 0 0 1-.985-.69 3.151 3.151 0 0 1-.603-.975 3.164 3.164 0 0 1-.197-1.095v-.197c0-.372.07-.737.208-1.095.139-.365.343-.69.613-.974.271-.292.599-.522.986-.69a3.17 3.17 0 0 1 1.325-.263c.496 0 .938.087 1.325.263.387.168.715.398.985.69.27.284.475.609.614.974.138.358.208.723.208 1.095v.197c0 .372-.07.737-.208 1.095a2.909 2.909 0 0 1-.603.975 2.99 2.99 0 0 1-.974.69c-.387.175-.836.262-1.347.262Zm0-.941c.438 0 .81-.095 1.117-.285.314-.197.551-.46.712-.788a2.41 2.41 0 0 0 .251-1.106 2.43 2.43 0 0 0-.251-1.117 1.903 1.903 0 0 0-.723-.778c-.307-.19-.675-.284-1.106-.284-.423 0-.792.094-1.106.284-.314.19-.555.449-.723.778a2.417 2.417 0 0 0-.252 1.117c0 .408.081.777.241 1.106.168.328.405.591.712.788.314.19.69.285 1.128.285Zm4.772.744v-7.993h1.051v7.993h-1.051Zm-.811-7.161v-.832h1.862v.832h-1.862Zm5.126 7.161-1.992-5.847h1.095l1.949 5.847h-1.052Zm.263 0v-.832h1.27v.832h-1.27Zm.504 0 1.697-5.847h1.03l-1.731 5.847h-.996Zm6.48.197c-.511 0-.952-.087-1.324-.262a2.573 2.573 0 0 1-.909-.69 3.071 3.071 0 0 1-.526-.975 3.74 3.74 0 0 1-.164-1.095v-.197c0-.38.055-.748.164-1.106a2.93 2.93 0 0 1 .526-.963c.233-.292.529-.522.887-.69.365-.176.792-.263 1.281-.263.635 0 1.157.139 1.566.416.416.27.722.62.919 1.051.205.431.307.891.307 1.38v.471h-5.19v-.789h4.424l-.241.427c0-.416-.066-.773-.197-1.073a1.54 1.54 0 0 0-.592-.711c-.263-.168-.595-.252-.996-.252-.416 0-.763.095-1.04.284a1.76 1.76 0 0 0-.614.778 3.057 3.057 0 0 0-.197 1.139c0 .416.066.792.197 1.127.139.329.351.592.635.789.285.19.646.285 1.084.285.46 0 .833-.103 1.117-.307.292-.204.468-.442.526-.712h.985a2.31 2.31 0 0 1-.481 1.04 2.322 2.322 0 0 1-.909.668c-.365.154-.778.23-1.238.23Z"/></g><defs><clipPath id="a"><path fill="#fff" d="M0 0h438v299H0z"/></clipPath><filter id="b" width="438" height="472.414" x="0" y="0" color-interpolation-filters="sRGB" filterUnits="userSpaceOnUse"><feFlood flood-opacity="0" result="BackgroundImageFix"/><feBlend in="SourceGraphic" in2="BackgroundImageFix" result="shape"/><feColorMatrix in="SourceAlpha" result="hardAlpha" values="0 0 0 0 0 0 0 0 0 0 0 0 0 0 0 0 0 0 127 0"/><feOffset dy="3.129"/><feGaussianBlur stdDeviation="6.648"/><feComposite in2="hardAlpha" k2="-1" k3="1" operator="arithmetic"/><feColorMatrix values="0 0 0 0 1 0 0 0 0 1 0 0 0 0 1 0 0 0 0.06 0"/><feBlend in2="shape" result="effect1_innerShadow_12525_136892"/></filter></defs></svg>