<svg width="438" height="299" viewBox="0 0 438 299" fill="none" xmlns="http://www.w3.org/2000/svg">
<g clip-path="url(#clip0_12576_28342)">
<g filter="url(#filter0_i_12576_28342)">
<g clip-path="url(#clip1_12576_28342)">
<rect width="438" height="314" rx="23.3116" fill="white" fill-opacity="0.01"/>
<g filter="url(#filter1_d_12576_28342)">
<g clip-path="url(#clip2_12576_28342)">
<circle cx="219" cy="165.875" r="39.8893" fill="#332C43"/>
<path d="M253.366 165.875C253.366 184.592 238.194 199.628 219.307 199.628C200.419 199.628 185.248 184.592 185.248 165.875C185.248 147.158 200.419 132.123 219.307 132.123C238.194 132.123 253.366 147.158 253.366 165.875Z" fill="#EE2233"/>
<path d="M203.206 195.639C208.47 187.661 214.043 179.683 219.616 171.705L235.717 195.639C236.646 195.332 237.265 194.718 238.194 194.104C239.123 193.491 239.742 193.184 240.362 192.57C234.479 183.672 228.286 174.773 222.403 165.875H240.362V160.352H222.403V154.522H240.362V148.999H198.562V154.522H216.52V160.352H198.562V165.875H216.52L198.562 192.57C199.181 193.184 199.8 193.491 200.729 194.104C201.658 194.718 202.277 195.332 203.206 195.639Z" fill="white"/>
</g>
</g>
<g clip-path="url(#clip3_12576_28342)">
<path d="M305.143 185.382L304.177 185.796C304.152 185.808 304.122 185.805 304.101 185.787L303.264 185.153C303.24 185.134 303.207 185.133 303.182 185.152C303.158 185.171 303.151 185.204 303.163 185.232L303.579 186.196C303.59 186.221 303.586 186.251 303.569 186.272L302.936 187.11C302.916 187.133 302.915 187.167 302.934 187.191C302.953 187.215 302.986 187.223 303.013 187.209L303.979 186.795C304.003 186.783 304.033 186.787 304.055 186.804L304.892 187.439C304.916 187.457 304.949 187.458 304.973 187.439C304.997 187.42 305.005 187.387 304.992 187.36L304.577 186.395C304.565 186.371 304.569 186.34 304.586 186.319L305.22 185.481C305.239 185.458 305.24 185.424 305.221 185.4C305.202 185.376 305.169 185.369 305.143 185.382Z" fill="white"/>
<path d="M304.302 183.595C303.84 183.502 303.301 183.521 302.713 183.644L302.713 183.643C301.54 183.887 300.179 184.539 298.897 185.542L298.894 185.545L298.893 185.545C298.052 186.204 297.349 186.933 296.818 187.662C296.287 188.391 295.93 189.118 295.78 189.78L295.78 189.779C295.68 190.22 295.673 190.63 295.773 190.991C295.83 191.196 295.924 191.386 296.054 191.551C296.16 191.687 296.357 191.711 296.493 191.605C296.629 191.498 296.653 191.301 296.546 191.165C296.469 191.066 296.414 190.956 296.376 190.823C296.311 190.591 296.307 190.283 296.39 189.918L296.391 189.917C296.513 189.371 296.831 188.706 297.324 188.03C297.816 187.354 298.481 186.663 299.28 186.038L299.293 186.028C300.504 185.08 301.792 184.472 302.84 184.257L302.841 184.256C303.365 184.146 303.828 184.137 304.178 184.208C304.353 184.244 304.5 184.298 304.621 184.366C304.771 184.451 304.962 184.398 305.047 184.248C305.132 184.097 305.079 183.907 304.929 183.822C304.743 183.716 304.532 183.641 304.302 183.595Z" fill="white"/>
<path d="M306.913 181.307C306.612 181.138 306.288 181.016 305.947 180.935C305.607 180.854 305.251 180.813 304.886 180.806L304.863 180.806L304.885 180.807C303.787 180.787 302.578 181.061 301.326 181.57L301.325 181.57C300.074 182.081 298.778 182.833 297.537 183.805C296.59 184.546 295.761 185.348 295.068 186.171C294.374 186.994 293.816 187.838 293.417 188.671L293.416 188.671C293.018 189.504 292.773 190.331 292.738 191.132L292.738 191.117L292.737 191.132C292.72 191.533 292.757 191.929 292.863 192.309C292.969 192.689 293.145 193.05 293.394 193.368L295.353 195.87C295.603 196.189 295.911 196.446 296.255 196.64C296.555 196.81 296.88 196.931 297.22 197.012C297.561 197.093 297.916 197.134 298.282 197.141L298.282 197.141C299.38 197.16 300.59 196.887 301.842 196.378L301.848 196.375C303.098 195.864 304.391 195.113 305.631 194.142L305.631 194.142C306.577 193.401 307.406 192.599 308.1 191.776C308.793 190.953 309.351 190.109 309.751 189.276L309.751 189.276C310.149 188.443 310.394 187.616 310.43 186.815L310.43 186.814C310.447 186.414 310.41 186.018 310.304 185.638L310.31 185.662L310.304 185.638C310.198 185.258 310.022 184.897 309.773 184.578L307.814 182.077C307.564 181.758 307.256 181.501 306.913 181.307ZM297.987 195.909C297.855 195.897 297.727 195.88 297.607 195.856C297.32 195.798 297.068 195.706 296.851 195.584C296.635 195.462 296.455 195.309 296.308 195.122L295.42 193.988C295.707 194.054 296.013 194.089 296.333 194.096C296.41 194.097 296.487 194.096 296.566 194.095L297.987 195.909ZM300.052 195.698C299.924 195.731 299.797 195.762 299.673 195.788C299.382 195.848 299.103 195.888 298.837 195.911L297.362 194.026C297.742 193.971 298.136 193.885 298.541 193.769L300.052 195.698ZM302.184 194.895C301.679 195.143 301.182 195.347 300.701 195.506L300.733 195.482L299.218 193.548C299.37 193.494 299.523 193.435 299.678 193.372C299.997 193.242 300.32 193.093 300.645 192.93L302.184 194.895ZM304.618 193.391C304.012 193.846 303.396 194.24 302.785 194.577L301.244 192.609C301.855 192.267 302.467 191.867 303.07 191.414L304.618 193.391ZM306.792 191.42C306.305 191.953 305.755 192.478 305.144 192.977L303.598 191.003C304.205 190.507 304.76 189.987 305.254 189.455L306.792 191.42ZM308.163 189.644C308.03 189.857 307.886 190.071 307.729 190.286C307.578 190.493 307.414 190.701 307.242 190.909L305.705 188.947C306.055 188.534 306.367 188.116 306.641 187.7L308.163 189.644ZM309.008 187.874C308.892 188.24 308.73 188.624 308.523 189.019L307.013 187.09C307.117 186.906 307.214 186.722 307.301 186.539C307.388 186.357 307.467 186.175 307.537 185.996L309.008 187.874ZM308.818 185.326C308.964 185.513 309.069 185.725 309.136 185.964C309.223 186.274 309.244 186.633 309.196 187.03L307.803 185.251L307.772 185.275C307.859 184.937 307.914 184.608 307.928 184.29C307.929 184.257 307.93 184.225 307.93 184.193L308.818 185.326L308.818 185.326ZM307.177 183.462C307.294 183.88 307.292 184.387 307.163 184.956C306.97 185.809 306.492 186.792 305.77 187.784C305.048 188.776 304.082 189.779 302.924 190.686C301.161 192.068 299.285 192.961 297.713 193.286C296.928 193.449 296.221 193.47 295.647 193.354C295.361 193.296 295.108 193.204 294.892 193.082C294.675 192.96 294.495 192.807 294.349 192.621C294.203 192.434 294.098 192.223 294.031 191.983C293.914 191.565 293.916 191.058 294.046 190.489C294.238 189.636 294.716 188.653 295.438 187.661C296.161 186.669 297.126 185.667 298.284 184.76C300.048 183.377 301.923 182.485 303.495 182.16C304.28 181.996 304.988 181.975 305.56 182.091C305.847 182.149 306.1 182.241 306.316 182.363C306.533 182.485 306.713 182.638 306.859 182.825C307.005 183.011 307.11 183.223 307.177 183.462Z" fill="white"/>
</g>
<g clip-path="url(#clip4_12576_28342)">
<path d="M269.133 107.131L268.505 106.18C268.488 106.156 268.486 106.123 268.5 106.097L269.017 105.083C269.033 105.054 269.027 105.018 269.002 104.996C268.977 104.974 268.941 104.972 268.914 104.991L267.964 105.619C267.94 105.636 267.907 105.637 267.882 105.623L266.866 105.108C266.838 105.091 266.802 105.097 266.78 105.122C266.758 105.147 266.756 105.183 266.775 105.21L267.403 106.16C267.42 106.184 267.421 106.217 267.407 106.243L266.891 107.257C266.876 107.287 266.882 107.323 266.906 107.344C266.931 107.367 266.967 107.368 266.994 107.349L267.943 106.722C267.968 106.704 268.001 106.702 268.026 106.717L269.042 107.232C269.07 107.248 269.106 107.243 269.128 107.218C269.15 107.193 269.152 107.156 269.133 107.131Z" fill="white"/>
<path d="M270.878 105.89C270.889 105.38 270.765 104.809 270.521 104.205L270.522 104.205C270.037 103 269.081 101.674 267.765 100.499L267.761 100.496L267.761 100.496C266.897 99.7247 265.984 99.1143 265.105 98.6884C264.225 98.2624 263.381 98.0205 262.647 97.9872L262.648 97.9874C262.158 97.9649 261.719 98.0361 261.353 98.2128C261.145 98.3126 260.961 98.4491 260.81 98.6191C260.685 98.7588 260.697 98.9732 260.837 99.0981C260.977 99.2229 261.191 99.2105 261.316 99.0708C261.407 98.9689 261.513 98.889 261.649 98.8233C261.883 98.7093 262.211 98.6458 262.616 98.6652L262.617 98.6653C263.223 98.6909 263.994 98.9027 264.809 99.2991C265.625 99.6939 266.49 100.27 267.309 101.002L267.323 101.014C268.566 102.124 269.462 103.382 269.892 104.458L269.892 104.459C270.11 104.997 270.209 105.489 270.2 105.875C270.196 106.069 270.166 106.237 270.117 106.379C270.055 106.556 270.148 106.749 270.325 106.811C270.502 106.873 270.695 106.779 270.757 106.603C270.833 106.384 270.873 106.145 270.878 105.89Z" fill="white"/>
<path d="M273.819 108.237C273.942 107.884 274.01 107.514 274.031 107.135C274.052 106.757 274.027 106.37 273.964 105.978L273.96 105.955L273.964 105.978C273.774 104.803 273.249 103.566 272.467 102.328L272.467 102.328C271.682 101.091 270.631 99.8534 269.356 98.7154C268.384 97.8482 267.37 97.1176 266.359 96.5358C265.348 95.954 264.34 95.5211 263.376 95.2546L263.375 95.2544C262.41 94.9895 261.482 94.8862 260.62 95.0023L260.636 94.9998L260.62 95.0021C260.189 95.0609 259.774 95.1764 259.389 95.362C259.004 95.5477 258.653 95.8047 258.361 96.1319L256.069 98.7013C255.776 99.0284 255.561 99.4069 255.42 99.8105C255.297 100.163 255.23 100.533 255.209 100.911C255.188 101.29 255.212 101.677 255.275 102.068L255.275 102.069C255.465 103.244 255.989 104.482 256.772 105.719L256.776 105.725C257.561 106.96 258.61 108.196 259.883 109.332L259.884 109.332C260.856 110.199 261.869 110.93 262.88 111.511C263.891 112.093 264.899 112.526 265.863 112.793L265.864 112.793C266.829 113.057 267.758 113.16 268.619 113.045L268.62 113.045C269.05 112.986 269.465 112.871 269.85 112.685L269.826 112.696L269.85 112.685C270.235 112.499 270.587 112.242 270.879 111.915L273.171 109.345C273.463 109.018 273.678 108.64 273.819 108.237ZM256.532 101.518C256.519 101.375 256.513 101.235 256.516 101.102C256.523 100.785 256.572 100.498 256.661 100.244C256.75 99.9898 256.878 99.7683 257.049 99.5762L258.089 98.4115C258.073 98.7305 258.095 99.0634 258.149 99.4059C258.163 99.4877 258.178 99.5702 258.195 99.6536L256.532 101.518ZM257.153 103.68C257.093 103.55 257.036 103.421 256.985 103.292C256.865 102.994 256.768 102.705 256.694 102.425L258.42 100.49C258.552 100.884 258.72 101.288 258.921 101.698L257.153 103.68ZM258.419 105.8C258.058 105.308 257.745 104.817 257.483 104.336L257.515 104.364L259.287 102.378C259.374 102.53 259.466 102.682 259.563 102.834C259.763 103.15 259.983 103.466 260.22 103.782L258.419 105.8ZM260.49 108.107C259.889 107.548 259.35 106.967 258.873 106.38L260.677 104.359C261.159 104.945 261.703 105.521 262.302 106.077L260.49 108.107ZM263.009 110.049C262.347 109.63 261.682 109.145 261.033 108.588L262.842 106.561C263.487 107.114 264.148 107.605 264.81 108.03L263.009 110.049ZM265.167 111.17C264.914 111.069 264.658 110.956 264.399 110.83C264.148 110.708 263.895 110.573 263.641 110.43L265.439 108.414C265.946 108.708 266.452 108.961 266.949 109.173L265.167 111.17ZM267.217 111.731C266.804 111.678 266.364 111.578 265.903 111.434L267.67 109.453C267.887 109.528 268.102 109.597 268.313 109.655C268.525 109.713 268.733 109.761 268.938 109.802L267.217 111.731ZM269.898 111.04C269.727 111.232 269.521 111.385 269.278 111.502C268.965 111.654 268.586 111.745 268.153 111.77L269.784 109.943L269.752 109.914C270.129 109.943 270.491 109.938 270.833 109.892C270.868 109.887 270.902 109.881 270.937 109.875L269.898 111.04L269.898 111.04ZM271.571 108.932C271.148 109.137 270.606 109.232 269.975 109.203C269.028 109.162 267.888 108.841 266.692 108.26C265.495 107.68 264.24 106.843 263.051 105.782C261.238 104.166 259.926 102.337 259.278 100.723C258.953 99.9164 258.795 99.1662 258.809 98.5321C258.816 98.2154 258.865 97.9285 258.953 97.6745C259.042 97.42 259.171 97.1987 259.342 97.0069C259.513 96.8151 259.718 96.6626 259.961 96.5453C260.384 96.3403 260.926 96.2452 261.557 96.2744C262.504 96.316 263.644 96.6366 264.84 97.2172C266.037 97.797 267.292 98.6347 268.481 99.6958C270.294 101.312 271.606 103.141 272.254 104.755C272.579 105.561 272.737 106.312 272.723 106.945C272.716 107.262 272.667 107.549 272.578 107.803C272.49 108.057 272.361 108.279 272.19 108.47C272.019 108.662 271.814 108.815 271.571 108.932Z" fill="white"/>
</g>
<g clip-path="url(#clip5_12576_28342)">
<path d="M227.789 252.034L226.307 251.432C226.268 251.417 226.239 251.382 226.235 251.34L226.027 249.754C226.022 249.708 225.987 249.671 225.94 249.665C225.894 249.659 225.85 249.686 225.834 249.729L225.233 251.212C225.219 251.252 225.183 251.279 225.141 251.283L223.555 251.494C223.509 251.497 223.472 251.533 223.466 251.579C223.46 251.625 223.487 251.669 223.531 251.684L225.013 252.286C225.052 252.299 225.081 252.337 225.085 252.379L225.293 253.964C225.299 254.01 225.334 254.047 225.38 254.053C225.427 254.059 225.47 254.032 225.486 253.988L226.087 252.506C226.101 252.467 226.138 252.438 226.179 252.435L227.765 252.224C227.811 252.22 227.848 252.185 227.854 252.139C227.86 252.092 227.833 252.049 227.789 252.034Z" fill="white"/>
<path d="M228.826 249.209C228.433 248.61 227.834 248.047 227.072 247.541L227.073 247.541C225.553 246.531 223.39 245.755 220.931 245.44L220.924 245.44L220.924 245.439C219.309 245.234 217.767 245.252 216.409 245.458C215.052 245.664 213.881 246.056 213.004 246.601L213.006 246.6C212.42 246.964 211.969 247.395 211.685 247.891C211.524 248.172 211.419 248.476 211.379 248.794C211.345 249.055 211.53 249.294 211.791 249.327C212.053 249.36 212.291 249.175 212.324 248.914C212.349 248.724 212.408 248.547 212.513 248.363C212.694 248.045 213.023 247.71 213.508 247.411L213.509 247.41C214.232 246.958 215.293 246.59 216.552 246.401C217.812 246.209 219.272 246.19 220.804 246.385L220.829 246.389C223.152 246.685 225.19 247.43 226.544 248.335L226.545 248.336C227.226 248.786 227.732 249.277 228.028 249.732C228.178 249.96 228.277 250.178 228.332 250.381C228.401 250.635 228.662 250.785 228.917 250.716C229.171 250.647 229.32 250.386 229.252 250.132C229.166 249.817 229.023 249.509 228.826 249.209Z" fill="white"/>
<path d="M234.098 249.589C233.96 249.082 233.744 248.6 233.468 248.144C233.191 247.69 232.854 247.261 232.47 246.857L232.447 246.832L232.47 246.857C231.316 245.646 229.723 244.63 227.833 243.819L227.832 243.818C225.939 243.01 223.738 242.412 221.355 242.108C219.539 241.876 217.784 241.836 216.15 241.966C214.516 242.096 213.004 242.396 211.675 242.854L211.674 242.855C210.346 243.315 209.188 243.934 208.282 244.754L208.299 244.738L208.282 244.754C207.829 245.164 207.44 245.629 207.142 246.15C206.844 246.671 206.641 247.248 206.563 247.859L205.951 252.659C205.873 253.27 205.924 253.88 206.082 254.46C206.22 254.966 206.436 255.448 206.712 255.903C206.989 256.359 207.326 256.787 207.709 257.19L207.71 257.191C208.864 258.401 210.456 259.418 212.347 260.229L212.357 260.233C214.248 261.04 216.446 261.637 218.825 261.941L218.825 261.941C220.641 262.172 222.396 262.212 224.03 262.082C225.664 261.952 227.176 261.652 228.505 261.194L228.506 261.193C229.834 260.732 230.992 260.113 231.898 259.294L231.898 259.293C232.351 258.884 232.74 258.42 233.037 257.899L233.019 257.93L233.038 257.899C233.336 257.377 233.539 256.8 233.617 256.188L234.229 251.389C234.307 250.778 234.256 250.168 234.098 249.589ZM208.727 255.553C208.6 255.397 208.482 255.241 208.379 255.084C208.135 254.712 207.963 254.34 207.864 253.975C207.765 253.61 207.737 253.251 207.783 252.892L208.061 250.717C208.297 251.098 208.586 251.467 208.922 251.82C209.002 251.904 209.086 251.988 209.172 252.071L208.727 255.553ZM211.167 257.564C210.994 257.461 210.825 257.357 210.664 257.249C210.288 256.999 209.945 256.74 209.637 256.476L210.098 252.86C210.564 253.213 211.08 253.548 211.639 253.861L211.167 257.564ZM214.32 259.013C213.51 258.731 212.757 258.411 212.07 258.062L212.13 258.069L212.603 254.359C212.825 254.465 213.053 254.568 213.286 254.668C213.768 254.874 214.275 255.066 214.801 255.243L214.32 259.013ZM218.554 260.039C217.412 259.87 216.326 259.625 215.307 259.324L215.789 255.549C216.814 255.844 217.902 256.079 219.037 256.246L218.554 260.039ZM223.016 260.285C221.916 260.327 220.76 260.294 219.565 260.165L220.048 256.377C221.235 256.505 222.392 256.548 223.497 256.515L223.016 260.285ZM226.407 259.867C226.034 259.951 225.648 260.024 225.247 260.084C224.861 260.143 224.46 260.188 224.051 260.224L224.531 256.459C225.352 256.396 226.14 256.287 226.883 256.137L226.407 259.867ZM229.228 258.888C228.708 259.155 228.119 259.389 227.47 259.588L227.942 255.887C228.253 255.803 228.556 255.711 228.847 255.611C229.138 255.509 229.418 255.4 229.688 255.284L229.228 258.888ZM231.785 255.954C231.739 256.313 231.622 256.654 231.434 256.982C231.192 257.408 230.825 257.815 230.344 258.188L230.78 254.774L230.72 254.766C231.18 254.5 231.595 254.206 231.955 253.881C231.991 253.847 232.026 253.813 232.062 253.779L231.785 255.954L231.785 255.954ZM232.046 252.182C231.72 252.756 231.167 253.297 230.413 253.766C229.284 254.47 227.708 255.005 225.86 255.284C224.012 255.564 221.893 255.592 219.671 255.309C216.286 254.878 213.311 253.803 211.276 252.448C210.259 251.773 209.479 251.029 208.991 250.283C208.747 249.911 208.576 249.54 208.476 249.175C208.377 248.809 208.35 248.451 208.395 248.093C208.441 247.734 208.558 247.395 208.745 247.066C209.073 246.491 209.624 245.951 210.379 245.482C211.509 244.778 213.085 244.242 214.933 243.963C216.78 243.683 218.9 243.656 221.121 243.939C224.507 244.369 227.481 245.445 229.516 246.799C230.534 247.475 231.314 248.219 231.801 248.964C232.045 249.336 232.217 249.708 232.316 250.073C232.415 250.438 232.443 250.796 232.397 251.155C232.351 251.513 232.235 251.853 232.046 252.182Z" fill="white"/>
</g>
<g clip-path="url(#clip6_12576_28342)">
<path d="M141.177 180.49C140.879 179.48 140.276 178.431 139.418 177.395L139.42 177.395C137.71 175.325 134.995 173.312 131.668 171.821L131.658 171.817L131.659 171.817C129.473 170.84 127.293 170.209 125.294 169.921C123.294 169.632 121.48 169.685 120.013 170.079L120.016 170.078C119.036 170.341 118.217 170.756 117.607 171.333C117.259 171.66 116.982 172.044 116.79 172.474C116.632 172.827 116.79 173.242 117.144 173.4C117.498 173.558 117.912 173.4 118.07 173.046C118.186 172.789 118.345 172.565 118.571 172.351C118.961 171.979 119.567 171.649 120.377 171.433L120.379 171.433C121.589 171.104 123.24 171.038 125.093 171.309C126.948 171.575 129.013 172.169 131.086 173.098L131.119 173.113C134.264 174.52 136.816 176.437 138.337 178.288L138.339 178.289C139.105 179.212 139.609 180.12 139.832 180.886C139.945 181.271 139.992 181.62 139.983 181.93C139.972 182.317 140.276 182.639 140.663 182.651C141.051 182.662 141.373 182.357 141.384 181.97C141.398 181.492 141.327 180.996 141.177 180.49Z" fill="white"/>
<path d="M148.44 183.27C148.461 182.498 148.363 181.727 148.167 180.968C147.971 180.21 147.68 179.463 147.311 178.731L147.289 178.686L147.31 178.73C146.201 176.535 144.392 174.426 142.076 172.478L142.075 172.477C139.754 170.532 136.91 168.753 133.685 167.31C131.227 166.211 128.772 165.407 126.417 164.894C124.061 164.381 121.805 164.159 119.738 164.238L119.737 164.238C117.671 164.321 115.776 164.699 114.152 165.467L114.182 165.452L114.151 165.467C113.34 165.853 112.593 166.34 111.952 166.947C111.31 167.553 110.779 168.28 110.41 169.107L107.503 175.604C107.132 176.431 106.945 177.312 106.92 178.195C106.899 178.967 106.998 179.737 107.193 180.496C107.389 181.255 107.68 182.001 108.049 182.733L108.049 182.734C109.159 184.929 110.966 187.04 113.283 188.987L113.296 188.996C115.615 190.938 118.455 192.714 121.675 194.155L121.676 194.156C124.133 195.254 126.588 196.058 128.943 196.571C131.299 197.084 133.555 197.305 135.622 197.227L135.623 197.226C137.689 197.143 139.583 196.764 141.208 195.998L141.209 195.997C142.02 195.612 142.765 195.125 143.407 194.518L143.367 194.555L143.407 194.518C144.049 193.911 144.58 193.184 144.951 192.357L147.857 185.86C148.227 185.033 148.414 184.153 148.44 183.27ZM110.179 180.861C110.065 180.588 109.966 180.317 109.888 180.053C109.703 179.424 109.62 178.828 109.635 178.272C109.651 177.715 109.765 177.199 109.983 176.713L111.3 173.768C111.47 174.406 111.721 175.048 112.042 175.689C112.121 175.841 112.202 175.994 112.288 176.148L110.179 180.861ZM112.757 184.731C112.558 184.513 112.364 184.294 112.183 184.074C111.76 183.562 111.388 183.051 111.066 182.548L113.256 177.654C113.761 178.349 114.345 179.04 114.999 179.719L112.757 184.731ZM116.579 188.114C115.559 187.372 114.636 186.601 113.817 185.817L113.898 185.853L116.144 180.831C116.411 181.075 116.688 181.317 116.974 181.557C117.565 182.053 118.197 182.538 118.862 183.012L116.579 188.114ZM122.103 191.362C120.568 190.638 119.143 189.83 117.837 188.973L120.123 183.863C121.441 184.715 122.872 185.509 124.4 186.229L122.103 191.362ZM128.281 193.609C126.715 193.2 125.1 192.661 123.474 191.971L125.767 186.844C127.384 187.53 128.994 188.083 130.564 188.506L128.281 193.609ZM133.234 194.466C132.673 194.425 132.097 194.363 131.508 194.278C130.938 194.195 130.355 194.088 129.763 193.965L132.043 188.868C133.227 189.129 134.382 189.311 135.492 189.417L133.234 194.466ZM137.622 194.289C136.776 194.443 135.847 194.522 134.848 194.525L137.089 189.516C137.563 189.529 138.029 189.529 138.482 189.512C138.935 189.494 139.376 189.459 139.805 189.411L137.622 194.289ZM142.471 191.247C142.254 191.733 141.945 192.163 141.539 192.545C141.018 193.041 140.328 193.458 139.492 193.779L141.559 189.158L141.478 189.121C142.239 188.942 142.949 188.705 143.593 188.4C143.659 188.369 143.723 188.336 143.788 188.303L142.471 191.247L142.471 191.247ZM144.446 186.047C143.742 186.716 142.734 187.242 141.472 187.582C139.582 188.092 137.135 188.174 134.415 187.78C131.694 187.388 128.699 186.524 125.691 185.178C121.108 183.13 117.378 180.349 115.09 177.576C113.945 176.191 113.164 174.812 112.795 173.554C112.61 172.926 112.527 172.33 112.542 171.775C112.558 171.218 112.672 170.701 112.889 170.216C113.106 169.731 113.415 169.302 113.82 168.919C114.526 168.25 115.532 167.724 116.794 167.386C118.685 166.875 121.132 166.793 123.852 167.187C126.573 167.58 129.568 168.444 132.576 169.789C137.159 171.837 140.888 174.618 143.176 177.391C144.322 178.775 145.103 180.156 145.472 181.412C145.657 182.04 145.74 182.636 145.724 183.192C145.709 183.75 145.595 184.266 145.378 184.751C145.161 185.236 144.852 185.665 144.446 186.047Z" fill="white"/>
</g>
<path d="M302.059 142.226L305.08 143.027C305.16 143.044 305.223 143.108 305.242 143.187L306.038 146.209C306.06 146.298 306.138 146.36 306.229 146.36C306.32 146.36 306.397 146.298 306.419 146.209L307.215 143.187C307.232 143.108 307.297 143.044 307.376 143.027L310.398 142.226C310.487 142.208 310.55 142.128 310.55 142.038C310.55 141.948 310.487 141.871 310.398 141.852L307.376 141.05C307.297 141.033 307.232 140.971 307.215 140.891L306.419 137.868C306.397 137.78 306.32 137.718 306.229 137.718C306.138 137.718 306.06 137.78 306.038 137.868L305.242 140.891C305.223 140.971 305.16 141.033 305.08 141.05L302.059 141.852C301.969 141.871 301.907 141.948 301.907 142.038C301.907 142.128 301.969 142.208 302.059 142.226Z" fill="white"/>
<path d="M170.659 229.826L173.68 230.627C173.76 230.644 173.823 230.708 173.842 230.787L174.638 233.809C174.66 233.898 174.738 233.96 174.828 233.96C174.92 233.96 174.997 233.898 175.018 233.809L175.815 230.787C175.832 230.708 175.897 230.644 175.976 230.627L178.998 229.826C179.086 229.808 179.149 229.728 179.149 229.638C179.149 229.548 179.086 229.47 178.998 229.452L175.976 228.65C175.897 228.633 175.832 228.571 175.815 228.491L175.018 225.468C174.997 225.38 174.92 225.318 174.828 225.318C174.738 225.318 174.66 225.38 174.638 225.468L173.842 228.491C173.823 228.571 173.76 228.633 173.68 228.65L170.659 229.452C170.569 229.471 170.507 229.548 170.507 229.638C170.507 229.728 170.569 229.808 170.659 229.826Z" fill="white"/>
<path d="M158.431 104.626L167.183 106.948C167.411 106.995 167.597 107.181 167.649 107.411L169.956 116.163C170.019 116.42 170.245 116.6 170.507 116.6C170.773 116.6 170.996 116.42 171.056 116.163L173.367 107.411C173.416 107.182 173.602 106.995 173.831 106.948L182.584 104.626C182.84 104.578 183.022 104.35 183.022 104.087C183.022 103.821 182.84 103.598 182.584 103.546L173.831 101.225C173.602 101.176 173.416 100.992 173.367 100.762L171.056 92.0105C170.996 91.7559 170.773 91.5718 170.507 91.5718C170.245 91.5718 170.018 91.7559 169.956 92.0105L167.649 100.762C167.597 100.992 167.411 101.176 167.183 101.225L158.431 103.546C158.172 103.598 157.993 103.821 157.993 104.087C157.993 104.35 158.173 104.578 158.431 104.626Z" fill="white"/>
<path d="M282.565 234.754L286.794 235.876C286.904 235.899 286.994 235.989 287.019 236.1L288.134 240.328C288.164 240.452 288.273 240.54 288.4 240.54C288.528 240.54 288.636 240.452 288.665 240.328L289.782 236.1C289.805 235.989 289.895 235.899 290.006 235.876L294.235 234.754C294.358 234.731 294.446 234.621 294.446 234.493C294.446 234.365 294.358 234.257 294.235 234.232L290.006 233.111C289.895 233.087 289.805 232.998 289.782 232.887L288.665 228.659C288.636 228.536 288.528 228.447 288.4 228.447C288.273 228.447 288.164 228.536 288.134 228.659L287.019 232.887C286.994 232.998 286.904 233.087 286.794 233.111L282.565 234.232C282.441 234.257 282.354 234.365 282.354 234.493C282.354 234.621 282.441 234.731 282.565 234.754Z" fill="white"/>
<path d="M195.553 29.4049C194.623 29.4049 193.84 29.2595 193.202 28.9685C192.563 28.6682 192.08 28.2646 191.751 27.7578C191.423 27.2415 191.259 26.6502 191.259 25.9839H193.497C193.497 26.2467 193.568 26.4907 193.708 26.7159C193.859 26.9412 194.084 27.1242 194.384 27.265C194.684 27.3964 195.074 27.4621 195.553 27.4621C195.984 27.4621 196.346 27.4058 196.637 27.2932C196.928 27.1805 197.148 27.0257 197.298 26.8286C197.449 26.6221 197.524 26.3874 197.524 26.1246C197.524 25.7961 197.383 25.538 197.101 25.3503C196.82 25.1532 196.364 25.0265 195.736 24.9702L194.961 24.8998C193.938 24.8153 193.122 24.4962 192.512 23.9425C191.902 23.3887 191.597 22.6566 191.597 21.7462C191.597 21.0892 191.751 20.5214 192.061 20.0427C192.38 19.564 192.821 19.198 193.385 18.9446C193.948 18.6818 194.614 18.5504 195.384 18.5504C196.191 18.5504 196.881 18.6911 197.453 18.9727C198.035 19.2449 198.481 19.6344 198.791 20.1412C199.1 20.6387 199.255 21.2253 199.255 21.9011H197.003C197.003 21.6477 196.942 21.4177 196.82 21.2112C196.698 20.9953 196.515 20.8217 196.271 20.6903C196.036 20.5589 195.74 20.4932 195.384 20.4932C195.046 20.4932 194.76 20.5495 194.525 20.6621C194.3 20.7748 194.131 20.9296 194.018 21.1267C193.905 21.3145 193.849 21.5209 193.849 21.7462C193.849 22.0372 193.952 22.2906 194.159 22.5064C194.365 22.7223 194.703 22.849 195.173 22.8866L195.961 22.957C196.712 23.0227 197.373 23.1869 197.946 23.4497C198.519 23.7031 198.964 24.0551 199.283 24.5056C199.612 24.9467 199.776 25.4864 199.776 26.1246C199.776 26.7816 199.603 27.3589 199.255 27.8563C198.917 28.3444 198.434 28.7245 197.805 28.9967C197.176 29.2689 196.426 29.4049 195.553 29.4049ZM204.746 29.236C203.967 29.236 203.338 29.1421 202.859 28.9544C202.381 28.7573 202.029 28.4335 201.803 27.983C201.588 27.5231 201.48 26.9037 201.48 26.1246V19.3388H203.577V26.2091C203.577 26.5752 203.671 26.8567 203.859 27.0538C204.056 27.2415 204.333 27.3354 204.69 27.3354H205.83V29.236H204.746ZM200.311 23.0696V21.4224H205.83V23.0696H200.311ZM211.977 29.1375V26.8567H211.597V24.3789C211.597 23.9847 211.503 23.689 211.315 23.4919C211.128 23.2948 210.827 23.1963 210.414 23.1963C210.208 23.1963 209.936 23.201 209.598 23.2104C209.26 23.2198 208.913 23.2338 208.556 23.2526C208.199 23.2714 207.876 23.2902 207.585 23.3089V21.4083C207.801 21.3895 208.054 21.3708 208.345 21.352C208.636 21.3332 208.936 21.3191 209.246 21.3098C209.556 21.3004 209.847 21.2957 210.119 21.2957C210.907 21.2957 211.569 21.4083 212.104 21.6336C212.648 21.8588 213.061 22.2014 213.343 22.6613C213.624 23.1118 213.765 23.6937 213.765 24.4071V29.1375H211.977ZM209.513 29.3346C208.96 29.3346 208.472 29.236 208.049 29.0389C207.636 28.8418 207.312 28.5602 207.078 28.1942C206.843 27.8188 206.726 27.3729 206.726 26.8567C206.726 26.2936 206.871 25.8337 207.162 25.477C207.453 25.111 207.862 24.8435 208.387 24.6745C208.913 24.4962 209.518 24.4071 210.203 24.4071H211.85V25.66H210.189C209.795 25.66 209.49 25.7586 209.274 25.9557C209.068 26.1434 208.964 26.4015 208.964 26.73C208.964 27.0397 209.068 27.2932 209.274 27.4903C209.49 27.678 209.795 27.7718 210.189 27.7718C210.443 27.7718 210.668 27.7296 210.865 27.6451C211.071 27.5513 211.24 27.3964 211.372 27.1805C211.503 26.9647 211.578 26.6643 211.597 26.2795L212.132 26.8426C212.085 27.3776 211.954 27.8281 211.738 28.1942C211.531 28.5602 211.24 28.8418 210.865 29.0389C210.499 29.236 210.048 29.3346 209.513 29.3346ZM221.111 29.1375L218.675 25.5333H217.591L220.731 21.4224H223.096L220.139 25.2518L220.167 24.1536L223.645 29.1375H221.111ZM215.676 29.1375V18.8601H217.929V29.1375H215.676ZM225.034 29.1375V21.4224H227.287V29.1375H225.034ZM224.006 23.0837V21.4224H227.287V23.0837H224.006ZM225.907 20.6621C225.484 20.6621 225.17 20.5542 224.964 20.3383C224.766 20.1131 224.668 19.8315 224.668 19.4936C224.668 19.1464 224.766 18.8648 224.964 18.6489C225.17 18.4237 225.484 18.311 225.907 18.311C226.329 18.311 226.639 18.4237 226.836 18.6489C227.042 18.8648 227.146 19.1464 227.146 19.4936C227.146 19.8315 227.042 20.1131 226.836 20.3383C226.639 20.5542 226.329 20.6621 225.907 20.6621ZM229.37 29.1375V21.4224H231.158V24.7309H231.031C231.031 23.9425 231.13 23.2855 231.327 22.7599C231.533 22.2343 231.843 21.8401 232.256 21.5773C232.669 21.3145 233.171 21.1831 233.762 21.1831H233.861C234.762 21.1831 235.447 21.4787 235.916 22.07C236.395 22.6519 236.634 23.5389 236.634 24.7309V29.1375H234.382V24.6042C234.382 24.1912 234.26 23.8533 234.016 23.5905C233.772 23.3277 233.443 23.1963 233.03 23.1963C232.608 23.1963 232.265 23.3324 232.003 23.6046C231.749 23.8674 231.622 24.2146 231.622 24.6464V29.1375H229.37ZM241.595 32.2066C241.22 32.2066 240.835 32.1925 240.441 32.1643C240.046 32.1362 239.685 32.0986 239.356 32.0517V30.1511C239.685 30.198 240.046 30.2356 240.441 30.2637C240.844 30.3013 241.21 30.3201 241.539 30.3201C242.149 30.3201 242.641 30.2497 243.017 30.1089C243.402 29.9681 243.683 29.7522 243.862 29.4613C244.04 29.1797 244.129 28.8136 244.129 28.3631V26.8286L244.537 25.9275C244.519 26.6127 244.383 27.1993 244.129 27.6874C243.885 28.1754 243.542 28.5508 243.101 28.8136C242.66 29.0671 242.135 29.1938 241.525 29.1938C240.999 29.1938 240.52 29.0999 240.089 28.9122C239.666 28.7151 239.305 28.4429 239.004 28.0956C238.704 27.7484 238.474 27.3448 238.315 26.8849C238.155 26.4156 238.075 25.9088 238.075 25.3644V25.0406C238.075 24.4962 238.16 23.9894 238.329 23.5201C238.498 23.0508 238.742 22.6425 239.061 22.2953C239.38 21.948 239.76 21.6805 240.201 21.4928C240.642 21.2957 241.13 21.1971 241.665 21.1971C242.285 21.1971 242.82 21.3332 243.27 21.6054C243.73 21.8776 244.092 22.2765 244.354 22.8021C244.617 23.3277 244.758 23.9612 244.777 24.7027L244.467 24.7872V21.4224H246.255V28.2223C246.255 29.1703 246.086 29.9352 245.748 30.5172C245.41 31.0991 244.894 31.5261 244.199 31.7983C243.514 32.0705 242.646 32.2066 241.595 32.2066ZM242.228 27.2932C242.576 27.2932 242.89 27.2181 243.172 27.0679C243.453 26.9083 243.674 26.6831 243.833 26.3921C244.002 26.1012 244.087 25.7492 244.087 25.3362V24.928C244.087 24.5244 243.998 24.1865 243.819 23.9143C243.65 23.6327 243.425 23.4216 243.144 23.2808C242.862 23.1306 242.562 23.0555 242.243 23.0555C241.867 23.0555 241.534 23.1447 241.243 23.323C240.952 23.5013 240.727 23.7501 240.567 24.0692C240.408 24.3883 240.328 24.7637 240.328 25.1955C240.328 25.6366 240.408 26.0167 240.567 26.3358C240.736 26.6455 240.961 26.8849 241.243 27.0538C241.534 27.2134 241.862 27.2932 242.228 27.2932Z" fill="white"/>
<line y1="48.8838" x2="438" y2="48.8838" stroke="white" stroke-opacity="0.1" stroke-width="0.782143"/>
</g>
</g>
</g>
<defs>
<filter id="filter0_i_12576_28342" x="0" y="0" width="438" height="318.054" filterUnits="userSpaceOnUse" color-interpolation-filters="sRGB">
<feFlood flood-opacity="0" result="BackgroundImageFix"/>
<feBlend mode="normal" in="SourceGraphic" in2="BackgroundImageFix" result="shape"/>
<feColorMatrix in="SourceAlpha" type="matrix" values="0 0 0 0 0 0 0 0 0 0 0 0 0 0 0 0 0 0 127 0" result="hardAlpha"/>
<feOffset dy="4.05418"/>
<feGaussianBlur stdDeviation="8.61514"/>
<feComposite in2="hardAlpha" operator="arithmetic" k2="-1" k3="1"/>
<feColorMatrix type="matrix" values="0 0 0 0 1 0 0 0 0 1 0 0 0 0 1 0 0 0 0.06 0"/>
<feBlend mode="normal" in2="shape" result="effect1_innerShadow_12576_28342"/>
</filter>
<filter id="filter1_d_12576_28342" x="129.836" y="81.8185" width="178.329" height="178.329" filterUnits="userSpaceOnUse" color-interpolation-filters="sRGB">
<feFlood flood-opacity="0" result="BackgroundImageFix"/>
<feColorMatrix in="SourceAlpha" type="matrix" values="0 0 0 0 0 0 0 0 0 0 0 0 0 0 0 0 0 0 127 0" result="hardAlpha"/>
<feOffset dy="5.10787"/>
<feGaussianBlur stdDeviation="24.6375"/>
<feComposite in2="hardAlpha" operator="out"/>
<feColorMatrix type="matrix" values="0 0 0 0 0.933333 0 0 0 0 0.133333 0 0 0 0 0.2 0 0 0 0.77 0"/>
<feBlend mode="normal" in2="BackgroundImageFix" result="effect1_dropShadow_12576_28342"/>
<feBlend mode="normal" in="SourceGraphic" in2="effect1_dropShadow_12576_28342" result="shape"/>
</filter>
<clipPath id="clip0_12576_28342">
<rect width="438" height="299" fill="white"/>
</clipPath>
<clipPath id="clip1_12576_28342">
<rect width="438" height="314" rx="23.3116" fill="white"/>
</clipPath>
<clipPath id="clip2_12576_28342">
<rect x="179.111" y="125.986" width="79.7786" height="79.7786" rx="39.8893" fill="white"/>
</clipPath>
<clipPath id="clip3_12576_28342">
<rect width="19.8696" height="19.8696" fill="white" transform="translate(285.559 184.623) rotate(-38.0639)"/>
</clipPath>
<clipPath id="clip4_12576_28342">
<rect width="21.5331" height="21.5331" fill="white" transform="translate(266.186 86.0962) rotate(41.7395)"/>
</clipPath>
<clipPath id="clip5_12576_28342">
<rect width="30.2583" height="30.2583" fill="white" transform="translate(207.647 230.01) rotate(7.27037)"/>
</clipPath>
<clipPath id="clip6_12576_28342">
<rect width="44.508" height="44.508" fill="white" transform="translate(119.537 144.439) rotate(24.1023)"/>
</clipPath>
</defs>
</svg>
