<svg xmlns="http://www.w3.org/2000/svg" width="438" height="299" fill="none"><g clip-path="url(#a)" filter="url(#b)"><g clip-path="url(#c)"><rect width="438" height="314" fill="#fff" fill-opacity=".01" rx="23.312"/><g filter="url(#d)"><g clip-path="url(#e)"><circle cx="219" cy="165.875" r="39.889" fill="#332C43"/><path fill="#E23" d="M253.366 165.875c0 18.717-15.172 33.753-34.059 33.753-18.888 0-34.059-15.036-34.059-33.753s15.171-33.752 34.059-33.752c18.887 0 34.059 15.035 34.059 33.752Z"/><path fill="#fff" d="M203.206 195.639c5.264-7.978 10.837-15.956 16.41-23.934l16.101 23.934c.929-.307 1.548-.921 2.477-1.535.929-.613 1.548-.92 2.168-1.534-5.883-8.898-12.076-17.797-17.959-26.695h17.959v-5.523h-17.959v-5.83h17.959v-5.523h-41.8v5.523h17.958v5.83h-17.958v5.523h17.958l-17.958 26.695c.619.614 1.238.921 2.167 1.534.929.614 1.548 1.228 2.477 1.535Z"/></g></g><g fill="#fff" clip-path="url(#f)"><path d="m305.143 185.382-.966.414a.07.07 0 0 1-.076-.009l-.837-.634a.066.066 0 0 0-.082-.001.068.068 0 0 0-.019.08l.416.964a.075.075 0 0 1-.01.076l-.633.838a.063.063 0 0 0-.002.081.064.064 0 0 0 .079.018l.966-.414a.073.073 0 0 1 .076.009l.837.635a.066.066 0 0 0 .081 0 .065.065 0 0 0 .019-.079l-.415-.965a.072.072 0 0 1 .009-.076l.634-.838a.065.065 0 0 0 .001-.081.064.064 0 0 0-.078-.018Z"/><path d="M304.302 183.595c-.462-.093-1.001-.074-1.589.049v-.001c-1.173.244-2.534.896-3.816 1.899l-.003.003h-.001a10.865 10.865 0 0 0-2.075 2.117c-.531.729-.888 1.456-1.038 2.118v-.001c-.1.441-.107.851-.007 1.212.057.205.151.395.281.56a.313.313 0 1 0 .492-.386.98.98 0 0 1-.17-.342c-.065-.232-.069-.54.014-.905l.001-.001c.122-.546.44-1.211.933-1.887a10.221 10.221 0 0 1 1.956-1.992l.013-.01c1.211-.948 2.499-1.556 3.547-1.771l.001-.001c.524-.11.987-.119 1.337-.048.175.036.322.09.443.158a.313.313 0 0 0 .308-.544 2.088 2.088 0 0 0-.627-.227Z"/><path d="M306.913 181.307a3.72 3.72 0 0 0-.966-.372 4.993 4.993 0 0 0-1.061-.129h-.023l.022.001c-1.098-.02-2.307.254-3.559.763h-.001c-1.251.511-2.547 1.263-3.788 2.235a16.622 16.622 0 0 0-2.469 2.366c-.694.823-1.252 1.667-1.651 2.5h-.001c-.398.833-.643 1.66-.678 2.461v-.015l-.001.015c-.017.401.02.797.126 1.177s.282.741.531 1.059l1.959 2.502c.25.319.558.576.902.77.3.17.625.291.965.372.341.081.696.122 1.062.129 1.098.019 2.308-.254 3.56-.763l.006-.003c1.25-.511 2.543-1.262 3.783-2.233a16.72 16.72 0 0 0 2.469-2.366c.693-.823 1.251-1.667 1.651-2.5.398-.833.643-1.66.679-2.461v-.001a3.77 3.77 0 0 0-.126-1.176l.006.024-.006-.024a3.048 3.048 0 0 0-.531-1.06l-1.959-2.501a3.041 3.041 0 0 0-.901-.77Zm-8.926 14.602a3.624 3.624 0 0 1-.38-.053 2.575 2.575 0 0 1-.756-.272 1.816 1.816 0 0 1-.543-.462l-.888-1.134c.287.066.593.101.913.108.077.001.154 0 .233-.001l1.421 1.814Zm2.065-.211a7.22 7.22 0 0 1-1.215.213l-1.475-1.885c.38-.055.774-.141 1.179-.257l1.511 1.929Zm2.132-.803a11.73 11.73 0 0 1-1.483.611l.032-.024-1.515-1.934c.152-.054.305-.113.46-.176.319-.13.642-.279.967-.442l1.539 1.965Zm2.434-1.504c-.606.455-1.222.849-1.833 1.186l-1.541-1.968a16.334 16.334 0 0 0 1.826-1.195l1.548 1.977Zm2.174-1.971a15.607 15.607 0 0 1-1.648 1.557l-1.546-1.974a16.569 16.569 0 0 0 1.656-1.548l1.538 1.965Zm1.371-1.776a10.67 10.67 0 0 1-.434.642c-.151.207-.315.415-.487.623l-1.537-1.962c.35-.413.662-.831.936-1.247l1.522 1.944Zm.845-1.77c-.116.366-.278.75-.485 1.145l-1.51-1.929a8.825 8.825 0 0 0 .524-1.094l1.471 1.878Zm-.19-2.548c.146.187.251.399.318.638.087.31.108.669.06 1.066l-1.393-1.779-.031.024c.087-.338.142-.667.156-.985l.002-.097.888 1.133Zm-1.641-1.864c.117.418.115.925-.014 1.494-.193.853-.671 1.836-1.393 2.828-.722.992-1.688 1.995-2.846 2.902-1.763 1.382-3.639 2.275-5.211 2.6-.785.163-1.492.184-2.066.068a2.569 2.569 0 0 1-.755-.272 1.803 1.803 0 0 1-.543-.461 1.813 1.813 0 0 1-.318-.638c-.117-.418-.115-.925.015-1.494.192-.853.67-1.836 1.392-2.828.723-.992 1.688-1.994 2.846-2.901 1.764-1.383 3.639-2.275 5.211-2.6.785-.164 1.493-.185 2.065-.069.287.058.54.15.756.272a1.792 1.792 0 0 1 .861 1.099Z"/></g><g fill="#fff" clip-path="url(#g)"><path d="m269.133 107.131-.628-.951a.08.08 0 0 1-.005-.083l.517-1.014a.07.07 0 0 0-.103-.092l-.95.628a.078.078 0 0 1-.082.004l-1.016-.515a.068.068 0 0 0-.086.014.07.07 0 0 0-.005.088l.628.95a.08.08 0 0 1 .004.083l-.516 1.014a.072.072 0 0 0 .015.087.07.07 0 0 0 .088.005l.949-.627a.076.076 0 0 1 .083-.005l1.016.515a.07.07 0 0 0 .091-.101Z"/><path d="M270.878 105.89c.011-.51-.113-1.081-.357-1.685h.001c-.485-1.205-1.441-2.531-2.757-3.706l-.004-.003a11.738 11.738 0 0 0-2.656-1.808c-.88-.426-1.724-.668-2.458-.7h.001c-.49-.023-.929.048-1.295.225-.208.1-.392.236-.543.406a.339.339 0 1 0 .506.452c.091-.102.197-.182.333-.248.234-.114.562-.177.967-.158h.001c.606.026 1.377.238 2.192.634.816.395 1.681.971 2.5 1.703l.014.012c1.243 1.11 2.139 2.368 2.569 3.444v.001c.218.538.317 1.03.308 1.416a1.649 1.649 0 0 1-.083.504.339.339 0 1 0 .64.224c.076-.219.116-.458.121-.713Z"/><path d="M273.819 108.237c.123-.353.191-.723.212-1.102a5.406 5.406 0 0 0-.067-1.157l-.004-.023.004.023c-.19-1.175-.715-2.412-1.497-3.65-.785-1.237-1.836-2.475-3.111-3.613a18.073 18.073 0 0 0-2.997-2.18c-1.011-.581-2.019-1.014-2.983-1.28h-.001c-.965-.265-1.893-.369-2.755-.253l.016-.002-.016.002a4.098 4.098 0 0 0-1.231.36 3.285 3.285 0 0 0-1.028.77l-2.292 2.57a3.273 3.273 0 0 0-.649 1.109c-.123.352-.19.722-.211 1.1-.021.379.003.766.066 1.157v.001c.19 1.175.714 2.413 1.497 3.65l.004.006c.785 1.235 1.834 2.471 3.107 3.607h.001a18.028 18.028 0 0 0 2.996 2.179c1.011.582 2.019 1.015 2.983 1.282h.001c.965.264 1.894.367 2.755.252h.001c.43-.059.845-.174 1.23-.36l-.024.011.024-.011a3.297 3.297 0 0 0 1.029-.77l2.292-2.57c.292-.327.507-.705.648-1.108Zm-17.287-6.719a3.704 3.704 0 0 1-.016-.416c.007-.317.056-.604.145-.858s.217-.476.388-.668l1.04-1.164a4.843 4.843 0 0 0 .106 1.242l-1.663 1.864Zm.621 2.162a7.58 7.58 0 0 1-.168-.388 7.362 7.362 0 0 1-.291-.867l1.726-1.935c.132.394.3.798.501 1.208l-1.768 1.982Zm1.266 2.12a12.994 12.994 0 0 1-.936-1.464l.032.028 1.772-1.986a14.585 14.585 0 0 0 .933 1.404l-1.801 2.018Zm2.071 2.307a17.028 17.028 0 0 1-1.617-1.727l1.804-2.021a17.663 17.663 0 0 0 1.625 1.718l-1.812 2.03Zm2.519 1.942a16.974 16.974 0 0 1-1.976-1.461l1.809-2.027a17.846 17.846 0 0 0 1.968 1.469l-1.801 2.019Zm2.158 1.121a11.51 11.51 0 0 1-.768-.34 14.26 14.26 0 0 1-.758-.4l1.798-2.016a13.85 13.85 0 0 0 1.51.759l-1.782 1.997Zm2.05.561a7.742 7.742 0 0 1-1.314-.297l1.767-1.981a9.195 9.195 0 0 0 1.268.349l-1.721 1.929Zm2.681-.691a1.95 1.95 0 0 1-.62.462 2.965 2.965 0 0 1-1.125.268l1.631-1.827-.032-.029a5.16 5.16 0 0 0 1.081-.022l.104-.017-1.039 1.165Zm1.673-2.108c-.423.205-.965.3-1.596.271-.947-.041-2.087-.362-3.283-.943-1.197-.58-2.452-1.417-3.641-2.478-1.813-1.616-3.125-3.445-3.773-5.059-.325-.807-.483-1.557-.469-2.19.007-.318.056-.605.144-.859.089-.254.218-.475.389-.667.171-.192.376-.344.619-.462.423-.205.965-.3 1.596-.27.947.041 2.087.362 3.283.942 1.197.58 2.452 1.418 3.641 2.479 1.813 1.616 3.125 3.445 3.773 5.059.325.806.483 1.557.469 2.19a2.775 2.775 0 0 1-.145.858 1.938 1.938 0 0 1-1.007 1.129Z"/></g><g fill="#fff" clip-path="url(#h)"><path d="m227.789 252.034-1.482-.602a.111.111 0 0 1-.072-.092l-.208-1.586a.1.1 0 0 0-.193-.025l-.601 1.483a.107.107 0 0 1-.092.071l-1.586.211a.097.097 0 0 0-.089.085.097.097 0 0 0 .065.105l1.482.602a.11.11 0 0 1 .072.093l.208 1.585a.102.102 0 0 0 .087.089.099.099 0 0 0 .106-.065l.601-1.482a.108.108 0 0 1 .092-.071l1.586-.211a.098.098 0 0 0 .024-.19Z"/><path d="M228.826 249.209c-.393-.599-.992-1.162-1.754-1.668h.001c-1.52-1.01-3.683-1.786-6.142-2.101h-.007v-.001c-1.615-.205-3.157-.187-4.515.019-1.357.206-2.528.598-3.405 1.143l.002-.001c-.586.364-1.037.795-1.321 1.291a2.42 2.42 0 0 0-.306.903.476.476 0 1 0 .945.12 1.47 1.47 0 0 1 .189-.551c.181-.318.51-.653.995-.952l.001-.001c.723-.452 1.784-.82 3.043-1.009 1.26-.192 2.72-.211 4.252-.016l.025.004c2.323.296 4.361 1.041 5.715 1.946l.001.001c.681.45 1.187.941 1.483 1.396.15.228.249.446.304.649a.476.476 0 0 0 .92-.249 3.235 3.235 0 0 0-.426-.923Z"/><path d="M234.098 249.589a5.667 5.667 0 0 0-.63-1.445 7.695 7.695 0 0 0-.998-1.287l-.023-.025.023.025c-1.154-1.211-2.747-2.227-4.637-3.038l-.001-.001c-1.893-.808-4.094-1.406-6.477-1.71a25.37 25.37 0 0 0-5.205-.142c-1.634.13-3.146.43-4.475.888l-.001.001c-1.328.46-2.486 1.079-3.392 1.899l.017-.016-.017.016c-.453.41-.842.875-1.14 1.396a4.619 4.619 0 0 0-.579 1.709l-.612 4.8a4.618 4.618 0 0 0 .131 1.801c.138.506.354.988.63 1.443.277.456.614.884.997 1.287l.001.001c1.154 1.21 2.746 2.227 4.637 3.038l.01.004c1.891.807 4.089 1.404 6.468 1.708 1.816.231 3.571.271 5.205.141 1.634-.13 3.146-.43 4.475-.888l.001-.001c1.328-.461 2.486-1.08 3.392-1.899v-.001a5.672 5.672 0 0 0 1.139-1.394l-.018.031.019-.031a4.629 4.629 0 0 0 .579-1.711l.612-4.799a4.612 4.612 0 0 0-.131-1.8Zm-25.371 5.964a5.724 5.724 0 0 1-.348-.469 3.894 3.894 0 0 1-.515-1.109 2.754 2.754 0 0 1-.081-1.083l.278-2.175c.236.381.525.75.861 1.103.08.084.164.168.25.251l-.445 3.482Zm2.44 2.011a11.07 11.07 0 0 1-1.53-1.088l.461-3.616c.466.353.982.688 1.541 1.001l-.472 3.703Zm3.153 1.449a18.155 18.155 0 0 1-2.25-.951l.06.007.473-3.71a18.732 18.732 0 0 0 2.198.884l-.481 3.77Zm4.234 1.026a23.736 23.736 0 0 1-3.247-.715l.482-3.775c1.025.295 2.113.53 3.248.697l-.483 3.793Zm4.462.246c-1.1.042-2.256.009-3.451-.12l.483-3.788c1.187.128 2.344.171 3.449.138l-.481 3.77Zm3.391-.418c-.373.084-.759.157-1.16.217-.386.059-.787.104-1.196.14l.48-3.765a19.421 19.421 0 0 0 2.352-.322l-.476 3.73Zm2.821-.979c-.52.267-1.109.501-1.758.7l.472-3.701c.311-.084.614-.176.905-.276.291-.102.571-.211.841-.327l-.46 3.604Zm2.557-2.934a2.75 2.75 0 0 1-.351 1.028c-.242.426-.609.833-1.09 1.206l.436-3.414-.06-.008c.46-.266.875-.56 1.235-.885l.107-.102-.277 2.175Zm.261-3.772c-.326.574-.879 1.115-1.633 1.584-1.129.704-2.705 1.239-4.553 1.518-1.848.28-3.967.308-6.189.025-3.385-.431-6.36-1.506-8.395-2.861-1.017-.675-1.797-1.419-2.285-2.165a3.916 3.916 0 0 1-.515-1.108 2.77 2.77 0 0 1-.081-1.082c.046-.359.163-.698.35-1.027.328-.575.879-1.115 1.634-1.584 1.13-.704 2.706-1.24 4.554-1.519 1.847-.28 3.967-.307 6.188-.024 3.386.43 6.36 1.506 8.395 2.86 1.018.676 1.798 1.42 2.285 2.165.244.372.416.744.515 1.109.099.365.127.723.081 1.082a2.74 2.74 0 0 1-.351 1.027Z"/></g><g fill="#fff" clip-path="url(#i)"><path d="M141.177 180.49c-.298-1.01-.901-2.059-1.759-3.095h.002c-1.71-2.07-4.425-4.083-7.752-5.574l-.01-.004h.001c-2.186-.977-4.366-1.608-6.365-1.896-2-.289-3.814-.236-5.281.158l.003-.001c-.98.263-1.799.678-2.409 1.255a3.55 3.55 0 0 0-.817 1.141.7.7 0 1 0 1.28.572 2.16 2.16 0 0 1 .501-.695c.39-.372.996-.702 1.806-.918h.002c1.21-.329 2.861-.395 4.714-.124 1.855.266 3.92.86 5.993 1.789l.033.015c3.145 1.407 5.697 3.324 7.218 5.175l.002.001c.766.923 1.27 1.831 1.493 2.597.113.385.16.734.151 1.044a.701.701 0 1 0 1.401.04 4.722 4.722 0 0 0-.207-1.48Z"/><path d="M148.44 183.27a8.294 8.294 0 0 0-.273-2.302 11.222 11.222 0 0 0-.856-2.237l-.022-.045.021.044c-1.109-2.195-2.918-4.304-5.234-6.252l-.001-.001c-2.321-1.945-5.165-3.724-8.39-5.167-2.458-1.099-4.913-1.903-7.268-2.416-2.356-.513-4.612-.735-6.679-.656h-.001c-2.066.083-3.961.461-5.585 1.229l.03-.015-.031.015a8.468 8.468 0 0 0-2.199 1.48 6.762 6.762 0 0 0-1.542 2.16l-2.907 6.497a6.785 6.785 0 0 0-.583 2.591 8.325 8.325 0 0 0 .273 2.301 11.2 11.2 0 0 0 .856 2.237v.001c1.11 2.195 2.917 4.306 5.234 6.253l.013.009c2.319 1.942 5.159 3.718 8.379 5.159l.001.001c2.457 1.098 4.912 1.902 7.267 2.415 2.356.513 4.612.734 6.679.656l.001-.001c2.066-.083 3.96-.462 5.585-1.228l.001-.001a8.452 8.452 0 0 0 2.198-1.479l-.04.037.04-.037a6.814 6.814 0 0 0 1.544-2.161l2.906-6.497c.37-.827.557-1.707.583-2.59Zm-38.261-2.409a7.98 7.98 0 0 1-.291-.808 5.77 5.77 0 0 1-.253-1.781 4.04 4.04 0 0 1 .348-1.559l1.317-2.945a10.135 10.135 0 0 0 .988 2.38l-2.109 4.713Zm2.578 3.87a15.651 15.651 0 0 1-1.691-2.183l2.19-4.894a19.614 19.614 0 0 0 1.743 2.065l-2.242 5.012Zm3.822 3.383a26.76 26.76 0 0 1-2.762-2.297l.081.036 2.246-5.022c.267.244.544.486.83.726a30.26 30.26 0 0 0 1.888 1.455l-2.283 5.102Zm5.524 3.248a34.988 34.988 0 0 1-4.266-2.389l2.286-5.11a36.7 36.7 0 0 0 4.277 2.366l-2.297 5.133Zm6.178 2.247a34.887 34.887 0 0 1-4.807-1.638l2.293-5.127a36.883 36.883 0 0 0 4.797 1.662l-2.283 5.103Zm4.953.857a24.685 24.685 0 0 1-1.726-.188c-.57-.083-1.153-.19-1.745-.313l2.28-5.097c1.184.261 2.339.443 3.449.549l-2.258 5.049Zm4.388-.177c-.846.154-1.775.233-2.774.236l2.241-5.009a18.492 18.492 0 0 0 2.716-.105l-2.183 4.878Zm4.849-3.042a4.014 4.014 0 0 1-.932 1.298c-.521.496-1.211.913-2.047 1.234l2.067-4.621-.081-.037a10.624 10.624 0 0 0 2.115-.721c.066-.031.13-.064.195-.097l-1.317 2.944Zm1.975-5.2c-.704.669-1.712 1.195-2.974 1.535-1.89.51-4.337.592-7.057.198-2.721-.392-5.716-1.256-8.724-2.602-4.583-2.048-8.313-4.829-10.601-7.602-1.145-1.385-1.926-2.764-2.295-4.022a5.758 5.758 0 0 1-.253-1.779c.016-.557.13-1.074.347-1.559.217-.485.526-.914.931-1.297.706-.669 1.712-1.195 2.974-1.533 1.891-.511 4.338-.593 7.058-.199 2.721.393 5.716 1.257 8.724 2.602 4.583 2.048 8.312 4.829 10.6 7.602 1.146 1.384 1.927 2.765 2.296 4.021.185.628.268 1.224.252 1.78a4.03 4.03 0 0 1-.346 1.559 4.016 4.016 0 0 1-.932 1.296Z"/></g><path fill="#fff" d="m302.059 142.226 3.021.801c.08.017.143.081.162.16l.796 3.022a.195.195 0 0 0 .381 0l.796-3.022a.212.212 0 0 1 .161-.16l3.022-.801a.192.192 0 0 0 .152-.188.19.19 0 0 0-.152-.186l-3.022-.802a.21.21 0 0 1-.161-.159l-.796-3.023a.196.196 0 0 0-.381 0l-.796 3.023a.212.212 0 0 1-.162.159l-3.021.802a.19.19 0 0 0 0 .374ZM170.659 229.826l3.021.801c.08.017.143.081.162.16l.796 3.022c.022.089.1.151.19.151a.194.194 0 0 0 .19-.151l.797-3.022a.212.212 0 0 1 .161-.16l3.022-.801a.192.192 0 0 0 0-.374l-3.022-.802a.21.21 0 0 1-.161-.159l-.797-3.023a.194.194 0 0 0-.19-.15.197.197 0 0 0-.19.15l-.796 3.023a.212.212 0 0 1-.162.159l-3.021.802a.19.19 0 0 0 0 .374ZM158.431 104.626l8.752 2.322a.614.614 0 0 1 .466.463l2.307 8.752a.568.568 0 0 0 .551.437.56.56 0 0 0 .549-.437l2.311-8.752a.608.608 0 0 1 .464-.463l8.753-2.322a.544.544 0 0 0 .438-.539.547.547 0 0 0-.438-.541l-8.753-2.321a.609.609 0 0 1-.464-.463l-2.311-8.752a.564.564 0 0 0-1.1 0l-2.307 8.752a.617.617 0 0 1-.466.463l-8.752 2.321a.544.544 0 0 0-.438.541c0 .263.18.491.438.539ZM282.565 234.754l4.229 1.122c.11.023.2.113.225.224l1.115 4.228a.272.272 0 0 0 .531 0l1.117-4.228a.292.292 0 0 1 .224-.224l4.229-1.122a.263.263 0 0 0 .211-.261.264.264 0 0 0-.211-.261l-4.229-1.121a.294.294 0 0 1-.224-.224l-1.117-4.228a.273.273 0 0 0-.265-.212.276.276 0 0 0-.266.212l-1.115 4.228a.3.3 0 0 1-.225.224l-4.229 1.121a.263.263 0 0 0-.211.261c0 .128.087.238.211.261ZM195.553 29.405c-.93 0-1.713-.146-2.351-.437-.639-.3-1.122-.703-1.451-1.21-.328-.517-.492-1.108-.492-1.774h2.238c0 .263.071.507.211.732.151.225.376.408.676.549.3.131.69.197 1.169.197.431 0 .793-.056 1.084-.169.291-.113.511-.267.661-.464.151-.207.226-.442.226-.704a.883.883 0 0 0-.423-.775c-.281-.197-.737-.324-1.365-.38l-.775-.07c-1.023-.085-1.839-.404-2.449-.957-.61-.554-.915-1.286-.915-2.197 0-.657.154-1.225.464-1.703.319-.479.76-.845 1.324-1.098.563-.263 1.229-.395 1.999-.395.807 0 1.497.141 2.069.423.582.272 1.028.661 1.338 1.168.309.498.464 1.084.464 1.76h-2.252a1.34 1.34 0 0 0-.732-1.21c-.235-.132-.531-.198-.887-.198-.338 0-.624.056-.859.17a1.168 1.168 0 0 0-.507.464 1.178 1.178 0 0 0-.169.62c0 .29.103.544.31.76.206.215.544.342 1.014.38l.788.07c.751.066 1.412.23 1.985.493.573.253 1.018.605 1.337 1.056.329.44.493.98.493 1.619 0 .657-.173 1.234-.521 1.731-.338.488-.821.868-1.45 1.14-.629.273-1.379.409-2.252.409Zm9.193-.169c-.779 0-1.408-.094-1.887-.282a1.989 1.989 0 0 1-1.056-.971c-.215-.46-.323-1.08-.323-1.858v-6.786h2.097v6.87c0 .366.094.648.282.845.197.188.474.281.831.281h1.14v1.901h-1.084Zm-4.435-6.166v-1.648h5.519v1.648h-5.519Zm11.666 6.067v-2.28h-.38v-2.478c0-.394-.094-.69-.282-.887-.187-.197-.488-.296-.901-.296a42.032 42.032 0 0 0-1.858.056c-.357.02-.68.038-.971.057v-1.9c.216-.02.469-.038.76-.057a28.896 28.896 0 0 1 1.774-.056c.788 0 1.45.112 1.985.338.544.225.957.567 1.239 1.027.281.45.422 1.033.422 1.746v4.73h-1.788Zm-2.464.198c-.553 0-1.041-.099-1.464-.296a2.3 2.3 0 0 1-.971-.845c-.235-.375-.352-.821-.352-1.337 0-.563.145-1.023.436-1.38.291-.366.7-.634 1.225-.803.526-.178 1.131-.267 1.816-.267h1.647v1.253h-1.661c-.394 0-.699.099-.915.296-.206.187-.31.445-.31.774 0 .31.104.563.31.76.216.188.521.282.915.282a1.7 1.7 0 0 0 .676-.127c.206-.094.375-.249.507-.465.131-.215.206-.516.225-.9l.535.563c-.047.535-.178.985-.394 1.351a2.11 2.11 0 0 1-.873.845c-.366.197-.817.296-1.352.296Zm11.598-.198-2.436-3.604h-1.084l3.14-4.11h2.365l-2.957 3.829.028-1.098 3.478 4.983h-2.534Zm-5.435 0V18.86h2.253v10.277h-2.253Zm9.358 0v-7.715h2.253v7.715h-2.253Zm-1.028-6.053v-1.662h3.281v1.662h-3.281Zm1.901-2.422c-.423 0-.737-.108-.943-.324-.198-.225-.296-.507-.296-.844 0-.348.098-.63.296-.845.206-.225.52-.338.943-.338.422 0 .732.113.929.338.206.216.31.497.31.845 0 .337-.104.62-.31.844-.197.216-.507.324-.929.324Zm3.463 8.476v-7.716h1.788v3.309h-.127c0-.789.099-1.446.296-1.971.206-.526.516-.92.929-1.183.413-.263.915-.394 1.506-.394h.099c.901 0 1.586.296 2.055.887.479.582.718 1.469.718 2.66v4.407h-2.252v-4.533c0-.413-.122-.75-.366-1.014-.244-.262-.573-.394-.986-.394-.422 0-.765.136-1.027.409-.254.262-.381.61-.381 1.041v4.491h-2.252Zm12.225 3.069c-.375 0-.76-.014-1.154-.043a15.522 15.522 0 0 1-1.085-.112v-1.9c.329.046.69.084 1.085.112.403.037.769.056 1.098.056.61 0 1.102-.07 1.478-.211.385-.14.666-.357.845-.648.178-.281.267-.647.267-1.098V26.83l.408-.902c-.018.686-.154 1.272-.408 1.76a2.662 2.662 0 0 1-1.028 1.127c-.441.253-.966.38-1.576.38a3.56 3.56 0 0 1-1.436-.282 3.215 3.215 0 0 1-1.085-.816 3.66 3.66 0 0 1-.689-1.211c-.16-.47-.24-.976-.24-1.52v-.324c0-.545.085-1.052.254-1.52a3.58 3.58 0 0 1 .732-1.226 3.265 3.265 0 0 1 1.14-.802 3.548 3.548 0 0 1 1.464-.296c.62 0 1.155.136 1.605.408.46.273.822.671 1.084 1.197.263.526.404 1.16.423 1.9l-.31.085v-3.365h1.788v6.8c0 .948-.169 1.713-.507 2.295-.338.582-.854 1.01-1.549 1.281-.685.273-1.553.409-2.604.409Zm.633-4.914c.348 0 .662-.075.944-.225.281-.16.502-.385.661-.676.169-.29.254-.643.254-1.056v-.408c0-.404-.089-.742-.268-1.014a1.626 1.626 0 0 0-.675-.633 1.888 1.888 0 0 0-.901-.226c-.376 0-.709.09-1 .268a1.8 1.8 0 0 0-.676.746c-.159.32-.239.695-.239 1.127 0 .44.08.82.239 1.14.169.31.394.549.676.718.291.16.619.24.985.24Z"/><path stroke="#fff" stroke-opacity=".1" stroke-width=".782" d="M0 48.884h438"/></g></g><defs><clipPath id="a"><path fill="#fff" d="M0 0h438v299H0z"/></clipPath><clipPath id="c"><rect width="438" height="314" fill="#fff" rx="23.312"/></clipPath><clipPath id="e"><rect width="79.779" height="79.779" x="179.111" y="125.986" fill="#fff" rx="39.889"/></clipPath><clipPath id="f"><path fill="#fff" d="m285.559 184.623 15.644-12.25 12.25 15.643-15.643 12.251z"/></clipPath><clipPath id="g"><path fill="#fff" d="m266.186 86.096 16.067 14.336-14.335 16.067-16.067-14.335z"/></clipPath><clipPath id="h"><path fill="#fff" d="m207.647 230.01 30.015 3.83-3.83 30.014-30.014-3.83z"/></clipPath><clipPath id="i"><path fill="#fff" d="m119.537 144.439 40.628 18.176-18.176 40.627-40.628-18.175z"/></clipPath><filter id="b" width="438" height="318.054" x="0" y="0" color-interpolation-filters="sRGB" filterUnits="userSpaceOnUse"><feFlood flood-opacity="0" result="BackgroundImageFix"/><feBlend in="SourceGraphic" in2="BackgroundImageFix" result="shape"/><feColorMatrix in="SourceAlpha" result="hardAlpha" values="0 0 0 0 0 0 0 0 0 0 0 0 0 0 0 0 0 0 127 0"/><feOffset dy="4.054"/><feGaussianBlur stdDeviation="8.615"/><feComposite in2="hardAlpha" k2="-1" k3="1" operator="arithmetic"/><feColorMatrix values="0 0 0 0 1 0 0 0 0 1 0 0 0 0 1 0 0 0 0.06 0"/><feBlend in2="shape" result="effect1_innerShadow_12576_28342"/></filter><filter id="d" width="178.329" height="178.329" x="129.836" y="81.819" color-interpolation-filters="sRGB" filterUnits="userSpaceOnUse"><feFlood flood-opacity="0" result="BackgroundImageFix"/><feColorMatrix in="SourceAlpha" result="hardAlpha" values="0 0 0 0 0 0 0 0 0 0 0 0 0 0 0 0 0 0 127 0"/><feOffset dy="5.108"/><feGaussianBlur stdDeviation="24.637"/><feComposite in2="hardAlpha" operator="out"/><feColorMatrix values="0 0 0 0 0.933333 0 0 0 0 0.133333 0 0 0 0 0.2 0 0 0 0.77 0"/><feBlend in2="BackgroundImageFix" result="effect1_dropShadow_12576_28342"/><feBlend in="SourceGraphic" in2="effect1_dropShadow_12576_28342" result="shape"/></filter></defs></svg>