<svg width="24" height="24" viewBox="0 0 24 24" fill="none" xmlns="http://www.w3.org/2000/svg">
<g clip-path="url(#clip0_1136_12124)">
<circle cx="12" cy="12" r="12" fill="#1C324F"/>
<mask id="mask0_1136_12124" style="mask-type:alpha" maskUnits="userSpaceOnUse" x="0" y="0" width="24" height="24">
<circle cx="12" cy="12" r="12" fill="#1C324F"/>
</mask>
<g mask="url(#mask0_1136_12124)">
<path d="M11.9999 22.9083C18.0248 22.9083 22.909 18.0241 22.909 11.9992C22.909 5.97427 18.0248 1.09009 11.9999 1.09009C5.97497 1.09009 1.09082 5.97427 1.09082 11.9992C1.09082 18.0241 5.97497 22.9083 11.9999 22.9083Z" fill="#ECF3FF"/>
<path d="M9.05453 5.34551L5.23633 3.81825V4.36371L8.50905 7.30915L8.29089 10.3637L7.30905 14.5091L5.99997 16.3637L6.32725 18.9819L7.96361 19.2001L9.27269 18.9819L10.5818 19.2001L12.8727 17.7819L13.309 15.491L16.0363 12.8728L17.2363 13.7455L18.4363 15.491V18.9819L20.0727 18.5455L21.709 14.9455L22.1454 10.3637L16.2545 1.74552L15.2727 1.52734L9.05453 5.34551Z" fill="white"/>
<path d="M3.27272 11.6502C3.31636 11.2793 3.33817 10.9084 3.44726 10.5593C3.75272 9.11929 4.34181 7.74473 5.21455 6.63201C5.36727 6.43565 5.49819 6.26109 5.67271 6.08653L4.69091 5.17017C4.51636 5.43201 4.34181 5.69381 4.18908 5.95565C3.38181 7.35201 2.94544 8.92288 2.83636 10.472C2.79272 10.8647 2.81454 11.2574 2.81454 11.6284C2.81454 12.0211 2.85817 12.392 2.92363 12.7847C3.03272 13.5484 3.22908 14.2902 3.4909 14.9884C3.31636 14.2465 3.22908 13.5047 3.20726 12.7411C3.20726 12.392 3.20726 12.0211 3.27272 11.6502Z" fill="#94A6C4"/>
<path d="M7.74538 4.58196C7.19995 4.32015 6.43631 3.97105 5.89087 3.70923C6.39267 3.22923 7.30903 2.72742 8.07267 2.40015C7.52723 2.83651 7.52723 3.75287 7.74538 4.58196Z" fill="#94A6C4"/>
<path d="M5.54171 8.29029C5.23627 9.05393 5.03991 9.86121 4.97447 10.6466C4.95263 10.843 4.93083 11.0394 4.95263 11.2358C4.95263 11.4321 4.95263 11.6285 4.97447 11.8248L4.99627 12.1303C4.99627 12.2176 5.01812 12.3266 5.03991 12.4139L5.12719 13.003L5.14899 12.4139C5.14899 12.3266 5.14899 12.2176 5.17083 12.1303L5.21448 11.8466C5.23627 11.6503 5.27991 11.4539 5.30171 11.2794C5.32355 11.083 5.38899 10.9085 5.43263 10.7339C5.62899 9.99213 5.95627 9.31577 6.34899 8.68301C6.61084 8.26849 6.91627 7.89757 7.24355 7.54849L6.39263 6.74121C6.02171 7.24301 5.75991 7.74485 5.54171 8.29029Z" fill="#94A6C4"/>
<path d="M18.1745 4.55936C17.0181 4.14481 16.5599 4.27572 16.5599 4.27572C16.5599 4.27572 15.8399 6.21752 13.0908 6.34845C13.1126 6.37024 15.5781 7.81024 18.1745 4.55936Z" fill="#94A6C4"/>
<path d="M18.9599 8.42114C18.8509 10.8211 16.9963 11.7157 15.5563 11.5411C14.7709 11.4321 13.6145 11.803 13.6145 11.803L12.1527 14.3339L11.6727 14.5084L12.5017 12.9811C12.5017 12.9811 10.5381 13.7011 10.3854 13.7666C10.2327 13.8321 9.62174 14.7266 9.11994 15.6648C9.01086 15.0102 8.5963 14.5521 8.5963 14.5302C8.5963 14.6393 8.81451 16.603 8.57451 17.1484C8.33451 17.7157 7.26538 18.0866 7.26538 18.0866L8.8363 18.6757L8.94538 18.7193L10.1236 17.6066L10.5599 15.9484L11.1054 15.5557C11.1054 15.5557 12.4581 15.403 12.2617 16.6248C12.1745 17.2139 11.5199 17.1702 10.7781 17.6284C10.3417 17.8902 9.77451 18.3048 9.49087 18.5884L10.2763 19.1557C10.2763 19.1557 11.2145 19.003 12.5454 17.9557C13.8981 16.8648 13.2217 15.6866 13.2217 15.6866L15.4254 13.0466L16.8654 13.1557C16.8654 13.1557 19.3527 13.7884 20.1599 16.1448C21.7745 11.6284 19.1781 8.63935 18.9599 8.42114Z" fill="#94A6C4"/>
<path d="M21.4908 6.54549C21.8836 6.72005 22.189 6.9811 22.4726 7.2211C20.509 0.41383 14.1381 1.17747 14.0072 1.2211C14.1599 0.981102 14.7272 0.610194 15.2508 0.41383C15.2508 0.41383 12.5453 -0.54617 10.0799 1.15565C10.1236 0.762922 10.6036 0.17383 10.6036 0.17383C7.19991 1.63641 6.98171 3.38187 7.63627 4.42837C7.09083 4.16656 6.54535 3.92656 5.99991 3.66474C4.31991 2.85747 2.87991 2.1811 2.79264 2.15929C2.63991 2.11565 2.57446 2.1811 2.57446 2.1811C2.57446 2.1811 2.509 2.24656 2.63991 2.37747C4.62536 4.36292 5.89083 5.56369 8.00719 7.50474C7.65812 8.29018 7.61447 8.68294 7.78899 9.09746C8.02899 9.66474 8.00719 9.94838 7.91991 10.3193C7.81083 10.6902 6.93812 13.9847 6.78535 14.3557C6.63263 14.7484 5.47627 16.0575 5.45447 16.4938C5.43263 16.9302 5.78171 18.8502 6.26171 19.1338C6.63263 19.3302 7.52719 19.7447 8.18171 19.832C8.39991 19.8757 8.61811 19.8538 8.72719 19.7666C9.16355 19.4829 9.27263 19.4393 9.55627 19.4611L9.62171 19.4829C9.73083 19.5047 9.86171 19.5484 10.0363 19.5702C10.4072 19.6138 10.8872 19.6138 11.2799 19.352C11.8472 18.9157 12.8072 18.3702 13.1345 18.0865C13.5272 17.6938 13.789 17.1484 13.789 16.5375C13.789 15.992 14.1599 15.5557 14.5745 15.1193C14.9672 14.7265 15.949 13.7665 16.3417 13.352C17.3453 13.7011 17.7163 15.1411 17.7163 15.9266C17.7163 18.1084 15.949 21.2938 11.8908 21.5338C11.7381 21.5338 11.5853 21.5557 11.4108 21.5557C6.13083 21.5557 1.81082 16.8865 1.81082 11.4102C1.81082 7.09018 4.40648 4.16484 4.4283 4.14302C2.33375 6.12849 1.09082 8.9011 1.09082 11.9993C1.09082 18.0211 5.97812 22.9091 11.9999 22.9091C18.0217 22.9091 22.909 18.0211 22.909 11.9993C22.909 10.0357 22.4072 8.13825 21.4908 6.54549ZM6.58899 5.14838C6.28355 4.88654 5.97812 4.62474 5.67263 4.36292C6.08719 4.5811 6.50171 4.7993 6.87263 4.99566C8.00719 5.58474 8.94535 6.10838 9.11991 6.2393C9.11991 6.2393 9.14171 6.2611 9.16355 6.28294C9.27263 6.41382 9.38171 6.63202 9.18535 6.91566C9.07627 7.06838 8.94535 7.02474 8.74899 6.89382C8.57447 6.78474 7.63627 6.04294 6.58899 5.14838ZM12.9381 16.4938C12.9381 16.8647 12.7636 17.192 12.5453 17.432C12.4363 17.5411 11.9999 17.8247 11.6945 18.0211C11.389 18.2393 11.0617 18.4357 10.7999 18.632C10.6908 18.6975 10.5163 18.7411 10.2326 18.6975L9.55627 18.6102C9.97083 18.1957 11.1053 17.3011 11.4763 17.1266C11.9126 16.9084 12.1745 16.6684 11.9781 16.1665C11.8036 15.6429 11.1272 15.6647 11.1272 15.6647C11.1272 15.6647 11.5417 15.5557 11.869 15.5993C11.4545 15.4247 10.8872 15.4684 10.6036 15.6647C10.2981 15.8829 10.2108 16.7775 10.0145 17.3229C9.81811 17.8902 9.38171 18.1302 8.72719 18.5884C8.35627 18.8284 8.11627 18.8938 7.94171 18.872C7.57083 18.7629 7.13447 18.5665 6.82899 18.4138C6.65447 18.0865 6.43627 17.0611 6.41447 16.6465C6.50171 16.4284 6.85083 15.992 7.02535 15.7302C7.37448 15.2502 7.57083 14.9665 7.65811 14.7047C7.81083 14.3338 8.44355 11.9993 8.68355 11.0175C8.92355 11.432 9.25083 12.1302 9.09811 12.5229C9.88355 11.6938 9.53447 10.712 9.35991 10.3193C9.20719 9.92653 9.03263 9.16294 9.38171 8.4211C9.70899 7.6793 10.8436 5.67202 10.8436 5.67202C10.8436 5.67202 11.0399 6.19566 11.4545 6.15202C11.8472 6.10838 15.6217 1.87565 15.6217 1.87565C15.6217 1.87565 16.2108 3.83929 15.1199 5.0393C14.029 6.2393 13.1126 6.37018 13.1126 6.37018C13.1126 6.37018 14.3345 6.76294 15.5999 6.10838C15.9272 7.28654 16.2108 8.50838 16.2108 8.6611C16.1236 8.81382 14.9017 10.8647 14.7926 10.9957C14.749 11.0393 14.3999 11.0829 14.1817 11.0829C13.789 11.1484 13.549 11.1702 13.4399 11.2357C13.2653 11.3447 12.2617 13.2429 11.7817 14.1593C11.3453 14.2247 10.909 14.3775 10.5599 14.792C10.7345 14.7047 11.2363 14.7047 11.6072 14.7047C11.9345 14.7265 12.829 15.3811 12.9381 16.4065C12.9381 16.472 12.9381 16.472 12.9381 16.4938ZM10.3853 17.4102C10.6253 17.1484 10.669 16.6465 10.7126 16.4938C10.7563 16.3411 10.8436 16.0575 11.0399 16.0357C11.2363 16.0138 11.6508 16.1447 11.6072 16.472C11.5636 16.7775 11.2363 16.7993 10.9745 16.952C10.7999 17.0611 10.429 17.3665 10.3853 17.4102ZM19.8763 17.6938C19.6145 14.9011 17.6945 13.592 16.8436 13.1557C17.8253 13.0465 20.3563 12.2829 18.9599 8.4211C19.0036 8.59566 19.3963 10.5157 18.2836 11.5193C17.149 12.5447 15.4908 12.1084 15.2945 12.1084C15.1199 12.0865 14.2908 12.8938 13.1563 14.4429C13.0472 14.3775 12.589 14.2029 12.0217 14.2247C12.589 13.1557 13.4399 11.6284 13.5708 11.4975C13.6145 11.4538 13.9853 11.4102 14.2036 11.3884C14.6399 11.3447 14.8581 11.3011 14.9453 11.2138C14.989 11.1484 15.2945 10.6684 15.5999 10.1447C15.7963 10.1665 16.3199 10.2102 16.3853 10.1884C16.429 10.1447 17.0181 9.09746 17.0399 8.96654C17.0617 8.8793 16.6472 7.24294 16.3853 6.19566C21.7745 8.74838 22.6253 14.3775 19.8763 17.6938Z" fill="#1C324F"/>
<path d="M14.6835 4.71192C15.2944 4.16646 15.2071 3.22827 15.2071 3.22827L13.3744 5.25735C13.3525 5.25735 13.9198 5.36643 14.6835 4.71192Z" fill="#1C324F"/>
<path d="M7.83271 16.2538L8.13819 15.3811C8.13819 15.3811 7.19999 16.5811 7.11271 16.7557C7.02543 16.952 7.06907 17.3229 7.37455 17.3447C7.67999 17.3666 8.09455 16.9738 8.13819 16.6684C8.20363 16.2538 7.83271 16.2538 7.83271 16.2538Z" fill="#1C324F"/>
<path d="M10.7126 10.9739C11.3672 10.9084 12.5454 10.3848 13.0472 9.97022C13.549 9.53386 13.4617 8.57386 12.6763 8.29022C12.9381 7.85386 13.3745 6.9375 13.3745 6.9375C13.3745 6.9375 10.5599 10.2321 10.3417 10.2757C10.1236 10.3193 10.0363 9.49022 10.0363 9.49022C9.38172 11.083 10.4945 11.4757 10.7126 10.9739Z" fill="#1C324F"/>
<path d="M10.9526 10.5594L12.4145 8.70483C12.4145 8.70483 13.0472 9.14119 12.6326 9.64299C12.109 10.2321 10.9526 10.5594 10.9526 10.5594Z" fill="#FFD925"/>
<path d="M14.8362 2.29028L13.8326 3.38119C13.0253 3.62119 12.2399 4.05755 11.498 4.77755C11.498 4.36301 12.698 2.5521 14.8362 2.29028Z" fill="#D82423"/>
<path d="M16.1017 3.22838C16.1236 2.94474 16.1017 2.61747 16.0581 2.31201C17.3672 2.48656 18.9163 3.2502 20.6836 4.97382C19.2217 4.16656 17.6727 3.42474 16.1017 3.22838Z" fill="#D82423"/>
<path d="M16.4944 4.64663C16.4944 4.64663 21.3598 6.78481 22.2544 12.7848C22.3853 4.97389 16.8435 4.58118 16.4944 4.64663Z" fill="#D82423"/>
<path d="M9.40351 1.19922C9.33802 1.37377 6.58895 4.31922 10.0144 5.4756C8.13802 3.79558 9.38166 1.22104 9.40351 1.19922Z" fill="#D82423"/>
<path d="M10.8655 5.01739C10.8655 5.01739 11.1491 1.67921 13.1564 0.784668C13.0037 0.828304 8.92367 2.07194 10.8655 5.01739Z" fill="#D82423"/>
</g>
</g>
<defs>
<clipPath id="clip0_1136_12124">
<rect width="24" height="24" rx="12" fill="white"/>
</clipPath>
</defs>
</svg>
