<svg width="24" height="25" viewBox="0 0 24 25" fill="none" xmlns="http://www.w3.org/2000/svg">
<circle cx="12" cy="12" r="12" fill="white"/>
<path fill-rule="evenodd" clip-rule="evenodd" d="M12 0C18.6274 0 24 5.44742 24 12.1672C24 18.8869 18.6274 24.3343 12 24.3343C5.37257 24.3343 0 18.8869 0 12.1672C0 5.44742 5.37257 0 12 0ZM14.6633 9.83805L16.2934 12.701L16.3183 12.7447L17.0823 12.2975L14.2101 7.25319L13.3804 12.162C13.3577 12.2935 13.3467 12.4268 13.3473 12.5605C13.3478 12.6921 13.3594 12.8258 13.3831 12.9585C13.4063 13.0894 13.44 13.2188 13.4853 13.3447C13.5294 13.4679 13.5846 13.5882 13.6509 13.7046C13.8049 13.975 14.0047 14.2022 14.2355 14.3813C14.4745 14.5677 14.7466 14.702 15.0331 14.7799C15.3197 14.8576 15.6216 14.8789 15.9208 14.8392C16.209 14.8006 16.4944 14.7054 16.761 14.5492L17.2015 14.2912L17.9865 15.6698H15.0944V16.562C15.3301 16.562 15.7496 16.5621 16.2286 16.5623C17.4236 16.5627 18.9887 16.5632 18.9907 16.562C19.0464 16.562 19.0972 16.5475 19.1403 16.5223C19.1867 16.4948 19.2242 16.4562 19.2501 16.4103C19.2761 16.3644 19.2904 16.3118 19.2904 16.2581C19.2904 16.2072 19.2778 16.1557 19.2501 16.1069L17.5217 13.0716L16.3227 13.7735L16.32 13.7751C15.986 13.9705 15.6062 14.0102 15.2612 13.9167C15.0851 13.8686 14.9183 13.7863 14.772 13.6726C14.6313 13.5629 14.5082 13.4236 14.4138 13.2573C14.3718 13.1835 14.337 13.1085 14.3094 13.033C14.2813 12.9546 14.2603 12.8768 14.2465 12.799C14.2322 12.7189 14.225 12.6378 14.225 12.5561C14.2244 12.4737 14.2316 12.3921 14.2448 12.312L14.6633 9.83805ZM10.3354 8.08724L10.3111 8.13031L8.68145 10.9928L11.0039 10.1229C11.0789 10.0949 11.1518 10.0597 11.2225 10.0183C11.292 9.97684 11.3577 9.93039 11.419 9.87777C11.4786 9.82678 11.5349 9.7692 11.5874 9.7054C11.6381 9.64375 11.6851 9.57554 11.727 9.50166C11.822 9.3354 11.8794 9.15797 11.9026 8.97942C11.9269 8.79415 11.9136 8.60666 11.8667 8.42811C11.7739 8.07827 11.5498 7.76428 11.2164 7.56893L11.2136 7.56724L10.0146 6.86534L11.743 3.82994C11.7712 3.7818 11.8087 3.7443 11.8523 3.71913C11.8981 3.6917 11.9506 3.67827 12.0025 3.67827C12.0544 3.67769 12.1063 3.6917 12.1526 3.71855C12.1957 3.74377 12.2332 3.78067 12.2614 3.82994C12.2629 3.8311 12.9744 5.08138 13.5585 6.10766C13.8322 6.58878 14.0781 7.02073 14.2095 7.25156L13.4477 7.6976L12.0014 5.15819L11.2164 6.53679L11.6569 6.79481C11.9235 6.95099 12.1477 7.15362 12.3243 7.38756C12.5081 7.63049 12.6406 7.90642 12.7174 8.19694C12.7941 8.48743 12.8151 8.79354 12.7759 9.0969C12.7378 9.38913 12.644 9.67852 12.4899 9.94886C12.4237 10.0647 12.3486 10.1733 12.2653 10.2741C12.1808 10.3765 12.087 10.4711 11.9865 10.5573C11.8843 10.6446 11.7767 10.7212 11.6641 10.7879C11.5504 10.8551 11.4306 10.9122 11.3069 10.9586L6.69911 12.6842L9.57134 7.64001L10.3354 8.08724ZM9.3494 15.6687H9.39854L12.6578 15.6692L10.7538 14.0651C10.6919 14.013 10.6257 13.966 10.555 13.9252C10.4855 13.8848 10.4126 13.8501 10.337 13.8227C10.2636 13.7959 10.1863 13.7751 10.1057 13.7611C10.0273 13.7477 9.94616 13.7404 9.8617 13.7404C9.67236 13.7404 9.49184 13.7785 9.32788 13.8473C9.15785 13.919 9.00384 14.0242 8.87522 14.1546C8.62292 14.4104 8.46672 14.7641 8.46672 15.1549V15.1582V16.562H5.00986C4.9541 16.562 4.90388 16.5469 4.86028 16.5217C4.81391 16.4948 4.77635 16.4562 4.75042 16.4103C4.72446 16.365 4.71011 16.3124 4.71011 16.2581C4.71011 16.2077 4.7228 16.1562 4.75097 16.1069C4.75097 16.1044 5.59267 14.6273 6.19702 13.5665C6.40917 13.1942 6.59212 12.8733 6.69911 12.6854L7.4609 13.1314L6.01457 15.6709H7.58456V15.1549C7.58456 14.8425 7.64639 14.5442 7.75736 14.2722C7.87329 13.989 8.0422 13.7348 8.25198 13.5221C8.46173 13.3095 8.71292 13.1376 8.9917 13.0206C9.25998 12.9075 9.55422 12.8454 9.86225 12.8454C9.99474 12.8454 10.125 12.8572 10.2525 12.8801C10.3828 12.9037 10.5103 12.9384 10.634 12.9837C10.7593 13.0296 10.8785 13.0861 10.9917 13.1516C11.106 13.2182 11.2142 13.2943 11.3158 13.3799L15.0939 16.5631H9.3494V15.6687Z" fill="#071941"/>
</svg>
