<svg width="24" height="24" viewBox="0 0 24 24" fill="none" xmlns="http://www.w3.org/2000/svg">
<circle cx="12" cy="12" r="12" fill="url(#paint0_linear_1136_14708)"/>
<path d="M17.2511 16.7809L13.1924 6.97181C12.963 6.46494 12.6239 6.21649 12.1752 6.21649H11.8162C11.3674 6.21649 11.0284 6.46494 10.799 6.97181L9.03403 11.2454H7.69761C7.50519 11.2461 7.32083 11.3227 7.18454 11.4585C7.04825 11.5944 6.97103 11.7785 6.96963 11.9709V11.9808C6.97103 12.1732 7.04825 12.3573 7.18454 12.4931C7.32083 12.629 7.50519 12.7056 7.69761 12.7063H8.41547L6.73028 16.7809C6.6984 16.8702 6.68156 16.9643 6.68042 17.0592C6.68042 17.2878 6.75022 17.4667 6.87987 17.6058C7.00952 17.745 7.189 17.8144 7.41839 17.8144C7.56899 17.8124 7.71527 17.7638 7.83712 17.6753C7.96677 17.5858 8.05652 17.4566 8.12633 17.3076L9.98119 12.7061H11.2676C11.4601 12.7054 11.6444 12.6288 11.7807 12.493C11.917 12.3571 11.9942 12.173 11.9956 11.9806V11.9607C11.9942 11.7683 11.917 11.5842 11.7807 11.4484C11.6444 11.3126 11.4601 11.236 11.2676 11.2352H10.5796L11.9957 7.70721L15.855 17.3076C15.9248 17.4567 16.0146 17.5859 16.1442 17.6753C16.2661 17.7638 16.4124 17.8125 16.5631 17.8145C16.7924 17.8145 16.9719 17.7449 17.1016 17.6058C17.2312 17.4666 17.301 17.2877 17.301 17.0591C17.3048 16.9639 17.2878 16.8689 17.2511 16.7809Z" fill="white"/>
<defs>
<linearGradient id="paint0_linear_1136_14708" x1="21.768" y1="5.448" x2="3.912" y2="20.472" gradientUnits="userSpaceOnUse">
<stop stop-color="#B6509E"/>
<stop offset="1" stop-color="#2EBAC6"/>
</linearGradient>
</defs>
</svg>
