<svg width="24" height="24" viewBox="0 0 24 24" fill="none" xmlns="http://www.w3.org/2000/svg">
<g clip-path="url(#clip0_364_18)">
<path d="M12 24C18.6274 24 24 18.6274 24 12C24 5.37258 18.6274 0 12 0C5.37258 0 0 5.37258 0 12C0 18.6274 5.37258 24 12 24Z" fill="url(#paint0_linear_364_18)"/>
<path fill-rule="evenodd" clip-rule="evenodd" d="M3.66 12.354L3.72 12.21C3.72 12.21 3.756 12.168 3.786 12.162C3.816 12.162 3.84 12.174 3.858 12.198C4.014 12.462 4.362 13.062 4.548 13.38C4.566 13.41 4.56 13.446 4.536 13.47C4.512 13.494 4.476 13.5 4.446 13.488L3.984 13.278C4.32 16.17 6.384 18.54 9.114 19.326L9.798 18.918C9.798 18.918 9.852 18.9 9.882 18.9L10.776 19.062C10.824 19.074 10.866 19.11 10.878 19.158C10.89 19.206 10.866 19.26 10.824 19.29L10.404 19.572C10.626 19.59 10.848 19.602 11.076 19.602C11.16 19.602 11.232 19.674 11.232 19.758C11.232 19.842 11.16 19.914 11.076 19.914C10.842 19.914 10.614 19.902 10.386 19.884L10.674 20.214C10.71 20.25 10.716 20.31 10.692 20.352C10.668 20.4 10.62 20.424 10.572 20.418L9.66601 20.34C9.66601 20.34 9.606 20.322 9.588 20.304L8.88601 19.584C6.108 18.726 4.014 16.29 3.672 13.32L3.294 13.56C3.294 13.56 3.228 13.572 3.204 13.554C3.18 13.53 3.168 13.5 3.186 13.47L3.624 12.438C3.624 12.408 3.642 12.378 3.66 12.354ZM19.98 13.278L19.518 13.488C19.518 13.488 19.452 13.494 19.428 13.47C19.404 13.446 19.404 13.41 19.416 13.38C19.602 13.062 19.95 12.462 20.106 12.198C20.118 12.174 20.148 12.156 20.178 12.162C20.208 12.162 20.232 12.18 20.244 12.21L20.304 12.354C20.304 12.354 20.334 12.408 20.34 12.438L20.778 13.47C20.79 13.5 20.778 13.536 20.76 13.554C20.736 13.578 20.7 13.578 20.67 13.56L20.292 13.32C19.944 16.29 17.856 18.726 15.078 19.584L14.376 20.304C14.376 20.304 14.328 20.34 14.298 20.34L13.392 20.418C13.344 20.418 13.29 20.394 13.272 20.352C13.248 20.304 13.254 20.25 13.29 20.214L13.578 19.884C13.35 19.902 13.122 19.914 12.888 19.914C12.804 19.914 12.732 19.842 12.732 19.758C12.732 19.674 12.804 19.602 12.888 19.602C13.116 19.602 13.338 19.59 13.56 19.572L13.14 19.29C13.098 19.26 13.074 19.212 13.086 19.158C13.098 19.11 13.134 19.068 13.188 19.062L14.082 18.9C14.082 18.9 14.142 18.9 14.166 18.918L14.85 19.326C17.58 18.546 19.65 16.176 19.98 13.278ZM14.598 19.716C14.382 19.764 14.166 19.806 13.944 19.842L13.68 20.142L14.226 20.094L14.598 19.716ZM9.366 19.716L9.738 20.094L10.284 20.142L10.02 19.842C9.79801 19.812 9.582 19.77 9.366 19.716ZM14.508 19.416L14.076 19.158L13.536 19.254L13.944 19.524C14.136 19.494 14.328 19.458 14.514 19.416H14.508ZM9.456 19.416C9.642 19.458 9.834 19.494 10.026 19.524L10.434 19.254L9.894 19.158L9.46201 19.416H9.456ZM7.668 11.124C7.692 11.454 7.71 11.772 7.71 12.018C7.71 12.024 7.71 12.03 7.71 12.042C7.71 12.042 7.422 14.25 8.71201 15.618C9.99001 16.974 10.77 17.1 11.118 17.286C11.13 17.286 11.136 17.292 11.148 17.298C11.424 17.436 11.724 17.49 12 17.49C12.276 17.49 12.582 17.436 12.852 17.298C12.864 17.298 12.87 17.292 12.882 17.286C13.23 17.1 14.016 16.974 15.288 15.618C16.572 14.256 16.29 12.042 16.29 12.042V12.018C16.29 11.778 16.308 11.466 16.332 11.136C16.332 11.136 16.332 11.094 16.332 11.07C16.368 10.572 16.416 10.05 16.446 9.714C16.422 9.72 16.392 9.72 16.362 9.714C15.864 9.492 15.336 9.372 14.784 9.372C14.106 9.372 13.458 9.558 12.858 9.894C12.798 9.978 12.768 10.086 12.768 10.2C12.768 10.308 12.744 10.464 12.642 10.428C12.558 10.398 12.438 10.26 12.438 10.152C12.438 9.84 12.51 9.612 12.792 9.444C12.81 9.438 12.822 9.426 12.84 9.426C13.446 9.102 14.1 8.928 14.784 8.928C15.06 8.928 15.33 8.958 15.594 9.012C14.844 8.592 14.238 7.992 13.908 7.632C14.022 7.608 14.142 7.578 14.256 7.548C14.736 8.058 15.654 8.892 16.71 9.12C18.042 9.408 19.266 10.704 19.626 11.346C19.698 11.478 19.74 11.592 19.746 11.67C19.752 11.736 19.746 11.784 19.722 11.826C19.68 11.904 19.584 11.928 19.512 11.892C19.446 11.856 19.416 11.772 19.44 11.706C19.44 11.688 19.422 11.64 19.404 11.604C19.362 11.508 19.29 11.394 19.194 11.262C18.756 10.65 17.814 9.75 16.782 9.468C16.758 9.684 16.686 10.446 16.638 11.148C16.65 11.262 16.716 11.718 16.89 12.198C17.022 12.558 17.214 12.93 17.502 13.176C18.066 13.662 18.336 14.664 18.384 15.27C18.396 15.462 18.39 15.624 18.366 15.714C18.348 15.792 18.312 15.84 18.282 15.864C18.216 15.918 18.12 15.912 18.06 15.846C18.012 15.786 18.012 15.702 18.06 15.642C18.06 15.618 18.084 15.444 18.072 15.288C18.03 14.742 17.808 13.848 17.298 13.41C16.986 13.14 16.764 12.738 16.614 12.348C16.638 13.05 16.572 14.718 15.51 15.846C15.306 16.068 15.108 16.254 14.928 16.416C15.174 16.92 16.032 17.91 16.194 18.234C16.23 18.312 16.002 18.45 15.942 18.384C15.708 18.12 14.994 17.19 14.688 16.626C13.824 17.334 13.272 17.43 13.002 17.592C12.864 17.67 12.648 17.748 12.396 17.79C12.258 17.814 12.12 17.826 11.988 17.82C11.856 17.82 11.718 17.808 11.58 17.79C11.328 17.748 11.112 17.676 10.974 17.592C10.704 17.436 10.146 17.334 9.264 16.608C8.946 17.178 8.262 18.06 8.04 18.318C7.98 18.384 7.752 18.24 7.788 18.168C7.944 17.856 8.754 16.92 9.024 16.404C8.85 16.248 8.664 16.068 8.466 15.858C7.398 14.724 7.338 13.056 7.362 12.354C7.212 12.75 6.99 13.152 6.678 13.422C6.174 13.86 5.946 14.76 5.904 15.3C5.892 15.456 5.916 15.63 5.916 15.654C5.964 15.714 5.964 15.798 5.916 15.858C5.862 15.924 5.76 15.93 5.694 15.876C5.664 15.846 5.628 15.798 5.61 15.726C5.586 15.636 5.58 15.474 5.592 15.282C5.64 14.676 5.904 13.68 6.474 13.188C6.762 12.942 6.954 12.564 7.086 12.21C7.266 11.718 7.326 11.256 7.338 11.154C7.29 10.47 7.218 9.726 7.2 9.498C6.186 9.792 5.268 10.68 4.836 11.28C4.74 11.412 4.668 11.526 4.626 11.622C4.608 11.658 4.596 11.706 4.59 11.724C4.614 11.796 4.584 11.874 4.518 11.91C4.44 11.952 4.344 11.922 4.308 11.844C4.29 11.808 4.278 11.754 4.284 11.688C4.29 11.61 4.332 11.502 4.404 11.364C4.764 10.716 5.988 9.426 7.32 9.138C8.364 8.91 9.27601 8.1 9.76201 7.584C9.87601 7.614 9.99601 7.638 10.11 7.668C9.78601 8.022 9.20401 8.598 8.484 9.012C8.70601 8.97 8.934 8.952 9.168 8.952C9.882 8.952 10.572 9.144 11.208 9.504C11.262 9.534 11.298 9.606 11.304 9.684C11.382 9.954 11.442 10.236 11.478 10.524C11.514 10.812 11.532 11.106 11.526 11.406C11.52 11.706 11.49 11.994 11.442 12.282C11.394 12.57 11.322 12.852 11.226 13.128C11.22 13.152 11.196 13.164 11.178 13.158C11.154 13.152 11.142 13.128 11.154 13.104C11.226 12.828 11.28 12.552 11.31 12.264C11.34 11.988 11.346 11.7 11.334 11.412C11.322 11.124 11.286 10.842 11.232 10.572C11.184 10.344 11.124 10.116 11.052 9.9C10.464 9.576 9.828 9.402 9.168 9.402C8.622 9.402 8.094 9.522 7.59 9.744C7.572 9.75 7.56 9.756 7.542 9.756C7.572 10.092 7.62 10.62 7.656 11.118C7.656 11.13 7.656 11.148 7.656 11.166L7.668 11.124ZM12.318 15.822C12.318 15.822 12.276 15.828 12.258 15.834H11.988H11.718C11.7 15.834 11.676 15.834 11.658 15.822L11.49 15.774L11.568 15.87C11.628 15.942 11.718 15.99 11.82 15.99H12.168C12.27 15.99 12.36 15.948 12.42 15.87L12.498 15.774L12.33 15.822H12.318ZM13.008 15.348C12.972 15.384 12.876 15.474 12.726 15.474H11.244C11.052 15.474 10.95 15.33 10.95 15.33C10.95 15.33 10.998 15.372 11.172 15.36C11.346 15.342 11.574 15.282 11.73 15.306C11.886 15.33 11.988 15.384 11.988 15.384C11.988 15.384 12.144 15.33 12.3 15.306C12.456 15.282 12.684 15.342 12.858 15.36C12.954 15.372 12.996 15.36 13.014 15.348C13.026 15.336 13.032 15.33 13.032 15.33C13.032 15.33 13.032 15.342 13.014 15.348H13.008ZM12.288 14.052C12.33 14.106 12.402 14.142 12.474 14.136C12.612 14.124 12.726 14.016 12.738 13.872C12.738 13.8 12.714 13.728 12.654 13.686C12.612 13.722 12.564 13.752 12.516 13.782C12.486 13.8 12.462 13.818 12.438 13.842C12.414 13.866 12.396 13.89 12.378 13.92C12.348 13.968 12.318 14.016 12.282 14.058L12.288 14.052ZM11.682 14.052C11.64 14.106 11.568 14.142 11.496 14.136C11.358 14.124 11.244 14.016 11.232 13.872C11.232 13.8 11.256 13.728 11.316 13.686C11.358 13.722 11.406 13.752 11.454 13.782C11.484 13.8 11.508 13.818 11.532 13.842C11.556 13.866 11.574 13.89 11.592 13.92C11.622 13.968 11.652 14.016 11.688 14.058L11.682 14.052ZM10.98 11.364C10.848 11.268 10.572 11.088 10.2 11.016C10.224 11.076 10.236 11.136 10.236 11.208C10.236 11.478 10.02 11.694 9.75 11.694C9.48 11.694 9.264 11.478 9.264 11.208C9.264 11.16 9.27 11.118 9.282 11.07C9.078 11.124 8.814 11.22 8.544 11.388C8.52 11.4 8.496 11.4 8.478 11.376C8.46 11.358 8.46 11.328 8.478 11.304C8.676 11.088 9.25201 10.536 9.91201 10.62C9.94801 10.62 10.584 10.662 11.052 11.286C11.07 11.31 11.064 11.334 11.046 11.352C11.028 11.37 10.998 11.37 10.98 11.352V11.364ZM15.612 11.352C15.474 11.256 15.204 11.088 14.844 11.016C14.868 11.076 14.88 11.136 14.88 11.208C14.88 11.478 14.664 11.694 14.394 11.694C14.124 11.694 13.908 11.478 13.908 11.208C13.908 11.16 13.914 11.118 13.926 11.07C13.722 11.124 13.458 11.22 13.188 11.388C13.164 11.4 13.14 11.4 13.122 11.376C13.104 11.358 13.104 11.328 13.122 11.304C13.32 11.088 13.896 10.536 14.556 10.62C14.592 10.62 15.228 10.662 15.696 11.286C15.714 11.31 15.708 11.334 15.69 11.352C15.672 11.37 15.642 11.37 15.624 11.352L15.612 11.34V11.352ZM6.72 6.102C6.744 6.138 6.774 6.168 6.81 6.192C6.864 6.228 6.918 6.264 6.972 6.3C6.654 6.552 6.3 6.762 5.892 6.888C5.076 7.134 4.662 7.812 4.41 8.604C4.152 9.432 4.08 10.38 3.978 11.118C3.966 11.202 3.888 11.262 3.804 11.25C3.72 11.238 3.66 11.16 3.672 11.076C3.798 10.17 3.882 8.958 4.302 8.01C4.602 7.35 5.064 6.816 5.802 6.594C6.144 6.492 6.444 6.318 6.72 6.108V6.102ZM17.256 6.108C17.526 6.312 17.826 6.486 18.168 6.588C18.906 6.81 19.368 7.344 19.668 8.004C20.094 8.946 20.178 10.164 20.298 11.07C20.31 11.154 20.25 11.232 20.166 11.244C20.082 11.256 20.004 11.196 19.992 11.112C19.89 10.38 19.824 9.432 19.56 8.598C19.314 7.812 18.894 7.128 18.078 6.882C17.67 6.756 17.316 6.552 16.998 6.294C17.064 6.252 17.124 6.204 17.19 6.162C17.214 6.144 17.238 6.126 17.256 6.102V6.108ZM14.67 11.04C14.736 11.04 14.79 11.082 14.79 11.13C14.79 11.178 14.736 11.22 14.67 11.22C14.604 11.22 14.55 11.178 14.55 11.13C14.55 11.082 14.604 11.04 14.67 11.04ZM10.074 11.04C10.14 11.04 10.194 11.082 10.194 11.13C10.194 11.178 10.14 11.22 10.074 11.22C10.008 11.22 9.954 11.178 9.954 11.13C9.954 11.082 10.008 11.04 10.074 11.04ZM9.76201 10.314C9.79801 10.314 10.272 10.302 10.788 10.77C10.806 10.788 10.812 10.818 10.788 10.842C10.77 10.866 10.74 10.866 10.716 10.854C10.512 10.716 10.122 10.494 9.756 10.5C9.756 10.5 9.756 10.5 9.75 10.5C9.75 10.5 9.276 10.416 8.55 10.956C8.55 10.956 8.502 10.968 8.478 10.956C8.46 10.938 8.46 10.908 8.478 10.884C8.64 10.692 9.07801 10.284 9.76201 10.32V10.314ZM14.406 10.314C14.442 10.314 14.916 10.302 15.432 10.77C15.45 10.788 15.456 10.818 15.432 10.842C15.414 10.866 15.384 10.866 15.36 10.854C15.156 10.716 14.766 10.494 14.4 10.5C14.4 10.5 14.4 10.5 14.394 10.5C14.394 10.5 13.92 10.416 13.194 10.956C13.194 10.956 13.146 10.968 13.122 10.956C13.104 10.938 13.104 10.908 13.122 10.884C13.284 10.692 13.722 10.284 14.406 10.32V10.314ZM7.332 5.544C7.482 5.388 7.632 5.22 7.776 5.064C8.37 4.398 8.934 3.78 9.684 3.642C10.908 3.42 11.724 3.816 11.994 3.972C12.258 3.816 13.08 3.42 14.304 3.642C15.048 3.78 15.618 4.398 16.212 5.064C16.356 5.226 16.5 5.388 16.656 5.544C16.572 5.604 16.482 5.664 16.392 5.718C16.254 5.568 16.116 5.418 15.978 5.268C15.432 4.656 14.934 4.068 14.25 3.948C12.894 3.702 12.09 4.284 12.09 4.284C12.036 4.326 11.958 4.326 11.904 4.284C11.904 4.284 11.1 3.702 9.744 3.948C9.06 4.074 8.562 4.662 8.016 5.268C7.884 5.418 7.746 5.568 7.602 5.718C7.512 5.664 7.422 5.604 7.338 5.544H7.332Z" fill="url(#paint1_linear_364_18)"/>
<path fill-rule="evenodd" clip-rule="evenodd" d="M11.268 8.23201H11.28L11.316 8.26801L11.364 8.30401L11.406 8.32801H11.418L11.46 8.35801L11.502 8.38201L11.526 8.39401L11.568 8.41201L11.64 8.44201L11.736 8.47201L11.802 8.48401H11.862L11.964 8.49601H12.018C11.904 8.65801 12.036 8.89801 12.036 8.89801C12.42 9.60601 11.946 9.75001 11.808 9.77401C11.808 9.77401 11.796 9.77401 11.796 9.76801C11.796 9.76801 11.796 9.75601 11.796 9.75001C12.006 9.43801 11.526 9.07201 11.526 9.07201C11.166 8.69401 11.196 8.40001 11.268 8.23201ZM13.002 7.82401C13.014 8.10001 13.38 8.10601 13.38 8.10601C14.184 8.13001 14.07 8.61001 14.028 8.74201C14.028 8.74201 14.022 8.75401 14.016 8.75401C14.016 8.75401 14.004 8.75401 14.004 8.74801C13.836 8.40601 13.278 8.64001 13.278 8.64001C12.738 8.76601 12.504 8.56801 12.408 8.41201L12.498 8.37001L12.57 8.32801L12.612 8.29801C12.69 8.24401 12.762 8.17801 12.828 8.11201L12.888 8.03401L12.936 7.96201L12.978 7.88401L13.008 7.81801L13.002 7.82401ZM10.98 7.86001C10.788 7.84801 10.656 8.07601 10.656 8.07601C10.236 8.76001 9.87001 8.42401 9.78001 8.31601C9.78001 8.31601 9.78001 8.30401 9.78001 8.29801C9.78001 8.29801 9.78601 8.29201 9.79201 8.29201C10.17 8.31601 10.248 7.71601 10.248 7.71601C10.422 7.14001 10.74 7.06801 10.92 7.07401L10.908 7.11001L10.89 7.18201V7.23601L10.872 7.30801V7.38001V7.45201V7.52401L10.89 7.59001L10.908 7.66201L10.926 7.72801L10.95 7.79401L10.974 7.85401L10.98 7.86001ZM11.988 6.58801C12.426 6.58801 12.786 6.94201 12.786 7.38601C12.786 7.83001 12.432 8.18401 11.988 8.18401C11.544 8.18401 11.19 7.83001 11.19 7.38601C11.19 6.94201 11.544 6.58801 11.988 6.58801ZM12.96 6.85801C13.14 6.84601 13.26 6.64201 13.26 6.64201C13.68 5.95801 14.046 6.29401 14.136 6.40201C14.136 6.40201 14.136 6.41401 14.136 6.42001C14.136 6.42001 14.13 6.42601 14.124 6.42601C13.746 6.40201 13.668 7.00201 13.668 7.00201C13.518 7.51201 13.242 7.63201 13.062 7.64401L13.074 7.59001V7.54201L13.086 7.49401V7.43401V7.35601V7.27801L13.074 7.21201V7.17601L13.062 7.14001V7.10401L13.044 7.07401L13.032 7.04401L13.02 7.01401L13.008 6.98401C12.996 6.94801 12.978 6.91801 12.966 6.88801L12.954 6.86401L12.96 6.85801ZM13.824 7.05001C14.934 6.80401 15.96 6.33601 16.86 5.70001C16.932 5.64601 17.034 5.66401 17.088 5.73601C17.142 5.80801 17.124 5.91001 17.052 5.96401C16.056 6.67201 14.91 7.17601 13.668 7.41601C13.728 7.32001 13.782 7.20001 13.83 7.05001H13.824ZM10.206 7.39801C9.01801 7.15201 7.91401 6.66601 6.95401 5.98801C6.88201 5.93401 6.86401 5.83201 6.91201 5.76001C6.96601 5.68801 7.06801 5.67001 7.14001 5.71801C8.10601 6.39601 9.21601 6.87601 10.416 7.10401C10.338 7.17001 10.266 7.26601 10.2 7.39201L10.206 7.39801ZM11.052 6.78601C10.974 6.60601 10.698 6.60001 10.698 6.60001C9.89401 6.57601 10.008 6.09601 10.05 5.96401C10.05 5.96401 10.056 5.95801 10.062 5.95201C10.062 5.95201 10.074 5.95201 10.074 5.95801C10.242 6.30001 10.8 6.06601 10.8 6.06601C11.37 5.92801 11.598 6.15601 11.688 6.31201C11.664 6.31801 11.634 6.33001 11.61 6.33601L11.568 6.35401L11.484 6.39601L11.454 6.40801L11.37 6.45601L11.352 6.46801L11.274 6.52801L11.196 6.60001L11.13 6.67801L11.112 6.69601L11.064 6.76801V6.78001L11.052 6.78601ZM12.066 6.27601C12.162 6.11401 12.036 5.89201 12.036 5.89201C11.652 5.18401 12.126 5.04001 12.264 5.01601C12.264 5.01601 12.276 5.01601 12.276 5.02201C12.276 5.02201 12.276 5.03401 12.276 5.04001C12.066 5.35201 12.546 5.71801 12.546 5.71801C12.948 6.13801 12.87 6.45001 12.774 6.60601L12.726 6.55801L12.672 6.51001L12.606 6.46201L12.54 6.42001L12.462 6.37801L12.378 6.34201L12.288 6.31201L12.204 6.29401L12.12 6.28201H12.066V6.27601Z" fill="url(#paint2_linear_364_18)"/>
</g>
<defs>
<linearGradient id="paint0_linear_364_18" x1="1.266" y1="-0.546" x2="20.946" y2="22.452" gradientUnits="userSpaceOnUse">
<stop stop-color="#530037"/>
<stop offset="0.31" stop-color="#83045C"/>
<stop offset="0.97" stop-color="#EB0EAD"/>
</linearGradient>
<linearGradient id="paint1_linear_364_18" x1="10.962" y1="7.968" x2="13.284" y2="20.178" gradientUnits="userSpaceOnUse">
<stop stop-color="white"/>
<stop offset="1" stop-color="white"/>
</linearGradient>
<linearGradient id="paint2_linear_364_18" x1="10.884" y1="4.77601" x2="15.564" y2="9.24001" gradientUnits="userSpaceOnUse">
<stop stop-color="white"/>
<stop offset="0.97" stop-color="white"/>
</linearGradient>
<clipPath id="clip0_364_18">
<rect width="24" height="24" fill="white"/>
</clipPath>
</defs>
</svg>
