<svg width="24" height="24" viewBox="0 0 24 24" fill="none" xmlns="http://www.w3.org/2000/svg">
<path d="M1.80762 7.29494V16.7031C1.80762 17.3038 2.12864 17.8592 2.64858 18.1586L10.7963 22.8636C11.3162 23.163 11.9563 23.163 12.4763 22.8636L20.624 18.1586C21.1439 17.8592 21.4649 17.3038 21.4649 16.7031V7.29494C21.4649 6.69425 21.1439 6.13886 20.624 5.8395L12.4763 1.13443C11.9563 0.835072 11.3162 0.835072 10.7963 1.13443L2.64661 5.8395C2.12667 6.13886 1.80762 6.69425 1.80762 7.29494Z" fill="#213147"/>
<path d="M13.4137 13.8238L12.2517 17.0105C12.2201 17.0991 12.2201 17.1956 12.2517 17.2842L14.2507 22.7672L16.5628 21.4319L13.7878 13.8238C13.7248 13.6486 13.4767 13.6486 13.4137 13.8238Z" fill="#12AAFF"/>
<path d="M15.7434 8.46496C15.6804 8.28968 15.4322 8.28968 15.3692 8.46496L14.2072 11.6516C14.1757 11.7402 14.1757 11.8367 14.2072 11.9253L17.4825 20.9022L19.7946 19.5669L15.7434 8.46496Z" fill="#12AAFF"/>
<path d="M11.6352 1.48695C11.6923 1.48695 11.7494 1.50271 11.8006 1.53028L20.6179 6.62137C20.7203 6.68045 20.7834 6.79074 20.7834 6.90694V17.0871C20.7834 17.2053 20.7203 17.3136 20.6179 17.3727L11.8006 22.4638C11.7514 22.4934 11.6923 22.5071 11.6352 22.5071C11.578 22.5071 11.5209 22.4914 11.4697 22.4638L2.65239 17.3767C2.54998 17.3176 2.48695 17.2073 2.48695 17.0911V6.90891C2.48695 6.79074 2.54998 6.68242 2.65239 6.62334L11.4697 1.53225C11.5209 1.50271 11.578 1.48695 11.6352 1.48695ZM11.6352 0C11.322 0 11.0069 0.0807484 10.7253 0.244215L1.9099 5.33333C1.34663 5.6583 1 6.25899 1 6.90891V17.0891C1 17.739 1.34663 18.3397 1.9099 18.6647L10.7272 23.7558C11.0089 23.9173 11.322 24 11.6371 24C11.9503 24 12.2654 23.9193 12.547 23.7558L21.3644 18.6647C21.9276 18.3397 22.2742 17.739 22.2742 17.0891V6.90891C22.2742 6.25899 21.9276 5.6583 21.3644 5.33333L12.5451 0.244215C12.2634 0.0807484 11.9483 0 11.6352 0Z" fill="#9DCCED"/>
<path d="M5.80347 20.9137L6.61489 18.6921L8.24758 20.0491L6.72124 21.4435L5.80347 20.9137Z" fill="#213147"/>
<path d="M10.8927 6.18018H8.65738C8.48998 6.18018 8.3403 6.28456 8.28318 6.44212L3.49146 19.5785L5.80362 20.9138L11.0798 6.44802C11.1291 6.31804 11.0326 6.18018 10.8927 6.18018Z" fill="white"/>
<path d="M14.8041 6.18018H12.5688C12.4014 6.18018 12.2517 6.28456 12.1946 6.44212L6.72339 21.4416L9.03555 22.7769L14.9912 6.44802C15.0385 6.31804 14.942 6.18018 14.8041 6.18018Z" fill="white"/>
</svg>
