<svg width="27" height="27" viewBox="0 0 27 27" fill="none" xmlns="http://www.w3.org/2000/svg">
<rect width="27" height="27" rx="13.5" fill="white"/>
<g clip-path="url(#clip0_452_43)">
<path d="M8.73151 9.5185H6.30811C5.86295 9.5185 5.50208 9.87974 5.50208 10.3254V12.7512C5.50208 13.1969 5.86295 13.5581 6.30811 13.5581H8.73151C9.17667 13.5581 9.53753 13.1969 9.53753 12.7512V10.3254C9.53753 9.87974 9.17667 9.5185 8.73151 9.5185Z" fill="black"/>
<path d="M9.54289 6.30693V8.71688C9.54289 9.16278 9.90348 9.52375 10.3489 9.52375H15.551C16.2616 9.52375 16.6275 8.66381 16.129 8.15422L13.7746 5.74426C13.6208 5.59032 13.414 5.50008 13.1965 5.50008H10.3436C9.89818 5.50008 9.5376 5.86104 9.5376 6.30693H9.54289Z" fill="black"/>
<path d="M17.4547 11.4198V12.7575C17.4547 13.2033 17.0941 13.5643 16.6486 13.5643H10.3383C9.89282 13.5643 9.53223 13.9253 9.53223 14.3712V16.659C9.53223 17.1049 9.17165 17.4659 8.72619 17.4659H6.30811C5.86267 17.4659 5.50208 17.8268 5.50208 18.2728V20.6986C5.50208 21.1445 5.86267 21.5055 6.30811 21.5055H8.73151C9.17694 21.5055 9.53753 21.1445 9.53753 20.6986V18.4108C9.53753 17.9649 9.89814 17.6039 10.3436 17.6039H16.6539C17.0994 17.6039 17.46 17.9649 17.46 18.4108V20.6986C17.46 21.1445 17.8206 21.5055 18.266 21.5055H20.6735C21.1189 21.5055 21.4795 21.1445 21.4795 20.6986V13.7766C21.4795 13.559 21.3947 13.352 21.2356 13.198L18.8281 10.8465C18.319 10.3475 17.46 10.7085 17.46 11.4251L17.4547 11.4198Z" fill="black"/>
</g>
<defs>
<clipPath id="clip0_452_43">
<rect width="16" height="16.0225" fill="white" transform="translate(5.5 5.48873)"/>
</clipPath>
</defs>
</svg>
