<svg width="53" height="54" viewBox="0 0 53 54" fill="none" xmlns="http://www.w3.org/2000/svg">
<path d="M30.551 39.818L46.4957 47.3762C47.3125 47.7633 48.2903 47.4172 48.6489 46.5874C52.3756 37.9658 54.6879 25.8305 50.5521 16.4953C46.6567 7.70286 37.0234 5.31426 33.613 5.81394L27.3563 9.20294C29.7241 9.63741 34.4988 12.5919 34.6552 20.934C34.7846 27.8372 32.0077 33.9073 29.8766 37.2239C29.3017 38.1187 29.59 39.3624 30.551 39.818Z" fill="#2B80D7"/>
<mask id="mask0_757_4504" style="mask-type:alpha" maskUnits="userSpaceOnUse" x="27" y="5" width="26" height="43">
<path d="M30.5516 39.8193L46.4963 47.3775C47.3131 47.7647 48.2909 47.4185 48.6495 46.5888C52.3762 37.9671 54.6885 25.8318 50.5527 16.4966C46.6573 7.70421 37.024 5.31561 33.6136 5.81528L27.3569 9.20428C29.7247 9.63875 34.4994 12.5932 34.6558 20.9354C34.7852 27.8385 32.0083 33.9086 29.8772 37.2253C29.3023 38.12 29.5906 39.3638 30.5516 39.8193Z" fill="#DEA00D"/>
</mask>
<g mask="url(#mask0_757_4504)">
<g filter="url(#filter0_f_757_4504)">
<path d="M35.43 42.4099C43.8305 36.3573 55.0873 11.6896 49.4403 6.8124C47.3641 5.01916 28.4144 5.44333 26.7214 4.10376L28.1013 6.1578C28.1013 6.1578 33.6492 13.1068 33.2861 24.019C33.0631 30.7207 30.6551 37.6487 29.1589 41.0355C28.9143 41.5892 17.7985 36.1043 17.5897 36.5297C16.9959 37.7394 27.8966 43.1391 27.8966 43.1391L34.8799 42.6046C35.0802 42.5893 35.2669 42.5274 35.43 42.4099Z" fill="url(#paint0_linear_757_4504)"/>
</g>
<g filter="url(#filter1_f_757_4504)">
<path d="M48.8412 48.9996C57.0569 42.8186 64.6825 24.4594 58.9484 14.201C57.6098 11.8062 47.5863 4.95334 45.8933 3.61377L45.3671 10.4398C45.3671 10.4398 51.5537 16.4002 51.1898 27.3333C50.9045 35.9069 48.4855 42.443 47.4546 44.8648C47.2057 45.4497 46.5398 45.7062 45.9505 45.4679C43.1664 44.3418 35.7813 41.2955 36.0397 40.7689C35.4459 41.9786 46.2461 48.3096 46.2461 48.3096L47.6624 49.0728C48.04 49.2763 48.4984 49.2575 48.8412 48.9996Z" fill="url(#paint1_linear_757_4504)"/>
</g>
<g opacity="0.8" filter="url(#filter2_f_757_4504)">
<rect width="20.739" height="17.3594" rx="3.27252" transform="matrix(0.949979 0.312314 -0.312274 0.949992 28.3636 25.5664)" fill="#13497E"/>
</g>
<g opacity="0.7" filter="url(#filter3_f_757_4504)">
<path d="M29.9941 35.7652C36.6567 31.1129 37.6748 16.2808 31.9084 10.5575C30.4219 9.0822 28.2035 7.49843 26.7728 6.51086L27.9389 8.02516C27.9389 8.02516 32.6273 13.1481 32.3204 21.1929C32.1319 26.1335 30.097 31.241 28.8326 33.7379C28.626 34.1461 19.2323 30.1024 19.0558 30.4161C18.554 31.3079 27.7659 35.2887 27.7659 35.2887L28.9306 35.8362C29.2756 35.9984 29.6815 35.9834 29.9941 35.7652Z" fill="#2B80D7"/>
</g>
</g>
<path d="M42.2954 33.2894L27.662 27.9932C27.2081 27.8289 26.7124 28.0896 26.572 28.5515C25.5551 31.8942 22.8876 37.9288 17.7071 40.19C10.8944 43.1637 8.6529 36.5108 11.6506 44.9181C14.6484 53.3254 24.554 55.7368 33.6124 50.5881C40.1787 46.8559 42.7109 39.2388 43.3225 34.9323C43.425 34.2104 42.981 33.5375 42.2954 33.2894Z" fill="url(#paint2_linear_757_4504)"/>
<mask id="mask1_757_4504" style="mask-type:alpha" maskUnits="userSpaceOnUse" x="10" y="27" width="34" height="27">
<path d="M42.2951 33.2907L27.6618 27.9945C27.2079 27.8303 26.7122 28.091 26.5717 28.5528C25.5549 31.8955 22.8874 37.9301 17.7069 40.1914C10.8942 43.1651 8.65266 36.5121 11.6504 44.9194C14.6481 53.3267 24.5537 55.7381 33.6121 50.5895C40.1785 46.8572 42.7107 39.2402 43.3222 34.9337C43.4248 34.2118 42.9807 33.5389 42.2951 33.2907Z" fill="url(#paint3_radial_757_4504)"/>
</mask>
<g mask="url(#mask1_757_4504)">
<g filter="url(#filter4_f_757_4504)">
<path d="M19.4635 55.5416C33.6667 55.5416 39.6078 29.91 37.9542 25.5579C37.8652 25.3236 37.6491 25.1752 37.41 25.1002L11.0223 16.823L27.0792 23.4451C27.2566 23.5182 27.3591 23.7022 27.3207 23.8901C27.0114 25.4016 25.496 31.9273 21.6587 36.0686C17.2962 40.7768 8.28575 41.8331 4.56891 40.9552C2.58967 40.9521 1.47241 40.275 1.47241 40.275C5.97332 43.1995 12.437 55.5416 19.4635 55.5416Z" fill="url(#paint4_linear_757_4504)"/>
</g>
<g opacity="0.4" filter="url(#filter5_f_757_4504)">
<path d="M21.0994 39.3629C26.8707 35.4526 31.175 20.6403 30.0243 16.5147C29.9205 16.1426 29.5607 15.9387 29.1748 15.9215L13.7142 15.2307L27.171 21.8465C27.3304 21.9249 27.4213 22.0928 27.3915 22.2679C27.144 23.721 25.8775 30.3071 22.6368 34.4763C18.9771 39.1845 11.4186 40.2408 8.3006 39.3629C6.64027 39.3599 5.78308 40.0322 5.78308 40.0322C9.55876 42.9567 15.975 42.8351 21.0994 39.3629Z" fill="#3EBADD"/>
</g>
<g filter="url(#filter6_f_757_4504)">
<path d="M34.0651 51.8516C41.0149 47.9014 47.1219 32.0443 45.6792 28.0347C45.5696 27.7303 45.2694 27.5655 44.9482 27.5267L26.5357 25.3047L26.1177 28.0058L40.6586 33.6838C41.1341 33.8695 41.4413 34.3287 41.3787 34.8353C41.1483 36.6986 40.1632 41.3828 35.9576 46.1687C30.5334 52.3416 22.6916 52.0492 18.9748 51.1713C16.9955 51.1682 16.5084 51.1713 16.5084 51.1713C20.7437 54.1812 27.9563 55.3237 34.0651 51.8516Z" fill="url(#paint5_linear_757_4504)"/>
</g>
</g>
<path d="M20.1886 25.9503C15.7572 34.2883 11.469 51.3625 25.0241 53.2525C19.7231 53.6603 7.67545 50.9377 2.20131 38.0074C-4.64136 21.8445 8.78406 2.42294 23.7728 0.663269C38.426 -1.05701 45.9789 6.93957 50.3284 16.0062C50.4401 16.2218 50.538 16.4309 50.6222 16.6306C50.5259 16.422 50.428 16.2138 50.3284 16.0062C48.6548 12.7738 43.8932 8.06045 35.829 11.0909C29.9956 13.283 23.5979 19.5355 20.1886 25.9503Z" fill="#2CBBF9"/>
<mask id="mask2_757_4504" style="mask-type:alpha" maskUnits="userSpaceOnUse" x="0" y="0" width="51" height="54">
<path d="M20.1885 25.9494C15.757 34.2875 11.4688 51.3616 25.024 53.2517C19.723 53.6594 7.67532 50.9368 2.20119 38.0065C-4.64148 21.8436 8.78394 2.42208 23.7726 0.662415C38.4258 -1.05787 45.9788 6.93872 50.3283 16.0054C50.4399 16.221 50.5378 16.43 50.6221 16.6297C50.5258 16.4211 50.4279 16.213 50.3283 16.0054C48.6546 12.773 43.893 8.0596 35.8289 11.09C29.9955 13.2821 23.5978 19.5347 20.1885 25.9494Z" fill="#00CCC0"/>
</mask>
<g mask="url(#mask2_757_4504)">
<g filter="url(#filter7_f_757_4504)">
<path d="M-11.0391 37.6475C-5.56499 50.5778 19.3336 54.4499 24.6346 54.0422C24.9006 51.5338 17.2947 46.0878 17.56 40.0279C17.56 40.0279 7.8612 40.3385 6.38023 25.9487C4.89926 11.5588 13.1528 4.31689 13.1528 4.31689C3.3127 9.16787 -14.0005 30.6525 -11.0391 37.6475Z" fill="url(#paint6_linear_757_4504)"/>
<path d="M50.6214 16.6315C76.1727 -3.99293 32.9469 -8.754 17.9582 -6.99433C11.7185 -6.2618 -4.69495 10.2359 1.76601 17.3354C1.76601 17.3354 8.46616 9.91266 17.9582 8.55656C27.4501 7.20047 31.8456 14.0433 31.8456 14.0433C33.0021 13.334 36.043 13.1386 37.1829 12.7102C45.785 9.47761 50.201 15.7454 50.6214 16.6315Z" fill="url(#paint7_linear_757_4504)"/>
</g>
<g filter="url(#filter8_f_757_4504)">
<path d="M2.82541 39.6723C-12.4298 34.8545 -5.0875 2.13427 10.2179 -2.54869C23.989 -6.76218 25.1238 -0.141618 27.5462 0.261745C27.8607 0.252029 28.0312 0.258259 28.0312 0.258259C27.8618 0.28791 27.7014 0.287579 27.5462 0.261745C25.7265 0.317967 19.0847 0.908165 12.7508 6.3296C3.22466 14.4833 -0.610822 27.5188 2.82541 39.6723Z" fill="#56E5FF"/>
</g>
<g filter="url(#filter9_f_757_4504)">
<path d="M27.4933 53.2249C23.254 57.9972 5.90173 52.1942 0.427595 39.2639C-0.557969 36.936 0.513611 29.7939 0.442404 27.0182C0.429997 26.8099 0.427595 26.6985 0.427595 26.6985C0.434613 26.7972 0.439475 26.904 0.442404 27.0182C0.534485 28.5638 1.17767 35.4412 5.48022 41.6564C10.3625 48.709 20.3908 51.4714 20.3908 51.4714C21.6994 52.4022 25.3959 52.9324 27.4933 53.2249Z" fill="#FDC7C7"/>
</g>
<mask id="mask3_757_4504" style="mask-type:alpha" maskUnits="userSpaceOnUse" x="-8" y="24" width="34" height="35">
<rect width="34.7902" height="12.2157" transform="matrix(0.69628 0.717771 -0.717721 0.696331 1.68079 24.9349)" fill="url(#paint8_linear_757_4504)"/>
</mask>
<g mask="url(#mask3_757_4504)">
<path d="M27.4946 53.2244C23.2553 57.9967 5.90307 52.1938 0.428938 39.2634C-0.556626 36.9355 0.514954 29.7934 0.443747 27.0177C0.43134 26.8094 0.428938 26.698 0.428938 26.698C0.435956 26.7967 0.440818 26.9035 0.443747 27.0177C0.535828 28.5633 1.17902 35.4407 5.48156 41.6559C10.3638 48.7086 20.3922 51.4709 20.3922 51.4709C21.7007 52.4018 25.3972 52.932 27.4946 53.2244Z" fill="#FDC7C7"/>
</g>
<g filter="url(#filter10_f_757_4504)">
<path d="M51.7048 17.3101C52.8211 9.19762 38.3476 -3.374 23.3588 -1.61433C17.936 -0.977681 13.1311 4.24753 9.0033 8.51721C9.0033 8.51721 18.3711 0.192095 29.7755 1.79367C41.1798 3.39524 46.2753 11.8399 46.2753 11.8399C48.6567 13.2326 49.7433 17.5122 51.7048 17.3101Z" fill="#EFC7FD"/>
</g>
<mask id="mask4_757_4504" style="mask-type:alpha" maskUnits="userSpaceOnUse" x="7" y="-4" width="44" height="21">
<rect width="41.3631" height="13.891" transform="matrix(0.989127 0.147065 -0.147045 0.98913 9.28711 -3.15771)" fill="url(#paint9_linear_757_4504)"/>
</mask>
<g mask="url(#mask4_757_4504)">
<path d="M51.7048 17.3119C52.8211 9.19945 38.3476 -3.37216 23.3588 -1.6125C17.936 -0.97585 13.1311 4.24936 9.0033 8.51904C9.0033 8.51904 18.3711 0.193926 29.7755 1.7955C41.1798 3.39707 46.2753 11.8417 46.2753 11.8417C48.6567 13.2344 49.7433 17.5141 51.7048 17.3119Z" fill="#EFC7FD"/>
</g>
<g filter="url(#filter11_f_757_4504)">
<path d="M34.356 9.05238C19.0017 13.8946 5.40076 42.1575 18.6165 52.7591C31.8323 63.3607 47.2819 43.2222 55.0547 26.911C51.209 15.9492 49.7103 4.21012 34.356 9.05238Z" fill="url(#paint10_linear_757_4504)"/>
</g>
<mask id="mask5_757_4504" style="mask-type:alpha" maskUnits="userSpaceOnUse" x="-7" y="-8" width="67" height="70">
<rect width="44.7621" height="53.4" transform="matrix(0.85552 0.51777 -0.517716 0.855552 20.9257 -7.31897)" fill="url(#paint11_linear_757_4504)"/>
</mask>
<g mask="url(#mask5_757_4504)">
<path d="M34.3545 9.05164C19.0003 13.8939 5.39929 42.1568 18.615 52.7584C31.8308 63.36 47.2805 43.2215 55.0532 26.9103C51.2075 15.9485 49.7088 4.20939 34.3545 9.05164Z" fill="url(#paint12_linear_757_4504)"/>
</g>
</g>
<defs>
<filter id="filter0_f_757_4504" x="11.4303" y="-2.03222" width="45.6699" height="51.3074" filterUnits="userSpaceOnUse" color-interpolation-filters="sRGB">
<feFlood flood-opacity="0" result="BackgroundImageFix"/>
<feBlend mode="normal" in="SourceGraphic" in2="BackgroundImageFix" result="shape"/>
<feGaussianBlur stdDeviation="3.06799" result="effect1_foregroundBlur_757_4504"/>
</filter>
<filter id="filter1_f_757_4504" x="35.8116" y="3.40924" width="25.3381" height="46.0062" filterUnits="userSpaceOnUse" color-interpolation-filters="sRGB">
<feFlood flood-opacity="0" result="BackgroundImageFix"/>
<feBlend mode="normal" in="SourceGraphic" in2="BackgroundImageFix" result="shape"/>
<feGaussianBlur stdDeviation="0.102266" result="effect1_foregroundBlur_757_4504"/>
</filter>
<filter id="filter2_f_757_4504" x="18.0733" y="20.6969" width="34.8615" height="32.7074" filterUnits="userSpaceOnUse" color-interpolation-filters="sRGB">
<feFlood flood-opacity="0" result="BackgroundImageFix"/>
<feBlend mode="normal" in="SourceGraphic" in2="BackgroundImageFix" result="shape"/>
<feGaussianBlur stdDeviation="2.86346" result="effect1_foregroundBlur_757_4504"/>
</filter>
<filter id="filter3_f_757_4504" x="18.2179" y="5.69273" width="18.277" height="31.0706" filterUnits="userSpaceOnUse" color-interpolation-filters="sRGB">
<feFlood flood-opacity="0" result="BackgroundImageFix"/>
<feBlend mode="normal" in="SourceGraphic" in2="BackgroundImageFix" result="shape"/>
<feGaussianBlur stdDeviation="0.409065" result="effect1_foregroundBlur_757_4504"/>
</filter>
<filter id="filter4_f_757_4504" x="-2.61824" y="12.7323" width="44.9323" height="46.8998" filterUnits="userSpaceOnUse" color-interpolation-filters="sRGB">
<feFlood flood-opacity="0" result="BackgroundImageFix"/>
<feBlend mode="normal" in="SourceGraphic" in2="BackgroundImageFix" result="shape"/>
<feGaussianBlur stdDeviation="2.04533" result="effect1_foregroundBlur_757_4504"/>
</filter>
<filter id="filter5_f_757_4504" x="4.96495" y="14.4126" width="26.0645" height="28.511" filterUnits="userSpaceOnUse" color-interpolation-filters="sRGB">
<feFlood flood-opacity="0" result="BackgroundImageFix"/>
<feBlend mode="normal" in="SourceGraphic" in2="BackgroundImageFix" result="shape"/>
<feGaussianBlur stdDeviation="0.409065" result="effect1_foregroundBlur_757_4504"/>
</filter>
<filter id="filter6_f_757_4504" x="16.3039" y="25.1002" width="29.7929" height="29.0938" filterUnits="userSpaceOnUse" color-interpolation-filters="sRGB">
<feFlood flood-opacity="0" result="BackgroundImageFix"/>
<feBlend mode="normal" in="SourceGraphic" in2="BackgroundImageFix" result="shape"/>
<feGaussianBlur stdDeviation="0.102266" result="effect1_foregroundBlur_757_4504"/>
</filter>
<filter id="filter7_f_757_4504" x="-17.9203" y="-13.8754" width="82.9972" height="74.4912" filterUnits="userSpaceOnUse" color-interpolation-filters="sRGB">
<feFlood flood-opacity="0" result="BackgroundImageFix"/>
<feBlend mode="normal" in="SourceGraphic" in2="BackgroundImageFix" result="shape"/>
<feGaussianBlur stdDeviation="3.27252" result="effect1_foregroundBlur_757_4504"/>
</filter>
<filter id="filter8_f_757_4504" x="-6.39906" y="-4.76418" width="35.2483" height="45.2547" filterUnits="userSpaceOnUse" color-interpolation-filters="sRGB">
<feFlood flood-opacity="0" result="BackgroundImageFix"/>
<feBlend mode="normal" in="SourceGraphic" in2="BackgroundImageFix" result="shape"/>
<feGaussianBlur stdDeviation="0.409065" result="effect1_foregroundBlur_757_4504"/>
</filter>
<filter id="filter9_f_757_4504" x="-0.809586" y="25.8804" width="29.121" height="29.8199" filterUnits="userSpaceOnUse" color-interpolation-filters="sRGB">
<feFlood flood-opacity="0" result="BackgroundImageFix"/>
<feBlend mode="normal" in="SourceGraphic" in2="BackgroundImageFix" result="shape"/>
<feGaussianBlur stdDeviation="0.409065" result="effect1_foregroundBlur_757_4504"/>
</filter>
<filter id="filter10_f_757_4504" x="8.18516" y="-2.59914" width="44.3983" height="20.7343" filterUnits="userSpaceOnUse" color-interpolation-filters="sRGB">
<feFlood flood-opacity="0" result="BackgroundImageFix"/>
<feBlend mode="normal" in="SourceGraphic" in2="BackgroundImageFix" result="shape"/>
<feGaussianBlur stdDeviation="0.409065" result="effect1_foregroundBlur_757_4504"/>
</filter>
<filter id="filter11_f_757_4504" x="13.0668" y="7.72589" width="42.1924" height="48.1895" filterUnits="userSpaceOnUse" color-interpolation-filters="sRGB">
<feFlood flood-opacity="0" result="BackgroundImageFix"/>
<feBlend mode="normal" in="SourceGraphic" in2="BackgroundImageFix" result="shape"/>
<feGaussianBlur stdDeviation="0.102266" result="effect1_foregroundBlur_757_4504"/>
</filter>
<linearGradient id="paint0_linear_757_4504" x1="38.4686" y1="10.7003" x2="38.2093" y2="43.3588" gradientUnits="userSpaceOnUse">
<stop stop-color="#13497E"/>
<stop offset="0.640419" stop-color="#2B80D7"/>
</linearGradient>
<linearGradient id="paint1_linear_757_4504" x1="48.4805" y1="13.1013" x2="48.493" y2="47.0322" gradientUnits="userSpaceOnUse">
<stop stop-color="#E2C7FE"/>
<stop offset="0.450702" stop-color="#77B8FD"/>
</linearGradient>
<linearGradient id="paint2_linear_757_4504" x1="34.9114" y1="21.819" x2="17.4034" y2="51.2792" gradientUnits="userSpaceOnUse">
<stop stop-color="#269EBF"/>
<stop offset="1" stop-color="#3EBADD"/>
</linearGradient>
<radialGradient id="paint3_radial_757_4504" cx="0" cy="0" r="1" gradientUnits="userSpaceOnUse" gradientTransform="translate(37.2988 31.6659) rotate(139.707) scale(37.156 27.379)">
<stop offset="0.411461" stop-color="#FF7360"/>
<stop offset="1" stop-color="#630513"/>
</radialGradient>
<linearGradient id="paint4_linear_757_4504" x1="31.3614" y1="29.4697" x2="16.9623" y2="50.0191" gradientUnits="userSpaceOnUse">
<stop stop-color="#33B6D2"/>
<stop offset="0.142991" stop-color="#5BD8FF"/>
<stop offset="1" stop-color="#228AA7"/>
</linearGradient>
<linearGradient id="paint5_linear_757_4504" x1="36.0709" y1="31.73" x2="23.7169" y2="52.2826" gradientUnits="userSpaceOnUse">
<stop offset="0.635417" stop-color="#68DEFF"/>
<stop offset="1" stop-color="#F3C8CB"/>
</linearGradient>
<linearGradient id="paint6_linear_757_4504" x1="2.32044" y1="17.8454" x2="15.9351" y2="51.5368" gradientUnits="userSpaceOnUse">
<stop offset="0.661495" stop-color="#88FFF8"/>
<stop offset="1" stop-color="#176781"/>
</linearGradient>
<linearGradient id="paint7_linear_757_4504" x1="9.5533" y1="19.9234" x2="47.3801" y2="4.24103" gradientUnits="userSpaceOnUse">
<stop offset="0.731633" stop-color="#4D89FD"/>
<stop offset="1" stop-color="#033883"/>
</linearGradient>
<linearGradient id="paint8_linear_757_4504" x1="33.2234" y1="5.9445" x2="14.1173" y2="9.31015" gradientUnits="userSpaceOnUse">
<stop stop-color="#D9D9D9"/>
<stop offset="0.658857" stop-color="#D9D9D9" stop-opacity="0"/>
</linearGradient>
<linearGradient id="paint9_linear_757_4504" x1="41.3354" y1="10.4572" x2="21.9281" y2="1.42809" gradientUnits="userSpaceOnUse">
<stop stop-color="#D9D9D9"/>
<stop offset="1" stop-color="#D9D9D9" stop-opacity="0"/>
</linearGradient>
<linearGradient id="paint10_linear_757_4504" x1="44.1176" y1="8.93835" x2="18.6654" y2="52.0498" gradientUnits="userSpaceOnUse">
<stop stop-color="#EFC7FE"/>
<stop offset="0.286458" stop-color="#2CBBF9"/>
<stop offset="0.65625" stop-color="#2CBBF9"/>
<stop offset="1" stop-color="#FDC8C8"/>
</linearGradient>
<linearGradient id="paint11_linear_757_4504" x1="43.7913" y1="25.0087" x2="6.52676" y2="24.2215" gradientUnits="userSpaceOnUse">
<stop stop-color="#D9D9D9"/>
<stop offset="0.659264" stop-color="#D9D9D9" stop-opacity="0"/>
</linearGradient>
<linearGradient id="paint12_linear_757_4504" x1="44.1162" y1="8.93762" x2="18.6639" y2="52.0491" gradientUnits="userSpaceOnUse">
<stop stop-color="#EFC7FE"/>
<stop offset="0.317708" stop-color="#2CBBF9"/>
<stop offset="0.661458" stop-color="#2CBBF9"/>
<stop offset="1" stop-color="#FDC8C8"/>
</linearGradient>
</defs>
</svg>
