<svg width="24" height="25" viewBox="0 0 24 25" fill="none" xmlns="http://www.w3.org/2000/svg">
<g clip-path="url(#clip0_282_18)">
<path d="M13.8344 18.0308L21.0547 21.4534C21.4245 21.6287 21.8673 21.472 22.0297 21.0962C23.7173 17.1921 24.7643 11.6968 22.8915 7.46958C21.1276 3.4881 16.7653 2.40647 15.221 2.63274L12.3878 4.16738C13.46 4.36412 15.6221 5.70201 15.6929 9.47956C15.7515 12.6055 14.4941 15.3543 13.529 16.8561C13.2687 17.2613 13.3992 17.8245 13.8344 18.0308Z" fill="#2B80D7"/>
<mask id="mask0_282_18" style="mask-type:alpha" maskUnits="userSpaceOnUse" x="12" y="2" width="12" height="20">
<path d="M13.8347 18.0314L21.0549 21.4539C21.4248 21.6293 21.8676 21.4725 22.03 21.0968C23.7175 17.1926 24.7646 11.6974 22.8918 7.47014C21.1278 3.48868 16.7656 2.40706 15.2213 2.63332L12.388 4.16796C13.4602 4.3647 15.6224 5.70257 15.6932 9.48017C15.7518 12.6061 14.4943 15.3548 13.5293 16.8567C13.269 17.2619 13.3995 17.8251 13.8347 18.0314Z" fill="#DEA00D"/>
</mask>
<g mask="url(#mask0_282_18)">
<g filter="url(#filter0_f_282_18)">
<path d="M16.0438 19.2045C19.8478 16.4637 24.9452 5.2934 22.3881 3.08486C21.4479 2.27283 12.8669 2.4649 12.1003 1.85831L12.7251 2.78844C12.7251 2.78844 15.2374 5.93515 15.073 10.8765C14.972 13.9113 13.8816 17.0485 13.204 18.5821C13.0933 18.8328 8.05971 16.3491 7.96516 16.5418C7.69627 17.0895 12.6324 19.5347 12.6324 19.5347L15.7947 19.2926C15.8854 19.2857 15.9699 19.2577 16.0438 19.2045Z" fill="url(#paint0_linear_282_18)"/>
</g>
<g filter="url(#filter1_f_282_18)">
<path d="M22.1168 22.1885C25.8371 19.3895 29.2902 11.0759 26.6936 6.43063C26.0875 5.34619 21.5485 2.24301 20.7819 1.63641L20.5436 4.72745C20.5436 4.72745 23.3451 7.4265 23.1803 12.3773C23.0511 16.2597 21.9557 19.2195 21.4889 20.3161C21.3762 20.581 21.0746 20.6971 20.8078 20.5892C19.5471 20.0793 16.2029 18.6998 16.3199 18.4614C16.051 19.0092 20.9416 21.876 20.9416 21.876L21.583 22.2216C21.754 22.3138 21.9615 22.3053 22.1168 22.1885Z" fill="url(#paint1_linear_282_18)"/>
</g>
<g opacity="0.8" filter="url(#filter2_f_282_18)">
<path d="M20.3576 14.0474L14.2517 12.0401C13.4742 11.7845 12.6367 12.2075 12.3811 12.985L10.8519 17.6372C10.5963 18.4147 11.0194 19.2522 11.7969 19.5078L17.9029 21.5152C18.6804 21.7708 19.5178 21.3477 19.7734 20.5702L21.3026 15.918C21.5582 15.1405 21.1351 14.303 20.3576 14.0474Z" fill="#13497E"/>
</g>
<g opacity="0.7" filter="url(#filter3_f_282_18)">
<path d="M13.5822 16.1956C16.5993 14.0888 17.0603 7.37243 14.4491 4.78074C13.776 4.11268 12.7714 3.3955 12.1235 2.9483L12.6516 3.63402C12.6516 3.63402 14.7746 5.95385 14.6357 9.59677C14.5503 11.834 13.6288 14.1469 13.0563 15.2775C12.9627 15.4624 8.70897 13.6313 8.62904 13.7733C8.40181 14.1772 12.5732 15.9798 12.5732 15.9798L13.1007 16.2277C13.2569 16.3012 13.4407 16.2944 13.5822 16.1956Z" fill="#2B80D7"/>
</g>
</g>
<path d="M19.1526 15.0745L12.5262 12.6762C12.3206 12.6018 12.0962 12.7198 12.0326 12.929C11.5721 14.4427 10.3642 17.1753 8.01831 18.1993C4.93331 19.5458 3.91829 16.5332 5.27574 20.3403C6.63324 24.1474 11.1188 25.2393 15.2207 22.9078C18.1941 21.2178 19.3408 17.7685 19.6177 15.8184C19.6642 15.4915 19.4631 15.1868 19.1526 15.0745Z" fill="url(#paint2_linear_282_18)"/>
<mask id="mask1_282_18" style="mask-type:alpha" maskUnits="userSpaceOnUse" x="4" y="12" width="16" height="13">
<path d="M19.1525 15.075L12.5261 12.6768C12.3206 12.6024 12.0961 12.7205 12.0325 12.9296C11.572 14.4433 10.3641 17.1759 8.01823 18.1999C4.93323 19.5465 3.91819 16.5338 5.27566 20.3409C6.63311 24.1479 11.1187 25.2399 15.2206 22.9085C18.194 21.2184 19.3407 17.7692 19.6176 15.819C19.6641 15.4921 19.463 15.1874 19.1525 15.075Z" fill="url(#paint3_radial_282_18)"/>
</mask>
<g mask="url(#mask1_282_18)">
<g filter="url(#filter4_f_282_18)">
<path d="M8.81366 25.1509C15.2453 25.1509 17.9356 13.5442 17.1868 11.5734C17.1465 11.4673 17.0486 11.4001 16.9404 11.3661L4.99123 7.61798L12.2623 10.6167C12.3426 10.6498 12.389 10.7331 12.3716 10.8182C12.2316 11.5026 11.5454 14.4577 9.80771 16.333C7.83224 18.465 3.75203 18.9433 2.06894 18.5458C1.17268 18.5444 0.666748 18.2378 0.666748 18.2378C2.7049 19.5621 5.63184 25.1509 8.81366 25.1509Z" fill="url(#paint4_linear_282_18)"/>
</g>
<g opacity="0.4" filter="url(#filter5_f_282_18)">
<path d="M9.55444 17.8247C12.1679 16.054 14.117 9.34657 13.5959 7.47838C13.5489 7.30988 13.386 7.21755 13.2112 7.20976L6.21019 6.89694L12.3038 9.89278C12.376 9.92828 12.4172 10.0043 12.4037 10.0836C12.2916 10.7416 11.7181 13.724 10.2506 15.6119C8.5934 17.7439 5.17068 18.2223 3.75875 17.8247C3.00691 17.8234 2.61874 18.1278 2.61874 18.1278C4.32849 19.4521 7.23395 19.397 9.55444 17.8247Z" fill="#3EBADD"/>
</g>
<g filter="url(#filter6_f_282_18)">
<path d="M15.4257 23.48C18.5728 21.6912 21.3382 14.5106 20.6849 12.695C20.6353 12.5571 20.4993 12.4825 20.3539 12.4649L12.0162 11.4587L11.8269 12.6819L18.4114 15.253C18.6268 15.3371 18.7659 15.5451 18.7375 15.7745C18.6332 16.6182 18.1871 18.7394 16.2827 20.9066C13.8264 23.7019 10.2754 23.5695 8.59235 23.1719C7.69607 23.1705 7.47549 23.1719 7.47549 23.1719C9.39337 24.5349 12.6594 25.0522 15.4257 23.48Z" fill="url(#paint5_linear_282_18)"/>
</g>
</g>
<path d="M9.14201 11.7511C7.13534 15.5268 5.19351 23.2585 11.3317 24.1143C8.93122 24.299 3.47568 23.0661 0.996821 17.2109C-2.10175 9.89186 3.97769 1.09719 10.765 0.300356C17.4005 -0.478638 20.8206 3.14246 22.7902 7.2481C22.8408 7.34573 22.8851 7.44042 22.9233 7.53085C22.8797 7.43639 22.8353 7.34211 22.7902 7.2481C22.0324 5.78437 19.8762 3.65002 16.2245 5.0223C13.5829 6.01495 10.6858 8.84627 9.14201 11.7511Z" fill="#2CBBF9"/>
<mask id="mask2_282_18" style="mask-type:alpha" maskUnits="userSpaceOnUse" x="0" y="0" width="23" height="25">
<path d="M9.14196 11.7507C7.13524 15.5264 5.19341 23.2581 11.3316 24.114C8.93116 24.2986 3.47561 23.0657 0.99676 17.2105C-2.10181 9.89144 3.97763 1.09679 10.7649 0.29996C17.4004 -0.479037 20.8206 3.14206 22.7902 7.24773C22.8407 7.34536 22.885 7.44 22.9232 7.53043C22.8796 7.43597 22.8353 7.34173 22.7902 7.24773C22.0323 5.784 19.8761 3.64963 16.2244 5.02189C13.5829 6.01453 10.6858 8.8459 9.14196 11.7507Z" fill="#00CCC0"/>
</mask>
<g mask="url(#mask2_282_18)">
<g filter="url(#filter7_f_282_18)">
<path d="M-4.99885 17.0479C-2.52001 22.9031 8.75482 24.6565 11.1553 24.4719C11.2757 23.336 7.83155 20.8699 7.95168 18.1258C7.95168 18.1258 3.55977 18.2665 2.88915 11.7503C2.21852 5.23416 5.95597 1.9548 5.95597 1.9548C1.50007 4.15147 -6.33986 13.8804 -4.99885 17.0479Z" fill="url(#paint6_linear_282_18)"/>
<path d="M22.9229 7.53124C34.4933 -1.80812 14.9193 -3.96408 8.13199 -3.16725C5.30647 -2.83554 -2.12604 4.63512 0.799681 7.84999C0.799681 7.84999 3.83371 4.48875 8.13199 3.87466C12.4302 3.26059 14.4206 6.35923 14.4206 6.35923C14.9443 6.03803 16.3213 5.94955 16.8375 5.75556C20.7328 4.29174 22.7325 7.12999 22.9229 7.53124Z" fill="url(#paint7_linear_282_18)"/>
</g>
<g filter="url(#filter8_f_282_18)">
<path d="M1.27941 17.9648C-5.62861 15.7832 -2.30379 0.966463 4.62695 -1.15412C10.8629 -3.06212 11.3768 -0.0641273 12.4737 0.118528C12.6161 0.114128 12.6934 0.116949 12.6934 0.116949C12.6166 0.130376 12.544 0.130226 12.4737 0.118528C11.6497 0.143987 8.64211 0.411246 5.77393 2.86624C1.4602 6.55848 -0.276618 12.4613 1.27941 17.9648Z" fill="#56E5FF"/>
</g>
<g filter="url(#filter9_f_282_18)">
<path d="M12.4498 24.1018C10.5301 26.2629 2.67246 23.6351 0.193604 17.7799C-0.252689 16.7257 0.232554 13.4916 0.20031 12.2346C0.194691 12.1403 0.193604 12.0899 0.193604 12.0899C0.196782 12.1346 0.198983 12.1829 0.20031 12.2346C0.242007 12.9345 0.53326 16.0488 2.48158 18.8633C4.69243 22.0569 9.23355 23.3078 9.23355 23.3078C9.82612 23.7293 11.5 23.9694 12.4498 24.1018Z" fill="#FDC7C7"/>
</g>
<mask id="mask3_282_18" style="mask-type:alpha" maskUnits="userSpaceOnUse" x="-4" y="11" width="16" height="16">
<path d="M11.7303 22.5991L0.761108 11.2913L-3.20906 15.1431L7.76017 26.4509L11.7303 22.5991Z" fill="url(#paint8_linear_282_18)"/>
</mask>
<g mask="url(#mask3_282_18)">
<path d="M12.4504 24.1016C10.5307 26.2626 2.67307 23.6349 0.194214 17.7796C-0.252079 16.7255 0.233165 13.4913 0.20092 12.2344C0.195302 12.1401 0.194214 12.0896 0.194214 12.0896C0.197392 12.1343 0.199594 12.1827 0.20092 12.2344C0.242617 12.9343 0.533874 16.0486 2.48219 18.863C4.69302 22.0567 9.23418 23.3075 9.23418 23.3075C9.82671 23.7291 11.5006 23.9692 12.4504 24.1016Z" fill="#FDC7C7"/>
</g>
<g filter="url(#filter10_f_282_18)">
<path d="M23.4135 7.83854C23.919 4.16497 17.365 -1.52784 10.5776 -0.73101C8.12196 -0.442717 5.94616 1.92342 4.07697 3.85686C4.07697 3.85686 8.31899 0.0869934 13.4832 0.812235C18.6475 1.53747 20.9549 5.36147 20.9549 5.36147C22.0332 5.99213 22.5253 7.93006 23.4135 7.83854Z" fill="#EFC7FD"/>
</g>
<mask id="mask4_282_18" style="mask-type:alpha" maskUnits="userSpaceOnUse" x="3" y="-2" width="20" height="10">
<path d="M22.7323 1.32469L4.20547 -1.4299L3.28052 4.79199L21.8073 7.54658L22.7323 1.32469Z" fill="url(#paint9_linear_282_18)"/>
</mask>
<g mask="url(#mask4_282_18)">
<path d="M23.4135 7.83935C23.919 4.16579 17.365 -1.52701 10.5776 -0.730187C8.12196 -0.441893 5.94616 1.92424 4.07697 3.85768C4.07697 3.85768 8.31899 0.0878171 13.4832 0.813058C18.6475 1.5383 20.9549 5.36228 20.9549 5.36228C22.0332 5.99294 22.5253 7.93091 23.4135 7.83935Z" fill="#EFC7FD"/>
</g>
<g filter="url(#filter11_f_282_18)">
<path d="M15.5574 4.09918C8.60451 6.29189 2.4456 19.0902 8.43008 23.8909C14.4146 28.6916 21.4106 19.5723 24.9304 12.1861C23.189 7.22227 22.5103 1.90646 15.5574 4.09918Z" fill="url(#paint10_linear_282_18)"/>
</g>
<mask id="mask5_282_18" style="mask-type:alpha" maskUnits="userSpaceOnUse" x="-4" y="-4" width="31" height="32">
<path d="M26.8168 7.18074L9.47577 -3.31427L-3.04319 17.3739L14.2979 27.869L26.8168 7.18074Z" fill="url(#paint11_linear_282_18)"/>
</mask>
<g mask="url(#mask5_282_18)">
<path d="M15.5568 4.09884C8.60391 6.29157 2.44496 19.0899 8.42943 23.8906C14.4139 28.6913 21.41 19.572 24.9297 12.1858C23.1883 7.22195 22.5096 1.90613 15.5568 4.09884Z" fill="url(#paint12_linear_282_18)"/>
</g>
</g>
</g>
<defs>
<filter id="filter0_f_282_18" x="1.81858" y="-4.27767" width="27.3955" height="29.9484" filterUnits="userSpaceOnUse" color-interpolation-filters="sRGB">
<feFlood flood-opacity="0" result="BackgroundImageFix"/>
<feBlend mode="normal" in="SourceGraphic" in2="BackgroundImageFix" result="shape"/>
<feGaussianBlur stdDeviation="3.06799" result="effect1_foregroundBlur_282_18"/>
</filter>
<filter id="filter1_f_282_18" x="16.1046" y="1.43188" width="11.6977" height="21.0568" filterUnits="userSpaceOnUse" color-interpolation-filters="sRGB">
<feFlood flood-opacity="0" result="BackgroundImageFix"/>
<feBlend mode="normal" in="SourceGraphic" in2="BackgroundImageFix" result="shape"/>
<feGaussianBlur stdDeviation="0.102266" result="effect1_foregroundBlur_282_18"/>
</filter>
<filter id="filter2_f_282_18" x="5.05048" y="6.23863" width="22.0536" height="21.078" filterUnits="userSpaceOnUse" color-interpolation-filters="sRGB">
<feFlood flood-opacity="0" result="BackgroundImageFix"/>
<feBlend mode="normal" in="SourceGraphic" in2="BackgroundImageFix" result="shape"/>
<feGaussianBlur stdDeviation="2.86346" result="effect1_foregroundBlur_282_18"/>
</filter>
<filter id="filter3_f_282_18" x="7.80196" y="2.13017" width="9.17169" height="14.965" filterUnits="userSpaceOnUse" color-interpolation-filters="sRGB">
<feFlood flood-opacity="0" result="BackgroundImageFix"/>
<feBlend mode="normal" in="SourceGraphic" in2="BackgroundImageFix" result="shape"/>
<feGaussianBlur stdDeviation="0.409065" result="effect1_foregroundBlur_282_18"/>
</filter>
<filter id="filter4_f_282_18" x="-3.42391" y="3.52732" width="24.8233" height="25.7143" filterUnits="userSpaceOnUse" color-interpolation-filters="sRGB">
<feFlood flood-opacity="0" result="BackgroundImageFix"/>
<feBlend mode="normal" in="SourceGraphic" in2="BackgroundImageFix" result="shape"/>
<feGaussianBlur stdDeviation="2.04533" result="effect1_foregroundBlur_282_18"/>
</filter>
<filter id="filter5_f_282_18" x="1.80061" y="6.07881" width="12.6981" height="13.806" filterUnits="userSpaceOnUse" color-interpolation-filters="sRGB">
<feFlood flood-opacity="0" result="BackgroundImageFix"/>
<feBlend mode="normal" in="SourceGraphic" in2="BackgroundImageFix" result="shape"/>
<feGaussianBlur stdDeviation="0.409065" result="effect1_foregroundBlur_282_18"/>
</filter>
<filter id="filter6_f_282_18" x="7.27096" y="11.2542" width="13.7149" height="13.3983" filterUnits="userSpaceOnUse" color-interpolation-filters="sRGB">
<feFlood flood-opacity="0" result="BackgroundImageFix"/>
<feBlend mode="normal" in="SourceGraphic" in2="BackgroundImageFix" result="shape"/>
<feGaussianBlur stdDeviation="0.102266" result="effect1_foregroundBlur_282_18"/>
</filter>
<filter id="filter7_f_282_18" x="-11.6961" y="-9.86444" width="44.7461" height="40.8944" filterUnits="userSpaceOnUse" color-interpolation-filters="sRGB">
<feFlood flood-opacity="0" result="BackgroundImageFix"/>
<feBlend mode="normal" in="SourceGraphic" in2="BackgroundImageFix" result="shape"/>
<feGaussianBlur stdDeviation="3.27252" result="effect1_foregroundBlur_282_18"/>
</filter>
<filter id="filter8_f_282_18" x="-3.34538" y="-2.605" width="16.8569" height="21.3879" filterUnits="userSpaceOnUse" color-interpolation-filters="sRGB">
<feFlood flood-opacity="0" result="BackgroundImageFix"/>
<feBlend mode="normal" in="SourceGraphic" in2="BackgroundImageFix" result="shape"/>
<feGaussianBlur stdDeviation="0.409065" result="effect1_foregroundBlur_282_18"/>
</filter>
<filter id="filter9_f_282_18" x="-0.814285" y="11.2717" width="14.0822" height="14.3986" filterUnits="userSpaceOnUse" color-interpolation-filters="sRGB">
<feFlood flood-opacity="0" result="BackgroundImageFix"/>
<feBlend mode="normal" in="SourceGraphic" in2="BackgroundImageFix" result="shape"/>
<feGaussianBlur stdDeviation="0.409065" result="effect1_foregroundBlur_282_18"/>
</filter>
<filter id="filter10_f_282_18" x="3.25884" y="-1.62462" width="21.0002" height="10.2844" filterUnits="userSpaceOnUse" color-interpolation-filters="sRGB">
<feFlood flood-opacity="0" result="BackgroundImageFix"/>
<feBlend mode="normal" in="SourceGraphic" in2="BackgroundImageFix" result="shape"/>
<feGaussianBlur stdDeviation="0.409065" result="effect1_foregroundBlur_282_18"/>
</filter>
<filter id="filter11_f_282_18" x="5.80511" y="3.38659" width="19.3298" height="22.0455" filterUnits="userSpaceOnUse" color-interpolation-filters="sRGB">
<feFlood flood-opacity="0" result="BackgroundImageFix"/>
<feBlend mode="normal" in="SourceGraphic" in2="BackgroundImageFix" result="shape"/>
<feGaussianBlur stdDeviation="0.102266" result="effect1_foregroundBlur_282_18"/>
</filter>
<linearGradient id="paint0_linear_282_18" x1="17.4198" y1="4.84542" x2="17.3023" y2="19.6342" gradientUnits="userSpaceOnUse">
<stop stop-color="#13497E"/>
<stop offset="0.640419" stop-color="#2B80D7"/>
</linearGradient>
<linearGradient id="paint1_linear_282_18" x1="21.9534" y1="5.93265" x2="21.9591" y2="21.2976" gradientUnits="userSpaceOnUse">
<stop stop-color="#E2C7FE"/>
<stop offset="0.450702" stop-color="#77B8FD"/>
</linearGradient>
<linearGradient id="paint2_linear_282_18" x1="15.8089" y1="9.88031" x2="7.88078" y2="23.2208" gradientUnits="userSpaceOnUse">
<stop stop-color="#269EBF"/>
<stop offset="1" stop-color="#3EBADD"/>
</linearGradient>
<radialGradient id="paint3_radial_282_18" cx="0" cy="0" r="1" gradientUnits="userSpaceOnUse" gradientTransform="translate(16.89 14.3393) rotate(139.707) scale(16.8254 12.398)">
<stop offset="0.411461" stop-color="#FF7360"/>
<stop offset="1" stop-color="#630513"/>
</radialGradient>
<linearGradient id="paint4_linear_282_18" x1="14.2014" y1="13.3448" x2="7.68104" y2="22.6502" gradientUnits="userSpaceOnUse">
<stop stop-color="#33B6D2"/>
<stop offset="0.142991" stop-color="#5BD8FF"/>
<stop offset="1" stop-color="#228AA7"/>
</linearGradient>
<linearGradient id="paint5_linear_282_18" x1="16.334" y1="14.3683" x2="10.7397" y2="23.6751" gradientUnits="userSpaceOnUse">
<stop offset="0.635417" stop-color="#68DEFF"/>
<stop offset="1" stop-color="#F3C8CB"/>
</linearGradient>
<linearGradient id="paint6_linear_282_18" x1="1.05075" y1="8.08092" x2="7.21588" y2="23.3374" gradientUnits="userSpaceOnUse">
<stop offset="0.661495" stop-color="#88FFF8"/>
<stop offset="1" stop-color="#176781"/>
</linearGradient>
<linearGradient id="paint7_linear_282_18" x1="4.326" y1="9.02191" x2="21.4551" y2="1.92046" gradientUnits="userSpaceOnUse">
<stop offset="0.731633" stop-color="#4D89FD"/>
<stop offset="1" stop-color="#033883"/>
</linearGradient>
<linearGradient id="paint8_linear_282_18" x1="9.30434" y1="23.9642" x2="2.18605" y2="18.8159" gradientUnits="userSpaceOnUse">
<stop stop-color="#D9D9D9"/>
<stop offset="0.658857" stop-color="#D9D9D9" stop-opacity="0"/>
</linearGradient>
<linearGradient id="paint9_linear_282_18" x1="22.0236" y1="6.00671" x2="13.9321" y2="0.670169" gradientUnits="userSpaceOnUse">
<stop stop-color="#D9D9D9"/>
<stop offset="1" stop-color="#D9D9D9" stop-opacity="0"/>
</linearGradient>
<linearGradient id="paint10_linear_282_18" x1="19.9778" y1="4.04755" x2="8.45223" y2="23.5697" gradientUnits="userSpaceOnUse">
<stop stop-color="#EFC7FE"/>
<stop offset="0.286458" stop-color="#2CBBF9"/>
<stop offset="0.65625" stop-color="#2CBBF9"/>
<stop offset="1" stop-color="#FDC8C8"/>
</linearGradient>
<linearGradient id="paint11_linear_282_18" x1="20.5778" y1="16.642" x2="6.32528" y2="7.60079" gradientUnits="userSpaceOnUse">
<stop stop-color="#D9D9D9"/>
<stop offset="0.659264" stop-color="#D9D9D9" stop-opacity="0"/>
</linearGradient>
<linearGradient id="paint12_linear_282_18" x1="19.9771" y1="4.04721" x2="8.45157" y2="23.5694" gradientUnits="userSpaceOnUse">
<stop stop-color="#EFC7FE"/>
<stop offset="0.317708" stop-color="#2CBBF9"/>
<stop offset="0.661458" stop-color="#2CBBF9"/>
<stop offset="1" stop-color="#FDC8C8"/>
</linearGradient>
<clipPath id="clip0_282_18">
<rect width="24" height="24.4528" fill="white"/>
</clipPath>
</defs>
</svg>
