<svg width="24" height="24" viewBox="0 0 24 24" fill="none" xmlns="http://www.w3.org/2000/svg">
<g clip-path="url(#clip0_192_57)">
<path d="M12 24C18.6274 24 24 18.6274 24 12C24 5.37258 18.6274 0 12 0C5.37258 0 0 5.37258 0 12C0 18.6274 5.37258 24 12 24Z" fill="#E9EAE9"/>
<path d="M8.62991 10.4406L11.7038 7.36672L14.779 10.4419L16.5676 8.65262L11.7038 3.78946L6.84065 8.65262L8.62928 10.4412M3.78949 11.7038L5.57812 9.91577L7.36675 11.7031L5.57812 13.4918L3.78949 11.7038ZM8.62991 12.9669L11.7038 16.0421L14.779 12.9657L16.5682 14.753L11.7051 19.6162L6.84191 14.753L8.63307 12.9669M16.044 11.7038L17.8295 9.91577L19.6181 11.7044L17.8295 13.493L16.044 11.7038Z" fill="#0F0F0F"/>
<path d="M13.5177 11.7025L11.7032 9.88736L10.3617 11.2282L10.2076 11.3823L9.89178 11.6981L11.7051 13.512L13.5202 11.6968" fill="#0F0F0F"/>
</g>
<defs>
<clipPath id="clip0_192_57">
<rect width="24" height="24" fill="white"/>
</clipPath>
</defs>
</svg>
