<svg width="24" height="24" viewBox="0 0 24 24" fill="none" xmlns="http://www.w3.org/2000/svg">
<g clip-path="url(#clip0_192_101)">
<path d="M12 23.3684C18.2786 23.3684 23.3684 18.42 23.3684 12.3158C23.3684 6.21158 18.2786 1.26315 12 1.26315C5.72141 1.26315 0.631592 6.21158 0.631592 12.3158C0.631592 18.42 5.72141 23.3684 12 23.3684Z" fill="#161616"/>
<path d="M7.72485 12.2665C7.41582 12.0123 7.03422 11.8623 6.63474 11.8383C6.98665 11.8021 7.31601 11.6481 7.56948 11.4013C7.68462 11.2745 7.77353 11.1262 7.83109 10.9649C7.88865 10.8036 7.91372 10.6325 7.90485 10.4615C7.91469 10.2232 7.86239 9.98652 7.7531 9.77458C7.64381 9.56265 7.48129 9.38278 7.28148 9.25264C6.92652 9.0281 6.52226 8.89327 6.10358 8.85979V8.12399H5.20611V8.83138H4.7078V8.12399H3.80842V8.83138H3.09601V15.0088H3.80906V15.7067H4.70843V15.0088H5.20674V15.7067H6.10548V14.9912C6.59292 14.968 7.06452 14.8109 7.46842 14.5371C7.67313 14.3928 7.83877 14.2 7.95045 13.9758C8.06213 13.7517 8.11634 13.5033 8.10821 13.253C8.11947 13.0707 8.09103 12.888 8.02484 12.7177C7.95865 12.5474 7.8563 12.3935 7.72485 12.2665ZM4.7198 10.056H5.56547C5.75521 10.0449 5.9423 10.1048 6.09032 10.224C6.15019 10.2828 6.19774 10.3529 6.23021 10.4303C6.26267 10.5077 6.27938 10.5907 6.27938 10.6746C6.27938 10.7585 6.26267 10.8416 6.23021 10.919C6.19774 10.9963 6.15019 11.0665 6.09032 11.1253C5.94221 11.2443 5.75519 11.3042 5.56547 11.2933H4.71853L4.7198 10.056ZM6.2419 13.603C6.08416 13.7232 5.88851 13.7828 5.69054 13.7709H4.71916V12.5008H5.6918C5.88978 12.489 6.08546 12.5486 6.24317 12.6688C6.30599 12.7295 6.35596 12.8021 6.39009 12.8825C6.42421 12.9628 6.4418 13.0492 6.4418 13.1365C6.4418 13.2238 6.42421 13.3102 6.39009 13.3906C6.35596 13.4709 6.30599 13.5436 6.24317 13.6042L6.2419 13.603Z" fill="#FF9415"/>
<path d="M12.2097 9.09221C11.8269 8.91013 11.4069 8.81995 10.9832 8.82885H8.388V15.0063H10.0118V13.1002H10.9825C11.4064 13.1092 11.8266 13.0186 12.2091 12.8356C12.5489 12.6713 12.8341 12.4123 13.0301 12.0897C13.2211 11.7452 13.3213 11.3578 13.3213 10.9639C13.3213 10.57 13.2211 10.1826 13.0301 9.83811C12.8342 9.51561 12.5493 9.25659 12.2097 9.09221ZM11.4461 11.5604C11.2783 11.7107 11.0577 11.7881 10.8328 11.7758H10.0118V10.1552H10.8328C10.9442 10.1491 11.0557 10.1651 11.161 10.2022C11.2662 10.2392 11.3631 10.2966 11.4461 10.3712C11.5913 10.536 11.6714 10.7481 11.6714 10.9677C11.6714 11.1873 11.5913 11.3994 11.4461 11.5642V11.5604Z" fill="#FF9415"/>
<path d="M16.6029 10.4545H16.3825C16.1137 10.4437 15.8466 10.5015 15.6063 10.6225C15.3963 10.7434 15.222 10.9178 15.1011 11.1278L14.9747 10.4571H13.5758V15.0107H15.1023V12.8223C15.1023 12.1457 15.4112 11.8074 16.0288 11.8074H16.6023L16.6029 10.4545Z" fill="#FF9415"/>
<path d="M20.3766 10.6876C19.9657 10.4981 19.5186 10.4 19.0661 10.4C18.6136 10.4 18.1665 10.4981 17.7555 10.6876C17.393 10.8684 17.0921 11.1525 16.8909 11.5042C16.6907 11.882 16.5861 12.3031 16.5861 12.7307C16.5861 13.1583 16.6907 13.5794 16.8909 13.9573C17.0923 14.309 17.3934 14.5932 17.7562 14.7739C18.1671 14.9634 18.6142 15.0615 19.0667 15.0615C19.5192 15.0615 19.9663 14.9634 20.3772 14.7739C20.7397 14.5933 21.0406 14.3094 21.2419 13.9579C21.4422 13.58 21.547 13.1588 21.547 12.7311C21.547 12.3033 21.4422 11.8821 21.2419 11.5042C21.0404 11.1525 20.7394 10.8684 20.3766 10.6876ZM19.745 13.5379C19.6597 13.6337 19.555 13.7105 19.4378 13.763C19.3207 13.8155 19.1938 13.8426 19.0655 13.8426C18.9371 13.8426 18.8102 13.8155 18.6931 13.763C18.576 13.7105 18.4713 13.6337 18.3859 13.5379C18.2248 13.2994 18.1387 13.0182 18.1387 12.7304C18.1387 12.4426 18.2248 12.1614 18.3859 11.923C18.4713 11.8271 18.576 11.7504 18.6931 11.6979C18.8102 11.6454 18.9371 11.6182 19.0655 11.6182C19.1938 11.6182 19.3207 11.6454 19.4378 11.6979C19.555 11.7504 19.6597 11.8271 19.745 11.923C19.9061 12.1614 19.9922 12.4426 19.9922 12.7304C19.9922 13.0182 19.9061 13.2994 19.745 13.5379Z" fill="#FF9415"/>
<path d="M12 0C9.62663 0 7.30655 0.703787 5.33316 2.02236C3.35977 3.34094 1.8217 5.21509 0.913451 7.4078C0.00519938 9.60051 -0.232441 12.0133 0.230582 14.3411C0.693605 16.6689 1.83649 18.8071 3.51472 20.4853C5.19295 22.1635 7.33115 23.3064 9.65892 23.7694C11.9867 24.2324 14.3995 23.9948 16.5922 23.0866C18.7849 22.1783 20.6591 20.6402 21.9776 18.6668C23.2962 16.6935 24 14.3734 24 12C24 8.8174 22.7357 5.76516 20.4853 3.51472C18.2349 1.26428 15.1826 0 12 0ZM19.435 19.4349C17.5909 21.2734 15.1284 22.3595 12.5274 22.4815C9.92627 22.6036 7.37293 21.7528 5.36485 20.0951C3.35678 18.4373 2.03784 16.0913 1.66504 13.5142C1.29224 10.9371 1.89229 8.31345 3.34826 6.15459C4.80422 3.99573 7.01181 2.45627 9.54084 1.83619C12.0699 1.21612 14.7392 1.55984 17.0286 2.80038C19.3181 4.04093 21.0636 6.08943 21.9252 8.54671C22.7868 11.004 22.7026 13.694 21.6891 16.0926C21.1611 17.3421 20.3956 18.4772 19.435 19.4349Z" fill="#FF9415"/>
</g>
<defs>
<clipPath id="clip0_192_101">
<rect width="24" height="24" fill="white"/>
</clipPath>
</defs>
</svg>
