<svg width="24" height="24" viewBox="0 0 24 24" fill="none" xmlns="http://www.w3.org/2000/svg">
<circle cx="12" cy="12" r="12" fill="black"/>
<g clip-path="url(#clip0_2884_599)">
<path d="M6.72658 4.2431C7.18892 4.2431 7.63538 4.41367 7.98229 4.72283L8.43943 5.13022C8.72853 5.38785 9.10059 5.53 9.48586 5.53H14.9118C15.2971 5.53 15.6692 5.38785 15.9583 5.13022L16.4154 4.72283C16.7623 4.41367 17.2088 4.2431 17.6711 4.2431H20.1546V5.69014H4.24304V4.2431H6.72658Z" fill="white"/>
<path d="M17.6711 20.1547C17.2088 20.1547 16.7623 19.9841 16.4154 19.675L15.9583 19.2676C15.6692 19.01 15.2971 18.8678 14.9118 18.8678H9.48586C9.10059 18.8678 8.72853 19.01 8.43943 19.2676L7.98229 19.675C7.63538 19.9841 7.18892 20.1547 6.72658 20.1547H4.24304V18.7076H20.1546V20.1547H17.6711Z" fill="white"/>
<path d="M16.4154 6.32989C16.7623 6.02073 17.2088 5.85016 17.6711 5.85016H20.1546V7.29719H4.24304V5.85016H6.72658C7.18892 5.85016 7.63538 6.02073 7.98229 6.32989L8.43943 6.73727C8.72853 6.99491 9.10059 7.13705 9.48586 7.13705H14.9118C15.2971 7.13705 15.6692 6.99491 15.9583 6.73727L16.4154 6.32989Z" fill="white"/>
<path d="M17.6711 18.5476C17.2088 18.5476 16.7623 18.3771 16.4154 18.0679L15.9583 17.6605C15.6692 17.4029 15.2971 17.2608 14.9118 17.2608H9.48586C9.10059 17.2608 8.72853 17.4029 8.43943 17.6605L7.98229 18.0679C7.63538 18.3771 7.18892 18.5476 6.72658 18.5476H4.24304V17.1006H20.1546V18.5476H17.6711Z" fill="white"/>
<path d="M18.4683 7.93719C18.8153 7.62803 19.2617 7.45746 19.724 7.45746H20.1546V8.90449H16.9402V8.74435H16.9647C17.35 8.74435 17.7221 8.60221 18.0112 8.34457L18.4683 7.93719Z" fill="white"/>
<path d="M16.9402 10.3515H16.9647C17.35 10.3515 17.7221 10.2093 18.0112 9.9517L18.4683 9.54431C18.8153 9.23515 19.2617 9.06458 19.724 9.06458H20.1546V10.5116H16.9402V10.3515Z" fill="white"/>
<path d="M7.45747 8.74435V8.90449H4.24304V7.45746H4.67359C5.13593 7.45746 5.58239 7.62803 5.92931 7.93719L6.38645 8.34457C6.67554 8.60221 7.04759 8.74435 7.43287 8.74435H7.45747Z" fill="white"/>
<path d="M7.45747 10.3515V10.5116H4.24304V9.06458H4.67359C5.13593 9.06458 5.58239 9.23515 5.92931 9.54431L6.38645 9.9517C6.67554 10.2093 7.04759 10.3515 7.43287 10.3515H7.45747Z" fill="white"/>
<path d="M7.43287 11.9588H7.45747V12.1189H4.24304V10.6719H4.67359C5.13593 10.6719 5.58239 10.8424 5.92931 11.1516L6.38645 11.559C6.67554 11.8167 7.04759 11.9588 7.43287 11.9588Z" fill="white"/>
<path d="M16.9402 12.1189H20.1546V10.6719H19.724C19.2617 10.6719 18.8153 10.8424 18.4683 11.1516L18.0112 11.559C17.7221 11.8167 17.35 11.9588 16.9647 11.9588H16.9402V12.1189Z" fill="white"/>
<path d="M16.9647 13.5657H16.9402V13.7259H20.1546V12.2789H19.724C19.2617 12.2789 18.8153 12.4494 18.4683 12.7586L18.0112 13.166C17.7221 13.4236 17.35 13.5657 16.9647 13.5657Z" fill="white"/>
<path d="M7.45747 13.5657H7.43287C7.04759 13.5657 6.67554 13.4236 6.38645 13.166L5.92931 12.7586C5.58239 12.4494 5.13593 12.2789 4.67359 12.2789H4.24304V13.7259H7.45747V13.5657Z" fill="white"/>
<path d="M7.43287 15.1731H7.45747V15.3332H4.24304V13.8862H4.67359C5.13593 13.8862 5.58239 14.0568 5.92931 14.366L6.38645 14.7734C6.67554 15.031 7.04759 15.1731 7.43287 15.1731Z" fill="white"/>
<path d="M16.9402 15.3332H20.1546V13.8862H19.724C19.2617 13.8862 18.8153 14.0568 18.4683 14.366L18.0112 14.7734C17.7221 15.031 17.35 15.1731 16.9647 15.1731H16.9402V15.3332Z" fill="white"/>
<path d="M16.9648 16.7802H16.9387V16.9403H20.1546V15.4933H19.724C19.2617 15.4933 18.8153 15.6639 18.4684 15.973L18.0112 16.3804C17.7221 16.638 17.35 16.7802 16.9648 16.7802Z" fill="white"/>
<path d="M7.45889 16.9403V16.7802H7.43287C7.04759 16.7802 6.67554 16.638 6.38645 16.3804L5.92931 15.973C5.58239 15.6639 5.13593 15.4933 4.67359 15.4933H4.24304V16.9403H7.45889Z" fill="white"/>
<mask id="mask0_2884_599" style="mask-type:alpha" maskUnits="userSpaceOnUse" x="8" y="8" width="8" height="8">
<path d="M14.849 8.71631C15.3099 8.71631 15.6836 9.09001 15.6836 9.55097V14.8491C15.6836 15.3101 15.3099 15.6837 14.849 15.6837H9.55085C9.08989 15.6837 8.71619 15.3101 8.71619 14.8491V9.55097C8.71619 9.09001 9.08989 8.71631 9.55085 8.71631H14.849Z" fill="#333333"/>
</mask>
<g mask="url(#mask0_2884_599)">
<g filter="url(#filter0_f_2884_599)">
<path d="M11.4731 18.5193C7.48009 16.0137 4.9827 12.8039 5.89501 11.35C6.80733 9.89608 10.7839 10.7487 14.7769 13.2543C18.7699 15.7599 21.2673 18.9697 20.3549 20.4236C19.4426 21.8775 15.4661 21.0249 11.4731 18.5193Z" fill="url(#paint0_linear_2884_599)"/>
</g>
<g filter="url(#filter1_f_2884_599)">
<path d="M12.8217 4.28302C16.7236 6.73148 18.9459 10.2157 17.7853 12.0652C16.6248 13.9148 12.5208 13.4293 8.61887 10.9808C4.71696 8.53235 2.49467 5.04814 3.65526 3.1986C4.81585 1.34906 8.91982 1.83457 12.8217 4.28302Z" fill="url(#paint1_linear_2884_599)"/>
</g>
</g>
</g>
<defs>
<filter id="filter0_f_2884_599" x="1.55191" y="6.48551" width="23.1461" height="18.8025" filterUnits="userSpaceOnUse" color-interpolation-filters="sRGB">
<feFlood flood-opacity="0" result="BackgroundImageFix"/>
<feBlend mode="normal" in="SourceGraphic" in2="BackgroundImageFix" result="shape"/>
<feGaussianBlur stdDeviation="2.07756" result="effect1_foregroundBlur_2884_599"/>
</filter>
<filter id="filter1_f_2884_599" x="-0.807708" y="-2.07956" width="23.056" height="19.4229" filterUnits="userSpaceOnUse" color-interpolation-filters="sRGB">
<feFlood flood-opacity="0" result="BackgroundImageFix"/>
<feBlend mode="normal" in="SourceGraphic" in2="BackgroundImageFix" result="shape"/>
<feGaussianBlur stdDeviation="2.07756" result="effect1_foregroundBlur_2884_599"/>
</filter>
<linearGradient id="paint0_linear_2884_599" x1="18.6845" y1="17.4478" x2="8.50017" y2="13.3741" gradientUnits="userSpaceOnUse">
<stop offset="0.2" stop-color="#C74800"/>
<stop offset="0.4" stop-color="#F9ED00"/>
<stop offset="0.6" stop-color="#CB00CB"/>
<stop offset="0.69526" stop-color="#290686"/>
<stop offset="0.8" stop-color="#2F3EC6"/>
<stop offset="1" stop-color="#25E893"/>
</linearGradient>
<linearGradient id="paint1_linear_2884_599" x1="7.27183" y1="4.11821" x2="17.056" y2="9.21031" gradientUnits="userSpaceOnUse">
<stop offset="0.2" stop-color="#E0621A"/>
<stop offset="0.4" stop-color="#F9ED00"/>
<stop offset="0.6" stop-color="#CB00CB"/>
<stop offset="0.69526" stop-color="#290686"/>
<stop offset="0.8" stop-color="#2F3EC6"/>
<stop offset="1" stop-color="#25E893"/>
</linearGradient>
<clipPath id="clip0_2884_599">
<rect width="16.9724" height="16.9724" fill="white" transform="translate(3.71265 3.71271)"/>
</clipPath>
</defs>
</svg>
