<svg width="24" height="24" viewBox="0 0 24 24" fill="none" xmlns="http://www.w3.org/2000/svg">
<g clip-path="url(#clip0_2476_128)">
<path d="M23.9999 12C23.9999 14.3734 23.2961 16.6935 21.9775 18.6668C20.6589 20.6402 18.7848 22.1783 16.5921 23.0866C14.3994 23.9948 11.9866 24.2324 9.6588 23.7694C7.33103 23.3064 5.19283 22.1635 3.5146 20.4853C1.83637 18.8071 0.693483 16.6689 0.23046 14.3411C-0.232563 12.0133 0.00507729 9.60051 0.913329 7.4078C1.82158 5.21509 3.35965 3.34094 5.33304 2.02236C7.30643 0.703788 9.62651 0 11.9999 0C15.1825 0 18.2347 1.26428 20.4852 3.51472C22.7356 5.76516 23.9999 8.8174 23.9999 12V12Z" fill="#F7931A"/>
<path fill-rule="evenodd" clip-rule="evenodd" d="M8.52872 5.47962L11.2865 6.21817L11.9029 3.92072L13.2818 4.2949L12.6895 6.49744L13.8142 6.79962L14.4076 4.57308L15.8105 4.94835L15.2062 7.1869C15.2062 7.1869 17.4971 7.69417 18.036 9.55744C18.5749 11.4207 16.8513 12.3993 16.3189 12.4364C16.3189 12.4364 18.3262 13.5371 17.6367 15.7025C16.9473 17.868 14.8309 18.2553 12.6044 17.7589L12 20.0804L10.5971 19.7051L11.2135 17.4196L10.1007 17.1163L9.48436 19.4182L8.09236 19.044L8.70982 16.7531L5.87891 15.9894L6.59236 14.4054C6.59236 14.4054 7.39091 14.6236 7.69309 14.6956C7.99527 14.7676 8.18945 14.4534 8.27454 14.1393C8.35963 13.8251 9.64145 8.61817 9.76254 8.18944C9.88363 7.76072 9.83454 7.42581 9.32618 7.29381C8.81782 7.16181 8.12618 6.95562 8.12618 6.95562L8.52872 5.47962ZM11.3105 12.3753L10.5469 15.4113C10.5469 15.4113 14.3335 16.7782 14.8178 14.8549C15.3022 12.9316 11.3105 12.3753 11.3105 12.3753ZM11.6618 10.9353L12.4113 8.15344C12.4113 8.15344 15.6535 8.73381 15.2542 10.2818C14.8549 11.8298 12.9436 11.2364 11.6618 10.9353Z" fill="white"/>
</g>
<defs>
<clipPath id="clip0_2476_128">
<rect width="24" height="24" rx="12" fill="white"/>
</clipPath>
</defs>
</svg>
