<svg width="24" height="24" viewBox="0 0 24 24" fill="none" xmlns="http://www.w3.org/2000/svg">
<g clip-path="url(#clip0_267_132)">
<mask id="mask0_267_132" style="mask-type:luminance" maskUnits="userSpaceOnUse" x="0" y="0" width="24" height="24">
<path d="M11.9943 23.9887C18.6186 23.9887 23.9887 18.6186 23.9887 11.9943C23.9887 5.37006 18.6186 0 11.9943 0C5.37006 0 0 5.37006 0 11.9943C0 18.6186 5.37006 23.9887 11.9943 23.9887Z" fill="white"/>
</mask>
<g mask="url(#mask0_267_132)">
<path d="M25.1497 -10.8038H-4.02647V32.9604H25.1497V-10.8038Z" fill="black"/>
</g>
<path d="M16.4852 11.3189C16.1211 11.3749 15.758 11.2753 15.3895 10.9093C14.7958 10.32 13.8122 10.4563 13.2433 11.1034C12.6967 11.7248 12.7423 12.6996 13.3445 13.2823C13.9501 13.8678 14.94 13.8873 15.5079 13.2707C15.7464 13.0118 15.9754 12.9166 16.3068 12.9446C16.5895 12.9685 16.8772 12.9675 17.1603 12.9452C17.4656 12.9213 17.503 13.0124 17.3971 13.287C16.8757 14.6403 15.55 15.4376 14.0255 15.2956C12.7027 15.1721 11.5212 14.0227 11.3032 12.6471C11.0544 11.0767 12.037 9.49224 13.5163 9.07852C15.1127 8.63213 16.7217 9.39643 17.355 10.9015C17.5306 11.3189 17.5306 11.3189 17.0912 11.3189C16.9225 11.3189 16.7544 11.3189 16.4852 11.3189Z" fill="white"/>
<path d="M10.5861 9.8296C10.3816 10.0303 10.1563 10.205 9.89686 10.2703C9.73288 10.3118 9.56105 10.3052 9.39236 10.3159C8.5844 10.3668 8.08429 11.214 8.13581 11.9654C8.19236 12.791 8.91675 13.445 9.75456 13.4271C10.2754 13.4161 10.7774 13.1387 11.0541 12.6955C11.3736 12.1831 11.1273 11.5743 11.5596 11.1226C11.7465 10.9275 11.9749 10.7714 12.1382 10.5562C12.1882 10.4905 12.2334 10.4177 12.3025 10.3724C12.4728 10.2609 12.5507 10.4177 12.611 10.5518C13.205 11.8749 12.8381 13.3778 11.6642 14.3604C10.6451 15.2133 8.99717 15.2434 7.8666 14.4298C6.57613 13.5012 6.14231 11.6877 6.88995 10.346C7.26691 9.6694 7.87194 9.13002 8.60073 8.86081C9.41246 8.56081 10.2157 8.65536 11.0136 8.94531C11.0739 8.9673 11.1377 8.9918 11.1754 9.04364C11.2423 9.13474 11.1587 9.22269 11.0965 9.28552C10.9366 9.44824 10.7695 9.6496 10.5861 9.8296Z" fill="white"/>
<path d="M14.554 13.027V11.7465C14.554 11.7286 14.5687 11.7139 14.5866 11.7139H17.4541V13.0596H14.5866C14.5687 13.0596 14.554 13.0452 14.554 13.027Z" fill="white"/>
</g>
<defs>
<clipPath id="clip0_267_132">
<rect width="24" height="24" fill="white"/>
</clipPath>
</defs>
</svg>
