<svg width="24" height="24" viewBox="0 0 24 24" fill="none" xmlns="http://www.w3.org/2000/svg">
<path d="M3 8L3.5 9V10L2.5 11.5V13.5L3.5 15.5L5 17L6.5 18.5L8.5 19.5L10.5 20L12.5 19.5L14.5 19L16.5 17.5L19 14L20 11.5L20.5 10.5L20 10L19 8L17.5 6L15.5 5.5L14 5H12.5H11L9.5 6L8 7L7 8.5L5.5 7L4.5 6.5H3.5L3 7V8Z" fill="#FE0186"/>
<path d="M4.00942 7.19349C4.04269 7.04892 4.13173 7.01591 4.25146 7.00195C4.39283 6.98547 4.56152 7.07227 4.56152 7.19349C4.56152 7.31472 4.44964 7.50208 4.25094 7.50208C4.05225 7.50208 3.97001 7.3647 4.00942 7.19349Z" fill="white"/>
<path d="M3.00942 12.1935C3.04269 12.0489 3.13173 12.0159 3.25146 12.002C3.39283 11.9855 3.56152 12.0723 3.56152 12.1935C3.56152 12.3147 3.44964 12.5021 3.25094 12.5021C3.05225 12.5021 2.97001 12.3647 3.00942 12.1935Z" fill="white"/>
<path fill-rule="evenodd" clip-rule="evenodd" d="M4.48199 16.5054C4.97401 17.2745 7.49103 20.3636 11.4312 20.3636C14.1021 20.3636 15.9693 18.9144 17.4202 17.6496V18.1835C17.5716 19.7916 19.5694 20.0424 19.746 18.3707C19.7463 18.2575 19.7468 18.1199 19.7474 17.9651C19.7513 16.9642 19.7579 15.241 19.7019 14.6905C20.2633 13.5655 20.7825 12.4163 20.8456 11.6366C21.1023 11.4372 21.3985 11.2258 21.6278 11.0645L21.679 11.0287C21.8852 10.8846 22 10.8045 22 10.6514C22 10.4088 21.4828 10.2182 20.9695 10.1626C21.0022 10.1261 21.0129 10.0874 20.9982 10.0451C20.9556 9.92246 20.9065 9.79835 20.8515 9.67353C20.5575 7.44946 19.1091 5.91613 17.9249 5.19782C13.692 2.56001 8.51295 4.64484 7.3333 7.90554C7.11992 7.6291 6.83854 7.27728 6.61282 6.99501L6.61231 6.99439C6.52421 6.88414 6.44453 6.78453 6.38075 6.70425C4.84786 4.77355 2.08021 5.62368 2.84814 8.89073C2.95721 9.35475 3.1194 9.76154 3.33388 10.2828C0.690722 10.9439 2.45703 15.1071 4.48199 16.5054ZM14.9166 7.86202L14.9343 7.88258C15.0187 7.51634 15.1902 7.19526 15.4261 6.92827C15.453 6.89023 15.4819 6.85285 15.5127 6.81618C15.726 6.56255 15.9824 6.39758 16.2754 6.31152C16.3491 6.27823 16.4249 6.24785 16.5024 6.22055C16.6958 6.15238 16.9063 6.13617 17.1274 6.16404C17.0749 6.13315 17.0224 6.10242 16.9692 6.07276C16.5944 5.86351 16.2024 5.6943 15.7941 5.56375C15.4884 5.46598 15.1793 5.38027 14.8605 5.33798L14.7562 5.32402C14.5396 5.29488 14.3228 5.26573 14.1051 5.25151C13.8523 5.235 13.5975 5.22886 13.3446 5.24052C12.6584 5.27207 11.9919 5.4131 11.3415 5.63447C11.0208 5.7436 10.7115 5.87936 10.4165 6.04571C10.1488 6.19672 9.61516 6.5738 9.38212 6.77625L9.35013 6.80401C9.19007 6.94295 9.02965 7.08225 8.88122 7.23315C8.79728 7.3185 8.71958 7.41008 8.64117 7.50253C8.5873 7.56605 8.53311 7.62997 8.47634 7.69246L8.48614 7.67497C8.29992 7.95069 8.13301 8.24048 7.98478 8.54408C7.92099 8.67473 7.92988 8.79235 7.98478 8.91328C8.04663 9.04961 8.11513 9.18303 8.18419 9.31588C8.20583 9.35746 8.22964 9.3979 8.25422 9.43968C8.27352 9.47236 8.29337 9.50611 8.31292 9.5416C8.41332 9.69117 8.51366 9.84074 8.61583 9.99886L8.61634 9.99968C8.65367 10.0605 8.69099 10.1214 8.72837 10.182C8.78489 8.14537 10.3323 6.51305 12.2329 6.51305C13.3099 6.51305 14.2735 7.03719 14.9166 7.86202ZM9.57829 12.4909C9.57997 12.4867 9.58129 12.4821 9.5822 12.4773L9.58484 12.482C9.585 12.4863 9.5852 12.4907 9.5856 12.495L9.58627 12.4957C9.58926 12.4988 9.59271 12.5022 9.59698 12.5091C9.61785 12.5466 9.63847 12.5822 9.65878 12.6172C9.67036 12.6372 9.68183 12.657 9.69316 12.6769C9.74318 12.7644 9.7933 12.8519 9.84342 12.9393C9.99216 13.199 10.1409 13.4587 10.2876 13.7196C10.3264 13.7886 10.3602 13.8605 10.3946 13.9335C10.4113 13.9689 10.4284 14.0051 10.446 14.041L10.45 14.0446C10.4718 14.8433 10.118 15.9517 9.41569 16.329C9.03407 16.534 8.63381 16.6797 8.20217 16.7241C7.60879 16.785 7.02399 16.7412 6.45316 16.5571C5.38589 16.2128 4.53036 15.5742 3.86772 14.6677L3.81909 14.6013C3.77463 14.5287 3.72919 14.4577 3.68411 14.3873C3.59297 14.245 3.50327 14.1049 3.42588 13.9581C3.23394 13.5943 3.06774 13.217 2.94681 12.8224C2.91555 12.7204 2.89634 12.6147 2.87713 12.509C2.86838 12.4608 2.85962 12.4126 2.84972 12.3647C2.82313 12.141 2.81162 11.9262 2.87523 11.7191C2.96204 11.4364 3.13435 11.2317 3.43965 11.1788C3.5899 11.1528 3.73584 11.1866 3.87681 11.2414C4.07334 11.3146 4.22715 11.4368 4.373 11.5721C4.44559 11.6395 4.51823 11.7073 4.59071 11.7748C5.06033 12.2127 5.53042 12.651 6.03848 13.0441C6.37582 13.3051 6.74038 13.525 7.10474 13.7448C7.1866 13.7941 7.2684 13.8435 7.34996 13.8933C7.40749 13.9285 7.46498 13.9638 7.52246 13.9992L7.60204 14.0481C7.63225 14.0694 7.65988 14.0825 7.6939 14.0985C7.69045 14.0135 7.64632 13.9606 7.5897 13.9145C7.41318 13.7706 7.23682 13.6265 7.0604 13.4824L6.93822 13.3826C6.92797 13.3742 6.91751 13.3655 6.90435 13.3545L6.87962 13.334C6.91959 13.3402 6.9596 13.3467 6.99931 13.3532C7.34783 13.4101 7.68674 13.4653 8.02672 13.3325L7.83396 13.2989C7.17334 13.184 6.58286 12.9102 6.04696 12.5076C5.55667 12.1392 5.16108 11.6854 4.83827 11.1655L4.76519 11.048C4.58553 10.7593 4.40567 10.4702 4.24135 10.1727C4.05385 9.83328 3.94867 9.46019 3.84378 9.08817L3.82083 9.00692C3.7217 8.65699 3.629 8.30578 3.58531 7.94328C3.5541 7.68432 3.5599 7.42711 3.62639 7.17455C3.71111 6.8528 4.05342 6.57845 4.38343 6.55754C4.58629 6.54465 4.78058 6.58106 4.96989 6.65163C5.2204 6.75201 5.45196 6.86824 5.62883 7.07089C7.05898 8.7093 8.33532 10.4618 9.4651 12.323C9.48897 12.3623 9.51532 12.4001 9.54168 12.4379C9.55397 12.4555 9.56626 12.4731 9.57829 12.4909ZM10.9265 14.364C10.9693 14.8086 10.9401 15.7179 10.2156 16.6505C9.8646 16.9889 9.45896 17.2392 8.9937 17.3878C8.23701 17.6295 7.47295 17.6099 6.70494 17.4558C6.63577 17.442 6.56701 17.4261 6.49826 17.4101C6.46647 17.4028 6.43447 17.3954 6.40263 17.3882L6.3907 17.4021L6.39842 17.407L6.40548 17.4113C6.41624 17.4179 6.42696 17.4244 6.43635 17.4324C6.47373 17.4645 6.51085 17.4969 6.54787 17.5292C6.61317 17.5864 6.67853 17.6435 6.74561 17.6984C7.45477 18.2787 8.22594 18.7552 9.08236 19.0803C9.40731 19.2037 9.74196 19.305 10.0782 19.3929C10.2962 19.4499 10.5224 19.4781 10.747 19.5061L10.796 19.5122C10.9896 19.5365 11.1849 19.548 11.3798 19.5595L11.4312 19.5626C11.4844 19.5657 11.538 19.561 11.5917 19.5563C11.613 19.5544 11.6344 19.5525 11.6558 19.5511C11.7092 19.5477 11.7631 19.5446 11.8167 19.5416C11.9464 19.5342 12.0766 19.5267 12.2058 19.5135C12.5363 19.4796 12.8599 19.4089 13.1788 19.3147C13.5629 19.2012 13.9233 19.0317 14.2851 18.8616L14.2964 18.8563C15.5077 18.2868 16.5456 17.4923 17.4028 16.459C17.4221 16.4356 17.4348 16.399 17.4349 16.3686C17.4362 16.0826 17.4354 15.7965 17.4345 15.5105L17.4341 15.3644C17.434 15.3523 17.4327 15.3401 17.4314 15.3271L17.4307 15.3205L17.4294 15.3073C17.1013 15.305 16.7894 15.2514 16.4929 15.0951C16.454 15.0667 16.4141 15.0394 16.3741 15.0121C16.287 14.9524 16.1999 14.8928 16.1232 14.8218C15.742 14.4685 15.5264 14.0226 15.4348 13.5024C15.4025 13.3171 15.404 13.1312 15.4272 12.9339C15.4347 12.9015 15.4411 12.8686 15.4474 12.8357L15.4475 12.8352C15.458 12.7816 15.4684 12.728 15.4836 12.6763C15.4687 12.7268 15.4583 12.7793 15.4477 12.8329C15.4408 12.8681 15.4337 12.9037 15.4253 12.9395C15.3852 12.999 15.3464 13.0591 15.3077 13.1188C15.2154 13.2617 15.124 13.403 15.0191 13.5332C14.5471 14.1193 13.9417 14.4975 13.2108 14.6679C12.9272 14.7339 12.6382 14.7551 12.3485 14.7412C11.851 14.7172 11.3737 14.6084 10.9319 14.3669L10.9265 14.364ZM15.8059 12.9391C15.7935 13.1133 15.8029 13.2884 15.8304 13.4637C15.9441 14.1872 16.458 14.7464 17.1552 14.9022C17.2158 14.9158 17.2778 14.9235 17.3388 14.9312C17.3668 14.9346 17.3946 14.9381 17.4221 14.9422C17.4221 14.9119 17.4219 14.8832 17.4218 14.8556C17.4215 14.7987 17.4213 14.7463 17.4223 14.6939C17.4289 14.3728 17.3553 14.0774 17.151 13.8232C17.1143 13.7775 17.1283 13.7402 17.1659 13.7012C17.5893 13.2616 18.0379 12.8504 18.5172 12.4732C19.0837 12.0273 19.6841 11.6308 20.2845 11.2342L20.396 11.1605C20.5184 11.0796 20.641 10.9989 20.7636 10.9183C20.7636 10.9183 20.7634 10.9183 20.7707 10.9185C20.774 10.9151 20.7774 10.9117 20.789 10.9057C20.8165 10.8835 20.844 10.8612 20.8783 10.8379L20.88 10.8318L20.8785 10.833C20.8775 10.834 20.8764 10.8349 20.8754 10.8349C20.8612 10.8345 20.847 10.834 20.8328 10.8335C20.8073 10.8325 20.7817 10.8316 20.7562 10.8316C20.3333 10.8311 19.9167 10.8833 19.5022 10.9679C18.9007 11.0908 16.1754 12.0953 15.8059 12.9391ZM19.4648 13.5643L19.1568 13.2682C19.1568 13.2682 19.0533 13.1571 18.9978 13.0974L19.8694 12.3999L19.8835 12.41C19.7718 12.8068 19.6475 13.199 19.4648 13.5643ZM16.212 8.92392C16.197 9.24429 16.2294 9.56241 16.2753 9.88472L16.2783 9.90231C16.2814 9.92077 16.2841 9.93678 16.286 9.95289C16.2989 10.0612 16.3325 10.1594 16.4224 10.2287C16.567 10.3401 16.7333 10.2863 16.7833 10.1097C16.7952 10.0679 16.7988 10.0218 16.7963 9.9782C16.7931 9.92307 16.7878 9.86805 16.7824 9.81298C16.7775 9.76271 16.7726 9.71244 16.7694 9.66202L16.7661 9.61109C16.748 9.33061 16.73 9.05054 16.7623 8.76872C16.795 8.48282 16.9254 8.26682 17.1715 8.12103C17.2483 8.07547 17.2928 7.97018 17.2753 7.88105C17.2475 7.73986 17.0282 7.63257 16.894 7.70447C16.7987 7.75561 16.7028 7.81518 16.6263 7.89076C16.341 8.17293 16.2303 8.53186 16.212 8.92392ZM18.4568 7.6969C18.5591 7.71552 18.6348 7.77182 18.7066 7.83472C18.999 8.09065 19.1715 8.42192 19.2709 8.7904C19.3102 8.93655 19.3308 9.08797 19.3514 9.23918C19.3589 9.29338 19.3662 9.34753 19.3745 9.40143C19.3878 9.48811 19.3992 9.57509 19.4107 9.66207C19.4214 9.74272 19.432 9.82336 19.4441 9.90374C19.4671 10.0568 19.3614 10.2071 19.2128 10.2272C19.082 10.2448 18.9631 10.1274 18.9465 9.97268L18.9372 9.88529C18.9006 9.54052 18.8641 9.19556 18.7698 8.86021C18.6887 8.57169 18.5459 8.32593 18.2962 8.14823C18.2362 8.10564 18.1836 8.03558 18.1567 7.9666C18.1021 7.82664 18.2067 7.69153 18.3576 7.6898C18.3826 7.68949 18.4076 7.692 18.4353 7.69481L18.4568 7.6969ZM12.3266 11.7906C12.3847 11.6914 12.4429 11.592 12.5013 11.4923C12.5324 11.4404 12.5613 11.3927 12.5916 11.3426C12.5974 11.3476 12.6025 11.352 12.6072 11.356C12.6161 11.3635 12.6234 11.3698 12.6307 11.3761C12.7063 11.4425 12.7819 11.5088 12.8575 11.5751C13.1464 11.8285 13.4353 12.0818 13.7241 12.3353C13.8715 12.4647 14.0426 12.5151 14.2332 12.4746C14.465 12.4253 14.6198 12.281 14.6799 12.0504C14.7426 11.8094 14.6707 11.6036 14.4844 11.44C14.2653 11.2474 14.0458 11.0552 13.8263 10.863C13.7065 10.758 13.5866 10.653 13.4667 10.548C13.4052 10.4941 13.3438 10.4399 13.2821 10.3855C13.2537 10.3604 13.2253 10.3354 13.1968 10.3102C13.203 10.2993 13.2088 10.289 13.2144 10.2791C13.2258 10.2591 13.2361 10.2408 13.2468 10.2227C13.33 10.0808 13.4133 9.93913 13.4966 9.79738C13.6914 9.46602 13.8862 9.13471 14.0793 8.80242C14.2019 8.59153 14.1988 8.37543 14.0649 8.17268C13.9325 7.97233 13.7389 7.88616 13.5001 7.91694C13.3157 7.94072 13.1739 8.03573 13.0789 8.1963C12.9039 8.49233 12.7299 8.78897 12.5559 9.08561C12.4832 9.20952 12.4105 9.33342 12.3378 9.45727C12.3294 9.47149 12.3209 9.48565 12.312 9.50043C12.3077 9.50754 12.3033 9.5148 12.2988 9.52232C12.2919 9.51644 12.2857 9.51112 12.28 9.50616C12.2689 9.49665 12.2595 9.48857 12.2501 9.48039C12.1341 9.37863 12.018 9.27686 11.902 9.1751C11.6409 8.94606 11.3797 8.71707 11.1181 8.48855C10.8661 8.26835 10.5036 8.29029 10.2882 8.53707C10.0731 8.7836 10.0975 9.15133 10.3474 9.37285C10.5453 9.54835 10.7444 9.72241 10.9435 9.89648C11.038 9.97912 11.1325 10.0618 11.2269 10.1445C11.3336 10.2381 11.4403 10.3319 11.5473 10.426C11.5958 10.4686 11.6444 10.5113 11.6931 10.5541C11.6866 10.5654 11.6804 10.5762 11.6744 10.5869C11.6618 10.6089 11.6499 10.6297 11.6377 10.6505C11.5677 10.7698 11.4977 10.8891 11.4276 11.0085C11.2189 11.3643 11.0101 11.7201 10.8006 12.0754C10.7138 12.2226 10.6817 12.3785 10.7275 12.5444C10.7933 12.7828 10.951 12.9298 11.191 12.9752C11.435 13.0213 11.6666 12.9113 11.7933 12.6974C11.9717 12.3963 12.1486 12.0943 12.3266 11.7906Z" fill="black"/>
<path d="M19.0001 13.5L18.0003 15C18.0003 15 16.9994 19 18.4997 19C20 19 19.0001 13.5 19.0001 13.5Z" fill="#FE0186"/>
<path d="M13.4999 7.50008C14.1269 7.70912 14.9999 9.00009 14.9999 9.00009C14.9999 9.00009 15.5634 7.43665 16.0001 7.00003C16.5001 6.50001 17 6.5 17.5 6.5C19 6.5 20 10 20 10C20 10 20 10.4999 19.5 10.5C18.6949 10.5001 18.2323 10.6659 17.4999 11.0001C17.2903 11.0957 17 11.5 17 11.5C16.9477 11.5276 18.0655 11.2336 19 11C21 10.5 21.0695 10.9611 21 11C18.5 12.5 17.608 14.9358 17.5 15C17.4437 15.0334 15.6565 14.9267 15.6565 12.6482C15.6565 12.1425 15.6986 12.0004 15.6748 11.9932L15.6565 12C15.3869 12.1745 15.1528 12.3472 15 12.5C14.5 13 14.5 14 12.5 14C10.5 14 9.49992 11.6181 9.5 10.5C9.50011 9 10.5 6.5 13.4999 7.50008Z" fill="#FFC901"/>
<path d="M13.5942 9.0468C13.2341 8.7552 12.5138 9.92151 12.5138 9.92151C12.5138 9.92151 11.4337 9.0468 11.0735 9.33838C10.7133 9.62996 11.7937 10.5047 11.7937 10.5047C11.7937 10.5047 10.7133 11.671 11.4335 11.9626C12.0624 12.2172 12.5138 11.0879 12.5138 11.0879C12.5138 11.0879 13.673 12.1265 13.9542 11.671C14.2211 11.2389 13.2341 10.5047 13.2341 10.5047C13.2341 10.5047 13.9542 9.33841 13.5942 9.0468Z" fill="black"/>
<path d="M16.8693 8.79072C17 8 16.9758 7.7419 16.4935 8.12867C16.0112 8.51544 16 10.5 16.5 10.5C17 10.5 16.7386 9.58143 16.8693 8.79072Z" fill="black"/>
<path d="M18 8.99975C17.7518 8.57829 17.365 7.6599 17.752 7.6054C18.1389 7.5509 19.3214 9.97242 18.9107 9.98621C18.5 10 18.2481 9.42121 18 8.99975Z" fill="black"/>
<circle cx="0.5" cy="0.5" r="0.5" transform="matrix(-1 0 0 1 19 17)" fill="white"/>
<path d="M17.5 14C18 13 21.0003 11 21.0003 11C21.0003 11 18.5 13 17.5 15C17.463 14.9815 17.0354 15.0193 17 15C15.9655 14.4364 16 14 16 14C16 14 17 15 17.5 14Z" fill="#DC6801"/>
<path d="M17 12C17 12 18.8541 11.4999 19.5957 11.5C20.3374 11.5001 19.9666 11 19.2249 11C18.4833 11 17 12 17 12Z" fill="white"/>
<path d="M12.4999 14C14.65 14.0585 14.9999 12.5 14.9999 12.5C14.9999 12.5 14 13.5 12.4999 13.5C10.9999 13.5 10 12.5 10 12.5C10 12.5 10.3498 13.9415 12.4999 14Z" fill="#DC6602"/>
<path d="M8 9.99999C8 9.49999 4.50016 5.00005 4 6.5C4 6.5 4.47212 6.48686 5 6.99999C6.18034 8.14735 8 10.3455 8 9.99999Z" fill="white"/>
<path d="M6.5 13.5001C6.5 13.5001 3.5 10.0001 3 11.5002C3 11.5002 3.1675 11.4012 3.5 11.5C4.75 11.8714 6.5 13.5001 6.5 13.5001Z" fill="white"/>
<path d="M16.0001 7.00009C16.1953 6.80483 16.5003 6.5 17.0003 6.5C17.5 6.5 17.1385 6.86145 17.0003 6.99973L17 7C16.8619 7.13807 15.8048 7.19535 16.0001 7.00009Z" fill="white"/>
<path d="M19.0001 16.0001C19.0001 15.6095 19 15 18.5001 15C18.0001 15 18.5002 15.5001 18.5001 16.0001C18.5 16.5001 19.0001 16.3906 19.0001 16.0001Z" fill="white"/>
<path d="M12.5 5.50006C14.293 5.19387 16.5 6.00007 16.5 6.00007C16.5 6.00007 13.7692 5.80479 12.5 6.00005C11.2308 6.19531 9.5 7.00007 9.5 7.00007C9.5 7.00007 10.6772 5.81133 12.5 5.50006Z" fill="white"/>
<path d="M7 16.5C9.5 17 10 14.5 10 14.5C10 14.5 9 16 7.5 16C6 16 5 15 4 14C4 14 4.5 16 7 16.5Z" fill="#8A0061"/>
<path d="M13.5 15.5C14.9548 15.3087 15 14 15 14C15 14 14.1792 14.8148 13.5 15C12.5394 15.262 11.5 15 11 14.5C11 14.5 12.0452 15.6913 13.5 15.5Z" fill="#8A0061"/>
<path d="M12.5 19C15 18.5 17 16 17 16C17 16 14.3466 17.6046 12.5 18C10.6534 18.3954 7.54308 18.0249 7.54308 18.0249C7.88388 18.2185 10.1919 19.4616 12.5 19Z" fill="#8A0061"/>
</svg>
