<svg width="24" height="24" viewBox="0 0 24 24" fill="none" xmlns="http://www.w3.org/2000/svg">
<g clip-path="url(#clip0_192_111)">
<path d="M12 24C18.6274 24 24 18.6274 24 12C24 5.37258 18.6274 0 12 0C5.37258 0 0 5.37258 0 12C0 18.6274 5.37258 24 12 24Z" fill="#FF5800"/>
<path d="M10.176 15.696C9.31444 15.3238 8.56255 14.7372 7.99199 13.992L9.51599 12.516C10.1572 13.2416 10.9885 13.7736 11.916 14.052C12.48 14.184 12.792 14.052 12.864 13.812C13.2 12.792 8.89199 12 9.59999 9.144C9.74111 8.55419 10.0883 8.0342 10.5789 7.67776C11.0696 7.32132 11.6714 7.15188 12.276 7.2L13.332 2.928L11.7 2.556L11.052 5.136L7.27199 4.2L6.85199 5.892C6.85199 5.892 8.05199 6.156 8.05199 6.168C8.27087 6.19508 8.47033 6.30716 8.60728 6.48004C8.74424 6.65292 8.80771 6.87272 8.78399 7.092L6.95999 14.172C6.9382 14.2444 6.90208 14.3117 6.85378 14.3698C6.80547 14.428 6.74597 14.4758 6.6788 14.5105C6.61163 14.5452 6.53817 14.5661 6.46279 14.5718C6.38741 14.5776 6.31164 14.5681 6.23999 14.544L5.03999 14.268L4.24799 16.068L6.29999 16.572L8.06399 17.028L7.41599 19.644L9.03599 20.052L10.176 15.696Z" fill="#F5F5F5"/>
<path d="M15.996 12C16.5343 11.8888 17.0214 11.6046 17.3832 11.1908C17.745 10.777 17.9616 10.2563 18 9.70799C18.0817 9.03768 17.9293 8.35973 17.5684 7.78895C17.2076 7.21817 16.6606 6.78966 16.02 6.57599H15.948L16.632 3.81599L15 3.40799L14.4 5.90399L14.004 7.51199C15.0153 7.8371 15.8704 8.5254 16.404 9.44399L14.796 10.644C14.3142 10.0565 13.659 9.63643 12.924 9.44399C12.384 9.32399 12.072 9.44399 12 9.73199C11.808 10.572 16.044 11.52 15.396 14.244C15.072 15.588 13.824 16.44 11.796 16.2L11.364 17.952L10.8 20.484L12.456 20.88L13.14 18.132H13.344C15.312 18.288 16.776 17.784 17.472 15.804C17.6431 15.4602 17.7405 15.0844 17.7581 14.7008C17.7757 14.3171 17.713 13.934 17.5741 13.576C17.4352 13.218 17.2231 12.8929 16.9513 12.6215C16.6796 12.3501 16.3542 12.1384 15.996 12Z" fill="#F5F5F5"/>
</g>
<defs>
<clipPath id="clip0_192_111">
<rect width="24" height="24" fill="white"/>
</clipPath>
</defs>
</svg>
