<svg width="24" height="24" viewBox="0 0 24 24" fill="none" xmlns="http://www.w3.org/2000/svg">
<g clip-path="url(#clip0_192_160)">
<path d="M12 23.3684C18.2786 23.3684 23.3684 18.42 23.3684 12.3158C23.3684 6.21158 18.2786 1.26315 12 1.26315C5.72141 1.26315 0.631592 6.21158 0.631592 12.3158C0.631592 18.42 5.72141 23.3684 12 23.3684Z" fill="#1F1F1F"/>
<path d="M12 1.10653C14.1545 1.10653 16.2607 1.74542 18.0521 2.94241C19.8435 4.1394 21.2398 5.84073 22.0643 7.83125C22.8888 9.82177 23.1045 12.0121 22.6842 14.1252C22.2638 16.2383 21.2263 18.1794 19.7029 19.7029C18.1794 21.2263 16.2383 22.2638 14.1252 22.6842C12.0121 23.1045 9.82178 22.8888 7.83125 22.0643C5.84073 21.2398 4.1394 19.8435 2.94241 18.0521C1.74542 16.2607 1.10653 14.1545 1.10653 12C1.1072 9.11108 2.25512 6.34067 4.2979 4.29789C6.34067 2.25511 9.11108 1.1072 12 1.10653ZM12 0C9.62663 0 7.30655 0.703788 5.33316 2.02236C3.35977 3.34094 1.8217 5.21509 0.913451 7.4078C0.00519938 9.60051 -0.232441 12.0133 0.230582 14.3411C0.693605 16.6689 1.83649 18.8071 3.51472 20.4853C5.19295 22.1635 7.33115 23.3064 9.65892 23.7694C11.9867 24.2324 14.3995 23.9948 16.5922 23.0866C18.7849 22.1783 20.6591 20.6402 21.9776 18.6668C23.2962 16.6935 24 14.3734 24 12C24 8.8174 22.7357 5.76516 20.4853 3.51472C18.2349 1.26428 15.1826 0 12 0Z" fill="#00A651"/>
<path d="M8.71901 13.8575C8.44916 14.3395 8.04672 14.7341 7.55943 14.9943C7.0091 15.2776 6.39652 15.4183 5.77774 15.4036H3.35059V8.98293H5.77648C6.39684 8.9678 7.01138 9.10577 7.56574 9.38462C8.05218 9.6391 8.45483 10.0286 8.72532 10.5063C9.00248 11.0177 9.14097 11.5928 9.12701 12.1743C9.13332 12.7606 8.99307 13.3391 8.71901 13.8575ZM7.04343 13.5417C7.36626 13.1662 7.54378 12.6875 7.54378 12.1923C7.54378 11.6971 7.36626 11.2184 7.04343 10.8429C6.65471 10.5044 6.14817 10.3328 5.63374 10.3655H4.89732V14.0343H5.63248C6.14815 14.0539 6.65202 13.8769 7.04216 13.5391L7.04343 13.5417Z" fill="#00A651"/>
<path d="M13.3491 10.5897C13.7392 10.7956 14.0626 11.1084 14.2813 11.4916C14.5054 11.9169 14.6225 12.3905 14.6225 12.8713C14.6225 13.352 14.5054 13.8256 14.2813 14.2509C14.0647 14.6357 13.7408 14.9491 13.3491 15.1528C12.9323 15.3672 12.4686 15.474 12 15.4636C11.5319 15.4704 11.069 15.3638 10.651 15.1528C10.2571 14.9494 9.93062 14.6361 9.71117 14.2509C9.48709 13.8256 9.37 13.352 9.37 12.8713C9.37 12.3905 9.48709 11.9169 9.71117 11.4916C9.92847 11.1047 10.2555 10.7909 10.651 10.5897C11.068 10.3761 11.5316 10.2693 12 10.2789C12.4683 10.2713 12.9313 10.378 13.3491 10.5897ZM11.2567 11.9463C11.037 12.2051 10.928 12.54 10.9535 12.8785C10.9279 13.2147 11.037 13.5473 11.2567 13.8032C11.3527 13.9053 11.4691 13.9862 11.5983 14.0406C11.7276 14.095 11.8668 14.1217 12.007 14.1189C12.1461 14.1224 12.2844 14.096 12.4125 14.0415C12.5407 13.987 12.6556 13.9058 12.7497 13.8032C12.9468 13.5336 13.0531 13.2083 13.0531 12.8744C13.0531 12.5405 12.9468 12.2152 12.7497 11.9457C12.6556 11.8431 12.5407 11.7618 12.4125 11.7073C12.2844 11.6529 12.1461 11.6265 12.007 11.6299C11.8662 11.6229 11.7257 11.6477 11.5958 11.7023C11.466 11.757 11.35 11.8408 11.2567 11.9463Z" fill="#00A651"/>
<path d="M20.0356 9.5741C20.5775 10.0139 20.9455 10.6319 21.0739 11.3179H19.4318C19.3194 11.035 19.1238 10.7928 18.871 10.6232C18.6057 10.449 18.294 10.3592 17.9767 10.3655C17.7674 10.3589 17.5594 10.4006 17.3689 10.4874C17.1783 10.5741 17.0102 10.7036 16.8777 10.8657C16.5836 11.2461 16.4357 11.7194 16.4609 12.1996C16.4344 12.6776 16.5825 13.149 16.8777 13.5259C17.0118 13.6857 17.1803 13.813 17.3707 13.8983C17.561 13.9837 17.7682 14.0248 17.9767 14.0185C18.2865 14.0274 18.5916 13.9414 18.8512 13.7721C19.1108 13.6028 19.3125 13.3582 19.4293 13.0712H21.0714C20.941 13.7543 20.5732 14.3692 20.0331 14.8074C19.4527 15.2552 18.7339 15.4858 18.0013 15.4591C17.4274 15.4702 16.8608 15.329 16.3592 15.0499C15.8901 14.7781 15.5107 14.375 15.2678 13.8903C15.0134 13.3604 14.8812 12.7801 14.8812 12.1923C14.8812 11.6045 15.0134 11.0242 15.2678 10.4943C15.5152 10.0127 15.8935 9.61076 16.3592 9.33473C16.9339 9.02928 17.5825 8.89016 18.2319 8.93301C18.8814 8.97585 19.506 9.19895 20.0356 9.57725V9.5741Z" fill="#00A651"/>
</g>
<defs>
<clipPath id="clip0_192_160">
<rect width="24" height="24" fill="white"/>
</clipPath>
</defs>
</svg>
