<svg width="24" height="24" viewBox="0 0 24 24" fill="none" xmlns="http://www.w3.org/2000/svg">
<g clip-path="url(#clip0_129_19)">
<path d="M23.9934 12C23.9934 18.6248 18.6248 24 11.9934 24C5.37521 24 0 18.6314 0 12C0 5.37522 5.37521 0.00662231 12 0.00662231C18.6248 0.00662231 23.9934 5.37522 23.9934 12Z" fill="url(#paint0_radial_129_19)"/>
<mask id="mask0_129_19" style="mask-type:luminance" maskUnits="userSpaceOnUse" x="-1" y="-1" width="26" height="26">
<path d="M12.8851 23.9678C19.4946 23.4791 24.4565 17.7248 23.9677 11.1152C23.479 4.50573 17.7247 -0.45614 11.1152 0.0326105C4.50563 0.521361 -0.456237 6.27565 0.032514 12.8852C0.521265 19.4947 6.27555 24.4566 12.8851 23.9678Z" fill="white"/>
</mask>
<g mask="url(#mask0_129_19)">
<path d="M19.8678 8.23802C21.5207 9.84463 22.7769 11.8479 23.0347 14.2479C23.5967 19.5306 19.4843 24.3041 13.8512 24.8992C8.21819 25.4942 3.20001 21.6992 2.63803 16.4165C2.07604 11.1339 5.26282 11.4909 10.8959 10.8893C13.9703 10.5653 18.8694 7.26612 19.8678 8.23802Z" fill="url(#paint1_radial_129_19)"/>
</g>
<path d="M20.443 9.26943L20.4298 9.11736H18.4661L20.443 7.4248L20.4364 7.34546C20.357 5.39505 19.4579 4.13224 19.4248 4.07935L19.3785 3.98679H8.77356C7.7686 3.98679 5.8248 4.29753 4.3967 5.89753C3.77522 6.59174 2.43968 8.68761 2.4529 11.0347C2.45951 12.357 2.59175 13.3818 3.08761 14.5322C3.33885 15.1141 3.62315 15.6496 3.93389 16.119C4.93885 17.924 6.03637 19.1802 7.1934 19.8546C8.17191 20.4231 9.04464 20.5025 9.7653 20.5025H15.7818L15.8149 20.4827C15.8347 20.476 17.805 19.4446 19.5769 18.367L19.6298 18.3339L19.6496 18.281C19.6562 18.2612 19.6628 18.2479 19.6694 18.2281C19.6827 18.1951 19.6959 18.162 19.7091 18.1223C19.9273 17.4942 20.1124 16.1455 20.1984 15.405C20.2314 15.1339 20.2579 14.9554 20.2579 14.9554L20.2777 14.7703H20.2711L20.2843 14.6182H18.1818L20.4298 12.9124L20.4364 12.8397C20.5818 11.1802 20.443 9.28927 20.443 9.26943Z" fill="url(#paint2_linear_129_19)"/>
<path d="M11.6099 16.648C11.6099 16.648 9.63966 16.8397 3.82809 15.319C6.20165 19.9405 8.41652 20.1918 10.0694 20.1918C11.4314 20.1918 15.7091 20.1918 15.7091 20.1918C15.7091 20.1918 17.5802 19.1736 19.3587 18.0959L11.6099 16.648Z" fill="white"/>
<path d="M10.0694 20.0331C9.35537 20.0331 8.35703 20.0397 7.36529 19.3918C5.63967 18.2678 5.07108 17.3818 4.08595 15.524C8.5157 16.6612 10.638 16.7868 11.3587 16.7868C11.4909 16.7868 11.5702 16.7802 11.6033 16.7802L19.2529 18.0232C17.686 18.962 15.8347 19.9207 15.6231 20.0331H10.0694Z" fill="url(#paint3_linear_129_19)"/>
<path d="M7.88099 14.843C7.88099 14.843 6.92893 13.7389 6.59835 12.8992L17.3752 14.843L20.1388 12.7537C20.1322 11.0347 20.1256 9.39507 20.1256 9.39507H6.59835C6.59835 9.39507 7.07438 8.02647 7.9405 7.47771L17.8116 9.32234L20.1388 7.33226C20.0463 5.46118 19.1471 4.31738 19.1471 4.31738H13.7521C9.95703 4.31738 8.72727 4.31738 8.72727 4.31738C7.81488 4.31738 5.95703 4.51573 4.56199 6.08267C3.16033 7.64961 1.91736 11.1339 3.25951 14.3868C4.62149 17.686 6.39339 18.1091 7.39174 18.1091C9.23637 18.1091 19.3653 18.1091 19.3653 18.1091C19.3851 18.0628 19.405 18.0166 19.4182 17.9571C19.7091 16.9852 19.9537 14.8496 19.9537 14.8496H17.3752H7.88099V14.843Z" fill="white"/>
<path d="M10.7636 5.41489C10.7636 5.41489 6.87602 6.17522 6.68428 6.26778C6.49255 6.36034 5.73883 9.77852 5.73883 9.77852H17.038L19.9339 7.32563L10.7636 5.41489Z" fill="url(#paint4_linear_129_19)"/>
<path d="M10.8364 10.8364C10.8364 10.8364 6.94875 11.5967 6.75701 11.6893C6.56528 11.7818 5.80495 15.2 5.80495 15.2H16.6876L20.0132 12.6876L10.8364 10.8364Z" fill="url(#paint5_linear_129_19)"/>
<path d="M20.1388 12.7471H6.60495C6.93553 13.5868 7.8876 14.6909 7.8876 14.6909H19.9603C19.9603 14.6909 19.7223 17.0711 19.4116 17.9504C19.4116 17.9504 8.07933 17.9504 7.74876 17.9504C6.26115 17.9504 4.66115 17.4546 3.26611 14.2281C1.86446 11.0017 3.17355 7.49092 4.56859 5.92398C5.97024 4.35704 7.8281 4.15869 8.73388 4.15869C8.73388 4.15869 9.97024 4.15869 13.7587 4.15869H19.1471C19.1471 4.15869 20.0463 5.40167 20.1256 7.32563H7.9471C7.0876 7.86778 6.60495 9.24299 6.60495 9.24299H20.1322C20.1388 9.24299 20.2711 11.1008 20.1388 12.7471Z" fill="url(#paint6_linear_129_19)"/>
<path d="M18.043 3.37851C18.043 3.37851 13.3355 1.51405 9.09091 3.91405C5.36199 6.01653 1.1438 9.38182 4.27769 16.2909C1.44132 12.2512 1.41488 8.96529 3.63637 5.52066C5.74546 2.26777 11.9339 -0.694213 18.043 3.37851Z" fill="url(#paint7_linear_129_19)"/>
<path opacity="0.4" d="M11.9868 0C5.52067 0 0.0330657 5.18347 7.89596e-06 11.9868C-0.00660367 13.1504 0.158686 14.2876 0.456206 15.3388C0.456206 15.3388 0.449595 15.2198 0.442983 15.0149C0.403314 13.7587 0.568603 9.1438 2.92232 9.54711C5.27604 9.95041 8.72728 10.6446 12.8066 9.52066C16.886 8.39669 20.1389 4.58182 18.043 1.63967C18.043 1.63967 15.5901 0 11.9868 0Z" fill="url(#paint8_linear_129_19)"/>
<path d="M10.0298 4.2248C10.3207 4.97191 9.32232 5.85786 8.07273 6.12893C6.82314 6.40001 5.56033 5.99009 5.34215 5.22315C4.99174 4.00662 6.20827 3.57026 7.45785 3.29918C8.70744 3.03472 9.44132 2.73059 10.0298 4.2248Z" fill="white"/>
</g>
<defs>
<radialGradient id="paint0_radial_129_19" cx="0" cy="0" r="1" gradientUnits="userSpaceOnUse" gradientTransform="translate(4.7366 3.85499) scale(13.3281)">
<stop stop-color="#77FFFF"/>
<stop offset="0.3939" stop-color="#87E4FF"/>
<stop offset="0.8606" stop-color="#6273FF"/>
<stop offset="1" stop-color="#9468FF"/>
</radialGradient>
<radialGradient id="paint1_radial_129_19" cx="0" cy="0" r="1" gradientUnits="userSpaceOnUse" gradientTransform="translate(12.8749 16.1427) rotate(-6.06179) scale(9.36346 10.8267)">
<stop offset="0.497" stop-color="#00FFFF"/>
<stop offset="1" stop-color="#00F4FF" stop-opacity="0"/>
</radialGradient>
<linearGradient id="paint2_linear_129_19" x1="13.9391" y1="12.3516" x2="20.4473" y2="16.6107" gradientUnits="userSpaceOnUse">
<stop stop-color="#5A27ED"/>
<stop offset="1" stop-color="#AB37F4"/>
</linearGradient>
<linearGradient id="paint3_linear_129_19" x1="4.68617" y1="16.6307" x2="17.3904" y2="19.8421" gradientUnits="userSpaceOnUse">
<stop offset="2.05407e-07" stop-color="#7618F4"/>
<stop offset="0.5036" stop-color="#575FF8"/>
<stop offset="1" stop-color="#09FFFF"/>
</linearGradient>
<linearGradient id="paint4_linear_129_19" x1="8.14715" y1="7.58479" x2="18.757" y2="8.6598" gradientUnits="userSpaceOnUse">
<stop offset="2.05407e-07" stop-color="#7F4CFF"/>
<stop offset="1" stop-color="#3095FF"/>
</linearGradient>
<linearGradient id="paint5_linear_129_19" x1="7.79" y1="11.0809" x2="17.0389" y2="16.2508" gradientUnits="userSpaceOnUse">
<stop offset="2.05407e-07" stop-color="#7F52FF"/>
<stop offset="1" stop-color="#3096FF"/>
</linearGradient>
<linearGradient id="paint6_linear_129_19" x1="16.8737" y1="15.336" x2="12.7452" y2="11.2074" gradientUnits="userSpaceOnUse">
<stop stop-color="white"/>
<stop offset="0.1573" stop-color="#FBFFFF"/>
<stop offset="0.3191" stop-color="#EFFFFF"/>
<stop offset="0.4829" stop-color="#DAFFFF"/>
<stop offset="0.6481" stop-color="#BDFFFE"/>
<stop offset="0.8144" stop-color="#98FFFE"/>
<stop offset="0.9795" stop-color="#6BFFFD"/>
<stop offset="1" stop-color="#65FFFD"/>
</linearGradient>
<linearGradient id="paint7_linear_129_19" x1="4.06564" y1="16.1669" x2="13.1119" y2="0.498177" gradientUnits="userSpaceOnUse">
<stop stop-color="white" stop-opacity="0"/>
<stop offset="0.5154" stop-color="#E6FFFF"/>
<stop offset="1" stop-color="#CEFFFF" stop-opacity="0.5"/>
</linearGradient>
<linearGradient id="paint8_linear_129_19" x1="0.000530294" y1="7.6703" x2="18.6953" y2="7.6703" gradientUnits="userSpaceOnUse">
<stop stop-color="white"/>
<stop offset="0.8672" stop-color="white" stop-opacity="0.3062"/>
<stop offset="1" stop-color="white" stop-opacity="0.2"/>
</linearGradient>
<clipPath id="clip0_129_19">
<rect width="24" height="24" fill="white"/>
</clipPath>
</defs>
</svg>
