<svg width="24" height="24" viewBox="0 0 24 24" fill="none" xmlns="http://www.w3.org/2000/svg">
<g clip-path="url(#clip0_192_131)">
<path d="M12 0C14.3734 0 16.6935 0.703788 18.6668 2.02236C20.6402 3.34094 22.1783 5.21509 23.0866 7.4078C23.9948 9.60051 24.2324 12.0133 23.7694 14.3411C23.3064 16.6689 22.1635 18.8071 20.4853 20.4853C18.8071 22.1635 16.6689 23.3064 14.3411 23.7694C12.0133 24.2324 9.60051 23.9948 7.4078 23.0866C5.21509 22.1783 3.34094 20.6402 2.02236 18.6668C0.703788 16.6935 0 14.3734 0 12C0 8.8174 1.26428 5.76516 3.51472 3.51472C5.76516 1.26428 8.8174 0 12 0Z" fill="#E9EAE9"/>
<path d="M12.1175 3.84L12.0057 4.21894V15.2116L12.1175 15.3227L17.22 12.3063L12.1175 3.84Z" fill="#525252"/>
<path d="M12.1427 3.84L7.03955 12.3069L12.1427 15.3234V3.84Z" fill="#B1B1B1"/>
<path d="M12.1175 16.2486L12.0543 16.3251V20.2408L12.1175 20.424L17.2232 13.2335L12.1175 16.2486Z" fill="#3E3E3E"/>
<path d="M12.1427 20.4246V16.2486L7.03955 13.2341L12.1427 20.4246Z" fill="#B1B1B1"/>
<path d="M12.1174 15.3013L17.2199 12.2836L12.1174 9.96442V15.3013Z" fill="black"/>
<path d="M7.03955 12.2836L12.1427 15.3V9.96567L7.03955 12.2836Z" fill="#6C6C6C"/>
</g>
<defs>
<clipPath id="clip0_192_131">
<rect width="24" height="24" fill="white"/>
</clipPath>
</defs>
</svg>
