<svg width="24" height="24" viewBox="0 0 24 24" fill="none" xmlns="http://www.w3.org/2000/svg">
<path d="M12 22.7161C18.2132 22.7161 23.25 17.6793 23.25 11.4661C23.25 5.25286 18.2132 0.216064 12 0.216064C5.7868 0.216064 0.75 5.25286 0.75 11.4661C0.75 17.6793 5.7868 22.7161 12 22.7161Z" fill="#FFBF42" stroke="#181A20" stroke-width="0.3175"/>
<path d="M12 22.0129C17.8249 22.0129 22.5469 17.2909 22.5469 11.4661C22.5469 5.64118 17.8249 0.919189 12 0.919189C6.17513 0.919189 1.45312 5.64118 1.45312 11.4661C1.45312 17.2909 6.17513 22.0129 12 22.0129Z" fill="#181A20"/>
<path d="M17.4403 9.12894C17.6784 9.12894 17.8815 9.21294 18.0495 9.38101C18.2176 9.54901 18.3016 9.75444 18.3016 9.99714C18.3016 10.2353 18.2176 10.4406 18.0495 10.6133C17.8815 10.7814 17.6784 10.8654 17.4403 10.8654C17.2023 10.8654 16.9992 10.7814 16.8312 10.6133C16.6631 10.4406 16.5791 10.2353 16.5791 9.99714C16.5791 9.75444 16.6631 9.54901 16.8312 9.38101C16.9992 9.21294 17.2023 9.12894 17.4403 9.12894Z" fill="#FFBF42"/>
<path d="M11.6836 6.13403C11.4797 6.13424 11.2651 6.13959 11.1364 6.13959C10.9759 6.13959 10.8486 6.14518 10.7545 6.15626C10.6604 6.16182 10.5856 6.17568 10.5303 6.19788C10.4805 6.21452 10.4417 6.24218 10.4141 6.28102C10.3864 6.31431 10.3588 6.35322 10.3311 6.39761L8.03962 10.4255L5.73158 6.39761C5.69837 6.35323 5.66794 6.31432 5.64027 6.28103C5.61259 6.24219 5.56831 6.21454 5.50743 6.19789C5.44654 6.1757 5.3635 6.16183 5.25834 6.15628C5.15317 6.14517 5.01753 6.1396 4.85148 6.1396C4.65776 6.1396 4.50553 6.14519 4.39483 6.15628C4.28414 6.16738 4.20671 6.19512 4.16243 6.23951C4.11815 6.27834 4.1043 6.33653 4.1209 6.4142C4.14304 6.48633 4.18732 6.58343 4.25374 6.7055L7.05164 11.4908L4.1209 16.4426C4.04895 16.5646 4.00467 16.6617 3.98806 16.7338C3.97699 16.8059 3.99085 16.8641 4.02959 16.9085C4.07387 16.9474 4.14858 16.9723 4.25374 16.9834C4.35891 17.0001 4.5028 17.0084 4.68545 17.0084C4.8515 17.0084 4.98434 17.0029 5.08397 16.9918C5.1836 16.9862 5.26111 16.9751 5.31646 16.9585C5.37735 16.9363 5.42435 16.9085 5.45756 16.8752C5.49077 16.842 5.5212 16.8004 5.54887 16.7504L7.96492 12.4645L10.356 16.7504C10.3781 16.8004 10.403 16.842 10.4307 16.8752C10.4639 16.903 10.5082 16.928 10.5635 16.9502C10.6244 16.9724 10.7047 16.9862 10.8043 16.9918C10.9039 17.0029 11.0423 17.0084 11.2195 17.0084C11.3236 17.0084 15.1025 17.1584 17.6044 16.316C19.6272 15.6349 21.1644 14.0213 21.1432 10.9826C21.1 8.3421 18.7117 7.33922 18.6541 7.30855C16.7935 6.13464 13.7002 6.24052 11.8803 6.13598C11.8183 6.13459 11.7516 6.13402 11.6836 6.13403ZM12.8942 7.38629C13.2774 7.38749 13.3552 7.39304 13.7779 7.40677L13.7785 8.1999H12.9356C12.5587 8.1999 12.267 8.3697 12.0603 8.70923C11.8536 9.04155 11.7503 9.37853 11.7503 9.9492C11.7503 10.2237 11.7776 10.3728 11.8324 10.6256C11.887 10.8713 11.963 11.0916 12.0603 11.2867C12.1636 11.4745 12.2822 11.6262 12.4159 11.7418C12.5497 11.8574 12.6985 11.9152 12.8627 11.9152H13.7785V14.18H12.0599C11.8765 14.18 11.8537 14.2467 11.8454 14.4015V14.6226C11.8635 14.8144 11.8789 14.8921 12.1109 14.906H13.7785V15.7511C12.3532 15.8041 11.452 15.7732 11.452 15.7732L8.93625 11.4575L11.315 7.40542C11.315 7.40542 11.9998 7.38363 12.8942 7.38629ZM14.4898 7.43852C15.0815 7.47308 15.976 7.52858 16.3749 7.61573C16.8409 7.71758 19.8532 8.11875 19.8385 11.3374C19.8745 14.8563 16.6387 15.5762 14.4947 15.7164C14.4931 15.7166 14.4898 15.7185 14.4898 15.7168V14.9061H15.6334C15.7855 14.9061 15.9222 14.8591 16.0438 14.7652C16.1653 14.6641 16.2656 14.5304 16.3447 14.3643C16.4298 14.1909 16.4935 13.9886 16.5361 13.7575C16.5847 13.5191 16.6091 13.3771 16.6091 13.1026C16.6091 12.8209 16.5847 12.6682 16.5361 12.4154C16.4935 12.1625 16.4267 11.9385 16.3356 11.7435C16.2505 11.5484 16.147 11.3932 16.0255 11.2776C15.91 11.162 15.7793 11.1042 15.6334 11.1042H14.4898V8.93693H16.0302C16.1854 8.92485 16.2452 8.86815 16.286 8.68043V8.43375C16.2559 8.33738 16.2493 8.2371 16.0422 8.19998H14.4898V7.43852ZM13.35 8.93685H13.7785V11.1041H13.35C13.204 11.1041 13.0855 11.003 12.9943 10.8008C12.9092 10.5912 12.8666 10.3347 12.8666 10.0313C12.8666 9.7062 12.9092 9.4425 12.9943 9.24023C13.0855 9.03795 13.209 8.89913 13.35 8.93685ZM14.4898 11.9152H14.9912C15.0824 11.9152 15.1615 11.9476 15.2284 12.0127C15.3013 12.0777 15.3621 12.1645 15.4107 12.2729C15.4594 12.374 15.4958 12.4931 15.5201 12.6304C15.5444 12.7677 15.5566 12.9085 15.5566 13.053C15.5566 13.3564 15.5049 13.6201 15.4015 13.8441C15.3043 14.068 15.1675 14.18 14.9912 14.18H14.4898V11.9152Z" fill="#FFBF42"/>
</svg>
