<svg width="24" height="24" viewBox="0 0 24 24" fill="none" xmlns="http://www.w3.org/2000/svg">
<path d="M12 24C18.6274 24 24 18.6274 24 12C24 5.37258 18.6274 0 12 0C5.37258 0 0 5.37258 0 12C0 18.6274 5.37258 24 12 24Z" fill="black"/>
<path d="M11.2752 19V5H12.7248V19H11.2752ZM11.2752 16.3219C10.6364 16.3219 10.0549 16.2203 9.53071 16.0171C9.00655 15.8103 8.5561 15.5181 8.17936 15.1407C7.80262 14.7597 7.51188 14.3043 7.30713 13.7745C7.10238 13.2447 7 12.6568 7 12.0109C7 11.3577 7.10238 10.7662 7.30713 10.2364C7.51188 9.70295 7.80262 9.24572 8.17936 8.8647C8.5561 8.48367 9.00655 8.19155 9.53071 7.98834C10.0549 7.78149 10.6364 7.67807 11.2752 7.67807H11.7174V16.3219H11.2752ZM11.2752 15.168H11.5209V8.83204H11.2752C10.792 8.83204 10.3722 8.91913 10.016 9.09331C9.65971 9.26387 9.36486 9.49793 9.13145 9.79549C8.90213 10.0894 8.73014 10.4269 8.61548 10.8079C8.50491 11.189 8.44963 11.5899 8.44963 12.0109C8.44963 12.5697 8.54996 13.0886 8.75061 13.5677C8.95127 14.0467 9.26044 14.4331 9.67813 14.7271C10.0958 15.021 10.6282 15.168 11.2752 15.168ZM12.7248 16.3219H12.2826V7.67807H12.7248C13.3636 7.67807 13.9451 7.78149 14.4693 7.98834C14.9934 8.19155 15.4439 8.48367 15.8206 8.8647C16.1974 9.24572 16.4881 9.70295 16.6929 10.2364C16.8976 10.7662 17 11.3577 17 12.0109C17 12.6568 16.8976 13.2447 16.6929 13.7745C16.4881 14.3043 16.1974 14.7597 15.8206 15.1407C15.4439 15.5181 14.9934 15.8103 14.4693 16.0171C13.9451 16.2203 13.3636 16.3219 12.7248 16.3219ZM12.7248 15.168C13.2121 15.168 13.6319 15.0845 13.984 14.9176C14.3403 14.747 14.6331 14.5148 14.8624 14.2208C15.0958 13.9233 15.2678 13.5858 15.3784 13.2084C15.493 12.8274 15.5504 12.4282 15.5504 12.0109C15.5504 11.452 15.45 10.9313 15.2494 10.4487C15.0487 9.96604 14.7396 9.57595 14.3219 9.27838C13.9042 8.98082 13.3718 8.83204 12.7248 8.83204H12.4791V15.168H12.7248Z" fill="white"/>
</svg>
