<svg width="24" height="24" viewBox="0 0 24 24" fill="none" xmlns="http://www.w3.org/2000/svg">
<g clip-path="url(#clip0_2587_175)">
<path d="M12 24C10.3803 24 8.80886 23.6825 7.32886 23.0568C5.89967 22.4523 4.61695 21.587 3.51457 20.4854C2.41304 19.3839 1.54773 18.1003 0.943202 16.6711C0.317505 15.1911 0 13.6197 0 12C0 10.3803 0.317505 8.80886 0.943202 7.32886C1.54773 5.89967 2.41304 4.61695 3.51457 3.51457C4.61695 2.41304 5.89967 1.54773 7.32886 0.943202C8.80886 0.317505 10.3803 0 12 0C13.6197 0 15.1911 0.317505 16.6711 0.943202C18.1003 1.54773 19.3831 2.41304 20.4854 3.51457C21.587 4.6161 22.4523 5.89967 23.0568 7.32886C23.6825 8.80886 24 10.3803 24 12C24 13.6197 23.6825 15.1911 23.0568 16.6711C22.4523 18.1003 21.587 19.3831 20.4854 20.4854C19.3839 21.587 18.1003 22.4523 16.6711 23.0568C15.1911 23.6833 13.6197 24 12 24Z" fill="white"/>
<path d="M12 23.3642C18.2763 23.3642 23.3642 18.2763 23.3642 12C23.3642 5.72376 18.2763 0.635864 12 0.635864C5.72376 0.635864 0.635864 5.72376 0.635864 12C0.635864 18.2763 5.72376 23.3642 12 23.3642Z" fill="black"/>
<path d="M17.986 12C17.986 10.7825 17.6203 9.64963 16.9937 8.70304L18.8522 6.84457L17.1808 5.17323L15.3275 7.02661C14.3758 6.38737 13.2311 6.01398 12.0009 6.01398C10.7833 6.01398 9.65047 6.37975 8.70388 7.00629L6.84457 5.14783L5.17323 6.81917L7.02661 8.67256C6.38737 9.62423 6.01398 10.7689 6.01398 11.9992C6.01398 13.2167 6.37975 14.3495 7.00629 15.2961L5.14783 17.1554L6.81917 18.8268L8.67256 16.9734C9.62423 17.6127 10.7689 17.986 11.9992 17.986C13.2167 17.986 14.3495 17.6203 15.2961 16.9937L17.1554 18.853L18.8268 17.1817L16.9734 15.3283C17.6127 14.3749 17.986 13.2302 17.986 12ZM8.37876 12C8.37876 10.0027 10.0035 8.37791 12.0009 8.37791C13.9982 8.37791 15.623 10.0027 15.623 12C15.623 13.9973 13.9982 15.6221 12.0009 15.6221C10.0035 15.6221 8.37876 13.9973 8.37876 12Z" fill="white"/>
</g>
<defs>
<clipPath id="clip0_2587_175">
<rect width="24" height="24" fill="white"/>
</clipPath>
</defs>
</svg>
