<svg width="40" height="40" viewBox="0 0 40 40" fill="none" xmlns="http://www.w3.org/2000/svg">
<rect width="40" height="40" rx="20" fill="#3368F6"/>
<path fill-rule="evenodd" clip-rule="evenodd" d="M19.953 6.27454L11.7657 10.9206V28.942L19.953 33.7255L28.2363 28.942V10.9206L19.953 6.27454ZM20 7.64674L13.8235 11.3526L20 14.9556L26.1764 11.3526L20 7.64674ZM13.1372 12.4507V18.6272L18.6274 15.5526L13.1372 12.4507ZM20.6862 16.9115V23.0879L26.1764 20.0133L20.6862 16.9115ZM26.8627 12.4507V18.6272L21.3725 15.5526L26.8627 12.4507ZM19.3136 16.9115V23.0879L13.8235 20.0133L19.3136 16.9115ZM13.1372 21.0702V28.2349L20 32.3526L26.8627 28.2349V21.0702L20 24.8035L13.1372 21.0702Z" fill="white"/>
<path d="M8.33333 30.424V26.1759H9.70586V29.7446L13.1372 31.5151V33.0388L8.33333 30.424ZM31.6667 9.57503V13.8231H30.294V10.2544L26.8627 8.48386V6.96033L31.6667 9.57503Z" fill="white"/>
</svg>
