<svg width="24" height="24" viewBox="0 0 24 24" fill="none" xmlns="http://www.w3.org/2000/svg">
<path d="M12 24C18.6274 24 24 18.6274 24 12C24 5.37258 18.6274 0 12 0C5.37258 0 0 5.37258 0 12C0 18.6274 5.37258 24 12 24Z" fill="#958FDC"/>
<path d="M20.3977 11.9919C20.3977 7.35712 16.6372 3.60001 11.9991 3.60001C7.36106 3.60001 3.59961 7.35712 3.59961 11.9919C3.59961 12.9502 3.76072 13.8705 4.0564 14.7283C4.05829 14.7321 4.07441 14.7813 4.07441 14.7813C4.19382 15.1611 3.6015 15.3097 3.6015 15.537C3.6015 15.893 4.85058 15.8447 4.85058 16.2584C4.85058 16.6192 3.61477 16.7309 3.61477 17.0945C3.61477 17.5973 6.3508 17.4221 6.38587 17.8539C6.41243 18.1872 5.44479 18.208 5.43911 18.564C5.42963 19.1331 9.17307 18.9466 9.17307 19.3253C9.17307 19.6122 7.47005 19.508 7.47005 19.847C7.47005 20.186 9.71137 20.4 12.1821 20.4C14.6527 20.4 16.3567 20.1254 16.3567 19.829C16.3567 19.5327 14.7664 19.5933 14.7996 19.3262C14.8565 18.8595 18.3867 19.098 18.3867 18.5574C18.3867 18.2724 17.4163 18.2061 17.4475 17.8993C17.4921 17.4657 20.3977 17.5301 20.3977 17.0794C20.3977 16.7252 18.9572 16.6381 18.96 16.2698C18.9619 15.8939 20.3977 15.91 20.3882 15.5578C20.3807 15.287 19.7457 15.2936 19.9447 14.7198C20.2385 13.8648 20.3996 12.9473 20.3996 11.9919H20.3977ZM17.729 14.3752C17.4371 15.0351 16.7813 14.9026 16.7073 15.18C16.6306 15.4669 17.5158 15.5085 17.5158 15.8087C17.5158 16.1732 14.8176 16.0274 14.8442 16.5084C14.8612 16.8114 16.7604 16.8625 16.7244 17.1788C16.6723 17.637 13.7818 17.4079 13.7534 17.8473C13.7325 18.1692 15.1645 18.1806 15.1674 18.4741C15.1702 18.7212 14.0433 18.8557 11.8844 18.8557C9.42612 18.8557 8.23013 18.7231 8.3666 18.4476C8.49359 18.19 10.6705 18.2374 10.6487 17.8321C10.6269 17.4278 6.78298 17.5461 6.66732 17.1532C6.57068 16.8266 7.93063 16.7593 7.92212 16.4488C7.91355 16.1325 6.18116 16.2045 6.14328 15.821C6.11861 15.5701 7.04833 15.5852 7.00849 15.269C6.97912 15.0389 6.59529 15.0711 6.36787 14.5967C6.00111 13.8042 5.7945 12.9217 5.7945 11.991C5.7945 8.5672 8.57321 5.79102 12.0001 5.79102C15.427 5.79102 18.2057 8.5672 18.2057 11.991C18.2057 12.8356 18.036 13.6404 17.7299 14.3742L17.729 14.3752Z" fill="#2B1D3C"/>
<path fill-rule="evenodd" clip-rule="evenodd" d="M4.11961 14.7065C3.82628 13.8556 3.66645 12.9426 3.66645 11.992C3.66645 7.39427 7.39797 3.66721 11.9991 3.66721C16.6003 3.66721 20.3309 7.39427 20.3309 11.992H20.3328C20.3328 12.0144 20.3327 12.0369 20.3325 12.0592C20.3252 12.9828 20.1661 13.87 19.8815 14.6981C19.7591 15.0511 19.9548 15.1826 20.1229 15.2957C20.2259 15.365 20.3186 15.4273 20.3215 15.5294C20.3261 15.7016 19.9825 15.785 19.6326 15.87C19.2724 15.9575 18.9056 16.0466 18.9047 16.2357C18.9033 16.4203 19.2673 16.5337 19.6279 16.646C19.9811 16.756 20.3309 16.865 20.3309 17.0388C20.3309 17.2652 19.5914 17.3606 18.8558 17.4555C18.1391 17.5479 17.426 17.6399 17.4042 17.8522C17.3882 18.0086 17.6348 18.102 17.8782 18.1942C18.1084 18.2814 18.3359 18.3676 18.3359 18.505C18.3359 18.7836 17.3908 18.8536 16.4746 18.9215C15.6272 18.9843 14.8044 19.0452 14.7773 19.2677C14.7612 19.3973 15.1304 19.4491 15.5119 19.5026C15.9103 19.5585 16.322 19.6162 16.322 19.7664C16.322 20.0604 14.6316 20.3329 12.1806 20.3329C9.72958 20.3329 7.50609 20.1206 7.50609 19.7843C7.50609 19.6092 7.9644 19.5532 8.40359 19.4997C8.80768 19.4505 9.19556 19.4031 9.19556 19.2667C9.19556 19.098 8.44645 19.0424 7.62199 18.9812C6.61073 18.906 5.48613 18.8226 5.49131 18.5116C5.49415 18.3337 5.73914 18.2401 5.97823 18.1488C6.2138 18.0589 6.44359 17.9712 6.43054 17.8071C6.41384 17.6016 5.78005 17.5347 5.1253 17.4656C4.41571 17.3907 3.68149 17.3132 3.68149 17.0538C3.68149 16.8731 3.98919 16.7551 4.29629 16.6374C4.60218 16.5201 4.90747 16.403 4.90747 16.2244C4.90747 16.0115 4.57397 15.9219 4.253 15.8357C3.95528 15.7557 3.66833 15.6786 3.66833 15.5087C3.66833 15.4166 3.76644 15.3375 3.87441 15.2504C4.03066 15.1245 4.20753 14.9819 4.13747 14.7591C4.13747 14.7591 4.12149 14.7103 4.11961 14.7065ZM4.07385 14.7798C4.09728 14.8545 4.08604 14.9154 4.05556 14.9711C4.02335 15.03 3.96905 15.0843 3.9042 15.1393C3.88308 15.1572 3.85993 15.1759 3.83641 15.1949C3.79266 15.2302 3.74764 15.2666 3.71199 15.301C3.65706 15.354 3.60149 15.4226 3.60149 15.5087C3.60149 15.5752 3.63147 15.6295 3.67485 15.6721C3.71698 15.7135 3.77367 15.7461 3.83494 15.7733C3.9474 15.8232 4.09301 15.8623 4.23441 15.9002C4.24651 15.9035 4.25858 15.9068 4.27059 15.91C4.42689 15.9521 4.57487 15.994 4.68382 16.0491C4.79542 16.1056 4.84063 16.1626 4.84063 16.2244C4.84063 16.2482 4.8309 16.2738 4.80479 16.3034C4.77807 16.3337 4.73713 16.3645 4.68262 16.396C4.57323 16.4592 4.42553 16.5159 4.27066 16.5753L4.26866 16.576C4.1176 16.634 3.95963 16.6945 3.83963 16.7642C3.77917 16.7993 3.72433 16.8389 3.68402 16.8849C3.64308 16.9316 3.61465 16.9879 3.61465 17.0538C3.61465 17.152 3.68255 17.2215 3.76436 17.2698C3.84735 17.3187 3.96128 17.3564 4.09078 17.3871C4.3507 17.4488 4.69554 17.4876 5.03596 17.5237C5.06317 17.5266 5.09036 17.5295 5.11748 17.5323C5.43222 17.5656 5.73799 17.5978 5.97332 17.6448C6.10148 17.6704 6.20378 17.6994 6.27366 17.7329C6.34785 17.7685 6.36272 17.7978 6.36394 17.8126C6.36734 17.8556 6.34147 17.8993 6.26042 17.9499C6.18083 17.9996 6.07034 18.0418 5.9497 18.0879L5.94918 18.088C5.83219 18.1328 5.70577 18.1811 5.60873 18.242C5.51276 18.3023 5.42647 18.387 5.42448 18.5105C5.42259 18.6237 5.51441 18.6997 5.61831 18.751C5.72705 18.8047 5.87834 18.8466 6.05334 18.8809C6.40461 18.9496 6.87172 18.9913 7.33483 19.027C7.42972 19.0342 7.52449 19.0413 7.61811 19.0483C7.98346 19.0754 8.33176 19.1013 8.60709 19.1363C8.78036 19.1584 8.92048 19.1836 9.01604 19.2137C9.06424 19.2289 9.09636 19.2439 9.11518 19.2574C9.12259 19.2627 9.12629 19.2664 9.12805 19.2687C9.12763 19.2696 9.12671 19.271 9.1252 19.2728C9.12022 19.2788 9.11002 19.2876 9.0912 19.2978C9.05332 19.3184 8.99461 19.3374 8.91702 19.3548C8.77526 19.3867 8.58912 19.4094 8.39472 19.4331C8.37742 19.4352 8.36012 19.4373 8.34275 19.4394C8.13263 19.4652 7.91668 19.4932 7.75301 19.5366C7.67159 19.5582 7.59752 19.5851 7.54252 19.6207C7.48764 19.6562 7.43925 19.7092 7.43925 19.7843C7.43925 19.8659 7.50512 19.9233 7.57306 19.9626C7.64603 20.0049 7.749 20.0426 7.87431 20.0767C8.12608 20.1453 8.4847 20.2038 8.9169 20.2515C9.78233 20.3469 10.9536 20.4 12.1806 20.4C13.4082 20.4 14.4468 20.3318 15.1799 20.2264C15.5459 20.1738 15.8385 20.1114 16.041 20.0426C16.1418 20.0084 16.2242 19.9712 16.2827 19.9304C16.3385 19.8915 16.3889 19.8376 16.3889 19.7664C16.3889 19.695 16.34 19.646 16.2897 19.6145C16.2382 19.5821 16.1691 19.5573 16.0934 19.5369C15.9412 19.4957 15.7406 19.4668 15.5466 19.4396L15.5233 19.4363C15.3349 19.4099 15.1545 19.3846 15.0211 19.3508C14.9511 19.3332 14.9 19.3145 14.8688 19.2956C14.8534 19.2862 14.8467 19.2791 14.8442 19.2755C14.8441 19.2753 14.8439 19.275 14.8438 19.2749C14.8449 19.2683 14.8496 19.2568 14.8691 19.2405C14.89 19.2232 14.9231 19.2049 14.9703 19.1867C15.0646 19.1505 15.2003 19.1205 15.3672 19.095C15.6745 19.0481 16.0728 19.0186 16.4803 18.9884C16.5143 18.9859 16.5485 18.9834 16.5827 18.9809C17.0231 18.948 17.4664 18.9127 17.7998 18.8514C17.9659 18.8209 18.1099 18.7831 18.2139 18.7335C18.3132 18.6861 18.4027 18.6145 18.4027 18.505C18.4027 18.4487 18.3782 18.4014 18.3444 18.3634C18.3111 18.3262 18.2665 18.295 18.2187 18.2679C18.1293 18.2175 18.0136 18.1736 17.9035 18.132C17.8963 18.1292 17.8891 18.1265 17.882 18.1238C17.7621 18.0783 17.6512 18.035 17.5718 17.9857C17.489 17.9342 17.4672 17.8932 17.4707 17.8591C17.4722 17.8439 17.4903 17.8121 17.5717 17.7726C17.6476 17.7357 17.7578 17.7025 17.8945 17.6721C18.1608 17.6129 18.5111 17.5677 18.8665 17.5219L18.8926 17.5185C19.2546 17.4718 19.6201 17.424 19.895 17.3594C20.032 17.3273 20.1515 17.2899 20.2382 17.2439C20.3203 17.2003 20.3977 17.1354 20.3977 17.0388C20.3977 16.9696 20.362 16.9133 20.3152 16.8693C20.2687 16.8256 20.2056 16.7885 20.1361 16.7557C20.0007 16.6917 19.823 16.6364 19.6505 16.5827L19.6365 16.5783C19.4566 16.5223 19.2836 16.4678 19.1555 16.4054C19.0914 16.3743 19.0431 16.3433 19.0118 16.3126C18.981 16.2824 18.9713 16.2575 18.9715 16.2362V16.236C18.9716 16.2137 18.9816 16.1897 19.0116 16.1623C19.0425 16.1338 19.0902 16.1061 19.1541 16.0791C19.2817 16.0252 19.4539 15.9826 19.633 15.9391L19.651 15.9347C19.8212 15.8934 19.9962 15.8508 20.1293 15.797C20.1982 15.7692 20.2612 15.7363 20.3076 15.6952C20.355 15.6531 20.3902 15.5975 20.3883 15.5275V15.5275C20.3856 15.43 20.3252 15.3635 20.2637 15.3138C20.2325 15.2886 20.1975 15.265 20.1641 15.2425L20.1607 15.2402C20.1277 15.218 20.0957 15.1965 20.0653 15.1731C20.0026 15.1248 19.9534 15.0732 19.9284 15.0066C19.9039 14.9413 19.899 14.8517 19.9446 14.7202L19.9447 14.72C20.2385 13.865 20.3996 12.9474 20.3996 11.992V11.9249H20.3975C20.3614 7.32049 16.6144 3.60001 11.9991 3.60001C7.36148 3.60001 3.59961 7.35674 3.59961 11.992C3.59961 12.9502 3.76072 13.8706 4.05645 14.7285L4.0579 14.7327L4.05849 14.734C4.05889 14.7351 4.05941 14.7365 4.06004 14.7384C4.06169 14.7432 4.06378 14.7494 4.06588 14.7557C4.06795 14.7619 4.06998 14.768 4.07149 14.7726L4.07331 14.7781L4.07374 14.7794M9.12951 19.2709C9.12951 19.2709 9.12933 19.2708 9.1292 19.2703C9.12945 19.2706 9.12951 19.2709 9.12951 19.2709ZM17.6843 14.3553C17.988 13.6273 18.1563 12.829 18.1563 11.9911C18.1563 8.59468 15.3997 5.8407 12.0001 5.8407C8.60047 5.8407 5.84387 8.59468 5.84387 11.9911C5.84387 12.9144 6.04885 13.7898 6.41269 14.576C6.53836 14.8381 6.71217 14.9443 6.84653 15.0264C6.95338 15.0917 7.03534 15.1418 7.04821 15.2429C7.06916 15.4091 6.82 15.4831 6.5848 15.5529C6.37614 15.6148 6.17834 15.6735 6.18988 15.7905C6.20949 15.9893 6.68838 16.0647 7.14225 16.1362C7.55679 16.2015 7.9505 16.2635 7.95457 16.4132C7.95863 16.5624 7.64439 16.655 7.33003 16.7476C6.99521 16.8463 6.66033 16.9449 6.70975 17.112C6.76645 17.3047 7.72672 17.3734 8.68607 17.4422C9.66771 17.5124 10.6485 17.5827 10.6594 17.7855C10.6716 18.0126 9.98778 18.0964 9.36768 18.1724C8.89006 18.231 8.45027 18.2849 8.39551 18.396C8.26013 18.6694 9.4466 18.8009 11.8854 18.8009C14.0271 18.8009 15.1449 18.6675 15.1421 18.4224C15.1408 18.2807 14.804 18.2053 14.4608 18.1284C14.0983 18.0473 13.7288 17.9646 13.7394 17.8006C13.7534 17.5847 14.4636 17.5315 15.1833 17.4776C15.9171 17.4226 16.6607 17.3669 16.6868 17.1374C16.705 16.9776 16.2251 16.8861 15.7475 16.795C15.2876 16.7072 14.8299 16.6198 14.8215 16.4724C14.8075 16.217 15.5679 16.1397 16.2776 16.0676C16.8938 16.005 17.4719 15.9463 17.4719 15.7783C17.4719 15.6315 17.2584 15.547 17.051 15.465C16.8379 15.3806 16.6313 15.2989 16.6699 15.1546C16.6994 15.0439 16.8223 14.999 16.9774 14.9423C17.2081 14.858 17.5103 14.7476 17.6834 14.3562L17.6843 14.3553ZM17.6278 14.317C17.9249 13.6004 18.0894 12.8151 18.0894 11.9911C18.0894 8.63215 15.3632 5.9079 12.0001 5.9079C8.63696 5.9079 5.91072 8.63215 5.91072 11.9911C5.91072 12.9041 6.11332 13.7697 6.47309 14.5472C6.57806 14.7659 6.71758 14.8671 6.83943 14.9433C6.85217 14.9512 6.86523 14.9592 6.87828 14.9671C6.9257 14.9961 6.97354 15.0253 7.01124 15.057C7.06284 15.1004 7.10443 15.1553 7.11451 15.2343L7.11457 15.2345C7.12968 15.3546 7.04809 15.4335 6.96067 15.484C6.87221 15.5352 6.75376 15.5725 6.64375 15.6054C6.63028 15.6094 6.61692 15.6134 6.60374 15.6173C6.50509 15.6466 6.41512 15.6733 6.34736 15.705C6.30917 15.7228 6.28404 15.7396 6.26971 15.7547C6.25702 15.7681 6.25569 15.7766 6.25636 15.7838C6.25836 15.8037 6.27153 15.8288 6.31409 15.8583C6.35647 15.8876 6.41924 15.9149 6.49999 15.94C6.66112 15.99 6.87482 16.0259 7.0935 16.0605C7.11341 16.0636 7.13333 16.0668 7.15324 16.0699C7.34964 16.1008 7.54592 16.1317 7.69764 16.1721C7.78087 16.1942 7.85615 16.2206 7.91219 16.2543C7.96659 16.2871 8.01935 16.3372 8.02135 16.4114M8.02135 16.4114C8.02317 16.4774 7.98765 16.5297 7.94388 16.5687C7.90029 16.6075 7.84128 16.64 7.77699 16.6683C7.6569 16.7214 7.50081 16.7674 7.35025 16.8117C7.33956 16.8148 7.32888 16.818 7.31819 16.8211C7.15446 16.8694 7.00134 16.9162 6.89485 16.9696C6.84131 16.9965 6.80634 17.0218 6.78746 17.0446C6.77106 17.0644 6.76949 17.0781 6.77386 17.0929C6.7738 17.0927 6.77446 17.0955 6.77962 17.1009C6.78491 17.1065 6.79359 17.1136 6.80719 17.1218C6.83463 17.1384 6.87555 17.1554 6.9308 17.1721C7.04086 17.2054 7.19501 17.2338 7.38109 17.2587C7.74438 17.3073 8.21696 17.3412 8.69227 17.3752L8.72426 17.3775C9.20868 17.4122 9.69351 17.4475 10.0586 17.4994C10.2407 17.5252 10.3969 17.5557 10.5095 17.5937C10.5654 17.6126 10.6149 17.6347 10.652 17.6618C10.6886 17.6884 10.7232 17.7277 10.7261 17.7819C10.7308 17.8676 10.6753 17.93 10.6101 17.9729C10.5442 18.0163 10.4532 18.0507 10.3503 18.0793C10.1437 18.1369 9.86721 18.1772 9.59122 18.2124C9.51848 18.2217 9.44581 18.2306 9.37423 18.2393C9.17158 18.2642 8.97773 18.288 8.81666 18.3156C8.70775 18.3344 8.61717 18.3544 8.55105 18.3767C8.51796 18.3878 8.49338 18.3988 8.47644 18.409C8.45859 18.4199 8.45513 18.4264 8.45537 18.4259L8.45531 18.426C8.45155 18.4336 8.45185 18.4371 8.45197 18.4378C8.45209 18.4387 8.45264 18.4424 8.45823 18.4493C8.47134 18.4654 8.50285 18.4878 8.5649 18.5119C8.68668 18.5594 8.89122 18.6008 9.18269 18.6342C9.76327 18.7008 10.6664 18.7337 11.8854 18.7337C12.9555 18.7337 13.7673 18.7003 14.3102 18.6368C14.5823 18.605 14.7831 18.5659 14.9142 18.5213C14.9801 18.4988 15.0238 18.4764 15.0497 18.4561C15.0754 18.4358 15.0753 18.4247 15.0753 18.4231V18.423C15.0752 18.4174 15.0723 18.4026 15.0406 18.3793C15.0096 18.3564 14.9612 18.3334 14.8967 18.3107C14.7746 18.2676 14.6129 18.2314 14.4444 18.1936L14.4174 18.1876C14.2422 18.1483 14.0613 18.1069 13.9254 18.0542C13.8577 18.028 13.7957 17.9969 13.7503 17.9583C13.7043 17.9189 13.6682 17.865 13.6727 17.7962C13.6789 17.7006 13.761 17.6417 13.8448 17.6042C13.9338 17.5643 14.055 17.5345 14.1933 17.5108C14.4648 17.464 14.8215 17.4373 15.176 17.4107L15.1993 17.409C15.5638 17.3817 15.9242 17.3541 16.1968 17.3054C16.3334 17.2809 16.4431 17.252 16.5188 17.2174C16.5988 17.1808 16.6183 17.1485 16.6204 17.1298C16.6205 17.1284 16.6209 17.1256 16.6165 17.1191C16.6113 17.1113 16.6006 17.1003 16.5808 17.0871C16.5407 17.0605 16.4773 17.0339 16.393 17.0076C16.2255 16.9554 15.9969 16.911 15.7615 16.866L15.7334 16.8606C15.5093 16.8179 15.2814 16.7744 15.1066 16.7235C15.0158 16.6971 14.9348 16.6675 14.8746 16.6326C14.8187 16.6002 14.759 16.5506 14.7548 16.4762V16.4761C14.7494 16.3788 14.8152 16.3098 14.8936 16.2627C14.9731 16.215 15.0835 16.1782 15.2091 16.1481C15.4613 16.0877 15.7979 16.0494 16.13 16.0152C16.1773 16.0103 16.2244 16.0055 16.2713 16.0007C16.5563 15.9718 16.8299 15.944 17.0423 15.906C17.1665 15.8839 17.2647 15.859 17.3305 15.8306C17.3635 15.8163 17.3841 15.803 17.3955 15.792C17.4009 15.7867 17.4033 15.783 17.4042 15.7811C17.405 15.7794 17.405 15.7788 17.405 15.7783C17.405 15.7413 17.3783 15.7003 17.3008 15.6524C17.227 15.6068 17.1281 15.5677 17.023 15.5261L17.0178 15.524C16.9149 15.4833 16.8047 15.4395 16.7257 15.3859C16.6858 15.3589 16.6486 15.326 16.6247 15.2847C16.5995 15.2409 16.591 15.1908 16.6053 15.1371C16.6315 15.0394 16.7084 14.9844 16.7895 14.9452C16.8306 14.9254 16.8766 14.9078 16.9235 14.8906C16.934 14.8867 16.9445 14.8828 16.9552 14.8789C16.9927 14.8652 17.0312 14.8511 17.0708 14.8353C17.2708 14.7551 17.4875 14.6336 17.6223 14.3289L17.6274 14.3174L17.6278 14.317" fill="#2B1D3C"/>
</svg>
