<svg width="40" height="40" viewBox="0 0 40 40" fill="none" xmlns="http://www.w3.org/2000/svg">
<g clip-path="url(#clip0_1374_54)">
<mask id="mask0_1374_54" style="mask-type:luminance" maskUnits="userSpaceOnUse" x="0" y="0" width="40" height="40">
<path d="M40 0H0V40H40V0Z" fill="white"/>
</mask>
<g mask="url(#mask0_1374_54)">
<path d="M20 40C31.0457 40 40 31.0457 40 20C40 8.95431 31.0457 0 20 0C8.95431 0 0 8.95431 0 20C0 31.0457 8.95431 40 20 40Z" fill="#E53E76"/>
<path d="M32.0517 22.0031C32.3822 21.673 32.8076 21.2482 33.2299 20.8269C34.172 19.8864 34.1724 18.361 33.2304 17.4202L32.2324 16.4234C28.6594 19.9922 23.3125 20.7092 19.026 18.575C21.9232 19.11 24.9256 18.6932 27.586 17.2646C29.3658 16.3086 29.7038 13.8978 28.2749 12.4706L22.3834 6.58619C21.0669 5.27128 18.9327 5.27128 17.6167 6.58619L11.2664 12.9289C15.4485 11.1542 20.4724 11.977 23.8736 15.3977C18.6846 12.882 12.2564 13.7746 7.94792 18.0774C7.61742 18.4074 7.19158 18.8328 6.76922 19.2546C5.82766 20.1956 5.82815 21.7199 6.76922 22.6603L7.7667 23.6566C11.3398 20.0878 16.6866 19.3708 20.9731 21.505C18.076 20.97 15.0736 21.3868 12.4132 22.8154C10.6333 23.7714 10.2953 26.1822 11.7242 27.6094L17.6157 33.4938C18.9322 34.8087 21.0664 34.8087 22.3824 33.4938L28.7328 27.1511C24.5506 28.9258 19.5268 28.103 16.125 24.6823C21.314 27.198 27.7423 26.3054 32.0507 22.0026L32.0517 22.0031Z" fill="white"/>
</g>
</g>
<defs>
<clipPath id="clip0_1374_54">
<rect width="40" height="40" fill="white"/>
</clipPath>
</defs>
</svg>
