<svg width="24" height="24" viewBox="0 0 24 24" fill="none" xmlns="http://www.w3.org/2000/svg">
<g clip-path="url(#clip0_1947_31037)">
<path d="M12 24C18.6421 24 24 18.6421 24 12C24 5.35793 18.5978 0 12 0C5.35793 0 0 5.35793 0 12C0 18.5978 5.35793 24 12 24Z" fill="black"/>
<mask id="path-2-outside-1_1947_31037" maskUnits="userSpaceOnUse" x="1" y="6.21533" width="22" height="11" fill="black">
<rect fill="white" x="1" y="6.21533" width="22" height="11"/>
<path d="M2.54535 9.70837C5 5.5 9.4428 7.64865 11.044 9.34489L7.34894 10.0719L8.82697 9.34493C5.57531 7.89102 4.02339 9.95073 3.65388 11.1623C3.43831 11.7985 3.44544 12.3573 3.57138 12.8283C3.92309 14.1434 5.3094 15.0631 6.67048 15.0335C7.26557 15.0206 7.84581 14.8781 8.2895 14.7026C8.66186 14.5554 8.97074 14.2922 9.2562 14.0114C9.46246 13.8085 9.65403 13.5912 9.82945 13.3611L10.6745 12.2528C12.3958 10.0757 14.19 7.41338 16.9589 7.22596C18.8431 7.09842 20.3249 8.14495 21.0207 8.98146C22.7943 11.5985 21.7597 13.949 21.0207 14.7971C17.769 18.2865 14.2464 16.251 12.8915 14.7971L16.5866 13.7067L15.1086 14.7971C16.8822 15.6695 18.5573 14.9183 19.1732 14.4336C21.2424 12.3982 20.0353 10.4354 19.1732 9.70841C16.5127 7.96371 15 10 13.5 11.5L11.4135 14.0702C9.67534 16.6349 5.66017 17.3308 3.37891 15.2343C1.59227 13.5925 1.80536 10.9216 2.54535 9.70837Z"/>
</mask>
<path d="M2.54535 9.70837C5 5.5 9.4428 7.64865 11.044 9.34489L7.34894 10.0719L8.82697 9.34493C5.57531 7.89102 4.02339 9.95073 3.65388 11.1623C3.43831 11.7985 3.44544 12.3573 3.57138 12.8283C3.92309 14.1434 5.3094 15.0631 6.67048 15.0335C7.26557 15.0206 7.84581 14.8781 8.2895 14.7026C8.66186 14.5554 8.97074 14.2922 9.2562 14.0114C9.46246 13.8085 9.65403 13.5912 9.82945 13.3611L10.6745 12.2528C12.3958 10.0757 14.19 7.41338 16.9589 7.22596C18.8431 7.09842 20.3249 8.14495 21.0207 8.98146C22.7943 11.5985 21.7597 13.949 21.0207 14.7971C17.769 18.2865 14.2464 16.251 12.8915 14.7971L16.5866 13.7067L15.1086 14.7971C16.8822 15.6695 18.5573 14.9183 19.1732 14.4336C21.2424 12.3982 20.0353 10.4354 19.1732 9.70841C16.5127 7.96371 15 10 13.5 11.5L11.4135 14.0702C9.67534 16.6349 5.66017 17.3308 3.37891 15.2343C1.59227 13.5925 1.80536 10.9216 2.54535 9.70837Z" fill="url(#paint0_linear_1947_31037)"/>
<path d="M11.044 9.34489L11.1019 9.63925L11.6353 9.5343L11.2622 9.13896L11.044 9.34489ZM2.54535 9.70837L2.80151 9.86462L2.80449 9.85952L2.54535 9.70837ZM3.37891 15.2343L3.17591 15.4552L3.37891 15.2343ZM11.4135 14.0702L11.1806 13.8811L11.1724 13.8911L11.1652 13.9019L11.4135 14.0702ZM13.5 11.5L13.2879 11.2879L13.2769 11.2989L13.2671 11.3109L13.5 11.5ZM19.1732 9.70841L19.3665 9.47906L19.3527 9.46744L19.3377 9.45755L19.1732 9.70841ZM19.1732 14.4336L19.3587 14.6694L19.3717 14.6591L19.3835 14.6475L19.1732 14.4336ZM15.1086 14.7971L14.9305 14.5557L14.5335 14.8486L14.9762 15.0663L15.1086 14.7971ZM16.5866 13.7067L16.7647 13.9481C16.8819 13.8617 16.9201 13.7035 16.8553 13.5732C16.7904 13.4428 16.6414 13.3777 16.5017 13.419L16.5866 13.7067ZM12.8915 14.7971L12.8066 14.5094L12.3413 14.6467L12.6721 15.0017L12.8915 14.7971ZM21.0207 14.7971L21.2403 15.0018L21.2469 14.9942L21.0207 14.7971ZM21.0207 8.98146L21.269 8.81315L21.2608 8.80095L21.2513 8.78962L21.0207 8.98146ZM16.9589 7.22596L16.9387 6.92664L16.9589 7.22596ZM10.6745 12.2528L10.4391 12.0667L10.4359 12.0709L10.6745 12.2528ZM9.82945 13.3611L10.068 13.543L9.82945 13.3611ZM8.2895 14.7026L8.17917 14.4236V14.4236L8.2895 14.7026ZM6.67048 15.0335L6.677 15.3334L6.67048 15.0335ZM3.57138 12.8283L3.8612 12.7507L3.57138 12.8283ZM3.65388 11.1623L3.93814 11.2587L3.94083 11.2498L3.65388 11.1623ZM8.82697 9.34493L8.95937 9.61414L9.533 9.332L8.94942 9.07107L8.82697 9.34493ZM7.34894 10.0719L7.21654 9.80269C7.0815 9.86911 7.01656 10.0253 7.06471 10.1679C7.11287 10.3105 7.2592 10.3953 7.40686 10.3663L7.34894 10.0719ZM9.2562 14.0114L9.46658 14.2253L9.2562 14.0114ZM11.2622 9.13896C10.4229 8.24991 8.85219 7.24923 7.15571 7.01522C6.30155 6.89739 5.40621 6.97292 4.55771 7.36535C3.70769 7.75849 2.92635 8.45974 2.28621 9.55722L2.80449 9.85952C3.39167 8.85282 4.08618 8.24451 4.80958 7.90992C5.53452 7.57463 6.31021 7.50427 7.07372 7.60959C8.61261 7.82187 10.0639 8.74364 10.8258 9.55082L11.2622 9.13896ZM2.28923 9.55215C1.88144 10.2207 1.63399 11.2565 1.7155 12.3333C1.79752 13.4168 2.21518 14.5724 3.17591 15.4552L3.5819 15.0134C2.75599 14.2545 2.38689 13.2536 2.31379 12.288C2.24018 11.3155 2.46927 10.4092 2.80146 9.86459L2.28923 9.55215ZM11.6464 14.2592L13.7329 11.6891L13.2671 11.3109L11.1806 13.8811L11.6464 14.2592ZM13.7121 11.7121C14.1015 11.3227 14.4587 10.9328 14.8517 10.5594C15.2381 10.1924 15.6282 9.87291 16.0425 9.65222C16.453 9.43351 16.884 9.31361 17.3581 9.34087C17.8336 9.36821 18.377 9.54504 19.0086 9.95928L19.3377 9.45755C18.6391 8.99943 17.9957 8.77654 17.3925 8.74186C16.7879 8.7071 16.248 8.86289 15.7604 9.12267C15.2764 9.38046 14.8408 9.74226 14.4385 10.1244C14.0429 10.5002 13.6485 10.9273 13.2879 11.2879L13.7121 11.7121ZM18.9798 9.93777C19.3717 10.2683 19.8417 10.8828 19.9772 11.6336C20.1088 12.3627 19.9337 13.2647 18.9628 14.2198L19.3835 14.6475C20.4818 13.5671 20.7378 12.47 20.5677 11.5271C20.4014 10.6059 19.8367 9.87552 19.3665 9.47906L18.9798 9.93777ZM18.9876 14.1979C18.428 14.6383 16.8767 15.3325 15.241 14.5279L14.9762 15.0663C16.8877 16.0065 18.6866 15.1983 19.3587 14.6694L18.9876 14.1979ZM15.2867 15.0385L16.7647 13.9481L16.4085 13.4653L14.9305 14.5557L15.2867 15.0385ZM16.5017 13.419L12.8066 14.5094L12.9765 15.0849L16.6715 13.9944L16.5017 13.419ZM12.6721 15.0017C13.3816 15.7631 14.6564 16.6779 16.1932 16.9464C17.7524 17.2188 19.5471 16.8185 21.2402 15.0017L20.8012 14.5926C19.2426 16.2652 17.6502 16.5918 16.2964 16.3553C14.9203 16.1149 13.7563 15.2851 13.111 14.5926L12.6721 15.0017ZM21.2469 14.9942C22.0527 14.0694 23.1368 11.5691 21.269 8.81315L20.7723 9.14976C22.4519 11.6279 21.4667 13.8286 20.7945 14.6L21.2469 14.9942ZM21.2513 8.78962C20.5133 7.9023 18.9455 6.79081 16.9387 6.92664L16.9792 7.52527C18.7407 7.40604 20.1365 8.38759 20.79 9.17329L21.2513 8.78962ZM10.4359 12.0709L9.59088 13.1792L10.068 13.543L10.9131 12.4347L10.4359 12.0709ZM8.17917 14.4236C7.76354 14.588 7.21845 14.7215 6.66396 14.7336L6.677 15.3334C7.31269 15.3196 7.92808 15.1682 8.39983 14.9816L8.17917 14.4236ZM3.8612 12.7507C3.75069 12.3375 3.7413 11.8391 3.93801 11.2586L3.36975 11.0661C3.13533 11.7578 3.1402 12.3771 3.28157 12.9058L3.8612 12.7507ZM3.94083 11.2498C4.10898 10.6985 4.54964 9.95201 5.30945 9.51397C6.05228 9.08571 7.14993 8.9237 8.70451 9.6188L8.94942 9.07107C7.25235 8.31225 5.94821 8.45314 5.00978 8.99416C4.08834 9.52539 3.56829 10.4146 3.36693 11.0748L3.94083 11.2498ZM8.69456 9.07573L7.21654 9.80269L7.48135 10.3411L8.95937 9.61414L8.69456 9.07573ZM7.40686 10.3663L11.1019 9.63925L10.9861 9.05053L7.29103 9.77754L7.40686 10.3663ZM6.66396 14.7336C5.42272 14.7606 4.17265 13.9154 3.8612 12.7507L3.28157 12.9058C3.67354 14.3715 5.19608 15.3656 6.677 15.3334L6.66396 14.7336ZM9.04582 13.7975C8.76692 14.0719 8.49334 14.2994 8.17917 14.4236L8.39983 14.9816C8.83038 14.8113 9.17456 14.5125 9.46658 14.2253L9.04582 13.7975ZM9.59088 13.1792C9.42408 13.398 9.24194 13.6046 9.04582 13.7975L9.46658 14.2253C9.68298 14.0124 9.88397 13.7844 10.068 13.543L9.59088 13.1792ZM16.9387 6.92664C15.4564 7.02698 14.2526 7.79025 13.217 8.77596C12.1871 9.75626 11.2884 10.9927 10.4392 12.0667L10.9098 12.4388C11.7819 11.3359 12.641 10.1526 13.6307 9.21057C14.6147 8.27398 15.6925 7.61236 16.9792 7.52527L16.9387 6.92664ZM3.17591 15.4552C4.39594 16.5764 6.06719 16.9403 7.64564 16.6967C9.22336 16.4531 10.7401 15.5985 11.6619 14.2385L11.1652 13.9019C10.3487 15.1066 8.98882 15.8822 7.5541 16.1037C6.12011 16.325 4.64314 15.9887 3.5819 15.0134L3.17591 15.4552Z" fill="url(#paint1_linear_1947_31037)" mask="url(#path-2-outside-1_1947_31037)"/>
</g>
<defs>
<linearGradient id="paint0_linear_1947_31037" x1="2" y1="11.8511" x2="22.9302" y2="11.8511" gradientUnits="userSpaceOnUse">
<stop stop-color="#BBFB02"/>
<stop offset="1" stop-color="#048EC8"/>
</linearGradient>
<linearGradient id="paint1_linear_1947_31037" x1="2" y1="11.8511" x2="22.9302" y2="11.8511" gradientUnits="userSpaceOnUse">
<stop stop-color="#BBFB02"/>
<stop offset="1" stop-color="#048EC8"/>
</linearGradient>
<clipPath id="clip0_1947_31037">
<rect width="24" height="24" fill="white"/>
</clipPath>
</defs>
</svg>
