<svg width="24" height="24" viewBox="0 0 24 24" fill="none" xmlns="http://www.w3.org/2000/svg">
<g clip-path="url(#clip0_464_39)">
<path d="M2.90999 4.14597C3.05999 3.95997 3.21599 3.77997 3.37199 3.59997C3.37799 3.59397 3.39599 3.58797 3.40199 3.58197C3.41399 3.56397 3.43799 3.55197 3.45599 3.53397L3.46799 3.51597C3.57599 3.41397 3.69599 3.30597 3.82799 3.20397C4.30799 2.84397 4.79999 2.56797 5.32199 2.38197C7.00199 1.79397 8.86799 2.15397 10.332 3.53997C12.378 5.45397 12.192 8.54397 10.56 10.596C8.49599 13.656 4.95599 17.922 9.85799 21.744C10.74 22.434 11.394 22.998 14.172 23.802C12.354 24.138 10.668 24.03 8.79599 23.556C7.46999 22.806 5.38199 21.204 4.67399 19.038C3.59999 15.756 6.56399 10.842 7.99199 8.95197C9.95399 6.33597 6.77999 3.50397 4.43399 6.66597C3.22199 8.31597 1.07999 12.978 1.82399 16.44C2.25599 18.402 2.83799 19.83 5.13599 21.798C4.70999 21.546 4.29599 21.264 3.89399 20.94C-1.44001 15.966 -0.822007 8.27397 2.90999 4.14597Z" fill="url(#paint0_linear_464_39)"/>
<path d="M21.09 19.854C20.94 20.04 20.784 20.22 20.628 20.4C20.622 20.406 20.604 20.412 20.598 20.418C20.586 20.436 20.562 20.448 20.544 20.466L20.532 20.484C20.424 20.586 20.304 20.694 20.172 20.79C19.692 21.15 19.2 21.426 18.678 21.612C16.998 22.2 15.132 21.84 13.668 20.454C11.622 18.54 11.808 15.45 13.44 13.398C15.504 10.338 19.044 6.07198 14.142 2.24998C13.26 1.55998 12.606 0.99598 9.828 0.19198C11.646 -0.14402 13.332 -0.0360198 15.204 0.43798C16.53 1.18798 18.618 2.78998 19.326 4.95598C20.4 8.23798 17.436 13.152 16.008 15.042C14.046 17.658 17.22 20.49 19.566 17.328C20.79 15.678 22.932 11.016 22.188 7.55398C21.756 5.59198 21.174 4.16398 18.876 2.19598C19.302 2.44798 19.716 2.72998 20.118 3.05398C25.44 8.03398 24.822 15.726 21.09 19.854Z" fill="url(#paint1_linear_464_39)"/>
</g>
<defs>
<linearGradient id="paint0_linear_464_39" x1="-7.35954e-06" y1="13.0582" x2="24" y2="13.0582" gradientUnits="userSpaceOnUse">
<stop stop-color="#0082FA"/>
<stop offset="1" stop-color="#00F2FE"/>
</linearGradient>
<linearGradient id="paint1_linear_464_39" x1="4.6222e-06" y1="10.9418" x2="24" y2="10.9418" gradientUnits="userSpaceOnUse">
<stop stop-color="#0082FA"/>
<stop offset="1" stop-color="#00F2FE"/>
</linearGradient>
<clipPath id="clip0_464_39">
<rect width="24" height="24" fill="white"/>
</clipPath>
</defs>
</svg>
