<svg width="24" height="24" viewBox="0 0 24 24" fill="none" xmlns="http://www.w3.org/2000/svg">
<path d="M12 24C18.6274 24 24 18.6274 24 12C24 5.37258 18.6274 0 12 0C5.37258 0 0 5.37258 0 12C0 18.6274 5.37258 24 12 24Z" fill="white"/>
<path d="M11.617 8.47543C11.617 7.91755 12.0426 7.46306 12.565 7.46306H14.2613V5H13.4132H12.565C10.7678 5 9.31056 6.55624 9.31056 8.47543C9.31056 8.97623 9.4104 9.45227 9.58891 9.88195C8.19313 10.512 7.26631 11.8507 7.05049 13.5448C6.79836 15.4048 7.49625 17.4111 9.01607 18.3804C10.3725 19.2927 12.4934 19.2323 13.6391 17.9669V18.8069H16V9.48777H12.566C12.0436 9.48777 11.617 9.03332 11.617 8.47543ZM13.6915 11.9519V14.2911C13.6915 15.5835 12.7103 16.6303 11.5011 16.6303C10.2918 16.6303 9.31056 15.5824 9.31056 14.2911C9.31056 12.9998 10.2918 11.9519 11.5011 11.9519H13.6915Z" fill="black"/>
</svg>
