<svg width="24" height="25" viewBox="0 0 24 25" fill="none" xmlns="http://www.w3.org/2000/svg">
<circle cx="12" cy="12" r="12" fill="#EE1122"/>
<path d="M12 23.9906C5.37262 23.9906 0 18.6201 0 11.9953C0 5.3705 5.37262 -4.23849e-06 12 -4.23849e-06C18.6274 -4.23849e-06 24 5.3705 24 11.9953C24 18.6201 18.6275 23.9906 12 23.9906ZM12 1.41366C6.15362 1.41366 1.41422 6.1512 1.41422 11.9953C1.41422 17.8394 6.15362 22.5769 12 22.5769C17.8464 22.5769 22.5858 17.8394 22.5858 11.9953C22.5858 6.1512 17.8464 1.41366 12 1.41366Z" fill="url(#paint0_linear_413_130)"/>
<path fill-rule="evenodd" clip-rule="evenodd" d="M-0.0090332 12.0047C-0.00903157 18.6371 5.36762 24.0138 12 24.0138C18.6325 24.0138 24.0091 18.6371 24.0091 12.0047C24.0091 5.37225 18.6325 -0.00439453 12 -0.00439453C5.36761 -0.00439453 -0.0090332 5.37225 -0.0090332 12.0047ZM11.9814 0.516228H12V0.522438C18.3311 0.522438 23.488 5.66433 23.4942 11.9923C23.5066 18.3266 18.356 23.4933 12.0186 23.4995H12C5.66888 23.4933 0.512038 18.3514 0.505825 12.0234C0.499612 8.95565 1.69252 6.06799 3.86088 3.89448C6.02924 1.72097 8.91211 0.516228 11.9814 0.516228Z" fill="url(#paint1_linear_413_130)"/>
<path opacity="0.2" d="M23.9998 12.0021C23.9986 18.6286 18.6265 24 11.9999 24C5.37328 24 0 18.6275 0 12C3.19646 14.687 6.6377 18.364 12.0012 18.364C17.3647 18.364 20.9801 14.687 23.9998 12.0021Z" fill="black"/>
<path opacity="0.25" d="M0 11.9979C0.00117851 5.37144 5.37328 0 11.9999 0C18.6265 0 23.9998 5.37262 23.9998 12C20.8033 9.31298 17.3621 5.63602 11.9986 5.63602C6.63511 5.63602 3.01969 9.31298 0 11.9979Z" fill="white"/>
<path d="M15.7996 9.34064C16.2187 8.92283 16.4743 8.66796 16.4785 8.66378C17.2118 7.93262 18.492 8.61574 18.2154 9.66026C18.9027 8.78913 18.7749 7.91799 18.0918 7.23696C17.281 6.4285 16.1328 6.76275 15.3533 7.54197C15.2779 7.61717 15.0369 7.85741 14.6766 8.21882L15.8017 9.34064L15.7996 9.34064Z" fill="white"/>
<path d="M11.9276 10.8113C10.5007 9.3866 9.15977 8.0496 8.6611 7.55032C7.17557 6.06918 4.68013 6.85049 4.23594 8.833C4.50204 8.38385 5.02166 7.9744 5.57271 7.8595C6.33747 7.70073 6.98281 8.12063 7.52757 8.66796C8.86853 10.005 9.9413 11.0745 10.8024 11.9331L11.9255 10.8113L11.9276 10.8113Z" fill="white"/>
<path d="M19.7408 15.144C19.4747 15.5932 18.9571 16.0026 18.4019 16.1196C17.5512 16.2972 16.908 15.7833 16.2731 15.1482C15.8729 14.7492 14.6032 13.4811 13.2015 12.0815C12.8285 12.4533 12.4514 12.8294 12.0785 13.2012C16.271 17.3835 12.3571 13.479 15.3156 16.4267C16.7969 17.9037 19.2945 17.1349 19.7408 15.144Z" fill="white"/>
<path d="M14.5271 10.611L13.4024 9.49L9.48289 13.3993L10.6076 14.5203L14.5271 10.611Z" fill="white"/>
<path d="M8.21062 14.6698C7.98643 14.8954 7.76015 15.119 7.54014 15.3404C6.79214 16.0862 5.53499 15.3675 5.80319 14.346C5.1369 15.1879 5.21861 16.036 5.87652 16.7275C6.72509 17.6195 7.93824 17.1871 8.66529 16.4601C8.74701 16.3786 8.98796 16.1384 9.33577 15.7916C8.90834 15.3655 8.53539 14.9936 8.21272 14.6698L8.21062 14.6698Z" fill="white"/>
<path d="M17.2705 13.1991C17.5554 13.4832 17.7775 13.7047 17.9095 13.8363C18.6575 14.5821 17.9368 15.8355 16.9122 15.5681C17.7566 16.2324 18.6072 16.1509 19.3008 15.495C20.1954 14.6489 19.7617 13.4394 19.0326 12.7145C18.8775 12.5599 18.6575 12.3426 18.3935 12.0773L17.2684 13.1991L17.2705 13.1991Z" fill="white"/>
<path d="M18.7581 8.18121C18.9173 8.94372 18.4962 9.58715 17.9472 10.1303C17.8928 10.1846 16.3611 11.7117 14.6682 13.3997C15.1124 13.8425 15.5 14.2311 15.7933 14.5215C15.8038 14.511 17.9221 12.399 19.0682 11.2584C20.5537 9.77516 19.7701 7.28919 17.7817 6.84631C18.2322 7.11162 18.6429 7.6297 18.7581 8.17912L18.7581 8.18121Z" fill="white"/>
<path d="M11.3388 18.9649C11.6845 18.6286 12.7741 17.536 14.5257 15.7874C14.2009 15.4657 14.0312 15.2965 14.0207 15.2861C13.9286 15.1962 13.807 15.073 13.3985 14.6656C11.6866 16.3724 10.1445 17.9099 10.1362 17.9162C8.45367 19.5979 9.72339 22.4515 11.9988 22.3993C12.4619 22.3888 12.8306 22.2907 13.124 22.1465C13.1994 22.111 12.9752 22.2029 12.6379 22.1946C10.9638 22.1632 10.1299 20.1389 11.3388 18.9649Z" fill="white"/>
<path d="M12.0764 18.382C12.2901 18.5951 12.508 18.8124 12.7364 19.0422C13.0213 19.3305 13.1533 19.8068 12.9689 20.1912C12.6463 20.8701 11.7725 21.0184 11.2655 20.5108C11.0811 20.3249 10.9805 20.0867 10.9659 19.8507C10.6579 20.9641 11.5085 22.0379 12.64 22.0609C13.1009 22.0734 13.5661 21.9 13.9118 21.5825C14.84 20.6111 14.9301 19.0046 13.8657 17.9183C13.6373 17.6906 13.4173 17.4712 13.2036 17.2581C12.7531 17.7094 12.3739 18.0854 12.0785 18.382L12.0764 18.382Z" fill="white"/>
<path d="M12.707 2.39663C13.4152 3.13198 13.4026 4.31438 12.6588 5.0351C12.552 5.13747 11.0958 6.59145 9.47196 8.21046C9.78206 8.51964 10.1676 8.90611 10.5992 9.33437C11.1607 8.7745 12.1392 7.80101 13.8615 6.08172C15.544 4.40212 14.2743 1.54848 11.9967 1.60071C11.5567 1.61115 11.2194 1.68845 10.8527 1.86393C11.5609 1.69053 12.2607 1.92869 12.7049 2.39663L12.707 2.39663Z" fill="white"/>
<path d="M5.24166 15.8209C5.03423 14.8286 5.77804 14.1204 6.547 13.3704C8.09748 11.8287 8.90206 11.0265 9.3253 10.6045L8.20015 9.48269C6.591 11.0871 5.12223 12.5557 4.93366 12.7437C3.45232 14.2207 4.22337 16.7108 6.22014 17.1558C5.76966 16.8905 5.35899 16.3745 5.24166 15.8209Z" fill="white"/>
<path d="M11.9213 5.62213C11.5148 5.21685 11.2634 4.96617 11.2613 4.96408C10.9764 4.67579 10.8444 4.19948 11.0287 3.8151C11.3514 3.13616 12.2251 2.98783 12.7322 3.49547C12.9166 3.6814 13.0171 3.91955 13.0318 4.15561C13.3398 3.04215 12.4891 1.96838 11.3577 1.9454C10.8967 1.93286 10.4316 2.10626 10.0859 2.42379C9.15768 3.3952 9.06758 5.00168 10.132 6.08799C10.2032 6.1611 10.4421 6.39925 10.792 6.74813C11.2571 6.28436 11.6343 5.90833 11.9213 5.62422L11.9213 5.62213Z" fill="white"/>
<path d="M13.1973 6.89436L12.068 8.01827L15.9966 11.929L17.1217 10.8072L13.1973 6.89436Z" fill="white"/>
<path d="M6.72928 10.8009C6.5449 10.6191 6.44014 10.5126 6.05881 10.1345C5.32547 9.40331 6.01061 8.1269 7.05824 8.40265C6.18452 7.71744 5.3108 7.84488 4.62775 8.52591C3.81689 9.33437 4.15213 10.4792 4.93366 11.2563C5.2689 11.5885 5.46375 11.7848 5.60414 11.9227C5.99385 11.5321 6.3689 11.1581 6.72928 10.8009Z" fill="white"/>
<path d="M11.9288 15.9831L8.00281 12.0714L6.87722 13.1945L10.8033 17.1062L11.9288 15.9831Z" fill="white"/>
<defs>
<linearGradient id="paint0_linear_413_130" x1="-4.25756" y1="11.9953" x2="34.6035" y2="11.9953" gradientUnits="userSpaceOnUse">
<stop offset="0.12011" stop-color="#FAF49C"/>
<stop offset="0.141057" stop-color="#E28204"/>
<stop offset="0.17" stop-color="#4F1B05"/>
<stop offset="0.21" stop-color="#CA7200"/>
<stop offset="0.26" stop-color="#4F1D01"/>
<stop offset="0.32" stop-color="#CD9621"/>
<stop offset="0.35" stop-color="#FAF49D"/>
<stop offset="0.4" stop-color="#EFD254"/>
<stop offset="0.46" stop-color="#BA4F02"/>
<stop offset="0.5" stop-color="#F59B05"/>
<stop offset="0.56" stop-color="#5E2505"/>
<stop offset="0.61654" stop-color="#BB6700"/>
<stop offset="0.629956" stop-color="#5F2902"/>
<stop offset="0.642733" stop-color="#441602"/>
<stop offset="0.673398" stop-color="#8A5103"/>
<stop offset="0.690693" stop-color="#E28204"/>
<stop offset="0.718117" stop-color="#FAF49C"/>
</linearGradient>
<linearGradient id="paint1_linear_413_130" x1="12.0001" y1="-17.7478" x2="12.0001" y2="30.961" gradientUnits="userSpaceOnUse">
<stop offset="0.01" stop-color="#FAF49E"/>
<stop offset="0.07" stop-color="#441100"/>
<stop offset="0.09" stop-color="#FAF49C"/>
<stop offset="0.12" stop-color="#E28204"/>
<stop offset="0.17" stop-color="#4F1B05"/>
<stop offset="0.21" stop-color="#CA7200"/>
<stop offset="0.26" stop-color="#4F1D01"/>
<stop offset="0.32" stop-color="#CD9621"/>
<stop offset="0.35" stop-color="#FAF49D"/>
<stop offset="0.4" stop-color="#EFD254"/>
<stop offset="0.46" stop-color="#BA4F02"/>
<stop offset="0.5" stop-color="#F59B05"/>
<stop offset="0.56" stop-color="#5E2505"/>
<stop offset="0.62" stop-color="#BB6700"/>
<stop offset="0.63" stop-color="#773901"/>
<stop offset="0.64" stop-color="#5F2902"/>
<stop offset="0.65" stop-color="#4E1D02"/>
<stop offset="0.66" stop-color="#441602"/>
<stop offset="0.67" stop-color="#411402"/>
<stop offset="0.68" stop-color="#4A1B02"/>
<stop offset="0.69" stop-color="#623003"/>
<stop offset="0.71" stop-color="#8A5103"/>
<stop offset="0.73" stop-color="#BB7A04"/>
<stop offset="0.76" stop-color="#F5E78A"/>
<stop offset="0.77" stop-color="#F2DE72"/>
<stop offset="0.79" stop-color="#F0D761"/>
<stop offset="0.8" stop-color="#EFD357"/>
<stop offset="0.82" stop-color="#EFD254"/>
<stop offset="0.83" stop-color="#E5B844"/>
<stop offset="0.84" stop-color="#D7932C"/>
<stop offset="0.85" stop-color="#CC7619"/>
<stop offset="0.86" stop-color="#C4620C"/>
<stop offset="0.87" stop-color="#C05504"/>
<stop offset="0.88" stop-color="#BE5201"/>
<stop offset="0.89" stop-color="#DD7C04"/>
<stop offset="0.9" stop-color="#EC9105"/>
<stop offset="0.92" stop-color="#EE9305"/>
<stop offset="1" stop-color="#4E1A05"/>
</linearGradient>
</defs>
</svg>
