<svg width="24" height="24" viewBox="0 0 24 24" fill="none" xmlns="http://www.w3.org/2000/svg">
<g clip-path="url(#clip0_347_41)">
<path d="M24 12.0001C24 18.6275 18.6274 24.0002 12 24.0002C5.37262 24.0002 0 18.6276 0 12.0001C0 5.37254 5.37262 0 12 0C18.6274 0 24 5.37266 24 12.0001Z" fill="#00004E"/>
<path d="M7.75734 12.0001V7.7574H12V12.0001H7.75734ZM12 20.4855V24.0002C13.4937 24.0002 14.9235 23.7271 16.2427 23.2285V20.4855H12ZM3.51469 20.4855C4.70735 21.6781 6.15008 22.6208 7.75734 23.2285V20.4855H3.51469ZM3.51469 7.7574H0.771692C0.273062 9.07653 0 10.5064 0 12.0001H3.51469V7.7574ZM0.771692 16.2428C1.37933 17.8501 2.32203 19.2927 3.51469 20.4855V16.2428H0.771692ZM20.4853 7.7574H23.2283C22.6207 6.15013 21.678 4.7075 20.4853 3.51472V7.7574ZM20.4853 16.2428H23.2283C23.7269 14.9237 24 13.4938 24 12.0001H20.4853V16.2428ZM16.2427 7.7574V3.51472H12V7.7574H16.2427ZM16.2427 16.2428V20.4855H20.4853V16.2428H16.2427ZM7.75734 16.2428V20.4855H12V16.2428H7.75734ZM12 12.0001V16.2428H16.2427V12.0001H12ZM3.51469 12.0001V16.2428H7.75734V12.0001H3.51469ZM7.75734 7.7574V3.51472H3.51469V7.7574H7.75734ZM12 3.51472V0C10.5063 0 9.07646 0.273064 7.75734 0.771698V3.51472H12ZM16.2427 12.0001H20.4853V7.7574H16.2427V12.0001ZM20.4853 3.51472C19.2927 2.32205 17.8499 1.37935 16.2427 0.771698V3.51472H20.4853Z" fill="#00006D"/>
<path opacity="0.33" d="M24 12.0022C23.9988 18.6287 18.6267 24.0002 12 24.0002C5.37332 24.0002 0 18.6277 0 12.0001C3.19649 14.6872 6.63775 18.3642 12.0013 18.3642C17.3648 18.3642 20.9803 14.6872 24 12.0022Z" fill="black"/>
<path d="M11.9973 19.2453L6.10474 13.3566L11.9973 5.27979L17.8899 13.3566L11.9973 19.2453Z" fill="#00004E"/>
<path opacity="0.67" d="M12 0C5.37262 0 0 5.37266 0 12.0001C0 18.6275 5.37262 24.0002 12 24.0002C18.6274 24.0002 24 18.6275 24 12.0001C24 5.37266 18.6275 0 12 0ZM12 22.586C6.15362 22.586 1.41422 17.8465 1.41422 12.0001C1.41422 6.15367 6.15362 1.41423 12 1.41423C17.8464 1.41423 22.5858 6.15367 22.5858 12.0001C22.5858 17.8465 17.8464 22.586 12 22.586Z" fill="#00004E"/>
<path opacity="0.1" d="M0 11.998C0.00117852 5.37148 5.37332 0 12 0C18.6267 0 24 5.37266 24 12.0001C20.8035 9.31306 17.3622 5.63606 11.9987 5.63606C6.63516 5.63606 3.01971 9.31306 0 11.998Z" fill="white"/>
<path d="M22.6067 12.0001L12 22.6068L1.39337 12.0001H5.1057L12 18.8945L18.8943 12.0001H22.6067Z" fill="white"/>
<path d="M21.2399 17.1695C21.1211 17.3815 20.9951 17.5889 20.8624 17.7916L12 5.63608L3.13767 17.7916C3.00497 17.5889 2.87899 17.3815 2.76019 17.1695L11.9877 1.41437C11.9919 1.41437 11.9959 1.41437 12 1.41437C12.0041 1.41437 12.0081 1.41437 12.0122 1.41437L21.2399 17.1696V17.1695Z" fill="white"/>
<path d="M12 5.63606C10.8284 5.63606 9.87866 4.68629 9.87866 3.51472C9.87866 2.34314 10.8284 1.39337 12 1.39337C13.1716 1.39337 14.1213 2.34314 14.1213 3.51472C14.1213 4.68629 13.1716 5.63606 12 5.63606Z" fill="white"/>
<path d="M12.0059 3.80937L12.8516 5.07039C12.5932 5.20003 12.3113 5.28252 12.0059 5.28252C11.7006 5.28252 11.4069 5.21181 11.1602 5.07039L12.0059 3.80937ZM12.0059 1.74695C11.0193 1.74695 10.2322 2.53656 10.2322 3.51474C10.2322 4.09221 10.4907 4.58719 10.9135 4.91718L11.8532 3.51474H10.9252V3.2201H11.8648V2.92547H10.9252V2.63084H13.0865V2.92547H12.1469V3.2201H13.0865V3.51474H12.1469L13.0865 4.91718C13.5093 4.58719 13.7678 4.09221 13.7678 3.51474C13.7678 2.53656 12.9691 1.74695 12.0059 1.74695Z" fill="url(#paint0_linear_347_41)"/>
<path d="M14.195 9.86849V10.6169H14.4749V11.1544H14.195V11.8974H13.0328V12.1504H14.2637V12.6563H13.0328V12.9145H14.3535V13.4467H13.0328V13.7524H14.4221L14.3905 14.3216H12.98C12.3672 14.3216 11.8707 14.2794 11.4904 14.1951C11.11 14.1108 10.7878 13.9632 10.5236 13.7524C10.3229 14.016 10.0922 14.2338 9.83162 14.4059L9.52521 13.8684C9.76468 13.6857 9.95489 13.5013 10.0957 13.3151C9.94075 13.1184 9.78047 12.8566 9.61501 12.5298L10.0587 12.1241C10.182 12.377 10.2998 12.5896 10.4126 12.7618C10.5042 12.5298 10.5693 12.2558 10.6081 11.9396H9.72072V11.381C10.0271 11.0437 10.2859 10.7117 10.4972 10.385H9.66793V9.80532H11.1154V10.385C11.1083 10.3991 11.0642 10.4764 10.9833 10.617H12.3197V10.3692H11.3055V9.86861H12.3197V9.5946H13.0328V9.86861H14.195V9.86849ZM12.3196 11.4125V11.1543H10.9355V10.6905C10.7735 10.954 10.6133 11.1842 10.4548 11.3809H11.1996V11.9395C11.1433 12.4173 11.0183 12.8565 10.8245 13.257C10.8985 13.3203 10.9654 13.3694 11.0252 13.4045V12.9144H12.3195V12.6562H11.2524V12.1502H12.3195V11.8973H11.358V11.4125H12.3195H12.3196ZM12.3196 13.7365V13.4467H11.0887C11.3775 13.6084 11.7877 13.7049 12.3196 13.7365ZM13.0327 10.3691V10.6169H13.5715V10.3691H13.0327ZM13.0327 11.4125H13.5715V11.1543H13.0327V11.4125Z" fill="white"/>
</g>
<defs>
<linearGradient id="paint0_linear_347_41" x1="12" y1="5.28252" x2="12" y2="1.74695" gradientUnits="userSpaceOnUse">
<stop stop-color="#AE8625"/>
<stop offset="1" stop-color="#EDC967"/>
</linearGradient>
<clipPath id="clip0_347_41">
<rect width="24" height="24.0002" fill="white"/>
</clipPath>
</defs>
</svg>
