<svg width="24" height="24" viewBox="0 0 24 24" fill="none" xmlns="http://www.w3.org/2000/svg">
<g clip-path="url(#clip0_344_22)">
<path d="M24 12.0001C24 18.6275 18.6274 24.0002 12 24.0002C5.37262 24.0002 0 18.6276 0 12.0001C0 5.37254 5.37262 0 12 0C18.6274 0 24 5.37266 24 12.0001Z" fill="white"/>
<path d="M0 12.0001C0 14.1819 0.582422 16.2277 1.59995 17.9906V6.0095C0.582422 7.77246 0 9.81826 0 12.0001Z" fill="#BF0A30"/>
<path d="M3.20002 3.84161V20.1584C3.68875 20.6854 4.22439 21.1684 4.79998 21.6008V2.39933C4.22427 2.83173 3.68875 3.31469 3.20002 3.84172V3.84161Z" fill="#BF0A30"/>
<path d="M6.40005 1.38415V22.6161C6.91247 22.887 7.44692 23.1218 8 23.3173V0.682924C7.44692 0.878441 6.91247 1.11332 6.40005 1.38415Z" fill="#BF0A30"/>
<path d="M9.60007 0.240152V23.7601C10.1219 23.866 10.656 23.9381 11.2 23.9739V0.0263672C10.656 0.0621944 10.1218 0.134202 9.60007 0.240152Z" fill="#BF0A30"/>
<path d="M12.8 0.0263672V23.9738C13.344 23.9379 13.8782 23.8659 14.3999 23.76V0.240152C13.8781 0.134202 13.344 0.0621944 12.8 0.0263672Z" fill="#BF0A30"/>
<path d="M16 0.682924V23.3173C16.5531 23.1218 17.0875 22.8869 17.6 22.6161V1.38415C17.0875 1.1132 16.5531 0.878441 16 0.682924Z" fill="#BF0A30"/>
<path d="M19.2 21.6009C19.7757 21.1685 20.3112 20.6856 20.8 20.1585V3.84161C20.3112 3.31457 19.7756 2.83161 19.2 2.39921V21.6009Z" fill="#BF0A30"/>
<path d="M22.4 17.9906C23.4177 16.2277 24 14.182 24 12.0001C24 9.81814 23.4176 7.77246 22.4 6.0095V17.9906Z" fill="#BF0A30"/>
<path opacity="0.33" d="M24 12.0001C24 18.6275 18.6274 24.0002 12 24.0002C5.37262 24.0002 0 18.6276 0 12.0001C0 5.37254 5.37262 0 12 0C18.6274 0 24 5.37266 24 12.0001Z" fill="black"/>
<path opacity="0.17" d="M12.0013 18.3642C6.63775 18.3642 3.19649 14.6872 0 12C0 18.6277 5.37262 24.0002 12 24.0002C18.6274 24.0002 23.9988 18.6287 24 12.0022C20.9803 14.6872 17.3622 18.3642 12.0013 18.3642Z" fill="black"/>
<path d="M11.9973 19.2453L6.10468 13.3566L11.9973 5.27979L17.8898 13.3566L11.9973 19.2453Z" fill="#002868"/>
<path opacity="0.17" d="M12 0C5.37262 0 0 5.37266 0 12.0001C0 18.6275 5.37262 24.0002 12 24.0002C18.6274 24.0002 24 18.6275 24 12.0001C24 5.37266 18.6275 0 12 0ZM12 22.586C6.15362 22.586 1.41422 17.8465 1.41422 12.0001C1.41422 6.15367 6.15362 1.41423 12 1.41423C17.8464 1.41423 22.5858 6.15367 22.5858 12.0001C22.5858 17.8465 17.8464 22.586 12 22.586Z" fill="#BF0A30"/>
<path opacity="0.1" d="M11.9987 5.63606C17.3622 5.63606 20.8035 9.31306 24 12.0002C24 5.37266 18.6275 0 12 0C5.3725 0 0.00117852 5.37148 0 11.998C3.01971 9.31306 6.63775 5.63606 11.9987 5.63606Z" fill="white"/>
<path d="M22.3945 12.0001L12 22.6068L1.60547 12.0001H5.24355L12 18.8945L18.7564 12.0001H22.3945Z" fill="white"/>
<path d="M21.2399 17.1695C21.1211 17.3815 20.9951 17.5889 20.8624 17.7916L12 5.63608L3.13767 17.7916C3.00497 17.5889 2.87899 17.3815 2.76019 17.1695L11.9877 1.41437C11.9919 1.41437 11.9959 1.41437 12 1.41437C12.0041 1.41437 12.0081 1.41437 12.0122 1.41437L21.2399 17.1696V17.1695Z" fill="white"/>
<path d="M12 5.63606C10.8284 5.63606 9.87866 4.68629 9.87866 3.51472C9.87866 2.34314 10.8284 1.39337 12 1.39337C13.1716 1.39337 14.1213 2.34314 14.1213 3.51472C14.1213 4.68629 13.1716 5.63606 12 5.63606Z" fill="white"/>
<path d="M12.0059 3.80937L12.8516 5.07039C12.5932 5.20003 12.3113 5.28252 12.0059 5.28252C11.7006 5.28252 11.4069 5.21181 11.1602 5.07039L12.0059 3.80937ZM12.0059 1.74695C11.0193 1.74695 10.2322 2.53656 10.2322 3.51474C10.2322 4.09221 10.4907 4.58719 10.9135 4.91718L11.8532 3.51474H10.9252V3.2201H11.8648V2.92547H10.9252V2.63084H13.0865V2.92547H12.1469V3.2201H13.0865V3.51474H12.1469L13.0865 4.91718C13.5093 4.58719 13.7678 4.09221 13.7678 3.51474C13.7678 2.53656 12.9691 1.74695 12.0059 1.74695Z" fill="url(#paint0_linear_344_22)"/>
<path d="M14.9463 14.0324H9.05371L12 8.37549L14.9463 14.0324Z" fill="white"/>
<path fill-rule="evenodd" clip-rule="evenodd" d="M12 12.795C12.7047 12.795 13.3956 12.4201 13.591 11.9312C13.3956 11.4425 12.8793 11.0206 12 11.0273C11.1207 11.0273 10.5904 11.4826 10.409 11.9312C10.5904 12.3732 11.2952 12.795 12 12.795ZM12.6128 11.9111C12.6128 12.2495 12.3384 12.5239 12 12.5239C11.6615 12.5239 11.3872 12.2495 11.3872 11.9111C11.3872 11.5726 11.6615 11.2982 12 11.2982C12.3384 11.2982 12.6128 11.5726 12.6128 11.9111Z" fill="url(#paint1_linear_344_22)"/>
<path fill-rule="evenodd" clip-rule="evenodd" d="M12.0059 7.22559C12.0612 7.22559 12.1061 7.27046 12.1061 7.32582V7.84437C12.1061 7.89973 12.0612 7.9446 12.0059 7.9446C11.9505 7.9446 11.9057 7.89973 11.9057 7.84437V7.32582C11.9057 7.27046 11.9505 7.22559 12.0059 7.22559ZM12.4548 7.8137C12.5097 7.82041 12.5489 7.8704 12.5421 7.92535L12.5068 8.2148C12.5001 8.26974 12.4501 8.30885 12.3951 8.30214C12.3402 8.29542 12.3011 8.24544 12.3078 8.19049L12.3432 7.90104C12.3499 7.84609 12.3999 7.80699 12.4548 7.8137ZM11.5457 7.81783C11.6006 7.81111 11.6506 7.85021 11.6573 7.90516L11.6927 8.19449C11.6994 8.24944 11.6603 8.29943 11.6053 8.30614C11.5504 8.31286 11.5004 8.27376 11.4937 8.21881L11.4583 7.92948C11.4516 7.87453 11.4907 7.82454 11.5457 7.81783ZM11.1767 8.25907C11.2275 8.23718 11.2865 8.26066 11.3084 8.31151L11.438 8.61274C11.4599 8.66359 11.4364 8.72255 11.3855 8.74444C11.3347 8.76632 11.2757 8.74284 11.2539 8.69199L11.1242 8.39076C11.1023 8.33991 11.1258 8.28095 11.1767 8.25907ZM12.9655 8.40352C13.0127 8.43231 13.0277 8.49397 12.999 8.54126L12.834 8.81232C12.8052 8.85961 12.7435 8.87461 12.6962 8.84582C12.649 8.81704 12.634 8.75537 12.6627 8.70809L12.8277 8.43703C12.8565 8.38974 12.9182 8.37474 12.9655 8.40352ZM10.8105 8.77139C10.8536 8.73664 10.9167 8.7434 10.9515 8.7865L11.1754 9.06416C11.2101 9.10725 11.2034 9.17035 11.1603 9.2051C11.1172 9.23985 11.0541 9.23309 11.0193 9.19L10.7954 8.91234C10.7607 8.86925 10.7674 8.80614 10.8105 8.77139ZM13.3861 9.00964C13.4246 9.04942 13.4235 9.11288 13.3837 9.15137L13.1132 9.41324C13.0734 9.45174 13.0099 9.4507 12.9714 9.41092C12.9329 9.37114 12.934 9.30769 12.9737 9.26919L13.2443 9.00732C13.2841 8.96882 13.3476 8.96986 13.3861 9.00964ZM10.4599 9.22513C10.4979 9.18489 10.5613 9.18308 10.6016 9.22109L10.908 9.51054C10.9482 9.54855 10.95 9.61199 10.912 9.65223C10.874 9.69247 10.8106 9.69428 10.7703 9.65627L10.4639 9.36682C10.4237 9.32881 10.4219 9.26537 10.4599 9.22513ZM13.7925 9.5808C13.8278 9.62351 13.8217 9.68669 13.779 9.7219L13.4136 10.0231C13.3709 10.0584 13.3077 10.0523 13.2725 10.0096C13.2373 9.96685 13.2434 9.90368 13.2861 9.86846L13.6514 9.56723C13.6942 9.53202 13.7573 9.53809 13.7925 9.5808ZM10.1396 9.6752C10.1764 9.63383 10.2398 9.6301 10.2811 9.66689L10.6465 9.99169C10.6879 10.0285 10.6916 10.0918 10.6548 10.1332C10.618 10.1746 10.5547 10.1783 10.5133 10.1415L10.1479 9.81671C10.1066 9.77993 10.1029 9.71657 10.1396 9.6752ZM14.1742 10.0994C14.2061 10.1447 14.1953 10.2072 14.1501 10.2391L13.6928 10.5617C13.6476 10.5936 13.5851 10.5828 13.5532 10.5376C13.5213 10.4923 13.5321 10.4298 13.5773 10.3979L14.0346 10.0753C14.0798 10.0434 14.1423 10.0542 14.1742 10.0994ZM9.75607 10.19C9.78841 10.1451 9.85105 10.1349 9.89598 10.1672L10.3768 10.5133C10.4217 10.5457 10.4319 10.6083 10.3996 10.6533C10.3673 10.6982 10.3046 10.7084 10.2597 10.676L9.77886 10.3299C9.73393 10.2976 9.72373 10.2349 9.75607 10.19ZM14.5952 10.6874C14.6191 10.7373 14.5981 10.7972 14.5482 10.8212L13.9589 11.104C13.909 11.128 13.8491 11.1069 13.8252 11.057C13.8012 11.0071 13.8223 10.9473 13.8722 10.9233L14.4614 10.6405C14.5113 10.6165 14.5712 10.6375 14.5952 10.6874ZM9.35886 10.7459C9.38362 10.6963 9.44382 10.6763 9.49334 10.701L10.1062 11.0074C10.1557 11.0322 10.1757 11.0924 10.151 11.1419C10.1262 11.1914 10.066 11.2115 10.0165 11.1868L9.40368 10.8803C9.35417 10.8556 9.3341 10.7954 9.35886 10.7459ZM15.0234 11.2669C15.0417 11.3192 15.0142 11.3764 14.962 11.3946L14.2548 11.6421C14.2026 11.6604 14.1454 11.6329 14.1271 11.5806C14.1088 11.5284 14.1364 11.4712 14.1886 11.4529L14.8957 11.2054C14.948 11.1871 15.0052 11.2147 15.0234 11.2669ZM8.95408 11.314C8.97333 11.2621 9.03101 11.2356 9.08291 11.2549L9.81359 11.5259C9.86549 11.5452 9.89196 11.6029 9.87271 11.6548C9.85345 11.7067 9.79577 11.7331 9.74387 11.7139L9.01319 11.4428C8.96129 11.4236 8.93482 11.3659 8.95408 11.314ZM8.54594 11.9068C8.55694 11.8525 8.60983 11.8174 8.66409 11.8284L9.53619 12.0052C9.59044 12.0162 9.62551 12.0691 9.61451 12.1234C9.60351 12.1776 9.55062 12.2127 9.49636 12.2017L8.62426 12.0249C8.57001 12.0139 8.53494 11.961 8.54594 11.9068ZM15.4545 11.9084C15.4655 11.9627 15.4305 12.0156 15.3762 12.0265L14.5041 12.2033C14.4498 12.2143 14.397 12.1793 14.386 12.125C14.375 12.0708 14.41 12.0179 14.4643 12.0069L15.3364 11.8301C15.3906 11.8191 15.4435 11.8541 15.4545 11.9084ZM8.07599 12.5366C8.08156 12.4815 8.13072 12.4414 8.1858 12.447L9.23468 12.553C9.28975 12.5586 9.32989 12.6078 9.32432 12.6628C9.31875 12.7179 9.26958 12.758 9.21451 12.7525L8.16563 12.6464C8.11055 12.6408 8.07042 12.5917 8.07599 12.5366ZM15.9245 12.5464C15.93 12.6015 15.8899 12.6506 15.8348 12.6562L14.786 12.7623C14.7309 12.7678 14.6817 12.7277 14.6761 12.6726C14.6706 12.6175 14.7107 12.5684 14.7658 12.5628L15.8147 12.4567C15.8697 12.4512 15.9189 12.4913 15.9245 12.5464ZM16.3791 13.2013C16.3798 13.2566 16.3356 13.3021 16.2802 13.3029L15.0365 13.3202C14.9812 13.321 14.9357 13.2767 14.9349 13.2214C14.9342 13.166 14.9784 13.1205 15.0337 13.1198L16.2774 13.1024C16.3328 13.1017 16.3783 13.1459 16.3791 13.2013ZM7.62141 13.2053C7.62218 13.1499 7.66768 13.1057 7.72303 13.1064L8.96672 13.1238C9.02207 13.1245 9.06631 13.17 9.06554 13.2254C9.06477 13.2807 9.01927 13.325 8.96392 13.3242L7.72024 13.3069C7.66488 13.3061 7.62064 13.2606 7.62141 13.2053ZM15.3003 13.8775C15.3016 13.8222 15.3476 13.7784 15.4029 13.7797L15.6622 13.786C15.7175 13.7873 15.7613 13.8333 15.76 13.8886C15.7586 13.944 15.7127 13.9877 15.6573 13.9864L15.3981 13.9802C15.3427 13.9788 15.2989 13.9329 15.3003 13.8775ZM8.70018 13.8815C8.70152 13.9369 8.65773 13.9828 8.60239 13.9842L8.34312 13.9904C8.28778 13.9917 8.24184 13.948 8.2405 13.8926C8.23917 13.8373 8.28295 13.7913 8.33829 13.79L8.59757 13.7838C8.65291 13.7824 8.69885 13.8262 8.70018 13.8815ZM13.422 14.4248C13.476 14.4126 13.5297 14.4465 13.5419 14.5005L13.8248 15.7497C13.837 15.8037 13.8031 15.8574 13.7491 15.8696C13.6951 15.8818 13.6415 15.848 13.6292 15.794L13.3464 14.5447C13.3342 14.4907 13.368 14.4371 13.422 14.4248ZM12.7373 14.4227C12.7925 14.418 12.841 14.4589 12.8457 14.514L13.0225 16.5765C13.0273 16.6316 12.9864 16.6802 12.9312 16.6849C12.8761 16.6896 12.8275 16.6487 12.8228 16.5936L12.646 14.5312C12.6413 14.476 12.6822 14.4275 12.7373 14.4227ZM14.8218 14.4424C14.8661 14.4092 14.9289 14.4182 14.9621 14.4625L14.9975 14.5096C15.0307 14.5539 15.0217 14.6167 14.9774 14.6499C14.9331 14.6831 14.8703 14.6742 14.8371 14.6299L14.8018 14.5827C14.7685 14.5385 14.7775 14.4756 14.8218 14.4424ZM10.5784 14.4288C10.6324 14.4411 10.6663 14.4948 10.6541 14.5487L10.3712 15.798C10.359 15.852 10.3053 15.8858 10.2513 15.8736C10.1973 15.8614 10.1635 15.8077 10.1757 15.7537L10.4586 14.5045C10.4708 14.4505 10.5245 14.4166 10.5784 14.4288ZM9.17867 14.4464C9.22295 14.4796 9.23193 14.5425 9.19871 14.5867L9.16336 14.6339C9.13014 14.6782 9.06732 14.6872 9.02303 14.6539C8.97875 14.6207 8.96977 14.5579 9.00298 14.5136L9.03834 14.4665C9.07155 14.4222 9.13438 14.4132 9.17867 14.4464ZM11.2631 14.4267C11.3183 14.4315 11.3592 14.48 11.3545 14.5352L11.1777 16.5976C11.1729 16.6527 11.1244 16.6936 11.0692 16.6889C11.0141 16.6842 10.9732 16.6356 10.9779 16.5805L11.1547 14.518C11.1594 14.4629 11.208 14.422 11.2631 14.4267ZM12 14.4264C12.0554 14.4264 12.1002 14.4713 12.1002 14.5266V17.4729C12.1002 17.5283 12.0554 17.5732 12 17.5732C11.9446 17.5732 11.8998 17.5283 11.8998 17.4729V14.5266C11.8998 14.4713 11.9446 14.4264 12 14.4264ZM14.1528 14.4529C14.2043 14.4326 14.2625 14.4579 14.2828 14.5094L14.492 15.0397C14.5123 15.0912 14.487 15.1494 14.4355 15.1698C14.384 15.1901 14.3258 15.1648 14.3055 15.1133L14.0963 14.583C14.076 14.5315 14.1013 14.4732 14.1528 14.4529ZM9.84768 14.4569C9.89918 14.4772 9.92446 14.5355 9.90415 14.587L9.69496 15.1173C9.67465 15.1688 9.61643 15.1941 9.56494 15.1738C9.51344 15.1534 9.48816 15.0952 9.50848 15.0437L9.71766 14.5134C9.73797 14.4619 9.79619 14.4366 9.84768 14.4569Z" fill="white"/>
</g>
<defs>
<linearGradient id="paint0_linear_344_22" x1="12" y1="1.74695" x2="12" y2="5.28252" gradientUnits="userSpaceOnUse">
<stop stop-color="#DFBD69"/>
<stop offset="1" stop-color="#926F34"/>
</linearGradient>
<linearGradient id="paint1_linear_344_22" x1="10.4063" y1="11.915" x2="13.5883" y2="11.915" gradientUnits="userSpaceOnUse">
<stop stop-color="#DFBD69"/>
<stop offset="1" stop-color="#926F34"/>
</linearGradient>
<clipPath id="clip0_344_22">
<rect width="24" height="24.0002" fill="white"/>
</clipPath>
</defs>
</svg>
