<svg width="24" height="24" viewBox="0 0 24 24" fill="none" xmlns="http://www.w3.org/2000/svg">
<g clip-path="url(#clip0_477_43)">
<path d="M24 12.0001C24 18.6275 18.6274 24.0002 12 24.0002C5.37262 24.0002 0 18.6276 0 12.0001C0 5.37254 5.37262 0 12 0C18.6274 0 24 5.37266 24 12.0001Z" fill="#890000"/>
<path d="M7.75734 12.0001V7.7574H12V12.0001H7.75734ZM12 20.4855V24.0002C13.4937 24.0002 14.9235 23.7271 16.2427 23.2285V20.4855H12ZM3.51469 20.4855C4.70735 21.6781 6.15008 22.6208 7.75734 23.2285V20.4855H3.51469ZM3.51469 7.7574H0.771692C0.273062 9.07653 0 10.5064 0 12.0001H3.51469V7.7574ZM0.771692 16.2428C1.37933 17.8501 2.32203 19.2927 3.51469 20.4855V16.2428H0.771692ZM20.4853 7.7574H23.2283C22.6207 6.15013 21.678 4.7075 20.4853 3.51472V7.7574ZM20.4853 16.2428H23.2283C23.7269 14.9237 24 13.4938 24 12.0001H20.4853V16.2428ZM16.2427 7.7574V3.51472H12V7.7574H16.2427ZM16.2427 16.2428V20.4855H20.4853V16.2428H16.2427ZM7.75734 16.2428V20.4855H12V16.2428H7.75734ZM12 12.0001V16.2428H16.2427V12.0001H12ZM3.51469 12.0001V16.2428H7.75734V12.0001H3.51469ZM7.75734 7.7574V3.51472H3.51469V7.7574H7.75734ZM12 3.51472V0C10.5063 0 9.07646 0.273064 7.75734 0.771698V3.51472H12ZM16.2427 12.0001H20.4853V7.7574H16.2427V12.0001ZM20.4853 3.51472C19.2927 2.32205 17.8499 1.37935 16.2427 0.771698V3.51472H20.4853Z" fill="#EE1122"/>
<path opacity="0.33" d="M24 12.0022C23.9988 18.6287 18.6267 24.0002 12 24.0002C5.37332 24.0002 0 18.6277 0 12.0001C3.19649 14.6872 6.63775 18.3642 12.0013 18.3642C17.3648 18.3642 20.9803 14.6872 24 12.0022Z" fill="#DD0011"/>
<path opacity="0.67" d="M12 0C5.37262 0 0 5.37266 0 12.0001C0 18.6275 5.37262 24.0002 12 24.0002C18.6274 24.0002 24 18.6275 24 12.0001C24 5.37266 18.6275 0 12 0ZM12 22.586C6.15362 22.586 1.41422 17.8465 1.41422 12.0001C1.41422 6.15367 6.15362 1.41423 12 1.41423C17.8464 1.41423 22.5858 6.15367 22.5858 12.0001C22.5858 17.8465 17.8464 22.586 12 22.586Z" fill="#890000"/>
<path opacity="0.1" d="M0 11.998C0.00117852 5.37148 5.37332 0 12 0C18.6267 0 24 5.37266 24 12.0001C20.8035 9.31306 17.3622 5.63606 11.9987 5.63606C6.63516 5.63606 3.01971 9.31306 0 11.998Z" fill="white"/>
<path opacity="0.2" d="M24 12.0022C23.9988 18.6287 18.6267 24.0002 12 24.0002C5.37332 24.0002 0 18.6277 0 12.0001C3.19649 14.6872 6.63775 18.3642 12.0013 18.3642C17.3648 18.3642 20.9803 14.6872 24 12.0022Z" fill="black"/>
<path opacity="0.25" d="M0 11.998C0.00117852 5.37148 5.37332 0 12 0C18.6267 0 24 5.37266 24 12.0001C20.8035 9.31306 17.3622 5.63606 11.9987 5.63606C6.63516 5.63606 3.01971 9.31306 0 11.998Z" fill="white"/>
<path d="M11.9974 19.2377L6.10474 13.3513L11.9974 5.27771L17.89 13.3513L11.9974 19.2377Z" fill="url(#paint0_radial_477_43)"/>
<path d="M22.6066 12.0001L12 22.6068L1.39331 12.0001H5.10563L12 18.8944L18.8943 12.0001H22.6066Z" fill="white"/>
<path d="M21.24 17.1695C21.1212 17.3815 20.9952 17.5889 20.8625 17.7916L12.0001 5.63608L3.13773 17.7916C3.00503 17.5889 2.87905 17.3815 2.76025 17.1695L11.9878 1.41437C11.9919 1.41437 11.9959 1.41437 12.0001 1.41437C12.0042 1.41437 12.0082 1.41437 12.0123 1.41437L21.24 17.1696V17.1695Z" fill="white"/>
<path d="M12 5.63606C10.8284 5.63606 9.87866 4.68629 9.87866 3.51472C9.87866 2.34314 10.8284 1.39337 12 1.39337C13.1716 1.39337 14.1213 2.34314 14.1213 3.51472C14.1213 4.68629 13.1716 5.63606 12 5.63606Z" fill="white"/>
<path d="M12.0001 23.9908C5.37266 23.9908 0 18.6202 0 11.9954C0 5.37057 5.37266 1.97244e-05 12.0001 1.97244e-05C18.6275 1.97244e-05 24.0002 5.37057 24.0002 11.9954C24.0002 18.6202 18.6276 23.9908 12.0001 23.9908ZM12.0001 1.41369C6.15367 1.41369 1.41423 6.15127 1.41423 11.9954C1.41423 17.8395 6.15367 22.5771 12.0001 22.5771C17.8465 22.5771 22.586 17.8395 22.586 11.9954C22.586 6.15127 17.8465 1.41369 12.0001 1.41369Z" fill="url(#paint1_linear_477_43)"/>
<path fill-rule="evenodd" clip-rule="evenodd" d="M-0.0090332 12.0048C-0.00903157 18.6373 5.36766 24.0139 12.0001 24.0139C18.6326 24.0139 24.0093 18.6373 24.0093 12.0048C24.0093 5.37229 18.6326 -0.00439453 12.0001 -0.00439453C5.36766 -0.00439453 -0.0090332 5.3723 -0.0090332 12.0048ZM11.9815 0.516232H12.0001V0.522442C18.3313 0.522442 23.4881 5.66438 23.4944 11.9924C23.5068 18.3267 18.3561 23.4935 12.0187 23.4997H12.0001C5.66893 23.4935 0.512042 18.3516 0.505829 12.0235C0.499616 8.95572 1.69253 6.06803 3.86091 3.89451C6.02929 1.72099 8.91218 0.516232 11.9815 0.516232Z" fill="url(#paint2_linear_477_43)"/>
<path d="M12.006 3.80782L12.8517 5.06835C12.5932 5.19794 12.3113 5.2804 12.006 5.2804C11.7006 5.2804 11.4069 5.20972 11.1603 5.06835L12.006 3.80782ZM12.006 1.74622C11.0193 1.74622 10.2323 2.53552 10.2323 3.51331C10.2323 4.09056 10.4908 4.58535 10.9136 4.9152L11.8532 3.51331H10.9253V3.21879H11.8649V2.92428H10.9253V2.62976H13.0866V2.92428H12.1469V3.21879H13.0866V3.51331H12.1469L13.0866 4.9152C13.5094 4.58535 13.7679 4.09056 13.7679 3.51331C13.7679 2.53552 12.9692 1.74622 12.006 1.74622Z" fill="url(#paint3_linear_477_43)"/>
<path d="M9.6001 14.8703L11.4892 12.0605H9.64169V11.169H11.6139V10.813H9.64169V9.9201H14.5185V10.8116H12.5463V11.1676H14.5185V12.0591H12.6696C12.6739 12.0719 14.5601 14.8703 14.5601 14.8703L13.8085 15.3587L12.0801 12.8082C11.5379 13.5886 10.356 15.3601 10.356 15.3601L9.60153 14.8717L9.6001 14.8703Z" fill="white"/>
</g>
<defs>
<radialGradient id="paint0_radial_477_43" cx="0" cy="0" r="1" gradientUnits="userSpaceOnUse" gradientTransform="translate(11.9974 12.2577) rotate(90) scale(6.98002 5.89262)">
<stop offset="0.4" stop-color="#EE1122"/>
<stop offset="1" stop-color="#880A13"/>
</radialGradient>
<linearGradient id="paint1_linear_477_43" x1="-4.25759" y1="11.9954" x2="34.6038" y2="11.9954" gradientUnits="userSpaceOnUse">
<stop offset="0.12011" stop-color="#FAF49C"/>
<stop offset="0.141057" stop-color="#E28204"/>
<stop offset="0.17" stop-color="#4F1B05"/>
<stop offset="0.21" stop-color="#CA7200"/>
<stop offset="0.26" stop-color="#4F1D01"/>
<stop offset="0.32" stop-color="#CD9621"/>
<stop offset="0.35" stop-color="#FAF49D"/>
<stop offset="0.4" stop-color="#EFD254"/>
<stop offset="0.46" stop-color="#BA4F02"/>
<stop offset="0.5" stop-color="#F59B05"/>
<stop offset="0.56" stop-color="#5E2505"/>
<stop offset="0.61654" stop-color="#BB6700"/>
<stop offset="0.629956" stop-color="#5F2902"/>
<stop offset="0.642733" stop-color="#441602"/>
<stop offset="0.673398" stop-color="#8A5103"/>
<stop offset="0.690693" stop-color="#E28204"/>
<stop offset="0.718117" stop-color="#FAF49C"/>
</linearGradient>
<linearGradient id="paint2_linear_477_43" x1="12.0001" y1="-17.7479" x2="12.0002" y2="30.9613" gradientUnits="userSpaceOnUse">
<stop offset="0.01" stop-color="#FAF49E"/>
<stop offset="0.07" stop-color="#441100"/>
<stop offset="0.09" stop-color="#FAF49C"/>
<stop offset="0.12" stop-color="#E28204"/>
<stop offset="0.17" stop-color="#4F1B05"/>
<stop offset="0.21" stop-color="#CA7200"/>
<stop offset="0.26" stop-color="#4F1D01"/>
<stop offset="0.32" stop-color="#CD9621"/>
<stop offset="0.35" stop-color="#FAF49D"/>
<stop offset="0.4" stop-color="#EFD254"/>
<stop offset="0.46" stop-color="#BA4F02"/>
<stop offset="0.5" stop-color="#F59B05"/>
<stop offset="0.56" stop-color="#5E2505"/>
<stop offset="0.62" stop-color="#BB6700"/>
<stop offset="0.63" stop-color="#773901"/>
<stop offset="0.64" stop-color="#5F2902"/>
<stop offset="0.65" stop-color="#4E1D02"/>
<stop offset="0.66" stop-color="#441602"/>
<stop offset="0.67" stop-color="#411402"/>
<stop offset="0.68" stop-color="#4A1B02"/>
<stop offset="0.69" stop-color="#623003"/>
<stop offset="0.71" stop-color="#8A5103"/>
<stop offset="0.73" stop-color="#BB7A04"/>
<stop offset="0.76" stop-color="#F5E78A"/>
<stop offset="0.77" stop-color="#F2DE72"/>
<stop offset="0.79" stop-color="#F0D761"/>
<stop offset="0.8" stop-color="#EFD357"/>
<stop offset="0.82" stop-color="#EFD254"/>
<stop offset="0.83" stop-color="#E5B844"/>
<stop offset="0.84" stop-color="#D7932C"/>
<stop offset="0.85" stop-color="#CC7619"/>
<stop offset="0.86" stop-color="#C4620C"/>
<stop offset="0.87" stop-color="#C05504"/>
<stop offset="0.88" stop-color="#BE5201"/>
<stop offset="0.89" stop-color="#DD7C04"/>
<stop offset="0.9" stop-color="#EC9105"/>
<stop offset="0.92" stop-color="#EE9305"/>
<stop offset="1" stop-color="#4E1A05"/>
</linearGradient>
<linearGradient id="paint3_linear_477_43" x1="12.0001" y1="5.2804" x2="12.0001" y2="1.74622" gradientUnits="userSpaceOnUse">
<stop stop-color="#AE8625"/>
<stop offset="1" stop-color="#EDC967"/>
</linearGradient>
<clipPath id="clip0_477_43">
<rect width="24" height="24.0002" fill="white"/>
</clipPath>
</defs>
</svg>
