<svg width="24" height="24" viewBox="0 0 24 24" fill="none" xmlns="http://www.w3.org/2000/svg">
<path d="M24 12C24 18.6274 18.6274 24 12 24C5.37258 24 0 18.6274 0 12C0 5.37258 5.37258 0 12 0C18.6274 0 24 5.37258 24 12Z" fill="#160E2E"/>
<path d="M6.41968 6.48148L4.41968 7.61728V9.9753L5.16042 10.4568L4.41968 10.8642V13.2099L5.14807 13.6543L4.41968 14.0617V16.358L6.43202 17.5309L8.45671 16.3704V15.5309L9.27153 16.0123L11.2839 14.8518L11.2468 12.4938L9.25918 11.358L8.44437 11.8272V10.8765L7.66659 10.4074L8.44437 9.98765V7.61728L6.41968 6.48148Z" fill="#0270D3"/>
<path d="M9.96289 19.6049V17.2716L11.9752 16.1358L12.8271 16.5926L12.8394 15.679L13.5308 15.2469L12.8641 14.8519V12.5309L14.8888 11.3827L16.8765 12.5556V13.2963L17.5431 12.9136L19.5431 14.0864L19.5555 16.4074L17.5431 17.5803L16.8518 17.1975L16.8394 18.0124L14.8394 19.1728L13.9876 18.679V19.6049L11.9629 20.7654L9.96289 19.6049Z" fill="#FC81EA"/>
<path d="M9.98775 9.83949L12.0248 11L14.0248 9.83949V9.13579L14.6915 9.50616L15.5063 9.03702V9.96295L17.5186 11.1481L19.5557 9.9753L19.5186 7.62962L17.5186 6.48147L16.7161 6.93826L16.6915 6.02468L14.7038 4.85184L13.9507 5.25925V4.41974L11.9384 3.25925L9.95072 4.4074L9.92603 6.75307L10.6174 7.14814L9.98775 7.50616V9.83949Z" fill="#EA15B8"/>
</svg>
