<svg width="24" height="25" viewBox="0 0 24 25" fill="none" xmlns="http://www.w3.org/2000/svg">
<g clip-path="url(#clip0_1136_12296)">
<path d="M12.0002 24.9424C18.6277 24.9424 24.0002 19.5698 24.0002 12.9424C24.0002 6.31497 18.6277 0.942383 12.0002 0.942383C5.37283 0.942383 0.000244141 6.31497 0.000244141 12.9424C0.000244141 19.5698 5.37283 24.9424 12.0002 24.9424Z" fill="#2A5ADA"/>
<path d="M12 5.44238L10.6508 6.23363L6.975 8.40113L5.625 9.19238V16.6924L6.97425 17.4836L10.6845 19.6511L12.0338 20.4424L13.383 19.6511L17.0258 17.4836L18.375 16.6924V9.19238L17.0258 8.40113L13.3492 6.23363L12 5.44238ZM8.3235 15.1099V10.7749L12 8.60738L15.6765 10.7749V15.1099L12 17.2774L8.3235 15.1099Z" fill="white"/>
</g>
<defs>
<clipPath id="clip0_1136_12296">
<rect y="0.942383" width="24" height="24" rx="12" fill="white"/>
</clipPath>
</defs>
</svg>
