<svg width="24" height="24" viewBox="0 0 24 24" fill="none" xmlns="http://www.w3.org/2000/svg">
<path d="M12 22C17.5228 22 22 17.5228 22 12C22 6.47715 17.5228 2 12 2C6.47715 2 2 6.47715 2 12C2 17.5228 6.47715 22 12 22Z" fill="#8347E6"/>
<path d="M12.5934 10.4136L11.3819 11.1589V9.9393V9.92847C11.3802 9.75905 11.2088 9.53276 11.2088 9.53276L9.56044 8.51641C9.50894 8.51641 9.3482 8.44866 9.2967 8.44866C9.24521 8.44866 9.01853 8.51641 8.96703 8.51641C8.29756 8.97739 7.45055 9.465 7.45055 9.465L7.31868 9.60052L7.18681 9.87154V11.8365C7.18681 11.8365 7.18681 11.9042 7.25275 12.0398C7.31868 12.1753 7.38462 12.243 7.38462 12.243L9.06712 13.2519H9.53675C9.53675 13.2519 14.2418 10.385 14.4396 10.3316C14.6374 10.2781 14.7104 10.2617 14.9011 10.2781C15.0918 10.2945 17.8681 12.0398 17.8681 12.0398L17.9341 12.1753L18 12.3108V15.9696L17.8022 16.2927L14.9875 17.9981C14.8075 17.9981 14.7033 18.0023 14.5266 17.9981C14.3499 17.9939 11.6044 16.2252 11.6044 16.2252C11.6044 16.2252 11.7306 16.3452 11.6015 16.2252C11.4725 16.1052 11.4066 15.9019 11.4066 15.9019V14.6145L12.5934 13.9369L12.6495 15.0888C12.6495 15.0888 12.6593 15.3598 12.7912 15.4953C13.4566 15.9324 14.5266 16.5188 14.5266 16.5188C14.7033 16.5794 14.8352 16.5794 14.9805 16.5202C14.9805 16.5202 16.5495 15.5631 16.6528 15.3995C16.7473 15.2921 16.8132 15.2243 16.8132 15.0888V13.1239L16.6076 12.7851C16.6076 12.7851 15.0837 11.7617 14.9011 11.701L14.8928 11.6982C14.718 11.64 14.7006 11.6343 14.5266 11.701C14.3499 11.7687 9.56044 14.6823 9.56044 14.6823C9.56044 14.6823 9.38017 14.6996 9.21153 14.6996C9.04288 14.6996 9.011 14.6823 9.011 14.6823L6.1978 12.9883C6.06593 12.8528 6 12.7173 6 12.5818V9.32949C6 9.05846 6.13187 8.85519 6.1978 8.78744C6.79408 8.38141 8.21851 7.58503 9.0989 7.02576C9.19872 7.01332 9.23077 7 9.2967 7C9.32548 7 9.46537 7.0226 9.49451 7.02577C10.4022 7.43591 11.9847 8.47509 12.3956 8.78744C12.4528 8.83092 12.5934 9.05847 12.5934 9.05847V10.4136Z" fill="white"/>
</svg>
