<svg width="40" height="40" viewBox="0 0 40 40" fill="none" xmlns="http://www.w3.org/2000/svg">
<rect width="40" height="40" rx="20" fill="black"/>
<path d="M21.5469 10.1375L22.3155 5.17811C21.5561 5.05624 20.778 5 19.9998 5H19.9906V15.125H19.9998C20.4312 15.125 20.8436 15.1812 21.2562 15.2843L22.5686 10.3531C22.2311 10.2593 21.8936 10.1937 21.5469 10.1375ZM17.5623 15.7811L15.0312 11.4406C14.75 11.6094 14.45 11.7968 14.1781 12.0031L11.1687 7.87811C11.7968 7.40935 12.4718 6.99686 13.1656 6.64062L15.4625 11.1125C15.9312 10.8781 16.3999 10.6718 16.8969 10.5125L15.3406 5.73123C16.0878 5.49041 16.8525 5.30861 17.628 5.18748L18.4343 10.2312C18.0968 10.2781 17.7593 10.3531 17.4216 10.4469L18.7341 15.2937C18.3218 15.3968 17.9282 15.5656 17.5623 15.7811ZM6.62187 13.2031L11.1781 15.5187C10.9437 15.9874 10.7375 16.4562 10.5781 16.9532L5.72188 15.3781C5.96563 14.6281 6.26561 13.9062 6.62187 13.2031ZM28.5593 15.0312L24.2188 17.5623C24.4345 17.9282 24.5936 18.3125 24.7061 18.725L29.5531 17.4125C29.6468 17.7498 29.7218 18.0873 29.7686 18.425L34.8124 17.628C34.6904 16.8499 34.5029 16.0813 34.2593 15.3312L29.4781 16.8967C29.3281 16.4 29.1218 15.9218 28.8875 15.4531L33.35 13.1562C32.9936 12.4625 32.5813 11.7875 32.122 11.1593L27.9967 14.1687C28.2031 14.45 28.3904 14.7312 28.5593 15.0312ZM24.6125 5.72188C25.3624 5.96563 26.0936 6.26561 26.7875 6.62184L24.4718 11.1687C24.0124 10.9343 23.5343 10.7375 23.0468 10.5781L24.6125 5.72188ZM24.9781 11.3469L22.4281 15.7719C22.8029 15.9874 23.1406 16.2405 23.4405 16.55L30.5843 9.37811C30.0311 8.81559 29.4311 8.30935 28.8031 7.84997L25.8498 11.9187C25.5686 11.7125 25.278 11.525 24.9781 11.3562V11.3469ZM15.7719 17.5718L11.3469 15.0218C11.525 14.7218 11.7219 14.4312 11.9187 14.15L7.85 11.1968C8.31874 10.5594 8.82498 9.95936 9.37811 9.41561L16.55 16.5594C16.2499 16.8593 15.9874 17.1968 15.7719 17.5718ZM10.3531 17.4311L15.2843 18.7436C15.1812 19.1468 15.125 19.5687 15.125 19.9998H5C5 19.2218 5.05623 18.4343 5.18748 17.675L10.1375 18.4437C10.1937 18.1062 10.2687 17.7593 10.3531 17.4311ZM28.8218 24.4813L33.3779 26.7969C33.7343 26.0936 34.0341 25.3624 34.278 24.622L29.4218 23.0469C29.2624 23.5343 29.0561 24.0218 28.8218 24.4813ZM22.4468 24.2188L24.9594 28.5593C25.2593 28.3905 25.55 28.203 25.8216 27.9968L28.8313 32.1217C28.2031 32.5904 27.5279 33.003 26.8343 33.3594L24.5373 28.8875C24.0686 29.1218 23.5998 29.3281 23.0936 29.4875L24.6593 34.2688C23.9095 34.5031 23.1405 34.6904 22.3624 34.8124L21.5655 29.7686C21.903 29.7218 22.2406 29.6468 22.5781 29.5532L21.2656 24.7061C21.6782 24.5936 22.0719 24.4345 22.4373 24.2188H22.4468ZM11.4406 24.9686L15.7811 22.4375C15.5656 22.0811 15.4062 21.6874 15.2937 21.275L10.4469 22.5875C10.3531 22.25 10.2781 21.9125 10.2312 21.5749L5.18748 22.3718C5.30937 23.1498 5.49686 23.9186 5.74063 24.6688L10.5218 23.1031C10.6812 23.5998 10.8781 24.0781 11.1125 24.5468L6.64998 26.8438C7.00623 27.5373 7.41874 28.2125 7.87811 28.8404L12.0031 25.8311C11.7968 25.55 11.6094 25.2687 11.4406 24.9686ZM15.3875 34.278C14.6375 34.0341 13.9062 33.7343 13.2125 33.3779L15.5187 28.8313C15.9874 29.0656 16.4656 29.2624 16.9532 29.4219L15.3875 34.278ZM15.0218 28.653L17.5718 24.2282C17.1968 24.0125 16.8593 23.7593 16.5594 23.4592L9.41561 30.6311C9.96873 31.175 10.5687 31.6905 11.1969 32.1498L14.15 28.0905C14.4312 28.2875 14.7218 28.475 15.0218 28.653ZM24.2281 22.4281L28.6436 24.9781C28.4748 25.2875 28.2875 25.5781 28.0811 25.8593L32.1406 28.8031C31.6811 29.4405 31.175 30.0406 30.6217 30.5938L23.45 23.4407C23.7499 23.1406 24.0124 22.8031 24.2281 22.4281ZM18.7436 24.7155L17.4311 29.6468C17.7686 29.7406 18.1063 29.8063 18.4531 29.8625L17.6842 34.8216C18.4438 34.9436 19.2218 35 19.9998 35H20.0093V24.875H19.9998C19.5782 24.875 19.1562 24.8188 18.7436 24.7155ZM24.7155 21.2562C24.8188 20.853 24.875 20.4312 24.875 19.9998H35C35 20.778 34.9436 21.5655 34.8124 22.325L29.8625 21.5561C29.8063 21.8936 29.7313 22.2405 29.6468 22.5687L24.7155 21.2562Z" fill="white"/>
</svg>
