<svg width="24" height="24" viewBox="0 0 24 24" fill="none" xmlns="http://www.w3.org/2000/svg">
<g clip-path="url(#clip0_192_151)">
<path d="M11.9997 22.7362C18.2782 22.7362 23.3678 17.7879 23.3678 11.6839C23.3678 5.57986 18.2782 0.631561 11.9997 0.631561C5.72127 0.631561 0.631592 5.57986 0.631592 11.6839C0.631592 17.7879 5.72127 22.7362 11.9997 22.7362Z" fill="#161616"/>
<path d="M5.47375 8.92587L6.87329 12.9559L8.19957 8.92587H10.2155V14.8272H8.73893V11.2526L7.43222 14.8272H6.2013L4.8946 11.2526V14.8272H3.41675V8.92587H5.47375Z" fill="#56BEB7"/>
<path d="M10.8313 13.8236C10.6403 13.4626 10.5404 13.0603 10.5404 12.6518C10.5404 12.2433 10.6403 11.841 10.8313 11.4799C11.0233 11.1441 11.3106 10.8727 11.6567 10.6999C12.0494 10.5196 12.4764 10.4262 12.9085 10.4262C13.3406 10.4262 13.7676 10.5196 14.1602 10.6999C14.5067 10.8726 14.7941 11.144 14.9863 11.4799C15.1771 11.8411 15.2769 12.2433 15.2769 12.6518C15.2769 13.0602 15.1771 13.4625 14.9863 13.8236C14.7941 14.1596 14.5067 14.431 14.1602 14.6036C13.7675 14.7842 13.3404 14.8777 12.9082 14.8777C12.4759 14.8777 12.0488 14.7842 11.6561 14.6036C11.3102 14.4308 11.0232 14.1594 10.8313 13.8236ZM13.7946 12.6515C13.8081 12.3747 13.7246 12.102 13.5584 11.8803C13.4769 11.7888 13.377 11.7156 13.2652 11.6654C13.1534 11.6153 13.0323 11.5893 12.9097 11.5893C12.7872 11.5893 12.6661 11.6153 12.5543 11.6654C12.4425 11.7156 12.3426 11.7888 12.2611 11.8803C12.1073 12.1082 12.0251 12.3768 12.0251 12.6518C12.0251 12.9267 12.1073 13.1954 12.2611 13.4232C12.3426 13.5147 12.4425 13.588 12.5543 13.6381C12.6661 13.6883 12.7872 13.7142 12.9097 13.7142C13.0323 13.7142 13.1534 13.6883 13.2652 13.6381C13.377 13.588 13.4769 13.5147 13.5584 13.4232C13.7237 13.2011 13.8072 12.9287 13.7946 12.6521V12.6515Z" fill="#56BEB7"/>
<path d="M16.9013 9.2467C17.3816 8.98985 17.9205 8.86212 18.465 8.87599C18.9089 8.86821 19.3482 8.9665 19.7465 9.16271C20.112 9.34408 20.4231 9.61883 20.6484 9.95912C20.8763 10.3084 21.0098 10.7107 21.0361 11.1269H19.4844C19.4405 10.8572 19.3086 10.6096 19.1092 10.4227C18.9095 10.2437 18.6485 10.1486 18.3804 10.1574C18.1978 10.1503 18.0164 10.1899 17.8534 10.2724C17.6904 10.355 17.5511 10.4778 17.4488 10.6292C17.2307 11.0089 17.1159 11.4392 17.1159 11.8772C17.1159 12.3151 17.2307 12.7454 17.4488 13.1251C17.5511 13.2766 17.6904 13.3993 17.8534 13.4819C18.0164 13.5645 18.1978 13.604 18.3804 13.5969C18.6485 13.6057 18.9095 13.5107 19.1092 13.3317C19.3086 13.1448 19.4405 12.8972 19.4844 12.6275H21.0355C21.009 13.0436 20.8754 13.4459 20.6477 13.7952C20.4225 14.1355 20.1114 14.4102 19.7458 14.5916C19.3478 14.7886 18.9084 14.8874 18.4644 14.8796C17.9198 14.8933 17.381 14.7653 16.9007 14.5083C16.4661 14.2679 16.1124 13.9042 15.8845 13.463C15.6514 12.9675 15.5305 12.4267 15.5305 11.8791C15.5305 11.3315 15.6514 10.7906 15.8845 10.2951C16.1121 9.85265 16.466 9.48777 16.9013 9.2467Z" fill="#56BEB7"/>
<path d="M11.9997 1.48543C14.606 1.48706 17.1188 2.45688 19.0504 4.2067C20.982 5.95651 22.1947 8.36152 22.4531 10.955C22.7115 13.5485 21.9972 16.1455 20.4488 18.242C18.9004 20.3385 16.6284 21.7851 14.0736 22.3009C11.5188 22.8168 8.86354 22.3651 6.62299 21.0336C4.38244 19.7021 2.71645 17.5858 1.9483 15.0952C1.18016 12.6046 1.36465 9.91753 2.46598 7.55532C3.56731 5.19312 5.50693 3.3243 7.90843 2.31152C9.2033 1.7656 10.5944 1.48471 11.9997 1.48543ZM11.9997 0C9.62638 0 7.30636 0.703769 5.33302 2.02231C3.35968 3.34085 1.82165 5.21495 0.913427 7.4076C0.00519925 9.60026 -0.232435 12.013 0.230576 14.3407C0.693586 16.6684 1.83645 18.8066 3.51463 20.4847C5.19282 22.1629 7.33096 23.3058 9.65867 23.7688C11.9864 24.2318 14.3991 23.9942 16.5918 23.0859C18.7844 22.1777 20.6585 20.6397 21.9771 18.6664C23.2956 16.693 23.9994 14.373 23.9994 11.9997C23.9994 8.81717 22.7351 5.765 20.4847 3.51463C18.2344 1.26425 15.1822 0 11.9997 0Z" fill="#56BEB7"/>
</g>
<defs>
<clipPath id="clip0_192_151">
<rect width="24" height="24" fill="white"/>
</clipPath>
</defs>
</svg>
