<svg width="24" height="24" viewBox="0 0 24 24" fill="none" xmlns="http://www.w3.org/2000/svg">
<path d="M12 24C18.6274 24 24 18.6274 24 12C24 5.37258 18.6274 0 12 0C5.37258 0 0 5.37258 0 12C0 18.6274 5.37258 24 12 24Z" fill="#06353D"/>
<path d="M19.4569 16.5731C19.4593 16.1705 20.9975 16.1877 20.9876 15.8106C20.9819 15.5866 20.573 15.5397 20.4873 15.2449C20.4724 15.1905 20.4683 15.1279 20.4774 15.0546C20.4839 15.011 20.4947 14.9641 20.5128 14.913C20.8277 13.9965 21 13.0132 21 11.9906C20.9992 7.0251 16.9699 3 12 3C7.03015 3 3 7.0251 3 11.9906C3 13.0075 3.16981 13.9849 3.4814 14.8965C3.48305 14.9047 3.48635 14.9138 3.48965 14.9229C3.49872 14.9467 3.50614 14.969 3.51273 14.9912C3.62402 15.3898 3.00247 15.5487 3.00247 15.7892C3.00247 16.1705 4.34118 16.1194 4.34118 16.5624C4.34118 16.9486 3.01731 17.068 3.01731 17.4583C3.01731 17.9969 5.94941 17.8091 5.98572 18.2719C6.01454 18.6293 4.97756 18.6507 4.97179 19.0328C4.96189 19.6421 8.97304 19.4429 8.97304 19.8488C8.97304 20.1559 7.14886 20.0448 7.14886 20.408C7.14886 20.7711 9.55011 21 12.197 21C14.8439 21 16.6698 20.706 16.6698 20.3882C16.6698 20.0703 14.9659 20.1362 15.0005 19.8488C15.0616 19.3489 18.8435 19.6042 18.8435 19.0254C18.8435 18.7206 17.8032 18.649 17.8371 18.3196C17.8848 17.8552 20.9984 17.9235 20.9984 17.441C20.9984 17.0614 19.4552 16.9683 19.4576 16.5739L19.4569 16.5731ZM15.4243 18.8458C15.4243 19.1118 14.2182 19.2328 11.9027 19.2328C10.0092 19.2328 8.12894 19.1143 8.12894 18.8055C8.12894 18.4967 10.372 18.4687 11.9143 18.4712C13.9676 18.4753 15.4251 18.57 15.4251 18.8458H15.4243ZM12 5.34769C14.839 5.34769 17.2617 7.12474 18.2154 9.62636C18.3259 9.9508 17.926 9.93106 17.6442 9.93106H16.8775C16.3302 9.93106 15.641 9.99697 15.641 10.1468C15.641 10.3346 17.3144 10.3239 17.4983 10.3239C18.0382 10.3239 18.4611 10.3642 18.5229 10.6952C18.6061 11.1144 18.6499 11.5475 18.6499 11.9906C18.6499 12.8815 18.4735 13.7314 18.1553 14.507C18.0514 14.7352 17.9162 14.8537 17.7513 14.9525C16.96 15.3922 15.5256 15.3132 15.5256 15.5784C15.5256 15.9629 17.9418 15.7991 17.945 16.1334C17.95 16.6439 13.6347 16.3409 13.6347 16.8012C13.6347 17.2574 17.1067 17.0449 17.1067 17.5234C17.1067 17.7638 15.9914 17.8528 14.7763 17.8832C12.8878 17.9079 9.54926 17.8939 8.29133 17.8503C8.29133 17.8503 8.29133 17.8503 8.29303 17.8519C7.44144 17.8214 6.71691 17.7053 6.43248 17.5826C6.35418 17.5489 6.35086 17.4542 6.42589 17.4155C7.2857 16.9733 12.5358 17.3257 12.5358 16.8119C12.5358 16.298 7.34835 16.6538 7.35245 16.2083C7.35571 15.8913 9.61934 15.9193 11.4147 15.9193C13.7401 15.9193 14.454 15.8032 14.4532 15.636C14.4516 15.2992 11.5936 15.4968 11.5829 15.1189C11.573 14.7524 16.106 15.0201 16.106 14.661C16.106 14.4329 14.1366 14.4115 12.1673 14.4189C10.198 14.4263 8.22869 14.4296 8.22869 14.6733C8.22869 14.9492 10.5591 14.8421 10.5591 15.1189C10.5591 15.3371 9.27806 15.3823 7.941 15.3823C7.05818 15.3823 6.37394 15.3157 6.03846 14.8998C6.01128 14.8653 5.98325 14.8158 5.96095 14.7705C5.57107 13.9248 5.3518 12.9836 5.3518 11.9913C5.3518 8.32287 8.32843 5.34933 12.0008 5.34933L12 5.34769Z" fill="#95F921"/>
<path d="M13.7526 12.9889C15.25 12.9889 16 12.9729 16 12.8096C16 12.5731 13.9611 12.7044 13.9611 12.4697C13.9611 12.2636 15.2494 12.3794 15.2494 12.1584C15.2494 11.9844 13.807 12.0004 13.0203 12.0004C12.1484 12.0004 11.2895 12.0301 11.2895 12.1786C11.2895 12.3705 13.4878 12.263 13.4878 12.4596C13.4878 12.7412 10 12.538 10 12.8096C10 13.0668 12.2671 12.9889 13.752 12.9889H13.7526Z" fill="#95F921"/>
</svg>
