<svg width="24" height="24" viewBox="0 0 24 24" fill="none" xmlns="http://www.w3.org/2000/svg">
<path d="M12 0C18.6273 0 24 5.37264 24 12C24 18.6274 18.6273 24 12 24C5.37274 24 0 18.6275 0 12C0 5.37264 5.3725 0 12 0Z" fill="black"/>
<path d="M12.4262 19.1788C12.3844 19.2528 12.3236 19.3144 12.2502 19.3572C12.1768 19.4001 12.0933 19.4226 12.0083 19.4226C11.9233 19.4226 11.8398 19.4001 11.7664 19.3572C11.693 19.3144 11.6323 19.2528 11.5905 19.1788L4.63708 6.87668C4.5958 6.80365 4.57437 6.72107 4.57495 6.63719C4.57552 6.5533 4.59807 6.47102 4.64035 6.39857C4.68262 6.32611 4.74315 6.266 4.8159 6.22422C4.88865 6.18244 4.97108 6.16046 5.05497 6.16047L18.9616 6.16047C19.0455 6.16046 19.1279 6.18244 19.2007 6.22422C19.2734 6.266 19.334 6.32611 19.3762 6.39857C19.4185 6.47102 19.4411 6.5533 19.4416 6.63719C19.4422 6.72107 19.4208 6.80365 19.3795 6.87668L12.4262 19.1788Z" fill="#E9EAE9"/>
<path d="M12.0083 13.9513C13.6633 13.9513 15.0048 12.6098 15.0048 10.9548C15.0048 9.29992 13.6633 7.95834 12.0083 7.95834C10.3534 7.95834 9.01184 9.29992 9.01184 10.9548C9.01184 12.6098 10.3534 13.9513 12.0083 13.9513Z" fill="black"/>
<path d="M12.0083 12.7033C12.974 12.7033 13.7568 11.9205 13.7568 10.9548C13.7568 9.98916 12.974 9.20633 12.0083 9.20633C11.0427 9.20633 10.2598 9.98916 10.2598 10.9548C10.2598 11.9205 11.0427 12.7033 12.0083 12.7033Z" fill="#E9EAE9"/>
</svg>
