<svg width="24" height="25" viewBox="0 0 24 25" fill="none" xmlns="http://www.w3.org/2000/svg">
<path d="M24 12.0889C24 5.41253 18.6268 0 11.9996 0C5.37234 0 0 5.41253 0 12.0889C0 18.1373 4.40951 23.1488 10.1659 24.0375L10.4437 22.8175L10.4669 22.7147L10.4928 22.6013L10.5196 22.4834L10.5473 22.3602L10.6339 21.977L11.1921 19.5244C9.55141 19.1564 8.32511 17.6934 8.32511 15.9419C8.32511 13.9127 9.9703 12.2675 11.9996 12.2675C14.0288 12.2675 15.674 13.9127 15.674 15.9419C15.674 17.6934 14.4468 19.1564 12.807 19.5244L13.3643 21.977L13.4509 22.3602L13.4786 22.4834L13.5054 22.6013L13.5313 22.7147L13.5545 22.8175L13.8323 24.0375C19.5896 23.1479 23.9982 18.1373 23.9982 12.0889H24ZM17.4719 20.5506C18.6554 19.2422 19.3788 17.5094 19.3788 15.6061C19.3788 11.5306 16.075 8.22776 12.0004 8.22776C7.92587 8.22776 4.62208 11.5315 4.62208 15.6061C4.62208 17.4541 5.30267 19.1412 6.42537 20.4354C4.36843 18.9072 3.04745 16.7297 3.04745 13.8939C3.04745 8.94853 7.05593 4.94005 12.0013 4.94005C16.9467 4.94005 20.9552 8.94853 20.9552 13.8939C20.9552 16.777 19.5896 19.0099 17.4728 20.5506H17.4719Z" fill="#05CC5A"/>
</svg>
