<svg width="24" height="24" viewBox="0 0 24 24" fill="none" xmlns="http://www.w3.org/2000/svg">
<g clip-path="url(#clip0_2025_8123)">
<path d="M12 24C18.6274 24 24 18.6274 24 12C24 5.37258 18.6274 0 12 0C5.37258 0 0 5.37258 0 12C0 18.6274 5.37258 24 12 24Z" fill="#FF0420"/>
<path d="M8.7033 15.3599C7.97951 15.3599 7.38652 15.1857 6.92423 14.8372C6.46809 14.4825 6.23999 13.9785 6.23999 13.3252C6.23999 13.1883 6.25521 13.0203 6.28559 12.8212C6.36469 12.3732 6.47721 11.835 6.62317 11.2065C7.03674 9.49544 8.10421 8.63989 9.82549 8.63989C10.2938 8.63989 10.7135 8.72077 11.0845 8.88258C11.4555 9.0381 11.7475 9.27455 11.9603 9.59188C12.1732 9.90301 12.2797 10.2764 12.2797 10.7119C12.2797 10.8426 12.2645 11.0074 12.234 11.2065C12.1428 11.7603 12.0334 12.2985 11.9056 12.8212C11.6927 13.6737 11.3248 14.3114 10.8017 14.7345C10.2786 15.1514 9.57916 15.3599 8.7033 15.3599ZM8.83103 14.0159C9.17164 14.0159 9.46055 13.9132 9.69777 13.7079C9.94103 13.5026 10.1144 13.1883 10.2178 12.7652C10.3577 12.1803 10.4641 11.6701 10.5371 11.2346C10.5614 11.1039 10.5736 10.9701 10.5736 10.8332C10.5736 10.267 10.2847 9.98389 9.70689 9.98389C9.36628 9.98389 9.07434 10.0866 8.83103 10.2919C8.59381 10.4972 8.42351 10.8115 8.32012 11.2346C8.21063 11.6515 8.10114 12.1617 7.9917 12.7652C7.96737 12.8897 7.95517 13.0203 7.95517 13.1572C7.95517 13.7297 8.24711 14.0159 8.83103 14.0159Z" fill="white"/>
<path d="M12.6987 15.2668C12.6318 15.2668 12.5801 15.245 12.5435 15.2014C12.5132 15.1516 12.504 15.0957 12.5162 15.0334L13.7752 8.96677C13.7874 8.89833 13.8208 8.84231 13.8756 8.79877C13.9303 8.75519 13.9881 8.7334 14.0489 8.7334H16.4758C17.1509 8.7334 17.6922 8.87653 18.0997 9.16276C18.5133 9.44898 18.7201 9.86274 18.7201 10.4041C18.7201 10.5597 18.7019 10.7214 18.6654 10.8894C18.5133 11.605 18.2062 12.1339 17.7439 12.4761C17.2877 12.8183 16.6612 12.9894 15.8645 12.9894H14.6328L14.2131 15.0334C14.201 15.1018 14.1675 15.1579 14.1128 15.2014C14.058 15.245 14.0003 15.2668 13.9394 15.2668H12.6987ZM15.9283 11.7014C16.1838 11.7014 16.4058 11.6299 16.5944 11.4868C16.789 11.3436 16.9167 11.1383 16.9775 10.8707C16.9958 10.765 17.0049 10.6716 17.0049 10.5908C17.0049 10.4103 16.9532 10.2734 16.8498 10.1801C16.7464 10.0805 16.57 10.0307 16.3206 10.0307H15.2258L14.8791 11.7014H15.9283Z" fill="white"/>
</g>
<defs>
<clipPath id="clip0_2025_8123">
<rect width="24" height="24" fill="white"/>
</clipPath>
</defs>
</svg>
