<svg width="24" height="24" viewBox="0 0 24 24" fill="none" xmlns="http://www.w3.org/2000/svg">
<path d="M12 24C18.6274 24 24 18.6274 24 12C24 5.37258 18.6274 0 12 0C5.37258 0 0 5.37258 0 12C0 18.6274 5.37258 24 12 24Z" fill="#FF0066"/>
<path fill-rule="evenodd" clip-rule="evenodd" d="M6.14851 8.18001C6.18345 8.12397 6.24173 8.08241 6.34272 8.06281C6.44786 8.04244 6.59022 8.04844 6.7691 8.08664C7.12627 8.16287 7.58214 8.35681 8.0759 8.62807C9.06164 9.16961 10.153 9.99374 10.8307 10.6965L10.8818 10.7495H10.8842C10.8479 10.939 10.7758 11.3942 10.7758 12.0179C10.7758 12.5555 10.8294 12.9775 10.8674 13.2091C10.8471 13.2222 10.8251 13.2406 10.8071 13.2667C10.5548 13.6316 9.90494 14.2942 9.46227 14.6058C9.23924 14.7628 8.65477 15.1321 8.056 15.4553C7.75677 15.6169 7.45784 15.7648 7.20112 15.8687C7.07271 15.9207 6.95782 15.9604 6.86064 15.9854C6.76072 16.0112 6.69156 16.0182 6.64993 16.0144C6.62887 16.0125 6.58583 15.9979 6.52086 15.9425C6.45772 15.8887 6.38624 15.8069 6.30975 15.696C6.157 15.4746 5.99806 15.1576 5.85392 14.7764C5.56573 14.0143 5.34699 13.023 5.34699 12.0868C5.34699 10.1787 5.60875 9.04574 6.14851 8.18001ZM13.1113 13.2038C13.1118 13.2041 13.1123 13.2045 13.1128 13.2048C13.1545 13.2342 13.1942 13.273 13.2307 13.3121C13.2773 13.362 13.333 13.4284 13.395 13.5024C13.428 13.5417 13.4627 13.5832 13.4989 13.6254C13.7143 13.8774 14.0264 14.2163 14.5044 14.5683C14.6497 14.6753 15.2979 15.1116 15.973 15.4795C16.3109 15.6636 16.6488 15.8268 16.9304 15.9237C17.0716 15.9723 17.1917 16.0018 17.2868 16.0111C17.3862 16.0207 17.4332 16.0058 17.4503 15.9949C17.5401 15.9383 17.6709 15.7799 17.8183 15.512C17.9611 15.2526 18.1063 14.915 18.235 14.5323C18.4928 13.7653 18.6776 12.8365 18.6503 12.019C18.5941 10.3305 18.3868 9.03134 17.8708 8.19644C17.7979 8.07851 17.6175 8.00981 17.2481 8.08304C16.8943 8.15321 16.4423 8.34214 15.9492 8.61257C14.9655 9.15211 13.8645 9.99018 13.1385 10.742L13.0939 10.7881C13.1272 10.9914 13.2159 11.5758 13.2159 12.0179C13.2159 12.3963 13.1509 12.92 13.1113 13.2038ZM8.2414 8.31931C9.22957 8.86214 10.32 9.67947 11.0269 10.3977C11.0866 10.397 11.1562 10.3956 11.234 10.394C11.6503 10.3856 12.303 10.3724 12.9494 10.4359C13.7001 9.67401 14.7973 8.84481 15.784 8.30364C16.2892 8.02654 16.7771 7.81844 17.1814 7.73827C17.5702 7.66117 17.9663 7.68881 18.1649 8.01004C18.7346 8.93177 18.9409 10.3167 18.9971 12.0072C19.0262 12.8793 18.8303 13.8516 18.5634 14.6455C18.4297 15.0432 18.2766 15.401 18.1214 15.683C17.9709 15.9564 17.8044 16.1854 17.6339 16.2931C17.5209 16.3644 17.3817 16.3732 17.2536 16.3608C17.1212 16.3479 16.9727 16.3093 16.8187 16.2564C16.5102 16.1502 16.1526 15.9763 15.8085 15.7888C15.1197 15.4135 14.4582 14.9687 14.3003 14.8524C13.7933 14.4791 13.4618 14.1188 13.2365 13.8554C13.1931 13.8046 13.1552 13.7593 13.1212 13.7189C13.0645 13.6511 13.0191 13.5969 12.9785 13.5534C12.9527 13.5257 12.9346 13.5088 12.9223 13.499C12.7345 13.5076 12.4345 13.5013 12.1298 13.4949C12.0155 13.4925 11.9005 13.4901 11.7906 13.4885C11.5769 13.4853 11.3805 13.4849 11.2337 13.492C11.1597 13.4955 11.1039 13.5008 11.0669 13.5072C11.0663 13.5073 11.0657 13.5074 11.0652 13.5075C11.0646 13.5076 11.0639 13.5077 11.0633 13.5078C10.7711 13.9125 10.1201 14.5707 9.6603 14.8943C9.42437 15.0603 8.82797 15.4367 8.21927 15.7653C7.91474 15.9297 7.6033 16.0843 7.32991 16.1949C7.19326 16.2502 7.06316 16.2958 6.94629 16.3259C6.83216 16.3553 6.7182 16.3734 6.61852 16.3643C6.49826 16.3532 6.38967 16.2899 6.29747 16.2114C6.20345 16.1313 6.11223 16.0232 6.02528 15.8972C5.85115 15.6448 5.68024 15.2998 5.52986 14.902C5.22899 14.1064 5 13.0724 5 12.0868C5 10.1512 5.26432 8.94004 5.85509 7.99247C5.95263 7.83604 6.1053 7.75114 6.27744 7.71777C6.44542 7.68521 6.63836 7.69967 6.84068 7.74287C7.24589 7.82934 7.73597 8.04164 8.2414 8.31931Z" fill="white"/>
</svg>
