<svg width="24" height="24" viewBox="0 0 24 24" fill="none" xmlns="http://www.w3.org/2000/svg">
<g clip-path="url(#clip0_477_36)">
<mask id="mask0_477_36" style="mask-type:luminance" maskUnits="userSpaceOnUse" x="0" y="0" width="24" height="24">
<path d="M11.9999 23.9423C18.5955 23.9423 23.9421 18.5955 23.9421 12C23.9421 5.40448 18.5955 0.0577393 11.9999 0.0577393C5.40435 0.0577393 0.0576172 5.40448 0.0576172 12C0.0576172 18.5955 5.40435 23.9423 11.9999 23.9423Z" fill="white"/>
</mask>
<g mask="url(#mask0_477_36)">
<path d="M25.073 -1.07306H-1.07312V25.0731H25.073V-1.07306Z" fill="url(#paint0_linear_477_36)"/>
</g>
<path d="M15.4537 14.577L18.8325 12.6261C19.0114 12.5227 19.1221 12.3305 19.1221 12.1239V8.22239C19.1221 8.01613 19.011 7.82352 18.8325 7.72015L15.4537 5.76918C15.2748 5.6658 15.053 5.6663 14.874 5.76918L11.4953 7.72015C11.3163 7.82352 11.2056 8.01613 11.2056 8.22239V15.1948L8.8363 16.5626L6.46696 15.1948V12.4588L8.8363 11.091L10.3992 11.9931V10.1578L9.12594 9.42291C9.03817 9.3722 8.93772 9.34538 8.83581 9.34538C8.7339 9.34538 8.63345 9.3722 8.54617 9.42291L5.16746 11.3739C4.98849 11.4772 4.87781 11.6694 4.87781 11.8762V15.7776C4.87781 15.9838 4.98899 16.1765 5.16746 16.2798L8.54617 18.2307C8.72464 18.3337 8.94699 18.3337 9.12594 18.2307L12.5047 16.2803C12.6836 16.1769 12.7943 15.9844 12.7943 15.7781V8.80558L12.8373 8.7812L15.1636 7.43781L17.533 8.80558V11.5416L15.1636 12.9094L13.6033 12.0083V13.8437L14.874 14.5775C15.053 14.6804 15.2748 14.6804 15.4537 14.5775V14.577Z" fill="white"/>
</g>
<defs>
<linearGradient id="paint0_linear_477_36" x1="-5.8513" y1="1.07587" x2="21.1404" y2="17.5935" gradientUnits="userSpaceOnUse">
<stop stop-color="#A229C5"/>
<stop offset="1" stop-color="#7B3FE4"/>
</linearGradient>
<clipPath id="clip0_477_36">
<rect width="24" height="24" fill="white"/>
</clipPath>
</defs>
</svg>
