<svg width="24" height="24" viewBox="0 0 24 24" fill="none" xmlns="http://www.w3.org/2000/svg">
<g clip-path="url(#clip0_413_138)">
<path d="M12 24C18.6274 24 24 18.6274 24 12C24 5.37258 18.6274 0 12 0C5.37258 0 0 5.37258 0 12C0 18.6274 5.37258 24 12 24Z" fill="#E01915"/>
<path d="M12 22.5666C17.0258 22.5666 21.1 17.8358 21.1 12C21.1 6.16423 17.0258 1.4334 12 1.4334C6.97423 1.4334 2.90002 6.16423 2.90002 12C2.90002 17.8358 6.97423 22.5666 12 22.5666Z" fill="#AF1E3A"/>
<path d="M12 22.5666C16.1421 22.5666 19.5 17.8358 19.5 12C19.5 6.16423 16.1421 1.4334 12 1.4334C7.85786 1.4334 4.5 6.16423 4.5 12C4.5 17.8358 7.85786 22.5666 12 22.5666Z" fill="#171518"/>
<path d="M12 23.9768C5.37757 23.9768 0.00897217 18.6104 0.00897217 11.9906C0.00897217 5.3708 5.37757 0.00440216 12 0.00440216C18.6224 0.00440216 23.991 5.3708 23.991 11.9906C23.991 18.6104 18.6226 23.9768 12 23.9768ZM12 1.417C6.15797 1.417 1.42217 6.151 1.42217 11.9906C1.42217 17.8302 6.15797 22.5642 12 22.5642C17.842 22.5642 22.5778 17.8302 22.5778 11.9906C22.5778 6.151 17.842 1.417 12 1.417Z" fill="url(#paint0_linear_413_138)"/>
<path fill-rule="evenodd" clip-rule="evenodd" d="M0 12C0 18.6274 5.3726 24 12 24C18.6274 24 24 18.6274 24 12C24 5.3726 18.6274 0 12 0C5.3726 0 0 5.3726 0 12ZM11.9814 0.5202H12V0.5264C18.3262 0.5264 23.4794 5.6644 23.4854 11.9876C23.4978 18.317 18.3512 23.4798 12.0186 23.486H12C5.6736 23.4798 0.5208 18.3418 0.5146 12.0186C0.5084 8.9532 1.7004 6.0676 3.8672 3.8958C6.0338 1.724 8.9144 0.5202 11.9814 0.5202Z" fill="url(#paint1_linear_413_138)"/>
<path d="M12.1816 0.339996C12.2112 0.400396 12.239 0.463996 12.2724 0.522196C12.5486 1.0374 12.8638 1.1404 13.276 1.468L13.2648 1.4744C12.9538 1.6514 12.7214 1.721 12.4918 2.0276C12.3652 2.1796 12.2796 2.3782 12.1888 2.5534C11.8166 1.8216 11.8152 1.843 11.093 1.4654C11.2096 1.3666 11.3414 1.2918 11.4686 1.2078C11.741 1.028 11.913 0.805396 12.0704 0.524396C12.1072 0.462996 12.1428 0.400196 12.1816 0.339996Z" fill="#FBFBFB"/>
<path d="M5.0424 17.3858C5.0064 17.4034 4.9686 17.42 4.934 17.4398C4.6272 17.6042 4.5658 17.792 4.3706 18.0376L4.3668 18.031C4.2614 17.8458 4.22 17.7074 4.0372 17.5706C3.9466 17.4952 3.8284 17.4442 3.724 17.39C4.1598 17.1682 4.1472 17.1674 4.372 16.7374C4.4308 16.807 4.4754 16.8854 4.5254 16.9612C4.6324 17.1234 4.765 17.2258 4.9324 17.3196C4.969 17.3416 5.0064 17.3628 5.0422 17.3858H5.0424Z" fill="#FBFBFB"/>
<path d="M12.1506 0.816002C12.1976 0.858002 12.2394 0.927202 12.2808 0.977002C12.4326 1.1606 12.5868 1.326 12.7994 1.4394C12.545 1.5768 12.3652 1.763 12.1996 1.9972L12.1956 1.9984C12.156 1.9858 11.9968 1.7634 11.9448 1.714C11.8316 1.6064 11.7026 1.5258 11.5696 1.4456C11.8142 1.2644 11.9912 1.0744 12.1506 0.816002Z" fill="#8B8DA8"/>
<path d="M7.12041 12.7452C7.05761 12.8152 6.95461 12.8778 6.88001 12.9394C6.60601 13.1658 6.35881 13.3962 6.19001 13.7136C5.98481 13.334 5.70681 13.0656 5.35741 12.8182L5.35541 12.8122C5.37401 12.753 5.70621 12.5154 5.77981 12.438C5.94041 12.2692 6.06081 12.0764 6.18061 11.878C6.45101 12.243 6.73481 12.5072 7.12041 12.7452Z" fill="#8B8DA8"/>
<path d="M4.73523 8.891C4.76663 8.9252 4.85803 9.1984 4.88623 9.2648C5.01843 9.313 5.15063 9.3668 5.27803 9.4262C5.19143 9.4518 5.09883 9.4748 5.01523 9.5088C4.84743 9.577 4.80963 9.7428 4.74523 9.8958C4.69563 9.7784 4.64883 9.6544 4.57383 9.5506C4.45863 9.496 4.32283 9.4612 4.20203 9.4186C4.32743 9.3588 4.45943 9.314 4.58663 9.2582C4.65023 9.1446 4.69123 9.0134 4.73543 8.8912L4.73523 8.891Z" fill="#E7B5C6"/>
<path d="M18.4482 18.0804C18.4796 18.1146 18.571 18.3878 18.5992 18.4542C18.7314 18.5024 18.8636 18.5562 18.991 18.6156C18.9044 18.6412 18.8118 18.6642 18.7282 18.6982C18.5604 18.7664 18.5226 18.9322 18.4582 19.0852C18.4086 18.9678 18.3618 18.8438 18.2868 18.74C18.1716 18.6854 18.0358 18.6506 17.915 18.608C18.0404 18.5482 18.1724 18.5034 18.2996 18.4476C18.3632 18.334 18.4042 18.2028 18.4484 18.0806L18.4482 18.0804Z" fill="#E7B5C6"/>
<path d="M18.8032 7.0418C18.9708 7.0226 19.1578 6.9984 19.3 6.9C19.4822 6.774 19.5038 6.5302 19.5382 6.3296C19.5724 6.5404 19.6058 6.7666 19.784 6.9066C19.924 6.9812 20.0736 7.0188 20.2274 7.0544C20.0338 7.0834 19.8134 7.103 19.6882 7.2752C19.5938 7.405 19.5702 7.5714 19.5294 7.7226C19.5088 7.5818 19.4788 7.4536 19.4152 7.3258C19.4084 7.3134 19.4008 7.3016 19.3928 7.29C19.2654 7.1064 19.0058 7.0786 18.8032 7.0418Z" fill="#F698BE"/>
<path d="M21.0266 15.9262C21.079 15.9202 21.127 15.9194 21.1704 15.9542C21.2084 15.9846 21.2222 16.0232 21.221 16.0708C21.2194 16.131 21.1828 16.1698 21.1408 16.2078C21.134 16.2082 21.1272 16.2086 21.1204 16.2088C21.0588 16.2102 21.0068 16.2014 20.9652 16.1526C20.9394 16.1224 20.9328 16.0918 20.9364 16.0532C20.9418 15.993 20.9828 15.9608 21.0266 15.9262Z" fill="#FBFBFB"/>
<path d="M5.54283 14.642C5.59523 14.636 5.64323 14.6352 5.68663 14.67C5.72463 14.7004 5.73843 14.739 5.73723 14.7866C5.73563 14.8468 5.69903 14.8856 5.65703 14.9236C5.65023 14.924 5.64343 14.9244 5.63663 14.9246C5.57503 14.926 5.52303 14.9172 5.48143 14.8684C5.45563 14.8382 5.44903 14.8076 5.45263 14.769C5.45803 14.7088 5.49903 14.6766 5.54283 14.642Z" fill="#FBFBFB"/>
<path d="M4.47842 13.0594C4.50942 13.0608 4.54482 13.0628 4.57142 13.081C4.60002 13.1004 4.61482 13.127 4.61482 13.1616C4.61482 13.2062 4.58202 13.2392 4.55442 13.2698C4.52102 13.2704 4.48782 13.2678 4.45962 13.247C4.43222 13.2268 4.42222 13.197 4.42262 13.1638C4.42322 13.1208 4.45222 13.0896 4.47842 13.0594Z" fill="#FBFBFB"/>
<path d="M5.122 7.4602C5.1298 7.4604 5.13759 7.4604 5.14539 7.4608C5.19539 7.4634 5.2396 7.4722 5.2714 7.5156C5.296 7.5492 5.30259 7.5734 5.29719 7.6148C5.28999 7.6722 5.2514 7.7032 5.2076 7.7342C5.188 7.7328 5.1682 7.7316 5.1488 7.7288C5.1048 7.7226 5.0652 7.6988 5.0416 7.66C5.0244 7.6314 5.0212 7.599 5.0294 7.567C5.0428 7.5134 5.07879 7.489 5.12219 7.4604L5.122 7.4602Z" fill="#FBFBFB"/>
<path d="M21.7332 9.9658C21.7768 9.9634 21.8242 9.9598 21.8596 9.9912C21.8858 10.0144 21.8946 10.0426 21.8928 10.077C21.8906 10.1186 21.8592 10.1506 21.8332 10.18C21.7932 10.1868 21.754 10.1874 21.718 10.1656C21.6892 10.148 21.6732 10.1238 21.6704 10.09C21.6658 10.0334 21.6964 10.0022 21.7332 9.9658Z" fill="#FBFBFB"/>
<path d="M3.06039 15.6954C3.10399 15.693 3.15139 15.6894 3.18679 15.7208C3.21299 15.744 3.22179 15.7722 3.21999 15.8066C3.21779 15.8482 3.18639 15.8802 3.16039 15.9096C3.12039 15.9164 3.08119 15.917 3.04519 15.8952C3.01639 15.8776 3.00039 15.8534 2.99759 15.8196C2.99299 15.763 3.02359 15.7318 3.06039 15.6954Z" fill="#FBFBFB"/>
<path d="M19.3188 5.6228C19.3662 5.6216 19.4078 5.6228 19.445 5.6574C19.4724 5.683 19.4792 5.709 19.4786 5.7454C19.4776 5.8054 19.4394 5.8432 19.3974 5.8802C19.3516 5.882 19.3084 5.8786 19.2718 5.846C19.2452 5.8224 19.234 5.79 19.2362 5.755C19.24 5.6922 19.2754 5.6622 19.3188 5.6228Z" fill="#FBFBFB"/>
<path d="M19.8258 13.2612C19.8732 13.2654 19.8968 13.2706 19.931 13.3036C19.938 13.347 19.9274 13.3644 19.9092 13.4026C19.869 13.397 19.8452 13.3944 19.814 13.3656C19.8006 13.3252 19.8124 13.2996 19.8256 13.2614L19.8258 13.2612Z" fill="#FBFBFB"/>
<path d="M5.7766 18.258C5.7992 18.2964 5.814 18.3418 5.8308 18.3834C5.8632 18.4036 5.9048 18.42 5.922 18.4542C5.9002 18.4764 5.8792 18.4994 5.8576 18.5216C5.8098 18.5704 5.7972 18.624 5.777 18.688C5.7682 18.647 5.7594 18.6046 5.7446 18.5652C5.7186 18.4966 5.6532 18.479 5.591 18.4514C5.6142 18.4238 5.6744 18.4162 5.7068 18.3966C5.7452 18.3734 5.7622 18.3002 5.7766 18.258Z" fill="#FBFBFB"/>
<path d="M3.95559 10.9178C3.98059 10.9318 3.99479 10.9448 4.01519 10.9644C4.01959 11.0066 4.00719 11.0198 3.98819 11.057C3.95259 11.0416 3.93779 11.0378 3.91339 11.0066C3.91839 10.9624 3.92959 10.9526 3.95559 10.9178Z" fill="#FBFBFB"/>
<path d="M17.472 13.3352C17.497 13.3492 17.5112 13.3622 17.5316 13.3818C17.536 13.424 17.5236 13.4372 17.5046 13.4744C17.469 13.459 17.4542 13.4552 17.4298 13.424C17.4348 13.3798 17.446 13.37 17.472 13.3352Z" fill="#FBFBFB"/>
<path d="M4.40481 8.6448C4.42981 8.6588 4.44401 8.6718 4.46441 8.6914C4.46881 8.7336 4.45641 8.7468 4.43741 8.784C4.40181 8.7686 4.38701 8.7648 4.36261 8.7336C4.36761 8.6894 4.37881 8.6796 4.40481 8.6448Z" fill="#FBFBFB"/>
<path d="M11.1556 2.9444C11.1806 2.9584 11.1948 2.9714 11.2152 2.991C11.2196 3.0332 11.2072 3.0464 11.1882 3.0836C11.1526 3.0682 11.1378 3.0644 11.1134 3.0332C11.1184 2.989 11.1296 2.9792 11.1556 2.9444Z" fill="#FBFBFB"/>
<path d="M19.8296 18.0458C19.8384 18.0468 19.8474 18.0472 19.8562 18.049C19.8944 18.0572 19.9002 18.064 19.9208 18.0946C19.9206 18.138 19.9042 18.1604 19.8816 18.1954C19.8504 18.1806 19.83 18.1664 19.8048 18.1428C19.798 18.0968 19.8092 18.0864 19.8296 18.0456V18.0458Z" fill="#FBFBFB"/>
<path d="M3.72479 13.7362C3.73359 13.7372 3.74259 13.7376 3.75139 13.7394C3.78959 13.7476 3.79539 13.7544 3.81599 13.785C3.81579 13.8284 3.79939 13.8508 3.77679 13.8858C3.74559 13.871 3.72519 13.8568 3.69999 13.8332C3.69319 13.7872 3.70439 13.7768 3.72479 13.736V13.7362Z" fill="#FBFBFB"/>
<path d="M17.5822 20.0774C17.5952 20.0786 17.608 20.0798 17.6208 20.082C17.681 20.0924 17.7332 20.117 17.7664 20.1708C17.79 20.2092 17.7982 20.2534 17.7868 20.2976C17.7688 20.367 17.7264 20.3984 17.667 20.4332C17.6424 20.4336 17.6178 20.4332 17.5936 20.4294C17.5458 20.4222 17.5066 20.3986 17.479 20.3588C17.454 20.3226 17.4466 20.2786 17.4552 20.236C17.4706 20.1592 17.5184 20.1168 17.5822 20.0774Z" fill="#FBFBFB"/>
<path d="M9.43541 1.889C9.47301 1.8862 9.50981 1.8832 9.54681 1.8936C9.58521 1.9044 9.62241 1.9384 9.64241 1.9722C9.66641 2.0128 9.66981 2.0612 9.65701 2.1062C9.63781 2.1736 9.59221 2.2068 9.53401 2.2398C9.50981 2.2404 9.48541 2.2402 9.46141 2.237C9.40801 2.2296 9.35961 2.199 9.32981 2.1536C9.30541 2.1164 9.29941 2.0714 9.31001 2.0284C9.32801 1.9558 9.37401 1.9254 9.43541 1.8892V1.889Z" fill="#FBFBFB"/>
<path d="M14.0858 2.5298C14.1118 2.5274 14.1368 2.5262 14.1626 2.5302C14.2166 2.5384 14.2628 2.5686 14.2926 2.6144C14.3174 2.6528 14.3228 2.7024 14.3128 2.7466C14.297 2.8166 14.2502 2.8528 14.192 2.8886C14.1684 2.8914 14.1462 2.8922 14.1226 2.8896C14.0702 2.884 14.0204 2.8618 13.9886 2.8182C13.96 2.7792 13.954 2.7288 13.9632 2.6822C13.9784 2.6058 14.0238 2.5712 14.0856 2.5296L14.0858 2.5298Z" fill="#FBFBFB"/>
<path d="M2.41303 9.8412C2.43903 9.8388 2.46403 9.8376 2.48983 9.8416C2.54383 9.8498 2.59003 9.88 2.61983 9.9258C2.64463 9.9642 2.65003 10.0138 2.64003 10.058C2.62423 10.128 2.57743 10.1642 2.51923 10.2C2.49563 10.2028 2.47343 10.2036 2.44983 10.201C2.39743 10.1954 2.34763 10.1732 2.31583 10.1296C2.28723 10.0906 2.28123 10.0402 2.29043 9.9936C2.30563 9.9172 2.35103 9.8826 2.41283 9.841L2.41303 9.8412Z" fill="#FBFBFB"/>
<path opacity="0.2" d="M22.5534 12.0022C22.5522 18.6288 17.8278 24 12 24C6.17219 24 1.44659 18.6276 1.44659 12C4.25779 14.687 7.28419 18.364 12.001 18.364C16.7178 18.364 19.8976 14.687 22.5532 12.0022H22.5534Z" fill="black"/>
<path opacity="0.25" d="M1.44659 11.9978C1.44779 5.3714 6.17219 0 12 0C17.8278 0 22.5534 5.3726 22.5534 12C19.7422 9.313 16.7158 5.636 11.999 5.636C7.28219 5.636 4.10239 9.313 1.44659 11.9978Z" fill="white"/>
<path d="M17.3692 15.6952C17.8158 15.4578 18.4118 14.6388 18.621 13.4828C18.8582 12.1726 18.956 11.5212 19.453 10.7758C19.8276 10.2138 20.45 10.2878 20.8196 10.6176C21.452 11.1824 21.5706 12.611 21.39 13.4468C21.197 14.3398 20.9212 15.3498 19.8936 16.4114C18.8658 17.473 18.0526 17.9362 17.3186 18.2636" fill="#FBFBFB"/>
<mask id="mask0_413_138" style="mask-type:luminance" maskUnits="userSpaceOnUse" x="17" y="10" width="5" height="9">
<path d="M19.8936 16.4116C20.9214 15.35 21.197 14.34 21.39 13.4468C21.5708 12.611 21.4522 11.1824 20.8196 10.6176C20.737 10.5438 20.6416 10.483 20.5394 10.439C20.5234 10.4366 19.3414 10.2724 19.0082 12.5814C18.6812 14.8468 18.27 15.0532 17.5398 15.9244C17.5398 15.9244 17.4648 16.006 17.3616 16.0934L17.3186 18.2636C18.0528 17.936 18.8658 17.473 19.8936 16.4114V16.4116Z" fill="white"/>
</mask>
<g mask="url(#mask0_413_138)">
<path d="M17.774 15.426C17.774 15.426 19.4128 15.2344 19.3514 16.9086L19.99 16.3762C19.99 16.3762 19.957 14.635 18.2234 14.8684L17.7742 15.426H17.774Z" fill="#F54E48"/>
<path d="M18.7023 17.4848C18.7023 17.4848 18.6539 16.5272 17.5397 15.9246L17.1823 16.3442L17.3461 17.1554L17.6803 17.0886C17.6803 17.0886 17.9797 17.42 17.8803 17.9726L18.7023 17.485V17.4848Z" fill="#F54E48"/>
<path d="M20.6784 15.3352C20.098 13.4616 18.5054 14.207 18.5054 14.207L18.6748 13.4072C20.5948 12.8814 21.1414 14.3734 21.1414 14.3734L20.6784 15.3352Z" fill="#F54E48"/>
<path d="M18.8218 12.618C18.8218 12.618 19.3992 12.0736 20.302 12.4348C21.2048 12.796 21.3332 13.3462 21.3442 13.5784H21.6792L21.3008 10.046H19.251L18.8218 12.6182V12.618Z" fill="#625B62"/>
<path opacity="0.2" d="M20.7874 10.5398C20.7874 10.5398 21.5752 13.4216 19.99 15.3994C18.4048 17.377 17.597 17.6184 15.874 18.2468L17.738 18.9966L20.402 17.881L21.7406 12.2894L21.0258 10.189L20.7876 10.5398H20.7874Z" fill="#231D02"/>
</g>
<path d="M17.3656 15.6882C17.6586 15.5072 17.866 15.219 18.0396 14.9276C18.296 14.4842 18.4616 13.9912 18.5476 13.4874C18.6064 13.1468 18.6562 12.8046 18.7182 12.4638C18.8098 11.9464 18.9332 11.4176 19.2196 10.969C19.3648 10.7394 19.5348 10.5114 19.7854 10.3882C20.2226 10.1618 20.7442 10.3576 21.0192 10.7386C21.4276 11.303 21.5052 12.0798 21.4928 12.7564C21.4848 13.0168 21.4554 13.2782 21.3968 13.5322C21.3412 13.7864 21.2822 14.0396 21.2074 14.2892C20.9696 15.1304 20.5128 15.9084 19.887 16.519C19.3982 17.0132 18.86 17.4664 18.2586 17.8178C17.959 17.995 17.644 18.1442 17.3218 18.271L17.3152 18.2564C17.8558 17.988 18.3702 17.671 18.8376 17.2902C19.037 17.1302 19.2336 16.9574 19.4188 16.7814C19.7918 16.429 20.1494 16.0564 20.4458 15.6366C20.8478 15.0804 21.1272 14.44 21.2892 13.7734C21.3288 13.606 21.3724 13.4388 21.3982 13.2686C21.4366 13.014 21.446 12.7548 21.4344 12.4976C21.4112 12.0724 21.3372 11.6426 21.1708 11.2498C21.071 11.0198 20.9398 10.802 20.746 10.6442C20.419 10.3766 19.9734 10.3658 19.662 10.664C19.5424 10.7752 19.448 10.9178 19.3618 11.0568C19.185 11.3454 19.0704 11.6636 18.9894 11.9924C18.866 12.49 18.79 13.0076 18.688 13.5136C18.5476 14.1962 18.2662 14.8698 17.7858 15.3832C17.6652 15.509 17.5302 15.625 17.373 15.7026L17.3654 15.6884L17.3656 15.6882Z" fill="#231F20"/>
<path d="M16.9532 19.058C17.6088 18.8338 17.823 17.5674 17.6656 16.2804C17.4508 14.5238 15.5164 12.5556 15.5164 12.5556C16.105 12.6836 16.6296 12.4028 16.6296 12.4028C16.0074 12.3972 15.4824 11.8552 15.4824 11.8552H8.74639C8.74639 11.8552 8.23919 12.3986 7.62179 12.142C7.62179 12.142 8.12379 12.6836 8.71239 12.5556C8.71239 12.5556 6.77799 14.5238 6.56319 16.2804C6.40579 17.5674 6.72239 18.6408 7.27559 19.058C7.27559 19.058 12.1154 20.713 16.9534 19.058H16.9532Z" fill="#FBFBFB"/>
<path d="M16.9284 19.11C17.584 18.8858 17.7982 17.6194 17.6408 16.3324C17.426 14.5758 15.4916 12.6076 15.4916 12.6076C16.0802 12.7356 16.6048 12.4548 16.6048 12.4548C15.9826 12.4492 15.4576 11.9072 15.4576 11.9072H8.72161C8.72161 11.9072 8.21441 12.4506 7.59701 12.194C7.59701 12.194 8.09901 12.7356 8.68761 12.6076C8.68761 12.6076 6.75321 14.5758 6.53841 16.3324C6.38101 17.6194 6.69761 18.6928 7.25081 19.11C7.25081 19.11 12.0906 20.765 16.9286 19.11H16.9284Z" fill="#FBFBFB"/>
<path d="M15.2872 12.5816L15.5658 12.898C15.5658 12.898 15.827 13.8232 14.365 14.3904C14.365 14.3904 15.1562 13.6024 15.287 12.5814L15.2872 12.5816Z" fill="#F54E48"/>
<path d="M15.9654 13.3956C16.174 13.6188 16.3682 13.9186 16.5512 14.2776C16.5512 14.2776 15.7674 15.053 14.612 14.9744C14.612 14.9744 15.7494 14.1626 15.9654 13.3956Z" fill="#F54E48"/>
<path d="M17.0866 15.2602C17.0866 15.2602 17.341 15.8638 17.3584 16.2606C17.3584 16.2606 17.0348 16.7058 16.025 16.692C16.025 16.692 16.8552 16.1548 17.0866 15.2602Z" fill="#F54E48"/>
<path d="M17.472 17.3734C17.472 17.3734 17.3604 18.0448 17.203 18.2848C17.203 18.2848 16.5554 18.317 15.9326 17.7402C15.9326 17.7402 16.6528 17.7528 17.4722 17.3732L17.472 17.3734Z" fill="#F54E48"/>
<path d="M8.93177 12.5816L8.65317 12.898C8.65317 12.898 8.39197 13.8232 9.85397 14.3904C9.85397 14.3904 9.06277 13.6024 8.93197 12.5814L8.93177 12.5816Z" fill="#F54E48"/>
<path d="M8.25359 13.3956C8.04499 13.6188 7.85079 13.9186 7.66779 14.2776C7.66779 14.2776 8.45159 15.053 9.60699 14.9744C9.60699 14.9744 8.46959 14.1626 8.25359 13.3956Z" fill="#F54E48"/>
<path d="M7.1324 15.2602C7.1324 15.2602 6.878 15.8638 6.8606 16.2606C6.8606 16.2606 7.1842 16.7058 8.194 16.692C8.194 16.692 7.3638 16.1548 7.1324 15.2602Z" fill="#F54E48"/>
<path d="M6.74721 17.3734C6.74721 17.3734 6.85881 18.0448 7.01621 18.2848C7.01621 18.2848 7.66381 18.317 8.28661 17.7402C8.28661 17.7402 7.56641 17.7528 6.74701 17.3732L6.74721 17.3734Z" fill="#F54E48"/>
<mask id="mask1_413_138" style="mask-type:luminance" maskUnits="userSpaceOnUse" x="6" y="11" width="12" height="9">
<path d="M16.9532 19.058C17.6088 18.8338 17.823 17.5674 17.6656 16.2804C17.4508 14.5238 15.5164 12.5556 15.5164 12.5556C16.105 12.6836 16.6296 12.4028 16.6296 12.4028C16.0074 12.3972 15.4824 11.8552 15.4824 11.8552H8.74639C8.74639 11.8552 8.23919 12.3986 7.62179 12.142C7.62179 12.142 8.12379 12.6836 8.71239 12.5556C8.71239 12.5556 6.77799 14.5238 6.56319 16.2804C6.40579 17.5674 6.72239 18.6408 7.27559 19.058C7.27559 19.058 12.1154 20.713 16.9534 19.058H16.9532Z" fill="white"/>
</mask>
<g mask="url(#mask1_413_138)">
<path opacity="0.2" d="M8.00896 12.2284C8.00896 12.2284 8.59076 12.4784 9.15996 12.0728V11.7238H15.3344C15.3344 11.7238 15.814 12.3308 16.148 12.5598L15.4894 12.556C15.4894 12.556 14.2694 13.851 12.8846 14.1378C12.8846 14.1378 12.946 14.3126 13.1288 14.4618C13.1288 14.4618 12.6354 14.6694 11.9898 13.767C11.9898 13.767 11.4174 14.1068 10.8668 14.0278C10.8668 14.0278 10.959 13.946 11.1276 13.839C11.1276 13.839 9.32996 13.6886 8.60756 12.6662L7.27576 12.0588L8.00896 12.2284Z" fill="#231D02"/>
<path opacity="0.2" d="M12.0872 18.9964C12.0872 18.9964 11.376 17.4912 11.3652 16.436C11.3652 16.436 10.8388 16.2086 10.463 15.934C10.463 15.934 12.0782 17.014 14.011 15.7974C14.011 15.7974 13.592 16.248 12.885 16.4194C12.885 16.4194 12.6208 18.0548 12.0874 18.9964H12.0872Z" fill="#231D02"/>
<path opacity="0.2" d="M6.74816 16.5694C6.74816 16.5694 6.51156 17.9408 7.44156 18.8964L9.98036 19.6282L8.67456 15.9058C8.67456 15.9058 8.47556 17.5142 7.65476 17.5142C6.98816 17.5142 6.74816 16.5694 6.74816 16.5694Z" fill="#231D02"/>
<path opacity="0.2" d="M15.5386 16.6412C15.5386 16.6412 16.2328 17.9638 17.203 18.285C17.203 18.285 16.8788 18.9562 16.4202 19.2498L14.004 19.5736L15.5386 16.6414V16.6412Z" fill="#231D02"/>
</g>
<path d="M16.9506 19.0504C17.5146 18.8374 17.6464 17.9942 17.6848 17.4644C17.711 16.9678 17.6858 16.4634 17.5768 15.9774C17.3998 15.2706 17.0312 14.6284 16.6228 14.0306C16.233 13.4664 15.7894 12.934 15.3106 12.4444C15.4692 12.4736 15.6736 12.5196 15.8356 12.5176C16.0302 12.5162 16.2242 12.4812 16.4086 12.4186C16.472 12.3962 16.5374 12.3716 16.5968 12.3418L16.6288 12.4722C16.1718 12.46 15.759 12.2076 15.439 11.897L15.482 11.9152C14.1788 11.9066 12.5644 11.8778 11.272 11.8802C11.0628 11.881 10.6392 11.878 10.43 11.88C9.86863 11.8804 9.30743 11.8828 8.74603 11.8866L8.76883 11.8766C8.69363 11.9538 8.61123 12.0174 8.52183 12.0736C8.34283 12.1858 8.13243 12.2574 7.91843 12.2484C7.81103 12.2452 7.70483 12.2196 7.60543 12.1804L7.65163 12.114C7.78883 12.2506 7.95743 12.3668 8.13663 12.4422C8.31423 12.5172 8.51243 12.5472 8.70063 12.5042L8.86683 12.4678L8.74943 12.5926C7.90463 13.5132 6.93003 14.831 6.67663 16.067C6.52043 16.9158 6.57863 18.1728 7.17023 18.8452C7.21843 18.8982 7.27063 18.9472 7.32663 18.9898L7.30283 18.9772C8.07823 19.2224 8.87843 19.3916 9.68203 19.5162C11.344 19.7686 13.0482 19.8258 14.7152 19.5858C14.8604 19.5614 15.0248 19.5374 15.1692 19.5112C15.4582 19.4558 15.784 19.3866 16.0682 19.3138C16.1596 19.287 16.4202 19.2176 16.5116 19.19C16.616 19.1584 16.846 19.0826 16.9504 19.0506L16.9506 19.0504ZM16.9556 19.0656C13.935 20.0872 10.6066 20.0798 7.54523 19.2302C7.44163 19.2006 7.33923 19.1692 7.23483 19.1346C7.10023 19.034 6.98743 18.9074 6.89563 18.7686C6.40783 18.0286 6.36463 16.886 6.52523 16.0366C6.79623 14.763 7.78623 13.447 8.67423 12.5188L8.72303 12.6072C8.51323 12.6512 8.29283 12.6144 8.09983 12.5284C7.90783 12.4424 7.73823 12.3212 7.59103 12.1704L7.45563 12.029L7.63723 12.104C7.81903 12.182 8.02423 12.193 8.21403 12.1366C8.40823 12.0802 8.59083 11.9664 8.73323 11.8242C9.29883 11.828 9.86443 11.8304 10.43 11.8308C12.0424 11.8338 13.8852 11.8134 15.5062 11.7952C15.7356 12.018 16.0184 12.2014 16.327 12.29C16.5014 12.3442 16.7286 12.334 16.9084 12.3366C16.7744 12.4054 16.5928 12.507 16.4542 12.5522C16.1498 12.658 15.8176 12.6926 15.5006 12.6262L15.567 12.5056C16.1004 13.0696 16.576 13.688 16.9732 14.3552C17.3246 14.9558 17.623 15.61 17.698 16.3084C17.7814 17.051 17.7868 18.7556 16.9552 19.066L16.9556 19.0656Z" fill="#231F20"/>
<path d="M16.9506 19.0504C17.7258 18.7526 17.7372 17.241 17.6678 16.5436C17.6016 15.6182 17.1462 14.7776 16.6302 14.0256C16.2396 13.4628 15.794 12.9322 15.3114 12.4474C15.4698 12.475 15.6744 12.519 15.8358 12.5154C16.0298 12.5124 16.2234 12.4772 16.4068 12.4128C16.4696 12.39 16.5346 12.3648 16.593 12.3344L16.629 12.4804C16.1684 12.4726 15.7494 12.2212 15.4242 11.9116L15.4824 11.9362C13.6018 11.938 10.6482 11.9334 8.74641 11.9238L8.79661 11.902C8.48741 12.211 8.01621 12.3836 7.59681 12.2018L7.66921 12.0978C7.73581 12.1666 7.81201 12.2292 7.89041 12.2844C8.04761 12.3942 8.22781 12.4798 8.41801 12.5052C8.51181 12.5182 8.60681 12.5144 8.69901 12.4954L8.89421 12.4552L8.75601 12.5986C7.90001 13.5108 6.98521 14.7266 6.67441 15.951C6.49981 16.7332 6.52621 17.7802 6.89021 18.503C6.99021 18.7016 7.12361 18.888 7.30061 19.0242C7.62341 19.1244 8.09101 19.253 8.47061 19.3356C10.5134 19.7896 12.6446 19.915 14.7176 19.5998C15.0606 19.5428 15.4334 19.4746 15.7712 19.3908C16.1576 19.3014 16.5736 19.1752 16.9504 19.0504H16.9506ZM16.9556 19.0656C14.6208 19.8518 12.0944 19.976 9.66541 19.6278C8.85301 19.5076 8.04581 19.3454 7.26161 19.0978L7.25541 19.0958L7.24981 19.0916C7.12381 18.9958 7.01761 18.8764 6.93041 18.7454C6.44701 18.0144 6.39721 16.884 6.55121 16.042C6.81281 14.7744 7.79501 13.4492 8.66781 12.5126L8.72481 12.6158C8.61861 12.6384 8.50861 12.6432 8.40161 12.629C8.08321 12.5854 7.79841 12.4092 7.57361 12.1862L7.36881 11.9716L7.64601 12.0822C8.01301 12.2402 8.42681 12.0782 8.69561 11.8084L8.71621 11.7868H8.74581C10.6564 11.7868 13.5934 11.7638 15.4818 11.7744H15.5158L15.54 11.799C15.7622 12.0134 16.033 12.1906 16.33 12.2788C16.5092 12.3378 16.7556 12.3258 16.9408 12.3318C16.8008 12.4018 16.6 12.5126 16.4562 12.5578C16.245 12.6286 16.021 12.6684 15.798 12.6614C15.6982 12.6606 15.5988 12.6444 15.5008 12.6254L15.5666 12.506C15.781 12.733 15.9806 12.9682 16.1736 13.2126C16.8216 14.0496 17.4584 15.0252 17.6622 16.0778C17.7564 16.688 17.7656 17.318 17.6564 17.927C17.57 18.3566 17.4064 18.8986 16.9552 19.0658L16.9556 19.0656Z" fill="#231F20"/>
<path d="M7.23943 7.5016C5.50023 5.4574 5.96703 2.7962 5.96703 2.7962C7.86063 2.9726 9.20463 4.8024 9.20463 4.8024L10.605 4.1586C10.605 4.1586 8.58343 2.4306 5.72963 2.4514C5.72963 2.4514 5.04843 5.2316 7.32983 8.2698L7.23943 7.5018V7.5016Z" fill="url(#paint2_linear_413_138)"/>
<path d="M9.92358 4.0262C8.66478 3.1198 6.89038 2.5382 6.89038 2.5382C8.39158 2.723 9.64658 3.4732 10.239 3.885" fill="#E7B5C6"/>
<path d="M7.23939 7.5016C5.50019 5.4574 5.96699 2.7962 5.96699 2.7962C7.86059 2.9726 9.20459 4.8024 9.20459 4.8024" fill="#F49493"/>
<path d="M8.00743 6.214C7.70243 6.1124 6.82503 6.4278 6.82503 6.4278C6.82503 6.4278 6.66903 6.4924 6.58643 6.5314L6.85923 6.9948L7.17223 7.4206L8.00763 6.214H8.00743Z" fill="#F54E48"/>
<path d="M9.20463 4.8022C9.20463 4.8022 8.02343 3.1942 6.31543 2.8476C6.31543 2.8476 7.71303 3.9948 7.90583 4.5712" fill="#F54E48"/>
<path d="M9.30622 4.7458C9.30622 4.7458 8.08642 4.0908 6.81342 4.581C6.81342 4.581 7.40882 4.6554 7.86062 5.0506C7.86062 5.0506 7.10462 5.0166 6.50562 5.7394C6.50562 5.7394 6.95182 5.5414 7.49662 5.646C7.49662 5.646 7.00162 6.05 6.82502 6.4276C6.82502 6.4276 7.70242 6.1122 8.00742 6.2138" fill="white"/>
<path d="M9.30437 4.7494C8.53057 4.4108 7.62637 4.318 6.82297 4.6058L6.81677 4.5548C7.21257 4.63 7.59337 4.8004 7.89877 5.0648C7.62837 5.0596 7.35857 5.1448 7.12237 5.2728C6.89597 5.3952 6.69817 5.5656 6.53537 5.7642L6.48997 5.7042C6.81037 5.575 7.16577 5.5394 7.50437 5.6054L7.59137 5.6222C7.50297 5.693 7.41357 5.7698 7.33117 5.848C7.14737 6.0234 6.96737 6.2124 6.84897 6.439L6.81597 6.4028C6.91277 6.3702 7.00977 6.341 7.10777 6.3136C7.35117 6.2494 7.76877 6.136 8.00857 6.2102L8.00597 6.2178C7.71517 6.142 7.06797 6.3676 6.77497 6.4746C6.88297 6.209 7.07577 5.991 7.27617 5.791C7.33877 5.7298 7.40257 5.6712 7.47017 5.614L7.48857 5.687C7.16757 5.63 6.82557 5.6588 6.52117 5.7748L6.37457 5.8342L6.47577 5.7148C6.64697 5.5118 6.85697 5.3392 7.09557 5.2216C7.33377 5.1056 7.59497 5.0354 7.86097 5.037L7.85137 5.061C7.63577 4.8692 7.36857 4.7388 7.09057 4.664C6.96657 4.6288 6.83517 4.6086 6.70817 4.5948C7.03737 4.4508 7.39277 4.3666 7.75297 4.3646C8.18477 4.358 8.61677 4.444 9.01637 4.6048C9.11597 4.6454 9.21417 4.689 9.30757 4.7424L9.30377 4.7494H9.30437Z" fill="#010101"/>
<path d="M7.23941 7.5016C6.40861 6.5494 5.97181 5.3012 5.89361 4.049C5.86781 3.6184 5.87241 3.185 5.93741 2.7574C5.95321 2.7584 6.07301 2.7738 6.09281 2.7754C7.03741 2.895 7.88501 3.4144 8.57421 4.0506C8.81501 4.2748 9.04221 4.5124 9.24301 4.7738L9.18421 4.7586L10.5842 4.1136L10.5728 4.1958C10.2358 3.9226 9.86361 3.69 9.48321 3.4812C8.71801 3.0646 7.88781 2.764 7.02981 2.6092C6.60101 2.5322 6.16521 2.4946 5.72961 2.4946L5.77161 2.4614C5.66801 2.9622 5.65821 3.483 5.69081 3.9928C5.74501 4.7616 5.92541 5.5256 6.20901 6.2418C6.49121 6.962 6.87761 7.6416 7.33581 8.2646L7.32121 8.2704L7.23901 7.5014L7.23941 7.5016ZM7.23941 7.5016L7.33781 8.2686L7.34161 8.2986L7.32321 8.2744C6.89361 7.709 6.52081 7.0926 6.23641 6.4404C6.00461 5.9084 5.82741 5.3408 5.72081 4.7704C5.58121 4.0042 5.53681 3.2092 5.68721 2.4408L5.69441 2.4078H5.72921C6.61181 2.4008 7.49341 2.5586 8.32401 2.8554C9.05021 3.116 9.74441 3.47 10.3726 3.9186C10.483 3.9968 10.5918 4.0822 10.6966 4.1706L10.6256 4.2032L9.22461 4.8458L9.18961 4.8618C9.08601 4.7236 8.97241 4.59 8.85401 4.4616C8.14461 3.7008 7.24401 3.051 6.20301 2.8646C6.13381 2.85 6.03401 2.8404 5.96381 2.8308L6.00161 2.802C5.88301 3.6248 5.94121 4.4718 6.13481 5.2792C6.33261 6.0898 6.70601 6.8586 7.23941 7.5014V7.5016Z" fill="#010101"/>
<path d="M17.0022 7.5016C18.7414 5.4574 18.2746 2.7962 18.2746 2.7962C16.381 2.9726 15.037 4.8024 15.037 4.8024L13.6366 4.1586C13.6366 4.1586 15.6582 2.4306 18.512 2.4514C18.512 2.4514 19.1932 5.2316 16.9118 8.2698L17.0022 7.5018V7.5016Z" fill="url(#paint3_linear_413_138)"/>
<path d="M14.318 4.0262C15.5768 3.1198 17.3512 2.5382 17.3512 2.5382C15.85 2.723 14.595 3.4732 14.0026 3.885" fill="#E7B5C6"/>
<path d="M17.0022 7.5016C18.7414 5.4574 18.2746 2.7962 18.2746 2.7962C16.381 2.9726 15.037 4.8024 15.037 4.8024" fill="#F49493"/>
<path d="M16.2342 6.214C16.5392 6.1124 17.4166 6.4278 17.4166 6.4278C17.4166 6.4278 17.5726 6.4924 17.6552 6.5314L17.3824 6.9948L17.0694 7.4206L16.234 6.214H16.2342Z" fill="#F54E48"/>
<path d="M15.037 4.8022C15.037 4.8022 16.2182 3.1942 17.9262 2.8476C17.9262 2.8476 16.5286 3.9948 16.3358 4.5712" fill="#F54E48"/>
<path d="M14.9352 4.7458C14.9352 4.7458 16.155 4.0908 17.428 4.581C17.428 4.581 16.8326 4.6554 16.3808 5.0506C16.3808 5.0506 17.1368 5.0166 17.7358 5.7394C17.7358 5.7394 17.2896 5.5414 16.7448 5.646C16.7448 5.646 17.2398 6.05 17.4164 6.4276C17.4164 6.4276 16.539 6.1122 16.234 6.2138" fill="white"/>
<path d="M14.9334 4.7422C15.4074 4.4872 15.95 4.3586 16.4882 4.3646C16.8484 4.3666 17.2038 4.4508 17.533 4.5948C17.4058 4.6088 17.2748 4.6288 17.1506 4.664C16.8728 4.7388 16.6056 4.869 16.3898 5.061L16.3802 5.037C16.7122 5.0364 17.04 5.1422 17.3188 5.3198C17.4872 5.4268 17.6368 5.5626 17.7654 5.7148L17.8666 5.8342L17.72 5.7748C17.4928 5.6868 17.2404 5.6514 16.9966 5.66C16.9148 5.664 16.833 5.6722 16.7524 5.687L16.7708 5.614C16.9052 5.7278 17.0288 5.8496 17.1448 5.9812C17.2746 6.1288 17.3916 6.2908 17.4658 6.4744C17.1738 6.368 16.5262 6.1418 16.2348 6.2176L16.2322 6.21C16.4724 6.1358 16.8888 6.249 17.133 6.3134C17.231 6.3408 17.3278 6.37 17.4248 6.4026L17.3918 6.4388C17.2736 6.2124 17.0934 6.0234 16.9098 5.8478C16.8274 5.7696 16.7378 5.6928 16.6496 5.622L16.7366 5.6052C17.0754 5.5392 17.4306 5.5748 17.751 5.704L17.7056 5.764C17.5428 5.5654 17.345 5.3948 17.1186 5.2726C16.8824 5.1448 16.6128 5.0594 16.3422 5.0646C16.6476 4.8002 17.0282 4.63 17.4242 4.5546L17.418 4.6056C16.8174 4.3896 16.1564 4.3882 15.541 4.5434C15.335 4.5954 15.131 4.6608 14.9366 4.7492L14.9328 4.7422H14.9334Z" fill="#010101"/>
<path d="M17.0022 7.5016C17.5356 6.8588 17.9092 6.09 18.1068 5.2794C18.3004 4.472 18.3586 3.6252 18.24 2.8022L18.2778 2.831C18.2068 2.8398 18.1076 2.851 18.0386 2.8648C16.9974 3.0512 16.097 3.701 15.3876 4.4618C15.2692 4.5902 15.1556 4.7238 15.052 4.862L15.017 4.846L13.616 4.2034L13.545 4.1708C13.6502 4.0824 13.7586 3.997 13.869 3.9188C14.4974 3.4702 15.1914 3.1162 15.9176 2.8556C16.7482 2.5588 17.6298 2.401 18.5124 2.408H18.5472L18.5544 2.441C18.7048 3.2094 18.6604 4.0044 18.5208 4.7706C18.4142 5.3412 18.237 5.9086 18.0052 6.4406C17.7208 7.0926 17.3482 7.709 16.9184 8.2746L16.9 8.2988L16.9038 8.2688L17.0022 7.5018V7.5016ZM17.0022 7.5016L16.92 8.2706L16.9054 8.2648C17.3638 7.6418 17.7502 6.9622 18.0322 6.242C18.3158 5.5256 18.4962 4.7618 18.5504 3.993C18.583 3.4832 18.5734 2.9624 18.4696 2.4616L18.5116 2.4948C18.076 2.4948 17.6402 2.5322 17.2114 2.6094C16.3536 2.7642 15.5232 3.065 14.758 3.4814C14.3776 3.6902 14.0054 3.9228 13.6684 4.196L13.657 4.1138L15.057 4.7588L14.9984 4.774C15.1992 4.5124 15.4264 4.275 15.6672 4.0508C16.3564 3.4146 17.2042 2.8952 18.1486 2.7756C18.166 2.7742 18.287 2.759 18.304 2.7576C18.3692 3.1852 18.3738 3.6186 18.348 4.0492C18.2698 5.3014 17.833 6.5496 17.0022 7.5018V7.5016Z" fill="#010101"/>
<path d="M15.129 11.9882C15.129 11.9882 13.8348 12.7778 12.0988 12.7778H12.0924C10.3564 12.7778 9.06219 11.9882 9.06219 11.9882" fill="#E01915"/>
<path d="M12.094 12.4028C16.3898 12.4028 18.1416 10.106 18.1416 10.106C18.081 9.9548 17.8918 9.7774 17.8918 9.7774C18.3946 9.388 18.7608 9.4226 18.7608 9.4226C18.416 9.164 17.5922 8.868 17.5922 8.868C18.2698 8.8116 18.8578 9.0484 18.8578 9.0484C18.3162 8.4948 17.2336 8.0176 17.2336 8.0176C17.2336 8.0176 16.1824 3.526 12.094 3.526C8.0056 3.526 6.9544 8.0176 6.9544 8.0176C6.9544 8.0176 5.8716 8.4948 5.3302 9.0484C5.3302 9.0484 5.918 8.8114 6.5958 8.868C6.5958 8.868 5.772 9.164 5.4272 9.4226C5.4272 9.4226 5.7936 9.388 6.2962 9.7774C6.2962 9.7774 6.1068 9.9546 6.0464 10.106C6.0464 10.106 7.7982 12.4028 12.094 12.4028Z" fill="#FBFBFB"/>
<path d="M6.22479 10.2274C6.22479 10.2274 6.86159 9.5462 8.03499 9.5022C8.03499 9.5022 7.15019 10.013 6.93499 10.8756C6.93499 10.8756 6.57119 10.745 6.22479 10.2274Z" fill="#F54E48"/>
<path d="M6.85163 8.3728C6.85163 8.3728 5.84083 8.7458 5.52283 8.94C5.52283 8.94 6.28123 8.7298 6.84903 8.836C6.84903 8.836 6.75603 8.6204 6.85163 8.3728Z" fill="#F54E48"/>
<path d="M11.195 3.8564C11.1972 3.972 11.169 4.1242 11.1648 4.24C11.1536 4.5556 11.1726 4.8624 11.2328 5.1724C11.1186 5.0836 11.035 4.9772 10.948 4.8666C10.7524 4.6104 10.6602 4.327 10.5008 4.0564C10.7034 3.9656 11.1554 3.8604 11.195 3.8562V3.8564Z" fill="#F54E48"/>
<path d="M12.7696 3.825C12.7278 3.9738 12.7146 4.0906 12.6692 4.239C12.5304 4.693 12.3254 5.1206 12.0974 5.5418C11.7082 5.1954 11.5804 4.2838 11.5198 3.805C11.8164 3.755 12.3332 3.7344 12.7694 3.8252L12.7696 3.825Z" fill="#F54E48"/>
<path d="M10.0602 5.0626C10.6762 5.0858 9.96202 5.5936 9.69622 5.5954C9.45162 5.6382 9.32482 5.517 9.52302 5.3164C9.65522 5.1742 9.85762 5.0764 10.0604 5.0628L10.0602 5.0626Z" fill="#3B3334"/>
<path d="M9.86442 19.4696C9.86442 19.4696 9.59102 19.3342 9.25462 19.1562C8.93582 18.9874 8.12922 18.5758 7.62822 18.809C7.20782 19.0046 7.14262 19.3286 7.12562 19.4414C7.10862 19.5542 6.98822 20.423 8.35862 20.3892C9.72902 20.3554 10.2034 19.881 10.2034 19.881" fill="#FBFBFB"/>
<path d="M9.86441 19.4696C9.26281 19.2242 8.17041 18.518 7.55841 18.92C7.28501 19.0828 7.14581 19.3736 7.19441 19.6886C7.28961 20.3098 8.04661 20.3514 8.54921 20.3258C8.83721 20.3138 9.12701 20.2822 9.40801 20.2166C9.58381 20.1756 9.75741 20.1208 9.92221 20.0462C10.0198 20.0006 10.1194 19.9496 10.2034 19.881C10.0984 19.9834 9.96941 20.0588 9.83801 20.1242C9.43921 20.3174 8.99481 20.4002 8.55581 20.4348C8.12541 20.4688 7.59641 20.4662 7.26341 20.1342C7.03581 19.9026 6.99282 19.539 7.10782 19.2436C7.22102 18.9516 7.51601 18.7338 7.82141 18.6894C8.53121 18.6146 9.26541 19.1444 9.86481 19.4698L9.86441 19.4696Z" fill="#231F20"/>
<mask id="mask2_413_138" style="mask-type:luminance" maskUnits="userSpaceOnUse" x="7" y="18" width="4" height="3">
<path d="M9.86442 19.4696C9.86442 19.4696 9.59102 19.3342 9.25462 19.1562C8.93582 18.9874 8.12922 18.5758 7.62822 18.809C7.20782 19.0046 7.14262 19.3286 7.12562 19.4414C7.10862 19.5542 6.98822 20.423 8.35862 20.3892C9.72902 20.3554 10.2034 19.881 10.2034 19.881" fill="white"/>
</mask>
<g mask="url(#mask2_413_138)">
<path opacity="0.2" d="M7.13705 19.465C7.17705 19.5328 7.30185 19.69 7.50785 19.6108L7.54325 19.7606C7.54325 19.7606 7.91125 20.1262 8.42645 19.906C8.43625 19.9018 8.46305 19.964 8.47305 19.96C8.47305 19.96 9.01525 20.2028 9.46325 19.7314C9.74805 19.4318 9.50304 19.3022 9.50304 19.3022L10.1412 19.3238V20.1344L8.56845 20.5012L7.22164 20.3184L6.95905 19.5842L7.13685 19.465H7.13705Z" fill="#231D02"/>
</g>
<path d="M7.58297 19.3744C7.51297 19.6224 7.50337 19.9162 7.65997 20.1318C7.70797 20.1984 7.79737 20.2594 7.86737 20.2998L7.75817 20.3958C7.42257 20.142 7.41957 19.7268 7.58297 19.3744Z" fill="#231F20"/>
<path d="M8.4582 19.798C8.43 20.0064 8.4898 20.2748 8.7306 20.309L8.6806 20.4204C8.4016 20.3068 8.3642 20.0526 8.4582 19.798Z" fill="#231F20"/>
<path d="M14.364 19.4696C14.364 19.4696 14.6322 19.324 14.9738 19.1562C15.482 18.9066 16.2004 18.6172 16.6002 18.809C17.0182 19.0094 17.0858 19.3286 17.1028 19.4414C17.1198 19.5542 17.2402 20.423 15.8698 20.3892C14.4994 20.3554 14.025 19.881 14.025 19.881" fill="#FBFBFB"/>
<path d="M14.364 19.4696C14.9174 19.1478 15.7556 18.637 16.4092 18.693C16.4878 18.7018 16.5678 18.722 16.6386 18.7572C16.8504 18.8566 17.035 19.0246 17.1216 19.248C17.2706 19.6294 17.1448 20.0816 16.7742 20.2804C16.2624 20.5698 15.3482 20.4338 14.8018 20.2826C14.6276 20.229 14.451 20.1628 14.2924 20.0728C14.1978 20.0194 14.102 19.958 14.0252 19.881C14.1388 19.971 14.2722 20.0346 14.406 20.0886C14.81 20.2474 15.2458 20.3068 15.6774 20.3258C16.1794 20.3512 16.9352 20.3114 17.0336 19.6924C17.0914 19.3336 16.9022 19.0284 16.5826 18.8716C16.0418 18.6056 14.8912 19.2348 14.364 19.4698V19.4696Z" fill="#231F20"/>
<mask id="mask3_413_138" style="mask-type:luminance" maskUnits="userSpaceOnUse" x="14" y="18" width="4" height="3">
<path d="M14.364 19.4696C14.364 19.4696 14.6374 19.3342 14.9738 19.1562C15.2926 18.9874 16.0992 18.5758 16.6002 18.809C17.0206 19.0046 17.0858 19.3286 17.1028 19.4414C17.1198 19.5542 17.2402 20.423 15.8698 20.3892C14.4994 20.3554 14.025 19.881 14.025 19.881" fill="white"/>
</mask>
<g mask="url(#mask3_413_138)">
<path opacity="0.2" d="M17.0914 19.465C17.0514 19.5328 16.922 19.697 16.7158 19.618L16.6852 19.7606C16.6852 19.7606 16.3174 20.1266 15.8022 19.9062C15.7924 19.902 15.7654 19.9638 15.7554 19.96C15.7554 19.96 15.2132 20.2028 14.7652 19.7314C14.4804 19.4318 14.7254 19.3022 14.7254 19.3022L14.0872 19.3238V20.1344L15.66 20.5012L17.0068 20.3184L17.2694 19.5842L17.0916 19.465H17.0914Z" fill="#231D02"/>
</g>
<path d="M16.6454 19.3744C16.8088 19.727 16.8066 20.1362 16.471 20.39L16.3486 20.2994C16.4186 20.259 16.5202 20.1984 16.5682 20.1318C16.7248 19.9162 16.7154 19.6224 16.6452 19.3744H16.6454Z" fill="#231F20"/>
<path d="M15.7702 19.798C15.8644 20.0528 15.8294 20.3098 15.5506 20.4234L15.4678 20.3182C15.7086 20.284 15.7984 20.0064 15.7702 19.798Z" fill="#231F20"/>
<path d="M12.0926 7.732C12.2834 7.732 12.438 7.66583 12.438 7.5842C12.438 7.50257 12.2834 7.4364 12.0926 7.4364C11.9018 7.4364 11.7472 7.50257 11.7472 7.5842C11.7472 7.66583 11.9018 7.732 12.0926 7.732Z" fill="#231F20"/>
<path d="M9.33242 6.2972C8.44122 6.3064 7.88022 6.8906 7.85182 7.644C7.84302 7.876 7.92722 8.1 8.07102 8.3C8.07742 8.3088 8.09102 8.3012 8.08702 8.291C7.98422 8.0398 7.80082 7.4244 8.36642 7.2196L9.30382 6.4824C9.30382 6.4824 9.37622 6.1956 10.1958 6.6254C10.2058 6.6306 10.2144 6.617 10.2058 6.61C9.95922 6.4142 9.65622 6.2938 9.33262 6.2972H9.33242Z" fill="#D5C2C3"/>
<path d="M10.5026 7.7334C10.5026 8.3696 10.0876 8.7104 9.44119 8.7104C8.79479 8.7104 8.22339 8.1862 8.22339 7.55C8.22339 6.9138 8.69319 6.5012 9.33959 6.5012C9.98599 6.5012 10.5026 7.0972 10.5026 7.7334Z" fill="#231F20"/>
<mask id="mask4_413_138" style="mask-type:luminance" maskUnits="userSpaceOnUse" x="8" y="6" width="3" height="3">
<path d="M10.5026 7.7334C10.5026 8.3696 10.0876 8.7104 9.44119 8.7104C8.79479 8.7104 8.22339 8.1862 8.22339 7.55C8.22339 6.9138 8.69319 6.5012 9.33959 6.5012C9.98599 6.5012 10.5026 7.0972 10.5026 7.7334Z" fill="white"/>
</mask>
<g mask="url(#mask4_413_138)">
<path d="M9.59281 9.1236C10.0874 9.1236 10.4884 8.72889 10.4884 8.242C10.4884 7.7551 10.0874 7.3604 9.59281 7.3604C9.09818 7.3604 8.6972 7.7551 8.6972 8.242C8.6972 8.72889 9.09818 9.1236 9.59281 9.1236Z" fill="#8B8DA8"/>
</g>
<path d="M8.94613 7.33441C9.15521 7.25682 9.27823 7.06867 9.22089 6.91416C9.16355 6.75966 8.94758 6.6973 8.7385 6.77489C8.52942 6.85248 8.40641 7.04063 8.46374 7.19514C8.52108 7.34965 8.73705 7.412 8.94613 7.33441Z" fill="#FBFBFB"/>
<path d="M10.6558 8.7218C10.9838 10.736 11.9676 10.9222 12.0958 10.9222C12.224 10.9222 13.1808 10.7358 13.5086 8.7216C13.3834 8.7522 13.2326 8.7506 13.029 8.7196C12.7332 8.6744 12.216 8.3104 12.1034 8.229C12.0902 8.2194 12.0726 8.2194 12.0594 8.229C11.947 8.3104 11.4316 8.6744 11.136 8.7194C10.9324 8.7504 10.7816 8.752 10.6564 8.7214H10.656L10.6558 8.7218Z" fill="#AF1E3A"/>
<mask id="mask5_413_138" style="mask-type:luminance" maskUnits="userSpaceOnUse" x="10" y="8" width="4" height="3">
<path d="M10.6558 8.7218C10.9838 10.736 11.9676 10.9222 12.0958 10.9222C12.224 10.9222 13.1808 10.7358 13.5086 8.7216C13.3834 8.7522 13.2326 8.7506 13.029 8.7196C12.7332 8.6744 12.216 8.3104 12.1034 8.229C12.0902 8.2194 12.0726 8.2194 12.0594 8.229C11.947 8.3104 11.4316 8.6744 11.136 8.7194C10.9324 8.7504 10.7816 8.752 10.6564 8.7214H10.656L10.6558 8.7218Z" fill="white"/>
</mask>
<g mask="url(#mask5_413_138)">
<path d="M11.1764 10.184C11.1128 10.2686 11.0828 10.3738 11.0892 10.4796C11.1262 11.0882 11.3792 11.7744 12.064 11.7744C12.8102 11.7744 13.4152 11.2544 13.4152 10.6132C13.4152 10.0862 13.0068 9.6416 12.4472 9.4996C12.4038 9.5002 11.6766 9.5184 11.1764 10.184Z" fill="#E7B5C6"/>
<path d="M12.4472 9.4996C12.3256 9.4688 12.1972 9.452 12.064 9.452C11.5818 9.452 11.159 9.6692 10.9198 9.9958L11.0842 10.3184C11.5816 9.521 12.401 9.5002 12.447 9.4998L12.4472 9.4996Z" fill="#F698BE"/>
</g>
<path d="M10.8598 8.7836C10.6768 8.7836 10.5422 8.743 10.4184 8.6562L10.4642 8.5906C10.6252 8.7034 10.8118 8.7284 11.1298 8.6798C11.4178 8.6358 11.935 8.2694 12.0358 8.1964C12.063 8.1766 12.0996 8.1766 12.1268 8.1964C12.228 8.2694 12.747 8.6358 13.0352 8.6798C13.3532 8.7282 13.5398 8.7032 13.7008 8.5906L13.7466 8.6562C13.5666 8.7822 13.3638 8.811 13.023 8.759C12.7254 8.7136 12.2288 8.3688 12.0814 8.2624C11.9344 8.3688 11.4396 8.7136 11.142 8.759C11.0358 8.7752 10.9428 8.7836 10.86 8.7836H10.8598Z" fill="#231F20"/>
<path d="M12.0958 10.9622C12.0926 10.9622 11.7806 10.9582 11.4228 10.6056C11.0274 10.216 10.7562 9.5842 10.6168 8.7278L10.6958 8.715C11.039 10.8232 12.0854 10.8822 12.0958 10.8822C12.1062 10.8822 13.1258 10.8232 13.469 8.715L13.548 8.7278C13.4086 9.5844 13.142 10.216 12.7556 10.6052C12.4054 10.958 12.0988 10.962 12.0958 10.962V10.9622Z" fill="#231F20"/>
<path d="M12.213 7.5164C12.214 7.5344 12.1358 7.5284 12.0446 7.5336C11.9534 7.5388 11.884 7.5532 11.883 7.5352C11.882 7.5172 11.9576 7.4792 12.0486 7.474C12.1396 7.4688 12.2118 7.4984 12.2128 7.5164H12.213Z" fill="white"/>
<path d="M15.651 15.5236C15.651 15.5236 15.1946 18.776 14.0974 19.95C13.0002 21.1242 11.9512 20.37 12.0704 19.415C12.1886 18.4684 12.6704 17.7586 12.8524 16.5614" fill="#FBFBFB"/>
<mask id="mask6_413_138" style="mask-type:luminance" maskUnits="userSpaceOnUse" x="12" y="15" width="4" height="6">
<path d="M15.6228 15.5236C15.6228 15.5236 15.1664 18.776 14.0692 19.95C12.972 21.1242 11.923 20.37 12.0422 19.415C12.1604 18.4684 12.6422 17.7586 12.8242 16.5614" fill="white"/>
</mask>
<g mask="url(#mask6_413_138)">
<path opacity="0.2" d="M15.369 16.9898C15.369 16.9898 14.224 19.639 13.6366 19.8658L13.5656 20.002C13.5656 20.002 12.967 20.4092 12.6206 20.0386C12.6206 20.0386 12.618 19.9306 12.5792 19.95C12.3722 20.0536 12.151 19.9462 12.0408 19.7454L12.136 20.4884L14.0474 20.6936L15.5354 17.1556L15.3688 16.99L15.369 16.9898Z" fill="#231D02"/>
</g>
<path d="M15.5546 15.9008C15.5546 15.9008 14.9742 16.4952 13.7134 16.3486C13.7134 16.3486 14.3284 16.96 15.4044 16.8178C15.4044 16.8178 15.5622 16.36 15.5546 15.9008Z" fill="#F54E48"/>
<path d="M15.3096 17.1636C15.3096 17.1636 14.5626 17.6544 13.5376 17.2784C13.5376 17.2784 14.1776 18.179 15.0204 18.0754C15.0204 18.0754 15.2678 17.6358 15.3096 17.1638V17.1636Z" fill="#F54E48"/>
<path d="M15.651 15.5236C15.5124 16.6268 15.2784 17.7278 14.8684 18.7644C14.6548 19.283 14.389 19.8022 13.9606 20.1792C13.7886 20.3326 13.5946 20.464 13.376 20.5424C12.7588 20.7772 12.147 20.4416 12.0224 19.7928C11.9758 19.565 12.0186 19.332 12.0668 19.1094C12.2126 18.454 12.5148 17.8516 12.697 17.2082C12.7594 16.9952 12.8098 16.7792 12.8522 16.5612C12.8242 16.7818 12.7864 17.0016 12.7344 17.2182C12.576 17.9064 12.2686 18.5556 12.1514 19.2528C12.1452 19.2982 12.1354 19.37 12.129 19.4152C12.0716 19.8438 12.2918 20.3092 12.7194 20.4426C13.05 20.5484 13.4058 20.4194 13.679 20.2254C14.0148 19.992 14.2678 19.666 14.4664 19.3094C15.094 18.1398 15.3924 16.818 15.6508 15.5234L15.651 15.5236Z" fill="#231F20"/>
<path d="M8.57739 15.5236C8.57739 15.5236 9.03379 18.776 10.131 19.95C11.2282 21.1242 12.2772 20.37 12.158 19.415C12.0398 18.4684 11.558 17.7586 11.376 16.5614" fill="#FBFBFB"/>
<path d="M8.66457 15.9008C8.66457 15.9008 9.24497 16.4952 10.5058 16.3486C10.5058 16.3486 9.89077 16.96 8.81477 16.8178C8.81477 16.8178 8.65697 16.36 8.66457 15.9008Z" fill="#F54E48"/>
<path d="M8.90942 17.1636C8.90942 17.1636 9.65642 17.6544 10.6814 17.2784C10.6814 17.2784 10.0414 18.179 9.19862 18.0754C9.19862 18.0754 8.95122 17.6358 8.90942 17.1638V17.1636Z" fill="#F54E48"/>
<path d="M8.57741 15.5236C8.83581 16.818 9.13441 18.14 9.76181 19.3096C9.96041 19.666 10.2134 19.9922 10.5492 20.2256C10.8224 20.4196 11.1782 20.5488 11.5088 20.4428C11.9364 20.3094 12.1566 19.8444 12.0992 19.4154C12.093 19.37 12.083 19.2982 12.0768 19.253C11.9596 18.5558 11.6522 17.9066 11.4938 17.2184C11.4418 17.002 11.404 16.782 11.376 16.5614C11.4184 16.7794 11.4688 16.9954 11.5312 17.2084C11.7134 17.8518 12.0156 18.4542 12.1614 19.1096C12.2096 19.332 12.2524 19.565 12.2058 19.793C12.0812 20.4416 11.4696 20.7776 10.8522 20.5426C10.6336 20.4642 10.4396 20.3326 10.2676 20.1794C9.83921 19.8024 9.57361 19.2832 9.35981 18.7646C8.95001 17.728 8.71601 16.627 8.57721 15.5238L8.57741 15.5236Z" fill="#231F20"/>
<path d="M18.0222 10.2274C18.0222 10.2274 17.3854 9.5462 16.212 9.5022C16.212 9.5022 17.0968 10.013 17.312 10.8756C17.312 10.8756 17.6758 10.745 18.0222 10.2274Z" fill="#F54E48"/>
<path d="M17.3952 8.3728C17.3952 8.3728 18.406 8.7458 18.724 8.94C18.724 8.94 17.9656 8.7298 17.3978 8.836C17.3978 8.836 17.4908 8.6204 17.3952 8.3728Z" fill="#F54E48"/>
<path d="M14.1866 5.0626C13.5706 5.0858 14.2848 5.5936 14.5506 5.5954C14.7952 5.6382 14.922 5.517 14.7238 5.3164C14.5916 5.1742 14.3892 5.0764 14.1864 5.0628L14.1866 5.0626Z" fill="#3B3334"/>
<path d="M14.9146 6.2972C15.8058 6.3064 16.3668 6.8906 16.3952 7.644C16.404 7.876 16.3198 8.1 16.176 8.3C16.1696 8.3088 16.156 8.3012 16.16 8.291C16.2628 8.0398 16.4462 7.4244 15.8806 7.2196L14.9432 6.4824C14.9432 6.4824 14.8708 6.1956 14.0512 6.6254C14.0412 6.6306 14.0326 6.617 14.0412 6.61C14.2878 6.4142 14.5908 6.2938 14.9144 6.2972H14.9146Z" fill="#D5C2C3"/>
<path d="M13.7442 7.7334C13.7442 8.3696 14.1592 8.7104 14.8056 8.7104C15.452 8.7104 16.0234 8.1862 16.0234 7.55C16.0234 6.9138 15.5536 6.5012 14.9072 6.5012C14.2608 6.5012 13.7442 7.0972 13.7442 7.7334Z" fill="#231F20"/>
<mask id="mask7_413_138" style="mask-type:luminance" maskUnits="userSpaceOnUse" x="13" y="6" width="4" height="3">
<path d="M13.7442 7.7334C13.7442 8.3696 14.1592 8.7104 14.8056 8.7104C15.452 8.7104 16.0234 8.1862 16.0234 7.55C16.0234 6.9138 15.5536 6.5012 14.9072 6.5012C14.2608 6.5012 13.7442 7.0972 13.7442 7.7334Z" fill="white"/>
</mask>
<g mask="url(#mask7_413_138)">
<path d="M14.6542 9.1236C15.1488 9.1236 15.5498 8.72889 15.5498 8.242C15.5498 7.7551 15.1488 7.3604 14.6542 7.3604C14.1596 7.3604 13.7586 7.7551 13.7586 8.242C13.7586 8.72889 14.1596 9.1236 14.6542 9.1236Z" fill="#8B8DA8"/>
</g>
<path d="M15.7828 7.19444C15.8401 7.03994 15.7171 6.85179 15.508 6.7742C15.2989 6.69661 15.083 6.75896 15.0256 6.91346C14.9683 7.06797 15.0913 7.25612 15.3004 7.33371C15.5095 7.4113 15.7254 7.34895 15.7828 7.19444Z" fill="#FBFBFB"/>
<path d="M12.094 12.4628C11.1086 12.4628 10.1756 12.3414 9.32059 12.1016C8.63579 11.9098 7.99939 11.642 7.42879 11.306C6.45499 10.7324 6.01679 10.1662 5.99859 10.1422L5.97799 10.1152L5.99059 10.0836C6.03539 9.9714 6.14139 9.8502 6.20479 9.7838C5.75819 9.459 5.43559 9.482 5.43239 9.4822L5.22399 9.4998L5.39099 9.3744C5.61199 9.2088 6.01599 9.0314 6.29019 8.9208C5.76879 8.9392 5.35719 9.102 5.35239 9.1038L5.08759 9.2102L5.28719 9.0062C5.78939 8.4928 6.72839 8.0536 6.90319 7.9746C6.95119 7.7896 7.23919 6.7568 7.94159 5.7376C8.39559 5.0788 8.93139 4.5538 9.53419 4.1768C10.2888 3.705 11.15 3.4658 12.0938 3.4658C13.0376 3.4658 13.899 3.705 14.6534 4.1768C15.2562 4.5538 15.7922 5.0788 16.246 5.7376C16.9484 6.7568 17.2364 7.7894 17.2844 7.9746C17.4592 8.0538 18.3982 8.4928 18.9004 9.0062L19.1 9.2102L18.835 9.1038C18.8302 9.1018 18.4184 8.939 17.8972 8.9208C18.1714 9.0314 18.5756 9.2086 18.7964 9.3744L18.9668 9.5022L18.7548 9.4822C18.7518 9.482 18.4292 9.459 17.9826 9.7838C18.046 9.8502 18.152 9.9714 18.1968 10.0836L18.2094 10.1152L18.1888 10.1422C18.1706 10.166 17.7324 10.7324 16.7586 11.306C16.188 11.642 15.5516 11.9098 14.8668 12.1016C14.0118 12.3412 13.0786 12.4628 12.0934 12.4628H12.094ZM6.11639 10.097C6.21699 10.2176 6.65939 10.7148 7.49579 11.2062C8.37819 11.7248 9.89219 12.3428 12.0942 12.3428C14.2962 12.3428 15.8102 11.7248 16.6926 11.2062C17.529 10.7148 17.9714 10.2176 18.072 10.097C18.0056 9.967 17.8528 9.8228 17.8512 9.8212L17.7998 9.773L17.8554 9.73C18.162 9.4926 18.4206 9.4072 18.5832 9.3772C18.2046 9.1528 17.5794 8.927 17.5722 8.9244L17.3124 8.831L17.5874 8.808C17.9994 8.7736 18.3752 8.844 18.6144 8.9076C18.0566 8.4484 17.219 8.0764 17.2094 8.0722L17.182 8.0602L17.1752 8.031C17.1726 8.0198 16.905 6.9032 16.1454 5.8024C15.4476 4.7912 14.1784 3.5858 12.094 3.5858C10.0096 3.5858 8.74039 4.7912 8.04259 5.8024C7.28299 6.9032 7.01539 8.0198 7.01279 8.031L7.00599 8.0602L6.97859 8.0722C6.96919 8.0764 6.13139 8.4484 5.57359 8.9076C5.81279 8.844 6.18859 8.7736 6.60059 8.808L6.87559 8.831L6.61599 8.9244C6.60879 8.927 5.98359 9.1528 5.60499 9.3772C5.76759 9.407 6.02619 9.4924 6.33279 9.73L6.38839 9.773L6.33699 9.8212C6.33539 9.8228 6.18239 9.967 6.11619 10.097H6.11639Z" fill="#010101"/>
<path d="M6.26039 9.7292C6.40039 9.6534 6.54399 9.5816 6.69639 9.5366C6.56279 9.617 6.44499 9.7202 6.33159 9.8258L6.26019 9.7294L6.26039 9.7292Z" fill="#010101"/>
<path d="M17.855 9.8258C17.7418 9.7202 17.6238 9.617 17.4902 9.5366C17.566 9.558 17.6398 9.5886 17.7122 9.6214C17.7852 9.655 17.8556 9.6902 17.9262 9.7292L17.8548 9.8256L17.855 9.8258Z" fill="#010101"/>
<path d="M13.1682 3.9126C13.4086 3.9614 13.6314 4.0468 13.8172 4.1462C13.6644 4.3038 13.5748 4.4382 13.4294 4.6418C13.284 4.8454 13.112 5.0366 12.9214 5.2032L12.9178 5.2064C12.9576 5.0714 12.9724 4.9328 13 4.7956C13.0604 4.4958 13.1162 4.214 13.1684 3.9128L13.1682 3.9126Z" fill="#F54E48"/>
<path d="M15.129 11.9882C14.7134 12.2608 14.2474 12.4572 13.7728 12.6028C13.36 12.7288 12.927 12.8104 12.4964 12.842C11.5644 12.911 10.619 12.7344 9.76318 12.3628C9.52038 12.2554 9.28218 12.136 9.06238 11.9884C9.29978 12.1048 9.54378 12.2038 9.79198 12.2896C10.5314 12.55 11.3118 12.6934 12.0956 12.698C13.1426 12.691 14.1846 12.441 15.1288 11.9884L15.129 11.9882Z" fill="#231F20"/>
<mask id="mask8_413_138" style="mask-type:luminance" maskUnits="userSpaceOnUse" x="8" y="15" width="5" height="6">
<path d="M8.57739 15.5236C8.57739 15.5236 9.03379 18.776 10.131 19.95C11.2282 21.1242 12.2772 20.37 12.158 19.415C12.0398 18.4684 11.558 17.7586 11.376 16.5614" fill="white"/>
</mask>
<g mask="url(#mask8_413_138)">
<path opacity="0.2" d="M8.8312 16.9898C8.8312 16.9898 9.97619 19.639 10.5636 19.8658L10.6346 20.002C10.6346 20.002 11.2332 20.4092 11.5796 20.0386C11.5796 20.0386 11.5822 19.9306 11.621 19.95C11.828 20.0536 12.0492 19.9462 12.1594 19.7454L12.0642 20.4884L10.1528 20.6936L8.66479 17.1556L8.8314 16.99L8.8312 16.9898Z" fill="#231D02"/>
</g>
<mask id="mask9_413_138" style="mask-type:luminance" maskUnits="userSpaceOnUse" x="5" y="3" width="14" height="10">
<path d="M12.094 12.4028C16.3898 12.4028 18.1416 10.106 18.1416 10.106C18.081 9.9548 17.8918 9.7774 17.8918 9.7774C18.3946 9.388 18.7608 9.4226 18.7608 9.4226C18.416 9.164 17.5922 8.868 17.5922 8.868C18.2698 8.8116 18.8578 9.0484 18.8578 9.0484C18.3162 8.4948 17.2336 8.0176 17.2336 8.0176C17.2336 8.0176 16.1824 3.526 12.094 3.526C8.0056 3.526 6.9544 8.0176 6.9544 8.0176C6.9544 8.0176 5.8716 8.4948 5.3302 9.0484C5.3302 9.0484 5.918 8.8114 6.5958 8.868C6.5958 8.868 5.772 9.164 5.4272 9.4226C5.4272 9.4226 5.7936 9.388 6.2962 9.7774C6.2962 9.7774 6.1068 9.9546 6.0464 10.106C6.0464 10.106 7.7982 12.4028 12.094 12.4028Z" fill="white"/>
</mask>
<g mask="url(#mask9_413_138)">
<path opacity="0.2" d="M6.37479 9.744C6.37479 9.744 8.31299 11.8594 11.9832 11.8594C15.6534 11.8594 18.0332 9.7156 18.0332 9.7156H18.7644V12.618H5.81799V9.744H6.37499H6.37479Z" fill="#231D02"/>
<path opacity="0.2" d="M5.77117 9.292C5.77117 9.292 6.42837 9.292 6.87157 9.4378C6.87157 9.4378 6.44517 9.6796 6.37457 9.7728C6.37457 9.7728 5.76757 9.4234 5.55017 9.3962L5.77117 9.2918V9.292Z" fill="#231D02"/>
<path opacity="0.2" d="M18.4188 9.292C18.4188 9.292 17.7616 9.292 17.3184 9.4378C17.3184 9.4378 17.7448 9.6796 17.8154 9.7728C17.8154 9.7728 18.4224 9.4234 18.6398 9.3962L18.4188 9.2918V9.292Z" fill="#231D02"/>
</g>
<path d="M10.5634 19.6442C10.601 19.821 10.6528 19.9954 10.726 20.1602C10.767 20.2474 10.8326 20.3878 10.9018 20.446L10.7642 20.4684C10.5928 20.2448 10.575 19.9174 10.5634 19.6442Z" fill="#231F20"/>
<path d="M11.464 19.6838C11.5358 19.7968 11.601 19.9138 11.6574 20.0358C11.7152 20.163 11.7702 20.2878 11.7698 20.4312L11.6108 20.437C11.6232 20.3874 11.6218 20.3142 11.6154 20.2522C11.5932 20.0584 11.5326 19.867 11.464 19.6838Z" fill="#231F20"/>
<path d="M13.6728 19.6442C13.6352 19.821 13.5834 19.9954 13.5102 20.1602C13.4692 20.2474 13.4036 20.3878 13.3344 20.446L13.472 20.4684C13.6434 20.2448 13.6612 19.9174 13.6728 19.6442Z" fill="#231F20"/>
<path d="M12.7384 19.6668C12.6666 19.7798 12.6014 19.8968 12.545 20.0188C12.4872 20.146 12.4322 20.2708 12.4326 20.4142L12.5916 20.42C12.5792 20.3704 12.5806 20.2972 12.587 20.2352C12.6092 20.0414 12.6698 19.85 12.7384 19.6668Z" fill="#231F20"/>
<path d="M8.46987 9.45384C8.93692 9.41495 9.30202 9.22101 9.28533 9.02067C9.26865 8.82034 8.87651 8.68946 8.40945 8.72835C7.9424 8.76724 7.57731 8.96117 7.59399 9.16151C7.61067 9.36185 8.00281 9.49273 8.46987 9.45384Z" fill="#F49493"/>
<mask id="mask10_413_138" style="mask-type:luminance" maskUnits="userSpaceOnUse" x="7" y="8" width="3" height="2">
<path d="M8.46987 9.45384C8.93692 9.41495 9.30202 9.22101 9.28533 9.02067C9.26865 8.82034 8.87651 8.68946 8.40945 8.72835C7.9424 8.76724 7.57731 8.96117 7.59399 9.16151C7.61067 9.36185 8.00281 9.49273 8.46987 9.45384Z" fill="white"/>
</mask>
<g mask="url(#mask10_413_138)">
<path d="M7.76936 8.8768C7.76936 8.8768 7.61496 9.016 7.65636 9.144C7.69776 9.272 7.98776 9.4144 8.41316 9.4C8.83836 9.3856 9.09236 9.2724 9.20456 9.195C9.31676 9.1176 9.14356 9.502 9.14356 9.502H7.44196L7.55736 8.9144L7.76956 8.8768H7.76936Z" fill="#F54E48"/>
</g>
<path d="M16.6528 9.16113C16.6695 8.96079 16.3044 8.76685 15.8374 8.72796C15.3703 8.68907 14.9782 8.81995 14.9615 9.02029C14.9448 9.22063 15.3099 9.41456 15.7769 9.45345C16.244 9.49234 16.6361 9.36146 16.6528 9.16113Z" fill="#F49493"/>
<mask id="mask11_413_138" style="mask-type:luminance" maskUnits="userSpaceOnUse" x="14" y="8" width="3" height="2">
<path d="M16.6528 9.16113C16.6695 8.96079 16.3044 8.76685 15.8374 8.72796C15.3703 8.68907 14.9782 8.81995 14.9615 9.02029C14.9448 9.22063 15.3099 9.41456 15.7769 9.45345C16.244 9.49234 16.6361 9.36146 16.6528 9.16113Z" fill="white"/>
</mask>
<g mask="url(#mask11_413_138)">
<path d="M16.4774 8.8768C16.4774 8.8768 16.6318 9.016 16.5904 9.144C16.549 9.272 16.259 9.4144 15.8336 9.4C15.4084 9.3856 15.1544 9.2724 15.0422 9.195C14.93 9.1176 15.1032 9.502 15.1032 9.502H16.8048L16.6894 8.9144L16.4772 8.8768H16.4774Z" fill="#F54E48"/>
</g>
<path d="M12.1896 15.6752C13.0555 15.6752 13.7574 14.9733 13.7574 14.1074C13.7574 13.2415 13.0555 12.5396 12.1896 12.5396C11.3238 12.5396 10.6218 13.2415 10.6218 14.1074C10.6218 14.9733 11.3238 15.6752 12.1896 15.6752Z" fill="#5E0012"/>
<path d="M12.1878 15.66C13.0208 15.66 13.696 14.9848 13.696 14.1518C13.696 13.3188 13.0208 12.6436 12.1878 12.6436C11.3549 12.6436 10.6796 13.3188 10.6796 14.1518C10.6796 14.9848 11.3549 15.66 12.1878 15.66Z" fill="black"/>
<path d="M13.6626 14.1488C13.6626 14.9606 13.0036 15.6196 12.1918 15.6196C11.38 15.6196 10.721 14.9606 10.721 14.1488C10.721 13.337 11.38 12.678 12.1918 12.678C13.0036 12.678 13.6626 13.337 13.6626 14.1488Z" fill="white"/>
<path d="M11.4918 15.443C11.7006 15.5562 11.939 15.6194 12.192 15.6194C12.445 15.6194 12.6848 15.5546 12.8922 15.443L12.192 14.3988L11.4918 15.443Z" fill="#F54E48"/>
<path d="M11.2932 14.1472V13.9046H12.0712V13.656H11.2932V13.4148H13.092V13.656H12.314V13.9046H13.092V14.1458H12.314L13.095 15.3092C13.4406 15.04 13.6642 14.6194 13.6642 14.1472C13.6628 13.3368 13.0038 12.6778 12.192 12.6778C11.3802 12.6778 10.7212 13.3368 10.7212 14.1486C10.7212 14.6208 10.9432 15.0414 11.2904 15.3106L12.0714 14.1472H11.2934H11.2932Z" fill="#F54E48"/>
<path d="M12.803 15.3104L12.1918 14.3988L11.5796 15.312C11.7646 15.3914 11.9712 15.436 12.1896 15.436C12.408 15.436 12.6172 15.391 12.803 15.3106V15.3104Z" fill="#E01915"/>
<path d="M13.6156 14.1442C13.6156 13.4308 12.9772 12.7828 12.1896 12.7828C11.402 12.7828 10.7636 13.431 10.7636 14.1442C10.7636 14.5794 11.0016 14.9642 11.3658 15.1982L12.0712 14.1472H11.2932V13.9046H12.0712V13.656H11.2932V13.4148H13.092V13.656H12.314V13.9046H13.092V14.1458H12.314L13.0184 15.195C13.3798 14.9608 13.6158 14.5776 13.6158 14.1442H13.6156Z" fill="#E01915"/>
<path d="M9.62017 22.109C9.62017 22.2338 9.58757 22.3428 9.52257 22.4364C9.45757 22.53 9.36537 22.6026 9.24597 22.6542C9.12657 22.7058 8.98397 22.7318 8.81837 22.7318C8.64197 22.7318 8.49317 22.7038 8.37197 22.6476C8.25077 22.5914 8.15897 22.5148 8.09677 22.4178C8.03437 22.3208 8.00317 22.209 8.00317 22.0824H8.42817C8.42817 22.1324 8.44197 22.1786 8.46957 22.2214C8.49717 22.2642 8.53937 22.2984 8.59657 22.3242C8.65357 22.35 8.72757 22.363 8.81837 22.363C8.90037 22.363 8.96897 22.3524 9.02417 22.331C9.07937 22.3096 9.12117 22.2798 9.14977 22.2414C9.17817 22.2032 9.19257 22.159 9.19257 22.1092C9.19257 22.0468 9.16577 21.9974 9.11237 21.9608C9.05897 21.9244 8.97257 21.9006 8.85317 21.89L8.70617 21.8766C8.51197 21.8606 8.35697 21.8 8.24117 21.6948C8.12537 21.5896 8.06737 21.4508 8.06737 21.2778C8.06737 21.1532 8.09717 21.0452 8.15697 20.9544C8.21657 20.8636 8.29997 20.7936 8.40677 20.7446C8.51377 20.6956 8.64017 20.6712 8.78637 20.6712C8.93257 20.6712 9.07097 20.6976 9.18057 20.75C9.29017 20.8026 9.37437 20.8766 9.43317 20.9718C9.49197 21.0672 9.52137 21.179 9.52137 21.3072H9.09377C9.09377 21.259 9.08217 21.215 9.05897 21.175C9.03577 21.135 9.00157 21.1024 8.95617 21.0774C8.91077 21.0524 8.85417 21.04 8.78637 21.04C8.72217 21.04 8.66837 21.0506 8.62477 21.072C8.58117 21.0934 8.54857 21.1224 8.52717 21.1588C8.50577 21.1954 8.49517 21.235 8.49517 21.2778C8.49517 21.333 8.51477 21.3812 8.55397 21.4222C8.59317 21.4632 8.65737 21.4872 8.74637 21.4944L8.89597 21.5078C9.03857 21.5202 9.16417 21.551 9.27277 21.6C9.38137 21.649 9.46657 21.7158 9.52797 21.8004C9.58937 21.885 9.62017 21.988 9.62017 22.109Z" fill="white"/>
<path d="M11.8222 21.3112C11.7776 21.1928 11.7118 21.0854 11.6244 20.9892C11.537 20.893 11.4284 20.816 11.2984 20.758C11.1684 20.7002 11.0178 20.6712 10.8468 20.6712C10.6758 20.6712 10.5252 20.7002 10.3952 20.758C10.2652 20.816 10.1564 20.893 10.0692 20.9892C9.98177 21.0854 9.91637 21.1928 9.87277 21.3112C9.82917 21.4298 9.80737 21.5496 9.80737 21.6706V21.7294C9.80737 21.838 9.82837 21.9512 9.87017 22.0688C9.91197 22.1864 9.97577 22.2956 10.0612 22.3962C10.1468 22.4968 10.255 22.578 10.386 22.6394C10.517 22.7008 10.6706 22.7316 10.847 22.7316C11.0234 22.7316 11.177 22.7008 11.308 22.6394C11.439 22.578 11.5472 22.4968 11.6328 22.3962C11.7184 22.2956 11.7824 22.1864 11.8252 22.0688C11.868 21.9512 11.8894 21.838 11.8894 21.7294V21.6706C11.8894 21.5494 11.8672 21.4296 11.8226 21.3112H11.8222ZM11.4054 21.9432C11.3786 22.018 11.339 22.084 11.2864 22.141C11.2338 22.198 11.1706 22.2426 11.0966 22.2746C11.0226 22.3066 10.9394 22.3228 10.8468 22.3228C10.7542 22.3228 10.6714 22.3068 10.5982 22.2746C10.5252 22.2426 10.4624 22.198 10.4098 22.141C10.3572 22.084 10.3176 22.018 10.2908 21.9432C10.264 21.8684 10.2508 21.7882 10.2508 21.7026C10.2508 21.6118 10.2642 21.5284 10.2908 21.4528C10.3176 21.377 10.3572 21.3112 10.4098 21.255C10.4624 21.1988 10.5252 21.1556 10.5982 21.1254C10.6712 21.0952 10.754 21.08 10.8468 21.08C10.9396 21.08 11.0222 21.0952 11.0954 21.1254C11.1684 21.1558 11.2312 21.1988 11.2838 21.255C11.3364 21.3112 11.3764 21.377 11.404 21.4528C11.4316 21.5286 11.4454 21.6118 11.4454 21.7026C11.4454 21.7882 11.432 21.8682 11.4054 21.9432Z" fill="white"/>
<path d="M13.2696 22.681H13.7774L13.279 21.9824C13.3948 21.9352 13.4848 21.8648 13.5488 21.771C13.6138 21.6758 13.6464 21.5558 13.6464 21.4116V21.3688C13.6464 21.2228 13.6144 21.1016 13.5502 21.0054C13.486 20.9092 13.3942 20.8366 13.275 20.7876C13.1556 20.7386 13.0148 20.7142 12.8528 20.7142H12.0858V22.6812H12.524V22.0558H12.8434L13.2696 22.6812V22.681ZM12.5238 21.0854H12.8872C12.9514 21.0854 13.007 21.0984 13.0542 21.1242C13.1014 21.15 13.138 21.1866 13.1638 21.2338C13.1896 21.281 13.2026 21.3358 13.2026 21.3982C13.2026 21.4606 13.1896 21.5154 13.1638 21.5626C13.138 21.6098 13.1014 21.6464 13.0542 21.6722C13.007 21.698 12.9514 21.711 12.8872 21.711H12.5238V21.0856V21.0854Z" fill="white"/>
<path d="M15.5424 22.681H15.9968L15.3286 20.73H14.6204L13.9764 22.681H14.4148L14.5692 22.1972H15.3842L15.5426 22.681H15.5424ZM14.685 21.8338L14.923 21.0882H15.0208L15.265 21.8338H14.685Z" fill="white"/>
</g>
<defs>
<linearGradient id="paint0_linear_413_138" x1="-4.24523" y1="11.9906" x2="34.5864" y2="11.9906" gradientUnits="userSpaceOnUse">
<stop offset="0.12" stop-color="#FAF49C"/>
<stop offset="0.14" stop-color="#E28204"/>
<stop offset="0.17" stop-color="#4F1B05"/>
<stop offset="0.21" stop-color="#CA7200"/>
<stop offset="0.26" stop-color="#4F1D01"/>
<stop offset="0.32" stop-color="#CD9621"/>
<stop offset="0.35" stop-color="#FAF49D"/>
<stop offset="0.4" stop-color="#EFD254"/>
<stop offset="0.46" stop-color="#BA4F02"/>
<stop offset="0.5" stop-color="#F59B05"/>
<stop offset="0.56" stop-color="#5E2505"/>
<stop offset="0.62" stop-color="#BB6700"/>
<stop offset="0.63" stop-color="#5F2902"/>
<stop offset="0.64" stop-color="#441602"/>
<stop offset="0.67" stop-color="#8A5103"/>
<stop offset="0.69" stop-color="#E28204"/>
<stop offset="0.72" stop-color="#FAF49C"/>
</linearGradient>
<linearGradient id="paint1_linear_413_138" x1="12" y1="-17.73" x2="12" y2="30.942" gradientUnits="userSpaceOnUse">
<stop stop-color="#FAF49E"/>
<stop offset="0.07" stop-color="#441100"/>
<stop offset="0.09" stop-color="#FAF49C"/>
<stop offset="0.12" stop-color="#E28204"/>
<stop offset="0.17" stop-color="#4F1B05"/>
<stop offset="0.21" stop-color="#CA7200"/>
<stop offset="0.26" stop-color="#4F1D01"/>
<stop offset="0.32" stop-color="#CD9621"/>
<stop offset="0.35" stop-color="#FAF49D"/>
<stop offset="0.4" stop-color="#EFD254"/>
<stop offset="0.46" stop-color="#BA4F02"/>
<stop offset="0.5" stop-color="#F59B05"/>
<stop offset="0.56" stop-color="#5E2505"/>
<stop offset="0.62" stop-color="#BB6700"/>
<stop offset="0.63" stop-color="#773901"/>
<stop offset="0.64" stop-color="#5F2902"/>
<stop offset="0.65" stop-color="#4E1D02"/>
<stop offset="0.66" stop-color="#441602"/>
<stop offset="0.67" stop-color="#411402"/>
<stop offset="0.68" stop-color="#4A1B02"/>
<stop offset="0.69" stop-color="#623003"/>
<stop offset="0.71" stop-color="#8A5103"/>
<stop offset="0.73" stop-color="#BB7A04"/>
<stop offset="0.76" stop-color="#F5E78A"/>
<stop offset="0.77" stop-color="#F2DE72"/>
<stop offset="0.79" stop-color="#F0D761"/>
<stop offset="0.8" stop-color="#EFD357"/>
<stop offset="0.82" stop-color="#EFD254"/>
<stop offset="0.83" stop-color="#E5B844"/>
<stop offset="0.84" stop-color="#D7932C"/>
<stop offset="0.85" stop-color="#CC7619"/>
<stop offset="0.86" stop-color="#C4620C"/>
<stop offset="0.87" stop-color="#C05504"/>
<stop offset="0.88" stop-color="#BE5201"/>
<stop offset="0.89" stop-color="#DD7C04"/>
<stop offset="0.9" stop-color="#EC9105"/>
<stop offset="0.92" stop-color="#EE9305"/>
<stop offset="1" stop-color="#4E1A05"/>
</linearGradient>
<linearGradient id="paint2_linear_413_138" x1="5.63443" y1="5.3602" x2="10.605" y2="5.3602" gradientUnits="userSpaceOnUse">
<stop stop-color="#644749"/>
<stop offset="1" stop-color="#6D5D62"/>
</linearGradient>
<linearGradient id="paint3_linear_413_138" x1="18.6072" y1="-3.43296e-06" x2="13.6364" y2="-3.43296e-06" gradientUnits="userSpaceOnUse">
<stop stop-color="#644749"/>
<stop offset="1" stop-color="#6D5D62"/>
</linearGradient>
<clipPath id="clip0_413_138">
<rect width="24" height="24" fill="white"/>
</clipPath>
</defs>
</svg>
