<svg width="24" height="23" viewBox="0 0 24 23" fill="none" xmlns="http://www.w3.org/2000/svg">
<g clip-path="url(#clip0_192_50)">
<path d="M20.7731 11.0316C20.7731 16.4113 16.4119 20.7725 11.0322 20.7725C5.65251 20.7725 1.29138 16.4113 1.29138 11.0316C1.29138 5.65193 5.65251 1.2908 11.0322 1.2908C16.4119 1.2908 20.7731 5.65193 20.7731 11.0316Z" fill="#F8941C"/>
<path fill-rule="evenodd" clip-rule="evenodd" d="M22.0636 11.0318C22.0636 17.1245 17.1245 22.0636 11.0318 22.0636C4.9391 22.0636 0 17.1245 0 11.0318C0 4.9391 4.9391 0 11.0318 0C17.1245 0 22.0636 4.9391 22.0636 11.0318ZM11.0318 20.7726C16.4114 20.7726 20.7726 16.4114 20.7726 11.0318C20.7726 5.65207 16.4114 1.29095 11.0318 1.29095C5.65207 1.29095 1.29095 5.65207 1.29095 11.0318C1.29095 16.4114 5.65207 20.7726 11.0318 20.7726Z" fill="white"/>
<path d="M15.6784 9.82187C15.8727 8.52457 14.8835 7.82723 13.5307 7.36202L13.9696 5.60472L12.8981 5.33817L12.4709 7.04921C12.1893 6.97907 11.9 6.91298 11.6125 6.84746L12.0427 5.12513L10.972 4.85858L10.533 6.61531C10.2999 6.56233 10.0709 6.50996 9.84882 6.45479L9.85006 6.44925L8.37253 6.08088L8.08752 7.22341C8.08752 7.22341 8.88244 7.40534 8.86569 7.41654C9.29955 7.52465 9.37801 7.81141 9.36498 8.03869L8.86511 10.0407C8.89499 10.0482 8.93374 10.0592 8.97649 10.0764C8.94076 10.0675 8.90272 10.0578 8.86325 10.0484L8.16259 12.8529C8.10957 12.9845 7.97499 13.182 7.67164 13.107C7.68238 13.1226 6.89291 12.9129 6.89291 12.9129L6.36096 14.1374L7.75525 14.4845C8.01465 14.5494 8.26883 14.6174 8.51915 14.6813L8.07579 16.4587L9.14597 16.7253L9.58504 14.9667C9.87741 15.0459 10.1611 15.119 10.4389 15.1879L10.0013 16.9382L11.0728 17.2047L11.5161 15.4307C13.3431 15.7759 14.7169 15.6367 15.2951 13.9868C15.7611 12.6584 15.2719 11.8922 14.3107 11.3926C15.0108 11.2314 15.5377 10.7715 15.6784 9.82187ZM13.2304 13.2491C12.8993 14.5775 10.6591 13.8594 9.93287 13.6793L10.5212 11.3245C11.2475 11.5055 13.5765 11.8637 13.2304 13.2491ZM13.5617 9.80262C13.2597 11.0109 11.3952 10.397 10.7904 10.2465L11.3238 8.11083C11.9286 8.26136 13.8762 8.54229 13.5617 9.80262Z" fill="white"/>
<path d="M18.2826 4.177C16.651 5.09388 15.9609 7.14842 16.1019 8.36768C17.2536 9.05046 19.4814 9.56609 21.1739 8.61508C22.8055 7.6982 23.4774 5.59133 23.3364 4.37208C22.1847 3.6893 19.9751 3.22598 18.2826 4.177Z" fill="#006E3C"/>
<path d="M21.0864 8.6744C22.7298 7.77881 23.429 5.68086 23.3039 4.45987L16.0179 8.36108C17.1608 9.05879 19.3817 9.60333 21.0864 8.6744Z" fill="#06B23C"/>
<path fill-rule="evenodd" clip-rule="evenodd" d="M20.9542 4.30472C20.1376 4.23071 19.3017 4.34491 18.5991 4.73974C17.929 5.11628 17.4305 5.74026 17.1142 6.42857C16.996 6.68572 16.9069 6.94344 16.8445 7.18991L18.5413 6.25081C18.8532 6.07818 19.246 6.19109 19.4187 6.50299C19.5912 6.81488 19.4783 7.20768 19.1664 7.38031L17.5468 8.27676C17.8453 8.36171 18.1681 8.42717 18.5023 8.4621C19.3247 8.54806 20.1607 8.44412 20.8578 8.05238C21.5226 7.67881 22.0169 7.0467 22.3307 6.34389C22.5816 5.7817 22.6983 5.21593 22.7086 4.76965C22.2387 4.54796 21.6203 4.36511 20.9542 4.30472ZM16.0783 9.08947C16.7064 9.40465 17.5132 9.65668 18.3682 9.74605C19.3708 9.85086 20.4949 9.7371 21.4902 9.17782C22.4571 8.6345 23.1147 7.75475 23.5095 6.8701C23.9015 5.99182 24.064 5.04366 23.9778 4.29793L23.941 3.98004L23.6657 3.81685C23.0015 3.4231 22.0675 3.10941 21.0707 3.01905C20.0715 2.92846 18.9564 3.0581 17.9667 3.6143C17.005 4.15464 16.3425 5.01637 15.9412 5.88936C15.6234 6.58066 15.4517 7.31747 15.4393 7.96765L14.6159 8.42345C14.3039 8.59608 14.1911 8.98886 14.3637 9.30077C14.5363 9.61266 14.9291 9.72557 15.241 9.55294L16.0783 9.08947Z" fill="white"/>
</g>
<defs>
<clipPath id="clip0_192_50">
<rect width="24" height="22.8" fill="white"/>
</clipPath>
</defs>
</svg>
