<svg width="24" height="24" viewBox="0 0 24 24" fill="none" xmlns="http://www.w3.org/2000/svg">
<path d="M12 22C17.5228 22 22 17.5228 22 12C22 6.47715 17.5228 2 12 2C6.47715 2 2 6.47715 2 12C2 17.5228 6.47715 22 12 22Z" fill="url(#paint0_linear_7706_479)"/>
<path d="M11.9736 13.0379C11.9636 13.0667 11.9587 13.0907 11.9537 13.1196C12.1226 13.9223 12.4304 14.6577 13.0015 15.2681C13.2002 15.4892 13.4882 15.6094 13.7861 15.6046C14.69 15.6094 15.4249 15.2489 16.0258 14.6144C16.1251 14.5039 16.2294 14.3981 16.3436 14.302C16.4876 14.1963 16.6614 14.1626 16.8253 14.2635C16.9892 14.3645 17.014 14.5087 16.9942 14.6769C16.9644 14.9076 16.8551 15.1239 16.6912 15.2921C16.0059 15.9891 15.2114 16.537 14.2232 16.7726C13.3243 16.9889 12.5894 16.7485 11.9835 16.0948C11.5564 15.619 11.2187 15.0807 10.9754 14.4943C10.8066 14.1193 10.6725 13.7348 10.5235 13.3599C10.4937 13.2878 10.4639 13.2109 10.4143 13.0763C10.3398 13.259 10.2851 13.3839 10.2355 13.5089C9.96236 14.2107 9.70412 14.9124 9.4161 15.6046C9.26215 15.9939 9.02875 16.3496 8.73576 16.6572C8.50733 16.8927 8.23916 17.0321 7.89651 16.9937C7.534 16.9456 7.29067 16.7101 7.2559 16.3544C7.22611 16.0756 7.2857 15.7968 7.42971 15.5517C7.79223 14.9124 8.14481 14.2684 8.50733 13.6291C9.07841 12.6245 9.64453 11.6199 10.2355 10.6298C10.5136 10.1972 10.8115 9.78385 11.1343 9.38491C11.2535 9.24552 11.3975 9.12055 11.5515 9.01961C11.6905 8.90906 11.8891 8.89464 12.0381 8.99077C12.1871 9.06768 12.2666 9.2311 12.2318 9.39452C12.2119 9.58678 12.1672 9.77424 12.0977 9.95688C11.8544 10.5385 11.5862 11.1105 11.333 11.6824C11.3081 11.7305 11.2883 11.7834 11.2485 11.8555C11.4919 11.8939 11.7451 11.8843 11.9835 11.8266C13.2796 11.5959 14.4516 10.4279 14.6502 9.16861C14.7843 8.3515 14.4069 7.69781 13.6173 7.37097C13.23 7.21716 12.8128 7.14506 12.3957 7.15467C11.8792 7.15467 11.3777 7.18351 10.8761 7.32771C10.1014 7.56323 9.53528 8.02946 9.12311 8.70719C8.93937 9.01 8.75563 9.308 8.55202 9.59639C8.41794 9.81269 8.19944 9.9665 7.94617 10.0242C7.4893 10.1251 6.95795 9.8944 7.00264 9.27916C7.03244 8.88022 7.20624 8.53415 7.44461 8.21692C7.98094 7.49594 8.69107 6.99606 9.50549 6.62595C10.5185 6.15972 11.6359 5.94823 12.7532 6.01072C13.5776 6.05398 14.3523 6.25104 15.0525 6.68363C16.428 7.5392 16.721 9.17823 16.0308 10.4087C15.5491 11.2787 14.7992 11.8747 13.9252 12.3409C13.3193 12.6582 12.6589 12.8985 11.9736 13.0379Z" fill="white"/>
<defs>
<linearGradient id="paint0_linear_7706_479" x1="12" y1="2" x2="12" y2="22" gradientUnits="userSpaceOnUse">
<stop stop-color="#C547CB"/>
<stop offset="1" stop-color="#892ADF"/>
</linearGradient>
</defs>
</svg>
