<svg width="24" height="24" viewBox="0 0 24 24" fill="none" xmlns="http://www.w3.org/2000/svg">
<g clip-path="url(#clip0_192_121)">
<path d="M12 23.7C18.4617 23.7 23.7 18.4617 23.7 12C23.7 5.53826 18.4617 0.299988 12 0.299988C5.53826 0.299988 0.299988 5.53826 0.299988 12C0.299988 18.4617 5.53826 23.7 12 23.7Z" fill="#4B5CF0"/>
<path d="M17.718 6.24599V17.718H15.246V11.724H13.212C12.972 11.724 12.744 11.814 12.57 11.97C12.468 12.06 12.396 12.168 12.342 12.294C12.288 12.42 12.258 12.546 12.258 12.684V14.064C12.258 14.43 11.958 14.742 11.58 14.742H9.94801C9.58201 14.742 9.27001 14.442 9.27001 14.064V12.396C9.27001 12.03 9.57001 11.718 9.94801 11.718H11.424C11.622 11.718 11.814 11.652 11.958 11.52C12.048 11.442 12.126 11.346 12.18 11.226C12.234 11.118 12.258 10.998 12.258 10.872V8.70599H6.29401V6.23999L17.718 6.24599Z" fill="white"/>
<path d="M9.27002 16.236V16.26C9.27002 17.088 8.60403 17.754 7.77603 17.754C6.94803 17.754 6.28802 17.088 6.28802 16.26V16.236C6.28802 15.408 6.95402 14.742 7.78202 14.742C8.19602 14.742 8.56802 14.91 8.83803 15.18C9.10803 15.456 9.26402 15.822 9.27002 16.236Z" fill="white"/>
</g>
<defs>
<clipPath id="clip0_192_121">
<rect width="24" height="24" fill="white"/>
</clipPath>
</defs>
</svg>
