<svg width="24" height="24" viewBox="0 0 24 24" fill="none" xmlns="http://www.w3.org/2000/svg">
<g clip-path="url(#clip0_192_117)">
<path d="M12.08 0.18399C18.584 0.18399 23.864 5.45599 23.864 11.968C23.864 18.48 18.592 23.752 12.08 23.752C5.56802 23.752 0.296021 18.48 0.296021 11.968C0.296021 5.45599 5.56802 0.18399 12.08 0.18399Z" fill="#53AE94"/>
<path d="M13.448 10.312V8.63998H17.368V6.08798H6.68804V8.63998H10.616V10.312C7.42404 10.456 5.03204 11.072 5.03204 11.808C5.03204 12.544 7.43204 13.16 10.616 13.304V18.664H13.456V13.304C16.64 13.16 19.032 12.544 19.032 11.808C19.032 11.072 16.64 10.456 13.456 10.312M13.456 12.848C13.376 12.856 12.968 12.88 12.048 12.88C11.312 12.88 10.8 12.856 10.616 12.848C7.80004 12.728 5.69604 12.248 5.69604 11.672C5.69604 11.096 7.80004 10.624 10.616 10.504V12.368C10.8 12.384 11.328 12.408 12.056 12.408C12.928 12.408 13.368 12.376 13.448 12.368V10.504C16.256 10.624 18.36 11.104 18.36 11.672C18.36 12.24 16.264 12.72 13.448 12.84" fill="white"/>
</g>
<defs>
<clipPath id="clip0_192_117">
<rect width="24" height="24" fill="white"/>
</clipPath>
</defs>
</svg>
