<svg width="24" height="24" viewBox="0 0 24 24" fill="none" xmlns="http://www.w3.org/2000/svg">
<g clip-path="url(#clip0_2588_183)">
<path d="M12 24C10.3803 24 8.80886 23.6825 7.32886 23.0568C5.89967 22.4523 4.61695 21.587 3.51457 20.4854C2.41304 19.3839 1.54773 18.1003 0.943202 16.6711C0.317505 15.1911 0 13.6197 0 12C0 10.3803 0.317505 8.80886 0.943202 7.32886C1.54773 5.89967 2.41304 4.61695 3.51457 3.51457C4.61695 2.41304 5.89967 1.54773 7.32886 0.943202C8.80886 0.317505 10.3803 0 12 0C13.6197 0 15.1911 0.317505 16.6711 0.943202C18.1003 1.54773 19.3831 2.41304 20.4854 3.51457C21.587 4.6161 22.4523 5.89967 23.0568 7.32886C23.6825 8.80886 24 10.3803 24 12C24 13.6197 23.6825 15.1911 23.0568 16.6711C22.4523 18.1003 21.587 19.3831 20.4854 20.4854C19.3839 21.587 18.1003 22.4523 16.6711 23.0568C15.1911 23.6833 13.6197 24 12 24Z" fill="white"/>
<path d="M12 23.3642C18.2763 23.3642 23.3642 18.2763 23.3642 12C23.3642 5.72376 18.2763 0.635864 12 0.635864C5.72376 0.635864 0.635864 5.72376 0.635864 12C0.635864 18.2763 5.72376 23.3642 12 23.3642Z" fill="black"/>
<path d="M12.2794 7.47959C13.7975 7.61506 14.9922 8.87238 15.0294 10.4167L17.3587 11.3845L16.1445 9.40494L18.726 6.82341L17.1834 5.28076L14.9719 7.49313L12.2803 3.10394V7.47959H12.2794Z" fill="white"/>
<path d="M14.9896 10.9916C14.7661 12.3362 13.6553 13.3801 12.2794 13.5037V15.1023L17.4052 11.9958L14.9896 10.9916Z" fill="white"/>
<path d="M9.02386 10.9916L6.60828 11.995L11.7341 15.1014V13.5029C10.3582 13.3801 9.24738 12.3362 9.02386 10.9916Z" fill="white"/>
<path d="M17.3476 13.6248L12.2794 16.6966V20.7649L14.3648 17.826L16.5416 20.0029L18.0843 18.4602L15.6458 16.0218L17.3476 13.6248Z" fill="white"/>
<path d="M11.734 16.6966L6.66581 13.6248L8.36764 16.0218L5.9292 18.4602L7.47185 20.0029L9.64867 17.8269L11.734 20.764V16.6966Z" fill="white"/>
<path d="M6.65486 11.3853L8.98408 10.4176C9.02134 8.87322 10.216 7.6159 11.7341 7.48043V3.10394L9.0425 7.49313L6.83013 5.28076L5.28748 6.82426L7.869 9.40578L6.65486 11.3853Z" fill="white"/>
<path d="M12.1135 10.1441C11.3658 9.91462 11.3658 9.78762 11.3658 9.68517C11.3658 9.54293 11.5809 9.3465 11.9848 9.3465C12.2235 9.3465 12.6249 9.40577 12.6249 9.8054H13.3522C13.3522 9.09588 12.8027 8.6192 11.9848 8.6192C11.1102 8.6192 10.6385 9.1687 10.6385 9.68517C10.6385 10.3913 11.2583 10.6419 11.895 10.8384C12.6426 11.0678 12.6469 11.1965 12.6469 11.2989C12.6469 11.4412 12.4318 11.6376 12.028 11.6376C11.7883 11.6376 11.3879 11.5783 11.3879 11.1787H10.6606C10.6606 11.8882 11.2101 12.3649 12.028 12.3649C12.9026 12.3649 13.3742 11.8154 13.3742 11.2989C13.375 10.592 12.751 10.3397 12.1135 10.1441Z" fill="white"/>
</g>
<defs>
<clipPath id="clip0_2588_183">
<rect width="24" height="24" fill="white"/>
</clipPath>
</defs>
</svg>
