<svg width="24" height="24" viewBox="0 0 24 24" fill="none" xmlns="http://www.w3.org/2000/svg">
<g clip-path="url(#clip0_2476_122)">
<path d="M11.9987 23.9974C18.6254 23.9974 23.9974 18.6254 23.9974 11.9987C23.9974 5.372 18.6254 0 11.9987 0C5.372 0 0 5.372 0 11.9987C0 18.6254 5.372 23.9974 11.9987 23.9974Z" fill="url(#paint0_linear_2476_122)"/>
<path d="M8.0465 9.01557C7.95059 8.89651 7.80508 8.83036 7.64963 8.83036H4.44491C4.41845 8.83036 4.3953 8.82044 4.37546 8.8039C4.35892 8.78737 4.349 8.76752 4.349 8.74437V6.58474C4.349 6.56159 4.35892 6.54174 4.37546 6.52521C4.3953 6.50536 4.41845 6.49544 4.44491 6.49875H7.83153C8.6848 6.49875 9.42232 6.84932 10.0441 7.54715L10.8676 8.55255L9.26357 10.5071L8.0465 9.01557ZM13.9665 7.53723C14.5849 6.84601 15.3258 6.49875 16.189 6.49875H19.5657C19.5888 6.49544 19.612 6.50536 19.6285 6.51859C19.645 6.53513 19.6516 6.55828 19.6483 6.58474V8.74437C19.6483 8.76752 19.6417 8.78737 19.6285 8.8039C19.612 8.82375 19.5888 8.83367 19.5657 8.83036H16.3609C16.2088 8.82705 16.0633 8.89651 15.9641 9.01557L13.6027 11.8896L15.974 14.7834C16.0699 14.8925 16.2121 14.9587 16.3576 14.9554H19.5623C19.5855 14.9521 19.612 14.9653 19.6252 14.9818C19.6384 15.0017 19.6483 15.0281 19.645 15.0513V17.2109C19.645 17.2341 19.6384 17.2539 19.6252 17.2705C19.6087 17.2903 19.5855 17.3002 19.5623 17.2969H16.189C15.3258 17.2969 14.5916 16.9464 13.9764 16.2485L12.0119 13.8508L10.0474 16.2485C9.42893 16.9464 8.68811 17.2969 7.82492 17.2969H4.44491C4.42176 17.3002 4.3953 17.287 4.38207 17.2705C4.36554 17.2506 4.35892 17.2242 4.36223 17.201V15.0414C4.36223 15.0182 4.36884 14.9984 4.38207 14.9818C4.39861 14.962 4.42176 14.9521 4.44491 14.9554H7.64963C7.80177 14.9554 7.94729 14.8859 8.0465 14.7702L10.3649 11.9392L13.9665 7.53723Z" fill="#00D1FF"/>
</g>
<defs>
<linearGradient id="paint0_linear_2476_122" x1="12.0004" y1="-6.94522e-05" x2="12.0004" y2="6.34985" gradientUnits="userSpaceOnUse">
<stop stop-color="#090220"/>
<stop offset="1" stop-color="#170659"/>
</linearGradient>
<clipPath id="clip0_2476_122">
<rect width="24" height="24" fill="white"/>
</clipPath>
</defs>
</svg>
