<svg width="24" height="24" viewBox="0 0 24 24" fill="none" xmlns="http://www.w3.org/2000/svg">
<g clip-path="url(#clip0_192_178)">
<mask id="mask0_192_178" style="mask-type:luminance" maskUnits="userSpaceOnUse" x="4" y="5" width="15" height="15">
<path fill-rule="evenodd" clip-rule="evenodd" d="M12.2211 14.5307L11.5333 15.5046L12.7383 17.2616L12.9025 16.9371L18.5432 5.86415L12.2211 14.5307ZM11.5402 12.0259L9.156 12.0208L10.915 14.4296C10.947 14.4679 10.987 14.4986 11.0322 14.5197C11.0773 14.5408 11.1266 14.5518 11.1764 14.5518C11.2263 14.5518 11.2756 14.5408 11.3207 14.5197C11.3659 14.4986 11.4059 14.4679 11.4379 14.4296L12.2242 13.356L12.5185 12.9669C12.5514 12.9341 12.5514 12.9038 12.5817 12.8696C12.7794 12.0896 12.9114 11.3096 12.0626 11.1132C12.099 11.2067 12.1203 11.3055 12.1257 11.4057C12.1349 11.4861 12.1265 11.5676 12.1009 11.6444C12.0754 11.7213 12.0334 11.7916 11.9779 11.8505C11.9224 11.9094 11.8547 11.9555 11.7796 11.9856C11.7044 12.0156 11.6236 12.029 11.5428 12.0246L11.5402 12.0259ZM4.008 5.8364L10.9364 19.5675C10.966 19.6194 11.0088 19.6625 11.0604 19.6925C11.1121 19.7225 11.1707 19.7382 11.2304 19.7382C11.2902 19.7382 11.3488 19.7225 11.4004 19.6925C11.452 19.6625 11.4948 19.6194 11.5244 19.5675L12.4756 17.7164L11.2383 15.8615L4.008 5.8364ZM12.8457 12.5829L15.4983 9.01326L11.1543 9.00377C11.0731 9.00386 10.9926 8.98793 10.9175 8.9569C10.8424 8.92586 10.7742 8.88033 10.7167 8.8229C10.6592 8.76548 10.6136 8.69728 10.5825 8.62222C10.5514 8.54716 10.5354 8.46671 10.5354 8.38545C8.96717 8.73977 8.60589 9.51909 8.34189 10.7854L11.5428 10.7924H11.6059C13.2764 10.8581 13.3067 11.6709 12.8482 12.5798L12.8457 12.5829ZM8.24402 10.7861C8.31286 9.16168 8.90336 7.99195 11.0589 7.80121H11.1569L16.3825 7.81201L17.2339 6.64291C17.2704 6.59465 17.2927 6.53717 17.2982 6.47692C17.3038 6.41667 17.2924 6.35602 17.2653 6.30191C17.2383 6.24779 17.1966 6.20232 17.1451 6.17061C17.0936 6.1389 17.0342 6.12227 16.9737 6.1225L5.44424 6.09914C5.38445 6.10031 5.32609 6.11773 5.27547 6.14956C5.22485 6.1814 5.18389 6.2264 5.15693 6.27978C5.12998 6.33316 5.11807 6.39292 5.12251 6.45255C5.12695 6.51219 5.14755 6.56951 5.18211 6.61831L8.24402 10.7861Z" fill="white"/>
</mask>
<g mask="url(#mask0_192_178)">
<mask id="mask1_192_178" style="mask-type:luminance" maskUnits="userSpaceOnUse" x="-19" y="5" width="61" height="26">
<path d="M-18.739 30.8797H41.2945V5.60269H-18.739V30.8797Z" fill="white"/>
</mask>
<g mask="url(#mask1_192_178)">
<path d="M2.4303 4.25302H20.1246V21.3151H2.4303V4.25302Z" fill="white"/>
</g>
</g>
<path d="M12 24C18.6274 24 24 18.6274 24 12C24 5.37255 18.6274 -3.05176e-05 12 -3.05176e-05C5.37258 -3.05176e-05 0 5.37255 0 12C0 18.6274 5.37258 24 12 24Z" fill="black"/>
<path d="M13.6901 13.0016L13.4956 13.2644L12.7592 14.2534L12.1452 15.0796C12.1005 15.1398 12.0422 15.1887 11.9752 15.2224C11.9081 15.2561 11.8341 15.2736 11.7591 15.2736C11.684 15.2736 11.61 15.2561 11.543 15.2224C11.4759 15.1887 11.4177 15.1398 11.3729 15.0796L10.7861 14.292L10.5524 13.9762L9.33667 12.3416H12.156C12.2378 12.3418 12.3187 12.3258 12.3943 12.2946C12.4698 12.2634 12.5385 12.2176 12.5963 12.1598C12.6541 12.102 12.6999 12.0334 12.7311 11.9578C12.7623 11.8823 12.7783 11.8013 12.7781 11.7195C12.7782 11.691 12.7759 11.6625 12.7712 11.6343C12.7769 11.6349 12.7826 11.6349 12.7882 11.6343C12.9903 11.6423 13.1854 11.71 13.349 11.8288C13.5044 11.9731 13.6019 12.1692 13.6232 12.3802C13.6617 12.5817 13.6737 12.7932 13.6901 13.0016Z" fill="#E9EAE9"/>
<path d="M13.7173 12.4674C13.7215 12.3428 13.7099 12.2182 13.6826 12.0966C13.6665 12.0319 13.6453 11.9685 13.6193 11.9071C13.5895 11.8457 13.5524 11.788 13.5089 11.7354C13.3293 11.5342 13.0934 11.3917 12.8318 11.3261C12.6004 11.2486 12.3594 11.2033 12.1156 11.1916H12.1011H12.0928H8.4082C8.48223 10.829 8.59707 10.476 8.75051 10.1393C8.90927 9.80879 9.11404 9.50239 9.35873 9.22926C9.59319 8.96644 9.88256 8.7584 10.2063 8.6198C10.4896 8.50332 10.7945 8.44861 11.1007 8.45936C11.0965 8.48568 11.0945 8.51229 11.095 8.53893C11.0949 8.6207 11.1109 8.70172 11.1422 8.77727C11.1735 8.85283 11.2194 8.92144 11.2772 8.97923C11.3351 9.03702 11.4038 9.08284 11.4794 9.11403C11.555 9.14523 11.6359 9.16123 11.7177 9.16106H16.5809L13.6755 13.0686C13.6907 12.8709 13.7135 12.6758 13.7173 12.4674Z" fill="#E9EAE9"/>
<path d="M11.3179 8.00774C11.2705 8.00774 11.2231 8.00776 11.1758 8.01218C10.7975 8.04044 10.4305 8.15376 10.1021 8.34373C9.76187 8.54658 9.47048 8.82198 9.24881 9.15028C9.03438 9.46865 8.86443 9.81477 8.74359 10.1791C8.62287 10.5377 8.54087 10.9083 8.49912 11.2844L5.2282 6.75785C5.1759 6.68689 5.14404 6.60296 5.13607 6.51518C5.1281 6.4274 5.14436 6.33913 5.18302 6.25991C5.22168 6.1807 5.2813 6.11358 5.35541 6.06586C5.42952 6.01814 5.51524 5.99165 5.60335 5.98923H17.8996C17.9877 5.99165 18.0735 6.01814 18.1476 6.06586C18.2217 6.11358 18.2813 6.1807 18.32 6.25991C18.3586 6.33913 18.3748 6.4274 18.3668 6.51518C18.3589 6.60296 18.327 6.68689 18.2747 6.75785L17.3697 8.01029H11.7486C11.6305 8.01029 11.4252 8.00837 11.3179 8.00774Z" fill="#E9EAE9"/>
<path d="M10.8057 14.2768C10.8057 14.2768 10.8057 14.2768 10.8025 14.2768L10.6086 14.0172C10.5955 13.9992 10.5835 13.9805 10.5726 13.961L10.8057 14.2768Z" fill="#E9EAE9"/>
<path d="M11.5674 16.0282L13.4381 18.4812L13.4141 18.5254L12.4863 20.2617C12.4337 20.3578 12.356 20.4379 12.2615 20.4935C12.1671 20.5491 12.0593 20.5782 11.9497 20.5776C11.8401 20.5771 11.7326 20.5468 11.6387 20.4902C11.5449 20.4336 11.4681 20.3526 11.4165 20.256L10.5006 18.4875L7.32763 12.3675L6.69605 11.153L4.01184 5.97407L4.03836 5.95892L7.91372 11.1524L8.82061 12.372L11.4822 15.9385C11.5071 15.9715 11.5357 16.0016 11.5674 16.0282Z" fill="#E9EAE9"/>
<path d="M19.7331 5.97849L15.8343 13.4513L15.3183 14.441L13.3522 18.2096L11.9388 16.3111C11.9859 16.2774 12.0275 16.2365 12.0619 16.1898L13.3692 14.441L14.1094 13.4513L17.2459 9.25512L17.7707 8.55342L19.7072 5.96396L19.7331 5.97849Z" fill="#E9EAE9"/>
</g>
<defs>
<clipPath id="clip0_192_178">
<rect width="24" height="24" fill="white"/>
</clipPath>
</defs>
</svg>
