<svg width="24" height="24" viewBox="0 0 24 24" fill="none" xmlns="http://www.w3.org/2000/svg">
<g clip-path="url(#clip0_2293_8117)">
<path d="M0 12C0 18.6274 5.37258 24 12 24C18.6274 24 24 18.6274 24 12C24 5.37258 18.6274 0 12 0C5.37258 0 0 5.37258 0 12Z" fill="#0B0616"/>
<path fill-rule="evenodd" clip-rule="evenodd" d="M13.3661 5.50526L16.9769 7.57711C17.8197 8.0608 18.3435 8.96196 18.3429 9.92831V14.072C18.3429 15.0389 17.8197 15.9395 16.9769 16.4232L13.3661 18.4946C12.9449 18.7361 12.4722 18.8572 12.0001 18.8572C11.5279 18.8572 11.0552 18.7361 10.6341 18.4946L7.02325 16.4232C6.18094 15.9395 5.65723 15.0389 5.65723 14.072V9.92831C5.65723 8.96143 6.18041 8.0608 7.02325 7.57711L10.6341 5.50526C11.4769 5.02209 12.5233 5.02209 13.3661 5.50526ZM16.3741 15.386C16.8452 15.1154 17.1378 14.6121 17.1378 14.072H17.1372V9.92831C17.1372 9.38822 16.8447 8.88436 16.3736 8.61432L12.7628 6.54247C12.5274 6.40746 12.2635 6.33969 11.9996 6.33969C11.7356 6.33969 11.4717 6.40746 11.2364 6.54247L7.62557 8.61432C7.15445 8.88487 6.86187 9.38822 6.86187 9.92831V14.072C6.86187 14.6121 7.15445 15.1159 7.62557 15.386L11.2364 17.4573C11.7075 17.7273 12.2927 17.7273 12.7633 17.4573L16.3741 15.386ZM11.6413 11.4905L14.9366 9.59201C15.2245 9.42648 15.5936 9.52476 15.7602 9.81187C15.9262 10.0985 15.8278 10.4647 15.5394 10.6303L12.5455 12.356V14.6829C12.5455 15.014 12.2753 15.282 11.9427 15.282C11.6095 15.282 11.3398 15.0135 11.3398 14.6829V12.0612C11.3398 12.0555 11.3406 12.0501 11.3414 12.0446C11.3421 12.0402 11.3427 12.0358 11.343 12.0311C11.3352 11.8165 11.4414 11.6054 11.6413 11.4905Z" fill="url(#paint0_linear_2293_8117)"/>
</g>
<defs>
<linearGradient id="paint0_linear_2293_8117" x1="7.43321" y1="5.71725" x2="12.5362" y2="11.3232" gradientUnits="userSpaceOnUse">
<stop offset="0.1249" stop-color="#D274F7"/>
<stop offset="1" stop-color="#9A74F7"/>
</linearGradient>
<clipPath id="clip0_2293_8117">
<rect width="24" height="24" fill="white"/>
</clipPath>
</defs>
</svg>
