<svg width="24" height="25" viewBox="0 0 24 25" fill="none" xmlns="http://www.w3.org/2000/svg">
<g clip-path="url(#clip0_1136_12462)">
<circle cx="12" cy="12.5918" r="12" fill="white"/>
<path d="M10.4905 8.17542C10.3164 8.15055 10.3081 8.14226 10.3911 8.13397C10.5486 8.10909 10.9134 8.14226 11.1704 8.20029C11.7674 8.34124 12.3063 8.70605 12.8784 9.34446L13.0276 9.51857L13.2432 9.48541C14.1635 9.33617 15.1087 9.45224 15.8963 9.81705C16.1119 9.91654 16.4518 10.1155 16.4933 10.1653C16.5099 10.1819 16.5347 10.2896 16.5513 10.3974C16.6093 10.7871 16.5845 11.0773 16.4601 11.3012C16.3938 11.4255 16.3938 11.4587 16.4352 11.5665C16.4684 11.6494 16.5679 11.7074 16.6591 11.7074C16.8581 11.7074 17.0654 11.3924 17.1648 10.9529L17.2063 10.7788L17.2809 10.8617C17.7038 11.3343 18.0354 11.9893 18.0852 12.4536L18.1017 12.578L18.0271 12.4702C17.9028 12.2795 17.7867 12.1551 17.6291 12.0473C17.3473 11.8567 17.0488 11.7986 16.2611 11.7572C15.5481 11.7157 15.1418 11.6577 14.7439 11.525C14.064 11.3012 13.7158 11.011 12.9115 9.94142C12.555 9.46883 12.3312 9.2118 12.1073 8.99624C11.6181 8.52365 11.129 8.27491 10.4905 8.17542Z" fill="#FF007A"/>
<path d="M16.6674 9.22837C16.684 8.91331 16.7254 8.70603 16.8166 8.51534C16.8498 8.44072 16.883 8.37439 16.8912 8.37439C16.8995 8.37439 16.883 8.43243 16.8581 8.49876C16.7917 8.68116 16.7835 8.93818 16.8249 9.22837C16.883 9.60147 16.9078 9.65121 17.3058 10.0575C17.4882 10.2482 17.7038 10.4886 17.7867 10.5881L17.9276 10.7705L17.7867 10.6378C17.6126 10.472 17.2146 10.157 17.1234 10.1155C17.0654 10.0823 17.0571 10.0823 17.0156 10.1238C16.9824 10.157 16.9742 10.2067 16.9742 10.4472C16.9659 10.8203 16.9161 11.0524 16.7917 11.2928C16.7254 11.4172 16.7171 11.3923 16.7752 11.2514C16.8166 11.1436 16.8249 11.0939 16.8249 10.7373C16.8249 10.016 16.742 9.84191 16.2362 9.55172C16.1119 9.4771 15.8963 9.36932 15.7719 9.31128C15.6393 9.25324 15.5398 9.2035 15.5481 9.2035C15.5647 9.18691 16.0538 9.32786 16.2445 9.41077C16.5347 9.52685 16.5845 9.53514 16.6176 9.52685C16.6425 9.50197 16.6591 9.43565 16.6674 9.22837Z" fill="#FF007A"/>
<path d="M10.8305 10.4638C10.4823 9.98289 10.2584 9.23669 10.3082 8.68119L10.3248 8.50708L10.4077 8.52366C10.5569 8.54854 10.8139 8.64803 10.9383 8.72265C11.2699 8.92163 11.4192 9.19524 11.5601 9.8751C11.6016 10.0741 11.6596 10.3062 11.6845 10.3809C11.7259 10.5052 11.8835 10.7954 12.0161 10.9778C12.1073 11.1105 12.0493 11.1768 11.842 11.1602C11.527 11.1271 11.1041 10.8369 10.8305 10.4638Z" fill="#FF007A"/>
<path d="M16.2445 14.0704C14.6028 13.4071 14.0225 12.835 14.0225 11.8649C14.0225 11.724 14.0308 11.6079 14.0308 11.6079C14.039 11.6079 14.0971 11.6577 14.1717 11.7157C14.5033 11.981 14.8764 12.0971 15.9128 12.2463C16.5181 12.3375 16.8663 12.4039 17.1814 12.5116C18.1846 12.8433 18.8064 13.5231 18.9556 14.4435C18.9971 14.7088 18.9722 15.2145 18.9059 15.4798C18.8479 15.6871 18.682 16.0685 18.6406 16.0768C18.6323 16.0768 18.6157 16.0353 18.6157 15.969C18.5991 15.6208 18.425 15.2891 18.1348 15.0321C17.7866 14.7336 17.3389 14.5098 16.2445 14.0704Z" fill="#FF007A"/>
<path d="M15.0838 14.3439C15.0672 14.2196 15.0258 14.062 15.0009 13.9957L14.9594 13.8713L15.034 13.9625C15.1418 14.0869 15.2247 14.2361 15.2994 14.4434C15.3574 14.601 15.3574 14.6507 15.3574 14.9077C15.3574 15.1565 15.3491 15.2145 15.2994 15.3554C15.2164 15.5793 15.117 15.7368 14.9511 15.9109C14.6527 16.2177 14.263 16.3835 13.7075 16.4581C13.608 16.4664 13.3261 16.4913 13.0774 16.5079C12.4555 16.5411 12.041 16.6074 11.6679 16.74C11.6181 16.7566 11.5684 16.7732 11.5601 16.7649C11.5435 16.7483 11.8005 16.5991 12.0078 16.4996C12.298 16.3587 12.5965 16.284 13.2515 16.168C13.5748 16.1182 13.9065 16.0519 13.9894 16.0187C14.8102 15.7617 15.2164 15.1233 15.0838 14.3439Z" fill="#FF007A"/>
<path d="M15.8384 15.6789C15.6228 15.2063 15.573 14.7586 15.6891 14.3357C15.7057 14.2943 15.7223 14.2528 15.7389 14.2528C15.7554 14.2528 15.8052 14.2777 15.8549 14.3108C15.9544 14.3772 16.1617 14.4932 16.6923 14.7834C17.3639 15.1482 17.7453 15.4301 18.0106 15.7535C18.2428 16.0354 18.3837 16.3587 18.45 16.7567C18.4915 16.9806 18.4666 17.5195 18.4086 17.7433C18.2262 18.4481 17.8116 19.0119 17.2064 19.3352C17.1152 19.385 17.0406 19.4181 17.0323 19.4181C17.024 19.4181 17.0571 19.3352 17.1069 19.2357C17.3059 18.8129 17.3307 18.4066 17.1815 17.9506C17.0903 17.6687 16.8996 17.3288 16.5182 16.7567C16.0622 16.0934 15.9544 15.9193 15.8384 15.6789Z" fill="#FF007A"/>
<path d="M9.66142 18.2159C10.275 17.7018 11.0294 17.337 11.7259 17.2209C12.0244 17.1712 12.5218 17.1878 12.7954 17.2624C13.2349 17.3785 13.6328 17.6272 13.8401 17.934C14.0391 18.2325 14.1303 18.4895 14.2215 19.0616C14.2547 19.2854 14.2961 19.5176 14.3044 19.5673C14.3707 19.8658 14.5034 20.0979 14.6692 20.2223C14.9262 20.413 15.374 20.4213 15.8134 20.2555C15.888 20.2306 15.9543 20.2057 15.9543 20.214C15.9709 20.2306 15.7471 20.3798 15.5978 20.4545C15.3905 20.5622 15.2247 20.5954 15.0009 20.5954C14.6029 20.5954 14.263 20.3881 13.9893 19.9736C13.9313 19.8907 13.8152 19.6502 13.7157 19.4264C13.4256 18.7548 13.2763 18.5558 12.9364 18.3319C12.6379 18.1412 12.2565 18.0998 11.9663 18.2407C11.5849 18.4231 11.4854 18.9123 11.7508 19.2108C11.8585 19.3352 12.0575 19.4347 12.2234 19.4595C12.5301 19.501 12.7954 19.2605 12.7954 18.9538C12.7954 18.7548 12.7208 18.6387 12.5218 18.5475C12.2565 18.4314 11.9663 18.5641 11.9746 18.8211C11.9746 18.9289 12.0244 18.9952 12.1322 19.045C12.1985 19.0781 12.1985 19.0781 12.1487 19.0698C11.9083 19.0201 11.8503 18.7216 12.041 18.5309C12.2731 18.2988 12.7623 18.3983 12.9281 18.7216C12.9944 18.8543 13.0027 19.1196 12.9447 19.2854C12.8037 19.6502 12.4058 19.8409 11.9995 19.7331C11.7259 19.6585 11.6098 19.5839 11.2782 19.244C10.6978 18.647 10.4739 18.5309 9.64483 18.4066L9.4873 18.3817L9.66142 18.2159Z" fill="#FF007A"/>
<path fill-rule="evenodd" clip-rule="evenodd" d="M5.30033 4.87556C7.23215 7.22193 10.2086 10.87 10.3579 11.069C10.4822 11.2348 10.4325 11.3923 10.2252 11.5084C10.1091 11.5747 9.8687 11.6411 9.75263 11.6411C9.61997 11.6411 9.46244 11.5747 9.35466 11.467C9.28004 11.3923 8.95669 10.9197 8.22708 9.78387C7.67157 8.9133 7.19898 8.19198 7.19069 8.18369C7.15753 8.16711 7.15753 8.16711 8.16904 9.97456C8.80745 11.1104 9.01473 11.5167 9.01473 11.5664C9.01473 11.6742 8.98156 11.7323 8.8489 11.8815C8.62505 12.1302 8.52555 12.4121 8.45093 13.0008C8.36802 13.6558 8.14416 14.1201 7.50575 14.9077C7.13266 15.372 7.07462 15.455 6.98342 15.6456C6.86734 15.8778 6.83418 16.0105 6.8176 16.3089C6.80101 16.624 6.83418 16.823 6.92538 17.1215C7.00829 17.3868 7.09949 17.5609 7.32335 17.9008C7.51404 18.1993 7.63012 18.4232 7.63012 18.5061C7.63012 18.5724 7.6467 18.5724 7.94518 18.5061C8.65821 18.3402 9.24688 18.0583 9.57023 17.7101C9.76921 17.4946 9.81896 17.3785 9.81896 17.08C9.81896 16.8893 9.81067 16.8478 9.76092 16.7318C9.67801 16.5494 9.52048 16.4001 9.18055 16.168C8.73283 15.8612 8.54214 15.6125 8.49239 15.2808C8.45093 14.9989 8.50068 14.8082 8.74941 14.2859C9.00643 13.747 9.07276 13.5231 9.11422 12.9759C9.13909 12.6277 9.18055 12.4868 9.28004 12.379C9.38782 12.2629 9.47903 12.2214 9.73605 12.1883C10.1589 12.1302 10.4325 12.0225 10.6481 11.8152C10.8388 11.6411 10.9217 11.467 10.93 11.2099L10.9383 11.0192L10.8305 10.9032C10.4408 10.4554 5.04331 4.51904 5.01844 4.51904C5.01014 4.51904 5.1428 4.67657 5.30033 4.87556ZM7.84569 16.6654C7.93689 16.5079 7.88714 16.3089 7.7379 16.2094C7.59695 16.1182 7.38139 16.1597 7.38139 16.2841C7.38139 16.3172 7.39797 16.3504 7.44772 16.367C7.52234 16.4084 7.53063 16.4499 7.47259 16.5411C7.41455 16.6323 7.41455 16.7152 7.48917 16.7732C7.60525 16.8644 7.76278 16.8147 7.84569 16.6654Z" fill="#FF007A"/>
<path fill-rule="evenodd" clip-rule="evenodd" d="M11.2036 12.3044C11.0046 12.3625 10.814 12.5781 10.7559 12.7936C10.7228 12.9263 10.7393 13.1667 10.7974 13.2413C10.8886 13.3574 10.9715 13.3906 11.2036 13.3906C11.6596 13.3906 12.0493 13.1916 12.0908 12.9511C12.1322 12.7522 11.9581 12.4786 11.7177 12.3542C11.5933 12.2879 11.3363 12.263 11.2036 12.3044ZM11.7343 12.719C11.8006 12.6195 11.7757 12.5117 11.6514 12.4371C11.4275 12.2962 11.0876 12.4122 11.0876 12.6278C11.0876 12.7356 11.2617 12.8517 11.4275 12.8517C11.5353 12.8517 11.6845 12.7853 11.7343 12.719Z" fill="#FF007A"/>
</g>
<defs>
<clipPath id="clip0_1136_12462">
<rect y="0.591797" width="24" height="24" rx="12" fill="white"/>
</clipPath>
</defs>
</svg>
