<svg width="24" height="24" viewBox="0 0 24 24" fill="none" xmlns="http://www.w3.org/2000/svg">
<g clip-path="url(#clip0_420_50)">
<mask id="mask0_420_50" style="mask-type:luminance" maskUnits="userSpaceOnUse" x="0" y="0" width="24" height="24">
<path d="M24 0H0V24H24V0Z" fill="white"/>
</mask>
<g mask="url(#mask0_420_50)">
<path d="M12 24C18.65 24 24 18.65 24 12C24 5.34998 18.65 0 12 0C5.34998 0 0 5.34998 0 12C0 18.65 5.34998 24 12 24Z" fill="#2775CA"/>
<path d="M15.3 13.9C15.3 12.15 14.25 11.55 12.15 11.3001C10.65 11.1 10.35 10.7001 10.35 9.99998C10.35 9.2999 10.85 8.84999 11.85 8.84999C12.75 8.84999 13.25 9.14999 13.5 9.89999C13.55 10.05 13.7 10.15 13.85 10.15H14.65C14.85 10.15 15 9.99998 15 9.80006V9.74999C14.8 8.64998 13.9 7.79999 12.75 7.70006V6.50006C12.75 6.29999 12.6 6.14999 12.35 6.09998H11.6C11.4 6.09998 11.25 6.24998 11.2 6.50006V7.64999C9.69996 7.85006 8.75004 8.84999 8.75004 10.1001C8.75004 11.7501 9.75002 12.4 11.85 12.6501C13.25 12.9 13.7 13.2 13.7 14.0001C13.7 14.8001 13 15.3501 12.05 15.3501C10.75 15.3501 10.3 14.8 10.15 14.05C10.1 13.8501 9.95004 13.75 9.80004 13.75H8.94996C8.75004 13.75 8.60004 13.9 8.60004 14.1V14.1501C8.79996 15.4 9.60002 16.3 11.25 16.5501V17.7501C11.25 17.95 11.4 18.1 11.65 18.15H12.4C12.6 18.15 12.75 18 12.8 17.7501V16.5501C14.3 16.3 15.3 15.25 15.3 13.9Z" fill="white"/>
<path d="M9.45 19.1499C5.55 17.75 3.54996 13.4 5.00001 9.54993C5.75001 7.44993 7.40001 5.84999 9.45 5.09999C9.65001 5.00001 9.75 4.85001 9.75 4.59995V3.89999C9.75 3.69995 9.65001 3.54995 9.45 3.50003C9.39993 3.50003 9.3 3.50003 9.24993 3.54995C4.5 5.04993 1.89996 10.1 3.39996 14.85C4.29996 17.6499 6.45 19.8 9.24993 20.7C9.45 20.7999 9.65001 20.7 9.69993 20.4999C9.75 20.45 9.75 20.4 9.75 20.3V19.5999C9.75 19.4499 9.6 19.25 9.45 19.1499ZM14.75 3.54995C14.55 3.44999 14.3499 3.54995 14.3 3.74999C14.25 3.80003 14.25 3.84995 14.25 3.95003V4.64999C14.25 4.85001 14.4 5.04993 14.55 5.15001C18.45 6.54993 20.45 10.8999 18.9999 14.75C18.2499 16.85 16.5999 18.45 14.55 19.2C14.3499 19.2999 14.25 19.4499 14.25 19.7V20.4C14.25 20.6 14.3499 20.75 14.55 20.7999C14.6 20.7999 14.7 20.7999 14.75 20.75C19.5 19.25 22.1001 14.1999 20.6001 9.44999C19.7001 6.59999 17.4999 4.44995 14.75 3.54995Z" fill="white"/>
</g>
<mask id="mask1_420_50" style="mask-type:luminance" maskUnits="userSpaceOnUse" x="14" y="14" width="10" height="10">
<path d="M23.9808 14.3808H14.3808V23.9808H23.9808V14.3808Z" fill="white"/>
</mask>
<g mask="url(#mask1_420_50)">
<path d="M19.1856 23.976C21.8313 23.976 23.976 21.8313 23.976 19.1856C23.976 16.5399 21.8313 14.3951 19.1856 14.3951C16.5399 14.3951 14.3951 16.5399 14.3951 19.1856C14.3951 21.8313 16.5399 23.976 19.1856 23.976Z" fill="white"/>
<path d="M19.6183 18.5977L21.8914 16.3247L21.029 15.4625L19.1872 17.3043L17.3454 15.4625L16.4831 16.3247L18.7561 18.5977C18.8751 18.7167 19.0312 18.7763 19.1872 18.7763C19.3432 18.7763 19.4993 18.7168 19.6183 18.5977ZM22.9088 21.0259L21.067 19.184L22.9088 17.3422L22.0465 16.48L19.7736 18.753C19.5355 18.991 19.5355 19.3771 19.7736 19.6152L22.0465 21.8882L22.9088 21.0259ZM19.184 21.0669L21.0259 22.9088L21.8881 22.0465L19.6151 19.7735C19.377 19.5354 18.991 19.5354 18.7529 19.7735L16.4799 22.0465L17.3422 22.9088L19.184 21.0669ZM18.5977 19.6183C18.7121 19.5039 18.7763 19.3489 18.7763 19.1872C18.7763 19.0255 18.7121 18.8704 18.5977 18.756L16.3247 16.4831L15.4625 17.3454L17.3043 19.1872L15.4625 21.029L16.3247 21.8913L18.5977 19.6183Z" fill="black"/>
</g>
<path d="M19.2 23.88C21.7847 23.88 23.88 21.7847 23.88 19.2C23.88 16.6153 21.7847 14.52 19.2 14.52C16.6153 14.52 14.52 16.6153 14.52 19.2C14.52 21.7847 16.6153 23.88 19.2 23.88Z" stroke="black" stroke-width="5"/>
</g>
<defs>
<clipPath id="clip0_420_50">
<rect width="24" height="24" fill="white"/>
</clipPath>
</defs>
</svg>
