<svg width="24" height="24" viewBox="0 0 24 24" fill="none" xmlns="http://www.w3.org/2000/svg">
<g clip-path="url(#clip0_420_34)">
<path d="M24 12C24 5.37258 18.6274 0 12 0C5.37258 0 0 5.37258 0 12C0 18.6274 5.37258 24 12 24C18.6274 24 24 18.6274 24 12Z" fill="white"/>
<path fill-rule="evenodd" clip-rule="evenodd" d="M14.7939 5.78456C14.7939 6.7011 13.5164 7.44409 11.9404 7.44409C10.3645 7.44409 9.08703 6.7011 9.08703 5.78456C9.08703 4.86799 10.3645 4.125 11.9404 4.125C13.5164 4.125 14.7939 4.86799 14.7939 5.78456ZM14.7939 18.289C14.7939 19.2055 13.5164 19.9485 11.9404 19.9485C10.3645 19.9485 9.08703 19.2055 9.08703 18.289C9.08703 17.3724 10.3645 16.6294 11.9404 16.6294C13.5164 16.6294 14.7939 17.3724 14.7939 18.289ZM7.96391 9.74134C8.75186 8.3766 8.74676 6.8985 7.95251 6.43995C7.15822 5.98136 5.87557 6.71595 5.08762 8.08069C4.29967 9.44543 4.30481 10.9235 5.09906 11.3821C5.89331 11.8407 7.17596 11.1061 7.96391 9.74134ZM18.7816 12.6919C19.5753 13.1502 19.58 14.628 18.792 15.9928C18.0041 17.3575 16.7219 18.0924 15.9282 17.6341C15.1344 17.1758 15.1297 15.698 15.9177 14.3333C16.7056 12.9685 17.9878 12.2337 18.7816 12.6919ZM7.953 17.6337C8.74729 17.1751 8.75239 15.697 7.96444 14.3322C7.17649 12.9675 5.89383 12.2329 5.09958 12.6915C4.3053 13.1501 4.3002 14.6282 5.08815 15.9929C5.8761 17.3577 7.15875 18.0923 7.953 17.6337ZM18.7927 8.08155C19.5807 9.44629 19.576 10.9242 18.7823 11.3824C17.9886 11.8407 16.7064 11.1058 15.9184 9.74111C15.1304 8.37637 15.1351 6.89854 15.9288 6.44025C16.7226 5.982 18.0048 6.71681 18.7927 8.08155Z" fill="#E6007A"/>
<path d="M19.5 23.625C21.7782 23.625 23.625 21.7782 23.625 19.5C23.625 17.2218 21.7782 15.375 19.5 15.375C17.2218 15.375 15.375 17.2218 15.375 19.5C15.375 21.7782 17.2218 23.625 19.5 23.625Z" fill="url(#paint0_linear_420_34)" stroke="white" stroke-width="2"/>
<path d="M19.3441 21.141L17.8194 18.854C17.7363 18.7294 17.8257 18.5625 17.9754 18.5625H18.6533C18.714 18.5625 18.771 18.5919 18.8061 18.6413L19.3473 19.4023C19.422 19.5074 19.5781 19.5074 19.6529 19.4023L20.194 18.6413C20.2292 18.5919 20.2861 18.5625 20.3468 18.5625H21.0247C21.1745 18.5625 21.2638 18.7294 21.1807 18.854L19.6561 21.141C19.5819 21.2523 19.4183 21.2523 19.3441 21.141Z" fill="white"/>
<path fill-rule="evenodd" clip-rule="evenodd" d="M15.6586 21.845C14.5193 22.2685 13.2867 22.5 12 22.5C6.201 22.5 1.5 17.799 1.5 12C1.5 6.201 6.201 1.5 12 1.5C17.799 1.5 22.5 6.201 22.5 12C22.5 13.2867 22.2685 14.5193 21.845 15.6586C22.3027 15.9385 22.7064 16.298 23.0371 16.7178C23.6569 15.2696 24 13.6749 24 12C24 5.37259 18.6274 0 12 0C5.37259 0 0 5.37259 0 12C0 18.6274 5.37259 24 12 24C13.6749 24 15.2696 23.6569 16.7178 23.0371C16.298 22.7064 15.9385 22.3027 15.6586 21.845Z" fill="url(#paint1_linear_420_34)"/>
</g>
<defs>
<linearGradient id="paint0_linear_420_34" x1="19.5" y1="15.75" x2="19.5" y2="23.25" gradientUnits="userSpaceOnUse">
<stop stop-color="#7AEDCF"/>
<stop offset="0.201333" stop-color="#68CEFA"/>
<stop offset="0.403244" stop-color="#689CF8"/>
<stop offset="0.602076" stop-color="#AC57C0"/>
<stop offset="0.801867" stop-color="#E65659"/>
<stop offset="1" stop-color="#F2C241"/>
</linearGradient>
<linearGradient id="paint1_linear_420_34" x1="12" y1="0" x2="12" y2="24" gradientUnits="userSpaceOnUse">
<stop stop-color="#7AEDCF"/>
<stop offset="0.201333" stop-color="#68CEFA"/>
<stop offset="0.403244" stop-color="#689CF8"/>
<stop offset="0.602076" stop-color="#AC57C0"/>
<stop offset="0.801867" stop-color="#E65659"/>
<stop offset="1" stop-color="#F2C241"/>
</linearGradient>
<clipPath id="clip0_420_34">
<rect width="24" height="24" fill="white"/>
</clipPath>
</defs>
</svg>
