<svg width="20" height="20" viewBox="0 0 20 20" fill="none" xmlns="http://www.w3.org/2000/svg">
<g clip-path="url(#clip0_491_46)">
<path d="M7.34998 15.7L9.99998 20L12.65 15.7L9.99998 11.7L7.34998 15.7Z" fill="#E3232C"/>
<path d="M16.15 5V6.65H10.85V8.35H16.15V10H10.85L13.6 14.15L18.9 5.5C17.65 3.05 15.45 1.2 12.8 0.400002L10 5H16.15Z" fill="#E3232C"/>
<path d="M9.14997 10H3.84998V8.35H9.14997V6.65H3.84998V5H9.99998L7.19998 0.400002C4.49998 1.2 2.29998 3.05 1.09998 5.5L6.39998 14.15L9.14997 10Z" fill="#E3232C"/>
<path d="M12.65 15.7L10 20L7.35 15.7L5.25 18.8C6.65 19.55 8.25 20 10 20C11.75 20 13.3 19.55 14.75 18.8L12.65 15.7Z" fill="#E3232C"/>
<path opacity="0.35" d="M12.65 15.7L10 20L7.35 15.7L5.25 18.8C6.65 19.55 8.25 20 10 20C11.75 20 13.3 19.55 14.75 18.8L12.65 15.7Z" fill="black"/>
<path d="M16.1 17.9C18.45 16.05 20 13.2 20 10C20 6.8 19.6 6.85 18.9 5.5L13.6 14.15L16.1 17.9Z" fill="#E3232C"/>
<path opacity="0.35" d="M16.1 17.9C18.45 16.05 20 13.2 20 10C20 6.8 19.6 6.85 18.9 5.5L13.6 14.15L16.1 17.9Z" fill="black"/>
<path d="M1.1 5.5C0.4 6.85 0 8.4 0 10C0 13.2 1.55 16.1 3.9 17.9L6.4 14.15L1.1 5.5Z" fill="#E3232C"/>
<path opacity="0.35" d="M1.1 5.5C0.4 6.85 0 8.4 0 10C0 13.2 1.55 16.1 3.9 17.9L6.4 14.15L1.1 5.5Z" fill="black"/>
<path d="M9.99995 5L12.8 0.4C11.9 0.15 10.95 0 9.99995 0C9.04995 0 8.09995 0.15 7.19995 0.4L9.99995 5Z" fill="#E3232C"/>
<path opacity="0.35" d="M9.99995 5L12.8 0.4C11.9 0.15 10.95 0 9.99995 0C9.04995 0 8.09995 0.15 7.19995 0.4L9.99995 5Z" fill="black"/>
<path d="M9.99998 11.7L12.65 15.7L14.75 18.8C15.25 18.55 15.7 18.25 16.15 17.9L13.65 14.15L10.9 10H16.2V8.35H10.9V6.65H16.2V5H3.84998V6.65H9.14998V8.35H3.84998V10H9.14998L6.39998 14.15L3.89998 17.9C4.34998 18.25 4.79998 18.55 5.29998 18.8L7.39998 15.7L10.05 11.7H9.99998Z" fill="white"/>
</g>
<defs>
<clipPath id="clip0_491_46">
<rect width="20" height="20" rx="10" fill="white"/>
</clipPath>
</defs>
</svg>
