<svg width="24" height="24" viewBox="0 0 24 24" fill="none" xmlns="http://www.w3.org/2000/svg">
<g clip-path="url(#clip0_2465_90)">
<path d="M19.5696 5.03665L18.9111 5.6951C20.4834 7.41475 21.3553 9.6605 21.3553 11.9906C21.3553 14.3207 20.4834 16.5664 18.9111 18.2861L19.5696 18.9445C21.3174 17.0478 22.2877 14.563 22.2877 11.9838C22.2877 9.40454 21.3174 6.91971 19.5696 5.02301V5.03665Z" fill="#5A5564"/>
<path d="M5.7111 5.09405C7.43066 3.52158 9.67644 2.64955 12.0066 2.64955C14.3367 2.64955 16.5825 3.52158 18.3021 5.09405L18.9605 4.43561C17.0637 2.68688 14.5783 1.716 11.9984 1.716C9.41844 1.716 6.93301 2.68688 5.03619 4.43561L5.7111 5.09405Z" fill="#5A5564"/>
<path d="M5.09405 18.2955C3.52334 16.5764 2.65239 14.3319 2.65239 12.0033C2.65239 9.67468 3.52334 7.43024 5.09405 5.71112L4.43561 5.05267C2.68688 6.94949 1.716 9.43492 1.716 12.0148C1.716 14.5947 2.68688 17.0802 4.43561 18.977L5.09405 18.2955Z" fill="#5A5564"/>
<path d="M18.2955 18.9017C16.5759 20.4742 14.3302 21.3462 12 21.3462C9.66987 21.3462 7.42409 20.4742 5.70453 18.9017L5.04608 19.5602C6.94289 21.3089 9.42833 22.2798 12.0082 22.2798C14.5882 22.2798 17.0736 21.3089 18.9704 19.5602L18.2955 18.9017Z" fill="#5A5564"/>
<path d="M16.1602 9.80099C16.0286 8.42625 14.8433 7.96674 13.3421 7.82565V5.93073H12.1813V7.78896H11.2553V5.93073H10.1044V7.83741H7.75279V9.07717C7.75279 9.07717 8.60924 9.06165 8.59607 9.07717C8.75042 9.06032 8.90528 9.10398 9.02808 9.19898C9.15089 9.29398 9.23206 9.4329 9.25452 9.58653V14.8071C9.24728 14.9164 9.19693 15.0183 9.11455 15.0904C9.03217 15.1626 8.92451 15.199 8.81524 15.1918C8.83076 15.205 7.97196 15.1918 7.97196 15.1918L7.75232 16.5778H10.0828V18.5151H11.2407V16.6061H12.1677V18.5062H13.3299V16.591C15.2892 16.472 16.6555 15.989 16.8267 14.1548C16.965 12.6789 16.2708 12.0195 15.1618 11.7561C15.8376 11.4222 16.2548 10.807 16.1602 9.80099ZM14.5329 13.9262C14.5329 15.3672 12.0642 15.2026 11.2778 15.2026V12.646C12.0661 12.6478 14.5329 12.4216 14.5329 13.9262ZM13.9968 10.324C13.9968 11.6409 11.9363 11.4815 11.2816 11.4815V9.1576C11.9363 9.1576 13.9968 8.95112 13.9968 10.324Z" fill="#F09242"/>
<path d="M11.9979 24C5.37059 23.9986 0 18.6247 0 11.9979C0 5.37106 5.37483 0 12.0021 0C18.6294 0 23.9986 5.372 24 11.9979C24.0014 18.6238 18.6294 23.9986 12.0021 24H11.9979ZM11.9979 0.935938C5.89077 0.940642 0.945345 5.895 0.949107 12.0021C0.95287 18.1092 5.90817 23.0547 12.0153 23.0509C18.1224 23.0471 23.0617 18.0994 23.0641 11.9984C23.0664 5.89735 18.1177 0.940642 12.0111 0.935938H11.9979Z" fill="#282138"/>
</g>
<defs>
<clipPath id="clip0_2465_90">
<rect width="24" height="24" fill="white"/>
</clipPath>
</defs>
</svg>
