<svg width="24" height="24" viewBox="0 0 24 24" fill="none" xmlns="http://www.w3.org/2000/svg">
<g clip-path="url(#clip0_10_8118)">
<path d="M6.72818 23.8033C12.7606 23.8033 12.7606 23.7135 13.7835 23.4098C15.1202 23.013 10.0095 19.4754 6.72818 19.4754C3.44689 19.4754 0.78688 20.4442 0.78688 21.6393C0.78688 22.8344 3.44702 23.8033 6.72818 23.8033Z" fill="black"/>
<path d="M20.4261 5.4017L20.7035 5.70071L20.461 6.02867C12.5935 16.666 8.0614 21.4823 6.13846 20.8364C4.9672 20.4429 3.79258 19.2596 2.61794 17.5413C2.20506 16.9374 1.81735 16.3014 1.46473 15.6685C1.22991 15.2471 1.03117 14.8627 0.927971 14.6462C0.796333 14.37 0.740756 14.1999 0.696664 13.9765C0.693974 13.9628 0.693974 13.9628 0.691417 13.9496C0.673014 13.8548 0.666647 13.8248 0.65289 13.7729C0.416156 12.8807 0.295074 11.9563 0.295074 11.0164C0.295074 5.09517 5.09517 0.295074 11.0164 0.295074C12.8714 0.295074 14.6591 0.767188 16.2433 1.65343L16.2842 1.67902C17.5813 2.58208 18.961 3.82296 20.4261 5.4017ZM15.7421 2.50014C14.3089 1.70302 12.694 1.27868 11.0164 1.27868C5.6384 1.27868 1.27868 5.6384 1.27868 11.0164C1.27868 11.871 1.38866 12.7106 1.6036 13.5207C1.62486 13.6008 1.63447 13.6461 1.65702 13.7623C1.65938 13.7745 1.65938 13.7745 1.66166 13.786C1.69012 13.9302 1.72014 14.0221 1.81587 14.223C1.91001 14.4205 2.09919 14.7864 2.32397 15.1898C2.66288 15.7981 3.03532 16.409 3.42994 16.9862C4.49121 18.5387 5.54372 19.599 6.45168 19.904C7.66267 20.3108 12.2215 15.4849 19.4261 5.77324C18.1181 4.39261 16.8894 3.30156 15.7421 2.50014Z" fill="black"/>
<path d="M15.7421 2.50014C14.3089 1.70302 12.694 1.27869 11.0164 1.27869C5.6384 1.27869 1.27869 5.63841 1.27869 11.0164C1.27869 11.871 1.38866 12.7106 1.60361 13.5207C1.62486 13.6008 1.63447 13.6461 1.65702 13.7623C1.65939 13.7745 1.65939 13.7745 1.66167 13.786C1.69012 13.9302 1.72014 14.0222 1.81587 14.223C1.91001 14.4205 2.0992 14.7864 2.32397 15.1898C2.66289 15.7981 3.03533 16.409 3.42995 16.9863C4.49122 18.5387 5.54372 19.599 6.45169 19.904C7.66267 20.3108 12.2215 15.4849 19.4261 5.77325C18.1181 4.39262 16.8894 3.30157 15.7421 2.50014Z" fill="#EC1C79"/>
<path d="M12.9836 23.7049C7.06238 23.7049 2.26228 18.9048 2.26228 12.9836C2.26228 7.06239 7.06238 2.2623 12.9836 2.2623C18.9048 2.2623 23.7049 7.06239 23.7049 12.9836C23.7049 18.9048 18.9048 23.7049 12.9836 23.7049ZM12.9836 22.7213C18.3616 22.7213 22.7213 18.3616 22.7213 12.9836C22.7213 7.60562 18.3616 3.24591 12.9836 3.24591C7.60561 3.24591 3.24589 7.60562 3.24589 12.9836C3.24589 18.3616 7.60561 22.7213 12.9836 22.7213Z" fill="black"/>
<path d="M12.9836 22.7213C18.3616 22.7213 22.7213 18.3616 22.7213 12.9836C22.7213 7.6056 18.3616 3.24588 12.9836 3.24588C7.60561 3.24588 3.2459 7.6056 3.2459 12.9836C3.2459 18.3616 7.60561 22.7213 12.9836 22.7213Z" fill="white"/>
<path fill-rule="evenodd" clip-rule="evenodd" d="M5.69941 14.9783L4.41049 11.0951H5.53967L6.21167 13.3259L6.95528 11.084H7.87515L8.61875 13.3259L9.29075 11.0951H10.3979L9.10898 14.9783H8.1781L7.40144 12.7585L6.63029 14.9783H5.69941ZM10.822 14.9508V11.0951H13.9231V12.0039H11.8796V12.5878H13.7304V13.4305H11.8796V14.0419H13.9507V14.9508H10.822ZM15.4379 14.9508V12.0315H14.2812V11.0951H17.6632V12.0315H16.5065V14.9508H15.4379ZM18.1314 14.9508V11.0951H19.2V12.5382H20.5715V11.0951H21.6401V14.9508H20.5715V13.4856H19.2V14.9508H18.1314Z" fill="black"/>
<path d="M0.933986 9.93527C0.661892 9.79922 0.551605 9.46836 0.687652 9.19627C0.823698 8.92418 1.15456 8.81389 1.42665 8.94993L3.00042 9.73682C3.27252 9.87287 3.3828 10.2037 3.24676 10.4758C3.11071 10.7479 2.77985 10.8582 2.50776 10.7222L0.933986 9.93527Z" fill="black"/>
<path d="M0.752786 12.5448C0.476573 12.4173 0.355998 12.09 0.483473 11.8138C0.610949 11.5376 0.938202 11.417 1.21441 11.5445L2.78818 12.2708C3.0644 12.3983 3.18497 12.7256 3.0575 13.0018C2.93002 13.278 2.60277 13.3986 2.32656 13.2711L0.752786 12.5448Z" fill="black"/>
</g>
<defs>
<clipPath id="clip0_10_8118">
<rect width="24" height="24" fill="white"/>
</clipPath>
</defs>
</svg>
