<svg width="24" height="24" viewBox="0 0 24 24" fill="none" xmlns="http://www.w3.org/2000/svg">
<g clip-path="url(#clip0_2465_101)">
<mask id="mask0_2465_101" style="mask-type:alpha" maskUnits="userSpaceOnUse" x="0" y="0" width="24" height="24">
<path d="M12 24C18.6274 24 24 18.6274 24 12C24 5.37258 18.6274 0 12 0C5.37258 0 0 5.37258 0 12C0 18.6274 5.37258 24 12 24Z" fill="#D9D9D9"/>
</mask>
<g mask="url(#mask0_2465_101)">
<path d="M25.6533 -1.65332H-1.65332V25.6533H25.6533V-1.65332Z" fill="#00A3FF"/>
<path d="M6.39937 11.0312L6.24651 11.2657C4.52247 13.9104 4.90753 17.3741 7.17227 19.5931C8.50459 20.8985 10.2508 21.5513 11.997 21.5516C11.997 21.5516 11.997 21.5516 6.39937 11.0312Z" fill="white"/>
<path opacity="0.6" d="M11.9965 14.2286L6.39886 11.0312C11.9965 21.5516 11.9965 21.5516 11.9965 21.5516C11.9965 19.2603 11.9965 16.6348 11.9965 14.2286Z" fill="white"/>
<path opacity="0.6" d="M17.6006 11.0312L17.7535 11.2657C19.4775 13.9104 19.0925 17.3741 16.8277 19.5931C15.4954 20.8985 13.7492 21.5513 12.003 21.5516C12.003 21.5516 12.003 21.5516 17.6006 11.0312Z" fill="white"/>
<path opacity="0.2" d="M12.0024 14.2286L17.6 11.0312C12.0024 21.5516 12.0024 21.5516 12.0024 21.5516C12.0024 19.2603 12.0024 16.6348 12.0024 14.2286Z" fill="white"/>
<path opacity="0.2" d="M12.0033 7.08447V12.5991L16.8251 9.84357L12.0033 7.08447Z" fill="white"/>
<path opacity="0.6" d="M12.0041 7.08447L7.17889 9.84351L12.0041 12.5991V7.08447Z" fill="white"/>
<path d="M12.0041 2.44666L7.17889 9.84527L12.0041 7.0785V2.44666Z" fill="white"/>
<path opacity="0.6" d="M12.0033 7.07773L16.8287 9.84461L12.0033 2.44232V7.07773Z" fill="white"/>
</g>
</g>
<defs>
<clipPath id="clip0_2465_101">
<rect width="24" height="24" fill="white"/>
</clipPath>
</defs>
</svg>
