<svg width="24" height="19" viewBox="0 0 24 19" fill="none" xmlns="http://www.w3.org/2000/svg">
<g clip-path="url(#clip0_1_44)">
<mask id="mask0_1_44" style="mask-type:alpha" maskUnits="userSpaceOnUse" x="20" y="0" width="4" height="7">
<path d="M20.2885 0.23584H23.7539V6.3609H20.2885V0.23584Z" fill="black"/>
</mask>
<g mask="url(#mask0_1_44)">
<path d="M23.346 0.23584H18.0377C17.8122 0.23584 17.6294 0.418658 17.6294 0.644175V5.95252C17.6294 6.17805 17.8122 6.36086 18.0377 6.36086H23.346C23.5715 6.36086 23.7543 6.17805 23.7543 5.95252V0.644175C23.7543 0.418658 23.5715 0.23584 23.346 0.23584Z" fill="white" fill-opacity="0.5"/>
</g>
<mask id="mask1_1_44" style="mask-type:alpha" maskUnits="userSpaceOnUse" x="20" y="12" width="4" height="7">
<path d="M20.2885 12.4849H23.7539V18.6099H20.2885V12.4849Z" fill="black"/>
</mask>
<g mask="url(#mask1_1_44)">
<path d="M23.346 12.4849H18.0377C17.8122 12.4849 17.6294 12.6677 17.6294 12.8932V18.2016C17.6294 18.4271 17.8122 18.6099 18.0377 18.6099H23.346C23.5715 18.6099 23.7543 18.4271 23.7543 18.2016V12.8932C23.7543 12.6677 23.5715 12.4849 23.346 12.4849Z" fill="white" fill-opacity="0.5"/>
</g>
<path d="M11.9941 6.37575H6.71108C6.48664 6.37575 6.30469 6.55638 6.30469 6.77921V12.0247C6.30469 12.2475 6.48664 12.4282 6.71108 12.4282H11.9941C12.2186 12.4282 12.4005 12.2475 12.4005 12.0247V6.77921C12.4005 6.55638 12.2186 6.37575 11.9941 6.37575Z" fill="white"/>
<path d="M5.87914 0.235107H0.570922C0.345411 0.235107 0.162598 0.417926 0.162598 0.643444V5.95181C0.162598 6.1773 0.345411 6.36011 0.570922 6.36011H5.87914C6.10466 6.36011 6.28747 6.1773 6.28747 5.95181V0.643444C6.28747 0.417926 6.10466 0.235107 5.87914 0.235107Z" fill="white"/>
<path d="M18.1267 0.235107H12.8185C12.593 0.235107 12.4102 0.417926 12.4102 0.643444V5.95181C12.4102 6.1773 12.593 6.36011 12.8185 6.36011H18.1267C18.3522 6.36011 18.535 6.1773 18.535 5.95181V0.643444C18.535 0.417926 18.3522 0.235107 18.1267 0.235107Z" fill="white"/>
<path d="M5.87918 12.4849H0.570922C0.345411 12.4849 0.162598 12.6677 0.162598 12.8932V18.2016C0.162598 18.4271 0.345411 18.6099 0.570922 18.6099H5.87918C6.10466 18.6099 6.28747 18.4271 6.28747 18.2016V12.8932C6.28747 12.6677 6.10466 12.4849 5.87918 12.4849Z" fill="white"/>
<path d="M18.1267 12.4849H12.8185C12.593 12.4849 12.4102 12.6677 12.4102 12.8932V18.2016C12.4102 18.4271 12.593 18.6099 12.8185 18.6099H18.1267C18.3522 18.6099 18.535 18.4271 18.535 18.2016V12.8932C18.535 12.6677 18.3522 12.4849 18.1267 12.4849Z" fill="white"/>
</g>
<defs>
<clipPath id="clip0_1_44">
<rect width="24" height="18.75" fill="white"/>
</clipPath>
</defs>
</svg>
