<svg width="24" height="24" viewBox="0 0 24 24" fill="none" xmlns="http://www.w3.org/2000/svg">
<path d="M21.75 12C21.75 17.3848 17.3848 21.75 12 21.75C6.61522 21.75 2.25 17.3848 2.25 12C2.25 6.61522 6.61522 2.25 12 2.25C17.3848 2.25 21.75 6.61522 21.75 12Z" stroke="white" stroke-width="0.5"/>
<path fill-rule="evenodd" clip-rule="evenodd" d="M15.6781 8.19629H17.0474C17.1056 8.19629 17.1527 8.27393 17.1527 8.36972V10.6243C17.1527 10.72 17.1056 10.7977 17.0474 10.7977H15.6781C15.6199 10.7977 15.5728 10.72 15.5728 10.6243V8.36972C15.5728 8.27393 15.6199 8.19629 15.6781 8.19629ZM15.6781 13.3813H17.0474C17.1056 13.3813 17.1527 13.4589 17.1527 13.5547V15.8093C17.1527 15.905 17.1056 15.9827 17.0474 15.9827H15.6781C15.6199 15.9827 15.5728 15.905 15.5728 15.8093V13.5547C15.5728 13.4589 15.6199 13.3813 15.6781 13.3813Z" fill="white" fill-opacity="0.5"/>
<path fill-rule="evenodd" clip-rule="evenodd" d="M9.56316 8.19592H7.30868C7.2129 8.19592 7.13525 8.27357 7.13525 8.36935V10.6239C7.13525 10.7197 7.2129 10.7973 7.30868 10.7973H9.56316C9.65895 10.7973 9.73659 10.7197 9.73659 10.6239V8.36935C9.73659 8.27357 9.65895 8.19592 9.56316 8.19592ZM12.1604 10.8039H9.91662C9.8213 10.8039 9.74402 10.8807 9.74402 10.9753V13.2032C9.74402 13.2978 9.8213 13.3745 9.91662 13.3745H12.1604C12.2558 13.3745 12.333 13.2978 12.333 13.2032V10.9753C12.333 10.8807 12.2558 10.8039 12.1604 10.8039ZM12.5106 8.19592H14.765C14.8608 8.19592 14.9385 8.27357 14.9385 8.36935V10.6239C14.9385 10.7197 14.8608 10.7973 14.765 10.7973H12.5106C12.4148 10.7973 12.3371 10.7197 12.3371 10.6239V8.36935C12.3371 8.27357 12.4148 8.19592 12.5106 8.19592ZM9.56318 13.3986H7.30868C7.2129 13.3986 7.13525 13.4762 7.13525 13.572V15.8266C7.13525 15.9223 7.2129 16 7.30868 16H9.56318C9.65895 16 9.73659 15.9223 9.73659 15.8266V13.572C9.73659 13.4762 9.65895 13.3986 9.56318 13.3986ZM12.5106 13.3986H14.765C14.8608 13.3986 14.9385 13.4762 14.9385 13.572V15.8266C14.9385 15.9223 14.8608 16 14.765 16H12.5106C12.4148 16 12.3371 15.9223 12.3371 15.8266V13.572C12.3371 13.4762 12.4148 13.3986 12.5106 13.3986Z" fill="white"/>
</svg>
