<svg width="24" height="24" viewBox="0 0 24 24" fill="none" xmlns="http://www.w3.org/2000/svg">
<path d="M21.75 12C21.75 17.3848 17.3848 21.75 12 21.75C6.61522 21.75 2.25 17.3848 2.25 12C2.25 6.61522 6.61522 2.25 12 2.25C17.3848 2.25 21.75 6.61522 21.75 12Z" stroke="white" stroke-width="0.5"/>
<mask id="mask0_7871_6627" style="mask-type:luminance" maskUnits="userSpaceOnUse" x="7" y="8" width="10" height="8">
<path d="M17 8H7V15.8125H17V8Z" fill="white"/>
</mask>
<g mask="url(#mask0_7871_6627)">
<mask id="mask1_7871_6627" style="mask-type:alpha" maskUnits="userSpaceOnUse" x="15" y="8" width="2" height="3">
<path d="M15.4531 8.09814H16.897V10.6503H15.4531V8.09814Z" fill="black"/>
</mask>
<g mask="url(#mask1_7871_6627)">
<path d="M16.7286 8.09839H14.5168C14.4228 8.09839 14.3467 8.17456 14.3467 8.26853V10.4803C14.3467 10.5743 14.4228 10.6505 14.5168 10.6505H16.7286C16.8225 10.6505 16.8987 10.5743 16.8987 10.4803V8.26853C16.8987 8.17456 16.8225 8.09839 16.7286 8.09839Z" fill="white" fill-opacity="0.5"/>
</g>
<mask id="mask2_7871_6627" style="mask-type:alpha" maskUnits="userSpaceOnUse" x="15" y="13" width="2" height="3">
<path d="M15.4531 13.2021H16.897V15.7542H15.4531V13.2021Z" fill="black"/>
</mask>
<g mask="url(#mask2_7871_6627)">
<path d="M16.7286 13.2019H14.5168C14.4228 13.2019 14.3467 13.2781 14.3467 13.372V15.5839C14.3467 15.6778 14.4228 15.754 14.5168 15.754H16.7286C16.8225 15.754 16.8987 15.6778 16.8987 15.5839V13.372C16.8987 13.2781 16.8225 13.2019 16.7286 13.2019Z" fill="white" fill-opacity="0.5"/>
</g>
<path d="M11.9976 10.6565H9.79628C9.70276 10.6565 9.62695 10.7318 9.62695 10.8246V13.0102C9.62695 13.1031 9.70276 13.1783 9.79628 13.1783H11.9976C12.0911 13.1783 12.1669 13.1031 12.1669 13.0102V10.8246C12.1669 10.7318 12.0911 10.6565 11.9976 10.6565Z" fill="white"/>
<path d="M9.44927 8.0979H7.23752C7.14356 8.0979 7.06738 8.17407 7.06738 8.26804V10.4799C7.06738 10.5738 7.14356 10.65 7.23752 10.65H9.44927C9.54324 10.65 9.61941 10.5738 9.61941 10.4799V8.26804C9.61941 8.17407 9.54324 8.0979 9.44927 8.0979Z" fill="white"/>
<path d="M14.5528 8.0979H12.341C12.2471 8.0979 12.1709 8.17407 12.1709 8.26804V10.4799C12.1709 10.5738 12.2471 10.65 12.341 10.65H14.5528C14.6467 10.65 14.7229 10.5738 14.7229 10.4799V8.26804C14.7229 8.17407 14.6467 8.0979 14.5528 8.0979Z" fill="white"/>
<path d="M9.44929 13.2021H7.23752C7.14356 13.2021 7.06738 13.2783 7.06738 13.3722V15.5841C7.06738 15.678 7.14356 15.7542 7.23752 15.7542H9.44929C9.54324 15.7542 9.61941 15.678 9.61941 15.5841V13.3722C9.61941 13.2783 9.54324 13.2021 9.44929 13.2021Z" fill="white"/>
<path d="M14.5528 13.2021H12.341C12.2471 13.2021 12.1709 13.2783 12.1709 13.3722V15.5841C12.1709 15.678 12.2471 15.7542 12.341 15.7542H14.5528C14.6467 15.7542 14.7229 15.678 14.7229 15.5841V13.3722C14.7229 13.2783 14.6467 13.2021 14.5528 13.2021Z" fill="white"/>
</g>
</svg>
