<svg width="24" height="24" viewBox="0 0 24 24" fill="none" xmlns="http://www.w3.org/2000/svg">
<g clip-path="url(#clip0_192_142)">
<path d="M12 24C18.6274 24 24 18.6274 24 12C24 5.37258 18.6274 0 12 0C5.37258 0 0 5.37258 0 12C0 18.6274 5.37258 24 12 24Z" fill="#E9EAE9"/>
<path d="M15.1756 18.2015L12.0966 13.7722L9.08464 18.2015H5.7019L10.4211 11.7265L5.92738 5.46063H9.27474L12.2072 9.6L15.0922 5.46063H18.2817L13.8202 11.6135L18.5716 18.2015H15.1756Z" fill="black"/>
<path d="M14.0622 7.58652C14.6969 7.98644 15.214 8.54794 15.5603 9.21347L16.5266 7.87641C16.1027 7.25658 15.5405 6.74372 14.8845 6.37831C14.7714 6.31515 14.659 6.26525 14.5624 6.21725L13.7236 7.42547C13.8395 7.47253 13.9525 7.52631 14.0622 7.58652Z" fill="#7D7E7D"/>
<path d="M10.3086 16.3806C9.91935 16.2016 9.56065 15.9625 9.2457 15.672C8.89382 15.3326 8.59566 14.9416 8.36149 14.5124L7.32886 15.9297C7.58936 16.2758 7.88575 16.5933 8.21307 16.8771C8.58407 17.1851 8.99599 17.4401 9.43707 17.6349L10.3086 16.3806Z" fill="#7D7E7D"/>
<path d="M14.5611 16.3004C14.3903 16.3991 14.2126 16.4852 14.0293 16.5581L14.8188 17.7019C15.4215 17.4473 15.9449 17.0358 16.3346 16.5101C16.518 16.2611 16.6595 15.9838 16.7533 15.6891L13.8215 11.6141L13.8373 11.5977C13.8215 11.5977 13.8051 11.5977 13.8051 11.5819L12.8388 11.3722V8.68169L12.2103 9.58358L11.5497 8.63621V11.0684L11.1916 10.9851C10.7559 10.8964 10.3371 10.7386 9.95118 10.5177C9.68971 10.3731 9.47679 10.1545 9.33919 9.88927C9.22191 9.64263 9.16127 9.37289 9.16171 9.09979C9.15642 8.73795 9.26344 8.38336 9.46803 8.08485C9.69561 7.75759 10.0152 7.50525 10.3863 7.35979C10.4495 7.32758 10.5127 7.31116 10.5796 7.27895L9.79329 6.18506C9.76108 6.20148 9.74466 6.20148 9.71245 6.21727C9.08461 6.49813 8.54872 6.95039 8.16634 7.52211C8.03706 7.7138 7.92906 7.91902 7.84424 8.13411L10.3895 11.7101L10.0188 12.2097C10.2284 12.2728 10.4539 12.336 10.7135 12.403L11.5188 12.5804V14.5775L12.0828 13.7564L12.8236 14.8194V12.9019L13.5322 13.063C14.0773 13.1423 14.5838 13.3901 14.9811 13.7716C15.1344 13.9592 15.246 14.1774 15.3084 14.4115C15.3707 14.6456 15.3825 14.8904 15.3429 15.1294C15.3033 15.3685 15.2132 15.5963 15.0786 15.7978C14.944 15.9993 14.768 16.1698 14.5623 16.2979L14.5611 16.3004Z" fill="#7D7E7D"/>
</g>
<defs>
<clipPath id="clip0_192_142">
<rect width="24" height="24" fill="white"/>
</clipPath>
</defs>
</svg>
