<svg width="24" height="24" viewBox="0 0 24 24" fill="none" xmlns="http://www.w3.org/2000/svg">
<g clip-path="url(#clip0_1963_34)">
<path d="M23.4405 12C23.4405 18.3185 18.3184 23.4406 11.9999 23.4406C5.68145 23.4406 0.559326 18.3185 0.559326 12C0.559326 5.68153 5.68145 0.559397 11.9999 0.559397C18.3184 0.559397 23.4405 5.68153 23.4405 12Z" fill="#121620"/>
<path d="M5.00425 5.40177C4.61324 5.40177 4.23106 5.51774 3.90591 5.73494C3.58085 5.95218 3.32741 6.26097 3.1778 6.62217C3.02818 6.98342 2.98906 7.38086 3.06533 7.76438C3.14161 8.14785 3.32986 8.50012 3.60639 8.77655C3.88282 9.05303 4.23509 9.24134 4.61857 9.31761C5.00204 9.39388 5.39953 9.35476 5.76077 9.2051C6.12202 9.05553 6.43076 8.80209 6.64801 8.47703C6.86521 8.15188 6.98117 7.7697 6.98117 7.3787C6.98146 7.11897 6.93053 6.86178 6.83132 6.62178C6.73205 6.38183 6.58642 6.16377 6.40277 5.98012C6.21917 5.79652 6.00111 5.65089 5.76116 5.55167C5.52183 5.4527 5.26541 5.40177 5.00655 5.40177C5.00578 5.40177 5.00501 5.40177 5.00425 5.40177ZM12.9564 5.40177H10.6653C10.6606 5.40335 10.6565 5.40633 10.6536 5.41036C10.6507 5.4143 10.6491 5.41914 10.6491 5.42409C10.6491 5.42898 10.6507 5.43378 10.6536 5.43782C10.6565 5.44185 10.6606 5.44482 10.6653 5.44636C10.8196 5.50593 10.9592 5.59818 11.0746 5.7167C11.19 5.83526 11.2784 5.97729 11.3339 6.1331C11.3893 6.289 11.4105 6.45498 11.3958 6.61977C11.3812 6.7846 11.3312 6.94425 11.2492 7.08791L7.90978 12.8638C7.82352 13.0103 7.70588 13.1359 7.56533 13.2315C7.42479 13.3271 7.26481 13.3904 7.0969 13.4169C6.92895 13.4434 6.75725 13.4322 6.59415 13.3845C6.431 13.3367 6.28047 13.2534 6.15332 13.1406C6.14962 13.1356 6.14405 13.1323 6.13791 13.1315C6.13172 13.1305 6.12548 13.1322 6.12049 13.1359C6.11554 13.1396 6.11223 13.1451 6.11137 13.1514C6.11045 13.1575 6.11209 13.1638 6.11583 13.1687L7.28837 15.2042C7.41999 15.4327 7.60949 15.6224 7.83778 15.7543C8.06602 15.8862 8.32508 15.9556 8.58874 15.9556C8.85231 15.9556 9.11137 15.8862 9.33961 15.7543C9.56789 15.6224 9.7574 15.4327 9.88901 15.2042L14.258 7.65306C14.3897 7.42482 14.4591 7.16582 14.459 6.9022C14.4589 6.63858 14.3894 6.37967 14.2575 6.15148C14.1256 5.92324 13.9359 5.73383 13.7075 5.60217C13.4796 5.47089 13.2211 5.40177 12.9581 5.40177C12.9576 5.40177 12.957 5.40177 12.9564 5.40177ZM16.467 5.40177C16.4608 5.40177 16.4549 5.40426 16.4505 5.40868C16.4461 5.41305 16.4436 5.41905 16.4436 5.42524C16.4436 5.43148 16.4461 5.43743 16.4505 5.44185C16.4549 5.44622 16.4608 5.44871 16.467 5.44871C16.7494 5.52378 17.0108 5.66284 17.2308 5.85513C17.4508 6.04746 17.6236 6.2878 17.7359 6.55766C17.8481 6.82746 17.8967 7.11945 17.878 7.4111C17.8593 7.7027 17.7737 7.98609 17.6278 8.23934L12.0958 17.8308C11.9496 18.0816 11.7479 18.2957 11.5062 18.4568C11.2645 18.6177 10.9893 18.7213 10.7014 18.7596C10.4135 18.7978 10.1207 18.7697 9.84538 18.6774C9.5701 18.5851 9.31949 18.4311 9.11285 18.227C9.10906 18.2221 9.10354 18.2188 9.09735 18.2179C9.09121 18.217 9.08497 18.2187 9.07997 18.2224C9.07503 18.2261 9.07172 18.2317 9.07085 18.2378C9.06999 18.244 9.07157 18.2502 9.07527 18.2552L10.2337 20.2603C10.4336 20.6055 10.7207 20.892 11.0662 21.0913C11.4118 21.2905 11.8036 21.3954 12.2025 21.3954C12.6013 21.3954 12.9932 21.2905 13.3388 21.0913C13.6843 20.892 13.9714 20.6055 14.1711 20.2603L20.7796 8.8139C20.9792 8.46825 21.0843 8.07623 21.0843 7.67711C21.0845 7.27804 20.9796 6.88598 20.7802 6.54023C20.5809 6.19449 20.2941 5.9073 19.9486 5.70748C19.6031 5.50761 19.2112 5.4022 18.8121 5.40177H16.467Z" fill="url(#paint0_linear_1963_34)"/>
</g>
<defs>
<linearGradient id="paint0_linear_1963_34" x1="20" y1="17" x2="4" y2="4" gradientUnits="userSpaceOnUse">
<stop offset="0.00324288" stop-color="#5433FF"/>
<stop offset="0.200682" stop-color="#377FFF"/>
<stop offset="0.474076" stop-color="#20BEFD"/>
<stop offset="0.978204" stop-color="#4AEBBC"/>
</linearGradient>
<clipPath id="clip0_1963_34">
<rect width="24" height="24" fill="white"/>
</clipPath>
</defs>
</svg>
