<svg width="24" height="24" viewBox="0 0 24 24" fill="none" xmlns="http://www.w3.org/2000/svg">
<g clip-path="url(#clip0_2273_8120)">
<path d="M12 24C18.6274 24 24 18.6274 24 12C24 5.37258 18.6274 0 12 0C5.37258 0 0 5.37258 0 12C0 18.6274 5.37258 24 12 24Z" fill="white"/>
<path fill-rule="evenodd" clip-rule="evenodd" d="M15.5055 7.28546C15.8485 8.05678 16.0629 8.91385 16.0629 9.79235V9.87806L18.9787 7.28546V4.20001L15.5055 7.28546ZM15.1409 9.81362C15.1409 6.72818 12.3752 4.22128 8.98771 4.22128V6.53537C11.0674 6.53537 12.7611 7.94952 12.8254 9.70648L11.2603 11.0992C11.6677 11.8278 11.9464 12.6419 12.0535 13.499L13.4471 12.2563C14.4334 14.1418 16.5559 15.4274 19 15.4274V13.1133C16.856 13.0919 15.1409 11.6134 15.1409 9.81362ZM14.9909 17.3986V19.7126C12.3109 19.7126 10.0383 18.1485 9.20218 16.0273L5 19.7555V16.67L6.2435 15.5773L7.91577 14.0775L8.73049 13.349C8.32313 11.9134 6.80094 10.842 5 10.842V8.52796C8.38746 8.52796 11.1532 11.0349 11.1532 14.1203C11.1532 15.9201 12.8684 17.3986 14.9909 17.3986Z" fill="#53B7C8"/>
</g>
<defs>
<clipPath id="clip0_2273_8120">
<rect width="24" height="24" fill="white"/>
</clipPath>
</defs>
</svg>
