<svg width="24" height="24" viewBox="0 0 24 24" fill="none" xmlns="http://www.w3.org/2000/svg">
<g clip-path="url(#clip0_2025_8216)">
<path d="M12 24C18.6274 24 24 18.6274 24 12C24 5.37258 18.6274 0 12 0C5.37258 0 0 5.37258 0 12C0 18.6274 5.37258 24 12 24Z" fill="#235643"/>
<path d="M15.2418 14.1761V15.5056H8.78721C8.87625 14.6306 9.20853 14.015 10.3576 13.1493L15.2418 9.60896V12.7157H17V7H7.00194V9.84908H8.75947V8.49389H14.0708L9.21046 12.0178L9.19885 12.0272C7.16195 13.5594 7 14.7962 7 16.2533V17H16.9993V14.1767H15.2411L15.2418 14.1761Z" fill="white"/>
</g>
<defs>
<clipPath id="clip0_2025_8216">
<rect width="24" height="24" fill="white"/>
</clipPath>
</defs>
</svg>
