<svg width="24" height="24" viewBox="0 0 24 24" fill="none" xmlns="http://www.w3.org/2000/svg">
<g clip-path="url(#clip0_192_168)">
<path d="M11.9999 0C14.3733 0 16.6933 0.703786 18.6667 2.02236C20.6401 3.34094 22.1782 5.21508 23.0865 7.4078C23.9947 9.60051 24.2324 12.0133 23.7693 14.3411C23.3063 16.6689 22.1634 18.8071 20.4852 20.4853C18.807 22.1635 16.6688 23.3064 14.341 23.7694C12.0132 24.2324 9.60043 23.9948 7.40772 23.0865C5.21501 22.1783 3.34083 20.6402 2.02225 18.6668C0.703676 16.6935 -0.00012207 14.3734 -0.00012207 12C-0.00012207 8.8174 1.26422 5.76516 3.51466 3.51472C5.7651 1.26429 8.81728 0 11.9999 0Z" fill="black"/>
<path d="M12.0833 3.85129C10.4552 3.85129 8.86361 4.33409 7.50987 5.23863C6.15612 6.14317 5.101 7.42883 4.47794 8.93304C3.85488 10.4372 3.69186 12.0924 4.0095 13.6893C4.32713 15.2861 5.11114 16.7529 6.2624 17.9042C7.41367 19.0555 8.88048 19.8395 10.4773 20.1571C12.0742 20.4747 13.7294 20.3117 15.2336 19.6887C16.7378 19.0656 18.0234 18.0105 18.928 16.6567C19.8325 15.303 20.3153 13.7114 20.3153 12.0833C20.3153 9.90004 19.4479 7.80623 17.9042 6.26244C16.3604 4.71865 14.2666 3.85134 12.0833 3.85129ZM12.0833 17.7607C10.9604 17.7607 9.86275 17.4277 8.9291 16.8039C7.99545 16.1801 7.26774 15.2934 6.83803 14.2559C6.40832 13.2185 6.2959 12.077 6.51497 10.9757C6.73403 9.87436 7.27475 8.86274 8.06876 8.06873C8.86276 7.27473 9.87437 6.734 10.9757 6.51494C12.077 6.29587 13.2186 6.4083 14.256 6.83802C15.2934 7.26773 16.1801 7.99542 16.8039 8.92907C17.4278 9.86272 17.7607 10.9604 17.7607 12.0833C17.7607 12.8289 17.6138 13.5672 17.3285 14.2561C17.0431 14.945 16.6248 15.5709 16.0975 16.0981C15.5703 16.6253 14.9443 17.0434 14.2554 17.3287C13.5665 17.614 12.8282 17.7608 12.0825 17.7607H12.0833Z" fill="#E9EAE9"/>
<path d="M12.0833 3.83997C12.6413 3.83983 13.1979 3.89591 13.7447 4.00739C14.7991 4.22333 15.8007 4.6448 16.6923 5.24771C18.0176 6.14232 19.055 7.4021 19.6789 8.87439C19.8895 9.37306 20.0503 9.89137 20.1589 10.4217C20.3821 11.5181 20.3821 12.6481 20.1589 13.7445C19.9429 14.7989 19.5214 15.8005 18.9185 16.6921C18.0239 18.0174 16.7642 19.0548 15.2919 19.6786C14.7932 19.8893 14.2749 20.0501 13.7445 20.1586C12.6486 20.3818 11.5189 20.3818 10.4229 20.1586C9.3685 19.9427 8.36691 19.5212 7.47533 18.9183C6.14998 18.0237 5.11249 16.7639 4.48857 15.2916C4.27789 14.7929 4.1171 14.2746 4.00857 13.7443C3.78523 12.648 3.78523 11.5179 4.00857 10.4215C4.22458 9.3671 4.64611 8.36552 5.24909 7.47395C6.1438 6.14864 7.40364 5.11122 8.87598 4.48739C9.37465 4.27672 9.89294 4.11593 10.4233 4.00739C10.9696 3.89598 11.5258 3.8399 12.0833 3.83997ZM12.0833 20.3038C12.6398 20.3039 13.1949 20.2479 13.7401 20.1367C14.7916 19.9214 15.7905 19.5011 16.6796 18.8999C18.0013 18.0077 19.0358 16.7514 19.6579 15.2832C19.8681 14.7859 20.0286 14.269 20.137 13.7401C20.3596 12.6467 20.3596 11.5197 20.137 10.4263C19.9216 9.3748 19.5014 8.37596 18.9001 7.48681C18.0079 6.16512 16.7515 5.13056 15.2832 4.50851C14.7859 4.29828 14.269 4.13782 13.7401 4.02947C12.6469 3.80681 11.52 3.80681 10.4267 4.02947C9.37528 4.24483 8.37652 4.66511 7.48742 5.26633C6.16574 6.15852 5.13115 7.41481 4.50894 8.88304C4.29838 9.38029 4.1376 9.89718 4.02894 10.4261C3.80624 11.5195 3.80624 12.6465 4.02894 13.7399C4.24432 14.7914 4.66467 15.7903 5.26599 16.6794C6.15825 18.001 7.41462 19.0356 8.88289 19.6577C9.38013 19.8679 9.89693 20.0284 10.4258 20.1367C10.9713 20.248 11.5266 20.3039 12.0833 20.3038ZM12.0833 6.39433C13.2169 6.39248 14.3249 6.73092 15.264 7.36585C16.1786 7.98331 16.8946 8.85271 17.3251 9.86877C17.6941 10.7406 17.8395 11.6907 17.7478 12.633C17.6562 13.5752 17.3306 14.4796 16.8006 15.264C16.1831 16.1786 15.3137 16.8946 14.2977 17.3251C13.4259 17.6941 12.4757 17.8394 11.5335 17.7478C10.5912 17.6561 9.68685 17.3305 8.90246 16.8005C7.98783 16.1831 7.27188 15.3137 6.84134 14.2976C6.47236 13.4258 6.32706 12.4757 6.41867 11.5334C6.51028 10.5912 6.83589 9.68682 7.3659 8.90243C7.98334 7.98781 8.85273 7.27186 9.86879 6.84131C10.5691 6.54496 11.322 6.39293 12.0824 6.39433H12.0833ZM12.0833 17.7494C13.2124 17.7513 14.316 17.4141 15.2513 16.7817C16.1624 16.1668 16.8755 15.3008 17.3044 14.2888C17.6719 13.4205 17.8166 12.4742 17.7254 11.5357C17.6341 10.5973 17.3098 9.69653 16.782 8.91529C16.167 8.00434 15.301 7.29126 14.289 6.86243C13.4207 6.49494 12.4744 6.35024 11.5359 6.44148C10.5975 6.53272 9.69676 6.857 8.91552 7.38486C8.00456 7.99984 7.29148 8.86579 6.86265 9.87779C6.49514 10.7461 6.35045 11.6924 6.44169 12.6309C6.53292 13.5693 6.85722 14.4701 7.38509 15.2513C8.00008 16.1622 8.86602 16.8753 9.87802 17.3042C10.5754 17.5993 11.3251 17.7507 12.0824 17.7494H12.0833Z" fill="#E9EAE9"/>
<path d="M15.3373 10.5792H8.3927V8.13251H15.3373V10.5792Z" fill="#E9EAE9"/>
<path d="M15.845 16.1956H8.42438V13.7489H15.845V16.1956Z" fill="#E9EAE9"/>
<path d="M6.29642 19.8762L4.29828 17.9014L17.8276 4.20993L19.8257 6.18446L6.29642 19.8762Z" fill="#E9EAE9"/>
</g>
<defs>
<clipPath id="clip0_192_168">
<rect width="24" height="24" fill="white"/>
</clipPath>
</defs>
</svg>
