<svg width="24" height="24" viewBox="0 0 24 24" fill="none" xmlns="http://www.w3.org/2000/svg">
<g clip-path="url(#clip0_2293_8138)">
<path fill-rule="evenodd" clip-rule="evenodd" d="M12 24C5.37258 24 0 18.6274 0 12C0 5.37258 5.37258 0 12 0C18.6274 0 24 5.37258 24 12C24 18.6274 18.6274 24 12 24ZM16.9769 7.5771L13.3661 5.50525C12.5233 5.02208 11.4769 5.02208 10.6341 5.50525L7.02325 7.5771C6.18041 8.06078 5.65723 8.96142 5.65723 9.92829V14.072C5.65723 15.0389 6.18094 15.9395 7.02325 16.4232L10.6341 18.4946C11.0552 18.7361 11.5279 18.8572 12.0001 18.8572C12.4722 18.8572 12.9449 18.7361 13.3661 18.4946L16.9769 16.4232C17.8197 15.9395 18.3429 15.0389 18.3429 14.072V9.92829C18.3435 8.96195 17.8197 8.06078 16.9769 7.5771ZM17.1378 14.072C17.1378 14.6121 16.8452 15.1154 16.3741 15.386L12.7633 17.4573C12.2927 17.7273 11.7075 17.7273 11.2364 17.4573L7.62557 15.386C7.15445 15.1159 6.86187 14.6121 6.86187 14.072V9.92829C6.86187 9.38821 7.15445 8.88486 7.62557 8.61431L11.2364 6.54246C11.4717 6.40744 11.7356 6.33968 11.9996 6.33968C12.2635 6.33968 12.5274 6.40744 12.7628 6.54246L16.3736 8.61431C16.8447 8.88434 17.1372 9.38821 17.1372 9.92829V14.072H17.1378ZM14.9366 9.592L11.6413 11.4905C11.4414 11.6054 11.3352 11.8165 11.343 12.0311C11.3428 12.0341 11.3425 12.037 11.3421 12.0399C11.3419 12.0415 11.3417 12.0431 11.3414 12.0446C11.3406 12.0501 11.3398 12.0554 11.3398 12.0611V14.6829C11.3398 15.0135 11.6095 15.2819 11.9427 15.2819C12.2753 15.2819 12.5455 15.014 12.5455 14.6829V12.356L15.5394 10.6303C15.8278 10.4647 15.9262 10.0984 15.7602 9.81185C15.5936 9.52474 15.2245 9.42647 14.9366 9.592Z" fill="white"/>
</g>
<defs>
<clipPath id="clip0_2293_8138">
<rect width="24" height="24" fill="white"/>
</clipPath>
</defs>
</svg>
