<svg width="40" height="40" viewBox="0 0 40 40" fill="none" xmlns="http://www.w3.org/2000/svg">
<path fill-rule="evenodd" clip-rule="evenodd" d="M20 3C10.6112 3 3 10.6112 3 20C3 29.3888 10.6112 37 20 37C29.3888 37 37 29.3888 37 20C37 10.6112 29.3888 3 20 3ZM14.4203 13.7405H12.0691L10.5527 26.3486H12.4439L12.6654 23.6055H13.7217L13.9432 26.3486H15.9367L14.4203 13.7405ZM12.8017 21.9358L13.0061 19.346L13.1595 17.1652H13.2106L13.3639 19.346L13.5854 21.9358H12.8017ZM18.0872 26.3486H20.1147V21.595H20.7451C22.1933 21.595 23.0793 20.7431 23.0793 19.2268V16.1259C23.0793 14.5924 22.1933 13.7405 20.7451 13.7405H18.0872V26.3486ZM20.5747 20.0787H20.1317V15.2569H20.5747C20.9155 15.2569 21.0518 15.5636 21.0518 16.1259V19.2268C21.0518 19.772 20.9155 20.0787 20.5747 20.0787ZM25.4148 13.7405V26.3486H29.3676V24.6789H27.4423V20.8113H29.1632V19.1416H27.4423V15.4103H29.3676V13.7405H25.4148Z" fill="white"/>
</svg>
