<svg width="24" height="24" viewBox="0 0 24 24" fill="none" xmlns="http://www.w3.org/2000/svg">
<path fill-rule="evenodd" clip-rule="evenodd" d="M11.6352 0C11.322 0 11.0069 0.0807484 10.7253 0.244215L1.9099 5.33333C1.34663 5.6583 1 6.25899 1 6.90891V17.0891C1 17.739 1.34663 18.3397 1.9099 18.6647L3.49164 19.578L8.28318 6.44212C8.3403 6.28456 8.48998 6.18018 8.65738 6.18018H10.8927C11.0326 6.18018 11.1291 6.31804 11.0798 6.44802L5.80388 20.9131L10.7272 23.7558C11.0089 23.9173 11.322 24 11.6371 24C11.9503 24 12.2654 23.9193 12.547 23.7558L21.3644 18.6647C21.9276 18.3397 22.2743 17.739 22.2743 17.0891V6.90891C22.2743 6.25899 21.9276 5.6583 21.3644 5.33333L12.5451 0.244215C12.2634 0.0807484 11.9483 0 11.6352 0ZM15.7435 8.46484C15.6805 8.28956 15.4323 8.28956 15.3693 8.46484L14.2073 11.6515C14.1758 11.7401 14.1758 11.8366 14.2073 11.9252L17.4826 20.9021L19.7947 19.5668L15.7435 8.46484ZM13.4136 13.8237L12.2516 17.0104C12.2201 17.099 12.2201 17.1955 12.2516 17.2841L14.2507 22.7671L16.5628 21.4318L13.7878 13.8237C13.7248 13.6485 13.4767 13.6485 13.4136 13.8237ZM14.804 6.18026H12.5687C12.4013 6.18026 12.2516 6.28464 12.1945 6.4422L6.72328 21.4417L9.03544 22.777L14.9911 6.4481C15.0384 6.31812 14.9419 6.18026 14.804 6.18026Z" fill="white"/>
</svg>
