<svg width="24" height="24" viewBox="0 0 24 24" fill="none" xmlns="http://www.w3.org/2000/svg">
    <path fill-rule="evenodd" clip-rule="evenodd" d="M11.9984 22.0031C17.5222 22.0031 22 17.5254 22 12.0016C22 6.47775 17.5254 2 12.0016 2C6.47775 2 2 6.48087 2 12.0016C2 17.5222 6.47463 22.0031 11.9984 22.0031ZM13.5129 5.78136C13.5129 6.5988 12.8503 7.26146 12.0328 7.26146C11.2154 7.26146 10.5527 6.5988 10.5527 5.78136C10.5527 4.96393 11.2154 4.30127 12.0328 4.30127C12.8503 4.30127 13.5129 4.96393 13.5129 5.78136ZM12.0328 19.7143C12.8503 19.7143 13.5129 19.0517 13.5129 18.2342C13.5129 17.4168 12.8503 16.7542 12.0328 16.7542C11.2154 16.7542 10.5527 17.4168 10.5527 18.2342C10.5527 19.0517 11.2154 19.7143 12.0328 19.7143ZM8.05394 8.74157C8.05394 9.559 7.39128 10.2217 6.57384 10.2217C5.75641 10.2217 5.09375 9.559 5.09375 8.74157C5.09375 7.92413 5.75641 7.26147 6.57384 7.26147C7.39128 7.26147 8.05394 7.92413 8.05394 8.74157ZM17.4938 10.2217C18.3112 10.2217 18.9739 9.559 18.9739 8.74157C18.9739 7.92413 18.3112 7.26147 17.4938 7.26147C16.6763 7.26147 16.0137 7.92413 16.0137 8.74157C16.0137 9.559 16.6763 10.2217 17.4938 10.2217ZM8.05394 15.3238C8.05394 16.1413 7.39128 16.8039 6.57384 16.8039C5.75641 16.8039 5.09375 16.1413 5.09375 15.3238C5.09375 14.5064 5.75641 13.8438 6.57384 13.8438C7.39128 13.8438 8.05394 14.5064 8.05394 15.3238ZM17.4938 16.8039C18.3112 16.8039 18.9739 16.1413 18.9739 15.3238C18.9739 14.5064 18.3112 13.8438 17.4938 13.8438C16.6763 13.8438 16.0137 14.5064 16.0137 15.3238C16.0137 16.1413 16.6763 16.8039 17.4938 16.8039ZM12.9212 15H15L13.5809 9H10.4191L9 15H10.9793L11.2158 14.0531H12.6846L12.9212 15ZM12.0124 10.7778L12.4481 12.9227H11.4896L11.9253 10.7778H12.0124Z" fill="white"/>
</svg>
