<svg width="25" height="24" viewBox="0 0 25 24" fill="none" xmlns="http://www.w3.org/2000/svg">
<rect x="0.148438" width="24" height="24" rx="12" fill="#121212"/>
<path fill-rule="evenodd" clip-rule="evenodd" d="M13.5557 4.12261C13.5557 4.91075 12.9168 5.54966 12.1286 5.54966C11.3405 5.54966 10.7016 4.91075 10.7016 4.12261C10.7016 3.33447 11.3405 2.69556 12.1286 2.69556C12.9168 2.69556 13.5557 3.33447 13.5557 4.12261ZM13.5557 19.8202C13.5557 20.6083 12.9168 21.2472 12.1286 21.2472C11.3405 21.2472 10.7016 20.6083 10.7016 19.8202C10.7016 19.032 11.3405 18.3931 12.1286 18.3931C12.9168 18.3931 13.5557 19.032 13.5557 19.8202ZM18.3125 9.35513C19.1007 9.35513 19.7396 8.71622 19.7396 7.92808C19.7396 7.13994 19.1007 6.50103 18.3125 6.50103C17.5244 6.50103 16.8855 7.13994 16.8855 7.92808C16.8855 8.71622 17.5244 9.35513 18.3125 9.35513ZM6.8961 7.92808C6.8961 8.71622 6.25718 9.35513 5.46905 9.35513C4.68091 9.35513 4.04199 8.71622 4.04199 7.92808C4.04199 7.13994 4.68091 6.50103 5.46905 6.50103C6.25718 6.50103 6.8961 7.13994 6.8961 7.92808ZM18.7882 17.4418C19.5764 17.4418 20.2153 16.8029 20.2153 16.0147C20.2153 15.2266 19.5764 14.5877 18.7882 14.5877C18.0001 14.5877 17.3612 15.2266 17.3612 16.0147C17.3612 16.8029 18.0001 17.4418 18.7882 17.4418ZM6.8961 16.0147C6.8961 16.8029 6.25718 17.4418 5.46905 17.4418C4.68091 17.4418 4.04199 16.8029 4.04199 16.0147C4.04199 15.2266 4.68091 14.5877 5.46905 14.5877C6.25718 14.5877 6.8961 15.2266 6.8961 16.0147ZM11.114 8.95562L8.32648 14.5497H10.3243L10.8476 13.5317H13.8539L14.3201 14.5497H16.3655L13.5875 8.95562H11.114ZM13.3212 12.2188H11.3709L12.3032 10.1924H12.3983L13.3212 12.2188Z" fill="white"/>
</svg>
