<svg width="24" height="25" viewBox="0 0 24 25" fill="none" xmlns="http://www.w3.org/2000/svg">
<g clip-path="url(#clip0_450_31)">
<path d="M4.84727 6.05994H1.21216C0.544422 6.05994 0.00311279 6.60183 0.00311279 7.27025V10.9091C0.00311279 11.5775 0.544422 12.1193 1.21216 12.1193H4.84727C5.51501 12.1193 6.05629 11.5775 6.05629 10.9091V7.27025C6.05629 6.60183 5.51501 6.05994 4.84727 6.05994Z" fill="white"/>
<path d="M6.06428 1.24263V4.85756C6.06428 5.52642 6.60516 6.06784 7.27334 6.06784H15.0764C16.1423 6.06784 16.6912 4.77796 15.9435 4.01354L12.4118 0.398618C12.1811 0.16771 11.8709 0.0323486 11.5448 0.0323486H7.26536C6.59721 0.0323486 6.05634 0.573791 6.05634 1.24263H6.06428Z" fill="white"/>
<path d="M17.932 8.91188V10.9184C17.932 11.5873 17.3911 12.1287 16.723 12.1287H7.25741C6.58923 12.1287 6.04835 12.6701 6.04835 13.339V16.7708C6.04835 17.4396 5.50747 17.9811 4.83929 17.9811H1.21216C0.544003 17.9811 0.00311279 18.5225 0.00311279 19.1913V22.8302C0.00311279 23.499 0.544003 24.0405 1.21216 24.0405H4.84727C5.51541 24.0405 6.05629 23.499 6.05629 22.8302V19.3984C6.05629 18.7295 6.59721 18.1881 7.26535 18.1881H16.7309C17.3991 18.1881 17.94 18.7295 17.94 19.3984V22.8302C17.94 23.499 18.4809 24.0405 19.149 24.0405H22.7603C23.4284 24.0405 23.9693 23.499 23.9693 22.8302V12.4472C23.9693 12.1207 23.8421 11.8102 23.6034 11.5793L19.9922 8.05197C19.2286 7.30347 17.94 7.84492 17.94 8.91985L17.932 8.91188Z" fill="white"/>
</g>
<defs>
<clipPath id="clip0_450_31">
<rect width="24" height="24.0676" fill="white"/>
</clipPath>
</defs>
</svg>
