<svg width="24" height="24" viewBox="0 0 24 24" fill="none" xmlns="http://www.w3.org/2000/svg">
<g clip-path="url(#clip0_282_74)">
<path d="M18.5633 19.6703L20.7167 20.7281C21.3519 21.0402 22.122 20.7636 22.3672 20.0998C22.9971 18.3939 23.4897 16.3736 23.6593 14.2951C23.8579 11.8627 23.6125 9.37563 22.6517 7.2235L22.6504 7.22408C22.6077 7.13137 22.5643 7.03888 22.5202 6.9467C22.1896 6.30923 21.5704 5.52741 20.6586 5.01012C19.6308 4.42702 18.203 4.16313 16.3294 4.86861C15.9319 5.0183 15.5272 5.21168 15.1215 5.44243C15.6312 6.31412 15.9963 7.48981 16.0253 9.04003C16.0515 10.4411 15.8254 11.7679 15.479 12.95L18.763 14.1757C19.5388 14.4653 20.0478 15.2333 19.8938 16.0469C19.7076 17.0306 19.3948 17.9881 18.9652 18.8979C18.8437 19.1553 18.71 19.4138 18.5633 19.6703Z" fill="white"/>
<path d="M7.43097 18.7413C7.71137 18.6564 8.0075 18.5337 8.3183 18.363C9.63444 17.6402 10.6298 16.4598 11.3374 15.3019C11.7961 14.5513 12.1411 13.7983 12.3783 13.1621C12.4852 12.8755 12.8021 12.7197 13.0887 12.8267L18.4026 14.81C18.9374 15.0096 19.2745 15.548 19.1547 16.1062C18.9959 16.8453 18.7283 17.7151 18.3153 18.5899C17.6394 20.0213 16.586 21.4414 15.01 22.339C13.7077 23.0807 12.3758 23.4633 11.1308 23.5208C9.77421 23.2901 8.88426 22.6981 8.31728 21.9077C7.71701 21.0708 7.45008 19.971 7.43097 18.7413Z" fill="white"/>
<path d="M10.7245 0.105303C14.0762 -0.288979 16.5667 0.456449 18.4571 1.79823C19.4615 2.51117 20.305 3.39859 21.0205 4.38809L21.0127 4.38372C19.7926 3.69149 18.1418 3.41714 16.0766 4.19479C13.3042 5.23876 10.3153 8.18053 8.72407 11.1805C7.69198 13.1264 6.67416 16.1101 6.71265 18.7436C6.73194 20.0636 7.01723 21.3289 7.73412 22.3284C7.98367 22.6763 8.28216 22.9873 8.633 23.2548C6.07989 22.6163 2.8674 20.8386 1.13612 16.741C-0.374726 13.1652 0.343641 9.20684 2.30113 6.02542C4.26161 2.83911 7.42758 0.493133 10.7245 0.105303Z" fill="white"/>
</g>
<defs>
<clipPath id="clip0_282_74">
<rect width="24" height="23.5556" fill="white"/>
</clipPath>
</defs>
</svg>
