<svg width="54" height="53" viewBox="0 0 54 53" fill="none" xmlns="http://www.w3.org/2000/svg">
<path d="M41.7675 44.2583L46.6127 46.6383C48.0419 47.3404 49.7746 46.7182 50.3262 45.2245C51.7436 41.3863 52.8518 36.8406 53.2335 32.164C53.6803 26.6911 53.1281 21.0952 50.9664 16.2529L50.9634 16.2542C50.8673 16.0456 50.7696 15.8375 50.6704 15.6301C49.9266 14.1958 48.5335 12.4367 46.4818 11.2728C44.1693 9.96082 40.9568 9.36706 36.7412 10.9544C35.8469 11.2912 34.9363 11.7263 34.0233 12.2455C35.1702 14.2068 35.9917 16.8521 36.057 20.3401C36.116 23.4925 35.6072 26.4779 34.8278 29.1376L42.2168 31.8954C43.9623 32.5469 45.1076 34.2749 44.761 36.1055C44.3421 38.3188 43.6384 40.4732 42.6718 42.5203C42.3983 43.0995 42.0975 43.681 41.7675 44.2583Z" fill="white"/>
<path d="M16.7197 42.1679C17.3506 41.9769 18.0169 41.7008 18.7162 41.3168C21.6775 39.6904 23.9171 37.0346 25.5092 34.4293C26.5413 32.7404 27.3176 31.0461 27.8512 29.6148C28.0917 28.9699 28.8047 28.6194 29.4495 28.8601L41.4058 33.3224C42.6092 33.7716 43.3676 34.983 43.098 36.2389C42.7409 37.902 42.1388 39.8589 41.2094 41.8272C39.6886 45.0479 37.3186 48.2431 33.7725 50.2627C30.8424 51.9315 27.8456 52.7924 25.0443 52.9218C21.992 52.4026 19.9896 51.0708 18.7139 49.2923C17.3633 47.4093 16.7627 44.9347 16.7197 42.1679Z" fill="white"/>
<path d="M24.13 0.236933C31.6715 -0.650203 37.275 1.02701 41.5284 4.04602C43.7884 5.65014 45.6863 7.64683 47.296 9.87321L47.2786 9.86337C44.5332 8.30585 40.8191 7.68857 36.1723 9.43827C29.9343 11.7872 23.2094 18.4062 19.6291 25.1562C17.3069 29.5344 15.0168 36.2478 15.1034 42.1732C15.1468 45.1432 15.7887 47.99 17.4017 50.2388C17.9632 51.0217 18.6348 51.7214 19.4242 52.3232C13.6797 50.8867 6.45158 46.8869 2.5562 37.6673C-0.843195 29.6216 0.773131 20.7154 5.17749 13.5572C9.58857 6.388 16.712 1.10955 24.13 0.236933Z" fill="white"/>
</svg>
