<svg width="24" height="25" viewBox="0 0 24 25" fill="none" xmlns="http://www.w3.org/2000/svg">
<path fill-rule="evenodd" clip-rule="evenodd" d="M23.9921 12.0079C23.9921 18.631 18.6231 23.9999 12.0001 23.9999C5.37706 23.9999 0.00805664 18.631 0.00805664 12.0079C0.00805664 5.38488 5.37706 0.0158691 12.0001 0.0158691C18.6231 0.0158691 23.9921 5.38488 23.9921 12.0079ZM8.60188 16.7801H6.27456C5.78553 16.7801 5.54396 16.7801 5.39667 16.6859C5.23758 16.5827 5.14037 16.4119 5.12858 16.2233C5.11974 16.0496 5.24054 15.8374 5.4821 15.4132L11.2285 5.28429C11.473 4.85418 11.5968 4.63912 11.7529 4.55958C11.9208 4.47415 12.1212 4.47415 12.2891 4.55958C12.4452 4.63912 12.569 4.85418 12.8135 5.28429L13.9948 7.34647L14.0008 7.35699C14.2649 7.81842 14.3988 8.05242 14.4573 8.29801C14.5221 8.5661 14.5221 8.84891 14.4573 9.11699C14.3984 9.36445 14.2658 9.60014 13.9977 10.0685L10.9793 15.4043L10.9715 15.418C10.7056 15.8832 10.5709 16.119 10.3842 16.2969C10.1809 16.4914 9.93641 16.6327 9.66832 16.7124C9.4238 16.7801 9.14984 16.7801 8.60188 16.7801ZM14.4791 16.7801H17.8139C18.3059 16.7801 18.5534 16.7801 18.7008 16.683C18.8598 16.5799 18.9599 16.406 18.9689 16.2175C18.9773 16.0494 18.8592 15.8455 18.6276 15.4459C18.6196 15.4323 18.6117 15.4185 18.6035 15.4044L16.9331 12.5468L16.9141 12.5146C16.6794 12.1177 16.5609 11.9173 16.4087 11.8398C16.2409 11.7543 16.0433 11.7543 15.8755 11.8398C15.7223 11.9193 15.5986 12.1285 15.3541 12.5497L13.6896 15.4073L13.6839 15.4172C13.4402 15.8378 13.3185 16.048 13.3272 16.2204C13.339 16.409 13.4362 16.5827 13.5953 16.6859C13.7397 16.7801 13.9871 16.7801 14.4791 16.7801Z" fill="white"/>
</svg>
