<?xml version="1.0" encoding="UTF-8"?>
<svg xmlns="http://www.w3.org/2000/svg" xmlns:xlink="http://www.w3.org/1999/xlink" width="24px" height="24px" viewBox="0 0 24 24" version="1.1">
<g id="surface1">
<path style=" stroke:none;fill-rule:nonzero;fill:rgb(100%,100%,100%);fill-opacity:1;" d="M 5.601562 3.875 L 12 0.25 L 18.398438 3.875 L 16 5.148438 L 12 2.890625 L 7.898438 5.148438 Z M 18.296875 8.375 L 16 7.101562 L 12 9.359375 L 7.898438 7.101562 L 5.601562 8.375 L 5.601562 11.023438 L 9.601562 13.273438 L 9.601562 17.875 L 11.898438 19.246094 L 14.203125 17.875 L 14.203125 13.371094 L 18.203125 11.117188 L 18.203125 8.375 Z M 18.296875 15.625 L 18.296875 12.976562 L 16 14.351562 L 16 16.898438 Z M 20 16.503906 L 16 18.757812 L 16 21.398438 L 22.398438 17.777344 L 22.398438 10.53125 L 20 12 Z M 17.703125 6.125 L 20 7.496094 L 20 10.140625 L 22.300781 8.769531 L 22.300781 6.125 L 20 4.753906 Z M 9.601562 19.734375 L 9.601562 22.378906 L 11.898438 23.75 L 14.203125 22.378906 L 14.203125 19.734375 L 11.898438 21.105469 Z M 5.601562 15.625 L 7.898438 16.898438 L 7.898438 14.25 L 5.601562 12.882812 Z M 9.601562 6.125 L 11.898438 7.496094 L 14.300781 6.125 L 12 4.753906 Z M 3.898438 7.496094 L 6.296875 6.125 L 3.898438 4.753906 L 1.601562 6.125 L 1.601562 8.765625 L 3.898438 10.140625 Z M 3.898438 12 L 1.601562 10.628906 L 1.601562 17.875 L 8 21.5 L 8 18.851562 L 4 16.601562 L 4 12 Z M 3.898438 12 "/>
</g>
</svg>
