<svg width="24" height="24" viewBox="0 0 24 24" fill="none" xmlns="http://www.w3.org/2000/svg">
<path d="M5.2314 3.70213L12 0L18.7686 3.70213L16.2314 5.00266L12 2.69681L7.66116 5.00266L5.2314 3.70213ZM18.6612 8.29787L16.2314 6.99734L12 9.30319L7.66116 6.99734L5.2314 8.29787V11.0027L9.46281 13.3005V18L11.8926 19.4003L14.3306 18V13.4003L18.562 11.0984V8.29787H18.6612ZM18.6612 15.7021V12.9973L16.2314 14.4016V17.0027L18.6612 15.7021ZM20.4628 16.5997L16.2314 18.9016V21.5984L23 17.9003V10.5L20.4628 12V16.5997ZM18.0331 6L20.4628 7.40027V10.1011L22.8967 8.7008V6L20.4628 4.59973L18.0331 6ZM9.46281 19.8989V22.5997L11.8926 24L14.3306 22.5997V19.8989L11.8926 21.2992L9.46281 19.8989ZM5.2314 15.7021L7.66116 17.0027V14.2979L5.2314 12.9016V15.7021ZM9.46281 6L11.8926 7.40027L14.4339 6L12 4.59973L9.46281 6ZM3.42975 7.40027L5.96694 6L3.42975 4.59973L1 6V8.69681L3.42975 10.1011V7.40027ZM3.42975 12L1 10.5997V18L7.7686 21.7021V18.9973L3.53719 16.6995V12H3.42975Z" fill="white"/>
</svg>
