<svg width="25" height="25" viewBox="0 0 25 25" fill="none" xmlns="http://www.w3.org/2000/svg">
<g clip-path="url(#clip0_5220_227)">
<mask id="mask0_5220_227" style="mask-type:luminance" maskUnits="userSpaceOnUse" x="0" y="0" width="25" height="25">
<path d="M24.5 0.5H0.5V24.5H24.5V0.5Z" fill="white"/>
</mask>
<g mask="url(#mask0_5220_227)">
<path d="M6.09993 4.19984L12.5003 0.5L18.9006 4.19984L16.5006 5.49968L12.5003 3.19952L8.40009 5.49968L6.09993 4.19984ZM18.7998 8.80016L16.4996 7.50032L12.5003 9.80048L8.40009 7.50032L6.09993 8.80016V11.5006L10.1002 13.8008V18.501L12.4004 19.9006L14.7006 18.501V13.9006L18.7009 11.6005V8.80016H18.7998ZM18.7998 16.1998V13.5003L16.5006 14.9V17.4997L18.7998 16.1998ZM20.4999 17.1003L16.4996 19.4005V22.1L22.8999 18.4002V11.0005L20.4999 12.5V17.1003ZM18.2007 6.5L20.5009 7.89968V10.6002L22.801 9.20048V6.5L20.5009 5.10032L18.2007 6.5ZM10.1002 20.3998V23.0994L12.4004 24.499L14.7006 23.0994V20.3998L12.4004 21.7995L10.1002 20.3998ZM6.09993 16.1998L8.40009 17.4997V14.8002L6.09993 13.4005V16.1998ZM10.1002 6.5L12.4004 7.89968L14.8004 6.5L12.5003 5.10032L10.1002 6.5ZM4.39977 7.89968L6.79977 6.5L4.39977 5.10032L2.10057 6.5V9.19952L4.40073 10.5992V7.89968H4.39977ZM4.39977 12.5L2.09961 11.1003V18.5L8.49993 22.1998V19.5003L4.49961 17.2002V12.5H4.39977Z" fill="white"/>
</g>
</g>
<defs>
<clipPath id="clip0_5220_227">
<rect width="24" height="24" fill="white" transform="translate(0.5 0.5)"/>
</clipPath>
</defs>
</svg>
