<svg width="2500" height="2500" viewBox="0 0 2500 2500" fill="none" xmlns="http://www.w3.org/2000/svg">
<g clip-path="url(#clip0_4845_19639)">
<path d="M583.3 385.4L1250 0L1916.7 385.4L1666.7 520.8L1250 281.2L822.9 520.8L583.3 385.4ZM1906.2 864.6L1666.6 729.2L1250 968.8L822.9 729.2L583.3 864.6V1145.9L1000 1385.5V1875.1L1239.6 2020.9L1479.2 1875.1V1395.9L1895.9 1156.3V864.6H1906.2ZM1906.2 1635.4V1354.2L1666.7 1500V1770.8L1906.2 1635.4ZM2083.3 1729.2L1666.6 1968.8V2250L2333.3 1864.6V1093.8L2083.3 1250V1729.2ZM1843.8 625L2083.4 770.8V1052.1L2323 906.3V625L2083.4 479.2L1843.8 625ZM1000 2072.9V2354.1L1239.6 2499.9L1479.2 2354.1V2072.9L1239.6 2218.7L1000 2072.9ZM583.3 1635.4L822.9 1770.8V1489.6L583.3 1343.8V1635.4ZM1000 625L1239.6 770.8L1489.6 625L1250 479.2L1000 625ZM406.2 770.8L656.2 625L406.2 479.2L166.7 625V906.2L406.3 1052V770.8H406.2ZM406.2 1250L166.6 1104.2V1875L833.3 2260.4V1979.2L416.6 1739.6V1250H406.2Z" fill="white"/>
</g>
<defs>
<clipPath id="clip0_4845_19639">
<rect width="2500" height="2500" fill="white"/>
</clipPath>
</defs>
</svg>
