<svg width="24" height="24" viewBox="0 0 24 24" fill="none" xmlns="http://www.w3.org/2000/svg">
<path fill-rule="evenodd" clip-rule="evenodd" d="M10.7128 10.0537C10.5259 10.2371 10.3199 10.3968 10.0828 10.4565C9.97259 10.4844 9.8585 10.4885 9.74452 10.4926C9.70349 10.4941 9.66249 10.4956 9.62168 10.4982C8.88318 10.5447 8.42607 11.3191 8.47316 12.0059C8.52485 12.7605 9.18696 13.3583 9.95274 13.3419C10.4288 13.3318 10.8876 13.0783 11.1406 12.6732C11.2728 12.461 11.299 12.2308 11.3248 12.004C11.3389 11.8798 11.3529 11.7565 11.3842 11.6379C11.5839 10.5772 12.354 9.65725 13.3913 9.36714C14.8505 8.95913 16.3211 9.65772 16.9 11.0334C17.0605 11.4149 17.0605 11.4149 16.6589 11.4149H16.105C15.7722 11.4661 15.4403 11.3751 15.1035 11.0405C14.5608 10.5019 13.6618 10.6265 13.1418 11.2179C12.9731 11.4097 12.8661 11.6382 12.8196 11.8774C12.8203 12.0046 12.8124 12.1315 12.796 12.2574C12.8195 12.6073 12.9668 12.9507 13.2343 13.2095C13.7878 13.7447 14.6926 13.7625 15.2117 13.1989C15.2869 13.1173 15.3611 13.0534 15.4384 13.0059H14.3696C14.3532 13.0059 14.3398 12.9927 14.3398 12.9761V11.8057C14.3398 11.7893 14.3532 11.7759 14.3696 11.7759H16.9905V13.0059H16.9868C16.991 13.0556 16.9731 13.124 16.9385 13.2138C16.4619 14.4508 15.2502 15.1795 13.8567 15.0497C13.117 14.9807 12.4257 14.5606 11.9547 13.957C11.8746 14.0395 11.789 14.1189 11.6982 14.195C10.7667 14.9745 9.26047 15.002 8.22709 14.2584C7.04757 13.4096 6.65104 11.752 7.33441 10.5257C7.67896 9.90725 8.23197 9.41424 8.89811 9.16817C9.64005 8.89397 10.3742 8.98039 11.1035 9.24541C11.1587 9.26551 11.217 9.2879 11.2514 9.33529C11.3126 9.41855 11.2362 9.49894 11.1793 9.55637C11.1152 9.62159 11.0499 9.6936 10.9826 9.76777C10.8963 9.86276 10.8069 9.96129 10.7128 10.0537Z" fill="white"/>
</svg>
