<svg width="24" height="24" viewBox="0 0 24 24" fill="none" xmlns="http://www.w3.org/2000/svg">
<g clip-path="url(#clip0_2268_8124)">
<path fill-rule="evenodd" clip-rule="evenodd" d="M24 12C24 18.6274 18.6274 24 12 24C5.37258 24 0 18.6274 0 12C0 5.37258 5.37258 0 12 0C18.6274 0 24 5.37258 24 12ZM10.0089 8.94855C9.71639 9.23561 9.3943 9.48536 9.02324 9.57881C8.85075 9.62243 8.67217 9.62886 8.49377 9.63529C8.42965 9.6376 8.36556 9.63991 8.30178 9.64395C7.14636 9.71674 6.43116 10.9283 6.50485 12.0028C6.5857 13.1834 7.62164 14.1187 8.81973 14.0931C9.56455 14.0774 10.2824 13.6807 10.6782 13.0468C10.8851 12.7149 10.9261 12.3547 10.9664 11.9999C10.9886 11.8044 11.0106 11.6105 11.0602 11.424C11.3734 9.76544 12.5778 8.32738 14.1999 7.87373C16.4829 7.2354 18.7839 8.32838 19.6895 10.4806C19.9406 11.0777 19.9406 11.0777 19.3122 11.0777H18.4456C17.9249 11.1576 17.4056 11.0152 16.8787 10.4919C16.0296 9.64909 14.6231 9.84405 13.8095 10.7695C13.5452 11.0699 13.3778 11.4281 13.3051 11.8029C13.3062 12.001 13.2939 12.1986 13.2684 12.3945C13.3049 12.9423 13.5354 13.4801 13.9542 13.8854C14.8203 14.7227 16.2358 14.7506 17.048 13.8687C17.389 13.4985 17.7165 13.3624 18.1904 13.4024C18.5947 13.4366 19.0062 13.4352 19.411 13.4033C19.8476 13.3692 19.9011 13.4994 19.7497 13.8921C19.004 15.8274 17.1082 16.9675 14.9281 16.7645C13.7709 16.6564 12.6893 15.9994 11.9525 15.055C11.8269 15.1842 11.6929 15.3087 11.5506 15.4278C10.0933 16.6474 7.73665 16.6906 6.11987 15.5271C4.27443 14.1991 3.65404 11.6057 4.72319 9.68707C5.26229 8.71942 6.12749 7.94809 7.16973 7.56311C8.33054 7.13411 9.4792 7.2693 10.6203 7.68398C10.7065 7.7154 10.7977 7.75042 10.8516 7.82456C10.9473 7.95484 10.8278 8.08061 10.7388 8.17046C10.6387 8.27236 10.5366 8.38484 10.4315 8.50071L10.4314 8.50072C10.2964 8.64949 10.1563 8.80383 10.0089 8.94855Z" fill="white"/>
</g>
<defs>
<clipPath id="clip0_2268_8124">
<rect width="24" height="24" fill="white"/>
</clipPath>
</defs>
</svg>
