<svg width="24" height="24" viewBox="0 0 24 24" fill="none" xmlns="http://www.w3.org/2000/svg">
<g clip-path="url(#clip0_2268_8138)">
<path fill-rule="evenodd" clip-rule="evenodd" d="M24 12C24 18.6274 18.6274 24 12 24C5.37258 24 0 18.6274 0 12C0 5.37258 5.37258 0 12 0C18.6274 0 24 5.37258 24 12ZM18.9978 8.71517L18.9987 6.02055L12.0033 2L5.00607 6.01873L5.00333 14.0598L6.23943 14.771L6.23851 14.7719L12.0033 18.0795L18.995 14.0644L18.9968 10.0502L16.9084 11.2461L16.9065 12.863L12.0015 15.6823L7.09272 12.8603L7.09455 7.21917L12.0051 4.4036L16.9084 7.22281V9.91197L18.9978 8.71517ZM11.9652 19.5818L5.00731 15.5822L5 17.9776L11.9945 22L18.9981 17.9531L18.9908 15.5677L11.9652 19.5818Z" fill="white"/>
</g>
<defs>
<clipPath id="clip0_2268_8138">
<rect width="24" height="24" fill="white"/>
</clipPath>
</defs>
</svg>
