<svg width="24" height="24" viewBox="0 0 24 24" fill="none" xmlns="http://www.w3.org/2000/svg">
<g clip-path="url(#clip0_2911_657)">
<path d="M12 24C18.6274 24 24 18.6274 24 12C24 5.37258 18.6274 0 12 0C5.37258 0 0 5.37258 0 12C0 18.6274 5.37258 24 12 24Z" fill="white"/>
<path d="M8.76562 8.10938C8.76562 8.83359 8.17734 9.42188 7.45312 9.42188C6.72891 9.42188 6.14062 8.83359 6.14062 8.10938C6.14062 7.38516 6.72891 6.79688 7.45312 6.79688C8.17734 6.79688 8.76562 7.38516 8.76562 8.10938ZM5.95312 11.8055C5.71875 12.068 5.57812 12.4172 5.57812 12.7969C5.57812 13.1766 5.71875 13.5258 5.95312 13.7883V11.8055ZM9.3375 10.65C8.64141 11.2664 8.20312 12.1688 8.20312 13.1719C8.20312 13.9758 8.48438 14.7141 8.95312 15.293V15.7969C8.95312 16.2117 8.61797 16.5469 8.20312 16.5469H6.70312C6.28828 16.5469 5.95312 16.2117 5.95312 15.7969V15.1688C5.06719 14.7469 4.45312 13.8445 4.45312 12.7969C4.45312 11.3461 5.62734 10.1719 7.07812 10.1719H7.82812C8.39062 10.1719 8.91094 10.3477 9.3375 10.6477V10.65ZM14.9531 15.7969V15.293C15.4219 14.7141 15.7031 13.9758 15.7031 13.1719C15.7031 12.1688 15.2648 11.2664 14.5687 10.6477C14.9953 10.3477 15.5156 10.1719 16.0781 10.1719H16.8281C18.2789 10.1719 19.4531 11.3461 19.4531 12.7969C19.4531 13.8445 18.8391 14.7469 17.9531 15.1688V15.7969C17.9531 16.2117 17.618 16.5469 17.2031 16.5469H15.7031C15.2883 16.5469 14.9531 16.2117 14.9531 15.7969ZM17.7656 8.10938C17.7656 8.83359 17.1773 9.42188 16.4531 9.42188C15.7289 9.42188 15.1406 8.83359 15.1406 8.10938C15.1406 7.38516 15.7289 6.79688 16.4531 6.79688C17.1773 6.79688 17.7656 7.38516 17.7656 8.10938ZM17.9531 11.8055V13.7906C18.1875 13.5258 18.3281 13.1789 18.3281 12.7992C18.3281 12.4195 18.1875 12.0703 17.9531 11.8078V11.8055ZM11.9531 9.79688C11.1258 9.79688 10.4531 9.12422 10.4531 8.29688C10.4531 7.46953 11.1258 6.79688 11.9531 6.79688C12.7805 6.79688 13.4531 7.46953 13.4531 8.29688C13.4531 9.12422 12.7805 9.79688 11.9531 9.79688ZM10.0781 13.1719C10.0781 13.5516 10.2188 13.8984 10.4531 14.1633V12.1805C10.2188 12.4453 10.0781 12.7922 10.0781 13.1719ZM13.4531 12.1805V14.1656C13.6875 13.9008 13.8281 13.5539 13.8281 13.1742C13.8281 12.7945 13.6875 12.4453 13.4531 12.1828V12.1805ZM14.9531 13.1719C14.9531 14.2195 14.3391 15.1219 13.4531 15.5438V16.5469C13.4531 16.9617 13.118 17.2969 12.7031 17.2969H11.2031C10.7883 17.2969 10.4531 16.9617 10.4531 16.5469V15.5438C9.56719 15.1219 8.95312 14.2195 8.95312 13.1719C8.95312 11.7211 10.1273 10.5469 11.5781 10.5469H12.3281C13.7789 10.5469 14.9531 11.7211 14.9531 13.1719Z" fill="black"/>
</g>
<defs>
<clipPath id="clip0_2911_657">
<rect width="24" height="24" fill="white"/>
</clipPath>
</defs>
</svg>
