<svg width="24" height="24" viewBox="0 0 24 24" fill="none" xmlns="http://www.w3.org/2000/svg">
<g clip-path="url(#clip0_2221_112)">
<path fill-rule="evenodd" clip-rule="evenodd" d="M24 12C24 5.37212 18.6279 0 12 0C5.37212 0 0 5.37212 0 12C0 18.6279 5.37212 24 12 24C18.6279 24 24 18.6279 24 12ZM11.9142 2.3L8.75707 7.00509L5.59998 11.7233L11.9142 9.33964V2.3ZM12.4 2.3L15.5571 7.00509L18.7142 11.7233L12.4 9.33964V2.3ZM12.4 16.5822L18.376 13.4L12.4 21.5535V16.5822ZM18.7142 12.2836L12.4 9.9V15.4647L18.7142 12.2836ZM5.90002 13.4L11.864 16.5822V21.5535L5.90002 13.4ZM11.9142 9.9L5.59998 12.2836L11.9142 15.4647V9.9Z" fill="white"/>
</g>
<defs>
<clipPath id="clip0_2221_112">
<rect width="24" height="24" fill="white"/>
</clipPath>
</defs>
</svg>
