<svg width="24" height="24" viewBox="0 0 24 24" fill="none" xmlns="http://www.w3.org/2000/svg">
<g clip-path="url(#clip0_2221_26)">
<path fill-rule="evenodd" clip-rule="evenodd" d="M24 12C24 5.37212 18.6279 0 12 0C5.37212 0 0 5.37212 0 12C0 18.6279 5.37212 24 12 24C18.6279 24 24 18.6279 24 12ZM11.9531 2.56017L11.9531 2.56013L8.79601 7.26522L5.63892 11.9834V11.9834L11.9531 15.1765L18.2673 11.9954L18.2613 11.9864L18.2673 11.9834L18.2673 11.9834V11.9834L15.1102 7.26522L11.9531 2.56013V2.56017ZM5.98914 13.2653L11.9531 16.4474L11.9531 16.4474L17.9171 13.2652L17.9094 13.2757L17.9291 13.2652L11.9531 21.4187V21.4066L11.9531 21.4067L11.953 21.4066V21.4187L5.98901 13.2652L5.98914 13.2653Z" fill="white"/>
</g>
<defs>
<clipPath id="clip0_2221_26">
<rect width="24" height="24" fill="white"/>
</clipPath>
</defs>
</svg>
