<svg width="40" height="40" viewBox="0 0 40 40" fill="none" xmlns="http://www.w3.org/2000/svg">
<path fill-rule="evenodd" clip-rule="evenodd" d="M19.9435 3.33337L10.0016 8.97417V30.8567L19.9435 36.6667L30.002 30.8567V8.97417L19.9435 3.33337ZM20.0018 4.99976L12.4983 9.49916L19.998 13.8741L27.4977 9.49916L20.0018 4.99976ZM11.6661 10.833V18.3327L18.3335 14.5994L11.6661 10.833ZM20.834 16.2482V23.7499L27.4995 20.0165L20.834 16.2482ZM28.3337 10.833V18.3327L21.6663 14.5994L28.3337 10.833ZM19.1657 16.2463V23.7479L12.4983 20.0145L19.1657 16.2463ZM11.6661 21.3019V30.0012L20.0018 34.9984L28.3357 29.9992V21.2979L19.9998 25.8324L11.6661 21.3019Z" fill="white"/>
<path d="M5.83337 32.6582V27.4995H7.49976V31.8337L11.6666 33.9824V35.8334L5.83337 32.6582ZM34.1657 7.34164V12.5002H32.4993V8.16609L28.3323 6.01944V4.16833L34.1657 7.34164Z" fill="white"/>
</svg>
