<svg width="24" height="24" viewBox="0 0 24 24" fill="none" xmlns="http://www.w3.org/2000/svg">
<g clip-path="url(#clip0_2665_238)">
<path d="M12 23.9378C18.6274 23.9378 24 18.5931 24 12C24 5.40695 18.6274 0.0621948 12 0.0621948C5.37259 0.0621948 0 5.40695 0 12C0 18.5931 5.37259 23.9378 12 23.9378Z" fill="#026B71"/>
<path d="M12 23.9378C18.6274 23.9378 24 18.5931 24 12C24 5.40695 18.6274 0.0621948 12 0.0621948C5.37259 0.0621948 0 5.40695 0 12C0 18.5931 5.37259 23.9378 12 23.9378Z" fill="url(#paint0_linear_2665_238)"/>
<path d="M23.9 12C23.9 18.5373 18.5726 23.8378 12 23.8378C5.42733 23.8378 0.1 18.5373 0.1 12C0.1 5.46266 5.42733 0.162195 12 0.162195C18.5726 0.162195 23.9 5.46266 23.9 12Z" fill="black" stroke="white" stroke-width="0.2"/>
<path fill-rule="evenodd" clip-rule="evenodd" d="M9.45666 18.5705H11.2606H11.7175C11.7103 18.5705 11.7045 18.5648 11.7045 18.5576V13.878C11.7045 13.2688 12.0626 12.716 12.6201 12.4643L13.0561 12.2676C13.6136 12.016 13.9718 11.4631 13.9718 10.854V9.9864V6.04394C13.9718 6.03679 13.9776 6.03101 13.9847 6.03101H11.724V9.9864V10.854C11.724 11.4631 11.3659 12.016 10.8083 12.2676L10.3724 12.4643C9.81478 12.716 9.45666 13.2688 9.45666 13.878V18.5705ZM16.647 6.03108H17.4102C17.8411 6.03108 18.1904 6.37857 18.1904 6.80723V10.7237C18.1904 11.3328 17.8324 11.8857 17.2747 12.1373L16.8389 12.334C16.2812 12.5857 15.9231 13.1386 15.9231 13.7477V14.6153V17.7945C15.9231 18.2232 15.5737 18.5707 15.1429 18.5707H13.6622C13.6695 18.5707 13.6753 18.5648 13.6753 18.5577V14.6153V13.7477C13.6753 13.1386 14.0334 12.5857 14.591 12.334L15.0269 12.1373C15.5845 11.8857 15.9426 11.3328 15.9426 10.7237V6.04401C15.9426 6.03689 15.9369 6.03111 15.9296 6.03108H16.3865H16.5084C16.5046 6.03103 16.5009 6.03101 16.4971 6.03101H16.6357C16.6395 6.03101 16.6432 6.03103 16.647 6.03108ZM9.77812 6.03101H8.2975C7.86661 6.03101 7.51731 6.3785 7.51731 6.80715V9.9864V10.854C7.51731 11.4631 7.1592 12.016 6.6016 12.2676L6.16571 12.4643C5.60811 12.716 5.25 13.2688 5.25 13.878V17.7945C5.25 18.2231 5.5993 18.5705 6.03019 18.5705H7.0539H7.51078C7.5036 18.5705 7.4978 18.5648 7.4978 18.5576V13.878C7.4978 13.2688 7.85591 12.716 8.41352 12.4643L8.8494 12.2676C9.407 12.016 9.76513 11.4631 9.76513 10.854V9.9864V6.04394C9.76513 6.03679 9.77094 6.03101 9.77812 6.03101Z" fill="white"/>
<path fill-rule="evenodd" clip-rule="evenodd" d="M9.45666 18.5705H11.2606H11.7175C11.7103 18.5705 11.7045 18.5648 11.7045 18.5576V13.878C11.7045 13.2688 12.0626 12.716 12.6201 12.4643L13.0561 12.2676C13.6136 12.016 13.9718 11.4631 13.9718 10.854V9.9864V6.04394C13.9718 6.03679 13.9776 6.03101 13.9847 6.03101H11.724V9.9864V10.854C11.724 11.4631 11.3659 12.016 10.8083 12.2676L10.3724 12.4643C9.81478 12.716 9.45666 13.2688 9.45666 13.878V18.5705ZM16.647 6.03108H17.4102C17.8411 6.03108 18.1904 6.37857 18.1904 6.80723V10.7237C18.1904 11.3328 17.8324 11.8857 17.2747 12.1373L16.8389 12.334C16.2812 12.5857 15.9231 13.1386 15.9231 13.7477V14.6153V17.7945C15.9231 18.2232 15.5737 18.5707 15.1429 18.5707H13.6622C13.6695 18.5707 13.6753 18.5648 13.6753 18.5577V14.6153V13.7477C13.6753 13.1386 14.0334 12.5857 14.591 12.334L15.0269 12.1373C15.5845 11.8857 15.9426 11.3328 15.9426 10.7237V6.04401C15.9426 6.03689 15.9369 6.03111 15.9296 6.03108H16.3865H16.5084C16.5046 6.03103 16.5009 6.03101 16.4971 6.03101H16.6357C16.6395 6.03101 16.6432 6.03103 16.647 6.03108ZM9.77812 6.03101H8.2975C7.86661 6.03101 7.51731 6.3785 7.51731 6.80715V9.9864V10.854C7.51731 11.4631 7.1592 12.016 6.6016 12.2676L6.16571 12.4643C5.60811 12.716 5.25 13.2688 5.25 13.878V17.7945C5.25 18.2231 5.5993 18.5705 6.03019 18.5705H7.0539H7.51078C7.5036 18.5705 7.4978 18.5648 7.4978 18.5576V13.878C7.4978 13.2688 7.85591 12.716 8.41352 12.4643L8.8494 12.2676C9.407 12.016 9.76513 11.4631 9.76513 10.854V9.9864V6.04394C9.76513 6.03679 9.77094 6.03101 9.77812 6.03101Z" fill="white"/>
</g>
<defs>
<linearGradient id="paint0_linear_2665_238" x1="4.52869" y1="0.957532" x2="19.4199" y2="22.2025" gradientUnits="userSpaceOnUse">
<stop stop-color="#FEE45D"/>
<stop offset="0.145" stop-color="#FEE45D"/>
<stop offset="0.775" stop-color="#AEFEC3"/>
</linearGradient>
<clipPath id="clip0_2665_238">
<rect width="24" height="24" fill="white"/>
</clipPath>
</defs>
</svg>
