<svg width="24" height="24" viewBox="0 0 24 24" fill="none" xmlns="http://www.w3.org/2000/svg">
<g clip-path="url(#clip0_2276_8212)">
<path fill-rule="evenodd" clip-rule="evenodd" d="M24 12C24 18.6274 18.6274 24 12 24C5.37258 24 0 18.6274 0 12C0 5.37258 5.37258 0 12 0C18.6274 0 24 5.37258 24 12ZM7.83809 4.45882C7.53983 4.75283 7.36926 5.1524 7.36325 5.57116L7.36357 12.9048C7.30695 13.0132 7.14335 13.1186 6.97775 13.2252L6.97598 13.2264L6.96679 13.2323C6.85847 13.3023 6.75007 13.3723 6.67117 13.4445C5.5153 14.4966 6.17321 15.9145 6.31183 16.151C6.52205 16.5097 7.93281 18.5416 8.47313 19.0277C8.56874 19.1134 8.65646 19.2075 8.73525 19.3089C9.00196 19.6531 9.38988 20 9.82542 20H14.7002C15.1636 20 15.5989 19.6206 15.881 19.2534C16.0364 19.0517 16.2591 18.7876 16.5784 18.4198C17.3098 17.5772 17.4928 15.2599 17.4928 15.2599L17.4905 15.2593C17.492 15.2316 17.4928 15.2039 17.4928 15.1762V11.7371C17.4929 11.49 17.4339 11.2464 17.3208 11.0266C17.2078 10.8068 17.0438 10.6173 16.8427 10.4736C16.6416 10.33 16.409 10.2365 16.1645 10.2009C15.9199 10.1653 15.6703 10.1886 15.4366 10.2689C15.3377 10.0559 15.193 9.86733 15.0127 9.71676C14.8325 9.56619 14.6212 9.45731 14.394 9.3979C14.1668 9.33849 13.9292 9.33002 13.6984 9.3731C13.4675 9.41618 13.249 9.50974 13.0585 9.64709C12.9724 9.40713 12.83 9.19133 12.6432 9.01777C12.4565 8.84421 12.2308 8.71797 11.9852 8.64964C11.7396 8.5813 11.4812 8.57286 11.2316 8.62502C10.9821 8.67719 10.7487 8.78843 10.551 8.94943V5.57116C10.545 5.1524 10.3744 4.75283 10.0762 4.45882C9.77791 4.16482 9.37593 4 8.95713 4C8.53832 4 8.13634 4.16482 7.83809 4.45882Z" fill="white"/>
</g>
<defs>
<clipPath id="clip0_2276_8212">
<rect width="24" height="24" fill="white"/>
</clipPath>
</defs>
</svg>
