<svg width="40" height="42" viewBox="0 0 40 42" fill="none" xmlns="http://www.w3.org/2000/svg">
<path d="M37.295 23.5394C37.7692 23.0657 38.3796 22.4561 38.9857 21.8514C40.3376 20.5018 40.3383 18.3128 38.9865 16.9626L37.5543 15.5321C32.4268 20.6536 24.7537 21.6826 18.6024 18.6198C22.7599 19.3876 27.0685 18.7895 30.8865 16.7393C33.4405 15.3675 33.9256 11.9078 31.875 9.85976L23.4204 1.41523C21.5311 -0.471744 18.4684 -0.471744 16.5798 1.41523L7.46677 10.5174C13.4684 7.97065 20.6779 9.1513 25.5589 14.0602C18.1124 10.4501 8.88748 11.731 2.70464 17.9057C2.23035 18.3794 1.61924 18.9898 1.01313 19.5952C-0.338065 20.9455 -0.337353 23.133 1.01313 24.4825L2.44457 25.9123C7.57217 20.7909 15.2451 19.7619 21.3965 22.8246C17.2389 22.0568 12.9303 22.655 9.1125 24.7051C6.55833 26.0769 6.07328 29.5367 8.1238 31.5847L16.5785 40.0293C18.4677 41.9162 21.5305 41.9162 23.419 40.0293L32.5321 30.9271C26.5304 33.4738 19.3209 32.2932 14.4392 27.3842C21.8858 30.9944 31.1107 29.7135 37.2935 23.5387L37.295 23.5394Z" fill="white"/>
</svg>
