<svg width="24" height="24" viewBox="0 0 24 24" fill="none" xmlns="http://www.w3.org/2000/svg">
<g clip-path="url(#clip0_2965_660)">
<path d="M23.9 12C23.9 18.5722 18.5722 23.9 12 23.9C5.42781 23.9 0.1 18.5722 0.1 12C0.1 5.42781 5.42781 0.1 12 0.1C18.5722 0.1 23.9 5.42781 23.9 12Z" fill="black" stroke="white" stroke-width="0.2"/>
<path fill-rule="evenodd" clip-rule="evenodd" d="M11.9998 5.28003C11.0608 5.28003 10.2968 6.04453 10.2968 6.9842C10.2968 7.92389 11.0608 8.68839 11.9998 8.68839C12.9389 8.68839 13.7028 7.92389 13.7028 6.9842C13.7028 6.04453 12.9389 5.28003 11.9998 5.28003ZM11.9998 8.05959C11.7873 8.05959 11.5795 7.99657 11.4027 7.87841C11.226 7.76026 11.0882 7.59231 11.0069 7.39582C10.9255 7.19931 10.9042 6.98309 10.9457 6.77449C10.9871 6.56588 11.0895 6.37426 11.2398 6.22385C11.39 6.07345 11.5815 5.97101 11.79 5.92952C11.9985 5.888 12.2146 5.90929 12.4109 5.99069C12.6073 6.07208 12.7752 6.20991 12.8933 6.38677C13.0114 6.5636 13.0744 6.77151 13.0744 6.9842C13.0741 7.26932 12.9608 7.5427 12.7593 7.74435C12.5579 7.946 12.2848 8.05913 11.9998 8.05959ZM20.7241 10.1858C20.4186 9.76964 19.9468 9.5497 19.3601 9.5497C17.7517 9.5497 16.5199 11.1862 15.3376 12.8212C14.9452 12.1954 14.5351 11.5761 14.0737 11.08C13.4083 10.3648 12.7297 10.0173 11.9998 10.0173C11.2699 10.0173 10.5915 10.3643 9.92583 11.08C9.58191 11.4501 8.96295 12.3624 8.6622 12.8212C7.47968 11.1862 6.248 9.5497 4.63952 9.5497C4.05286 9.5497 3.58112 9.76964 3.27557 10.1858C3.01251 10.5433 2.88 11.0276 2.88 11.6242C2.88 12.0631 2.95666 12.5511 3.09591 13.0413H3.09106C3.09106 13.5582 3.13503 14.0647 3.21941 14.5575L3.21425 14.5585C3.22601 14.6217 3.23926 14.6845 3.25392 14.7468C4.04921 18.8545 7.66265 21.956 12 21.956C16.9203 21.956 20.9089 17.9648 20.9089 13.0413H20.9036C21.0428 12.5511 21.1194 12.0631 21.1194 11.6242C21.12 11.0275 20.9867 10.5433 20.7241 10.1858ZM20.0416 14.9098C19.4354 15.7983 18.7002 16.3016 17.9937 16.3016C17.0987 16.3016 16.4144 15.597 15.7702 14.6679C15.6965 16.0562 15.4564 17.3575 15.0911 18.4594C16.0809 18.2276 16.9601 17.8882 17.6968 17.4713C18.9364 16.7698 19.7451 15.8674 20.0416 14.9098ZM15.1519 14.1335C14.2507 15.2813 13.0694 16.5208 11.9996 16.5208C10.7981 16.5208 9.82335 15.4471 8.84828 14.1429C8.88737 15.8297 9.18159 17.3899 9.64116 18.6173C10.3736 18.738 11.1611 18.8027 11.9951 18.8027C12.8291 18.8027 13.6221 18.7338 14.3629 18.6067C14.821 17.3786 15.1139 15.819 15.1519 14.1335ZM8.22975 14.6672C7.58523 15.5966 6.90084 16.3016 6.00572 16.3016C5.3036 16.3016 4.57309 15.8046 3.9691 14.9263C4.31314 15.9324 5.13008 16.8358 6.35302 17.5216C7.07753 17.9279 7.93896 18.2539 8.91428 18.4754C8.5459 17.3699 8.30379 16.0625 8.22975 14.6672ZM9.06005 13.3705C9.82107 12.1824 10.9381 10.6461 11.9998 10.6461C13.2026 10.6461 14.0903 12.0039 14.9396 13.3705C14.0973 14.488 12.8979 15.892 12 15.892C11.117 15.892 10.264 14.9693 9.43505 13.8762C9.30939 13.7106 9.18394 13.5412 9.06005 13.3705ZM19.6731 14.3212C19.1617 15.1675 18.5337 15.6728 17.9937 15.6728C17.1525 15.6728 16.4392 14.5933 15.6962 13.3978C15.7082 13.3801 15.7216 13.3619 15.7347 13.3447C16.8587 11.7879 18.0222 10.1785 19.3601 10.1785C20.1108 10.1785 20.4917 10.6646 20.4917 11.6242C20.4917 12.4514 20.1781 13.4855 19.6731 14.3212ZM6.00608 15.6728C5.46593 15.6728 4.8379 15.1675 4.32706 14.3212C3.82205 13.4855 3.50804 12.4519 3.50804 11.6242C3.50804 10.6646 3.88892 10.1785 4.63952 10.1785C5.97797 10.1785 7.14053 11.7879 8.26508 13.3447C8.27156 13.3536 8.27806 13.3626 8.28449 13.3715C8.29076 13.3802 8.29733 13.3894 8.30348 13.3978C7.56063 14.5933 6.84708 15.6728 6.00608 15.6728ZM17.714 6.9842C17.714 6.04453 18.478 5.28003 19.4171 5.28003C20.3557 5.28003 21.12 6.04453 21.12 6.9842C21.12 7.92389 20.3561 8.68839 19.4171 8.68839C18.478 8.68839 17.714 7.92389 17.714 6.9842ZM18.82 7.87834C18.9967 7.99652 19.2045 8.05959 19.4171 8.05959C19.702 8.05918 19.9752 7.94605 20.1766 7.7444C20.3781 7.54273 20.4914 7.26934 20.4917 6.9842C20.4917 6.77151 20.4287 6.56362 20.3106 6.38677C20.1925 6.20991 20.0247 6.07208 19.8283 5.99069C19.6319 5.90931 19.4159 5.888 19.2073 5.92949C18.9989 5.97099 18.8074 6.07342 18.6571 6.22381C18.5068 6.37421 18.4045 6.56581 18.363 6.77441C18.3216 6.98302 18.3429 7.19924 18.4242 7.39573C18.5055 7.59224 18.6433 7.76019 18.82 7.87834ZM4.58307 5.28003C3.644 5.28003 2.88048 6.04453 2.88048 6.9842C2.88048 7.92389 3.644 8.68839 4.58307 8.68839C5.52214 8.68839 6.28613 7.92389 6.28613 6.9842C6.28613 6.04453 5.52154 5.28003 4.58307 5.28003ZM4.58307 8.05959C4.3705 8.05959 4.16273 7.99652 3.986 7.87834C3.80928 7.76019 3.67155 7.59224 3.59019 7.39573C3.50885 7.19924 3.48756 6.98302 3.52904 6.77441C3.57051 6.56581 3.67287 6.37421 3.82316 6.22381C3.97344 6.07342 4.16494 5.97099 4.3734 5.92949C4.58187 5.888 4.79794 5.90931 4.99433 5.99069C5.1907 6.07208 5.35853 6.20991 5.47661 6.38677C5.59472 6.56362 5.65774 6.77151 5.65774 6.9842C5.65743 7.26934 5.5441 7.54273 5.34264 7.7444C5.14119 7.94605 4.86802 8.05918 4.58307 8.05959ZM10.459 21.1741C8.10188 20.7297 6.09788 19.2844 4.90464 17.2965C5.24261 17.5826 5.62323 17.8443 6.04107 18.0786C6.92571 18.5747 7.98437 18.9527 9.179 19.1833C9.20261 19.2397 9.22659 19.2954 9.25093 19.3504C9.57591 20.0846 9.97104 20.703 10.4257 21.1423C10.4367 21.153 10.4479 21.1636 10.459 21.1741ZM10.8689 20.6829C10.5322 20.3577 10.214 19.8918 9.93334 19.3066C10.5873 19.3949 11.2764 19.4413 11.9951 19.4413C12.7156 19.4413 13.4098 19.3918 14.0705 19.2985C13.7889 19.8874 13.4693 20.3561 13.1311 20.6829C12.7554 21.0459 12.3737 21.2193 12 21.2193C11.6263 21.2193 11.2446 21.0459 10.8689 20.6829ZM14.7491 19.3504C14.7754 19.2911 14.8012 19.2309 14.8266 19.1699C16.0366 18.9281 17.1146 18.5343 18.0109 18.0271C18.4128 17.7996 18.7808 17.5477 19.1085 17.2746C17.9168 19.2738 15.9068 20.728 13.541 21.1741C13.5522 21.1636 13.5633 21.153 13.5744 21.1423C14.029 20.703 14.4241 20.0846 14.7491 19.3504Z" fill="white"/>
</g>
<defs>
<clipPath id="clip0_2965_660">
<rect width="24" height="24" fill="white"/>
</clipPath>
</defs>
</svg>
