<svg width="24" height="24" viewBox="0 0 24 24" fill="none" xmlns="http://www.w3.org/2000/svg">
<path fill-rule="evenodd" clip-rule="evenodd" d="M24 12C24 18.6274 18.6274 24 12 24C5.37258 24 0 18.6274 0 12C0 5.37258 5.37258 0 12 0C18.6274 0 24 5.37258 24 12ZM12.565 7.46306C12.0426 7.46306 11.617 7.91755 11.617 8.47543C11.617 9.03332 12.0436 9.48777 12.566 9.48777H16V18.8069H13.6391V17.9669C12.4934 19.2323 10.3725 19.2927 9.01607 18.3804C7.49625 17.4111 6.79836 15.4048 7.05049 13.5448C7.26631 11.8507 8.19313 10.512 9.58891 9.88195C9.4104 9.45227 9.31056 8.97623 9.31056 8.47543C9.31056 6.55624 10.7678 5 12.565 5H13.4132H14.2613V7.46306H12.565ZM13.6915 14.2911V11.9519H11.5011C10.2918 11.9519 9.31056 12.9998 9.31056 14.2911C9.31056 15.5824 10.2918 16.6303 11.5011 16.6303C12.7103 16.6303 13.6915 15.5835 13.6915 14.2911Z" fill="white"/>
</svg>
