<svg width="972" height="972" viewBox="0 0 972 972" fill="none" xmlns="http://www.w3.org/2000/svg">
<path fill-rule="evenodd" clip-rule="evenodd" d="M486 972C754.41 972 972 754.41 972 486C972 217.59 754.41 0 486 0C217.59 0 0 217.59 0 486C0 754.41 217.59 972 486 972ZM404.5 398.5L487 445.5L568 398.5V370L595 385L628 366V403.5L709.5 451.5L792 404L790.5 309L709.5 262.5L677 281L676 244L595.5 196.5L565 213V179L483.5 132L403 178.5L402 273.5L430 289.5L404.5 304V398.5ZM179 308.5L260 262.5L342 308.5V404.5L310.5 421.5L342 440.5V479L375 460L455.5 506L457 601.5L375.5 648.5L342.5 629V663L260.5 710L179 662.5V569.5L208.5 553L179 535V440L209 423.5L179 404V308.5ZM403.5 699.5V794L484.5 841L566.5 794V756.5L601 776.5L682 729.5L682.5 696.5L710.5 712L792 664.5L791.5 570.5L710.5 523L683.5 538.5V508.5L603 461L521 507.5V601.5L548 617.5L520 635L519.5 672L485 653.5L403.5 699.5Z" fill="white"/>
</svg>
