<svg width="24" height="24" viewBox="0 0 24 24" fill="none" xmlns="http://www.w3.org/2000/svg">
<g clip-path="url(#clip0_221_47)">
<path fill-rule="evenodd" clip-rule="evenodd" d="M12 24C18.6274 24 24 18.6274 24 12C24 5.37259 18.6274 0 12 0C5.37259 0 0 5.37259 0 12C0 18.6274 5.37259 24 12 24ZM9.98765 9.83951L12.0247 11L14.0247 9.83951V9.1358L14.6914 9.50617L15.5062 9.03704V9.96296L17.5185 11.1481L19.5556 9.97531L19.5185 7.62963L17.5185 6.48148L16.716 6.93827L16.6914 6.02469L14.7037 4.85185L13.9506 5.25926V4.41975L11.9383 3.25926L9.95062 4.40741L9.92593 6.75309L10.6173 7.14815L9.98765 7.50617V9.83951ZM4.41975 7.61728L6.41975 6.48148L8.44444 7.61728V9.98765L7.66667 10.4074L8.44444 10.8765V11.8272L9.25926 11.358L11.2469 12.4938L11.284 14.8519L9.27161 16.0123L8.45679 15.5309V16.3704L6.4321 17.5309L4.41975 16.358V14.0617L5.14815 13.6543L4.41975 13.2099V10.8642L5.16049 10.4568L4.41975 9.97531V7.61728ZM9.96296 17.2716V19.6049L11.963 20.7654L13.9877 19.6049V18.679L14.8395 19.1728L16.8395 18.0123L16.8519 17.1975L17.5432 17.5802L19.5556 16.4074L19.5432 14.0864L17.5432 12.9136L16.8765 13.2963V12.5556L14.8889 11.3827L12.8642 12.5309V14.8519L13.5309 15.2469L12.8395 15.679L12.8272 16.5926L11.9753 16.1358L9.96296 17.2716Z" fill="white"/>
</g>
<defs>
<clipPath id="clip0_221_47">
<rect width="24" height="24" fill="white"/>
</clipPath>
</defs>
</svg>
