<svg width="24" height="24" fill="none" xmlns="http://www.w3.org/2000/svg"><path fill-rule="evenodd" clip-rule="evenodd" d="M24 12c0-6.6-5.4-12-12-12S0 5.4 0 12s5.4 12 12 12 12-5.4 12-12ZM13.86 4.92002c1.2.06 2.58-.18 4.02-.78l.48-.12v.42s-.06 3-.24 5.16C17.94 11.16 17.28 13.02 16.26 15c-.54.96-1.14 1.92-1.8 2.82-.72.96-1.44 1.8-2.22 2.52l-.18.18-.18-.18c-.78-.72-1.5-1.56-2.21999-2.52-.66-.9-1.26-1.86-1.8-2.82-1.08-1.98-1.74-3.9-1.86-5.39998-.24-2.1-.24-5.1-.24-5.16v-.42l.42.12c1.44.6 2.82.84 4.01999.78.8395-.05247 1.3578-.24258 1.5951-.3296.034-.0125.0623-.02287.0849-.0304l.12-.06.18.06c.12.06.72.3 1.68.36Zm-1.86.18c-.3.12-.9.3-1.8.36-1.19999.06-2.51999-.12-3.89999-.6 0 .9 0 3.12.18 4.74H11.22c.1473 0 .2042 0 .2262-.02771.0138-.01746.0138-.04591.0138-.09229.135-.225.1688-.45.2025-.675.0113-.075.0225-.15.0375-.225 0-.12 0-.18-.06-.24-.0629-.09431-.0928-.13921-.1329-.15195-.0365-.01158-.0814.00339-.1671.03195h-.06c-.06.06-.06.12-.06.18 0 .12-.12.18-.18.18h-.24c-.24 0-.42-.12-.54-.3-.06-.06-.06-.12 0-.18.03-.03.075-.06.12-.09s.09-.06.12-.09c-.24-.06-.36-.24-.42-.42.0421-.08419.1137-.10931.1942-.13753.0342-.012.07-.02456.1058-.04247-.12-.12-.12-.24-.12-.42 0 0 0-.06.06-.06.06-.03.105-.045.15-.06s.09-.03.15-.06c-.06-.12-.06-.3 0-.42 0-.12.06-.12.12-.12h.3v-.12c.06-.18.12-.3.24-.36s.18-.06.24 0c.12.06.18.18.24.3 0 .02485.0103.04971.0224.07882.017.04118.0376.09088.0376.16118.06-.18.18-.24.36-.3.06 0 .06 0 .12.06s.12.18.12.3c0-.06.06-.06.06-.06.0249 0 .06-.0103.1012-.02236.0582-.01705.1285-.03764.1988-.03764 0 0 .06 0 .06.06.06.18.12.36 0 .54-.03.03-.045.06-.06.09s-.03.06-.06.09h.12c.18 0 .36 0 .48.12s.12.12.06.24c-.0371 0-.0512.02292-.0708.05459-.0121.01957-.0263.04249-.0492.06541l-.12.12c.18 0 .24.06.3.18.06.06.06.06 0 .12-.18.12-.36.24-.54.18h-.06c.06.12.06.18.06.24s-.06.06-.18.06v.12c-.18 0-.3 0-.42-.12-.12-.06-.12-.12-.12-.24 0-.06 0-.12-.12-.12v.06c-.06.12-.06.18-.06.3.06.06.06.18.06.24.06.3.06.54 0 .84v.12h5.4c.12-1.68.18-3.84.18-4.74-1.2.42-2.34.66-3.42.66h-.42c-.9 0-1.5-.24-1.8-.36ZM13.56 11.94c0 .66.54 1.2 1.2 1.2.66 0 1.2-.54 1.2-1.2 0-.66-.54-1.2-1.2-1.2-.66 0-1.2.54-1.2 1.2Zm-2.34 2.4c.06 0 .06-.06.06-.06.06 0 .06.06 0 .06-.03.06-.045.12-.06.18s-.03.12-.06.18c0 .12-.06.3-.12.42-.0424.0424-.0248.0549.0103.0797.0146.0103.0321.0227.0497.0403.06.03.12.045.18.06s.12.03.18.06h.06c.06-.06.12-.06.18 0 0 0 .06.06.12 0 0-.0371.0229-.0283.0546-.0162.0196.0075.0425.0162.0654.0162h.12c.0223-.0223.053-.0363.0858-.0513.0552-.0253.1165-.0534.1542-.1287h.06s.06 0 .06-.06.06-.06.12-.06h.06c.03-.06.06-.105.09-.15s.06-.09.09-.15c.12 0 .12-.06.12-.18 0-.03.015-.045.03-.06s.03-.03.03-.06.015-.045.03-.06.03-.03.03-.06v-.72c-.03-.03-.045-.06-.06-.09s-.03-.06-.06-.09c-.2316.0463-.4274.1284-.6427.2187-.0636.0266-.1289.054-.1973.0813.03-.03.075-.06.12-.09s.09-.06.12-.09l.06-.06c.06-.12.06-.18.06-.3s0-.24.12-.3c.06 0 .06-.06.06-.06.06-.06.06-.06.06-.12.06-.06.12-.12.12-.18s.06-.12.12-.18v-.06l.12-.12c-.12-.06-.18-.06-.24-.06 0-.03.015-.045.03-.06s.03-.03.03-.06.015-.045.03-.06.03-.03.03-.06c0 0 0-.06-.06-.06 0-.024.0192-.048.0384-.072.0288-.036.0576-.072.0216-.108-.0638-.0319-.1106-.0129-.1495.0029-.0343.0138-.0624.0252-.0905-.0029.0371 0 .0513-.0229.0708-.0546.0121-.0195.0263-.0425.0492-.0654-.1122 0-.2011.0467-.2958.0963-.0571.03-.1164.0611-.1842.0837.03-.06.06-.105.09-.15s.06-.09.09-.15c-.06 0-.06 0-.12.06l-.36.36c-.09.06-.18.135-.27.21-.09.075-.18.15-.27.21-.24.12-.36.36-.3.6v.24c0 .06-.06.06-.12.06-.06-.06-.12-.12-.18-.12s-.12 0-.18.06-.06.12 0 .18v.12c-.06-.06-.12-.12-.18-.12-.06-.06-.12-.06-.18-.06-.18 0-.35999.12-.47999.24-.031.031-.058.062-.08409.092-.07492.086-.14241.1635-.27591.208-.03 0-.06.015-.09.03s-.06.03-.09.03c-.12.06-.3.12-.48.18-.06.03-.12.045-.18.06s-.12.03-.18.06c.12 0 .24 0 .36-.06.06-.06.12-.12.24-.06-.09.06-.195.12-.30001.18-.10499.06-.20999.12-.29999.18.072.036.144.0072.216-.0216.048-.0192.096-.0384.144-.0384-.06.06-.12.12-.24.18.12.04.24-.0266.36-.0933.06-.0333.12-.0667.18-.0867l-.24.24c.07029 0 .12-.0206.16118-.0376.02911-.0121.05397-.0224.07882-.0224.06 0 .12-.06.18-.12-.03.03-.06.075-.09.12s-.06.09-.09.12c.06 0 .105-.03.15-.06s.09-.06.15-.06v.12c.07791.039.13052.0021.17427-.0286.02364-.0166.04468-.0314.06573-.0314 0 .06.12.12.18.06h.12c.03 0 .05999-.015.08999-.03s.06-.03.09-.03c.06.06.12.06.18 0s.12-.06.18-.06c.12 0 .3 0 .42.06.12 0 .24-.06.3-.18Zm.81-6.68998c-.03-.015-.06-.03-.09-.03.06.12.06.24.06.36.0161-.03215.0322-.06.0471-.08585.0408-.07061.0729-.1263.0729-.21415-.03 0-.06-.015-.09-.03Zm-.3.45c.03.015.06.03.09.06 0-.18 0-.3-.06-.3v-.06c-.06-.06-.12-.06-.18 0s-.06.12-.06.12c0 .03708.0229.05125.0546.07082.0196.0121.0425.02626.0654.04918.03.03.06.045.09.06ZM8.34001 14.82c1.02 1.86 2.27999 3.6 3.65999 4.92 1.38-1.32 2.64-3.06 3.54-4.92-.12-.06-.24-.06-.36-.06-.24-.06-.42-.06-.6-.06-.36-.06-.78-.06-1.2-.06-.06 0-.06 0-.12.12-.0223.0224-.0363.053-.0513.0858-.0253.0553-.0534.1166-.1287.1542-.0371 0-.0512.0229-.0708.0546-.0121.0196-.0263.0425-.0492.0654 0 .06 0 .06-.06.12l-.54.36c-.06.06-.18.12-.24.12-.12.06-.24.06-.36.06h-.48c-.06-.03-.135-.06-.21-.09-.075-.03-.15-.06-.21-.09-.24-.12-.42-.36-.3-.6.06-.06.06-.12.06-.18-.12 0-.3 0-.42.06-.18.06-.35999.12-.59999.12-.12-.06-.24-.06-.36-.06-.09 0-.18-.015-.27-.03-.09-.015-.18-.03-.27-.03-.06 0-.105-.015-.15-.03s-.09-.03-.15-.03h-.06Z" fill="#fff"/></svg>