<svg width="40" height="40" viewBox="0 0 40 40" fill="none" xmlns="http://www.w3.org/2000/svg">
<path fill-rule="evenodd" clip-rule="evenodd" d="M11.0824 31.9534C7.44354 29.234 5.08777 24.8924 5.08777 20C5.08777 11.7642 11.7644 5.08777 19.9998 5.08777C26.797 5.08777 34.2198 9.14987 36.0148 15.3709C34.0093 8.41897 27.5993 3.33337 20.0002 3.33337C10.7955 3.33337 3.33337 10.7955 3.33337 20C3.33337 29.205 10.7955 36.6667 19.9998 36.6667C29.2048 36.6667 36.6667 29.205 36.6667 20V19.1227H35.7507L35.6288 19.121C34.9572 19.1089 34.286 19.0739 33.6168 19.016C32.3665 18.9074 30.9402 18.6954 29.969 18.3074C28.4065 17.6832 27.5242 16.8559 26.5158 15.8878L26.4577 15.8316C25.4477 14.8618 24.3132 13.772 22.3468 12.8467C20.4102 11.9351 18.2683 12.0814 16.6942 12.4053C16.025 12.5439 15.3669 12.7301 14.7244 12.9625C14.481 13.0506 14.2861 13.1292 14.1493 13.1867C13.3572 13.52 12.5885 13.9148 11.8111 14.2807C11.8111 14.2807 13.3365 14.699 14.0904 14.9327C14.2924 14.9974 14.492 15.0696 14.6886 15.1492C15.1894 15.3503 15.6706 15.5969 16.1265 15.8861C16.94 16.4088 17.6145 17.067 17.8912 17.875C16.1642 18.102 14.5442 18.8605 13.3326 19.573C12.7192 19.9344 12.127 20.3309 11.5589 20.76C11.3447 20.9225 11.1746 21.0584 11.0575 21.155C10.9586 21.2365 9.39886 22.6112 9.39886 22.6112C9.39886 22.6112 11.4109 22.8252 12.4041 23.0252C13.0643 23.1585 13.9547 23.3727 14.8836 23.6965C15.8167 24.022 16.7595 24.4489 17.5417 24.9949C18.3258 25.5422 18.8998 26.1744 19.1827 26.8985C20.0083 29.0074 19.1985 31.0615 17.573 32.2169C15.9669 33.3585 13.5244 33.6302 11.0824 31.9534ZM16.7692 34.5615C17.4185 34.3509 18.0323 34.0425 18.5892 33.6472C20.8015 32.0744 21.9655 29.1944 20.8168 26.2594C20.3657 25.1064 19.5033 24.2242 18.546 23.556C17.5868 22.8867 16.4829 22.3965 15.4619 22.0404C14.8416 21.8254 14.2111 21.641 13.5728 21.4877C13.7859 21.3485 14.0022 21.2142 14.2216 21.085C15.572 20.2909 17.2723 19.5615 18.903 19.5615C21.361 19.5615 23.1917 20.3159 24.9393 21.125C25.0982 21.1985 25.2577 21.2734 25.418 21.3484C26.9798 22.0815 28.62 22.8509 30.5258 22.8509C32.3738 22.8509 33.8135 22.3282 34.8057 21.7877C33.9227 29.181 27.631 34.9124 19.9998 34.9124C18.8907 34.9124 17.8095 34.7914 16.7692 34.5615ZM32.9105 20.7107C32.2535 20.9349 31.457 21.0965 30.526 21.0965C29.0312 21.0965 27.7467 20.4975 26.1158 19.7374L25.6767 19.5329C24.0442 18.7769 22.155 17.9754 19.6958 17.8302C19.3663 16.2021 18.1318 15.0899 17.0752 14.4102C16.9595 14.3359 16.8423 14.2642 16.7235 14.1951C16.8288 14.1706 16.9375 14.146 17.0475 14.1235C18.4677 13.8313 20.164 13.7583 21.6 14.4341C23.3045 15.2362 24.266 16.1596 25.2665 17.1204L25.3008 17.1534C26.33 18.1417 27.419 19.1779 29.3182 19.9365C30.3735 20.3579 31.7392 20.5845 32.9105 20.7107Z" fill="white"/>
</svg>
