<svg width="40" height="40" viewBox="0 0 40 40" fill="none" xmlns="http://www.w3.org/2000/svg">
<path d="M21.7188 9.04169L22.5728 3.53127C21.729 3.39586 20.8645 3.33337 19.9998 3.33337H19.9895V14.5833H19.9998C20.4792 14.5833 20.9373 14.6458 21.3958 14.7604L22.8542 9.28126C22.479 9.17709 22.104 9.10417 21.7188 9.04169ZM17.2915 15.3124L14.4791 10.4896C14.1666 10.6771 13.8333 10.8854 13.5312 11.1146L10.1875 6.53127C10.8854 6.01042 11.6354 5.55211 12.4062 5.15629L14.9583 10.125C15.4791 9.86459 16 9.63542 16.5519 9.45836L14.8229 4.14586C15.6529 3.87827 16.5029 3.67627 17.3645 3.54169L18.2603 9.14584C17.8853 9.19792 17.5103 9.28126 17.1353 9.38544L18.5937 14.7708C18.1355 14.8854 17.698 15.0729 17.2915 15.3124ZM5.13542 12.4479L10.1979 15.0208C9.93751 15.5416 9.70834 16.0625 9.53127 16.6147L4.13546 14.8646C4.40629 14.0313 4.73961 13.2292 5.13542 12.4479ZM29.5103 14.4792L24.6875 17.2915C24.9272 17.698 25.104 18.125 25.229 18.5834L30.6147 17.125C30.7187 17.4999 30.802 17.8749 30.854 18.25L36.4582 17.3645C36.3227 16.5 36.1145 15.6459 35.8437 14.8125L30.5312 16.552C30.3645 16 30.1353 15.4687 29.875 14.9479L34.8333 12.3958C34.4373 11.625 33.979 10.875 33.4685 10.1771L28.8853 13.5208C29.1145 13.8333 29.3228 14.1458 29.5103 14.4792ZM25.125 4.13546C25.9582 4.40629 26.7707 4.73961 27.5417 5.13542L24.9687 10.1875C24.4583 9.92709 23.927 9.70834 23.3855 9.53127L25.125 4.13546ZM25.5312 10.3854L22.6978 15.3022C23.1145 15.5416 23.4895 15.8228 23.823 16.1667L31.7603 8.19794C31.1457 7.57292 30.479 7.01042 29.7812 6.50001L26.5 11.0208C26.1873 10.7917 25.8645 10.5833 25.5312 10.3958V10.3854ZM15.3022 17.302L10.3854 14.4688C10.5833 14.1354 10.802 13.8125 11.0208 13.5L6.50001 10.2188C7.02086 9.51044 7.58336 8.84377 8.19794 8.23961L16.1667 16.1772C15.8332 16.5104 15.5416 16.8854 15.3022 17.302ZM9.28126 17.1457L14.7604 18.604C14.6458 19.052 14.5833 19.5209 14.5833 19.9999H3.33337C3.33337 19.1354 3.39586 18.2604 3.54169 17.4167L9.04169 18.2709C9.10417 17.8959 9.18752 17.5104 9.28126 17.1457ZM29.802 24.9792L34.8643 27.5522C35.2603 26.7707 35.5935 25.9582 35.8645 25.1355L30.4688 23.3855C30.2915 23.927 30.0623 24.4687 29.802 24.9792ZM22.7187 24.6875L25.5105 29.5104C25.8437 29.3229 26.1667 29.1145 26.4685 28.8854L29.8125 33.4685C29.1145 33.9894 28.3643 34.4479 27.5937 34.8439L25.0417 29.875C24.5207 30.1354 23.9998 30.3645 23.4375 30.5417L25.177 35.8542C24.3438 36.1145 23.4895 36.3227 22.6248 36.4582L21.7395 30.854C22.1145 30.802 22.4895 30.7187 22.8645 30.6147L21.4062 25.229C21.8647 25.104 22.3022 24.9272 22.7083 24.6875H22.7187ZM10.4896 25.5207L15.3124 22.7084C15.0729 22.3124 14.8958 21.8749 14.7708 21.4167L9.38544 22.875C9.28126 22.5 9.19792 22.125 9.14584 21.7499L3.54169 22.6354C3.67711 23.4999 3.88544 24.354 4.15629 25.1875L9.46876 23.4479C9.64584 23.9999 9.86459 24.5312 10.125 25.052L5.16669 27.6042C5.56252 28.3749 6.02086 29.125 6.53127 29.8227L11.1145 26.479C10.8854 26.1667 10.6771 25.8542 10.4896 25.5207ZM14.875 35.8645C14.0416 35.5935 13.2291 35.2604 12.4583 34.8644L15.0208 29.8125C15.5416 30.0729 16.0729 30.2915 16.6147 30.4689L14.875 35.8645ZM14.4687 29.6145L17.302 24.698C16.8853 24.4584 16.5104 24.177 16.1772 23.8435L8.23961 31.8124C8.85417 32.4167 9.52084 32.9895 10.2187 33.4999L13.5 28.9895C13.8125 29.2084 14.1354 29.4167 14.4687 29.6145ZM24.698 22.6979L29.604 25.5312C29.4167 25.875 29.2083 26.1979 28.9792 26.5104L33.4895 29.7812C32.979 30.4895 32.4167 31.1562 31.802 31.7709L23.8333 23.823C24.1667 23.4895 24.4583 23.1145 24.698 22.6979ZM18.604 25.2395L17.1457 30.7187C17.5208 30.8229 17.8958 30.8959 18.2813 30.9584L17.427 36.4685C18.2708 36.604 19.1353 36.6667 19.9998 36.6667H20.0103V25.4167H19.9998C19.5313 25.4167 19.0625 25.3542 18.604 25.2395ZM25.2395 21.3959C25.3542 20.9479 25.4167 20.4792 25.4167 19.9999H36.6667C36.6667 20.8645 36.604 21.7395 36.4582 22.5834L30.9583 21.729C30.8958 22.104 30.8125 22.4895 30.7187 22.8542L25.2395 21.3959Z" fill="white"/>
</svg>
