<svg width="24" height="24" viewBox="0 0 24 24" fill="none" xmlns="http://www.w3.org/2000/svg">
<path fill-rule="evenodd" clip-rule="evenodd" d="M5.5823 20.603C2.95989 18.6445 1.26694 15.5187 1.26694 11.9945C1.26694 6.06362 6.07469 1.25588 12.0055 1.25588C16.9018 1.25588 22.2407 4.18257 23.5353 8.65837C22.0858 3.66252 17.4716 0 12 0C5.37206 0 0 5.37206 0 12C0 18.6279 5.37206 24 12 24C18.6279 24 24 18.6279 24 12V11.3693H23.3416C23.3195 11.3693 23.2918 11.3693 23.2531 11.3693C23.1757 11.3693 23.065 11.3638 22.9212 11.3582C22.639 11.3472 22.2462 11.3306 21.8036 11.2918C20.9018 11.2144 19.8783 11.0595 19.1757 10.7829C18.0526 10.3347 17.4163 9.73721 16.6916 9.04011L16.6473 9.00138C15.9225 8.30429 15.1037 7.51867 13.6874 6.85477C12.2932 6.19641 10.7497 6.30152 9.61549 6.53942C9.04011 6.6556 8.54772 6.81604 8.19917 6.94329C8.02213 7.00415 7.88382 7.06501 7.78423 7.10374C7.21438 7.34163 6.66113 7.62932 6.10235 7.88935C6.10235 7.88935 7.19779 8.18811 7.7455 8.35961C7.76763 8.36515 7.7953 8.37621 7.83402 8.38728C7.91701 8.41494 8.03319 8.45367 8.17151 8.51452C8.4592 8.63071 8.83541 8.80775 9.20609 9.04564C9.79253 9.42185 10.2794 9.89765 10.4786 10.4786C9.23375 10.6445 8.06639 11.1867 7.19779 11.7012C6.66667 12.0111 6.2296 12.3209 5.91978 12.5533C5.76487 12.6694 5.64315 12.769 5.56017 12.8354C5.48824 12.8963 4.36514 13.8811 4.36514 13.8811C4.36514 13.8811 5.81466 14.036 6.52835 14.1798C7.00415 14.2739 7.64592 14.4288 8.31535 14.6611C8.98479 14.8935 9.66528 15.2033 10.2296 15.5961C10.7939 15.9889 11.2089 16.4481 11.4136 16.9682C12.0055 18.4841 11.4246 19.9668 10.2517 20.7967C9.09544 21.6155 7.34163 21.8091 5.5823 20.603ZM9.67635 22.4841C10.1466 22.3292 10.5892 22.1079 10.9876 21.8257C12.5809 20.6916 13.4163 18.6224 12.592 16.509C12.2656 15.6791 11.6459 15.0429 10.9544 14.5615C10.2628 14.0802 9.47165 13.7261 8.73582 13.4716C8.2545 13.3057 7.78423 13.1729 7.37483 13.0733C7.51867 12.9793 7.67358 12.8797 7.83956 12.7856C8.81328 12.2158 10.036 11.6902 11.2089 11.6902C12.9793 11.6902 14.296 12.2324 15.5574 12.8133C15.6736 12.8686 15.7842 12.9184 15.9004 12.9737C17.0235 13.4993 18.2075 14.0581 19.5795 14.0581C20.9129 14.0581 21.9474 13.6819 22.6611 13.2946C22.0249 18.6169 17.4938 22.7441 12 22.7441C11.2033 22.7331 10.4232 22.6445 9.67635 22.4841ZM21.2946 12.509C20.8243 12.6694 20.249 12.7856 19.5795 12.7856C18.5007 12.7856 17.5768 12.3541 16.4039 11.8064C16.2988 11.7566 16.1936 11.7068 16.0885 11.657C14.9156 11.1148 13.5546 10.5339 11.7842 10.4288C11.5463 9.25588 10.6556 8.45367 9.89765 7.96681C9.81466 7.91148 9.72614 7.86169 9.64315 7.8119C9.72061 7.7953 9.79806 7.7787 9.87552 7.7621C10.899 7.55187 12.1217 7.49654 13.1508 7.9834C14.379 8.55878 15.0705 9.22822 15.7898 9.91978L15.8119 9.94191C16.5532 10.6556 17.3389 11.397 18.7054 11.9447C19.4689 12.2545 20.4537 12.4205 21.2946 12.509Z" fill="white"/>
</svg>
