<svg width="24" height="24" viewBox="0 0 24 24" fill="none" xmlns="http://www.w3.org/2000/svg">
<g clip-path="url(#clip0_2276_8214)">
<path fill-rule="evenodd" clip-rule="evenodd" d="M24 12C24 18.6274 18.6274 24 12 24C5.37258 24 0 18.6274 0 12C0 5.37258 5.37258 0 12 0C18.6274 0 24 5.37258 24 12ZM10.7553 2.28775C11.0503 1.91845 12.1202 1.13901 13.2033 2.39218L13.2033 6.80483C13.2033 7.75531 12.8021 8.77865 11.8559 8.68831C11.7138 8.67474 11.5741 8.64723 11.4436 8.60544C11.0314 8.47342 10.8289 8.05928 10.7884 7.62832C10.6615 6.2766 10.6043 3.28514 10.6718 2.51418C10.6791 2.43109 10.7032 2.35292 10.7553 2.28775ZM16.7113 3.46638C16.4219 3.1507 16.0017 2.7611 15.5385 2.41369L15.5385 6.82634V7.27052C15.5385 7.63976 15.5519 8.0643 15.8676 8.25572C15.9994 8.33559 16.158 8.38017 16.3228 8.36782C16.7544 8.33546 16.9584 7.8603 17.0078 7.43027C17.0971 6.65242 17.1458 5.38658 17.1306 4.59021C17.1227 4.17323 16.9932 3.77381 16.7113 3.46638ZM5.02397 4.86133C4.57721 5.1964 4.23969 5.5707 4.01006 5.88009C3.76151 6.21499 3.63068 6.62119 3.63638 7.03821C3.63997 7.30056 3.66543 7.57556 3.70767 7.8218C3.78084 8.24843 4.00887 8.75273 4.44171 8.74905C4.54591 8.74817 4.64222 8.71477 4.72583 8.65889C5.02448 8.45926 5.02421 8.04237 5.02397 7.6799L5.02396 7.64973V7.20555L5.02397 4.86133ZM18.71 4.86133C19.1568 5.1964 19.4943 5.5707 19.7239 5.88009C19.9725 6.21499 20.1033 6.62119 20.0976 7.03821C20.094 7.30056 20.0686 7.57556 20.0263 7.8218C19.9531 8.24843 19.7251 8.75273 19.2923 8.74905C19.1881 8.74817 19.0918 8.71477 19.0082 8.65889C18.7095 8.45926 18.7098 8.04237 18.71 7.6799L18.71 7.64973V7.20555L18.71 4.86133ZM8.37697 2.41369C7.91375 2.7611 7.49353 3.1507 7.20412 3.46638C6.92229 3.77381 6.79278 4.17323 6.78484 4.59021C6.76969 5.38658 6.81833 6.65242 6.90765 7.43027C6.95703 7.8603 7.16104 8.33546 7.59269 8.36782C7.75745 8.38017 7.91609 8.33559 8.04785 8.25572C8.36359 8.0643 8.37696 7.63976 8.37696 7.27052V6.82634L8.37697 2.41369ZM2.11501 13.7406C1.92313 12.5109 2.00096 11.318 2.13354 10.4822C2.20774 10.0145 2.63912 9.71054 3.11166 9.74247L4.04637 9.80563C4.51621 9.83737 4.89929 10.197 4.97616 10.6616C6.00093 16.8551 7.09313 13.8298 7.6391 10.8793C7.729 10.3935 8.14684 10.0324 8.64092 10.0324H15.1876C15.6704 10.0324 16.0835 10.383 16.1803 10.856C17.4318 16.9734 18.4738 13.6687 18.9438 10.5946C19.0152 10.1271 19.3921 9.76258 19.8634 9.72275L20.8398 9.64024C21.2412 9.60632 21.6341 9.81405 21.7586 10.1972C22.1703 11.4639 21.9865 12.9051 21.7173 13.9437C21.546 14.6047 21.166 15.202 20.6067 15.5937C18.2636 17.2343 15.9368 16.1053 14.9869 15.238C12.0419 11.7966 10.3991 13.6277 9.11345 15.0607C9.05968 15.1206 9.00654 15.1798 8.95395 15.238C6.79373 17.1581 4.59178 16.5146 3.24281 15.5987C2.618 15.1745 2.23145 14.4868 2.11501 13.7406Z" fill="white"/>
</g>
<defs>
<clipPath id="clip0_2276_8214">
<rect width="24" height="24" fill="white"/>
</clipPath>
</defs>
</svg>
