<svg width="40" height="40" viewBox="0 0 40 40" fill="none" xmlns="http://www.w3.org/2000/svg">
<path fill-rule="evenodd" clip-rule="evenodd" d="M20 38.5C30.2173 38.5 38.5 30.2173 38.5 20C38.5 9.78273 30.2173 1.5 20 1.5C9.78273 1.5 1.5 9.78273 1.5 20C1.5 24.59 3.17157 28.7895 5.93917 32.0231L5.93712 32.025C5.97897 32.0721 6.01953 32.1176 6.05891 32.1616C6.26243 32.3948 6.4717 32.6227 6.68651 32.8453C6.82797 32.9933 6.95826 33.1241 7.09057 33.2513C7.50617 33.6562 7.94075 34.0418 8.39284 34.4065C8.39688 34.41 8.40093 34.4135 8.40499 34.417C11.5771 36.9714 15.6102 38.5 20 38.5ZM8.40499 34.417L17.437 24.1447L18.5013 23.8749L19.366 29.6766C19.755 30.3088 19.9962 30.3131 20.4635 29.7441L21.2617 24.482L29.2105 30.4187C29.9733 30.6641 30.1687 30.5018 30.0752 29.6429L24.1552 21.5474L29.3103 20.839C29.8207 20.376 29.8096 20.1261 29.4101 19.6922L24.1552 18.8152L30.175 10.5847C30.1518 9.89457 29.946 9.72454 29.1772 9.87635L21.2617 15.8805L20.4635 10.5847C20.0363 10.1632 19.7993 10.1516 19.3993 10.5847L18.5346 15.8805L10.4528 9.87635C9.88364 9.8541 9.73838 10.025 9.72107 10.5847L15.7076 18.8152L10.353 19.6922C10.0687 20.1698 10.0919 20.3985 10.4528 20.7378L16.3062 21.6486L15.9071 22.9978L5.93917 32.0231C5.97886 32.0695 6.01877 32.1157 6.05891 32.1616C6.30509 32.4371 6.505 32.6554 6.68651 32.8453C6.81911 32.9827 6.95381 33.118 7.09057 33.2513C7.41101 33.5593 7.74328 33.846 8.27484 34.3047C8.31311 34.3377 8.35243 34.3716 8.39284 34.4065C8.39688 34.41 8.40093 34.4135 8.40499 34.417Z" fill="white"/>
</svg>
