<svg width="24" height="24" viewBox="0 0 24 24" fill="none" xmlns="http://www.w3.org/2000/svg">
<path d="M21.9429 18.0983C21.9463 17.5616 23.9981 17.5842 23.9841 17.0816C23.9741 16.6947 23.0659 16.7039 23.3513 15.8845C23.7713 14.6629 24 13.3515 24 11.9878C24 5.36699 18.6273 0 12 0C5.37268 0 0 5.36699 0 11.9873C0 13.3558 0.230169 14.6701 0.653506 15.8955C0.655908 15.9013 0.679454 15.9709 0.679454 15.9709C0.850038 16.5143 0.00240259 16.7274 0.00240259 17.0519C0.00240259 17.5602 1.78753 17.4916 1.78753 18.0834C1.78753 18.5985 0.0225844 18.7573 0.0225844 19.2772C0.0225844 19.9953 3.93161 19.7452 3.9811 20.363C4.01954 20.8396 2.63709 20.8679 2.6294 21.3772C2.61595 22.1899 7.9646 21.924 7.9646 22.4649C7.9646 22.8739 5.53173 22.7265 5.53173 23.2099C5.53173 23.6933 8.73439 24 12.2628 24C15.7913 24 18.2266 23.6078 18.2266 23.184C18.2266 22.7601 15.9552 22.848 16.0013 22.4649C16.0839 21.7977 21.1255 22.139 21.1255 21.3671C21.1255 20.9601 19.7388 20.8655 19.7839 20.4268C19.8474 19.8066 24 19.8993 24 19.2556C24 18.7497 21.9429 18.6253 21.9453 18.1002L21.9429 18.0978V18.0983ZM18.7253 16.5416C18.6158 16.9506 19.8796 17.0115 19.8796 17.4387C19.8796 17.9586 16.0248 17.7512 16.0633 18.4386C16.0868 18.8716 18.8022 18.9445 18.7503 19.3967C18.6759 20.0514 14.5458 19.7246 14.5049 20.3514C14.4756 20.8113 16.5202 20.8271 16.525 21.2467C16.5284 21.5995 14.9182 21.7924 11.8352 21.7924C8.32211 21.7924 6.61482 21.6033 6.80895 21.2087C6.99059 20.8401 10.1005 20.9087 10.0693 20.3294C10.0376 19.75 4.54667 19.9214 4.38089 19.3597C4.24298 18.8932 6.18524 18.7972 6.17275 18.3541C6.16025 17.902 3.68558 18.0047 3.63128 17.458C3.5962 17.0984 4.92436 17.1219 4.8667 16.6703C4.82489 16.341 4.27662 16.3875 3.95131 15.7098C3.42658 14.5769 3.13202 13.3164 3.13202 11.9878C3.13202 7.09646 7.10063 3.13206 11.9971 3.13206C16.8936 3.13206 20.8622 7.09646 20.8622 11.9878C20.8622 13.194 20.6205 14.3436 20.1828 15.392C19.7661 16.3342 18.8287 16.1451 18.7225 16.5416H18.7249H18.7253Z" fill="white"/>
</svg>
