<svg width="24" height="24" viewBox="0 0 24 24" fill="none" xmlns="http://www.w3.org/2000/svg">
<path d="M21.9435 18.0984C21.9468 17.5618 23.9981 17.5848 23.9841 17.0818C23.976 16.7827 23.4311 16.7203 23.3167 16.3277C23.2975 16.2552 23.2913 16.1717 23.3038 16.0742C23.3119 16.0162 23.3268 15.9538 23.3508 15.8851C23.7713 14.663 24 13.3526 24 11.988C24 5.36688 18.6275 0 12 0C5.37247 0 0 5.36688 0 11.9875C0 13.3435 0.226315 14.6467 0.641948 15.8626C0.64435 15.8741 0.648194 15.8856 0.652519 15.8976C0.664531 15.9293 0.674141 15.959 0.683271 15.9883C0.831265 16.5197 0.0024025 16.7314 0.0024025 17.0525C0.0024025 17.5603 1.78746 17.4926 1.78746 18.0835C1.78746 18.5981 0.022103 18.7579 0.022103 19.2778C0.022103 19.9954 3.93145 19.7458 3.98046 20.363C4.01842 20.8397 2.6365 20.8685 2.62785 21.3778C2.6144 22.1909 7.96284 21.9245 7.96284 22.4654C7.96284 22.8749 5.53007 22.7266 5.53007 23.2104C5.53007 23.6942 8.7326 24 12.2619 24C15.7911 24 18.2258 23.6083 18.2258 23.1835C18.2258 22.7587 15.9536 22.847 16.0006 22.465C16.0823 21.7978 21.1247 22.139 21.1247 21.3667C21.1247 20.9602 19.7375 20.8646 19.7827 20.4259C19.8461 19.8062 23.9981 19.8979 23.9981 19.2542C23.9981 18.7478 21.9401 18.624 21.9435 18.0984ZM16.5672 21.1291C16.5672 21.4834 14.9584 21.6446 11.8712 21.6446C9.34668 21.6446 6.83895 21.4862 6.83895 21.0744C6.83895 20.6626 9.83006 20.6256 11.8861 20.629C14.6245 20.6338 16.5672 20.7605 16.5672 21.1286V21.1291ZM12 3.13104C15.7854 3.13104 19.0158 5.5008 20.2872 8.83632C20.4342 9.2688 19.9009 9.2424 19.5251 9.2424H18.5031C17.7732 9.2424 16.8545 9.32976 16.8545 9.52944C16.8545 9.78 19.0854 9.76512 19.3315 9.76512C20.0513 9.76512 20.6154 9.81936 20.697 10.2605C20.8076 10.8192 20.8662 11.3966 20.8662 11.988C20.8662 13.176 20.6312 14.3088 20.2065 15.3437C20.0686 15.648 19.8874 15.8054 19.6678 15.9379C18.6131 16.524 16.6998 16.4189 16.7002 16.7722C16.7002 17.2853 19.9215 17.0659 19.9263 17.5118C19.9335 18.193 14.1786 17.7888 14.1791 18.4022C14.1795 19.0109 18.8087 18.7272 18.8087 19.3651C18.8087 19.6858 17.322 19.8038 15.7008 19.8446C13.183 19.8778 8.73116 19.8586 7.05374 19.801C7.05374 19.801 7.0547 19.8019 7.05566 19.8029C5.92072 19.7621 4.95443 19.6075 4.57532 19.4443C4.47105 19.3992 4.46624 19.2725 4.56619 19.2211C5.71314 18.6317 12.7135 19.1011 12.7135 18.4162C12.7135 17.7312 5.79675 18.2059 5.80203 17.6112C5.80588 17.1888 8.82438 17.2258 11.2182 17.2258C14.3189 17.2258 15.2708 17.0707 15.2693 16.8475C15.2669 16.3982 11.4561 16.6618 11.4421 16.1582C11.4287 15.6696 17.4734 16.0262 17.4734 15.5477C17.4734 15.2434 14.8474 15.215 12.222 15.2246C9.59606 15.2347 6.97061 15.239 6.97061 15.5645C6.97061 15.9326 10.0785 15.7896 10.0785 16.1582C10.0785 16.4491 8.37079 16.5096 6.58717 16.5096C5.41043 16.5096 4.49748 16.4203 4.05013 15.8659C4.01313 15.8203 3.97614 15.7536 3.94634 15.6936C3.42692 14.5656 3.1343 13.3114 3.1343 11.988C3.1343 7.0968 7.10371 3.13152 12 3.13152V3.13104Z" fill="white"/>
<path d="M11.8519 13.904C14.7128 13.904 17.4985 13.9454 17.4992 13.6257C17.4999 13.2387 13.5043 13.2841 11.4285 13.2841C9.78221 13.2841 6.83093 13.2326 6.83093 13.6002C6.83093 13.9677 10.1354 13.904 11.8519 13.904Z" fill="white"/>
<path d="M13.7001 12.8056C15.5811 12.8056 16.5228 12.7837 16.5228 12.5569C16.5228 12.2289 13.9621 12.4107 13.9621 12.086C13.9621 11.8005 15.58 11.9607 15.58 11.654C15.58 11.4128 13.7681 11.4351 12.7803 11.4351C11.6848 11.4351 10.6066 11.4765 10.6066 11.6817C10.6066 11.9481 13.3678 11.7984 13.3678 12.0712C13.3678 12.4615 8.98694 12.1796 8.98694 12.5565C8.98694 12.9133 11.8345 12.8053 13.7001 12.8053V12.8056Z" fill="white"/>
<path d="M15.5455 11.0622C15.9484 11.0622 17.1303 11.037 17.1303 10.8754C17.1303 10.7137 16.2547 10.6615 15.3447 10.6626C14.7193 10.6633 13.4446 10.6734 13.4446 10.8563C13.4446 11.0392 14.4123 11.0626 15.5455 11.0622Z" fill="white"/>
<path d="M16.2269 11.659C16.2269 11.812 16.9026 11.875 17.4214 11.875C17.7209 11.875 18.2922 11.8128 18.2922 11.6914C18.2922 11.5446 17.7058 11.4996 17.349 11.4949C16.8868 11.4888 16.2273 11.5273 16.2273 11.659H16.2269Z" fill="white"/>
</svg>
