<svg width="24" height="24" viewBox="0 0 24 24" fill="none" xmlns="http://www.w3.org/2000/svg">
<path d="M12.0011 21C13.6798 21.0023 15.3 20.3841 16.5505 19.2641H7.45166C8.70211 20.3841 10.3224 21.0023 12.0011 21Z" fill="white"/>
<path d="M12.0011 3C8.2284 3 5.17005 6.05835 5.17005 9.8312V14.1688C5.169 15.1311 5.3718 16.0826 5.7651 16.9608C6.15835 17.8391 6.7332 18.624 7.45175 19.2641V9.8312C7.45175 8.6246 7.93105 7.46745 8.7842 6.61425C9.6374 5.76105 10.7945 5.28175 12.0011 5.28175C13.2077 5.28175 14.3649 5.76105 15.2181 6.61425C16.0712 7.46745 16.5506 8.6246 16.5506 9.8312V19.2641C17.2691 18.624 17.8439 17.8391 18.2372 16.9608C18.6305 16.0826 18.8333 15.1311 18.8322 14.1688V9.8312C18.8322 6.05835 15.7739 3 12.0011 3Z" fill="white"/>
<path d="M12.0011 12.6229C12.0011 11.8835 12.2949 11.1743 12.8177 10.6515C13.3406 10.1286 14.0497 9.83491 14.7891 9.83491C14.0497 9.83491 13.3406 9.54116 12.8177 9.01831C12.2949 8.49546 12.0011 7.78631 12.0011 7.04691C12.0011 7.41301 11.929 7.77556 11.7889 8.11381C11.6488 8.45206 11.4434 8.75941 11.1845 9.01831C10.9256 9.27721 10.6183 9.48256 10.28 9.62266C9.94178 9.76276 9.57923 9.83491 9.21313 9.83491C9.57923 9.83491 9.94178 9.90701 10.28 10.0471C10.6183 10.1872 10.9256 10.3926 11.1845 10.6515C11.4434 10.9104 11.6488 11.2177 11.7889 11.556C11.929 11.8942 12.0011 12.2568 12.0011 12.6229Z" fill="white"/>
</svg>
