<svg width="24" height="24" viewBox="0 0 24 24" fill="none" xmlns="http://www.w3.org/2000/svg">
<g clip-path="url(#clip0_181_34)">
<mask id="mask0_181_34" style="mask-type:luminance" maskUnits="userSpaceOnUse" x="0" y="0" width="24" height="24">
<path d="M24 0H0V24H24V0Z" fill="white"/>
</mask>
<g mask="url(#mask0_181_34)">
<path fill-rule="evenodd" clip-rule="evenodd" d="M24 12C24 18.6274 18.6274 24 12 24C5.37258 24 0 18.6274 0 12C0 5.37258 5.37258 0 12 0C18.6274 0 24 5.37258 24 12ZM18.7795 13.3357C18.4799 13.8102 18.1359 14.246 17.7513 14.6397L17.7476 14.6432C19.1419 15.4235 20 16.4886 20 17.659C20 20.0527 16.4124 22 12 22C7.58761 22 4 20.0527 4 17.659C4 16.5132 4.82478 15.4692 6.16736 14.6924C5.77161 14.2917 5.41655 13.8418 5.10957 13.3497C4.38835 12.1933 4.02589 10.8612 4.02589 9.49736C4.02589 8.13357 4.38465 6.87873 5.10957 5.72935C5.83449 4.57996 6.80351 3.6696 8.02034 3.00176C9.23717 2.33392 10.5687 2 11.9741 2C13.3796 2 14.6889 2.33392 15.8983 3.00176C17.1077 3.6696 18.0693 4.57997 18.7869 5.73638C19.5044 6.88928 19.8632 8.17575 19.8632 9.55009C19.8632 10.9244 19.5007 12.1863 18.7795 13.3357ZM5.0356 17.6555C5.0356 18.3093 5.46833 18.9525 6.26352 19.5149C6.10818 19.2232 6.02681 18.9209 6.02681 18.6046C6.02681 17.6169 6.8405 16.7276 8.1202 16.1301C8.10171 16.1195 8.08229 16.1098 8.06288 16.1002C8.04346 16.0905 8.02404 16.0808 8.00555 16.0703C7.63199 15.8629 7.28433 15.6344 6.95516 15.3814C6.93936 15.3878 6.92494 15.3955 6.91105 15.403C6.90218 15.4078 6.89353 15.4124 6.88488 15.4165C5.69394 16.0562 5.0356 16.8506 5.0356 17.6555ZM9.20018 19.7504C9.20018 20.1371 10.1914 20.8858 12.0074 20.8858C13.8234 20.8858 14.8146 20.1371 14.8146 19.7504C14.8146 19.3638 13.8234 18.6151 12.0074 18.6151C10.1914 18.6151 9.20018 19.3638 9.20018 19.7504ZM15.8465 19.7504C15.8465 19.8383 15.8354 19.9227 15.8169 20.007C16.5196 19.6098 16.9561 19.1178 16.9561 18.6046C16.9561 17.8172 15.9242 17.0721 14.4743 16.6608C13.6496 16.9279 12.7841 17.0615 11.8779 17.0615C11.031 17.0615 10.221 16.9385 9.44059 16.6889C8.04623 17.1072 7.05871 17.8313 7.05871 18.6046C7.05871 19.1178 7.49515 19.6098 8.19787 20.007C8.17938 19.9227 8.16828 19.8383 8.16828 19.7504C8.16828 18.587 9.89182 17.638 12.0074 17.638C14.123 17.638 15.8465 18.5835 15.8465 19.7504ZM17.988 18.6046C17.988 18.9209 17.9066 19.2267 17.7513 19.5149C18.5502 18.9525 18.9792 18.3058 18.9792 17.6555C18.9792 16.8506 18.3209 16.0562 17.1299 15.4165C17.104 15.4025 17.0772 15.3893 17.0504 15.3761C17.0236 15.3629 16.9968 15.3497 16.9709 15.3357C16.6306 15.6028 16.2607 15.8453 15.865 16.0598C15.8558 16.065 15.8465 16.0694 15.8373 16.0738C15.828 16.0782 15.8188 16.0826 15.8095 16.0879C17.1373 16.6889 17.988 17.5923 17.988 18.6046Z" fill="white"/>
</g>
</g>
<defs>
<clipPath id="clip0_181_34">
<rect width="24" height="24" fill="white"/>
</clipPath>
</defs>
</svg>
