<svg width="24" height="24" viewBox="0 0 24 24" fill="none" xmlns="http://www.w3.org/2000/svg">
<g clip-path="url(#clip0_336_617)">
<mask id="mask0_336_617" style="mask-type:luminance" maskUnits="userSpaceOnUse" x="0" y="0" width="24" height="24">
<path d="M24 0H0V24H24V0Z" fill="white"/>
</mask>
<g mask="url(#mask0_336_617)">
<path d="M12 24C18.6274 24 24 18.6274 24 12C24 5.37257 18.6274 0 12 0C5.37257 0 0 5.37257 0 12C0 18.6274 5.37257 24 12 24Z" fill="#020202"/>
<path d="M12.2143 6.42855C13.2794 6.42855 14.1428 5.56511 14.1428 4.49998C14.1428 3.43486 13.2794 2.57141 12.2143 2.57141C11.1491 2.57141 10.2857 3.43486 10.2857 4.49998C10.2857 5.56511 11.1491 6.42855 12.2143 6.42855Z" fill="white"/>
<path d="M18.6429 9.85714C19.708 9.85714 20.5714 8.9937 20.5714 7.92857C20.5714 6.86344 19.708 6 18.6429 6C17.5777 6 16.7143 6.86344 16.7143 7.92857C16.7143 8.9937 17.5777 9.85714 18.6429 9.85714Z" fill="white"/>
<path d="M18.6429 18C19.708 18 20.5714 17.1366 20.5714 16.0715C20.5714 15.0063 19.708 14.1429 18.6429 14.1429C17.5777 14.1429 16.7143 15.0063 16.7143 16.0715C16.7143 17.1366 17.5777 18 18.6429 18Z" fill="white"/>
<path d="M5.35716 9.85714C6.42229 9.85714 7.28573 8.9937 7.28573 7.92857C7.28573 6.86344 6.42229 6 5.35716 6C4.29203 6 3.42859 6.86344 3.42859 7.92857C3.42859 8.9937 4.29203 9.85714 5.35716 9.85714Z" fill="white"/>
<path d="M5.35716 18C6.42229 18 7.28573 17.1366 7.28573 16.0715C7.28573 15.0063 6.42229 14.1429 5.35716 14.1429C4.29203 14.1429 3.42859 15.0063 3.42859 16.0715C3.42859 17.1366 4.29203 18 5.35716 18Z" fill="white"/>
<path d="M12.2143 21.4286C13.2794 21.4286 14.1428 20.5651 14.1428 19.5C14.1428 18.4349 13.2794 17.5714 12.2143 17.5714C11.1491 17.5714 10.2857 18.4349 10.2857 19.5C10.2857 20.5651 11.1491 21.4286 12.2143 21.4286Z" fill="white"/>
<g filter="url(#filter0_d_336_617)">
<path d="M13.5908 8.57141C14.2217 8.57141 14.7634 8.68113 15.216 8.90055C15.6754 9.11313 16.0251 9.41484 16.2651 9.8057C16.512 10.1966 16.6354 10.6526 16.6354 11.1737C16.6354 11.6948 16.512 12.1508 16.2651 12.5417C16.0251 12.9326 15.6754 13.2377 15.216 13.4571C14.7634 13.6697 14.2217 13.776 13.5908 13.776H10.2171V12.2023H13.488C13.8583 12.2023 14.1497 12.1131 14.3623 11.9348C14.5748 11.7497 14.6811 11.496 14.6811 11.1737C14.6811 10.8514 14.5748 10.6011 14.3623 10.4228C14.1497 10.2377 13.8583 10.1451 13.488 10.1451H10.392L11.2663 9.23998V16.2857H9.32227V8.57141H13.5908Z" fill="white"/>
</g>
</g>
</g>
<defs>
<filter id="filter0_d_336_617" x="5.32227" y="8.57141" width="15.3132" height="15.7143" filterUnits="userSpaceOnUse" color-interpolation-filters="sRGB">
<feFlood flood-opacity="0" result="BackgroundImageFix"/>
<feColorMatrix in="SourceAlpha" type="matrix" values="0 0 0 0 0 0 0 0 0 0 0 0 0 0 0 0 0 0 127 0" result="hardAlpha"/>
<feOffset dy="4"/>
<feGaussianBlur stdDeviation="2"/>
<feComposite in2="hardAlpha" operator="out"/>
<feColorMatrix type="matrix" values="0 0 0 0 0 0 0 0 0 0 0 0 0 0 0 0 0 0 0.25 0"/>
<feBlend mode="normal" in2="BackgroundImageFix" result="effect1_dropShadow_336_617"/>
<feBlend mode="normal" in="SourceGraphic" in2="effect1_dropShadow_336_617" result="shape"/>
</filter>
<clipPath id="clip0_336_617">
<rect width="24" height="24" fill="white"/>
</clipPath>
</defs>
</svg>
