<svg width="24" height="24" viewBox="0 0 24 24" fill="none" xmlns="http://www.w3.org/2000/svg">
<g clip-path="url(#clip0_2718_256)">
<path d="M22 12C22 17.5228 17.5228 22 12 22C6.47715 22 2 17.5228 2 12C2 6.47715 6.47715 2 12 2C17.5228 2 22 6.47715 22 12Z" fill="white" stroke="white" stroke-width="4"/>
<mask id="mask0_2718_256" style="mask-type:luminance" maskUnits="userSpaceOnUse" x="4" y="6" width="16" height="12">
<path d="M20 6.26666H4V17.6833H20V6.26666Z" fill="white"/>
</mask>
<g mask="url(#mask0_2718_256)">
<path d="M12.0019 13.2734V12.64C13.02 12.64 14.007 12.5574 14.9353 12.3944C15.8267 12.2379 16.6253 12.0146 17.3089 11.7309C17.9669 11.4578 18.5011 11.1304 18.8538 10.7844C19.1911 10.4533 19.3622 10.112 19.3622 9.77002C19.3622 9.42802 19.1911 9.08675 18.8538 8.75569C18.5012 8.40962 17.9671 8.08242 17.3089 7.80915C16.6253 7.52542 15.8267 7.30215 14.9353 7.14569C14.0069 6.98269 13.02 6.90002 12.0019 6.90002C11.5353 6.90002 11.0682 6.91775 10.6136 6.95289C10.2377 6.98189 9.86461 7.02322 9.50447 7.07569L9.41321 6.44894C9.78741 6.39441 10.1749 6.35148 10.5649 6.3214C11.0357 6.28507 11.5192 6.2666 12.002 6.2666C14.0933 6.2666 16.0643 6.60666 17.5519 7.22415C19.1278 7.87835 19.9957 8.78242 19.9957 9.76995C19.9957 10.7575 19.1278 11.6616 17.5519 12.3158C16.0643 12.9332 14.0933 13.2733 12.002 13.2733L12.0019 13.2734Z" fill="black"/>
<path d="M11.9936 17.6833C9.90233 17.6833 7.9314 17.3432 6.44376 16.7257C4.86792 16.0716 4 15.1675 4 14.1799C4 13.1924 4.86792 12.2883 6.44385 11.6341C7.93147 11.0166 9.9024 10.6766 11.9937 10.6766V11.3099C10.9757 11.3099 9.98873 11.3926 9.06027 11.5556C8.16893 11.7121 7.37033 11.9353 6.68673 12.2191C6.02867 12.4922 5.49447 12.8195 5.14183 13.1656C4.8045 13.4966 4.63341 13.8379 4.63341 14.1799C4.63341 14.5219 4.8045 14.8632 5.14183 15.1943C5.49439 15.5404 6.02858 15.8676 6.68673 16.1408C7.37033 16.4246 8.16893 16.6478 9.06027 16.8043C9.98873 16.9672 10.9757 17.05 11.9937 17.05C12.4603 17.05 12.9274 17.0322 13.382 16.9971C13.7579 16.968 14.131 16.9267 14.4911 16.8743L14.5824 17.501C14.2083 17.5556 13.8208 17.5985 13.4307 17.6286C12.96 17.6649 12.4765 17.6834 11.9936 17.6834V17.6833Z" fill="black"/>
<path d="M12.0043 15.4765C9.91248 15.4765 7.94095 15.1367 6.4531 14.5197C4.87665 13.8661 4.00854 12.9625 4.00854 11.9756C4.00854 10.9887 4.87673 10.0851 6.4531 9.43147C7.94108 8.81447 9.91248 8.47467 12.0043 8.47467C14.0961 8.47467 16.0676 8.81447 17.5555 9.43147C19.1318 10.0851 20 10.9887 20 11.9756C20 12.9625 19.1318 13.8661 17.5555 14.5197C16.0675 15.1367 14.0961 15.4765 12.0043 15.4765ZM12.0043 9.108C10.9859 9.108 9.99868 9.1906 9.06995 9.35354C8.17835 9.50994 7.37948 9.733 6.69568 10.0166C6.03748 10.2895 5.50311 10.6165 5.15038 10.9623C4.81296 11.2931 4.64187 11.634 4.64187 11.9757C4.64187 12.3173 4.81296 12.6583 5.15038 12.989C5.50311 13.3347 6.03738 13.6618 6.69568 13.9347C7.37948 14.2183 8.17835 14.4414 9.06995 14.5978C9.99868 14.7607 10.986 14.8433 12.0043 14.8433C13.0226 14.8433 14.0099 14.7607 14.9386 14.5978C15.8302 14.4414 16.629 14.2183 17.3129 13.9347C17.9711 13.6618 18.5055 13.3347 18.8582 12.989C19.1956 12.6583 19.3667 12.3173 19.3667 11.9757C19.3667 11.634 19.1956 11.2931 18.8582 10.9623C18.5055 10.6165 17.9712 10.2895 17.3129 10.0166C16.629 9.733 15.8302 9.50994 14.9386 9.35354C14.0099 9.1906 13.0226 9.108 12.0043 9.108Z" fill="black"/>
</g>
</g>
<defs>
<clipPath id="clip0_2718_256">
<rect width="24" height="24" fill="white"/>
</clipPath>
</defs>
</svg>
