<svg width="24" height="24" viewBox="0 0 24 24" fill="none" xmlns="http://www.w3.org/2000/svg">
<path fill-rule="evenodd" clip-rule="evenodd" d="M24 12C24 18.6274 18.6274 24 12 24C5.37258 24 0 18.6274 0 12C0 5.37258 5.37258 0 12 0C18.6274 0 24 5.37258 24 12ZM11.1758 10.6713L12.7912 9.65491V7.807C12.7912 7.807 12.6037 7.49671 12.5275 7.43742C11.9797 7.01149 9.86961 5.59443 8.65934 5.03514C8.64627 5.03369 8.61647 5.02923 8.58122 5.02396C8.51173 5.01356 8.42106 5 8.39561 5C8.34275 5 8.30623 5.00656 8.25658 5.01549C8.22365 5.0214 8.18494 5.02836 8.13187 5.03513C7.59192 5.38593 6.89849 5.80514 6.22965 6.20948C5.44442 6.68419 4.69308 7.13842 4.26374 7.43742C4.17582 7.52981 4 7.807 4 8.17658V12.6116C4 12.7963 4.08791 12.9811 4.26374 13.1659L8.01466 15.4758C8.01466 15.4758 8.05718 15.4995 8.28204 15.4995C8.5069 15.4995 8.74725 15.4758 8.74725 15.4758C8.74725 15.4758 15.1332 11.5028 15.3688 11.4104C15.6008 11.3194 15.624 11.3273 15.8571 11.4067L15.8681 11.4104C16.1116 11.4932 18.1434 12.8887 18.1434 12.8887L18.4176 13.3507V16.0302C18.4176 16.2059 18.3381 16.298 18.2221 16.4326C18.2161 16.4396 18.21 16.4467 18.2038 16.4539C18.0659 16.677 15.9741 17.982 15.9741 17.982C15.7802 18.0629 15.6044 18.0629 15.3688 17.9802C15.3688 17.9802 13.9421 17.1806 13.0549 16.5846C12.8791 16.3998 12.8659 16.0302 12.8659 16.0302L12.7912 14.4595L11.2088 15.3834V17.1389C11.2088 17.1389 11.2967 17.4161 11.4687 17.5798C11.6408 17.7434 11.4725 17.5798 11.4725 17.5798C11.4725 17.5798 15.1332 19.9917 15.3688 19.9975C15.5216 20.0012 15.6337 20.0001 15.7591 19.9988C15.8271 19.9982 15.8989 19.9975 15.9833 19.9975L19.7363 17.6719L20 17.2313V12.242L19.9121 12.0572L19.8242 11.8724C19.8242 11.8724 16.1224 9.49247 15.8681 9.47012C15.6139 9.44777 15.5165 9.47012 15.2527 9.54305C14.989 9.61597 8.71567 13.5253 8.71567 13.5253H8.0895L5.84615 12.1496C5.84615 12.1496 5.75824 12.0572 5.67033 11.8724C5.58242 11.6876 5.58242 11.5952 5.58242 11.5952V8.91574L5.75824 8.54616L5.93407 8.36137C5.93407 8.36137 7.06342 7.69645 7.95604 7.06783C7.99038 7.06783 8.0831 7.04474 8.17583 7.02164C8.26855 6.99854 8.36127 6.97544 8.3956 6.97544C8.42994 6.97544 8.50068 6.99854 8.57143 7.02164C8.64217 7.04474 8.71292 7.06783 8.74725 7.06783L10.9451 8.45376C10.9451 8.45376 11.1736 8.76234 11.1758 8.99337V9.00814V10.6713Z" fill="white"/>
</svg>
