<svg width="24" height="22" viewBox="0 0 24 22" fill="none" xmlns="http://www.w3.org/2000/svg">
<g clip-path="url(#clip0_3042_73)">
<path fill-rule="evenodd" clip-rule="evenodd" d="M23.9778 12.256C23.9778 12.3683 23.9514 12.475 23.9015 12.5677L18.7654 21.3513C18.5475 21.7238 18.145 21.9532 17.7093 21.9532H6.29614C5.86049 21.9532 5.45794 21.7238 5.24011 21.3513L0.103467 12.5668C0.0536967 12.4744 0.02771 12.3681 0.02771 12.256C0.02771 11.8925 0.326203 11.5978 0.694413 11.5978H6.32975L7.75789 13.9929L7.76667 14.0072C7.95725 14.3093 8.35824 14.4078 8.67067 14.2262L8.68683 14.2165C8.83089 14.1272 8.93517 13.9868 8.97788 13.8238L10.7976 6.87791L12.3602 18.0604L12.3626 18.076C12.4203 18.4278 12.7523 18.6715 13.1117 18.6225L13.1281 18.6201C13.3883 18.5782 13.5998 18.3883 13.6661 18.1353L15.8596 9.76302L16.7602 11.2735L16.7691 11.288C16.8907 11.4804 17.1043 11.5978 17.3347 11.5978H23.3111C23.6793 11.5978 23.9778 11.8925 23.9778 12.256ZM17.7093 0.0270386C18.145 0.0270386 18.5475 0.256516 18.7654 0.629029L23.9018 9.41303C23.9515 9.50555 23.9778 9.61221 23.9778 9.72423C23.9778 10.0878 23.6793 10.3825 23.3111 10.3825H17.6573L16.2291 7.98738L16.2193 7.97142C16.1289 7.82919 15.9867 7.72622 15.8215 7.68405L15.806 7.68028C15.4546 7.59916 15.1 7.80962 15.0091 8.15649L13.1893 15.1023L11.6268 3.9199L11.6244 3.90378C11.5819 3.64681 11.3896 3.43804 11.1333 3.37257C10.7769 3.28153 10.4131 3.49304 10.3209 3.84501L8.12739 12.2172L7.22682 10.7068L7.21788 10.6922C7.09633 10.4999 6.8827 10.3825 6.65229 10.3825H0.694413C0.326203 10.3825 0.02771 10.0878 0.02771 9.72423C0.02771 9.61307 0.0529992 9.50793 0.101853 9.41603L5.24011 0.629029C5.45794 0.256516 5.86049 0.0270386 6.29614 0.0270386H17.7093Z" fill="white"/>
</g>
<defs>
<clipPath id="clip0_3042_73">
<rect width="24" height="22" fill="white"/>
</clipPath>
</defs>
</svg>
