<svg width="24" height="24" viewBox="0 0 24 24" fill="none" xmlns="http://www.w3.org/2000/svg">
<path fill-rule="evenodd" clip-rule="evenodd" d="M24 12C24 18.6274 18.6274 24 12 24C5.37258 24 0 18.6274 0 12C0 5.37258 5.37258 0 12 0C18.6274 0 24 5.37258 24 12ZM11.9444 13.7085C11.9504 13.6692 11.9564 13.6364 11.9683 13.5971C12.7906 13.407 13.5832 13.0793 14.3102 12.6467C15.359 12.0109 16.2589 11.1982 16.8369 10.0119C17.6652 8.33394 17.3137 6.0989 15.663 4.93223C14.8227 4.34233 13.8931 4.0736 12.9039 4.01461C11.5631 3.92941 10.2223 4.2178 9.00658 4.85357C8.02928 5.35826 7.17712 6.03992 6.53353 7.02307C6.24749 7.45566 6.03892 7.92757 6.00317 8.47159C5.94954 9.31054 6.58716 9.62515 7.13541 9.48751C7.43932 9.40886 7.70153 9.19912 7.86243 8.90417C8.10675 8.51091 8.32724 8.10454 8.54773 7.69162C9.04234 6.76745 9.72168 6.13168 10.6513 5.81051C11.2532 5.61388 11.8551 5.57455 12.4748 5.57455C12.9754 5.56145 13.476 5.65976 13.9408 5.8695C14.8883 6.3152 15.3412 7.20659 15.1803 8.32084C14.9419 10.0381 13.5355 11.6308 11.9802 11.9454C11.6942 12.0241 11.3902 12.0372 11.0982 11.9847C11.1272 11.9251 11.1473 11.8751 11.1654 11.8303C11.177 11.8013 11.1878 11.7745 11.1996 11.7488C11.3023 11.4851 11.4071 11.2214 11.5121 10.9572C11.7176 10.44 11.924 9.92073 12.1173 9.39575C12.2007 9.14669 12.2543 8.89107 12.2782 8.62889C12.3199 8.40604 12.2245 8.18319 12.0458 8.07832C11.867 7.94724 11.6286 7.9669 11.4618 8.11765C11.277 8.25529 11.1042 8.4257 10.9612 8.61578C10.5738 9.15979 10.2163 9.72347 9.88258 10.3134C9.26616 11.487 8.67225 12.6756 8.07737 13.866C7.98789 14.0451 7.89839 14.2242 7.80879 14.4033C7.59129 14.8392 7.37676 15.2766 7.16223 15.7141C6.9477 16.1517 6.73317 16.5892 6.51566 17.025C6.34284 17.3593 6.27133 17.7395 6.30709 18.1196C6.3488 18.6046 6.6408 18.9258 7.07582 18.9914C7.487 19.0438 7.80879 18.8537 8.08291 18.5325C8.4345 18.1131 8.71458 17.628 8.89932 17.0971C9.1385 16.444 9.36056 15.7846 9.58327 15.1232C9.68239 14.8289 9.78164 14.5342 9.88258 14.2394C9.91456 14.148 9.94826 14.0565 9.98644 13.9529C10.0194 13.8634 10.0557 13.7649 10.0971 13.6495C10.1567 13.8331 10.1925 13.9379 10.2282 14.0362C10.2864 14.2028 10.3428 14.3707 10.3993 14.5391C10.5162 14.8877 10.6339 15.2384 10.7705 15.5831C11.0625 16.3827 11.4677 17.1168 11.9802 17.7657C12.7072 18.6571 13.5892 18.9848 14.6678 18.6898C15.8537 18.3687 16.8071 17.6215 17.6295 16.6711C17.8261 16.4417 17.9572 16.1468 17.993 15.8321C18.0168 15.6027 17.987 15.4061 17.7904 15.2685C17.5937 15.1308 17.3852 15.1767 17.2123 15.3209C17.0753 15.452 16.9501 15.5962 16.831 15.7469C16.1099 16.6121 15.2279 17.1037 14.1434 17.0971C13.7858 17.1037 13.4402 16.9398 13.2018 16.6383C12.5165 15.8059 12.1471 14.8031 11.9444 13.7085Z" fill="white"/>
</svg>
