<svg width="24" height="24" viewBox="0 0 24 24" fill="none" xmlns="http://www.w3.org/2000/svg">
<g clip-path="url(#clip0_2268_8130)">
<path fill-rule="evenodd" clip-rule="evenodd" d="M24 12C24 18.6274 18.6274 24 12 24C5.37258 24 0 18.6274 0 12C0 5.37258 5.37258 0 12 0C18.6274 0 24 5.37258 24 12ZM12 22C17.5228 22 22 17.5228 22 12C22 6.47715 17.5228 2 12 2C6.47715 2 2 6.47715 2 12C2 17.5228 6.47715 22 12 22ZM3.83333 12C3.83333 16.5103 7.48967 20.1667 12 20.1667C12.5312 20.1667 13.0506 20.1159 13.5536 20.0191C13.78 19.9755 13.7315 19.6437 13.5025 19.6174C9.73361 19.185 6.66667 15.9224 6.66667 12C6.66667 8.07754 9.73362 4.81504 13.5025 4.38259C13.7315 4.35631 13.78 4.02452 13.5536 3.98093C13.0506 3.88406 12.5312 3.83333 12 3.83333C7.48967 3.83333 3.83333 7.48967 3.83333 12ZM17.8582 9.22494C18.027 9.15539 18.0551 8.91442 17.8848 8.84854C17.5069 8.70238 17.0961 8.62222 16.6667 8.62222C14.8012 8.62222 13.2889 10.1345 13.2889 12C13.2889 13.8655 14.8012 15.3778 16.6667 15.3778C17.0961 15.3778 17.5069 15.2976 17.8848 15.1515C18.0551 15.0856 18.027 14.8446 17.8582 14.7751C16.7677 14.3259 16 13.2526 16 12C16 10.7474 16.7677 9.67413 17.8582 9.22494ZM15.6535 6.76278C13.1925 7.23605 11.3333 9.40091 11.3333 12C11.3333 14.5991 13.1925 16.764 15.6535 17.2372C15.866 17.2781 15.9073 17.5804 15.6969 17.6312C15.2596 17.7367 14.803 17.7926 14.3333 17.7926C11.1342 17.7926 8.54074 15.1992 8.54074 12C8.54074 8.80084 11.1342 6.20741 14.3333 6.20741C14.803 6.20741 15.2596 6.26331 15.6969 6.36882C15.9073 6.41958 15.866 6.72191 15.6535 6.76278ZM18.2 12C18.2 12.4418 18.5582 12.8 19 12.8C19.4418 12.8 19.8 12.4418 19.8 12C19.8 11.5582 19.4418 11.2 19 11.2C18.5582 11.2 18.2 11.5582 18.2 12Z" fill="white"/>
</g>
<defs>
<clipPath id="clip0_2268_8130">
<rect width="24" height="24" fill="white"/>
</clipPath>
</defs>
</svg>
