<svg width="40" height="40" viewBox="0 0 40 40" fill="none" xmlns="http://www.w3.org/2000/svg">
<path d="M7.49482 16.2429C6.20194 15.0309 5.31311 13.4552 5.31311 11.5967V11.3947C5.43431 8.24333 8.02007 5.65758 11.1714 5.57676H31.3323C31.8575 5.61718 32.2615 5.9808 32.2615 6.50601V23.5964C32.7058 23.6772 32.9483 23.758 33.3927 23.879C33.7565 24.0002 34.2412 24.2832 34.2412 24.2832V6.50601C34.2008 4.88993 32.908 3.59705 31.292 3.59705H11.1714C6.80799 3.67785 3.33337 7.23326 3.33337 11.5967C3.33337 14.1421 4.50504 16.3237 6.36356 17.8187C6.48477 17.94 6.60597 18.0612 6.96959 18.0612C7.57564 18.0612 7.97966 17.5762 7.93926 17.0914C7.93926 16.6471 7.77764 16.4854 7.49482 16.2429Z" fill="white"/>
<path d="M30.8083 24.7268H15.011C13.9606 24.7268 13.1121 25.5755 13.1121 26.6662V28.9288C13.1525 29.9793 14.0414 30.8682 15.0918 30.8682H16.2634V28.9288H15.0918V26.7067C15.0918 26.7067 15.3746 26.7067 15.7383 26.7067C17.718 26.7067 19.213 28.5652 19.213 30.5448C19.213 32.3225 17.5967 34.5448 14.9302 34.3832C12.5465 34.2215 11.2536 32.1207 11.2536 30.5448V11.273C11.2536 10.4245 10.5263 9.69727 9.67787 9.69727H8.10217V11.677H9.27384V30.5853C9.19302 34.4235 12.0212 36.363 14.9302 36.363L30.8488 36.4033C34.0405 36.4033 36.6668 33.8175 36.6668 30.5853C36.6263 27.3127 34.0405 24.7268 30.8083 24.7268ZM34.6467 30.6662C34.5658 32.7267 32.869 34.3832 30.8083 34.3832L19.7382 34.3428C20.6268 33.3328 21.1523 31.9995 21.1523 30.5448C21.1523 28.2825 19.819 26.7067 19.819 26.7067H30.8488C32.9498 26.7067 34.687 28.4442 34.687 30.5448L34.6467 30.6662Z" fill="white"/>
<path d="M26.5639 11.9992H14.6451V10.0195H26.5639C27.0891 10.0195 27.5334 10.4639 27.5334 10.9892C27.5334 11.5548 27.1294 11.9992 26.5639 11.9992Z" fill="white"/>
<path d="M26.5639 21.2928H14.6451V19.3131H26.5639C27.0891 19.3131 27.5334 19.7576 27.5334 20.2829C27.5334 20.8484 27.1294 21.2928 26.5639 21.2928Z" fill="white"/>
<path d="M28.6649 16.6462H14.6451V14.6664H28.6649C29.1901 14.6664 29.6344 15.1108 29.6344 15.6361C29.6344 16.2016 29.1901 16.6462 28.6649 16.6462Z" fill="white"/>
</svg>
