<svg width="24" height="24" viewBox="0 0 24 24" fill="none" xmlns="http://www.w3.org/2000/svg">
<g clip-path="url(#clip0_2608_198)">
<path fill-rule="evenodd" clip-rule="evenodd" d="M11.9694 24C15.5343 24 18.7371 22.4534 20.9401 19.9962C19.9153 19.1079 18.3709 19.0539 17.2799 19.932L17.0715 20.0997C15.074 21.7075 12.1633 21.4701 10.4541 19.56C9.52196 18.5182 7.92551 18.4118 6.86272 19.3206L4.45971 21.3756C6.51788 23.0179 9.12869 24 11.9694 24ZM15.8701 18.1893C17.7727 16.6579 20.447 16.7128 22.2769 18.1918C23.3707 16.3841 24 14.2654 24 12C24 9.48281 23.223 7.14663 21.8952 5.21713C21.0391 5.0353 20.1113 5.24767 19.407 5.87022L19.2065 6.0474C17.2855 7.74539 14.367 7.64221 12.5713 5.81285C11.5919 4.8151 9.99222 4.78233 8.9726 5.73914L6.17618 8.36331L4.63782 6.73233L7.43424 4.10813C9.34422 2.31579 12.3409 2.37717 14.1755 4.2462C15.134 5.22277 16.6921 5.27785 17.7176 4.37141L17.918 4.19423C18.5406 3.64399 19.2607 3.27305 20.0149 3.07796C17.8834 1.16449 15.0628 0 11.9694 0C5.86223 0 0.817902 4.53907 0.0422493 10.4195C1.89725 9.53162 4.18539 9.87328 5.69786 11.4182C6.6527 12.3935 8.19017 12.4964 9.26711 11.6572L10.8306 10.4388C12.7957 8.90756 15.5734 8.98167 17.4536 10.6155L20.4976 13.2609L19.0228 14.9493L15.9788 12.304C14.9097 11.3749 13.3302 11.3327 12.2128 12.2034L10.6493 13.4219C8.67061 14.9638 5.84591 14.7747 4.09162 12.9827C3.07151 11.9407 1.4031 11.9044 0.33835 12.901L0 13.2177C0.253212 15.724 1.27965 18.0028 2.83776 19.8129L5.40149 17.6206C7.39236 15.9181 10.3829 16.1173 12.1291 18.0688C13.0415 19.0885 14.5953 19.2152 15.6616 18.357L15.8701 18.1893Z" fill="white"/>
</g>
<defs>
<clipPath id="clip0_2608_198">
<rect width="24" height="24" fill="white"/>
</clipPath>
</defs>
</svg>
