<svg width="24" height="24" viewBox="0 0 24 24" fill="none" xmlns="http://www.w3.org/2000/svg">
<g clip-path="url(#clip0_2276_8213)">
<path fill-rule="evenodd" clip-rule="evenodd" d="M24 12C24 18.6274 18.6274 24 12 24C5.37258 24 0 18.6274 0 12C0 5.37258 5.37258 0 12 0C18.6274 0 24 5.37258 24 12ZM17.1078 4.41342C17.1078 4.67166 17.0385 4.91373 16.9176 5.12206C19.0852 6.65829 20.5 9.18686 20.5 12.0459C20.5 13.4299 20.1684 14.7366 19.5804 15.8906C20.1306 17.8464 19.7946 19.3632 18.6815 20.3765C17.5095 21.4434 15.643 21.3362 13.732 20.5543C13.6233 20.5098 13.514 20.463 13.4042 20.4139C12.9536 20.4879 12.491 20.5264 12.0195 20.5264C9.6872 20.5264 7.57481 19.5849 6.04165 18.0612C5.80177 18.1911 5.52705 18.2649 5.23509 18.2649C4.29836 18.2649 3.53899 17.5055 3.53899 16.5688C3.53899 16.0373 3.78342 15.563 4.16598 15.252C3.76177 14.2629 3.53899 13.1804 3.53899 12.0459C3.53899 11.234 3.65306 10.4489 3.86605 9.70547C3.27193 7.73564 3.34291 5.87464 4.51171 4.81067C5.04747 4.32296 5.63217 3.99971 6.28142 3.88087C6.76259 3.7928 7.25895 3.82072 7.77232 3.95609C7.97966 3.71676 8.2858 3.56537 8.6273 3.56537C8.96706 3.56537 9.27182 3.71522 9.47909 3.95243C10.2811 3.70093 11.1345 3.56537 12.0195 3.56537C12.8379 3.56537 13.6293 3.6813 14.378 3.89765C14.5841 3.37212 15.0958 3 15.6944 3C16.475 3 17.1078 3.63281 17.1078 4.41342ZM6.66359 17.4836C6.83296 17.2196 6.93119 16.9057 6.93119 16.5688C6.93119 15.6321 6.17182 14.8727 5.23509 14.8727C5.13375 14.8727 5.03449 14.8816 4.93804 14.8986C4.58266 14.0173 4.38704 13.0544 4.38704 12.0459C4.38704 11.7623 4.4025 11.4823 4.43263 11.2068C5.15524 12.8145 6.27791 14.517 7.73062 16.1128C9.0874 17.6033 10.5638 18.8158 12.0017 19.6783C9.92191 19.6736 8.03751 18.837 6.66359 17.4836ZM19.6519 12.0459C19.6519 9.40369 18.3094 7.07509 16.2692 5.70504C16.0936 5.78332 15.8991 5.82683 15.6944 5.82683C15.0363 5.82683 14.4832 5.37703 14.3258 4.76807C13.5982 4.53769 12.8233 4.41342 12.0195 4.41342C11.2316 4.41342 10.4716 4.5328 9.75656 4.75447C9.75373 4.81006 9.74689 4.86459 9.73632 4.91778C10.7707 5.62805 11.9066 6.68552 13.1811 8.08554C13.3387 8.25872 13.3261 8.5269 13.153 8.68455C12.9798 8.84219 12.7116 8.8296 12.554 8.65642C11.2918 7.26994 10.2109 6.27485 9.27034 5.62631C9.08778 5.75275 8.86619 5.82683 8.6273 5.82683C8.36873 5.82683 8.13043 5.74004 7.93994 5.594C6.44793 6.53939 5.30634 7.98805 4.7539 9.70129C5.35045 11.514 6.58691 13.5966 8.35774 15.542C10.0217 17.3698 11.8505 18.7393 13.5162 19.5316C17.0148 18.836 19.6519 15.7489 19.6519 12.0459ZM7.49843 4.76141C7.111 4.6666 6.7594 4.65552 6.4341 4.71506C5.97297 4.79947 5.52779 5.03252 5.08259 5.43779C4.46636 5.99875 4.21769 6.98665 4.41146 8.29501C5.10806 6.88475 6.18523 5.69608 7.50882 4.86313C7.50387 4.82968 7.50038 4.79575 7.49843 4.76141ZM14.8335 20.0483C16.5049 19.4606 17.9366 18.3641 18.9427 16.9448C19.1306 18.2411 18.7797 19.1403 18.1106 19.7494C17.4364 20.3631 16.2947 20.4909 14.8335 20.0483ZM12.759 11.8403H13.846C13.8255 11.5949 13.767 11.3771 13.6706 11.1869C13.5743 10.9967 13.447 10.8368 13.289 10.707C13.131 10.5759 12.9472 10.4763 12.7378 10.4082C12.5283 10.3401 12.299 10.3061 12.0497 10.3061C11.695 10.3061 11.3738 10.3838 11.086 10.5393C10.7982 10.6935 10.5695 10.9216 10.3998 11.2235C10.2302 11.5242 10.1454 11.8942 10.1454 12.3337C10.1454 12.7706 10.2283 13.14 10.3941 13.4419C10.5611 13.7439 10.7879 13.9726 11.0744 14.1281C11.3623 14.2836 11.6873 14.3613 12.0497 14.3613C12.3388 14.3613 12.5926 14.317 12.811 14.2283C13.0294 14.1397 13.2125 14.0227 13.3603 13.8775C13.5094 13.731 13.6244 13.5717 13.7053 13.3995C13.7863 13.2261 13.8332 13.0558 13.846 12.8888L12.759 12.8811C12.7461 12.9659 12.7211 13.0423 12.6838 13.1104C12.6478 13.1772 12.6009 13.2344 12.5431 13.282C12.4853 13.3295 12.4172 13.3661 12.3388 13.3918C12.2604 13.4162 12.1718 13.4284 12.0728 13.4284C11.8994 13.4284 11.7509 13.388 11.6276 13.307C11.5042 13.2248 11.4098 13.1027 11.3443 12.9408C11.28 12.7776 11.2479 12.5753 11.2479 12.3337C11.2479 12.105 11.2794 11.909 11.3423 11.7458C11.4066 11.5827 11.5004 11.4574 11.6237 11.37C11.7484 11.2826 11.9006 11.2389 12.0805 11.2389C12.1833 11.2389 12.2752 11.2537 12.3561 11.2833C12.4371 11.3115 12.5058 11.3527 12.5624 11.4066C12.6202 11.4593 12.6652 11.5223 12.6973 11.5955C12.7307 11.6687 12.7513 11.7503 12.759 11.8403ZM6.5123 10.36V11.2235H7.69957V14.3073H8.75578V11.2235H9.94305V10.36H6.5123ZM16.8956 11.663C16.8789 11.5949 16.8526 11.5351 16.8166 11.4837C16.7806 11.431 16.7356 11.3867 16.6817 11.3507C16.629 11.3135 16.5673 11.2858 16.4966 11.2678C16.4273 11.2486 16.3508 11.2389 16.2673 11.2389C16.0874 11.2389 15.9339 11.282 15.8066 11.3681C15.6807 11.4542 15.5844 11.5782 15.5175 11.7401C15.452 11.902 15.4192 12.0973 15.4192 12.326C15.4192 12.5573 15.4507 12.7551 15.5137 12.9196C15.5766 13.0841 15.6704 13.21 15.7951 13.2974C15.9197 13.3848 16.0746 13.4284 16.2596 13.4284C16.4228 13.4284 16.5583 13.4047 16.6663 13.3571C16.7755 13.3096 16.8571 13.2421 16.911 13.1548C16.962 13.0722 16.989 12.9758 16.9917 12.8657H16.275V12.1024H18.0251V12.6498C18.0251 13.0096 17.9486 13.3173 17.7957 13.573C17.6441 13.8274 17.4346 14.0227 17.1674 14.1589C16.9014 14.2938 16.5962 14.3613 16.2519 14.3613C15.8677 14.3613 15.5304 14.2797 15.24 14.1165C14.9496 13.9533 14.7228 13.7208 14.5596 13.4188C14.3977 13.1169 14.3168 12.7577 14.3168 12.3414C14.3168 12.015 14.3662 11.7259 14.4652 11.4741C14.5654 11.2222 14.7042 11.0096 14.8815 10.8361C15.0588 10.6614 15.2638 10.5297 15.4963 10.441C15.7289 10.3511 15.9782 10.3061 16.2442 10.3061C16.478 10.3061 16.6952 10.3395 16.8956 10.4063C17.0974 10.4718 17.2753 10.5656 17.4295 10.6877C17.585 10.8085 17.7103 10.9518 17.8053 11.1175C17.9004 11.2833 17.9583 11.4651 17.9788 11.663H16.8956Z" fill="white"/>
</g>
<defs>
<clipPath id="clip0_2276_8213">
<rect width="24" height="24" fill="white"/>
</clipPath>
</defs>
</svg>
