<svg width="24" height="24" viewBox="0 0 24 24" fill="none" xmlns="http://www.w3.org/2000/svg">
<g clip-path="url(#clip0_2022_63)">
<path d="M23.5 12C23.5 18.3513 18.3513 23.5 12 23.5C5.64871 23.5 0.5 18.3513 0.5 12C0.5 5.64871 5.64871 0.5 12 0.5C18.3513 0.5 23.5 5.64871 23.5 12Z" stroke="white"/>
<path d="M16.0973 6.69757H7.90226C6.39549 6.69757 5.44046 8.32293 6.19852 9.63688L11.2562 18.4032C11.5862 18.9756 12.4133 18.9756 12.7434 18.4032L17.802 9.63688C18.5591 8.32503 17.604 6.69757 16.0983 6.69757H16.0973ZM11.2521 15.7743L10.1506 13.6426L7.49284 8.88916C7.31752 8.58491 7.53407 8.19504 7.90123 8.19504H11.251V15.7754L11.2521 15.7743ZM16.5046 8.88813L13.8479 13.6436L12.7464 15.7743V8.19401H16.0962C16.4634 8.19401 16.68 8.58389 16.5046 8.88813Z" fill="white"/>
</g>
<defs>
<clipPath id="clip0_2022_63">
<rect width="24" height="24" fill="white"/>
</clipPath>
</defs>
</svg>
