<svg width="24" height="24" viewBox="0 0 24 24" fill="none" xmlns="http://www.w3.org/2000/svg">
<path fill-rule="evenodd" clip-rule="evenodd" d="M12 24C18.6274 24 24 18.6274 24 12C24 5.37258 18.6274 0 12 0C5.37258 0 0 5.37258 0 12C0 18.6274 5.37258 24 12 24ZM17 7V11.3696C15.4023 11.7814 13.7271 12 12 12C10.2729 12 8.59774 11.7814 7 11.3696V7C8.59774 7.41082 10.2729 7.63035 12 7.63035C13.7271 7.63035 15.4013 7.41082 17 7ZM7 12.7288V17.0984C8.59774 16.6876 10.2729 16.4681 12 16.4681C13.7271 16.4681 15.4023 16.6876 17 17.0984V12.7288C15.4013 12.3171 13.7271 12.0984 12 12.0984C10.2729 12.0984 8.59774 12.3171 7 12.7288Z" fill="white"/>
</svg>
