<svg width="20" height="16" viewBox="0 0 20 16" fill="none" xmlns="http://www.w3.org/2000/svg">
<g clip-path="url(#clip0_1_44)">
<mask id="mask0_1_44" style="mask-type:alpha" maskUnits="userSpaceOnUse" x="16" y="0" width="4" height="6">
<path d="M16.9071 0.196533H19.7949V5.30075H16.9071V0.196533Z" fill="black"/>
</mask>
<g mask="url(#mask0_1_44)">
<path d="M19.455 0.196533H15.0314C14.8435 0.196533 14.6912 0.348881 14.6912 0.536813V4.96044C14.6912 5.14837 14.8435 5.30072 15.0314 5.30072H19.455C19.6429 5.30072 19.7952 5.14837 19.7952 4.96044V0.536813C19.7952 0.348881 19.6429 0.196533 19.455 0.196533Z" fill="white" fill-opacity="0.5"/>
</g>
<mask id="mask1_1_44" style="mask-type:alpha" maskUnits="userSpaceOnUse" x="16" y="10" width="4" height="6">
<path d="M16.9071 10.4041H19.7949V15.5083H16.9071V10.4041Z" fill="black"/>
</mask>
<g mask="url(#mask1_1_44)">
<path d="M19.455 10.4041H15.0314C14.8435 10.4041 14.6912 10.5564 14.6912 10.7443V15.168C14.6912 15.3559 14.8435 15.5083 15.0314 15.5083H19.455C19.6429 15.5083 19.7952 15.3559 19.7952 15.168V10.7443C19.7952 10.5564 19.6429 10.4041 19.455 10.4041Z" fill="white" fill-opacity="0.5"/>
</g>
<path d="M9.99512 5.31313H5.59256C5.40553 5.31313 5.25391 5.46366 5.25391 5.64934V10.0206C5.25391 10.2063 5.40553 10.3568 5.59256 10.3568H9.99512C10.1822 10.3568 10.3338 10.2063 10.3338 10.0206V5.64934C10.3338 5.46366 10.1822 5.31313 9.99512 5.31313Z" fill="white"/>
<path d="M4.89928 0.195923H0.475769C0.287843 0.195923 0.135498 0.348272 0.135498 0.536203V4.95984C0.135498 5.14775 0.287843 5.30009 0.475769 5.30009H4.89928C5.08722 5.30009 5.23956 5.14775 5.23956 4.95984V0.536203C5.23956 0.348272 5.08722 0.195923 4.89928 0.195923Z" fill="white"/>
<path d="M15.1056 0.195923H10.6821C10.4942 0.195923 10.3418 0.348272 10.3418 0.536203V4.95984C10.3418 5.14775 10.4942 5.30009 10.6821 5.30009H15.1056C15.2935 5.30009 15.4459 5.14775 15.4459 4.95984V0.536203C15.4459 0.348272 15.2935 0.195923 15.1056 0.195923Z" fill="white"/>
<path d="M4.89931 10.4041H0.475769C0.287843 10.4041 0.135498 10.5564 0.135498 10.7443V15.168C0.135498 15.3559 0.287843 15.5083 0.475769 15.5083H4.89931C5.08722 15.5083 5.23956 15.3559 5.23956 15.168V10.7443C5.23956 10.5564 5.08722 10.4041 4.89931 10.4041Z" fill="white"/>
<path d="M15.1056 10.4041H10.6821C10.4942 10.4041 10.3418 10.5564 10.3418 10.7443V15.168C10.3418 15.3559 10.4942 15.5083 10.6821 15.5083H15.1056C15.2935 15.5083 15.4459 15.3559 15.4459 15.168V10.7443C15.4459 10.5564 15.2935 10.4041 15.1056 10.4041Z" fill="white"/>
</g>
<defs>
<clipPath id="clip0_1_44">
<rect width="20" height="15.625" fill="white"/>
</clipPath>
</defs>
</svg>
