<svg width="24" height="24" viewBox="0 0 24 24" fill="none" xmlns="http://www.w3.org/2000/svg">
<mask id="mask0_7871_6626" style="mask-type:luminance" maskUnits="userSpaceOnUse" x="2" y="4" width="20" height="16">
<path d="M22 4H2V19.625H22V4Z" fill="white"/>
</mask>
<g mask="url(#mask0_7871_6626)">
<mask id="mask1_7871_6626" style="mask-type:alpha" maskUnits="userSpaceOnUse" x="18" y="4" width="4" height="6">
<path d="M18.9067 4.19653H21.7945V9.30075H18.9067V4.19653Z" fill="black"/>
</mask>
<g mask="url(#mask1_7871_6626)">
<path d="M21.4547 4.19653H17.0311C16.8432 4.19653 16.6909 4.34888 16.6909 4.53681V8.96044C16.6909 9.14837 16.8432 9.30072 17.0311 9.30072H21.4547C21.6426 9.30072 21.7949 9.14837 21.7949 8.96044V4.53681C21.7949 4.34888 21.6426 4.19653 21.4547 4.19653Z" fill="white" fill-opacity="0.5"/>
</g>
<mask id="mask2_7871_6626" style="mask-type:alpha" maskUnits="userSpaceOnUse" x="18" y="14" width="4" height="6">
<path d="M18.9067 14.4041H21.7945V19.5083H18.9067V14.4041Z" fill="black"/>
</mask>
<g mask="url(#mask2_7871_6626)">
<path d="M21.4547 14.4041H17.0311C16.8432 14.4041 16.6909 14.5564 16.6909 14.7443V19.168C16.6909 19.3559 16.8432 19.5083 17.0311 19.5083H21.4547C21.6426 19.5083 21.7949 19.3559 21.7949 19.168V14.7443C21.7949 14.5564 21.6426 14.4041 21.4547 14.4041Z" fill="white" fill-opacity="0.5"/>
</g>
<path d="M11.9951 9.31311H7.59256C7.40553 9.31311 7.25391 9.46364 7.25391 9.64932V14.0206C7.25391 14.2063 7.40553 14.3568 7.59256 14.3568H11.9951C12.1822 14.3568 12.3338 14.2063 12.3338 14.0206V9.64932C12.3338 9.46364 12.1822 9.31311 11.9951 9.31311Z" fill="white"/>
<path d="M6.89904 4.19592H2.47552C2.2876 4.19592 2.13525 4.34827 2.13525 4.5362V8.95984C2.13525 9.14775 2.2876 9.30009 2.47552 9.30009H6.89904C7.08698 9.30009 7.23932 9.14775 7.23932 8.95984V4.5362C7.23932 4.34827 7.08698 4.19592 6.89904 4.19592Z" fill="white"/>
<path d="M17.1056 4.19592H12.6821C12.4942 4.19592 12.3418 4.34827 12.3418 4.5362V8.95984C12.3418 9.14775 12.4942 9.30009 12.6821 9.30009H17.1056C17.2935 9.30009 17.4459 9.14775 17.4459 8.95984V4.5362C17.4459 4.34827 17.2935 4.19592 17.1056 4.19592Z" fill="white"/>
<path d="M6.89907 14.4041H2.47552C2.2876 14.4041 2.13525 14.5564 2.13525 14.7443V19.168C2.13525 19.3559 2.2876 19.5083 2.47552 19.5083H6.89907C7.08698 19.5083 7.23932 19.3559 7.23932 19.168V14.7443C7.23932 14.5564 7.08698 14.4041 6.89907 14.4041Z" fill="white"/>
<path d="M17.1056 14.4041H12.6821C12.4942 14.4041 12.3418 14.5564 12.3418 14.7443V19.168C12.3418 19.3559 12.4942 19.5083 12.6821 19.5083H17.1056C17.2935 19.5083 17.4459 19.3559 17.4459 19.168V14.7443C17.4459 14.5564 17.2935 14.4041 17.1056 14.4041Z" fill="white"/>
</g>
</svg>
