<svg width="24" height="24" viewBox="0 0 24 24" fill="none" xmlns="http://www.w3.org/2000/svg">
<path fill-rule="evenodd" clip-rule="evenodd" d="M18.8966 4.19653H21.5833C21.6974 4.19653 21.7899 4.34888 21.7899 4.53681V8.96044C21.7899 9.14837 21.6974 9.30072 21.5833 9.30072H18.8966C18.7824 9.30072 18.6899 9.14837 18.6899 8.96044V4.53681C18.6899 4.34888 18.7824 4.19653 18.8966 4.19653ZM18.8966 14.37H21.5833C21.6974 14.37 21.7899 14.5223 21.7899 14.7103V19.1339C21.7899 19.3218 21.6974 19.4742 21.5833 19.4742H18.8966C18.7824 19.4742 18.6899 19.3218 18.6899 19.1339V14.7103C18.6899 14.5223 18.7824 14.37 18.8966 14.37Z" fill="white" fill-opacity="0.5"/>
<path fill-rule="evenodd" clip-rule="evenodd" d="M6.89904 4.19592H2.47552C2.2876 4.19592 2.13525 4.34827 2.13525 4.5362V8.95984C2.13525 9.14775 2.2876 9.30009 2.47552 9.30009H6.89904C7.08698 9.30009 7.23932 9.14775 7.23932 8.95984V4.5362C7.23932 4.34827 7.08698 4.19592 6.89904 4.19592ZM11.9951 9.31311H7.59256C7.40553 9.31311 7.25391 9.46364 7.25391 9.64932V14.0206C7.25391 14.2063 7.40553 14.3568 7.59256 14.3568H11.9951C12.1822 14.3568 12.3338 14.2063 12.3338 14.0206V9.64932C12.3338 9.46364 12.1822 9.31311 11.9951 9.31311ZM12.6821 4.19592H17.1056C17.2935 4.19592 17.4459 4.34827 17.4459 4.5362V8.95984C17.4459 9.14775 17.2935 9.30009 17.1056 9.30009H12.6821C12.4942 9.30009 12.3418 9.14775 12.3418 8.95984V4.5362C12.3418 4.34827 12.4942 4.19592 12.6821 4.19592ZM6.89907 14.4041H2.47552C2.2876 14.4041 2.13525 14.5564 2.13525 14.7443V19.168C2.13525 19.3559 2.2876 19.5083 2.47552 19.5083H6.89907C7.08698 19.5083 7.23932 19.3559 7.23932 19.168V14.7443C7.23932 14.5564 7.08698 14.4041 6.89907 14.4041ZM12.6821 14.4041H17.1056C17.2935 14.4041 17.4459 14.5564 17.4459 14.7443V19.168C17.4459 19.3559 17.2935 19.5083 17.1056 19.5083H12.6821C12.4942 19.5083 12.3418 19.3559 12.3418 19.168V14.7443C12.3418 14.5564 12.4942 14.4041 12.6821 14.4041Z" fill="white"/>
</svg>
