<svg width="24" height="24" viewBox="0 0 24 24" fill="none" xmlns="http://www.w3.org/2000/svg">
<g clip-path="url(#clip0_2273_8092)">
<path fill-rule="evenodd" clip-rule="evenodd" d="M24 12C24 18.6274 18.6274 24 12 24C5.37258 24 0 18.6274 0 12C0 5.37258 5.37258 0 12 0C18.6274 0 24 5.37258 24 12ZM16.0629 9.79234C16.0629 8.91384 15.8485 8.05677 15.5055 7.28544L18.9787 4.2V7.28544L16.0629 9.87805V9.79234ZM8.98771 4.22127C12.3752 4.22127 15.1409 6.72817 15.1409 9.81361C15.1409 11.6134 16.856 13.0919 19 13.1133V15.4274C16.5559 15.4274 14.4334 14.1418 13.4471 12.2563L12.0535 13.499C11.9464 12.6419 11.6677 11.8277 11.2603 11.0992L12.8254 9.70647C12.7611 7.94951 11.0674 6.53536 8.98771 6.53536V4.22127ZM14.9909 19.7126V17.3986C12.8684 17.3986 11.1532 15.9201 11.1532 14.1202C11.1532 11.0348 8.38746 8.52794 5 8.52794V10.842C6.80094 10.842 8.32313 11.9133 8.73049 13.349L7.91577 14.0775L6.2435 15.5773L5 16.67V19.7555L9.20218 16.0273C10.0383 18.1485 12.3109 19.7126 14.9909 19.7126Z" fill="white"/>
</g>
<defs>
<clipPath id="clip0_2273_8092">
<rect width="24" height="24" fill="white"/>
</clipPath>
</defs>
</svg>
