<svg width="24" height="24" viewBox="0 0 24 24" fill="none" xmlns="http://www.w3.org/2000/svg">
<g clip-path="url(#clip0_2268_8134)">
<path fill-rule="evenodd" clip-rule="evenodd" d="M24 12C24 18.6274 18.6274 24 12 24C5.37258 24 0 18.6274 0 12C0 5.37258 5.37258 0 12 0C18.6274 0 24 5.37258 24 12ZM6.76121 5.5C5.69288 5.5 5.11034 6.75615 5.79549 7.58166L8.57096 10.9266C9.07347 11.5322 9.99667 11.5334 10.5007 10.9292L11.048 10.2731C11.4453 9.79692 11.4409 9.10087 11.038 8.62944L8.73955 5.94069C8.50032 5.66079 8.15203 5.5 7.78556 5.5H6.76121ZM16.3002 5.5H17.3389C18.3809 5.5 18.9716 6.70235 18.3401 7.53703L10.4265 18.0003C10.1773 18.3299 9.78412 18.516 9.3734 18.4989L8.01218 18.4425C6.98226 18.3996 6.43725 17.1964 7.07959 16.3845L15.316 5.97763C15.5547 5.67586 15.9171 5.5 16.3002 5.5ZM15.453 18.29C16.5535 18.29 17.4457 17.3911 17.4457 16.2825C17.4457 15.1738 16.5535 14.275 15.453 14.275C14.3524 14.275 13.4602 15.1738 13.4602 16.2825C13.4602 17.3911 14.3524 18.29 15.453 18.29Z" fill="white"/>
</g>
<defs>
<clipPath id="clip0_2268_8134">
<rect width="24" height="24" fill="white"/>
</clipPath>
</defs>
</svg>
