<svg width="24" height="24" viewBox="0 0 24 24" fill="none" xmlns="http://www.w3.org/2000/svg">
<g clip-path="url(#clip0_2025_8209)">
<path fill-rule="evenodd" clip-rule="evenodd" d="M24 12C24 18.6274 18.6274 24 12 24C5.37258 24 0 18.6274 0 12C0 5.37258 5.37258 0 12 0C18.6274 0 24 5.37258 24 12ZM15.2418 14.1767V14.1761L15.2411 14.1767H15.2418ZM15.2418 15.5056V14.1767H16.9993V17H7V16.2533C7 14.7962 7.16195 13.5594 9.19885 12.0272L9.21046 12.0178L14.0708 8.49389H8.75947V9.84908H7.00194V7H17V12.7157H15.2418V9.60896L10.3576 13.1493C9.20853 14.015 8.87625 14.6306 8.78721 15.5056H15.2418Z" fill="white"/>
</g>
<defs>
<clipPath id="clip0_2025_8209">
<rect width="24" height="24" fill="white"/>
</clipPath>
</defs>
</svg>
