<svg width="438" height="299" viewBox="0 0 438 299" fill="none" xmlns="http://www.w3.org/2000/svg">
<g filter="url(#filter0_i_18700_24938)">
<g clip-path="url(#clip0_18700_24938)">
<rect width="438" height="299" rx="17.9893" fill="white" fill-opacity="0.01"/>
<path d="M130.479 29.4427C129.548 29.4427 128.749 29.2829 128.082 28.9633C127.414 28.6343 126.869 28.2066 126.446 27.6802C126.023 27.1444 125.708 26.571 125.501 25.96C125.304 25.3396 125.205 24.738 125.205 24.1552V23.845C125.205 23.2058 125.309 22.576 125.515 21.9556C125.722 21.3258 126.037 20.7571 126.46 20.2495C126.893 19.7419 127.433 19.3377 128.082 19.0369C128.74 18.7267 129.515 18.5716 130.408 18.5716C131.339 18.5716 132.161 18.7455 132.876 19.0933C133.59 19.4411 134.159 19.9252 134.582 20.5456C135.014 21.1566 135.268 21.8757 135.343 22.7029H133.017C132.951 22.2893 132.8 21.9368 132.565 21.6454C132.33 21.354 132.025 21.1284 131.649 20.9686C131.282 20.8088 130.869 20.7289 130.408 20.7289C129.948 20.7289 129.539 20.8088 129.181 20.9686C128.824 21.1284 128.523 21.354 128.279 21.6454C128.044 21.9368 127.861 22.2846 127.729 22.6888C127.607 23.0836 127.546 23.5254 127.546 24.0142C127.546 24.4936 127.607 24.9354 127.729 25.3396C127.861 25.7344 128.049 26.0822 128.293 26.383C128.547 26.6744 128.857 26.9 129.224 27.0598C129.59 27.2102 130.009 27.2854 130.479 27.2854C131.193 27.2854 131.795 27.1115 132.283 26.7637C132.782 26.4159 133.082 25.9365 133.186 25.3255H135.498C135.414 26.0775 135.16 26.7684 134.737 27.3982C134.323 28.0186 133.755 28.5168 133.031 28.8928C132.316 29.2594 131.466 29.4427 130.479 29.4427ZM136.906 29.1748V21.448H138.696V24.7615H138.654C138.654 23.6711 138.884 22.8298 139.345 22.2376C139.815 21.6454 140.492 21.3493 141.375 21.3493H141.671V23.2951H141.107C140.487 23.2951 140.008 23.4643 139.669 23.8027C139.331 24.1317 139.162 24.6111 139.162 25.2409V29.1748H136.906ZM146.338 29.4427C145.68 29.4427 145.097 29.3299 144.59 29.1043C144.091 28.8787 143.673 28.5779 143.335 28.2019C143.006 27.8165 142.752 27.3888 142.573 26.9188C142.404 26.4394 142.319 25.9506 142.319 25.4524V25.1704C142.319 24.6534 142.404 24.1599 142.573 23.6899C142.752 23.2105 143.006 22.7828 143.335 22.4068C143.664 22.0308 144.073 21.7347 144.561 21.5185C145.06 21.2929 145.624 21.1801 146.253 21.1801C147.081 21.1801 147.776 21.3681 148.34 21.7441C148.914 22.1107 149.351 22.5948 149.651 23.1964C149.952 23.7886 150.103 24.4372 150.103 25.1422V25.9036H143.264V24.6205H148.735L148.002 25.2127C148.002 24.7521 147.936 24.3573 147.804 24.0283C147.673 23.6993 147.475 23.4502 147.212 23.281C146.958 23.1024 146.639 23.0131 146.253 23.0131C145.859 23.0131 145.525 23.1024 145.252 23.281C144.98 23.4596 144.773 23.7228 144.632 24.0706C144.491 24.409 144.42 24.8273 144.42 25.3255C144.42 25.7861 144.486 26.1903 144.618 26.5381C144.749 26.8765 144.956 27.1397 145.238 27.3277C145.52 27.5157 145.887 27.6097 146.338 27.6097C146.752 27.6097 147.09 27.5298 147.353 27.37C147.616 27.2102 147.795 27.0128 147.889 26.7778H149.962C149.849 27.2948 149.628 27.7554 149.299 28.1596C148.97 28.5638 148.556 28.8787 148.058 29.1043C147.56 29.3299 146.987 29.4427 146.338 29.4427ZM156.265 29.1748V26.8906H155.884V24.409C155.884 24.0142 155.79 23.7181 155.602 23.5207C155.414 23.3233 155.113 23.2246 154.7 23.2246C154.493 23.2246 154.22 23.2293 153.882 23.2387C153.543 23.2481 153.196 23.2622 152.838 23.281C152.481 23.2998 152.157 23.3186 151.866 23.3374V21.4339C152.082 21.4151 152.336 21.3963 152.627 21.3775C152.918 21.3587 153.219 21.3446 153.529 21.3352C153.84 21.3258 154.131 21.3211 154.404 21.3211C155.193 21.3211 155.856 21.4339 156.392 21.6595C156.937 21.8851 157.35 22.2282 157.632 22.6888C157.914 23.14 158.055 23.7228 158.055 24.4372V29.1748H156.265ZM153.797 29.3722C153.243 29.3722 152.754 29.2735 152.331 29.0761C151.917 28.8787 151.593 28.5967 151.358 28.2301C151.123 27.8541 151.005 27.4076 151.005 26.8906C151.005 26.3266 151.151 25.866 151.443 25.5088C151.734 25.1422 152.143 24.8743 152.669 24.7051C153.196 24.5265 153.802 24.4372 154.488 24.4372H156.138V25.6921H154.474C154.079 25.6921 153.774 25.7908 153.558 25.9882C153.351 26.1762 153.247 26.4347 153.247 26.7637C153.247 27.0739 153.351 27.3277 153.558 27.5251C153.774 27.7131 154.079 27.8071 154.474 27.8071C154.728 27.8071 154.953 27.7648 155.151 27.6802C155.358 27.5862 155.527 27.4311 155.658 27.2149C155.79 26.9987 155.865 26.6979 155.884 26.3125L156.42 26.8765C156.373 27.4123 156.241 27.8635 156.025 28.2301C155.818 28.5967 155.527 28.8787 155.151 29.0761C154.784 29.2735 154.333 29.3722 153.797 29.3722ZM163.48 29.2735C162.7 29.2735 162.07 29.1795 161.591 28.9915C161.112 28.7941 160.759 28.4698 160.533 28.0186C160.317 27.558 160.209 26.9376 160.209 26.1574V19.3612H162.31V26.242C162.31 26.6086 162.404 26.8906 162.592 27.088C162.789 27.276 163.067 27.37 163.424 27.37H164.566V29.2735H163.48ZM159.039 23.0977V21.448H164.566V23.0977H159.039ZM169.595 29.4427C168.937 29.4427 168.354 29.3299 167.846 29.1043C167.348 28.8787 166.93 28.5779 166.591 28.2019C166.262 27.8165 166.009 27.3888 165.83 26.9188C165.661 26.4394 165.576 25.9506 165.576 25.4524V25.1704C165.576 24.6534 165.661 24.1599 165.83 23.6899C166.009 23.2105 166.262 22.7828 166.591 22.4068C166.92 22.0308 167.329 21.7347 167.818 21.5185C168.316 21.2929 168.88 21.1801 169.51 21.1801C170.337 21.1801 171.033 21.3681 171.597 21.7441C172.17 22.1107 172.607 22.5948 172.908 23.1964C173.209 23.7886 173.359 24.4372 173.359 25.1422V25.9036H166.521V24.6205H171.992L171.259 25.2127C171.259 24.7521 171.193 24.3573 171.061 24.0283C170.93 23.6993 170.732 23.4502 170.469 23.281C170.215 23.1024 169.896 23.0131 169.51 23.0131C169.115 23.0131 168.782 23.1024 168.509 23.281C168.236 23.4596 168.03 23.7228 167.889 24.0706C167.748 24.409 167.677 24.8273 167.677 25.3255C167.677 25.7861 167.743 26.1903 167.875 26.5381C168.006 26.8765 168.213 27.1397 168.495 27.3277C168.777 27.5157 169.144 27.6097 169.595 27.6097C170.008 27.6097 170.347 27.5298 170.61 27.37C170.873 27.2102 171.052 27.0128 171.146 26.7778H173.218C173.106 27.2948 172.885 27.7554 172.556 28.1596C172.227 28.5638 171.813 28.8787 171.315 29.1043C170.817 29.3299 170.243 29.4427 169.595 29.4427ZM182.482 29.1748V26.8906H182.101V24.409C182.101 24.0142 182.007 23.7181 181.819 23.5207C181.631 23.3233 181.33 23.2246 180.917 23.2246C180.71 23.2246 180.437 23.2293 180.099 23.2387C179.761 23.2481 179.413 23.2622 179.056 23.281C178.698 23.2998 178.374 23.3186 178.083 23.3374V21.4339C178.299 21.4151 178.553 21.3963 178.844 21.3775C179.135 21.3587 179.436 21.3446 179.746 21.3352C180.057 21.3258 180.348 21.3211 180.621 21.3211C181.41 21.3211 182.073 21.4339 182.609 21.6595C183.154 21.8851 183.568 22.2282 183.85 22.6888C184.132 23.14 184.273 23.7228 184.273 24.4372V29.1748H182.482ZM180.014 29.3722C179.46 29.3722 178.971 29.2735 178.548 29.0761C178.134 28.8787 177.81 28.5967 177.575 28.2301C177.34 27.8541 177.223 27.4076 177.223 26.8906C177.223 26.3266 177.368 25.866 177.66 25.5088C177.951 25.1422 178.36 24.8743 178.886 24.7051C179.413 24.5265 180.019 24.4372 180.705 24.4372H182.355V25.6921H180.691C180.296 25.6921 179.991 25.7908 179.775 25.9882C179.568 26.1762 179.464 26.4347 179.464 26.7637C179.464 27.0739 179.568 27.3277 179.775 27.5251C179.991 27.7131 180.296 27.8071 180.691 27.8071C180.945 27.8071 181.171 27.7648 181.368 27.6802C181.575 27.5862 181.744 27.4311 181.876 27.2149C182.007 26.9987 182.082 26.6979 182.101 26.3125L182.637 26.8765C182.59 27.4123 182.458 27.8635 182.242 28.2301C182.035 28.5967 181.744 28.8787 181.368 29.0761C181.001 29.2735 180.55 29.3722 180.014 29.3722ZM189.147 29.1748V21.448H190.938V24.7756H190.811C190.811 23.986 190.91 23.328 191.107 22.8016C191.304 22.2752 191.601 21.8804 191.995 21.6172C192.39 21.3446 192.874 21.2083 193.448 21.2083H193.546C194.129 21.2083 194.613 21.3446 194.999 21.6172C195.393 21.8804 195.69 22.2752 195.887 22.8016C196.094 23.328 196.197 23.986 196.197 24.7756H195.647C195.647 23.986 195.746 23.328 195.943 22.8016C196.15 22.2752 196.451 21.8804 196.846 21.6172C197.241 21.3446 197.725 21.2083 198.298 21.2083H198.397C198.98 21.2083 199.468 21.3446 199.863 21.6172C200.267 21.8804 200.573 22.2752 200.78 22.8016C200.986 23.328 201.09 23.986 201.09 24.7756V29.1748H198.834V24.6487C198.834 24.2257 198.721 23.8826 198.495 23.6194C198.279 23.3562 197.969 23.2246 197.565 23.2246C197.161 23.2246 196.841 23.3609 196.606 23.6335C196.371 23.8967 196.254 24.2492 196.254 24.691V29.1748H193.983V24.6487C193.983 24.2257 193.871 23.8826 193.645 23.6194C193.429 23.3562 193.123 23.2246 192.729 23.2246C192.315 23.2246 191.991 23.3609 191.756 23.6335C191.521 23.8967 191.403 24.2492 191.403 24.691V29.1748H189.147ZM207.68 29.1748V26.8906H207.299V24.409C207.299 24.0142 207.205 23.7181 207.017 23.5207C206.829 23.3233 206.529 23.2246 206.115 23.2246C205.908 23.2246 205.636 23.2293 205.297 23.2387C204.959 23.2481 204.611 23.2622 204.254 23.281C203.897 23.2998 203.572 23.3186 203.281 23.3374V21.4339C203.497 21.4151 203.751 21.3963 204.042 21.3775C204.334 21.3587 204.635 21.3446 204.945 21.3352C205.255 21.3258 205.546 21.3211 205.819 21.3211C206.609 21.3211 207.271 21.4339 207.807 21.6595C208.352 21.8851 208.766 22.2282 209.048 22.6888C209.33 23.14 209.471 23.7228 209.471 24.4372V29.1748H207.68ZM205.213 29.3722C204.658 29.3722 204.169 29.2735 203.746 29.0761C203.333 28.8787 203.008 28.5967 202.773 28.2301C202.538 27.8541 202.421 27.4076 202.421 26.8906C202.421 26.3266 202.567 25.866 202.858 25.5088C203.149 25.1422 203.558 24.8743 204.085 24.7051C204.611 24.5265 205.217 24.4372 205.904 24.4372H207.553V25.6921H205.889C205.495 25.6921 205.189 25.7908 204.973 25.9882C204.766 26.1762 204.663 26.4347 204.663 26.7637C204.663 27.0739 204.766 27.3277 204.973 27.5251C205.189 27.7131 205.495 27.8071 205.889 27.8071C206.143 27.8071 206.369 27.7648 206.566 27.6802C206.773 27.5862 206.942 27.4311 207.074 27.2149C207.205 26.9987 207.281 26.6979 207.299 26.3125L207.835 26.8765C207.788 27.4123 207.657 27.8635 207.44 28.2301C207.234 28.5967 206.942 28.8787 206.566 29.0761C206.2 29.2735 205.748 29.3722 205.213 29.3722ZM214.318 29.4145C213.218 29.4145 212.358 29.1889 211.737 28.7377C211.117 28.2865 210.788 27.652 210.75 26.8342H212.753C212.79 27.0786 212.936 27.2995 213.19 27.4969C213.453 27.6849 213.843 27.7789 214.36 27.7789C214.755 27.7789 215.079 27.7131 215.333 27.5815C215.596 27.4405 215.728 27.2431 215.728 26.9893C215.728 26.7637 215.629 26.5851 215.432 26.4535C215.234 26.3125 214.882 26.2138 214.374 26.1574L213.768 26.101C212.837 26.007 212.137 25.7485 211.667 25.3255C211.206 24.9025 210.976 24.362 210.976 23.704C210.976 23.1588 211.112 22.7029 211.385 22.3363C211.658 21.9697 212.034 21.6924 212.513 21.5044C213.002 21.3164 213.556 21.2224 214.177 21.2224C215.173 21.2224 215.977 21.4433 216.588 21.8851C217.199 22.3175 217.518 22.9473 217.547 23.7745H215.544C215.507 23.5207 215.375 23.3092 215.15 23.14C214.924 22.9614 214.59 22.8721 214.149 22.8721C213.801 22.8721 213.523 22.9379 213.317 23.0695C213.11 23.2011 213.006 23.3797 213.006 23.6053C213.006 23.8215 213.096 23.986 213.274 24.0988C213.453 24.2116 213.744 24.2915 214.149 24.3385L214.755 24.3949C215.704 24.4983 216.442 24.7615 216.969 25.1845C217.495 25.6075 217.758 26.1762 217.758 26.8906C217.758 27.4076 217.617 27.8588 217.335 28.2442C217.053 28.6202 216.654 28.9116 216.137 29.1184C215.62 29.3158 215.013 29.4145 214.318 29.4145ZM222.731 29.2735C221.95 29.2735 221.321 29.1795 220.841 28.9915C220.362 28.7941 220.009 28.4698 219.784 28.0186C219.568 27.558 219.459 26.9376 219.459 26.1574V19.3612H221.56V26.242C221.56 26.6086 221.654 26.8906 221.842 27.088C222.04 27.276 222.317 27.37 222.674 27.37H223.816V29.2735H222.731ZM218.289 23.0977V21.448H223.816V23.0977H218.289ZM228.845 29.4427C228.187 29.4427 227.604 29.3299 227.097 29.1043C226.598 28.8787 226.18 28.5779 225.842 28.2019C225.513 27.8165 225.259 27.3888 225.08 26.9188C224.911 26.4394 224.827 25.9506 224.827 25.4524V25.1704C224.827 24.6534 224.911 24.1599 225.08 23.6899C225.259 23.2105 225.513 22.7828 225.842 22.4068C226.171 22.0308 226.58 21.7347 227.068 21.5185C227.567 21.2929 228.131 21.1801 228.76 21.1801C229.588 21.1801 230.283 21.3681 230.847 21.7441C231.421 22.1107 231.858 22.5948 232.159 23.1964C232.459 23.7886 232.61 24.4372 232.61 25.1422V25.9036H225.771V24.6205H231.242L230.509 25.2127C230.509 24.7521 230.443 24.3573 230.311 24.0283C230.18 23.6993 229.982 23.4502 229.719 23.281C229.465 23.1024 229.146 23.0131 228.76 23.0131C228.366 23.0131 228.032 23.1024 227.759 23.281C227.487 23.4596 227.28 23.7228 227.139 24.0706C226.998 24.409 226.927 24.8273 226.927 25.3255C226.927 25.7861 226.993 26.1903 227.125 26.5381C227.256 26.8765 227.463 27.1397 227.745 27.3277C228.027 27.5157 228.394 27.6097 228.845 27.6097C229.259 27.6097 229.597 27.5298 229.86 27.37C230.123 27.2102 230.302 27.0128 230.396 26.7778H232.469C232.356 27.2948 232.135 27.7554 231.806 28.1596C231.477 28.5638 231.063 28.8787 230.565 29.1043C230.067 29.3299 229.494 29.4427 228.845 29.4427ZM234.105 29.1748V21.448H235.895V24.7615H235.853C235.853 23.6711 236.083 22.8298 236.544 22.2376C237.014 21.6454 237.691 21.3493 238.574 21.3493H238.87V23.2951H238.306C237.686 23.2951 237.207 23.4643 236.868 23.8027C236.53 24.1317 236.361 24.6111 236.361 25.2409V29.1748H234.105ZM243 31.9948V21.448H244.79V24.7897L244.551 24.7756C244.588 24.0048 244.748 23.3562 245.03 22.8298C245.312 22.294 245.693 21.8945 246.172 21.6313C246.652 21.3587 247.192 21.2224 247.794 21.2224C248.33 21.2224 248.814 21.3211 249.246 21.5185C249.688 21.7159 250.064 21.9932 250.374 22.3504C250.694 22.6982 250.933 23.1118 251.093 23.5912C251.262 24.0612 251.347 24.5782 251.347 25.1422V25.4665C251.347 26.0211 251.267 26.5428 251.107 27.0316C250.947 27.511 250.712 27.9293 250.402 28.2865C250.101 28.6437 249.73 28.9257 249.288 29.1325C248.856 29.3299 248.358 29.4286 247.794 29.4286C247.211 29.4286 246.685 29.3111 246.215 29.0761C245.754 28.8317 245.383 28.4651 245.101 27.9763C244.819 27.4781 244.664 26.8483 244.635 26.0869L245.256 26.9329V31.9948H243ZM247.159 27.5392C247.545 27.5392 247.878 27.4452 248.16 27.2572C248.452 27.0692 248.677 26.806 248.837 26.4676C248.997 26.1292 249.077 25.7391 249.077 25.2973C249.077 24.8555 248.997 24.4701 248.837 24.1411C248.677 23.8121 248.456 23.5583 248.174 23.3797C247.892 23.1917 247.554 23.0977 247.159 23.0977C246.821 23.0977 246.501 23.1776 246.2 23.3374C245.9 23.4972 245.655 23.7275 245.467 24.0283C245.289 24.3197 245.199 24.6769 245.199 25.0999V25.6216C245.199 26.0258 245.293 26.3736 245.481 26.665C245.679 26.947 245.928 27.1632 246.229 27.3136C246.529 27.464 246.84 27.5392 247.159 27.5392ZM257.581 29.1748V26.8906H257.2V24.409C257.2 24.0142 257.106 23.7181 256.918 23.5207C256.73 23.3233 256.429 23.2246 256.016 23.2246C255.809 23.2246 255.536 23.2293 255.198 23.2387C254.86 23.2481 254.512 23.2622 254.155 23.281C253.797 23.2998 253.473 23.3186 253.182 23.3374V21.4339C253.398 21.4151 253.652 21.3963 253.943 21.3775C254.235 21.3587 254.535 21.3446 254.846 21.3352C255.156 21.3258 255.447 21.3211 255.72 21.3211C256.509 21.3211 257.172 21.4339 257.708 21.6595C258.253 21.8851 258.667 22.2282 258.949 22.6888C259.231 23.14 259.372 23.7228 259.372 24.4372V29.1748H257.581ZM255.113 29.3722C254.559 29.3722 254.07 29.2735 253.647 29.0761C253.233 28.8787 252.909 28.5967 252.674 28.2301C252.439 27.8541 252.322 27.4076 252.322 26.8906C252.322 26.3266 252.467 25.866 252.759 25.5088C253.05 25.1422 253.459 24.8743 253.985 24.7051C254.512 24.5265 255.118 24.4372 255.804 24.4372H257.454V25.6921H255.79C255.395 25.6921 255.09 25.7908 254.874 25.9882C254.667 26.1762 254.564 26.4347 254.564 26.7637C254.564 27.0739 254.667 27.3277 254.874 27.5251C255.09 27.7131 255.395 27.8071 255.79 27.8071C256.044 27.8071 256.27 27.7648 256.467 27.6802C256.674 27.5862 256.843 27.4311 256.975 27.2149C257.106 26.9987 257.181 26.6979 257.2 26.3125L257.736 26.8765C257.689 27.4123 257.557 27.8635 257.341 28.2301C257.134 28.5967 256.843 28.8787 256.467 29.0761C256.1 29.2735 255.649 29.3722 255.113 29.3722ZM264.218 29.4145C263.119 29.4145 262.259 29.1889 261.638 28.7377C261.018 28.2865 260.689 27.652 260.651 26.8342H262.653C262.691 27.0786 262.837 27.2995 263.09 27.4969C263.354 27.6849 263.744 27.7789 264.261 27.7789C264.656 27.7789 264.98 27.7131 265.234 27.5815C265.497 27.4405 265.628 27.2431 265.628 26.9893C265.628 26.7637 265.53 26.5851 265.332 26.4535C265.135 26.3125 264.782 26.2138 264.275 26.1574L263.669 26.101C262.738 26.007 262.038 25.7485 261.568 25.3255C261.107 24.9025 260.877 24.362 260.877 23.704C260.877 23.1588 261.013 22.7029 261.286 22.3363C261.558 21.9697 261.934 21.6924 262.414 21.5044C262.902 21.3164 263.457 21.2224 264.077 21.2224C265.074 21.2224 265.878 21.4433 266.489 21.8851C267.1 22.3175 267.419 22.9473 267.447 23.7745H265.445C265.408 23.5207 265.276 23.3092 265.05 23.14C264.825 22.9614 264.491 22.8721 264.049 22.8721C263.701 22.8721 263.424 22.9379 263.217 23.0695C263.011 23.2011 262.907 23.3797 262.907 23.6053C262.907 23.8215 262.996 23.986 263.175 24.0988C263.354 24.2116 263.645 24.2915 264.049 24.3385L264.656 24.3949C265.605 24.4983 266.343 24.7615 266.869 25.1845C267.396 25.6075 267.659 26.1762 267.659 26.8906C267.659 27.4076 267.518 27.8588 267.236 28.2442C266.954 28.6202 266.554 28.9116 266.037 29.1184C265.52 29.3158 264.914 29.4145 264.218 29.4145ZM272.053 29.4145C270.954 29.4145 270.093 29.1889 269.473 28.7377C268.853 28.2865 268.524 27.652 268.486 26.8342H270.488C270.526 27.0786 270.672 27.2995 270.925 27.4969C271.189 27.6849 271.579 27.7789 272.096 27.7789C272.49 27.7789 272.815 27.7131 273.069 27.5815C273.332 27.4405 273.463 27.2431 273.463 26.9893C273.463 26.7637 273.365 26.5851 273.167 26.4535C272.97 26.3125 272.617 26.2138 272.11 26.1574L271.503 26.101C270.573 26.007 269.873 25.7485 269.403 25.3255C268.942 24.9025 268.712 24.362 268.712 23.704C268.712 23.1588 268.848 22.7029 269.121 22.3363C269.393 21.9697 269.769 21.6924 270.249 21.5044C270.737 21.3164 271.292 21.2224 271.912 21.2224C272.909 21.2224 273.712 21.4433 274.323 21.8851C274.934 22.3175 275.254 22.9473 275.282 23.7745H273.28C273.242 23.5207 273.111 23.3092 272.885 23.14C272.66 22.9614 272.326 22.8721 271.884 22.8721C271.536 22.8721 271.259 22.9379 271.052 23.0695C270.845 23.2011 270.742 23.3797 270.742 23.6053C270.742 23.8215 270.831 23.986 271.01 24.0988C271.189 24.2116 271.48 24.2915 271.884 24.3385L272.49 24.3949C273.44 24.4983 274.178 24.7615 274.704 25.1845C275.231 25.6075 275.494 26.1762 275.494 26.8906C275.494 27.4076 275.353 27.8588 275.071 28.2442C274.789 28.6202 274.389 28.9116 273.872 29.1184C273.355 29.3158 272.749 29.4145 272.053 29.4145ZM279.707 29.1748L281.117 21.7018H283.584L285.22 29.1748H283.472L281.794 21.7582H282.795L281.286 29.1748H279.707ZM279.171 29.1748L279.157 27.2995H280.708L280.722 29.1748H279.171ZM278.156 29.1748L276.083 21.448H278.297L280.229 29.1748H278.156ZM284.05 29.1748L284.064 27.2995H285.615V29.1748H284.05ZM284.684 29.1748L286.404 21.448H288.477L286.616 29.1748H284.684ZM293.457 29.4427C292.78 29.4427 292.179 29.3393 291.652 29.1325C291.126 28.9163 290.679 28.6249 290.313 28.2583C289.955 27.8917 289.683 27.4734 289.495 27.0034C289.307 26.524 289.213 26.0211 289.213 25.4947V25.1704C289.213 24.6346 289.307 24.127 289.495 23.6476C289.692 23.1588 289.974 22.7311 290.341 22.3645C290.717 21.9979 291.168 21.7112 291.694 21.5044C292.221 21.2882 292.808 21.1801 293.457 21.1801C294.124 21.1801 294.717 21.2882 295.234 21.5044C295.76 21.7112 296.206 21.9979 296.573 22.3645C296.94 22.7311 297.222 23.1588 297.419 23.6476C297.616 24.127 297.715 24.6346 297.715 25.1704V25.4947C297.715 26.0211 297.621 26.524 297.433 27.0034C297.245 27.4734 296.968 27.8917 296.601 28.2583C296.244 28.6249 295.802 28.9163 295.276 29.1325C294.749 29.3393 294.143 29.4427 293.457 29.4427ZM293.457 27.5392C293.899 27.5392 294.265 27.4452 294.557 27.2572C294.848 27.0692 295.069 26.806 295.219 26.4676C295.379 26.1292 295.459 25.7532 295.459 25.3396C295.459 24.8978 295.379 24.5124 295.219 24.1834C295.06 23.845 294.829 23.5771 294.529 23.3797C294.237 23.1823 293.88 23.0836 293.457 23.0836C293.043 23.0836 292.686 23.1823 292.385 23.3797C292.085 23.5771 291.854 23.845 291.694 24.1834C291.544 24.5124 291.469 24.8978 291.469 25.3396C291.469 25.7532 291.544 26.1292 291.694 26.4676C291.845 26.806 292.07 27.0692 292.371 27.2572C292.672 27.4452 293.034 27.5392 293.457 27.5392ZM299.29 29.1748V21.448H301.08V24.7615H301.038C301.038 23.6711 301.268 22.8298 301.729 22.2376C302.199 21.6454 302.876 21.3493 303.759 21.3493H304.055V23.2951H303.491C302.871 23.2951 302.392 23.4643 302.053 23.8027C301.715 24.1317 301.546 24.6111 301.546 25.2409V29.1748H299.29ZM308.37 29.4286C307.824 29.4286 307.326 29.3299 306.875 29.1325C306.433 28.9351 306.048 28.6625 305.719 28.3147C305.39 27.9575 305.136 27.5392 304.957 27.0598C304.788 26.5804 304.704 26.0634 304.704 25.5088V25.1845C304.704 24.6299 304.783 24.1129 304.943 23.6335C305.112 23.1541 305.352 22.7358 305.662 22.3786C305.982 22.012 306.363 21.73 306.804 21.5326C307.246 21.3258 307.74 21.2224 308.285 21.2224C308.905 21.2224 309.441 21.3587 309.892 21.6313C310.344 21.8945 310.696 22.2893 310.95 22.8157C311.204 23.3327 311.345 23.9719 311.373 24.7333L310.781 24.1834V18.8818H313.051V29.1748H311.26V25.9741H311.57C311.542 26.7073 311.387 27.3324 311.105 27.8494C310.832 28.3664 310.461 28.7612 309.991 29.0338C309.521 29.297 308.981 29.4286 308.37 29.4286ZM308.934 27.5392C309.281 27.5392 309.596 27.464 309.878 27.3136C310.17 27.1538 310.4 26.9235 310.569 26.6227C310.748 26.3219 310.837 25.96 310.837 25.537V25.0153C310.837 24.6017 310.748 24.2539 310.569 23.9719C310.391 23.6899 310.156 23.4737 309.864 23.3233C309.573 23.1729 309.258 23.0977 308.919 23.0977C308.543 23.0977 308.205 23.1964 307.904 23.3938C307.613 23.5818 307.383 23.845 307.213 24.1834C307.044 24.5124 306.96 24.8978 306.96 25.3396C306.96 25.7908 307.044 26.1809 307.213 26.5099C307.383 26.8389 307.618 27.0927 307.918 27.2713C308.219 27.4499 308.558 27.5392 308.934 27.5392Z" fill="white"/>
<line y1="48.9584" x2="438.667" y2="48.9584" stroke="white" stroke-opacity="0.1" stroke-width="0.783333"/>
<mask id="path-4-inside-1_18700_24938" fill="white">
<path fill-rule="evenodd" clip-rule="evenodd" d="M55.8869 81H395.455C399.07 81 402 83.9305 402 87.5455V116.01C402 117.896 401.186 119.691 399.767 120.934L387.426 131.742C386.232 132.787 384.7 133.364 383.113 133.364H43.5454C39.9305 133.364 37 130.433 37 126.818V98.354C37 96.4675 37.8139 94.6728 39.233 93.4299L51.5745 82.6214C52.7679 81.5762 54.3004 81 55.8869 81Z"/>
</mask>
<path fill-rule="evenodd" clip-rule="evenodd" d="M55.8869 81H395.455C399.07 81 402 83.9305 402 87.5455V116.01C402 117.896 401.186 119.691 399.767 120.934L387.426 131.742C386.232 132.787 384.7 133.364 383.113 133.364H43.5454C39.9305 133.364 37 130.433 37 126.818V98.354C37 96.4675 37.8139 94.6728 39.233 93.4299L51.5745 82.6214C52.7679 81.5762 54.3004 81 55.8869 81Z" fill="white" fill-opacity="0.05"/>
<path d="M399.767 120.934L400.306 121.549L399.767 120.934ZM387.426 131.742L387.965 132.358V132.358L387.426 131.742ZM39.233 93.4299L39.7721 94.0454H39.7721L39.233 93.4299ZM51.5745 82.6214L51.0354 82.0059V82.0059L51.5745 82.6214ZM395.455 80.1818H55.8869V81.8182H395.455V80.1818ZM402.818 87.5455C402.818 83.4786 399.521 80.1818 395.455 80.1818V81.8182C398.618 81.8182 401.182 84.3824 401.182 87.5455H402.818ZM402.818 116.01V87.5455H401.182V116.01H402.818ZM400.306 121.549C401.903 120.151 402.818 118.132 402.818 116.01H401.182C401.182 117.66 400.47 119.231 399.228 120.318L400.306 121.549ZM387.965 132.358L400.306 121.549L399.228 120.318L386.886 131.127L387.965 132.358ZM383.113 134.182C384.898 134.182 386.622 133.534 387.965 132.358L386.886 131.127C385.842 132.041 384.501 132.545 383.113 132.545V134.182ZM43.5454 134.182H383.113V132.545H43.5454V134.182ZM36.1818 126.818C36.1818 130.885 39.4786 134.182 43.5454 134.182V132.545C40.3824 132.545 37.8182 129.981 37.8182 126.818H36.1818ZM36.1818 98.354V126.818H37.8182V98.354H36.1818ZM38.694 92.8144C37.0975 94.2127 36.1818 96.2317 36.1818 98.354H37.8182C37.8182 96.7033 38.5303 95.133 39.7721 94.0454L38.694 92.8144ZM51.0354 82.0059L38.694 92.8144L39.7721 94.0454L52.1135 83.2369L51.0354 82.0059ZM55.8869 80.1818C54.1021 80.1818 52.3781 80.83 51.0354 82.0059L52.1135 83.2369C53.1578 82.3224 54.4987 81.8182 55.8869 81.8182V80.1818Z" fill="#00EE77" mask="url(#path-4-inside-1_18700_24938)"/>
<path d="M56.6233 103.818V96.6511H59.2644L61.9644 102.513H62.2982L62.1018 102.689V96.6511H63.6138V103.818H60.9531L58.2531 97.9569H57.9193L58.1156 97.7802V103.818H56.6233ZM65.0274 103.818V96.6511H66.5983V103.818H65.0274ZM66.4019 103.818V102.483H69.5339V103.818H66.4019ZM66.4019 100.843V99.5082H69.3081V100.843H66.4019ZM66.4019 97.9864V96.6511H69.4652V97.9864H66.4019ZM71.8289 103.818L70.0617 96.6511H71.7209L73.1053 102.738L72.7617 102.513H73.6551L73.2722 102.738L74.3424 96.9162H75.6777L74.2737 103.818H71.8289ZM76.0999 103.818L74.5879 96.9162H75.9919L77.2289 102.738L76.8559 102.513H77.71L77.386 102.738L78.5937 96.6511H80.1646L78.5937 103.818H76.0999ZM84.2612 101.275V99.8813H86.0874C86.3034 99.8813 86.4801 99.8453 86.6176 99.7733C86.7616 99.7013 86.8696 99.5933 86.9416 99.4493C87.0136 99.3053 87.0496 99.1351 87.0496 98.9387C87.0496 98.7293 87.0136 98.5558 86.9416 98.4184C86.8696 98.2744 86.7616 98.1664 86.6176 98.0944C86.4801 98.0224 86.3034 97.9864 86.0874 97.9864H84.2612V96.5922H85.999C86.5227 96.5922 86.9874 96.6773 87.3932 96.8474C87.799 97.0176 88.1132 97.2696 88.3358 97.6035C88.5649 97.9373 88.6794 98.3562 88.6794 98.8602V99.0173C88.6794 99.5082 88.5649 99.9238 88.3358 100.264C88.1132 100.598 87.799 100.85 87.3932 101.02C86.9939 101.19 86.5292 101.275 85.999 101.275H84.2612ZM82.8474 103.818V96.5922H84.4576V103.818H82.8474ZM88.1962 103.818L90.5624 96.6511H93.1642L95.6188 103.818H93.9497L91.9664 97.7605L92.477 97.9667H91.2104L91.7406 97.7605L89.8064 103.818H88.1962ZM89.993 102.041L90.4839 100.706H93.2919L93.7926 102.041H89.993ZM98.8128 104.005C98.1648 104.005 97.6183 103.903 97.1732 103.701C96.7281 103.491 96.391 103.21 96.1619 102.856C95.9328 102.496 95.8183 102.084 95.8183 101.619H97.3794C97.3794 101.802 97.4285 101.973 97.5267 102.13C97.6314 102.287 97.7885 102.414 97.9979 102.513C98.2074 102.604 98.479 102.65 98.8128 102.65C99.1139 102.65 99.3659 102.611 99.5688 102.532C99.7717 102.454 99.9256 102.346 100.03 102.208C100.135 102.064 100.187 101.901 100.187 101.717C100.187 101.488 100.089 101.308 99.8928 101.177C99.6965 101.04 99.379 100.951 98.9405 100.912L98.4005 100.863C97.687 100.804 97.1176 100.582 96.6921 100.195C96.2667 99.8093 96.0539 99.2987 96.0539 98.6638C96.0539 98.2056 96.1619 97.8096 96.3779 97.4758C96.6005 97.142 96.9081 96.8867 97.3008 96.71C97.6936 96.5267 98.1583 96.4351 98.695 96.4351C99.2579 96.4351 99.739 96.5333 100.138 96.7296C100.544 96.9194 100.855 97.1911 101.071 97.5445C101.287 97.8914 101.395 98.3005 101.395 98.7718H99.8241C99.8241 98.5951 99.7816 98.4347 99.6965 98.2907C99.6114 98.1402 99.4837 98.0191 99.3136 97.9274C99.1499 97.8358 98.9437 97.79 98.695 97.79C98.4594 97.79 98.2597 97.8293 98.0961 97.9078C97.939 97.9864 97.8212 98.0944 97.7427 98.2318C97.6641 98.3627 97.6248 98.5067 97.6248 98.6638C97.6248 98.8667 97.6968 99.0435 97.8408 99.194C97.9848 99.3445 98.2205 99.4329 98.5477 99.4591L99.0976 99.5082C99.6212 99.554 100.083 99.6685 100.482 99.8518C100.881 100.029 101.192 100.274 101.415 100.588C101.644 100.896 101.758 101.272 101.758 101.717C101.758 102.175 101.637 102.578 101.395 102.925C101.159 103.265 100.822 103.53 100.384 103.72C99.9452 103.91 99.4216 104.005 98.8128 104.005ZM105.165 104.005C104.517 104.005 103.971 103.903 103.525 103.701C103.08 103.491 102.743 103.21 102.514 102.856C102.285 102.496 102.171 102.084 102.171 101.619H103.732C103.732 101.802 103.781 101.973 103.879 102.13C103.984 102.287 104.141 102.414 104.35 102.513C104.56 102.604 104.831 102.65 105.165 102.65C105.466 102.65 105.718 102.611 105.921 102.532C106.124 102.454 106.278 102.346 106.383 102.208C106.487 102.064 106.54 101.901 106.54 101.717C106.54 101.488 106.441 101.308 106.245 101.177C106.049 101.04 105.731 100.951 105.293 100.912L104.753 100.863C104.039 100.804 103.47 100.582 103.044 100.195C102.619 99.8093 102.406 99.2987 102.406 98.6638C102.406 98.2056 102.514 97.8096 102.73 97.4758C102.953 97.142 103.26 96.8867 103.653 96.71C104.046 96.5267 104.511 96.4351 105.047 96.4351C105.61 96.4351 106.091 96.5333 106.491 96.7296C106.896 96.9194 107.207 97.1911 107.423 97.5445C107.639 97.8914 107.747 98.3005 107.747 98.7718H106.176C106.176 98.5951 106.134 98.4347 106.049 98.2907C105.964 98.1402 105.836 98.0191 105.666 97.9274C105.502 97.8358 105.296 97.79 105.047 97.79C104.812 97.79 104.612 97.8293 104.448 97.9078C104.291 97.9864 104.173 98.0944 104.095 98.2318C104.016 98.3627 103.977 98.5067 103.977 98.6638C103.977 98.8667 104.049 99.0435 104.193 99.194C104.337 99.3445 104.573 99.4329 104.9 99.4591L105.45 99.5082C105.973 99.554 106.435 99.6685 106.834 99.8518C107.233 100.029 107.544 100.274 107.767 100.588C107.996 100.896 108.111 101.272 108.111 101.717C108.111 102.175 107.989 102.578 107.747 102.925C107.512 103.265 107.175 103.53 106.736 103.72C106.297 103.91 105.774 104.005 105.165 104.005ZM110.039 103.818L108.271 96.6511H109.931L111.315 102.738L110.971 102.513H111.865L111.482 102.738L112.552 96.9162H113.887L112.483 103.818H110.039ZM114.309 103.818L112.797 96.9162H114.201L115.439 102.738L115.065 102.513H115.92L115.596 102.738L116.803 96.6511H118.374L116.803 103.818H114.309ZM122.494 104.005C121.846 104.005 121.28 103.894 120.796 103.671C120.318 103.442 119.922 103.144 119.608 102.778C119.293 102.405 119.058 102.002 118.901 101.57C118.75 101.138 118.675 100.722 118.675 100.323V100.107C118.675 99.662 118.753 99.2235 118.91 98.7914C119.074 98.3529 119.316 97.9569 119.637 97.6035C119.958 97.25 120.357 96.9685 120.835 96.7591C121.313 96.5431 121.866 96.4351 122.494 96.4351C123.122 96.4351 123.676 96.5431 124.153 96.7591C124.631 96.9685 125.03 97.25 125.351 97.6035C125.672 97.9569 125.914 98.3529 126.078 98.7914C126.241 99.2235 126.323 99.662 126.323 100.107V100.323C126.323 100.722 126.245 101.138 126.088 101.57C125.93 102.002 125.695 102.405 125.381 102.778C125.066 103.144 124.667 103.442 124.183 103.671C123.705 103.894 123.142 104.005 122.494 104.005ZM122.494 102.503C122.834 102.503 123.139 102.444 123.407 102.326C123.682 102.208 123.914 102.045 124.104 101.835C124.301 101.626 124.448 101.383 124.546 101.109C124.644 100.834 124.693 100.539 124.693 100.225C124.693 99.8911 124.641 99.5867 124.536 99.3118C124.438 99.0304 124.291 98.7882 124.094 98.5853C123.905 98.3758 123.676 98.2155 123.407 98.1042C123.139 97.9929 122.834 97.9373 122.494 97.9373C122.154 97.9373 121.849 97.9929 121.581 98.1042C121.313 98.2155 121.08 98.3758 120.884 98.5853C120.694 98.7882 120.55 99.0304 120.452 99.3118C120.354 99.5867 120.305 99.8911 120.305 100.225C120.305 100.539 120.354 100.834 120.452 101.109C120.55 101.383 120.694 101.626 120.884 101.835C121.08 102.045 121.313 102.208 121.581 102.326C121.849 102.444 122.154 102.503 122.494 102.503ZM127.347 103.818V96.5922H128.957V103.818H127.347ZM131.618 103.818L130.224 100.755H131.981L133.414 103.818H131.618ZM128.761 101.187V99.9205H130.626C130.947 99.9205 131.186 99.8355 131.343 99.6653C131.506 99.4951 131.588 99.2562 131.588 98.9485C131.588 98.6409 131.506 98.4053 131.343 98.2416C131.179 98.0714 130.94 97.9864 130.626 97.9864H128.761V96.5922H130.538C131.068 96.5922 131.533 96.674 131.932 96.8376C132.338 97.0013 132.652 97.2467 132.874 97.574C133.104 97.9013 133.218 98.3136 133.218 98.8111V98.9682C133.218 99.4656 133.104 99.8813 132.874 100.215C132.652 100.542 132.341 100.788 131.942 100.951C131.542 101.109 131.074 101.187 130.538 101.187H128.761ZM135.822 103.858V102.355H137.158C137.491 102.355 137.793 102.306 138.061 102.208C138.329 102.103 138.558 101.959 138.748 101.776C138.938 101.586 139.082 101.361 139.18 101.099C139.278 100.83 139.327 100.536 139.327 100.215C139.327 99.8813 139.278 99.5835 139.18 99.3216C139.082 99.0598 138.938 98.8373 138.748 98.654C138.558 98.4707 138.329 98.3333 138.061 98.2416C137.793 98.1435 137.491 98.0944 137.158 98.0944H135.822V96.5922H137.069C137.717 96.5922 138.283 96.6871 138.768 96.8769C139.252 97.0667 139.658 97.3253 139.985 97.6525C140.313 97.9798 140.555 98.3562 140.712 98.7816C140.875 99.2005 140.957 99.6424 140.957 100.107V100.323C140.957 100.755 140.875 101.184 140.712 101.609C140.555 102.028 140.313 102.408 139.985 102.748C139.658 103.082 139.252 103.35 138.768 103.553C138.283 103.756 137.717 103.858 137.069 103.858H135.822ZM134.409 103.858V96.5922H136.019V103.858H134.409Z" fill="white" fill-opacity="0.75"/>
<path d="M59.9418 119.779V116.899L57.4284 118.339L56.4858 116.69L58.9731 115.25L56.4858 113.81L57.4284 112.161L59.9418 113.601V110.721H61.8531V113.601L64.3404 112.161L65.2829 113.81L62.7956 115.25L65.2829 116.69L64.3404 118.339L61.8531 116.899V119.779H59.9418ZM70.0796 119.779V116.899L67.5661 118.339L66.6236 116.69L69.1109 115.25L66.6236 113.81L67.5661 112.161L70.0796 113.601V110.721H71.9909V113.601L74.4781 112.161L75.4207 113.81L72.9334 115.25L75.4207 116.69L74.4781 118.339L71.9909 116.899V119.779H70.0796ZM80.2174 119.779V116.899L77.7039 118.339L76.7614 116.69L79.2487 115.25L76.7614 113.81L77.7039 112.161L80.2174 113.601V110.721H82.1287V113.601L84.6159 112.161L85.5585 113.81L83.0712 115.25L85.5585 116.69L84.6159 118.339L82.1287 116.899V119.779H80.2174ZM90.3552 119.779V116.899L87.8417 118.339L86.8992 116.69L89.3864 115.25L86.8992 113.81L87.8417 112.161L90.3552 113.601V110.721H92.2664V113.601L94.7537 112.161L95.6963 113.81L93.209 115.25L95.6963 116.69L94.7537 118.339L92.2664 116.899V119.779H90.3552ZM100.493 119.779V116.899L97.9795 118.339L97.0369 116.69L99.5242 115.25L97.0369 113.81L97.9795 112.161L100.493 113.601V110.721H102.404V113.601L104.891 112.161L105.834 113.81L103.347 115.25L105.834 116.69L104.891 118.339L102.404 116.899V119.779H100.493ZM110.631 119.779V116.899L108.117 118.339L107.175 116.69L109.662 115.25L107.175 113.81L108.117 112.161L110.631 113.601V110.721H112.542V113.601L115.029 112.161L115.972 113.81L113.485 115.25L115.972 116.69L115.029 118.339L112.542 116.899V119.779H110.631ZM120.769 119.779V116.899L118.255 118.339L117.313 116.69L119.8 115.25L117.313 113.81L118.255 112.161L120.769 113.601V110.721H122.68V113.601L125.167 112.161L126.11 113.81L123.622 115.25L126.11 116.69L125.167 118.339L122.68 116.899V119.779H120.769ZM130.906 119.779V116.899L128.393 118.339L127.45 116.69L129.938 115.25L127.45 113.81L128.393 112.161L130.906 113.601V110.721H132.818V113.601L135.305 112.161L136.247 113.81L133.76 115.25L136.247 116.69L135.305 118.339L132.818 116.899V119.779H130.906Z" fill="#BB77FF"/>
<path fill-rule="evenodd" clip-rule="evenodd" d="M59.9091 146.455C55.3927 146.455 51.7273 150.12 51.7273 154.636C51.7273 159.153 55.3927 162.818 59.9091 162.818C64.4255 162.818 68.0909 159.153 68.0909 154.636C68.0909 150.12 64.4255 146.455 59.9091 146.455ZM60.7273 158.727H59.0909V153.818H60.7273V158.727ZM59.0909 152.182H60.7273V150.545H59.0909V152.182Z" fill="#00EE77"/>
<path d="M81.0198 158.843C80.3249 158.843 79.7331 158.728 79.2444 158.499C78.7556 158.27 78.3815 157.953 78.1218 157.549C77.8622 157.144 77.7324 156.686 77.7324 156.174H78.8549C78.8549 156.426 78.9198 156.678 79.0496 156.93C79.1871 157.182 79.4124 157.392 79.7255 157.56C80.0462 157.728 80.4776 157.812 81.0198 157.812C81.5238 157.812 81.9362 157.739 82.2569 157.594C82.5776 157.442 82.8144 157.247 82.9671 157.01C83.1198 156.766 83.1962 156.502 83.1962 156.22C83.1962 155.876 83.0473 155.594 82.7495 155.372C82.4516 155.143 82.0164 155.002 81.4436 154.948L80.5158 154.868C79.7751 154.807 79.1833 154.578 78.7404 154.181C78.2975 153.784 78.076 153.261 78.076 152.612C78.076 152.1 78.1982 151.653 78.4425 151.271C78.6945 150.89 79.042 150.592 79.4849 150.378C79.9278 150.157 80.4433 150.046 81.0313 150.046C81.6116 150.046 82.1233 150.153 82.5662 150.367C83.0091 150.58 83.3527 150.882 83.5971 151.271C83.8491 151.653 83.9751 152.111 83.9751 152.646H82.8525C82.8525 152.379 82.7876 152.127 82.6578 151.89C82.5356 151.653 82.3409 151.459 82.0736 151.306C81.8064 151.153 81.4589 151.077 81.0313 151.077C80.6189 151.077 80.2753 151.149 80.0004 151.294C79.7331 151.439 79.5307 151.63 79.3933 151.867C79.2635 152.096 79.1985 152.344 79.1985 152.612C79.1985 152.917 79.3169 153.188 79.5536 153.425C79.7904 153.662 80.1416 153.799 80.6075 153.837L81.5353 153.917C82.108 153.963 82.6005 154.085 83.0129 154.284C83.4329 154.475 83.7536 154.735 83.9751 155.063C84.2042 155.384 84.3187 155.769 84.3187 156.22C84.3187 156.731 84.1813 157.186 83.9064 157.583C83.6315 157.98 83.2458 158.289 82.7495 158.511C82.2531 158.732 81.6765 158.843 81.0198 158.843ZM88.4246 158.705C87.9665 158.705 87.5694 158.641 87.2334 158.511C86.905 158.381 86.6492 158.159 86.4659 157.846C86.2903 157.526 86.2025 157.094 86.2025 156.552V150.664H87.2563V156.689C87.2563 157.018 87.3441 157.274 87.5197 157.457C87.703 157.633 87.9588 157.72 88.2872 157.72H89.3639V158.705H88.4246ZM85.1486 153.345V152.52H89.3639V153.345H85.1486ZM90.9192 158.637V152.52H91.7898V155.04H91.744C91.744 154.147 91.9387 153.494 92.3281 153.081C92.7252 152.661 93.3171 152.451 94.1036 152.451H94.3098V153.436H93.9203C93.3094 153.436 92.8398 153.601 92.5114 153.929C92.1831 154.25 92.0189 154.715 92.0189 155.326V158.637H90.9192ZM98.3681 158.843C97.8335 158.843 97.3639 158.751 96.9592 158.568C96.5545 158.385 96.2108 158.144 95.9283 157.846C95.6534 157.541 95.4434 157.201 95.2983 156.827C95.1608 156.453 95.0921 156.071 95.0921 155.681V155.475C95.0921 155.086 95.1646 154.704 95.3097 154.33C95.4548 153.948 95.6686 153.608 95.9512 153.31C96.2337 153.005 96.5774 152.764 96.9821 152.589C97.3868 152.405 97.8488 152.314 98.3681 152.314C98.8874 152.314 99.3494 152.405 99.7541 152.589C100.159 152.764 100.502 153.005 100.785 153.31C101.068 153.608 101.281 153.948 101.426 154.33C101.572 154.704 101.644 155.086 101.644 155.475V155.681C101.644 156.071 101.572 156.453 101.426 156.827C101.289 157.201 101.079 157.541 100.796 157.846C100.522 158.144 100.182 158.385 99.777 158.568C99.3723 158.751 98.9026 158.843 98.3681 158.843ZM98.3681 157.858C98.8263 157.858 99.2157 157.759 99.5365 157.56C99.8648 157.354 100.113 157.079 100.281 156.735C100.457 156.392 100.544 156.006 100.544 155.578C100.544 155.143 100.457 154.754 100.281 154.41C100.105 154.066 99.8534 153.795 99.525 153.597C99.2043 153.398 98.8186 153.299 98.3681 153.299C97.9252 153.299 97.5395 153.398 97.2112 153.597C96.8828 153.795 96.6308 154.066 96.4552 154.41C96.2795 154.754 96.1917 155.143 96.1917 155.578C96.1917 156.006 96.2757 156.392 96.4437 156.735C96.6194 157.079 96.8675 157.354 97.1883 157.56C97.5166 157.759 97.9099 157.858 98.3681 157.858ZM103.291 158.637V152.52H104.162V155.143H104.024C104.024 154.54 104.104 154.032 104.265 153.62C104.433 153.2 104.685 152.883 105.021 152.669C105.357 152.447 105.78 152.337 106.292 152.337H106.338C107.109 152.337 107.678 152.577 108.045 153.058C108.419 153.539 108.606 154.234 108.606 155.143V158.637H107.506V154.914C107.506 154.441 107.373 154.063 107.105 153.78C106.838 153.49 106.472 153.345 106.006 153.345C105.525 153.345 105.135 153.494 104.837 153.791C104.54 154.089 104.391 154.486 104.391 154.983V158.637H103.291ZM112.932 161.019C112.649 161.019 112.363 161.008 112.073 160.985C111.79 160.962 111.519 160.931 111.259 160.893V159.965C111.534 160.004 111.821 160.034 112.118 160.057C112.424 160.088 112.71 160.103 112.978 160.103C113.535 160.103 113.978 160.027 114.306 159.874C114.642 159.729 114.883 159.496 115.028 159.175C115.181 158.862 115.257 158.457 115.257 157.961V156.793L115.624 155.922C115.601 156.541 115.471 157.056 115.234 157.468C114.997 157.873 114.688 158.179 114.306 158.385C113.932 158.583 113.516 158.683 113.058 158.683C112.63 158.683 112.237 158.602 111.878 158.442C111.527 158.274 111.221 158.045 110.962 157.755C110.71 157.465 110.511 157.132 110.366 156.758C110.228 156.376 110.16 155.975 110.16 155.555V155.349C110.16 154.922 110.232 154.525 110.377 154.158C110.522 153.784 110.725 153.459 110.984 153.184C111.244 152.909 111.553 152.696 111.912 152.543C112.279 152.39 112.68 152.314 113.115 152.314C113.627 152.314 114.077 152.425 114.467 152.646C114.856 152.86 115.162 153.177 115.383 153.597C115.612 154.009 115.738 154.517 115.761 155.12L115.44 155.132V152.52H116.311V157.915C116.311 158.648 116.196 159.24 115.967 159.691C115.746 160.149 115.387 160.485 114.89 160.699C114.402 160.912 113.749 161.019 112.932 161.019ZM113.264 157.675C113.63 157.675 113.963 157.594 114.26 157.434C114.566 157.274 114.806 157.045 114.982 156.747C115.165 156.441 115.257 156.079 115.257 155.659V155.132C115.257 154.719 115.162 154.372 114.971 154.089C114.787 153.807 114.547 153.593 114.249 153.448C113.951 153.303 113.627 153.23 113.275 153.23C112.878 153.23 112.527 153.322 112.222 153.505C111.916 153.688 111.679 153.948 111.511 154.284C111.343 154.612 111.259 155.002 111.259 155.452C111.259 155.903 111.343 156.296 111.511 156.632C111.687 156.968 111.924 157.228 112.222 157.411C112.527 157.587 112.874 157.675 113.264 157.675ZM120.954 160.928V152.52H121.824V155.166L121.618 155.143C121.656 154.486 121.794 153.952 122.031 153.539C122.275 153.119 122.592 152.81 122.981 152.612C123.371 152.413 123.795 152.314 124.253 152.314C124.696 152.314 125.097 152.398 125.455 152.566C125.822 152.734 126.135 152.963 126.395 153.253C126.654 153.543 126.853 153.879 126.99 154.261C127.128 154.643 127.197 155.048 127.197 155.475V155.681C127.197 156.109 127.124 156.514 126.979 156.896C126.834 157.277 126.628 157.613 126.36 157.904C126.101 158.194 125.788 158.423 125.421 158.591C125.062 158.759 124.665 158.843 124.23 158.843C123.795 158.843 123.378 158.747 122.981 158.557C122.584 158.366 122.256 158.056 121.996 157.629C121.737 157.201 121.588 156.64 121.549 155.945L122.053 156.861V160.928H120.954ZM124.058 157.881C124.47 157.881 124.829 157.785 125.135 157.594C125.44 157.396 125.677 157.125 125.845 156.781C126.013 156.43 126.097 156.029 126.097 155.578C126.097 155.12 126.013 154.719 125.845 154.376C125.677 154.032 125.44 153.765 125.135 153.574C124.829 153.375 124.47 153.276 124.058 153.276C123.691 153.276 123.352 153.36 123.039 153.528C122.725 153.688 122.473 153.925 122.283 154.238C122.099 154.544 122.008 154.914 122.008 155.349V155.876C122.008 156.296 122.103 156.655 122.294 156.953C122.485 157.251 122.737 157.48 123.05 157.64C123.363 157.801 123.699 157.881 124.058 157.881ZM132.551 158.637V156.804H132.368V154.685C132.368 154.265 132.257 153.948 132.036 153.734C131.822 153.52 131.505 153.413 131.085 153.413C130.848 153.413 130.604 153.417 130.352 153.425C130.1 153.433 129.859 153.44 129.63 153.448C129.401 153.455 129.203 153.467 129.034 153.482V152.52C129.203 152.505 129.378 152.493 129.561 152.486C129.752 152.47 129.947 152.463 130.146 152.463C130.344 152.455 130.535 152.451 130.718 152.451C131.345 152.451 131.856 152.528 132.253 152.68C132.65 152.825 132.944 153.066 133.135 153.402C133.326 153.738 133.422 154.192 133.422 154.765V158.637H132.551ZM130.546 158.797C130.088 158.797 129.691 158.721 129.355 158.568C129.027 158.408 128.771 158.179 128.588 157.881C128.412 157.583 128.324 157.224 128.324 156.804C128.324 156.369 128.42 156.006 128.611 155.716C128.809 155.426 129.096 155.208 129.47 155.063C129.844 154.91 130.294 154.834 130.821 154.834H132.482V155.659H130.776C130.333 155.659 129.993 155.765 129.756 155.979C129.519 156.193 129.401 156.468 129.401 156.804C129.401 157.14 129.519 157.411 129.756 157.617C129.993 157.823 130.333 157.927 130.776 157.927C131.035 157.927 131.283 157.881 131.52 157.789C131.757 157.69 131.952 157.529 132.104 157.308C132.265 157.079 132.352 156.766 132.368 156.369L132.666 156.804C132.627 157.239 132.52 157.606 132.345 157.904C132.177 158.194 131.94 158.415 131.635 158.568C131.337 158.721 130.974 158.797 130.546 158.797ZM137.444 158.82C136.643 158.82 136.02 158.648 135.577 158.305C135.142 157.961 134.917 157.491 134.901 156.896H135.932C135.948 157.132 136.066 157.358 136.287 157.571C136.517 157.778 136.902 157.881 137.444 157.881C137.933 157.881 138.307 157.785 138.567 157.594C138.827 157.396 138.956 157.155 138.956 156.873C138.956 156.621 138.861 156.426 138.67 156.289C138.479 156.143 138.17 156.048 137.742 156.002L137.078 155.933C136.497 155.872 136.024 155.701 135.657 155.418C135.291 155.128 135.108 154.723 135.108 154.204C135.108 153.814 135.207 153.482 135.405 153.207C135.604 152.925 135.879 152.711 136.23 152.566C136.581 152.413 136.986 152.337 137.444 152.337C138.132 152.337 138.689 152.489 139.117 152.795C139.544 153.1 139.766 153.555 139.781 154.158H138.75C138.743 153.914 138.628 153.707 138.407 153.539C138.193 153.364 137.872 153.276 137.444 153.276C137.017 153.276 136.692 153.364 136.471 153.539C136.249 153.715 136.139 153.937 136.139 154.204C136.139 154.433 136.215 154.616 136.368 154.754C136.528 154.891 136.788 154.979 137.147 155.017L137.811 155.086C138.468 155.155 138.995 155.338 139.392 155.636C139.789 155.926 139.987 156.338 139.987 156.873C139.987 157.255 139.877 157.594 139.655 157.892C139.441 158.182 139.143 158.411 138.762 158.579C138.38 158.74 137.941 158.82 137.444 158.82ZM143.586 158.82C142.784 158.82 142.161 158.648 141.718 158.305C141.283 157.961 141.058 157.491 141.043 156.896H142.074C142.089 157.132 142.207 157.358 142.429 157.571C142.658 157.778 143.043 157.881 143.586 157.881C144.074 157.881 144.448 157.785 144.708 157.594C144.968 157.396 145.098 157.155 145.098 156.873C145.098 156.621 145.002 156.426 144.811 156.289C144.62 156.143 144.311 156.048 143.883 156.002L143.219 155.933C142.639 155.872 142.165 155.701 141.799 155.418C141.432 155.128 141.249 154.723 141.249 154.204C141.249 153.814 141.348 153.482 141.547 153.207C141.745 152.925 142.02 152.711 142.371 152.566C142.723 152.413 143.127 152.337 143.586 152.337C144.273 152.337 144.83 152.489 145.258 152.795C145.686 153.1 145.907 153.555 145.922 154.158H144.891C144.884 153.914 144.769 153.707 144.548 153.539C144.334 153.364 144.013 153.276 143.586 153.276C143.158 153.276 142.833 153.364 142.612 153.539C142.39 153.715 142.28 153.937 142.28 154.204C142.28 154.433 142.356 154.616 142.509 154.754C142.669 154.891 142.929 154.979 143.288 155.017L143.952 155.086C144.609 155.155 145.136 155.338 145.533 155.636C145.93 155.926 146.128 156.338 146.128 156.873C146.128 157.255 146.018 157.594 145.796 157.892C145.582 158.182 145.285 158.411 144.903 158.579C144.521 158.74 144.082 158.82 143.586 158.82ZM149.464 158.637L150.701 152.726H152.19L153.634 158.637H152.694L151.251 152.749H151.618L150.369 158.637H149.464ZM148.903 158.637V157.766H150.174V158.637H148.903ZM148.651 158.637L146.921 152.52H147.975L149.659 158.637H148.651ZM152.924 158.637V157.766H154.195V158.637H152.924ZM153.439 158.637L154.905 152.52H155.902L154.401 158.637H153.439ZM160.093 158.843C159.558 158.843 159.089 158.751 158.684 158.568C158.279 158.385 157.936 158.144 157.653 157.846C157.378 157.541 157.168 157.201 157.023 156.827C156.886 156.453 156.817 156.071 156.817 155.681V155.475C156.817 155.086 156.889 154.704 157.035 154.33C157.18 153.948 157.393 153.608 157.676 153.31C157.959 153.005 158.302 152.764 158.707 152.589C159.112 152.405 159.574 152.314 160.093 152.314C160.612 152.314 161.074 152.405 161.479 152.589C161.884 152.764 162.227 153.005 162.51 153.31C162.792 153.608 163.006 153.948 163.151 154.33C163.296 154.704 163.369 155.086 163.369 155.475V155.681C163.369 156.071 163.296 156.453 163.151 156.827C163.014 157.201 162.804 157.541 162.521 157.846C162.246 158.144 161.907 158.385 161.502 158.568C161.097 158.751 160.627 158.843 160.093 158.843ZM160.093 157.858C160.551 157.858 160.941 157.759 161.261 157.56C161.59 157.354 161.838 157.079 162.006 156.735C162.181 156.392 162.269 156.006 162.269 155.578C162.269 155.143 162.181 154.754 162.006 154.41C161.83 154.066 161.578 153.795 161.25 153.597C160.929 153.398 160.543 153.299 160.093 153.299C159.65 153.299 159.264 153.398 158.936 153.597C158.608 153.795 158.356 154.066 158.18 154.41C158.004 154.754 157.917 155.143 157.917 155.578C157.917 156.006 158.001 156.392 158.169 156.735C158.344 157.079 158.592 157.354 158.913 157.56C159.241 157.759 159.635 157.858 160.093 157.858ZM165.016 158.637V152.52H165.886V155.04H165.841C165.841 154.147 166.035 153.494 166.425 153.081C166.822 152.661 167.414 152.451 168.2 152.451H168.406V153.436H168.017C167.406 153.436 166.936 153.601 166.608 153.929C166.28 154.25 166.115 154.715 166.115 155.326V158.637H165.016ZM172.201 158.843C171.766 158.843 171.365 158.763 170.998 158.602C170.632 158.442 170.311 158.217 170.036 157.927C169.769 157.636 169.559 157.3 169.406 156.919C169.261 156.537 169.189 156.124 169.189 155.681V155.475C169.189 155.04 169.261 154.631 169.406 154.25C169.551 153.868 169.754 153.532 170.013 153.242C170.281 152.951 170.594 152.726 170.953 152.566C171.319 152.398 171.724 152.314 172.167 152.314C172.633 152.314 173.056 152.413 173.438 152.612C173.82 152.803 174.133 153.104 174.378 153.517C174.622 153.929 174.759 154.463 174.79 155.12L174.332 154.387V150.275H175.431V158.637H174.561V155.922H174.882C174.851 156.617 174.706 157.182 174.446 157.617C174.187 158.045 173.858 158.358 173.461 158.557C173.072 158.747 172.652 158.843 172.201 158.843ZM172.35 157.881C172.724 157.881 173.064 157.797 173.37 157.629C173.675 157.461 173.919 157.22 174.103 156.907C174.286 156.586 174.378 156.212 174.378 155.785V155.258C174.378 154.838 174.282 154.483 174.091 154.192C173.908 153.895 173.66 153.669 173.347 153.517C173.041 153.356 172.705 153.276 172.339 153.276C171.934 153.276 171.575 153.371 171.262 153.562C170.956 153.753 170.716 154.021 170.54 154.364C170.372 154.708 170.288 155.113 170.288 155.578C170.288 156.044 170.376 156.453 170.552 156.804C170.727 157.148 170.972 157.415 171.285 157.606C171.598 157.789 171.953 157.881 172.35 157.881Z" fill="#00EE77"/>
<mask id="path-10-inside-2_18700_24938" fill="white">
<path fill-rule="evenodd" clip-rule="evenodd" d="M55.8869 177.545H395.455C399.07 177.545 402 180.476 402 184.091V212.555C402 214.441 401.186 216.236 399.767 217.479L387.426 228.287C386.232 229.332 384.7 229.909 383.113 229.909H395.528C395.503 229.909 395.479 229.909 395.455 229.909H43.5454C39.9305 229.909 37 226.979 37 223.364V194.899C37 193.013 37.8139 191.218 39.233 189.975L51.5745 179.167C52.7679 178.122 54.3004 177.545 55.8869 177.545Z"/>
</mask>
<path fill-rule="evenodd" clip-rule="evenodd" d="M55.8869 177.545H395.455C399.07 177.545 402 180.476 402 184.091V212.555C402 214.441 401.186 216.236 399.767 217.479L387.426 228.287C386.232 229.332 384.7 229.909 383.113 229.909H395.528C395.503 229.909 395.479 229.909 395.455 229.909H43.5454C39.9305 229.909 37 226.979 37 223.364V194.899C37 193.013 37.8139 191.218 39.233 189.975L51.5745 179.167C52.7679 178.122 54.3004 177.545 55.8869 177.545Z" fill="white" fill-opacity="0.05"/>
<path d="M399.767 217.479L400.306 218.094L399.767 217.479ZM387.426 228.287L387.965 228.903V228.903L387.426 228.287ZM395.528 229.909L395.537 230.727L395.528 229.09V229.909ZM39.233 189.975L39.7721 190.591H39.7721L39.233 189.975ZM51.5745 179.167L51.0354 178.551V178.551L51.5745 179.167ZM395.455 176.727H55.8869V178.364H395.455V176.727ZM402.818 184.091C402.818 180.024 399.521 176.727 395.455 176.727V178.364C398.618 178.364 401.182 180.928 401.182 184.091H402.818ZM402.818 212.555V184.091H401.182V212.555H402.818ZM400.306 218.094C401.903 216.696 402.818 214.677 402.818 212.555H401.182C401.182 214.205 400.47 215.776 399.228 216.863L400.306 218.094ZM387.965 228.903L400.306 218.094L399.228 216.863L386.886 227.672L387.965 228.903ZM383.113 230.727C384.898 230.727 386.622 230.079 387.965 228.903L386.886 227.672C385.842 228.586 384.501 229.09 383.113 229.09V230.727ZM395.528 229.09H383.113V230.727H395.528V229.09ZM395.455 230.727C395.482 230.727 395.509 230.727 395.537 230.727L395.519 229.091C395.497 229.091 395.476 229.091 395.455 229.091V230.727ZM43.5454 230.727H395.455V229.091H43.5454V230.727ZM36.1818 223.364C36.1818 227.43 39.4786 230.727 43.5454 230.727V229.091C40.3824 229.091 37.8182 226.527 37.8182 223.364H36.1818ZM36.1818 194.899V223.364H37.8182V194.899H36.1818ZM38.694 189.36C37.0975 190.758 36.1818 192.777 36.1818 194.899H37.8182C37.8182 193.249 38.5303 191.678 39.7721 190.591L38.694 189.36ZM51.0354 178.551L38.694 189.36L39.7721 190.591L52.1135 179.782L51.0354 178.551ZM55.8869 176.727C54.1021 176.727 52.3781 177.375 51.0354 178.551L52.1135 179.782C53.1578 178.868 54.4987 178.364 55.8869 178.364V176.727Z" fill="#00EE77" mask="url(#path-10-inside-2_18700_24938)"/>
<path d="M56.6233 200.364V193.138H58.2334V200.364H56.6233ZM60.8942 200.364L59.5 197.3H61.2574L62.6909 200.364H60.8942ZM58.0371 197.732V196.466H59.9025C60.2233 196.466 60.4622 196.381 60.6193 196.211C60.7829 196.04 60.8647 195.802 60.8647 195.494C60.8647 195.186 60.7829 194.951 60.6193 194.787C60.4556 194.617 60.2167 194.532 59.9025 194.532H58.0371V193.138H59.8142C60.3444 193.138 60.8091 193.219 61.2084 193.383C61.6142 193.547 61.9284 193.792 62.1509 194.119C62.38 194.447 62.4945 194.859 62.4945 195.356V195.514C62.4945 196.011 62.38 196.427 62.1509 196.76C61.9284 197.088 61.6174 197.333 61.2182 197.497C60.8189 197.654 60.3509 197.732 59.8142 197.732H58.0371ZM63.6851 200.364V193.196H65.256V200.364H63.6851ZM65.0596 200.364V199.028H68.1916V200.364H65.0596ZM65.0596 197.389V196.054H67.9658V197.389H65.0596ZM65.0596 194.532V193.196H68.1229V194.532H65.0596ZM69.3183 200.364V193.196H70.8892V200.364H69.3183ZM70.6928 200.364V199.028H73.8248V200.364H70.6928ZM70.6928 197.389V196.054H73.599V197.389H70.6928ZM70.6928 194.532V193.196H73.7561V194.532H70.6928ZM74.9514 200.364V193.196H77.5925L80.2925 199.058H80.6263L80.43 199.235V193.196H81.942V200.364H79.2813L76.5813 194.502H76.2474L76.4438 194.326V200.364H74.9514ZM84.7792 200.364V194.404H86.3894V200.364H84.7792ZM82.7665 194.6V193.196H88.4119V194.6H82.7665ZM89.2285 200.364V193.196H90.7994V200.364H89.2285ZM90.603 200.364V199.028H93.735V200.364H90.603ZM90.603 197.389V196.054H93.5092V197.389H90.603ZM90.603 194.532V193.196H93.6663V194.532H90.603ZM94.8616 200.364V193.138H96.4718V200.364H94.8616ZM99.1325 200.364L97.7384 197.3H99.4958L100.929 200.364H99.1325ZM96.2755 197.732V196.466H98.1409C98.4616 196.466 98.7005 196.381 98.8576 196.211C99.0213 196.04 99.1031 195.802 99.1031 195.494C99.1031 195.186 99.0213 194.951 98.8576 194.787C98.694 194.617 98.4551 194.532 98.1409 194.532H96.2755V193.138H98.0525C98.5827 193.138 99.0475 193.219 99.4467 193.383C99.8525 193.547 100.167 193.792 100.389 194.119C100.618 194.447 100.733 194.859 100.733 195.356V195.514C100.733 196.011 100.618 196.427 100.389 196.76C100.167 197.088 99.8558 197.333 99.4565 197.497C99.0573 197.654 98.5893 197.732 98.0525 197.732H96.2755ZM103.789 200.364V193.196H106.43L109.13 199.058H109.463L109.267 199.235V193.196H110.779V200.364H108.118L105.418 194.502H105.085L105.281 194.326V200.364H103.789ZM112.193 200.364V193.196H113.764V200.364H112.193ZM113.567 200.364V199.028H116.699V200.364H113.567ZM113.567 197.389V196.054H116.473V197.389H113.567ZM113.567 194.532V193.196H116.63V194.532H113.567ZM118.994 200.364L117.227 193.196H118.886L120.271 199.284L119.927 199.058H120.82L120.437 199.284L121.508 193.462H122.843L121.439 200.364H118.994ZM123.265 200.364L121.753 193.462H123.157L124.394 199.284L124.021 199.058H124.875L124.551 199.284L125.759 193.196H127.33L125.759 200.364H123.265ZM131.426 197.821V196.427H133.253C133.469 196.427 133.645 196.391 133.783 196.319C133.927 196.247 134.035 196.139 134.107 195.995C134.179 195.851 134.215 195.68 134.215 195.484C134.215 195.275 134.179 195.101 134.107 194.964C134.035 194.82 133.927 194.712 133.783 194.64C133.645 194.568 133.469 194.532 133.253 194.532H131.426V193.138H133.164C133.688 193.138 134.153 193.223 134.558 193.393C134.964 193.563 135.278 193.815 135.501 194.149C135.73 194.483 135.845 194.902 135.845 195.406V195.563C135.845 196.054 135.73 196.469 135.501 196.81C135.278 197.143 134.964 197.395 134.558 197.566C134.159 197.736 133.694 197.821 133.164 197.821H131.426ZM130.013 200.364V193.138H131.623V200.364H130.013ZM135.361 200.364L137.728 193.196H140.329L142.784 200.364H141.115L139.132 194.306L139.642 194.512H138.376L138.906 194.306L136.972 200.364H135.361ZM137.158 198.587L137.649 197.251H140.457L140.958 198.587H137.158ZM145.978 200.55C145.33 200.55 144.784 200.449 144.338 200.246C143.893 200.036 143.556 199.755 143.327 199.402C143.098 199.042 142.984 198.629 142.984 198.164H144.545C144.545 198.348 144.594 198.518 144.692 198.675C144.797 198.832 144.954 198.96 145.163 199.058C145.373 199.15 145.644 199.195 145.978 199.195C146.279 199.195 146.531 199.156 146.734 199.078C146.937 198.999 147.091 198.891 147.196 198.754C147.3 198.61 147.353 198.446 147.353 198.263C147.353 198.034 147.254 197.854 147.058 197.723C146.862 197.585 146.544 197.497 146.106 197.458L145.566 197.408C144.852 197.35 144.283 197.127 143.857 196.741C143.432 196.355 143.219 195.844 143.219 195.209C143.219 194.751 143.327 194.355 143.543 194.021C143.766 193.687 144.073 193.432 144.466 193.255C144.859 193.072 145.324 192.98 145.86 192.98C146.423 192.98 146.904 193.079 147.304 193.275C147.709 193.465 148.02 193.736 148.236 194.09C148.452 194.437 148.56 194.846 148.56 195.317H146.989C146.989 195.14 146.947 194.98 146.862 194.836C146.777 194.686 146.649 194.564 146.479 194.473C146.315 194.381 146.109 194.335 145.86 194.335C145.625 194.335 145.425 194.375 145.261 194.453C145.104 194.532 144.986 194.64 144.908 194.777C144.829 194.908 144.79 195.052 144.79 195.209C144.79 195.412 144.862 195.589 145.006 195.739C145.15 195.89 145.386 195.978 145.713 196.004L146.263 196.054C146.786 196.099 147.248 196.214 147.647 196.397C148.046 196.574 148.357 196.819 148.58 197.134C148.809 197.441 148.924 197.818 148.924 198.263C148.924 198.721 148.802 199.123 148.56 199.47C148.325 199.811 147.988 200.076 147.549 200.266C147.11 200.455 146.587 200.55 145.978 200.55ZM152.33 200.55C151.682 200.55 151.136 200.449 150.691 200.246C150.246 200.036 149.909 199.755 149.679 199.402C149.45 199.042 149.336 198.629 149.336 198.164H150.897C150.897 198.348 150.946 198.518 151.044 198.675C151.149 198.832 151.306 198.96 151.515 199.058C151.725 199.15 151.997 199.195 152.33 199.195C152.631 199.195 152.883 199.156 153.086 199.078C153.289 198.999 153.443 198.891 153.548 198.754C153.653 198.61 153.705 198.446 153.705 198.263C153.705 198.034 153.607 197.854 153.41 197.723C153.214 197.585 152.897 197.497 152.458 197.458L151.918 197.408C151.205 197.35 150.635 197.127 150.21 196.741C149.784 196.355 149.571 195.844 149.571 195.209C149.571 194.751 149.679 194.355 149.895 194.021C150.118 193.687 150.426 193.432 150.818 193.255C151.211 193.072 151.676 192.98 152.213 192.98C152.775 192.98 153.257 193.079 153.656 193.275C154.062 193.465 154.373 193.736 154.589 194.09C154.805 194.437 154.913 194.846 154.913 195.317H153.342C153.342 195.14 153.299 194.98 153.214 194.836C153.129 194.686 153.001 194.564 152.831 194.473C152.667 194.381 152.461 194.335 152.213 194.335C151.977 194.335 151.777 194.375 151.614 194.453C151.457 194.532 151.339 194.64 151.26 194.777C151.182 194.908 151.142 195.052 151.142 195.209C151.142 195.412 151.214 195.589 151.358 195.739C151.502 195.89 151.738 195.978 152.065 196.004L152.615 196.054C153.139 196.099 153.6 196.214 153.999 196.397C154.399 196.574 154.71 196.819 154.932 197.134C155.161 197.441 155.276 197.818 155.276 198.263C155.276 198.721 155.155 199.123 154.913 199.47C154.677 199.811 154.34 200.076 153.901 200.266C153.463 200.455 152.939 200.55 152.33 200.55ZM157.204 200.364L155.437 193.196H157.096L158.48 199.284L158.137 199.058H159.03L158.647 199.284L159.717 193.462H161.053L159.649 200.364H157.204ZM161.475 200.364L159.963 193.462H161.367L162.604 199.284L162.231 199.058H163.085L162.761 199.284L163.969 193.196H165.539L163.969 200.364H161.475ZM169.659 200.55C169.011 200.55 168.445 200.439 167.961 200.216C167.483 199.987 167.087 199.69 166.773 199.323C166.459 198.95 166.223 198.547 166.066 198.115C165.915 197.683 165.84 197.268 165.84 196.868V196.652C165.84 196.207 165.919 195.769 166.076 195.337C166.239 194.898 166.481 194.502 166.802 194.149C167.123 193.795 167.522 193.514 168 193.304C168.478 193.088 169.031 192.98 169.659 192.98C170.288 192.98 170.841 193.088 171.319 193.304C171.796 193.514 172.196 193.795 172.516 194.149C172.837 194.502 173.079 194.898 173.243 195.337C173.407 195.769 173.488 196.207 173.488 196.652V196.868C173.488 197.268 173.41 197.683 173.253 198.115C173.096 198.547 172.86 198.95 172.546 199.323C172.232 199.69 171.832 199.987 171.348 200.216C170.87 200.439 170.307 200.55 169.659 200.55ZM169.659 199.048C170 199.048 170.304 198.989 170.572 198.871C170.847 198.754 171.08 198.59 171.269 198.38C171.466 198.171 171.613 197.929 171.711 197.654C171.809 197.379 171.859 197.084 171.859 196.77C171.859 196.436 171.806 196.132 171.701 195.857C171.603 195.576 171.456 195.334 171.26 195.131C171.07 194.921 170.841 194.761 170.572 194.65C170.304 194.538 170 194.483 169.659 194.483C169.319 194.483 169.015 194.538 168.746 194.65C168.478 194.761 168.245 194.921 168.049 195.131C167.859 195.334 167.715 195.576 167.617 195.857C167.519 196.132 167.47 196.436 167.47 196.77C167.47 197.084 167.519 197.379 167.617 197.654C167.715 197.929 167.859 198.171 168.049 198.38C168.245 198.59 168.478 198.754 168.746 198.871C169.015 198.989 169.319 199.048 169.659 199.048ZM174.512 200.364V193.138H176.122V200.364H174.512ZM178.783 200.364L177.389 197.3H179.146L180.58 200.364H178.783ZM175.926 197.732V196.466H177.791C178.112 196.466 178.351 196.381 178.508 196.211C178.672 196.04 178.753 195.802 178.753 195.494C178.753 195.186 178.672 194.951 178.508 194.787C178.344 194.617 178.105 194.532 177.791 194.532H175.926V193.138H177.703C178.233 193.138 178.698 193.219 179.097 193.383C179.503 193.547 179.817 193.792 180.04 194.119C180.269 194.447 180.383 194.859 180.383 195.356V195.514C180.383 196.011 180.269 196.427 180.04 196.76C179.817 197.088 179.506 197.333 179.107 197.497C178.708 197.654 178.24 197.732 177.703 197.732H175.926ZM182.988 200.403V198.901H184.323C184.657 198.901 184.958 198.852 185.226 198.754C185.495 198.649 185.724 198.505 185.913 198.322C186.103 198.132 186.247 197.906 186.345 197.644C186.444 197.376 186.493 197.081 186.493 196.76C186.493 196.427 186.444 196.129 186.345 195.867C186.247 195.605 186.103 195.383 185.913 195.199C185.724 195.016 185.495 194.879 185.226 194.787C184.958 194.689 184.657 194.64 184.323 194.64H182.988V193.138H184.235C184.883 193.138 185.449 193.232 185.933 193.422C186.417 193.612 186.823 193.871 187.151 194.198C187.478 194.525 187.72 194.902 187.877 195.327C188.041 195.746 188.123 196.188 188.123 196.652V196.868C188.123 197.3 188.041 197.729 187.877 198.155C187.72 198.574 187.478 198.953 187.151 199.294C186.823 199.627 186.417 199.896 185.933 200.099C185.449 200.302 184.883 200.403 184.235 200.403H182.988ZM181.574 200.403V193.138H183.184V200.403H181.574Z" fill="white" fill-opacity="0.75"/>
<path d="M59.9418 216.325V213.445L57.4284 214.885L56.4858 213.235L58.9731 211.795L56.4858 210.355L57.4284 208.706L59.9418 210.146V207.266H61.8531V210.146L64.3404 208.706L65.2829 210.355L62.7956 211.795L65.2829 213.235L64.3404 214.885L61.8531 213.445V216.325H59.9418ZM70.0796 216.325V213.445L67.5661 214.885L66.6236 213.235L69.1109 211.795L66.6236 210.355L67.5661 208.706L70.0796 210.146V207.266H71.9909V210.146L74.4781 208.706L75.4207 210.355L72.9334 211.795L75.4207 213.235L74.4781 214.885L71.9909 213.445V216.325H70.0796ZM80.2174 216.325V213.445L77.7039 214.885L76.7614 213.235L79.2487 211.795L76.7614 210.355L77.7039 208.706L80.2174 210.146V207.266H82.1287V210.146L84.6159 208.706L85.5585 210.355L83.0712 211.795L85.5585 213.235L84.6159 214.885L82.1287 213.445V216.325H80.2174ZM90.3552 216.325V213.445L87.8417 214.885L86.8992 213.235L89.3864 211.795L86.8992 210.355L87.8417 208.706L90.3552 210.146V207.266H92.2664V210.146L94.7537 208.706L95.6963 210.355L93.209 211.795L95.6963 213.235L94.7537 214.885L92.2664 213.445V216.325H90.3552ZM100.493 216.325V213.445L97.9795 214.885L97.0369 213.235L99.5242 211.795L97.0369 210.355L97.9795 208.706L100.493 210.146V207.266H102.404V210.146L104.891 208.706L105.834 210.355L103.347 211.795L105.834 213.235L104.891 214.885L102.404 213.445V216.325H100.493ZM110.631 216.325V213.445L108.117 214.885L107.175 213.235L109.662 211.795L107.175 210.355L108.117 208.706L110.631 210.146V207.266H112.542V210.146L115.029 208.706L115.972 210.355L113.485 211.795L115.972 213.235L115.029 214.885L112.542 213.445V216.325H110.631ZM120.769 216.325V213.445L118.255 214.885L117.313 213.235L119.8 211.795L117.313 210.355L118.255 208.706L120.769 210.146V207.266H122.68V210.146L125.167 208.706L126.11 210.355L123.622 211.795L126.11 213.235L125.167 214.885L122.68 213.445V216.325H120.769ZM130.906 216.325V213.445L128.393 214.885L127.45 213.235L129.938 211.795L127.45 210.355L128.393 208.706L130.906 210.146V207.266H132.818V210.146L135.305 208.706L136.247 210.355L133.76 211.795L136.247 213.235L135.305 214.885L132.818 213.445V216.325H130.906Z" fill="#BB77FF"/>
<path fill-rule="evenodd" clip-rule="evenodd" d="M59.9091 242.999C55.3927 242.999 51.7273 246.664 51.7273 251.181C51.7273 255.697 55.3927 259.363 59.9091 259.363C64.4254 259.363 68.0909 255.697 68.0909 251.181C68.0909 246.664 64.4254 242.999 59.9091 242.999ZM59.0909 255.272V250.363H60.7273V255.272H59.0909ZM59.0909 247.09V248.726H60.7273V247.09H59.0909Z" fill="#00EE77"/>
<path d="M79.1985 252.272V251.287H81.0656C81.4627 251.287 81.7911 251.211 82.0507 251.058C82.3104 250.898 82.5051 250.684 82.6349 250.417C82.7724 250.149 82.8411 249.851 82.8411 249.523C82.8411 249.187 82.7724 248.885 82.6349 248.618C82.5051 248.351 82.3104 248.141 82.0507 247.988C81.7911 247.835 81.4627 247.759 81.0656 247.759H79.1985V246.774H80.8595C81.5467 246.774 82.1195 246.885 82.5776 247.106C83.0435 247.32 83.3947 247.625 83.6315 248.023C83.8682 248.42 83.9865 248.889 83.9865 249.431V249.615C83.9865 250.149 83.8682 250.619 83.6315 251.024C83.3947 251.421 83.0435 251.73 82.5776 251.951C82.1195 252.165 81.5467 252.272 80.8595 252.272H79.1985ZM78.3051 255.182V246.774H79.4276V255.182H78.3051ZM89.1043 255.182V253.349H88.921V251.23C88.921 250.81 88.8103 250.493 88.5889 250.279C88.375 250.065 88.0581 249.958 87.6381 249.958C87.4014 249.958 87.157 249.962 86.905 249.97C86.653 249.977 86.4125 249.985 86.1834 249.993C85.9543 250 85.7558 250.012 85.5878 250.027V249.065C85.7558 249.05 85.9314 249.038 86.1147 249.031C86.3056 249.015 86.5003 249.008 86.6989 249.008C86.8974 249 87.0883 248.996 87.2716 248.996C87.8978 248.996 88.4094 249.073 88.8065 249.225C89.2036 249.37 89.4976 249.611 89.6885 249.947C89.8794 250.283 89.9749 250.737 89.9749 251.31V255.182H89.1043ZM87.0998 255.342C86.6416 255.342 86.2445 255.266 85.9085 255.113C85.5801 254.953 85.3243 254.723 85.141 254.426C84.9654 254.128 84.8776 253.769 84.8776 253.349C84.8776 252.914 84.973 252.551 85.1639 252.261C85.3625 251.971 85.6489 251.753 86.023 251.608C86.3972 251.455 86.8478 251.379 87.3747 251.379H89.0356V252.203H87.3289C86.8859 252.203 86.5461 252.31 86.3094 252.524C86.0727 252.738 85.9543 253.013 85.9543 253.349C85.9543 253.685 86.0727 253.956 86.3094 254.162C86.5461 254.368 86.8859 254.471 87.3289 254.471C87.5885 254.471 87.8367 254.426 88.0734 254.334C88.3101 254.235 88.5049 254.074 88.6576 253.853C88.8179 253.624 88.9058 253.311 88.921 252.914L89.2189 253.349C89.1807 253.784 89.0738 254.151 88.8981 254.449C88.7301 254.739 88.4934 254.96 88.1879 255.113C87.8901 255.266 87.5274 255.342 87.0998 255.342ZM93.9976 255.365C93.1958 255.365 92.5735 255.193 92.1306 254.849C91.6953 254.506 91.47 254.036 91.4547 253.441H92.4856C92.5009 253.677 92.6193 253.903 92.8407 254.116C93.0698 254.323 93.4555 254.426 93.9976 254.426C94.4864 254.426 94.8606 254.33 95.1202 254.139C95.3798 253.941 95.5096 253.7 95.5096 253.418C95.5096 253.166 95.4142 252.971 95.2233 252.833C95.0324 252.688 94.7231 252.593 94.2955 252.547L93.6311 252.478C93.0507 252.417 92.5773 252.245 92.2107 251.963C91.8442 251.673 91.6609 251.268 91.6609 250.749C91.6609 250.359 91.7602 250.027 91.9587 249.752C92.1573 249.47 92.4322 249.256 92.7835 249.111C93.1347 248.958 93.5395 248.882 93.9976 248.882C94.6849 248.882 95.2424 249.034 95.67 249.34C96.0976 249.645 96.3191 250.1 96.3344 250.703H95.3035C95.2958 250.459 95.1813 250.252 94.9598 250.084C94.746 249.909 94.4253 249.821 93.9976 249.821C93.57 249.821 93.2455 249.909 93.024 250.084C92.8026 250.26 92.6918 250.481 92.6918 250.749C92.6918 250.978 92.7682 251.161 92.9209 251.299C93.0813 251.436 93.3409 251.524 93.6998 251.562L94.3642 251.631C95.0209 251.699 95.5478 251.883 95.9449 252.181C96.342 252.471 96.5406 252.883 96.5406 253.418C96.5406 253.799 96.4298 254.139 96.2084 254.437C95.9946 254.727 95.6967 254.956 95.3149 255.124C94.9331 255.285 94.494 255.365 93.9976 255.365ZM100.139 255.365C99.337 255.365 98.7146 255.193 98.2717 254.849C97.8364 254.506 97.6112 254.036 97.5959 253.441H98.6268C98.6421 253.677 98.7604 253.903 98.9819 254.116C99.211 254.323 99.5966 254.426 100.139 254.426C100.628 254.426 101.002 254.33 101.261 254.139C101.521 253.941 101.651 253.7 101.651 253.418C101.651 253.166 101.555 252.971 101.364 252.833C101.174 252.688 100.864 252.593 100.437 252.547L99.7723 252.478C99.1919 252.417 98.7184 252.245 98.3519 251.963C97.9853 251.673 97.8021 251.268 97.8021 250.749C97.8021 250.359 97.9013 250.027 98.0999 249.752C98.2984 249.47 98.5733 249.256 98.9246 249.111C99.2759 248.958 99.6806 248.882 100.139 248.882C100.826 248.882 101.384 249.034 101.811 249.34C102.239 249.645 102.46 250.1 102.476 250.703H101.445C101.437 250.459 101.322 250.252 101.101 250.084C100.887 249.909 100.566 249.821 100.139 249.821C99.7112 249.821 99.3866 249.909 99.1652 250.084C98.9437 250.26 98.833 250.481 98.833 250.749C98.833 250.978 98.9093 251.161 99.0621 251.299C99.2224 251.436 99.4821 251.524 99.841 251.562L100.505 251.631C101.162 251.699 101.689 251.883 102.086 252.181C102.483 252.471 102.682 252.883 102.682 253.418C102.682 253.799 102.571 254.139 102.35 254.437C102.136 254.727 101.838 254.956 101.456 255.124C101.074 255.285 100.635 255.365 100.139 255.365ZM106.018 255.182L107.255 249.271H108.744L110.187 255.182H109.248L107.804 249.294H108.171L106.922 255.182H106.018ZM105.456 255.182V254.311H106.728V255.182H105.456ZM105.204 255.182L103.475 249.065H104.528L106.212 255.182H105.204ZM109.477 255.182V254.311H110.748V255.182H109.477ZM109.992 255.182L111.458 249.065H112.455L110.954 255.182H109.992ZM116.646 255.388C116.112 255.388 115.642 255.296 115.237 255.113C114.833 254.93 114.489 254.689 114.206 254.391C113.931 254.086 113.721 253.746 113.576 253.372C113.439 252.998 113.37 252.616 113.37 252.226V252.02C113.37 251.631 113.443 251.249 113.588 250.875C113.733 250.493 113.947 250.153 114.229 249.855C114.512 249.55 114.855 249.309 115.26 249.134C115.665 248.95 116.127 248.859 116.646 248.859C117.165 248.859 117.627 248.95 118.032 249.134C118.437 249.309 118.781 249.55 119.063 249.855C119.346 250.153 119.559 250.493 119.705 250.875C119.85 251.249 119.922 251.631 119.922 252.02V252.226C119.922 252.616 119.85 252.998 119.705 253.372C119.567 253.746 119.357 254.086 119.075 254.391C118.8 254.689 118.46 254.93 118.055 255.113C117.65 255.296 117.181 255.388 116.646 255.388ZM116.646 254.403C117.104 254.403 117.494 254.303 117.815 254.105C118.143 253.899 118.391 253.624 118.559 253.28C118.735 252.937 118.823 252.551 118.823 252.123C118.823 251.688 118.735 251.299 118.559 250.955C118.383 250.611 118.131 250.34 117.803 250.142C117.482 249.943 117.097 249.844 116.646 249.844C116.203 249.844 115.818 249.943 115.489 250.142C115.161 250.34 114.909 250.611 114.733 250.955C114.558 251.299 114.47 251.688 114.47 252.123C114.47 252.551 114.554 252.937 114.722 253.28C114.897 253.624 115.146 253.899 115.466 254.105C115.795 254.303 116.188 254.403 116.646 254.403ZM121.569 255.182V249.065H122.44V251.585H122.394C122.394 250.691 122.589 250.039 122.978 249.626C123.375 249.206 123.967 248.996 124.753 248.996H124.96V249.981H124.57C123.959 249.981 123.49 250.145 123.161 250.474C122.833 250.795 122.669 251.26 122.669 251.871V255.182H121.569ZM128.754 255.388C128.319 255.388 127.918 255.308 127.552 255.147C127.185 254.987 126.864 254.762 126.59 254.471C126.322 254.181 126.112 253.845 125.96 253.463C125.814 253.082 125.742 252.669 125.742 252.226V252.02C125.742 251.585 125.814 251.176 125.96 250.795C126.105 250.413 126.307 250.077 126.567 249.787C126.834 249.496 127.147 249.271 127.506 249.111C127.872 248.943 128.277 248.859 128.72 248.859C129.186 248.859 129.61 248.958 129.992 249.157C130.373 249.347 130.686 249.649 130.931 250.061C131.175 250.474 131.313 251.008 131.343 251.665L130.885 250.932V246.82H131.985V255.182H131.114V252.467H131.435C131.404 253.162 131.259 253.727 131 254.162C130.74 254.59 130.412 254.903 130.014 255.101C129.625 255.292 129.205 255.388 128.754 255.388ZM128.903 254.426C129.278 254.426 129.617 254.342 129.923 254.174C130.228 254.006 130.473 253.765 130.656 253.452C130.839 253.131 130.931 252.757 130.931 252.329V251.803C130.931 251.383 130.835 251.027 130.644 250.737C130.461 250.439 130.213 250.214 129.9 250.061C129.594 249.901 129.258 249.821 128.892 249.821C128.487 249.821 128.128 249.916 127.815 250.107C127.51 250.298 127.269 250.565 127.094 250.909C126.926 251.253 126.842 251.657 126.842 252.123C126.842 252.589 126.929 252.998 127.105 253.349C127.281 253.693 127.525 253.96 127.838 254.151C128.151 254.334 128.506 254.426 128.903 254.426ZM136.102 255.365C135.3 255.365 134.678 255.193 134.235 254.849C133.8 254.506 133.574 254.036 133.559 253.441H134.59C134.605 253.677 134.724 253.903 134.945 254.116C135.174 254.323 135.56 254.426 136.102 254.426C136.591 254.426 136.965 254.33 137.225 254.139C137.484 253.941 137.614 253.7 137.614 253.418C137.614 253.166 137.519 252.971 137.328 252.833C137.137 252.688 136.827 252.593 136.4 252.547L135.735 252.478C135.155 252.417 134.682 252.245 134.315 251.963C133.949 251.673 133.765 251.268 133.765 250.749C133.765 250.359 133.865 250.027 134.063 249.752C134.262 249.47 134.537 249.256 134.888 249.111C135.239 248.958 135.644 248.882 136.102 248.882C136.789 248.882 137.347 249.034 137.774 249.34C138.202 249.645 138.423 250.1 138.439 250.703H137.408C137.4 250.459 137.286 250.252 137.064 250.084C136.85 249.909 136.53 249.821 136.102 249.821C135.674 249.821 135.35 249.909 135.128 250.084C134.907 250.26 134.796 250.481 134.796 250.749C134.796 250.978 134.873 251.161 135.025 251.299C135.186 251.436 135.445 251.524 135.804 251.562L136.469 251.631C137.125 251.699 137.652 251.883 138.049 252.181C138.446 252.471 138.645 252.883 138.645 253.418C138.645 253.799 138.534 254.139 138.313 254.437C138.099 254.727 137.801 254.956 137.419 255.124C137.037 255.285 136.598 255.365 136.102 255.365ZM142.845 255.182V249.065H143.716V251.688H143.578C143.578 251.092 143.654 250.588 143.807 250.176C143.968 249.756 144.204 249.435 144.517 249.214C144.83 248.992 145.228 248.882 145.709 248.882H145.754C146.236 248.882 146.633 248.992 146.946 249.214C147.266 249.435 147.503 249.756 147.656 250.176C147.809 250.588 147.885 251.092 147.885 251.688H147.564C147.564 251.092 147.644 250.588 147.805 250.176C147.965 249.756 148.202 249.435 148.515 249.214C148.836 248.992 149.237 248.882 149.718 248.882H149.764C150.245 248.882 150.646 248.992 150.966 249.214C151.287 249.435 151.524 249.756 151.676 250.176C151.837 250.588 151.917 251.092 151.917 251.688V255.182H150.817V251.447C150.817 250.951 150.695 250.569 150.451 250.302C150.206 250.027 149.867 249.89 149.431 249.89C148.981 249.89 148.618 250.035 148.343 250.325C148.068 250.607 147.931 251.005 147.931 251.516V255.182H146.831V251.447C146.831 250.951 146.709 250.569 146.465 250.302C146.22 250.027 145.88 249.89 145.445 249.89C144.995 249.89 144.632 250.035 144.357 250.325C144.082 250.607 143.945 251.005 143.945 251.516V255.182H142.845ZM157.63 255.182V253.349H157.447V251.23C157.447 250.81 157.336 250.493 157.115 250.279C156.901 250.065 156.584 249.958 156.164 249.958C155.927 249.958 155.683 249.962 155.431 249.97C155.179 249.977 154.938 249.985 154.709 249.993C154.48 250 154.282 250.012 154.114 250.027V249.065C154.282 249.05 154.457 249.038 154.641 249.031C154.832 249.015 155.026 249.008 155.225 249.008C155.423 249 155.614 248.996 155.798 248.996C156.424 248.996 156.935 249.073 157.332 249.225C157.73 249.37 158.024 249.611 158.214 249.947C158.405 250.283 158.501 250.737 158.501 251.31V255.182H157.63ZM155.626 255.342C155.168 255.342 154.77 255.266 154.434 255.113C154.106 254.953 153.85 254.723 153.667 254.426C153.491 254.128 153.404 253.769 153.404 253.349C153.404 252.914 153.499 252.551 153.69 252.261C153.888 251.971 154.175 251.753 154.549 251.608C154.923 251.455 155.374 251.379 155.901 251.379H157.562V252.203H155.855C155.412 252.203 155.072 252.31 154.835 252.524C154.599 252.738 154.48 253.013 154.48 253.349C154.48 253.685 154.599 253.956 154.835 254.162C155.072 254.368 155.412 254.471 155.855 254.471C156.114 254.471 156.363 254.426 156.599 254.334C156.836 254.235 157.031 254.074 157.184 253.853C157.344 253.624 157.432 253.311 157.447 252.914L157.745 253.349C157.707 253.784 157.6 254.151 157.424 254.449C157.256 254.739 157.019 254.96 156.714 255.113C156.416 255.266 156.053 255.342 155.626 255.342ZM162.902 255.25C162.443 255.25 162.046 255.185 161.71 255.056C161.382 254.926 161.126 254.704 160.943 254.391C160.767 254.071 160.679 253.639 160.679 253.097V247.209H161.733V253.234C161.733 253.563 161.821 253.819 161.997 254.002C162.18 254.177 162.436 254.265 162.764 254.265H163.841V255.25H162.902ZM159.626 249.89V249.065H163.841V249.89H159.626ZM167.974 255.388C167.448 255.388 166.989 255.296 166.6 255.113C166.218 254.93 165.901 254.685 165.649 254.38C165.397 254.067 165.206 253.723 165.076 253.349C164.954 252.975 164.893 252.601 164.893 252.226V252.02C164.893 251.631 164.954 251.249 165.076 250.875C165.206 250.501 165.397 250.165 165.649 249.867C165.909 249.561 166.23 249.317 166.611 249.134C166.993 248.95 167.44 248.859 167.952 248.859C168.463 248.859 168.921 248.954 169.326 249.145C169.738 249.336 170.067 249.607 170.311 249.958C170.563 250.302 170.704 250.711 170.735 251.184H169.681C169.628 250.802 169.452 250.485 169.154 250.233C168.856 249.974 168.456 249.844 167.952 249.844C167.516 249.844 167.154 249.943 166.863 250.142C166.573 250.34 166.356 250.611 166.21 250.955C166.065 251.299 165.993 251.688 165.993 252.123C165.993 252.543 166.065 252.929 166.21 253.28C166.356 253.624 166.573 253.899 166.863 254.105C167.161 254.303 167.532 254.403 167.974 254.403C168.318 254.403 168.616 254.342 168.868 254.219C169.12 254.097 169.322 253.933 169.475 253.727C169.628 253.521 169.719 253.288 169.75 253.028H170.804C170.781 253.509 170.64 253.925 170.38 254.277C170.128 254.628 169.792 254.903 169.372 255.101C168.96 255.292 168.494 255.388 167.974 255.388ZM172.298 255.182V246.82H173.398V251.814H173.123C173.123 251.211 173.199 250.691 173.352 250.256C173.512 249.813 173.757 249.473 174.085 249.237C174.413 249 174.833 248.882 175.345 248.882H175.391C176.124 248.882 176.677 249.126 177.052 249.615C177.426 250.096 177.613 250.787 177.613 251.688V255.182H176.513V251.459C176.513 250.963 176.372 250.577 176.089 250.302C175.815 250.027 175.456 249.89 175.013 249.89C174.524 249.89 174.131 250.054 173.833 250.382C173.543 250.703 173.398 251.127 173.398 251.654V255.182H172.298Z" fill="#00EE77"/>
</g>
</g>
<defs>
<filter id="filter0_i_18700_24938" x="0" y="0" width="438" height="302.129" filterUnits="userSpaceOnUse" color-interpolation-filters="sRGB">
<feFlood flood-opacity="0" result="BackgroundImageFix"/>
<feBlend mode="normal" in="SourceGraphic" in2="BackgroundImageFix" result="shape"/>
<feColorMatrix in="SourceAlpha" type="matrix" values="0 0 0 0 0 0 0 0 0 0 0 0 0 0 0 0 0 0 127 0" result="hardAlpha"/>
<feOffset dy="3.12857"/>
<feGaussianBlur stdDeviation="6.64821"/>
<feComposite in2="hardAlpha" operator="arithmetic" k2="-1" k3="1"/>
<feColorMatrix type="matrix" values="0 0 0 0 1 0 0 0 0 1 0 0 0 0 1 0 0 0 0.06 0"/>
<feBlend mode="normal" in2="shape" result="effect1_innerShadow_18700_24938"/>
</filter>
<clipPath id="clip0_18700_24938">
<rect width="438" height="299" rx="17.9893" fill="white"/>
</clipPath>
</defs>
</svg>
